0 LEGO Heddy - desk sculpture
0 Name: heddy.ldr
0 Author: heddy-lego project
0 !LICENSE Model: see repository licence; part geometry LDraw.org CC BY 4.0
0 // units: LDU, -y up
0 // 1446 parts, 148 steps

0 // ===== Feet =====
1 191 -60 -8 0 0 0 -1 0 1 0 1 0 0 3034.dat
1 191 60 -8 0 0 0 -1 0 1 0 1 0 0 3034.dat
0 STEP
1 191 -50 -24 -60 1 0 0 0 1 0 0 0 1 11477.dat
1 191 -70 -24 -60 1 0 0 0 1 0 0 0 1 11477.dat
1 191 -60 -16 20 0 0 -1 0 1 0 1 0 0 3795.dat
1 191 60 -16 20 0 0 -1 0 1 0 1 0 0 3795.dat
1 191 70 -24 -60 1 0 0 0 1 0 0 0 1 11477.dat
1 191 50 -24 -60 1 0 0 0 1 0 0 0 1 11477.dat
0 STEP
0 // ===== Lower body =====
1 15 -70 -24 -30 1 0 0 0 1 0 0 0 1 3024.dat
1 15 -70 -24 0 0 0 -1 0 1 0 1 0 0 3069b.dat
1 15 -70 -24 30 1 0 0 0 1 0 0 0 1 3024.dat
1 15 70 -24 30 1 0 0 0 1 0 0 0 1 25269.dat
1 15 70 -24 0 0 0 -1 0 1 0 1 0 0 3069b.dat
1 15 70 -24 -30 0 0 1 0 1 0 -1 0 0 25269.dat
1 15 0 -24 0 1 0 0 0 1 0 0 0 1 3032.dat
0 STEP
1 15 -10 -32 -40 0 0 -1 0 1 0 1 0 0 3023.dat
1 15 -30 -32 -40 0 0 -1 0 1 0 1 0 0 3023.dat
1 15 -60 -32 -30 1 0 0 0 1 0 0 0 1 3023.dat
1 15 -20 -32 0 1 0 0 0 1 0 0 0 1 3020.dat
1 15 -60 -32 30 1 0 0 0 1 0 0 0 1 3023.dat
1 15 -30 -32 40 0 0 -1 0 1 0 1 0 0 3023.dat
1 15 -10 -32 40 0 0 -1 0 1 0 1 0 0 3023.dat
1 15 10 -32 40 0 0 -1 0 1 0 1 0 0 3023.dat
1 15 30 -32 50 0 0 -1 0 1 0 1 0 0 3623.dat
1 15 50 -32 0 0 0 -1 0 1 0 1 0 0 3710.dat
1 71 30 -32 0 0 0 -1 0 1 0 1 0 0 3023.dat
1 15 30 -32 -50 0 0 -1 0 1 0 1 0 0 3623.dat
1 15 10 -32 -40 0 0 -1 0 1 0 1 0 0 3023.dat
0 STEP
1 15 -10 -40 -60 0 0 -1 0 1 0 1 0 0 3023.dat
1 15 -30 -40 -60 0 0 -1 0 1 0 1 0 0 3023.dat
1 15 -50 -40 -40 0 0 -1 0 1 0 1 0 0 3023.dat
1 15 -70 -40 -30 1 0 0 0 1 0 0 0 1 3024.dat
1 15 -60 -40 -10 1 0 0 0 1 0 0 0 1 3023.dat
1 71 -20 -40 0 0 0 -1 0 1 0 1 0 0 3020.dat
1 15 -60 -40 10 1 0 0 0 1 0 0 0 1 3023.dat
1 15 -70 -40 30 1 0 0 0 1 0 0 0 1 3024.dat
1 15 -50 -40 40 0 0 -1 0 1 0 1 0 0 3023.dat
1 15 -30 -40 60 0 0 -1 0 1 0 1 0 0 3023.dat
1 15 -10 -40 60 0 0 -1 0 1 0 1 0 0 3023.dat
0 STEP
1 15 20 -40 70 1 0 0 0 1 0 0 0 1 3023.dat
1 15 40 -40 50 1 0 0 0 1 0 0 0 1 3023.dat
1 15 60 -40 30 1 0 0 0 1 0 0 0 1 3023.dat
1 15 60 -40 10 1 0 0 0 1 0 0 0 1 3023.dat
1 71 10 -40 0 0 0 -1 0 1 0 1 0 0 3666.dat
1 71 30 -40 0 0 0 -1 0 1 0 1 0 0 3710.dat
1 15 60 -40 -10 1 0 0 0 1 0 0 0 1 3023.dat
1 15 60 -40 -30 1 0 0 0 1 0 0 0 1 3023.dat
1 15 40 -40 -50 1 0 0 0 1 0 0 0 1 3023.dat
1 15 20 -40 -70 1 0 0 0 1 0 0 0 1 3023.dat
0 STEP
1 15 -40 -48 -70 1 0 0 0 1 0 0 0 1 3023.dat
1 15 -60 -48 -50 1 0 0 0 1 0 0 0 1 3023.dat
1 15 -80 -48 -30 1 0 0 0 1 0 0 0 1 3023.dat
1 15 -80 -48 -10 1 0 0 0 1 0 0 0 1 3023.dat
1 71 -30 -48 0 0 0 -1 0 1 0 1 0 0 3666.dat
1 71 -50 -48 0 0 0 -1 0 1 0 1 0 0 3710.dat
1 15 -80 -48 10 1 0 0 0 1 0 0 0 1 3023.dat
1 15 -80 -48 30 1 0 0 0 1 0 0 0 1 3023.dat
1 15 -60 -48 50 1 0 0 0 1 0 0 0 1 3023.dat
1 15 -40 -48 70 1 0 0 0 1 0 0 0 1 3023.dat
1 15 40 -48 70 1 0 0 0 1 0 0 0 1 3023.dat
0 STEP
1 15 60 -48 50 1 0 0 0 1 0 0 0 1 3023.dat
1 15 80 -48 30 1 0 0 0 1 0 0 0 1 3023.dat
1 15 80 -48 10 1 0 0 0 1 0 0 0 1 3023.dat
1 71 30 -48 0 0 0 -1 0 1 0 1 0 0 3666.dat
1 71 50 -48 0 0 0 -1 0 1 0 1 0 0 3710.dat
1 15 80 -48 -10 1 0 0 0 1 0 0 0 1 3023.dat
1 15 80 -48 -30 1 0 0 0 1 0 0 0 1 3023.dat
1 15 60 -48 -50 1 0 0 0 1 0 0 0 1 3023.dat
1 15 40 -48 -70 1 0 0 0 1 0 0 0 1 3023.dat
1 15 0 -48 0 0 0 -1 0 1 0 1 0 0 3034.dat
0 STEP
1 15 -20 -56 -80 1 0 0 0 1 0 0 0 1 3068b.dat
1 15 -70 -56 0 0 0 -1 0 1 0 1 0 0 4162.dat
1 15 -90 -56 0 0 0 -1 0 1 0 1 0 0 6636.dat
1 15 -50 -56 0 0 0 -1 0 1 0 1 0 0 4162.dat
1 15 -20 -56 80 1 0 0 0 1 0 0 0 1 3068b.dat
1 15 0 -56 50 1 0 0 0 1 0 0 0 1 2431.dat
1 15 20 -56 80 1 0 0 0 1 0 0 0 1 3068b.dat
1 15 70 -56 0 0 0 -1 0 1 0 1 0 0 4162.dat
1 15 90 -56 0 0 0 -1 0 1 0 1 0 0 6636.dat
1 15 50 -56 0 0 0 -1 0 1 0 1 0 0 4162.dat
1 15 20 -56 -80 1 0 0 0 1 0 0 0 1 3068b.dat
1 71 0 -56 0 1 0 0 0 1 0 0 0 1 3031.dat
1 15 0 -56 -50 1 0 0 0 1 0 0 0 1 2431.dat
0 STEP
0 // ===== Internal core & swivel =====
0 // Turntable: the upper body can turn on its feet
1 72 0 -80 0 1 0 0 0 1 0 0 0 1 3403c01.dat
0 STEP
0 // Build the upper module separately
1 15 -90 -88 -90 1 0 0 0 1 0 0 0 1 3024.dat
1 15 -110 -88 -70 1 0 0 0 1 0 0 0 1 3024.dat
1 15 -40 -88 0 0 0 -1 0 1 0 1 0 0 3029.dat
1 71 -90 -88 0 0 0 -1 0 1 0 1 0 0 3460.dat
1 15 -120 -88 0 0 0 -1 0 1 0 1 0 0 3795.dat
1 151 -130 -88 70 1 0 0 0 1 0 0 0 1 3024.dat
1 151 -110 -88 80 0 0 -1 0 1 0 1 0 0 3023.dat
1 151 -90 -88 90 1 0 0 0 1 0 0 0 1 3024.dat
0 STEP
1 151 100 -88 90 1 0 0 0 1 0 0 0 1 3023.dat
1 151 120 -88 70 1 0 0 0 1 0 0 0 1 3023.dat
1 15 40 -88 0 0 0 -1 0 1 0 1 0 0 3029.dat
1 71 90 -88 0 0 0 -1 0 1 0 1 0 0 3460.dat
1 15 120 -88 0 0 0 -1 0 1 0 1 0 0 3795.dat
1 15 110 -88 -70 1 0 0 0 1 0 0 0 1 3024.dat
1 15 90 -88 -90 1 0 0 0 1 0 0 0 1 3024.dat
0 STEP
0 // Turn the module over
1 15 -40 -80 -90 0 0 -1 0 1 0 1 0 0 3021.dat
1 15 -70 -80 -70 0 0 -1 0 1 0 1 0 0 3623.dat
1 15 -90 -80 -90 1 0 0 0 1 0 0 0 1 3024.dat
1 15 -100 -80 0 0 0 -1 0 1 0 1 0 0 3034.dat
1 15 -130 -80 0 0 0 -1 0 1 0 1 0 0 3710.dat
1 151 -100 -80 90 1 0 0 0 1 0 0 0 1 3023.dat
1 15 -70 -80 80 0 0 -1 0 1 0 1 0 0 3023.dat
1 71 -40 -80 70 1 0 0 0 1 0 0 0 1 3023.dat
1 15 0 -80 100 1 0 0 0 1 0 0 0 1 3795.dat
0 STEP
1 71 40 -80 70 1 0 0 0 1 0 0 0 1 3023.dat
1 15 70 -80 80 0 0 -1 0 1 0 1 0 0 3023.dat
1 151 100 -80 90 1 0 0 0 1 0 0 0 1 3023.dat
1 15 100 -80 0 0 0 -1 0 1 0 1 0 0 3034.dat
1 15 130 -80 0 0 0 -1 0 1 0 1 0 0 3710.dat
1 15 70 -80 -70 0 0 -1 0 1 0 1 0 0 3623.dat
1 15 90 -80 -90 1 0 0 0 1 0 0 0 1 3024.dat
1 15 40 -80 -90 0 0 -1 0 1 0 1 0 0 3021.dat
1 15 0 -80 -100 1 0 0 0 1 0 0 0 1 3022.dat
0 STEP
1 15 -70 -72 -60 0 0 -1 0 1 0 1 0 0 3710.dat
1 15 -90 -72 0 0 0 -1 0 1 0 1 0 0 3460.dat
1 15 -110 -72 0 0 0 -1 0 1 0 1 0 0 3666.dat
1 71 -70 -72 50 0 0 -1 0 1 0 1 0 0 3623.dat
1 151 -80 -72 90 1 0 0 0 1 0 0 0 1 3023.dat
1 15 -50 -72 80 0 0 -1 0 1 0 1 0 0 3023.dat
1 15 0 -72 100 1 0 0 0 1 0 0 0 1 3020.dat
1 71 0 -72 70 1 0 0 0 1 0 0 0 1 3710.dat
1 15 50 -72 80 0 0 -1 0 1 0 1 0 0 3023.dat
0 STEP
1 151 80 -72 90 1 0 0 0 1 0 0 0 1 3023.dat
1 15 80 -72 50 0 0 -1 0 1 0 1 0 0 3021.dat
1 15 110 -72 0 0 0 -1 0 1 0 1 0 0 3666.dat
1 71 90 -72 -20 0 0 -1 0 1 0 1 0 0 3710.dat
1 15 90 -72 -70 1 0 0 0 1 0 0 0 1 3024.dat
1 15 70 -72 -60 0 0 -1 0 1 0 1 0 0 3710.dat
1 15 0 -72 -80 1 0 0 0 1 0 0 0 1 3795.dat
1 15 0 -72 -110 1 0 0 0 1 0 0 0 1 3710.dat
0 STEP
1 15 -80 -64 0 0 0 -1 0 1 0 1 0 0 3034.dat
1 15 -110 -64 0 0 0 -1 0 1 0 1 0 0 3710.dat
1 15 0 -64 80 1 0 0 0 1 0 0 0 1 3795.dat
1 15 80 -64 0 0 0 -1 0 1 0 1 0 0 3034.dat
1 15 110 -64 0 0 0 -1 0 1 0 1 0 0 3710.dat
1 15 0 -64 -80 1 0 0 0 1 0 0 0 1 3795.dat
0 STEP
0 // Turn the module back and press it onto the turntable
0 STEP
0 // ===== Torso & wings =====
1 15 -20 -96 -90 1 0 0 0 1 0 0 0 1 4477.dat
1 15 -50 -96 -110 1 0 0 0 1 0 0 0 1 3623.dat
1 71 -60 -96 -70 1 0 0 0 1 0 0 0 1 3023.dat
1 15 -110 -96 -70 1 0 0 0 1 0 0 0 1 3024.dat
1 71 -90 -96 -50 0 0 -1 0 1 0 1 0 0 3623.dat
1 15 -120 -96 0 0 0 -1 0 1 0 1 0 0 3795.dat
1 151 -120 -96 80 1 0 0 0 1 0 0 0 1 3022.dat
1 15 -90 -96 80 0 0 -1 0 1 0 1 0 0 3023.dat
1 15 -60 -96 90 0 0 -1 0 1 0 1 0 0 3021.dat
1 15 0 -96 120 1 0 0 0 1 0 0 0 1 3020.dat
0 STEP
1 71 0 -96 90 1 0 0 0 1 0 0 0 1 3710.dat
1 15 60 -96 90 0 0 -1 0 1 0 1 0 0 3021.dat
1 15 90 -96 80 0 0 -1 0 1 0 1 0 0 3023.dat
1 151 120 -96 80 1 0 0 0 1 0 0 0 1 3022.dat
1 15 120 -96 20 0 0 -1 0 1 0 1 0 0 3020.dat
1 15 130 -96 -40 0 0 -1 0 1 0 1 0 0 3023.dat
1 15 100 -96 -60 0 0 -1 0 1 0 1 0 0 3020.dat
1 71 60 -96 -70 1 0 0 0 1 0 0 0 1 3023.dat
1 15 50 -96 -110 1 0 0 0 1 0 0 0 1 3623.dat
1 15 0 -112 -110 1 0 0 0 1 0 0 0 1 11211.dat
0 STEP
1 15 -30 -104 -110 1 0 0 0 1 0 0 0 1 3024.dat
1 15 -50 -104 -110 0 0 -1 0 1 0 1 0 0 3623.dat
1 15 -80 -104 -100 1 0 0 0 1 0 0 0 1 3022.dat
1 71 -70 -104 -70 1 0 0 0 1 0 0 0 1 3024.dat
1 15 -110 -104 -90 1 0 0 0 1 0 0 0 1 3024.dat
1 15 -110 -104 -60 1 0 0 0 1 0 0 0 1 3021.dat
1 71 -110 -104 -20 0 0 -1 0 1 0 1 0 0 3023.dat
1 15 -140 -104 0 0 0 -1 0 1 0 1 0 0 3020.dat
1 151 -140 -104 60 1 0 0 0 1 0 0 0 1 3022.dat
1 71 -110 -104 60 0 0 -1 0 1 0 1 0 0 3023.dat
1 151 -120 -104 90 1 0 0 0 1 0 0 0 1 3023.dat
1 15 -80 -104 90 0 0 -1 0 1 0 1 0 0 3021.dat
1 71 -40 -104 90 1 0 0 0 1 0 0 0 1 3023.dat
1 15 0 -104 120 1 0 0 0 1 0 0 0 1 3795.dat
0 STEP
1 71 40 -104 90 1 0 0 0 1 0 0 0 1 3023.dat
1 15 80 -104 90 0 0 -1 0 1 0 1 0 0 3021.dat
1 151 120 -104 90 1 0 0 0 1 0 0 0 1 3023.dat
1 71 110 -104 60 0 0 -1 0 1 0 1 0 0 3023.dat
1 151 140 -104 60 1 0 0 0 1 0 0 0 1 3022.dat
1 15 140 -104 0 0 0 -1 0 1 0 1 0 0 3020.dat
1 71 110 -104 -20 0 0 -1 0 1 0 1 0 0 3023.dat
1 15 110 -104 -60 1 0 0 0 1 0 0 0 1 3021.dat
1 15 110 -104 -90 1 0 0 0 1 0 0 0 1 3024.dat
1 71 70 -104 -70 1 0 0 0 1 0 0 0 1 3024.dat
1 15 80 -104 -100 1 0 0 0 1 0 0 0 1 3022.dat
1 15 50 -104 -110 0 0 -1 0 1 0 1 0 0 3623.dat
1 15 30 -104 -110 1 0 0 0 1 0 0 0 1 3024.dat
1 71 0 -104 -90 1 0 0 0 1 0 0 0 1 3710.dat
0 STEP
1 15 -40 -112 -110 1 0 0 0 1 0 0 0 1 3023.dat
1 15 -50 -112 -130 1 0 0 0 1 0 0 0 1 3024.dat
1 15 -70 -112 -90 0 0 -1 0 1 0 1 0 0 3623.dat
1 15 -90 -112 -80 0 0 -1 0 1 0 1 0 0 3710.dat
1 15 -110 -112 -60 0 0 -1 0 1 0 1 0 0 3710.dat
1 15 -130 -112 -70 1 0 0 0 1 0 0 0 1 3024.dat
1 15 -140 -112 -20 0 0 -1 0 1 0 1 0 0 3020.dat
1 15 -150 -112 30 1 0 0 0 1 0 0 0 1 3024.dat
1 71 -130 -112 40 0 0 -1 0 1 0 1 0 0 3023.dat
1 151 -160 -112 50 1 0 0 0 1 0 0 0 1 3023.dat
1 151 -150 -112 70 1 0 0 0 1 0 0 0 1 3024.dat
0 STEP
1 71 -110 -112 60 0 0 -1 0 1 0 1 0 0 3023.dat
1 151 -130 -112 80 0 0 -1 0 1 0 1 0 0 3023.dat
1 151 -110 -112 90 1 0 0 0 1 0 0 0 1 3024.dat
1 15 -80 -112 90 0 0 -1 0 1 0 1 0 0 3021.dat
1 71 -40 -112 90 1 0 0 0 1 0 0 0 1 3023.dat
1 15 0 -112 120 1 0 0 0 1 0 0 0 1 3795.dat
1 71 40 -112 90 1 0 0 0 1 0 0 0 1 3023.dat
1 15 80 -112 90 0 0 -1 0 1 0 1 0 0 3021.dat
1 151 120 -112 90 1 0 0 0 1 0 0 0 1 3023.dat
1 71 110 -112 60 0 0 -1 0 1 0 1 0 0 3023.dat
1 151 140 -112 70 1 0 0 0 1 0 0 0 1 3023.dat
0 STEP
1 151 160 -112 50 1 0 0 0 1 0 0 0 1 3023.dat
1 71 130 -112 40 0 0 -1 0 1 0 1 0 0 3023.dat
1 15 150 -112 30 1 0 0 0 1 0 0 0 1 3024.dat
1 15 140 -112 -20 0 0 -1 0 1 0 1 0 0 3020.dat
1 15 130 -112 -70 1 0 0 0 1 0 0 0 1 3024.dat
1 15 110 -112 -60 0 0 -1 0 1 0 1 0 0 3710.dat
1 15 90 -112 -80 0 0 -1 0 1 0 1 0 0 3710.dat
1 15 70 -112 -90 0 0 -1 0 1 0 1 0 0 3623.dat
1 15 50 -112 -130 1 0 0 0 1 0 0 0 1 3024.dat
1 15 40 -112 -110 1 0 0 0 1 0 0 0 1 3023.dat
1 71 0 -112 -90 1 0 0 0 1 0 0 0 1 3666.dat
0 STEP
1 15 -50 -120 -130 1 0 0 0 1 0 0 0 1 3024.dat
1 15 -40 -136 -90 1 0 0 0 1 0 0 0 1 6111.dat
1 15 -70 -136 -120 0 0 -1 0 1 0 1 0 0 3004.dat
1 15 -100 -136 -110 1 0 0 0 1 0 0 0 1 3004.dat
1 71 -90 -136 -70 1 0 0 0 1 0 0 0 1 3005.dat
1 71 -110 -136 -60 0 0 -1 0 1 0 1 0 0 3004.dat
1 15 -140 -136 -40 0 0 -1 0 1 0 1 0 0 3001.dat
1 15 -150 -136 10 1 0 0 0 1 0 0 0 1 3005.dat
1 151 -170 -136 50 0 0 -1 0 1 0 1 0 0 3622.dat
1 71 -130 -136 40 0 0 -1 0 1 0 1 0 0 3010.dat
1 151 -150 -136 60 0 0 -1 0 1 0 1 0 0 3010.dat
0 STEP
1 151 -130 -136 90 1 0 0 0 1 0 0 0 1 3005.dat
1 15 -100 -136 90 0 0 -1 0 1 0 1 0 0 3002.dat
1 15 -60 -136 110 0 0 -1 0 1 0 1 0 0 3002.dat
1 15 -30 -136 120 0 0 -1 0 1 0 1 0 0 3004.dat
1 15 0 -136 130 0 0 -1 0 1 0 1 0 0 3002.dat
1 15 30 -136 120 0 0 -1 0 1 0 1 0 0 3004.dat
1 15 60 -136 110 0 0 -1 0 1 0 1 0 0 3002.dat
1 15 100 -136 90 0 0 -1 0 1 0 1 0 0 3002.dat
1 151 130 -136 90 1 0 0 0 1 0 0 0 1 3005.dat
1 151 150 -136 60 0 0 -1 0 1 0 1 0 0 3010.dat
1 71 130 -136 40 0 0 -1 0 1 0 1 0 0 3010.dat
0 STEP
1 151 170 -136 50 0 0 -1 0 1 0 1 0 0 3622.dat
1 15 150 -136 10 1 0 0 0 1 0 0 0 1 3005.dat
1 15 140 -136 -40 0 0 -1 0 1 0 1 0 0 3001.dat
1 71 110 -136 -60 0 0 -1 0 1 0 1 0 0 3004.dat
1 71 90 -136 -70 1 0 0 0 1 0 0 0 1 3005.dat
1 15 100 -136 -90 1 0 0 0 1 0 0 0 1 3010.dat
1 15 100 -136 -110 1 0 0 0 1 0 0 0 1 3004.dat
1 15 70 -136 -120 0 0 -1 0 1 0 1 0 0 3004.dat
1 15 50 -120 -130 1 0 0 0 1 0 0 0 1 3024.dat
1 15 0 -136 -110 1 0 0 0 1 0 0 0 1 3009.dat
0 STEP
1 15 -50 -128 -130 1 0 0 0 1 0 0 0 1 3024.dat
1 15 50 -128 -130 1 0 0 0 1 0 0 0 1 3024.dat
0 STEP
1 15 -50 -136 -130 1 0 0 0 1 0 0 0 1 3070b.dat
1 15 50 -136 -130 1 0 0 0 1 0 0 0 1 3070b.dat
0 STEP
1 15 -80 -144 -110 0 0 -1 0 1 0 1 0 0 3021.dat
1 71 -90 -144 -70 1 0 0 0 1 0 0 0 1 3024.dat
1 15 -110 -144 -80 0 0 -1 0 1 0 1 0 0 3710.dat
1 15 -130 -144 -90 1 0 0 0 1 0 0 0 1 3024.dat
1 15 -150 -144 -60 0 0 -1 0 1 0 1 0 0 3023.dat
1 71 -130 -144 -40 0 0 -1 0 1 0 1 0 0 3710.dat
1 15 -160 -144 -10 0 0 -1 0 1 0 1 0 0 3021.dat
1 151 -180 -144 30 1 0 0 0 1 0 0 0 1 3023.dat
1 71 -150 -144 30 1 0 0 0 1 0 0 0 1 3024.dat
1 151 -170 -144 60 0 0 -1 0 1 0 1 0 0 3023.dat
1 71 -130 -144 60 0 0 -1 0 1 0 1 0 0 3023.dat
1 151 -150 -144 70 0 0 -1 0 1 0 1 0 0 3623.dat
0 STEP
1 151 -130 -144 90 1 0 0 0 1 0 0 0 1 3024.dat
1 71 -90 -144 70 1 0 0 0 1 0 0 0 1 3024.dat
1 15 -110 -144 90 0 0 -1 0 1 0 1 0 0 3623.dat
1 15 -80 -144 110 0 0 -1 0 1 0 1 0 0 3021.dat
1 71 -40 -144 110 1 0 0 0 1 0 0 0 1 3023.dat
1 15 0 -144 140 1 0 0 0 1 0 0 0 1 3795.dat
1 71 40 -144 110 1 0 0 0 1 0 0 0 1 3023.dat
1 15 80 -144 110 0 0 -1 0 1 0 1 0 0 3021.dat
1 15 110 -144 90 0 0 -1 0 1 0 1 0 0 3623.dat
1 71 90 -144 70 1 0 0 0 1 0 0 0 1 3024.dat
1 151 140 -144 90 1 0 0 0 1 0 0 0 1 3023.dat
1 71 130 -144 60 0 0 -1 0 1 0 1 0 0 3023.dat
0 STEP
1 151 160 -144 60 1 0 0 0 1 0 0 0 1 3022.dat
1 71 150 -144 30 1 0 0 0 1 0 0 0 1 3024.dat
1 151 180 -144 30 1 0 0 0 1 0 0 0 1 3023.dat
1 15 160 -144 -10 0 0 -1 0 1 0 1 0 0 3021.dat
1 71 130 -144 -40 0 0 -1 0 1 0 1 0 0 3710.dat
1 15 150 -144 -60 0 0 -1 0 1 0 1 0 0 3023.dat
1 15 130 -144 -90 1 0 0 0 1 0 0 0 1 3024.dat
1 15 110 -144 -80 0 0 -1 0 1 0 1 0 0 3710.dat
1 71 90 -144 -70 1 0 0 0 1 0 0 0 1 3024.dat
1 15 80 -144 -110 0 0 -1 0 1 0 1 0 0 3021.dat
1 15 0 -144 -100 1 0 0 0 1 0 0 0 1 3795.dat
0 STEP
1 15 -20 -152 -100 1 0 0 0 1 0 0 0 1 2445.dat
1 15 -80 -152 -130 1 0 0 0 1 0 0 0 1 3023.dat
1 71 -110 -152 -60 0 0 -1 0 1 0 1 0 0 3023.dat
1 15 -140 -152 -70 1 0 0 0 1 0 0 0 1 3023.dat
1 15 -150 -152 -40 1 0 0 0 1 0 0 0 1 3021.dat
1 15 -170 -152 -10 1 0 0 0 1 0 0 0 1 3024.dat
1 71 -150 -152 20 0 0 -1 0 1 0 1 0 0 3710.dat
1 151 -180 -152 30 0 0 -1 0 1 0 1 0 0 3021.dat
1 71 -130 -152 50 1 0 0 0 1 0 0 0 1 3024.dat
1 151 -160 -152 70 1 0 0 0 1 0 0 0 1 3023.dat
1 71 -120 -152 70 1 0 0 0 1 0 0 0 1 3023.dat
0 STEP
1 151 -140 -152 90 1 0 0 0 1 0 0 0 1 3023.dat
1 71 -90 -152 90 1 0 0 0 1 0 0 0 1 3623.dat
1 15 -80 -152 110 1 0 0 0 1 0 0 0 1 3666.dat
1 15 -80 -152 130 1 0 0 0 1 0 0 0 1 3023.dat
1 15 0 -152 140 1 0 0 0 1 0 0 0 1 3795.dat
1 15 80 -152 130 1 0 0 0 1 0 0 0 1 3023.dat
1 15 80 -152 110 1 0 0 0 1 0 0 0 1 3666.dat
1 71 90 -152 90 1 0 0 0 1 0 0 0 1 3623.dat
1 151 140 -152 90 1 0 0 0 1 0 0 0 1 3023.dat
1 71 120 -152 70 1 0 0 0 1 0 0 0 1 3023.dat
1 151 160 -152 70 1 0 0 0 1 0 0 0 1 3023.dat
0 STEP
1 71 140 -152 50 1 0 0 0 1 0 0 0 1 3023.dat
1 151 180 -152 30 0 0 -1 0 1 0 1 0 0 3021.dat
1 71 150 -152 10 0 0 -1 0 1 0 1 0 0 3623.dat
1 15 170 -152 -10 1 0 0 0 1 0 0 0 1 3024.dat
1 15 150 -152 -40 1 0 0 0 1 0 0 0 1 3021.dat
1 71 110 -152 -50 1 0 0 0 1 0 0 0 1 3024.dat
1 15 150 -152 -70 1 0 0 0 1 0 0 0 1 3024.dat
1 15 120 -152 -90 0 0 -1 0 1 0 1 0 0 3021.dat
1 15 80 -152 -130 1 0 0 0 1 0 0 0 1 3023.dat
0 STEP
1 15 -20 -176 -110 1 0 0 0 1 0 0 0 1 30414.dat
1 15 -80 -160 -130 1 0 0 0 1 0 0 0 1 3023.dat
1 15 -60 -176 -90 1 0 0 0 1 0 0 0 1 6111.dat
1 71 -80 -176 -110 1 0 0 0 1 0 0 0 1 3004.dat
1 15 -110 -176 -120 0 0 -1 0 1 0 1 0 0 3004.dat
1 15 -130 -176 -110 1 0 0 0 1 0 0 0 1 3005.dat
1 71 -110 -176 -70 1 0 0 0 1 0 0 0 1 3005.dat
1 15 -150 -176 -70 1 0 0 0 1 0 0 0 1 3005.dat
1 71 -130 -176 -50 0 0 -1 0 1 0 1 0 0 3622.dat
1 15 -170 -176 -30 0 0 -1 0 1 0 1 0 0 3622.dat
1 71 -150 -176 0 0 0 -1 0 1 0 1 0 0 3009.dat
1 151 -180 -176 30 0 0 -1 0 1 0 1 0 0 3002.dat
0 STEP
1 151 -160 -176 80 1 0 0 0 1 0 0 0 1 3003.dat
1 71 -110 -176 70 1 0 0 0 1 0 0 0 1 3005.dat
1 15 -130 -176 90 0 0 -1 0 1 0 1 0 0 3622.dat
1 15 -100 -176 110 0 0 -1 0 1 0 1 0 0 3002.dat
1 71 -60 -176 110 1 0 0 0 1 0 0 0 1 3004.dat
1 15 -20 -176 140 1 0 0 0 1 0 0 0 1 2456.dat
1 15 60 -176 130 0 0 -1 0 1 0 1 0 0 3002.dat
1 15 100 -176 110 0 0 -1 0 1 0 1 0 0 3002.dat
1 15 130 -176 90 0 0 -1 0 1 0 1 0 0 3622.dat
1 71 110 -176 70 1 0 0 0 1 0 0 0 1 3005.dat
1 151 150 -176 80 0 0 -1 0 1 0 1 0 0 3004.dat
1 151 170 -176 60 0 0 -1 0 1 0 1 0 0 3010.dat
0 STEP
1 151 190 -176 30 0 0 -1 0 1 0 1 0 0 3622.dat
1 151 170 -176 10 1 0 0 0 1 0 0 0 1 3005.dat
1 15 150 -176 -20 0 0 -1 0 1 0 1 0 0 3008.dat
1 15 170 -176 -30 0 0 -1 0 1 0 1 0 0 3622.dat
1 71 130 -176 -60 0 0 -1 0 1 0 1 0 0 3010.dat
1 15 130 -176 -110 1 0 0 0 1 0 0 0 1 3005.dat
1 15 110 -176 -100 0 0 -1 0 1 0 1 0 0 3010.dat
1 71 70 -176 -90 1 0 0 0 1 0 0 0 1 3622.dat
1 71 80 -176 -110 1 0 0 0 1 0 0 0 1 3004.dat
1 15 80 -160 -130 1 0 0 0 1 0 0 0 1 3023.dat
1 15 40 -176 -110 1 0 0 0 1 0 0 0 1 11211.dat
0 STEP
1 15 -80 -168 -130 1 0 0 0 1 0 0 0 1 3023.dat
1 15 80 -168 -130 1 0 0 0 1 0 0 0 1 3023.dat
0 STEP
1 15 -80 -176 -130 1 0 0 0 1 0 0 0 1 3069b.dat
1 15 80 -176 -130 1 0 0 0 1 0 0 0 1 3069b.dat
0 STEP
1 15 -110 -184 -100 0 0 -1 0 1 0 1 0 0 3710.dat
1 15 -130 -184 -110 1 0 0 0 1 0 0 0 1 3024.dat
1 15 -140 -184 -90 1 0 0 0 1 0 0 0 1 3023.dat
1 15 -150 -184 -60 1 0 0 0 1 0 0 0 1 3021.dat
1 15 -170 -184 -30 1 0 0 0 1 0 0 0 1 3024.dat
1 71 -150 -184 -10 0 0 -1 0 1 0 1 0 0 3623.dat
1 151 -180 -184 -10 1 0 0 0 1 0 0 0 1 3023.dat
1 151 -180 -184 40 0 0 -1 0 1 0 1 0 0 3020.dat
1 71 -150 -184 60 0 0 -1 0 1 0 1 0 0 3023.dat
1 151 -160 -184 90 1 0 0 0 1 0 0 0 1 3023.dat
1 15 -130 -184 90 0 0 -1 0 1 0 1 0 0 3623.dat
0 STEP
1 15 -110 -184 100 0 0 -1 0 1 0 1 0 0 3710.dat
1 71 -90 -184 90 1 0 0 0 1 0 0 0 1 3024.dat
1 71 -80 -184 110 1 0 0 0 1 0 0 0 1 3023.dat
1 15 -60 -184 140 1 0 0 0 1 0 0 0 1 3020.dat
1 15 0 -184 150 0 0 -1 0 1 0 1 0 0 3021.dat
1 15 60 -184 140 1 0 0 0 1 0 0 0 1 3020.dat
1 71 80 -184 110 1 0 0 0 1 0 0 0 1 3023.dat
1 71 90 -184 90 1 0 0 0 1 0 0 0 1 3024.dat
1 15 110 -184 100 0 0 -1 0 1 0 1 0 0 3710.dat
1 15 130 -184 90 0 0 -1 0 1 0 1 0 0 3623.dat
1 151 160 -184 90 1 0 0 0 1 0 0 0 1 3023.dat
0 STEP
1 71 150 -184 60 0 0 -1 0 1 0 1 0 0 3023.dat
1 151 180 -184 40 0 0 -1 0 1 0 1 0 0 3020.dat
1 151 180 -184 -10 1 0 0 0 1 0 0 0 1 3023.dat
1 71 150 -184 -10 0 0 -1 0 1 0 1 0 0 3623.dat
1 15 170 -184 -30 1 0 0 0 1 0 0 0 1 3024.dat
1 15 150 -184 -60 1 0 0 0 1 0 0 0 1 3021.dat
1 15 150 -184 -90 1 0 0 0 1 0 0 0 1 3024.dat
1 15 130 -184 -100 0 0 -1 0 1 0 1 0 0 3023.dat
1 15 110 -184 -100 0 0 -1 0 1 0 1 0 0 3710.dat
1 15 0 -184 -100 1 0 0 0 1 0 0 0 1 3832.dat
0 STEP
1 15 -40 -192 -110 1 0 0 0 1 0 0 0 1 4477.dat
1 15 -110 -192 -130 1 0 0 0 1 0 0 0 1 3024.dat
1 15 -170 -192 -70 1 0 0 0 1 0 0 0 1 3024.dat
1 15 -100 -192 -20 0 0 -1 0 1 0 1 0 0 3036.dat
1 15 -170 -192 -20 0 0 -1 0 1 0 1 0 0 3710.dat
1 151 -200 -192 0 1 0 0 0 1 0 0 0 1 3022.dat
1 151 -190 -192 50 0 0 -1 0 1 0 1 0 0 3623.dat
1 151 -170 -192 60 0 0 -1 0 1 0 1 0 0 3710.dat
1 71 -150 -192 70 1 0 0 0 1 0 0 0 1 3024.dat
1 151 -150 -192 90 1 0 0 0 1 0 0 0 1 3024.dat
1 15 -130 -192 90 0 0 -1 0 1 0 1 0 0 3623.dat
1 15 -80 -192 100 1 0 0 0 1 0 0 0 1 3031.dat
1 15 -70 -192 150 1 0 0 0 1 0 0 0 1 3623.dat
1 15 0 -192 160 1 0 0 0 1 0 0 0 1 3020.dat
0 STEP
1 15 70 -192 150 1 0 0 0 1 0 0 0 1 3623.dat
1 15 40 -192 80 1 0 0 0 1 0 0 0 1 3036.dat
1 15 130 -192 90 0 0 -1 0 1 0 1 0 0 3623.dat
1 151 160 -192 90 1 0 0 0 1 0 0 0 1 3023.dat
1 71 150 -192 70 1 0 0 0 1 0 0 0 1 3024.dat
1 151 180 -192 50 0 0 -1 0 1 0 1 0 0 3021.dat
1 151 200 -192 0 1 0 0 0 1 0 0 0 1 3022.dat
1 15 170 -192 -20 0 0 -1 0 1 0 1 0 0 3710.dat
1 15 140 -192 -20 0 0 -1 0 1 0 1 0 0 3034.dat
1 15 170 -192 -70 1 0 0 0 1 0 0 0 1 3024.dat
1 71 40 -192 -40 1 0 0 0 1 0 0 0 1 3036.dat
1 15 100 -192 -110 1 0 0 0 1 0 0 0 1 3710.dat
1 15 110 -192 -130 1 0 0 0 1 0 0 0 1 3024.dat
0 STEP
1 71 -20 -216 -90 1 0 0 0 1 0 0 0 1 6111.dat
1 15 -60 -216 -110 1 0 0 0 1 0 0 0 1 30414.dat
1 15 -120 -200 -130 1 0 0 0 1 0 0 0 1 3023.dat
1 71 -110 -216 -110 1 0 0 0 1 0 0 0 1 3005.dat
1 15 -140 -216 -80 0 0 -1 0 1 0 1 0 0 3001.dat
1 15 -170 -216 -60 0 0 -1 0 1 0 1 0 0 3004.dat
1 15 -170 -216 -30 1 0 0 0 1 0 0 0 1 3622.dat
1 71 -150 -216 -10 1 0 0 0 1 0 0 0 1 3005.dat
1 151 -200 -216 10 0 0 -1 0 1 0 1 0 0 3002.dat
1 71 -170 -216 10 0 0 -1 0 1 0 1 0 0 3622.dat
1 151 -190 -216 60 0 0 -1 0 1 0 1 0 0 3004.dat
1 71 -150 -216 60 0 0 -1 0 1 0 1 0 0 3004.dat
1 151 -170 -216 70 0 0 -1 0 1 0 1 0 0 3622.dat
1 71 -130 -216 70 1 0 0 0 1 0 0 0 1 3005.dat
0 STEP
1 151 -150 -216 90 1 0 0 0 1 0 0 0 1 3005.dat
1 71 -120 -216 90 1 0 0 0 1 0 0 0 1 3004.dat
1 15 -120 -216 110 1 0 0 0 1 0 0 0 1 3010.dat
1 71 -70 -216 110 1 0 0 0 1 0 0 0 1 3005.dat
1 15 -80 -216 130 1 0 0 0 1 0 0 0 1 3009.dat
1 15 -80 -216 150 1 0 0 0 1 0 0 0 1 3004.dat
1 15 0 -216 160 1 0 0 0 1 0 0 0 1 2456.dat
1 15 80 -216 150 1 0 0 0 1 0 0 0 1 3004.dat
1 15 80 -216 130 1 0 0 0 1 0 0 0 1 3009.dat
1 71 70 -216 110 1 0 0 0 1 0 0 0 1 3005.dat
1 15 120 -216 110 1 0 0 0 1 0 0 0 1 3010.dat
1 71 120 -216 90 1 0 0 0 1 0 0 0 1 3004.dat
1 151 160 -216 90 1 0 0 0 1 0 0 0 1 3004.dat
1 71 140 -216 70 1 0 0 0 1 0 0 0 1 3004.dat
0 STEP
1 151 180 -216 60 1 0 0 0 1 0 0 0 1 3003.dat
1 71 150 -216 50 1 0 0 0 1 0 0 0 1 3005.dat
1 71 170 -216 10 0 0 -1 0 1 0 1 0 0 3622.dat
1 151 200 -216 10 0 0 -1 0 1 0 1 0 0 3002.dat
1 71 150 -216 -10 1 0 0 0 1 0 0 0 1 3005.dat
1 15 170 -216 -30 1 0 0 0 1 0 0 0 1 3622.dat
1 15 170 -216 -60 0 0 -1 0 1 0 1 0 0 3004.dat
1 15 140 -216 -80 0 0 -1 0 1 0 1 0 0 3001.dat
1 71 100 -216 -90 1 0 0 0 1 0 0 0 1 3004.dat
1 71 110 -216 -110 1 0 0 0 1 0 0 0 1 3005.dat
1 15 120 -200 -130 1 0 0 0 1 0 0 0 1 3023.dat
1 15 80 -216 -110 1 0 0 0 1 0 0 0 1 11211.dat
1 15 20 -216 -110 1 0 0 0 1 0 0 0 1 30414.dat
0 STEP
1 15 -120 -208 -130 1 0 0 0 1 0 0 0 1 3023.dat
1 15 120 -208 -130 1 0 0 0 1 0 0 0 1 3023.dat
0 STEP
1 15 -120 -216 -130 1 0 0 0 1 0 0 0 1 3069b.dat
1 15 120 -216 -130 1 0 0 0 1 0 0 0 1 3069b.dat
0 STEP
1 15 -80 -224 -110 1 0 0 0 1 0 0 0 1 3460.dat
1 15 -80 -224 -90 1 0 0 0 1 0 0 0 1 4477.dat
1 71 -130 -224 -70 1 0 0 0 1 0 0 0 1 3024.dat
1 71 -150 -224 -40 0 0 -1 0 1 0 1 0 0 3710.dat
1 15 -190 -224 -30 1 0 0 0 1 0 0 0 1 3024.dat
1 15 -170 -224 -20 0 0 -1 0 1 0 1 0 0 3666.dat
1 151 -210 -224 10 0 0 -1 0 1 0 1 0 0 3623.dat
1 151 -190 -224 40 0 0 -1 0 1 0 1 0 0 3666.dat
1 151 -170 -224 70 0 0 -1 0 1 0 1 0 0 3623.dat
1 71 -130 -224 70 1 0 0 0 1 0 0 0 1 3024.dat
1 15 -150 -224 90 0 0 -1 0 1 0 1 0 0 3623.dat
0 STEP
1 15 -120 -224 110 0 0 -1 0 1 0 1 0 0 3021.dat
1 15 -80 -224 130 0 0 -1 0 1 0 1 0 0 3021.dat
1 71 -40 -224 130 1 0 0 0 1 0 0 0 1 3023.dat
1 15 0 -224 160 1 0 0 0 1 0 0 0 1 3795.dat
1 71 40 -224 130 1 0 0 0 1 0 0 0 1 3023.dat
1 15 80 -224 130 0 0 -1 0 1 0 1 0 0 3021.dat
1 15 120 -224 110 0 0 -1 0 1 0 1 0 0 3021.dat
1 15 150 -224 90 0 0 -1 0 1 0 1 0 0 3623.dat
1 71 130 -224 70 1 0 0 0 1 0 0 0 1 3024.dat
1 151 170 -224 70 0 0 -1 0 1 0 1 0 0 3623.dat
1 151 190 -224 40 0 0 -1 0 1 0 1 0 0 3666.dat
0 STEP
1 71 170 -224 10 0 0 -1 0 1 0 1 0 0 3623.dat
1 151 210 -224 10 0 0 -1 0 1 0 1 0 0 3623.dat
1 71 150 -224 -10 1 0 0 0 1 0 0 0 1 3024.dat
1 15 190 -224 -30 1 0 0 0 1 0 0 0 1 3024.dat
1 15 160 -224 -60 0 0 -1 0 1 0 1 0 0 3020.dat
1 15 130 -224 -90 0 0 -1 0 1 0 1 0 0 3623.dat
1 15 150 -224 -110 1 0 0 0 1 0 0 0 1 3024.dat
1 15 110 -224 -100 0 0 -1 0 1 0 1 0 0 3023.dat
1 15 60 -224 -100 1 0 0 0 1 0 0 0 1 3020.dat
1 15 10 -224 -110 1 0 0 0 1 0 0 0 1 3024.dat
0 STEP
1 15 -140 -232 -110 1 0 0 0 1 0 0 0 1 3023.dat
1 15 -150 -232 -80 1 0 0 0 1 0 0 0 1 3021.dat
1 15 -170 -232 -40 1 0 0 0 1 0 0 0 1 3021.dat
1 151 -200 -232 20 0 0 -1 0 1 0 1 0 0 3020.dat
1 71 -170 -232 20 0 0 -1 0 1 0 1 0 0 3710.dat
1 151 -180 -232 80 1 0 0 0 1 0 0 0 1 3022.dat
1 71 -130 -232 70 1 0 0 0 1 0 0 0 1 3024.dat
1 15 -150 -232 90 0 0 -1 0 1 0 1 0 0 3623.dat
1 15 -120 -232 110 0 0 -1 0 1 0 1 0 0 3021.dat
1 15 -80 -232 130 0 0 -1 0 1 0 1 0 0 3021.dat
1 71 -40 -232 130 1 0 0 0 1 0 0 0 1 3023.dat
1 15 0 -232 160 1 0 0 0 1 0 0 0 1 3795.dat
0 STEP
1 71 40 -232 130 1 0 0 0 1 0 0 0 1 3023.dat
1 15 80 -232 130 0 0 -1 0 1 0 1 0 0 3021.dat
1 15 120 -232 110 0 0 -1 0 1 0 1 0 0 3021.dat
1 15 150 -232 90 0 0 -1 0 1 0 1 0 0 3623.dat
1 71 130 -232 70 1 0 0 0 1 0 0 0 1 3024.dat
1 151 180 -232 80 1 0 0 0 1 0 0 0 1 3022.dat
1 71 170 -232 20 0 0 -1 0 1 0 1 0 0 3710.dat
1 151 200 -232 20 0 0 -1 0 1 0 1 0 0 3020.dat
1 15 170 -232 -40 1 0 0 0 1 0 0 0 1 3021.dat
1 15 170 -232 -80 0 0 -1 0 1 0 1 0 0 3023.dat
1 15 140 -232 -90 0 0 -1 0 1 0 1 0 0 3021.dat
1 15 0 -232 -100 1 0 0 0 1 0 0 0 1 2445.dat
0 STEP
1 15 -20 -256 -110 1 0 0 0 1 0 0 0 1 30414.dat
1 71 -20 -256 -90 1 0 0 0 1 0 0 0 1 6111.dat
1 15 -100 -256 -110 1 0 0 0 1 0 0 0 1 30414.dat
1 15 -150 -256 -110 1 0 0 0 1 0 0 0 1 3005.dat
1 71 -130 -256 -80 0 0 -1 0 1 0 1 0 0 3004.dat
1 15 -170 -256 -90 1 0 0 0 1 0 0 0 1 3005.dat
1 71 -150 -256 -60 0 0 -1 0 1 0 1 0 0 3010.dat
1 15 -190 -256 -50 1 0 0 0 1 0 0 0 1 3005.dat
1 15 -170 -256 -40 0 0 -1 0 1 0 1 0 0 3010.dat
1 151 -200 -256 0 0 0 -1 0 1 0 1 0 0 3001.dat
1 71 -170 -256 40 0 0 -1 0 1 0 1 0 0 3004.dat
1 151 -200 -256 50 1 0 0 0 1 0 0 0 1 3004.dat
1 151 -180 -256 80 1 0 0 0 1 0 0 0 1 3003.dat
0 STEP
1 15 -140 -256 90 0 0 -1 0 1 0 1 0 0 3002.dat
1 71 -110 -256 90 1 0 0 0 1 0 0 0 1 3005.dat
1 71 -100 -256 110 1 0 0 0 1 0 0 0 1 3004.dat
1 15 -80 -256 130 1 0 0 0 1 0 0 0 1 3009.dat
1 15 -20 -256 150 1 0 0 0 1 0 0 0 1 6111.dat
1 15 0 -256 170 1 0 0 0 1 0 0 0 1 3009.dat
1 71 50 -256 130 1 0 0 0 1 0 0 0 1 3622.dat
1 15 100 -256 130 0 0 -1 0 1 0 1 0 0 3002.dat
1 71 110 -256 90 1 0 0 0 1 0 0 0 1 3005.dat
1 15 130 -256 100 0 0 -1 0 1 0 1 0 0 3010.dat
1 15 150 -256 90 0 0 -1 0 1 0 1 0 0 3622.dat
1 151 180 -256 80 1 0 0 0 1 0 0 0 1 3003.dat
1 151 200 -256 50 1 0 0 0 1 0 0 0 1 3004.dat
0 STEP
1 71 170 -256 40 0 0 -1 0 1 0 1 0 0 3004.dat
1 151 200 -256 0 0 0 -1 0 1 0 1 0 0 3001.dat
1 15 170 -256 -40 0 0 -1 0 1 0 1 0 0 3010.dat
1 15 190 -256 -50 1 0 0 0 1 0 0 0 1 3005.dat
1 71 150 -256 -60 0 0 -1 0 1 0 1 0 0 3010.dat
1 15 170 -256 -90 1 0 0 0 1 0 0 0 1 3005.dat
1 71 130 -256 -80 0 0 -1 0 1 0 1 0 0 3004.dat
1 15 150 -256 -110 1 0 0 0 1 0 0 0 1 3005.dat
1 71 100 -256 -90 1 0 0 0 1 0 0 0 1 3004.dat
1 15 120 -256 -110 1 0 0 0 1 0 0 0 1 11211.dat
1 15 60 -256 -110 1 0 0 0 1 0 0 0 1 30414.dat
0 STEP
0 // ===== Head structure =====
1 15 -150 -264 -110 1 0 0 0 1 0 0 0 1 3024.dat
1 15 -130 -264 -90 0 0 -1 0 1 0 1 0 0 3623.dat
1 15 -170 -264 -90 1 0 0 0 1 0 0 0 1 3024.dat
1 71 -150 -264 -60 0 0 -1 0 1 0 1 0 0 3710.dat
1 15 -190 -264 -50 1 0 0 0 1 0 0 0 1 3024.dat
1 15 -170 -264 -40 0 0 -1 0 1 0 1 0 0 3710.dat
1 151 -210 -264 -30 1 0 0 0 1 0 0 0 1 3024.dat
1 151 -210 -264 20 0 0 -1 0 1 0 1 0 0 3710.dat
1 151 -190 -264 20 0 0 -1 0 1 0 1 0 0 3666.dat
1 71 -170 -264 40 0 0 -1 0 1 0 1 0 0 3023.dat
1 151 -170 -264 80 0 0 -1 0 1 0 1 0 0 3023.dat
1 151 -190 -264 90 0 0 -1 0 1 0 1 0 0 25269.dat
1 15 -150 -264 90 0 0 -1 0 1 0 1 0 0 3623.dat
0 STEP
1 15 -130 -264 100 0 0 -1 0 1 0 1 0 0 3710.dat
1 71 -110 -264 90 1 0 0 0 1 0 0 0 1 3024.dat
1 15 -100 -264 130 0 0 -1 0 1 0 1 0 0 3021.dat
1 15 -70 -264 140 0 0 -1 0 1 0 1 0 0 3023.dat
1 71 -40 -264 130 1 0 0 0 1 0 0 0 1 3023.dat
1 15 0 -264 160 1 0 0 0 1 0 0 0 1 3795.dat
1 71 40 -264 130 1 0 0 0 1 0 0 0 1 3023.dat
1 15 90 -264 140 1 0 0 0 1 0 0 0 1 3021.dat
1 71 100 -264 110 1 0 0 0 1 0 0 0 1 3023.dat
1 71 110 -264 90 1 0 0 0 1 0 0 0 1 3024.dat
1 15 130 -264 100 0 0 -1 0 1 0 1 0 0 3710.dat
1 15 150 -264 90 0 0 -1 0 1 0 1 0 0 3623.dat
1 151 190 -264 90 1 0 0 0 1 0 0 0 1 25269.dat
0 STEP
1 151 170 -264 80 0 0 -1 0 1 0 1 0 0 3023.dat
1 71 170 -264 40 0 0 -1 0 1 0 1 0 0 3023.dat
1 151 190 -264 20 0 0 -1 0 1 0 1 0 0 3666.dat
1 151 210 -264 20 0 0 -1 0 1 0 1 0 0 3710.dat
1 151 210 -264 -30 1 0 0 0 1 0 0 0 1 3024.dat
1 15 170 -264 -40 0 0 -1 0 1 0 1 0 0 3710.dat
1 15 190 -264 -50 1 0 0 0 1 0 0 0 1 3024.dat
1 71 150 -264 -60 0 0 -1 0 1 0 1 0 0 3710.dat
1 15 170 -264 -90 1 0 0 0 1 0 0 0 1 3024.dat
1 15 130 -264 -90 0 0 -1 0 1 0 1 0 0 3623.dat
1 15 150 -264 -110 1 0 0 0 1 0 0 0 1 3024.dat
1 15 0 -264 -100 1 0 0 0 1 0 0 0 1 2445.dat
0 STEP
1 15 -60 -272 -110 1 0 0 0 1 0 0 0 1 4477.dat
1 15 -190 -272 -50 1 0 0 0 1 0 0 0 1 3024.dat
1 15 -120 -272 -20 0 0 -1 0 1 0 1 0 0 3036.dat
1 151 -210 -272 -30 1 0 0 0 1 0 0 0 1 3024.dat
1 151 -210 -272 20 0 0 -1 0 1 0 1 0 0 3710.dat
1 151 -190 -272 20 0 0 -1 0 1 0 1 0 0 3666.dat
1 151 -170 -272 70 1 0 0 0 1 0 0 0 1 3024.dat
1 71 -40 -272 20 0 0 -1 0 1 0 1 0 0 2445.dat
1 15 -170 -272 90 1 0 0 0 1 0 0 0 1 3024.dat
1 15 -150 -272 90 0 0 -1 0 1 0 1 0 0 3623.dat
1 15 -100 -272 100 1 0 0 0 1 0 0 0 1 3031.dat
1 15 -90 -272 150 1 0 0 0 1 0 0 0 1 3623.dat
0 STEP
1 15 0 -272 160 1 0 0 0 1 0 0 0 1 3795.dat
1 15 90 -272 150 1 0 0 0 1 0 0 0 1 3623.dat
1 15 60 -272 80 1 0 0 0 1 0 0 0 1 3036.dat
1 15 150 -272 90 0 0 -1 0 1 0 1 0 0 3623.dat
1 15 170 -272 90 1 0 0 0 1 0 0 0 1 3024.dat
1 151 180 -272 70 1 0 0 0 1 0 0 0 1 3023.dat
1 151 200 -272 20 0 0 -1 0 1 0 1 0 0 3020.dat
1 15 160 -272 -20 0 0 -1 0 1 0 1 0 0 3034.dat
1 151 200 -272 -30 1 0 0 0 1 0 0 0 1 3023.dat
1 15 190 -272 -50 1 0 0 0 1 0 0 0 1 3024.dat
1 71 60 -272 -40 1 0 0 0 1 0 0 0 1 3036.dat
1 15 100 -272 -110 1 0 0 0 1 0 0 0 1 3666.dat
0 STEP
1 15 -20 -296 -110 1 0 0 0 1 0 0 0 1 30414.dat
1 71 -20 -296 -90 1 0 0 0 1 0 0 0 1 6111.dat
1 15 -100 -296 -110 1 0 0 0 1 0 0 0 1 30414.dat
1 15 -150 -296 -110 1 0 0 0 1 0 0 0 1 3005.dat
1 71 -130 -296 -80 0 0 -1 0 1 0 1 0 0 3004.dat
1 15 -170 -296 -90 1 0 0 0 1 0 0 0 1 3005.dat
1 71 -150 -296 -60 0 0 -1 0 1 0 1 0 0 3010.dat
1 15 -190 -296 -50 1 0 0 0 1 0 0 0 1 3005.dat
1 15 -170 -296 -40 0 0 -1 0 1 0 1 0 0 3010.dat
1 151 -200 -296 -30 1 0 0 0 1 0 0 0 1 3004.dat
1 151 -200 -296 20 0 0 -1 0 1 0 1 0 0 3001.dat
1 71 -170 -296 40 0 0 -1 0 1 0 1 0 0 3004.dat
0 STEP
1 151 -190 -280 70 1 0 0 0 1 0 0 0 1 3024.dat
1 151 -170 -296 70 1 0 0 0 1 0 0 0 1 3005.dat
1 15 -170 -296 90 1 0 0 0 1 0 0 0 1 3005.dat
1 15 -150 -296 80 0 0 -1 0 1 0 1 0 0 3010.dat
1 71 -130 -296 70 1 0 0 0 1 0 0 0 1 3005.dat
1 15 -120 -296 110 0 0 -1 0 1 0 1 0 0 3002.dat
1 71 -90 -296 110 1 0 0 0 1 0 0 0 1 3005.dat
1 15 -110 -280 150 1 0 0 0 1 0 0 0 1 3024.dat
1 15 -80 -296 140 1 0 0 0 1 0 0 0 1 3003.dat
1 71 -40 -296 130 1 0 0 0 1 0 0 0 1 3004.dat
1 15 0 -296 160 1 0 0 0 1 0 0 0 1 2456.dat
1 71 40 -296 130 1 0 0 0 1 0 0 0 1 3004.dat
0 STEP
1 15 80 -296 140 1 0 0 0 1 0 0 0 1 3003.dat
1 15 110 -280 150 1 0 0 0 1 0 0 0 1 3024.dat
1 71 90 -296 110 1 0 0 0 1 0 0 0 1 3005.dat
1 15 120 -296 110 0 0 -1 0 1 0 1 0 0 3002.dat
1 71 130 -296 70 1 0 0 0 1 0 0 0 1 3005.dat
1 15 150 -296 80 0 0 -1 0 1 0 1 0 0 3010.dat
1 15 170 -296 90 1 0 0 0 1 0 0 0 1 3005.dat
1 151 170 -296 70 1 0 0 0 1 0 0 0 1 3005.dat
1 151 190 -280 70 1 0 0 0 1 0 0 0 1 3024.dat
1 71 170 -296 40 0 0 -1 0 1 0 1 0 0 3004.dat
1 151 200 -296 20 0 0 -1 0 1 0 1 0 0 3001.dat
1 151 200 -296 -30 1 0 0 0 1 0 0 0 1 3004.dat
0 STEP
1 15 170 -296 -40 0 0 -1 0 1 0 1 0 0 3010.dat
1 15 190 -296 -50 1 0 0 0 1 0 0 0 1 3005.dat
1 71 150 -296 -60 0 0 -1 0 1 0 1 0 0 3010.dat
1 15 170 -296 -90 1 0 0 0 1 0 0 0 1 3005.dat
1 71 130 -296 -80 0 0 -1 0 1 0 1 0 0 3004.dat
1 15 150 -296 -110 1 0 0 0 1 0 0 0 1 3005.dat
1 71 100 -296 -90 1 0 0 0 1 0 0 0 1 3004.dat
1 15 120 -296 -110 1 0 0 0 1 0 0 0 1 11211.dat
1 15 60 -296 -110 1 0 0 0 1 0 0 0 1 30414.dat
0 STEP
1 151 -190 -288 70 1 0 0 0 1 0 0 0 1 3024.dat
1 15 -110 -288 150 1 0 0 0 1 0 0 0 1 3024.dat
1 15 110 -288 150 1 0 0 0 1 0 0 0 1 3024.dat
1 151 190 -288 70 1 0 0 0 1 0 0 0 1 3024.dat
0 STEP
1 151 -190 -296 70 1 0 0 0 1 0 0 0 1 3070b.dat
1 15 -110 -296 150 1 0 0 0 1 0 0 0 1 3070b.dat
1 15 110 -296 150 1 0 0 0 1 0 0 0 1 3070b.dat
1 151 190 -296 70 1 0 0 0 1 0 0 0 1 3070b.dat
0 STEP
1 15 -150 -304 -110 1 0 0 0 1 0 0 0 1 3024.dat
1 15 -130 -304 -90 0 0 -1 0 1 0 1 0 0 3623.dat
1 15 -170 -304 -90 1 0 0 0 1 0 0 0 1 3024.dat
1 71 -150 -304 -60 0 0 -1 0 1 0 1 0 0 3710.dat
1 15 -190 -304 -50 1 0 0 0 1 0 0 0 1 3024.dat
1 15 -170 -304 -40 0 0 -1 0 1 0 1 0 0 3710.dat
1 151 -200 -304 -30 1 0 0 0 1 0 0 0 1 3023.dat
1 151 -200 -304 20 0 0 -1 0 1 0 1 0 0 3020.dat
1 15 -160 -304 60 0 0 -1 0 1 0 1 0 0 3020.dat
1 71 -130 -304 80 0 0 -1 0 1 0 1 0 0 3023.dat
1 15 -150 -304 110 1 0 0 0 1 0 0 0 1 3024.dat
0 STEP
1 71 -110 -304 90 1 0 0 0 1 0 0 0 1 3024.dat
1 15 -100 -304 120 1 0 0 0 1 0 0 0 1 3020.dat
1 15 -80 -304 150 1 0 0 0 1 0 0 0 1 3023.dat
1 71 -40 -304 130 1 0 0 0 1 0 0 0 1 3023.dat
1 15 0 -304 160 1 0 0 0 1 0 0 0 1 3795.dat
1 71 40 -304 130 1 0 0 0 1 0 0 0 1 3023.dat
1 15 80 -304 150 1 0 0 0 1 0 0 0 1 3023.dat
1 15 100 -304 120 1 0 0 0 1 0 0 0 1 3020.dat
1 71 120 -304 90 1 0 0 0 1 0 0 0 1 3023.dat
1 15 150 -304 110 1 0 0 0 1 0 0 0 1 3024.dat
1 71 130 -304 70 1 0 0 0 1 0 0 0 1 3024.dat
0 STEP
1 15 160 -304 60 0 0 -1 0 1 0 1 0 0 3020.dat
1 151 200 -304 20 0 0 -1 0 1 0 1 0 0 3020.dat
1 151 200 -304 -30 1 0 0 0 1 0 0 0 1 3023.dat
1 15 170 -304 -40 0 0 -1 0 1 0 1 0 0 3710.dat
1 15 190 -304 -50 1 0 0 0 1 0 0 0 1 3024.dat
1 71 150 -304 -60 0 0 -1 0 1 0 1 0 0 3710.dat
1 15 170 -304 -90 1 0 0 0 1 0 0 0 1 3024.dat
1 15 130 -304 -90 0 0 -1 0 1 0 1 0 0 3623.dat
1 15 150 -304 -110 1 0 0 0 1 0 0 0 1 3024.dat
1 15 0 -304 -100 1 0 0 0 1 0 0 0 1 2445.dat
0 STEP
1 15 -150 -312 -110 1 0 0 0 1 0 0 0 1 3024.dat
1 15 -130 -312 -90 0 0 -1 0 1 0 1 0 0 3623.dat
1 15 -170 -312 -90 1 0 0 0 1 0 0 0 1 3070b.dat
1 71 -150 -312 -60 0 0 -1 0 1 0 1 0 0 3710.dat
1 15 -190 -312 -50 1 0 0 0 1 0 0 0 1 3070b.dat
1 15 -170 -312 -40 0 0 -1 0 1 0 1 0 0 3710.dat
1 151 -190 -312 -30 1 0 0 0 1 0 0 0 1 3024.dat
1 151 -210 -312 0 0 0 -1 0 1 0 1 0 0 3710.dat
1 151 -190 -312 20 0 0 -1 0 1 0 1 0 0 3710.dat
1 71 -150 -312 30 1 0 0 0 1 0 0 0 1 3024.dat
1 151 -210 -312 50 0 0 -1 0 1 0 1 0 0 25269.dat
1 15 -170 -312 50 0 0 -1 0 1 0 1 0 0 3623.dat
1 15 -170 -312 90 1 0 0 0 1 0 0 0 1 3070b.dat
0 STEP
1 15 -150 -312 80 0 0 -1 0 1 0 1 0 0 3710.dat
1 71 -130 -312 70 1 0 0 0 1 0 0 0 1 3024.dat
1 15 -120 -312 110 0 0 -1 0 1 0 1 0 0 3021.dat
1 15 -80 -312 130 0 0 -1 0 1 0 1 0 0 3021.dat
1 71 -40 -312 130 1 0 0 0 1 0 0 0 1 3023.dat
1 15 0 -312 160 1 0 0 0 1 0 0 0 1 3795.dat
1 71 40 -312 130 1 0 0 0 1 0 0 0 1 3023.dat
1 15 80 -312 130 0 0 -1 0 1 0 1 0 0 3021.dat
1 15 120 -312 110 0 0 -1 0 1 0 1 0 0 3021.dat
1 71 130 -312 70 1 0 0 0 1 0 0 0 1 3024.dat
1 15 150 -312 80 0 0 -1 0 1 0 1 0 0 3710.dat
1 15 170 -312 90 1 0 0 0 1 0 0 0 1 3070b.dat
1 15 170 -312 50 0 0 -1 0 1 0 1 0 0 3623.dat
0 STEP
1 151 210 -312 50 1 0 0 0 1 0 0 0 1 25269.dat
1 71 150 -312 30 1 0 0 0 1 0 0 0 1 3024.dat
1 151 190 -312 20 0 0 -1 0 1 0 1 0 0 3710.dat
1 151 210 -312 0 0 0 -1 0 1 0 1 0 0 3710.dat
1 151 190 -312 -30 1 0 0 0 1 0 0 0 1 3024.dat
1 15 170 -312 -40 0 0 -1 0 1 0 1 0 0 3710.dat
1 15 190 -312 -50 1 0 0 0 1 0 0 0 1 3070b.dat
1 71 150 -312 -60 0 0 -1 0 1 0 1 0 0 3710.dat
1 15 170 -312 -90 1 0 0 0 1 0 0 0 1 3070b.dat
1 15 130 -312 -90 0 0 -1 0 1 0 1 0 0 3623.dat
1 15 150 -312 -110 1 0 0 0 1 0 0 0 1 3024.dat
1 15 0 -312 -100 1 0 0 0 1 0 0 0 1 2445.dat
0 STEP
1 15 -20 -336 -110 1 0 0 0 1 0 0 0 1 30414.dat
1 71 -20 -336 -90 1 0 0 0 1 0 0 0 1 6111.dat
1 15 -100 -336 -110 1 0 0 0 1 0 0 0 1 30414.dat
1 15 -150 -320 -110 1 0 0 0 1 0 0 0 1 3024.dat
1 15 -150 -336 -90 1 0 0 0 1 0 0 0 1 3005.dat
1 71 -130 -336 -70 0 0 -1 0 1 0 1 0 0 3622.dat
1 71 -150 -336 -40 0 0 -1 0 1 0 1 0 0 3010.dat
1 15 -170 -336 -20 0 0 -1 0 1 0 1 0 0 3009.dat
1 151 -200 -336 0 0 0 -1 0 1 0 1 0 0 3001.dat
1 71 -150 -336 30 1 0 0 0 1 0 0 0 1 3005.dat
1 151 -190 -320 50 1 0 0 0 1 0 0 0 1 3024.dat
1 151 -170 -336 50 1 0 0 0 1 0 0 0 1 3005.dat
0 STEP
1 15 -170 -336 70 1 0 0 0 1 0 0 0 1 3005.dat
1 15 -140 -336 70 0 0 -1 0 1 0 1 0 0 3002.dat
1 15 -150 -320 110 1 0 0 0 1 0 0 0 1 3024.dat
1 71 -130 -336 110 1 0 0 0 1 0 0 0 1 3005.dat
1 15 -110 -336 110 0 0 -1 0 1 0 1 0 0 3622.dat
1 15 -130 -320 130 1 0 0 0 1 0 0 0 1 3024.dat
1 71 -80 -336 110 1 0 0 0 1 0 0 0 1 3004.dat
1 15 -70 -336 140 1 0 0 0 1 0 0 0 1 3002.dat
1 15 -50 -320 170 1 0 0 0 1 0 0 0 1 3024.dat
1 71 -30 -336 130 1 0 0 0 1 0 0 0 1 3005.dat
1 15 0 -336 160 1 0 0 0 1 0 0 0 1 3001.dat
1 71 30 -336 130 1 0 0 0 1 0 0 0 1 3005.dat
0 STEP
1 15 50 -320 170 1 0 0 0 1 0 0 0 1 3024.dat
1 15 70 -336 140 1 0 0 0 1 0 0 0 1 3002.dat
1 71 80 -336 110 1 0 0 0 1 0 0 0 1 3004.dat
1 15 110 -336 110 0 0 -1 0 1 0 1 0 0 3622.dat
1 15 130 -320 130 1 0 0 0 1 0 0 0 1 3024.dat
1 71 130 -336 110 1 0 0 0 1 0 0 0 1 3005.dat
1 15 150 -320 110 1 0 0 0 1 0 0 0 1 3024.dat
1 15 140 -336 70 0 0 -1 0 1 0 1 0 0 3002.dat
1 15 170 -336 70 1 0 0 0 1 0 0 0 1 3005.dat
1 151 170 -336 50 1 0 0 0 1 0 0 0 1 3005.dat
1 151 190 -320 50 1 0 0 0 1 0 0 0 1 3024.dat
1 71 150 -336 30 1 0 0 0 1 0 0 0 1 3005.dat
0 STEP
1 151 200 -336 0 0 0 -1 0 1 0 1 0 0 3001.dat
1 15 170 -336 -20 0 0 -1 0 1 0 1 0 0 3009.dat
1 71 150 -336 -40 0 0 -1 0 1 0 1 0 0 3010.dat
1 71 130 -336 -70 0 0 -1 0 1 0 1 0 0 3622.dat
1 15 150 -336 -90 1 0 0 0 1 0 0 0 1 3005.dat
1 15 150 -320 -110 1 0 0 0 1 0 0 0 1 3024.dat
1 71 100 -336 -90 1 0 0 0 1 0 0 0 1 3004.dat
1 15 120 -336 -110 1 0 0 0 1 0 0 0 1 11211.dat
1 15 60 -336 -110 1 0 0 0 1 0 0 0 1 30414.dat
0 STEP
1 15 -150 -328 -110 1 0 0 0 1 0 0 0 1 3024.dat
1 151 -190 -328 50 1 0 0 0 1 0 0 0 1 3024.dat
1 15 -150 -328 110 1 0 0 0 1 0 0 0 1 3024.dat
1 15 -130 -328 130 1 0 0 0 1 0 0 0 1 3024.dat
1 15 -50 -328 170 1 0 0 0 1 0 0 0 1 3024.dat
1 15 50 -328 170 1 0 0 0 1 0 0 0 1 3024.dat
1 15 130 -328 130 1 0 0 0 1 0 0 0 1 3024.dat
1 15 150 -328 110 1 0 0 0 1 0 0 0 1 3024.dat
1 151 190 -328 50 1 0 0 0 1 0 0 0 1 3024.dat
1 15 150 -328 -110 1 0 0 0 1 0 0 0 1 3024.dat
0 STEP
1 15 -150 -336 -110 -1 0 0 0 1 0 0 0 -1 25269.dat
1 151 -190 -336 50 1 0 0 0 1 0 0 0 1 3070b.dat
1 15 -150 -336 110 1 0 0 0 1 0 0 0 1 3070b.dat
1 15 -130 -336 130 1 0 0 0 1 0 0 0 1 3070b.dat
1 15 -50 -336 170 1 0 0 0 1 0 0 0 1 3070b.dat
1 15 50 -336 170 1 0 0 0 1 0 0 0 1 3070b.dat
1 15 130 -336 130 1 0 0 0 1 0 0 0 1 3070b.dat
1 15 150 -336 110 1 0 0 0 1 0 0 0 1 3070b.dat
1 151 190 -336 50 1 0 0 0 1 0 0 0 1 3070b.dat
1 15 150 -336 -110 0 0 1 0 1 0 -1 0 0 25269.dat
0 STEP
1 15 -120 -344 -110 1 0 0 0 1 0 0 0 1 3023.dat
1 15 -130 -344 -80 1 0 0 0 1 0 0 0 1 3021.dat
1 15 -170 -344 -70 1 0 0 0 1 0 0 0 1 3024.dat
1 71 -130 -344 -50 1 0 0 0 1 0 0 0 1 3024.dat
1 151 -190 -344 -30 1 0 0 0 1 0 0 0 1 3070b.dat
1 151 -210 -344 -30 -1 0 0 0 1 0 0 0 -1 25269.dat
1 151 -210 -344 0 0 0 -1 0 1 0 1 0 0 3023.dat
1 15 -160 -344 0 0 0 -1 0 1 0 1 0 0 3795.dat
1 151 -190 -344 10 0 0 -1 0 1 0 1 0 0 3623.dat
1 151 -210 -344 30 0 0 -1 0 1 0 1 0 0 25269.dat
1 71 -130 -344 50 1 0 0 0 1 0 0 0 1 3024.dat
1 15 -140 -344 70 1 0 0 0 1 0 0 0 1 3710.dat
0 STEP
1 15 -150 -344 90 1 0 0 0 1 0 0 0 1 3024.dat
1 15 -110 -344 100 1 0 0 0 1 0 0 0 1 3021.dat
1 15 -110 -344 130 1 0 0 0 1 0 0 0 1 3024.dat
1 71 -70 -344 110 1 0 0 0 1 0 0 0 1 3024.dat
1 15 0 -344 140 1 0 0 0 1 0 0 0 1 3832.dat
1 15 0 -344 170 1 0 0 0 1 0 0 0 1 3710.dat
1 71 70 -344 110 1 0 0 0 1 0 0 0 1 3024.dat
1 15 110 -344 130 1 0 0 0 1 0 0 0 1 3024.dat
1 15 110 -344 100 1 0 0 0 1 0 0 0 1 3021.dat
1 15 150 -344 90 1 0 0 0 1 0 0 0 1 3024.dat
1 15 140 -344 70 1 0 0 0 1 0 0 0 1 3710.dat
1 71 130 -344 50 1 0 0 0 1 0 0 0 1 3024.dat
0 STEP
1 151 210 -344 30 1 0 0 0 1 0 0 0 1 25269.dat
1 151 190 -344 10 0 0 -1 0 1 0 1 0 0 3623.dat
1 151 210 -344 0 0 0 -1 0 1 0 1 0 0 3023.dat
1 15 160 -344 0 0 0 -1 0 1 0 1 0 0 3795.dat
1 151 210 -344 -30 0 0 1 0 1 0 -1 0 0 25269.dat
1 151 190 -344 -30 1 0 0 0 1 0 0 0 1 3070b.dat
1 71 130 -344 -50 1 0 0 0 1 0 0 0 1 3024.dat
1 15 170 -344 -70 1 0 0 0 1 0 0 0 1 3024.dat
1 15 130 -344 -80 1 0 0 0 1 0 0 0 1 3021.dat
1 15 120 -344 -110 1 0 0 0 1 0 0 0 1 3023.dat
1 15 0 -344 -100 1 0 0 0 1 0 0 0 1 3832.dat
0 STEP
1 15 -40 -352 -110 1 0 0 0 1 0 0 0 1 4477.dat
1 15 -170 -352 -70 1 0 0 0 1 0 0 0 1 3024.dat
1 15 -170 -352 -20 0 0 -1 0 1 0 1 0 0 3710.dat
1 151 -210 -352 -10 -1 0 0 0 1 0 0 0 -1 25269.dat
1 15 -140 -352 0 0 0 -1 0 1 0 1 0 0 3832.dat
1 151 -210 -352 10 1 0 0 0 1 0 0 0 1 3070b.dat
1 151 -190 -352 10 0 0 -1 0 1 0 1 0 0 63864.dat
1 151 -170 -352 30 1 0 0 0 1 0 0 0 1 3024.dat
1 15 -80 -352 20 0 0 -1 0 1 0 1 0 0 3029.dat
1 15 -170 -352 60 0 0 -1 0 1 0 1 0 0 3023.dat
1 15 -130 -352 110 1 0 0 0 1 0 0 0 1 3024.dat
1 15 -90 -352 150 1 0 0 0 1 0 0 0 1 3070b.dat
1 15 0 -352 150 1 0 0 0 1 0 0 0 1 3460.dat
1 15 0 -352 170 1 0 0 0 1 0 0 0 1 2431.dat
0 STEP
1 15 40 -352 80 1 0 0 0 1 0 0 0 1 3036.dat
1 15 90 -352 150 1 0 0 0 1 0 0 0 1 3070b.dat
1 15 130 -352 110 1 0 0 0 1 0 0 0 1 3024.dat
1 15 170 -352 60 0 0 -1 0 1 0 1 0 0 3023.dat
1 151 170 -352 30 1 0 0 0 1 0 0 0 1 3024.dat
1 151 190 -352 10 0 0 -1 0 1 0 1 0 0 63864.dat
1 151 210 -352 10 1 0 0 0 1 0 0 0 1 3070b.dat
1 15 140 -352 0 0 0 -1 0 1 0 1 0 0 3832.dat
1 151 210 -352 -10 0 0 1 0 1 0 -1 0 0 25269.dat
1 15 170 -352 -20 0 0 -1 0 1 0 1 0 0 3710.dat
1 15 170 -352 -70 1 0 0 0 1 0 0 0 1 3024.dat
1 71 40 -352 -40 1 0 0 0 1 0 0 0 1 3036.dat
1 15 100 -352 -110 1 0 0 0 1 0 0 0 1 3710.dat
0 STEP
1 15 -80 -376 -110 1 0 0 0 1 0 0 0 1 30414.dat
1 71 -110 -376 -80 0 0 -1 0 1 0 1 0 0 3004.dat
1 15 -130 -376 -80 0 0 -1 0 1 0 1 0 0 3010.dat
1 15 -170 -360 -70 1 0 0 0 1 0 0 0 1 3024.dat
1 15 -150 -376 0 0 0 -1 0 1 0 1 0 0 6111.dat
1 15 -170 -376 0 0 0 -1 0 1 0 1 0 0 3009.dat
1 15 -170 -360 70 1 0 0 0 1 0 0 0 1 3024.dat
1 15 -130 -376 80 0 0 -1 0 1 0 1 0 0 3010.dat
1 71 -110 -376 70 1 0 0 0 1 0 0 0 1 3005.dat
1 15 -100 -376 110 0 0 -1 0 1 0 1 0 0 3002.dat
1 71 -60 -376 110 1 0 0 0 1 0 0 0 1 3004.dat
1 15 -20 -376 140 1 0 0 0 1 0 0 0 1 2456.dat
1 15 60 -376 130 0 0 -1 0 1 0 1 0 0 3002.dat
0 STEP
1 15 100 -376 110 0 0 -1 0 1 0 1 0 0 3002.dat
1 71 110 -376 70 1 0 0 0 1 0 0 0 1 3005.dat
1 15 130 -376 80 0 0 -1 0 1 0 1 0 0 3010.dat
1 15 170 -360 70 1 0 0 0 1 0 0 0 1 3024.dat
1 15 150 -376 0 0 0 -1 0 1 0 1 0 0 6111.dat
1 15 170 -376 0 0 0 -1 0 1 0 1 0 0 3009.dat
1 15 170 -360 -70 1 0 0 0 1 0 0 0 1 3024.dat
1 15 130 -376 -80 0 0 -1 0 1 0 1 0 0 3010.dat
1 71 110 -376 -80 0 0 -1 0 1 0 1 0 0 3004.dat
1 15 80 -376 -110 1 0 0 0 1 0 0 0 1 30414.dat
1 15 0 -376 -110 1 0 0 0 1 0 0 0 1 30414.dat
1 71 0 -376 -90 1 0 0 0 1 0 0 0 1 6111.dat
0 STEP
1 15 -170 -368 -70 1 0 0 0 1 0 0 0 1 3024.dat
1 15 -170 -368 70 1 0 0 0 1 0 0 0 1 3024.dat
1 15 170 -368 70 1 0 0 0 1 0 0 0 1 3024.dat
1 15 170 -368 -70 1 0 0 0 1 0 0 0 1 3024.dat
0 STEP
1 15 -170 -376 -70 1 0 0 0 1 0 0 0 1 3070b.dat
1 15 -170 -376 70 1 0 0 0 1 0 0 0 1 3070b.dat
1 15 170 -376 70 1 0 0 0 1 0 0 0 1 3070b.dat
1 15 170 -376 -70 1 0 0 0 1 0 0 0 1 3070b.dat
0 STEP
1 15 -80 -384 -110 0 0 -1 0 1 0 1 0 0 3021.dat
1 15 -110 -384 -90 0 0 -1 0 1 0 1 0 0 3623.dat
1 15 -130 -384 -100 0 0 -1 0 1 0 1 0 0 3023.dat
1 15 -150 -384 -90 1 0 0 0 1 0 0 0 1 3070b.dat
1 15 -140 -384 -50 0 0 -1 0 1 0 1 0 0 3021.dat
1 15 -170 -384 -50 1 0 0 0 1 0 0 0 1 3070b.dat
1 15 -170 -384 0 0 0 -1 0 1 0 1 0 0 3710.dat
1 71 -150 -384 0 0 0 -1 0 1 0 1 0 0 3023.dat
1 15 -170 -384 50 1 0 0 0 1 0 0 0 1 3070b.dat
1 15 -140 -384 50 0 0 -1 0 1 0 1 0 0 3021.dat
1 15 -150 -384 90 1 0 0 0 1 0 0 0 1 3070b.dat
1 71 -110 -384 70 1 0 0 0 1 0 0 0 1 3024.dat
1 15 -120 -384 100 1 0 0 0 1 0 0 0 1 3022.dat
0 STEP
1 71 -90 -384 90 1 0 0 0 1 0 0 0 1 3024.dat
1 15 -110 -384 130 1 0 0 0 1 0 0 0 1 3070b.dat
1 15 -80 -384 120 1 0 0 0 1 0 0 0 1 3022.dat
1 15 -70 -384 150 1 0 0 0 1 0 0 0 1 3070b.dat
1 71 -50 -384 110 1 0 0 0 1 0 0 0 1 3024.dat
1 15 0 -384 140 1 0 0 0 1 0 0 0 1 3795.dat
1 71 50 -384 110 1 0 0 0 1 0 0 0 1 3024.dat
1 15 70 -384 150 1 0 0 0 1 0 0 0 1 3070b.dat
1 15 80 -384 120 1 0 0 0 1 0 0 0 1 3022.dat
1 15 110 -384 130 1 0 0 0 1 0 0 0 1 3070b.dat
1 71 90 -384 90 1 0 0 0 1 0 0 0 1 3024.dat
1 15 120 -384 100 1 0 0 0 1 0 0 0 1 3022.dat
1 71 110 -384 70 1 0 0 0 1 0 0 0 1 3024.dat
0 STEP
1 15 150 -384 90 1 0 0 0 1 0 0 0 1 3070b.dat
1 15 140 -384 50 0 0 -1 0 1 0 1 0 0 3021.dat
1 15 170 -384 50 1 0 0 0 1 0 0 0 1 3070b.dat
1 15 170 -384 0 0 0 -1 0 1 0 1 0 0 3710.dat
1 71 150 -384 0 0 0 -1 0 1 0 1 0 0 3023.dat
1 15 170 -384 -50 1 0 0 0 1 0 0 0 1 3070b.dat
1 15 140 -384 -50 0 0 -1 0 1 0 1 0 0 3021.dat
1 15 150 -384 -90 1 0 0 0 1 0 0 0 1 3070b.dat
1 15 130 -384 -100 0 0 -1 0 1 0 1 0 0 3023.dat
1 15 110 -384 -90 0 0 -1 0 1 0 1 0 0 3623.dat
1 15 80 -384 -110 0 0 -1 0 1 0 1 0 0 3021.dat
1 15 0 -384 -100 1 0 0 0 1 0 0 0 1 3795.dat
0 STEP
1 15 -80 -392 -130 1 0 0 0 1 0 0 0 1 3023.dat
1 15 -130 -392 -110 -1 0 0 0 1 0 0 0 -1 25269.dat
1 15 -110 -392 -80 0 0 -1 0 1 0 1 0 0 3710.dat
1 15 -130 -392 -90 1 0 0 0 1 0 0 0 1 3024.dat
1 15 -140 -392 -20 0 0 -1 0 1 0 1 0 0 3795.dat
1 15 -170 -392 0 0 0 -1 0 1 0 1 0 0 3710.dat
1 15 -130 -392 60 1 0 0 0 1 0 0 0 1 3021.dat
1 15 -130 -392 110 0 0 -1 0 1 0 1 0 0 25269.dat
1 15 -100 -392 90 1 0 0 0 1 0 0 0 1 3710.dat
1 15 -110 -392 110 1 0 0 0 1 0 0 0 1 3024.dat
1 15 -60 -392 120 1 0 0 0 1 0 0 0 1 3020.dat
1 15 0 -392 150 1 0 0 0 1 0 0 0 1 3666.dat
1 71 0 -392 130 1 0 0 0 1 0 0 0 1 3023.dat
0 STEP
1 15 60 -392 120 1 0 0 0 1 0 0 0 1 3020.dat
1 15 110 -392 110 1 0 0 0 1 0 0 0 1 3024.dat
1 15 100 -392 90 1 0 0 0 1 0 0 0 1 3710.dat
1 15 130 -392 110 1 0 0 0 1 0 0 0 1 25269.dat
1 15 130 -392 60 1 0 0 0 1 0 0 0 1 3021.dat
1 15 170 -392 0 0 0 -1 0 1 0 1 0 0 3710.dat
1 15 140 -392 -20 0 0 -1 0 1 0 1 0 0 3795.dat
1 15 130 -392 -90 1 0 0 0 1 0 0 0 1 3024.dat
1 15 110 -392 -80 0 0 -1 0 1 0 1 0 0 3710.dat
1 15 130 -392 -110 0 0 1 0 1 0 -1 0 0 25269.dat
1 15 80 -392 -130 1 0 0 0 1 0 0 0 1 3023.dat
1 15 0 -392 -100 1 0 0 0 1 0 0 0 1 3832.dat
0 STEP
1 15 -20 -416 -110 1 0 0 0 1 0 0 0 1 30414.dat
1 15 -80 -400 -130 1 0 0 0 1 0 0 0 1 3023.dat
1 15 -90 -400 -110 1 0 0 0 1 0 0 0 1 3623.dat
1 15 -110 -400 -80 1 0 0 0 1 0 0 0 1 3021.dat
1 71 -110 -400 -50 1 0 0 0 1 0 0 0 1 3024.dat
1 15 -170 -400 -30 1 0 0 0 1 0 0 0 1 3070b.dat
1 15 -150 -400 0 0 0 -1 0 1 0 1 0 0 3460.dat
1 15 -170 -400 0 0 0 -1 0 1 0 1 0 0 3023.dat
1 15 -130 -400 20 0 0 -1 0 1 0 1 0 0 3460.dat
1 15 -170 -400 30 1 0 0 0 1 0 0 0 1 3070b.dat
1 71 -110 -400 50 1 0 0 0 1 0 0 0 1 3024.dat
1 15 -100 -400 90 0 0 -1 0 1 0 1 0 0 3021.dat
0 STEP
1 71 -70 -400 90 1 0 0 0 1 0 0 0 1 3024.dat
1 15 -70 -400 130 1 0 0 0 1 0 0 0 1 3623.dat
1 71 -50 -400 110 1 0 0 0 1 0 0 0 1 3623.dat
1 15 -50 -400 150 1 0 0 0 1 0 0 0 1 3070b.dat
1 15 0 -400 140 1 0 0 0 1 0 0 0 1 3020.dat
1 71 30 -400 110 1 0 0 0 1 0 0 0 1 3024.dat
1 15 50 -400 150 1 0 0 0 1 0 0 0 1 3070b.dat
1 15 60 -400 120 1 0 0 0 1 0 0 0 1 3022.dat
1 15 90 -400 130 1 0 0 0 1 0 0 0 1 3024.dat
1 71 70 -400 90 1 0 0 0 1 0 0 0 1 3024.dat
1 15 100 -400 90 0 0 -1 0 1 0 1 0 0 3021.dat
1 71 110 -400 50 1 0 0 0 1 0 0 0 1 3024.dat
0 STEP
1 15 170 -400 30 1 0 0 0 1 0 0 0 1 3070b.dat
1 15 130 -400 20 0 0 -1 0 1 0 1 0 0 3460.dat
1 15 150 -400 0 0 0 -1 0 1 0 1 0 0 3460.dat
1 15 170 -400 0 0 0 -1 0 1 0 1 0 0 3023.dat
1 15 170 -400 -30 1 0 0 0 1 0 0 0 1 3070b.dat
1 71 110 -400 -50 1 0 0 0 1 0 0 0 1 3024.dat
1 15 110 -400 -80 1 0 0 0 1 0 0 0 1 3021.dat
1 15 110 -400 -110 1 0 0 0 1 0 0 0 1 3024.dat
1 15 80 -400 -120 1 0 0 0 1 0 0 0 1 3022.dat
1 15 40 -416 -110 1 0 0 0 1 0 0 0 1 11211.dat
1 71 0 -400 -90 1 0 0 0 1 0 0 0 1 3460.dat
0 STEP
1 15 -70 -408 -120 0 0 -1 0 1 0 1 0 0 3023.dat
1 15 -90 -408 -130 1 0 0 0 1 0 0 0 1 3070b.dat
1 71 -90 -408 -90 0 0 -1 0 1 0 1 0 0 3623.dat
1 15 -110 -408 -80 0 0 -1 0 1 0 1 0 0 3710.dat
1 15 -150 -408 -70 1 0 0 0 1 0 0 0 1 3070b.dat
1 15 -130 -408 0 0 0 -1 0 1 0 1 0 0 4477.dat
1 15 -150 -408 0 0 0 -1 0 1 0 1 0 0 3666.dat
1 15 -170 -408 0 0 0 -1 0 1 0 1 0 0 3069b.dat
1 71 -110 -408 50 1 0 0 0 1 0 0 0 1 3024.dat
1 15 -150 -408 70 1 0 0 0 1 0 0 0 1 3070b.dat
1 15 -100 -408 90 0 0 -1 0 1 0 1 0 0 3021.dat
0 STEP
1 71 -70 -408 90 1 0 0 0 1 0 0 0 1 3024.dat
1 15 -90 -408 130 1 0 0 0 1 0 0 0 1 3070b.dat
1 15 -30 -408 150 1 0 0 0 1 0 0 0 1 3070b.dat
1 15 0 -408 120 1 0 0 0 1 0 0 0 1 3034.dat
1 15 0 -408 150 1 0 0 0 1 0 0 0 1 3023.dat
1 15 30 -408 150 1 0 0 0 1 0 0 0 1 3070b.dat
1 15 90 -408 130 1 0 0 0 1 0 0 0 1 3070b.dat
1 71 70 -408 90 1 0 0 0 1 0 0 0 1 3024.dat
1 15 100 -408 90 0 0 -1 0 1 0 1 0 0 3021.dat
1 15 150 -408 70 1 0 0 0 1 0 0 0 1 3070b.dat
1 71 110 -408 50 1 0 0 0 1 0 0 0 1 3024.dat
0 STEP
1 15 130 -408 0 0 0 -1 0 1 0 1 0 0 4477.dat
1 15 150 -408 0 0 0 -1 0 1 0 1 0 0 3666.dat
1 15 170 -408 0 0 0 -1 0 1 0 1 0 0 3069b.dat
1 15 150 -408 -70 1 0 0 0 1 0 0 0 1 3070b.dat
1 15 110 -408 -80 0 0 -1 0 1 0 1 0 0 3710.dat
1 71 90 -408 -90 0 0 -1 0 1 0 1 0 0 3623.dat
1 15 90 -408 -130 1 0 0 0 1 0 0 0 1 3070b.dat
1 15 70 -408 -120 0 0 -1 0 1 0 1 0 0 3023.dat
1 71 0 -408 -90 1 0 0 0 1 0 0 0 1 3460.dat
0 STEP
1 71 -20 -416 -90 1 0 0 0 1 0 0 0 1 4477.dat
1 15 -70 -416 -130 1 0 0 0 1 0 0 0 1 3024.dat
1 15 -80 -416 -110 1 0 0 0 1 0 0 0 1 3023.dat
1 15 -110 -416 -110 1 0 0 0 1 0 0 0 1 3070b.dat
1 15 -130 -416 -90 1 0 0 0 1 0 0 0 1 3070b.dat
1 15 -110 -416 -70 1 0 0 0 1 0 0 0 1 3623.dat
1 15 -130 -416 -40 1 0 0 0 1 0 0 0 1 3021.dat
1 15 -140 -416 0 1 0 0 0 1 0 0 0 1 3022.dat
1 15 -130 -416 40 1 0 0 0 1 0 0 0 1 3021.dat
1 15 -130 -416 70 1 0 0 0 1 0 0 0 1 3024.dat
1 15 -130 -416 90 1 0 0 0 1 0 0 0 1 3070b.dat
0 STEP
1 71 -110 -416 80 0 0 -1 0 1 0 1 0 0 3023.dat
1 71 -90 -416 70 1 0 0 0 1 0 0 0 1 3024.dat
1 15 -110 -416 110 1 0 0 0 1 0 0 0 1 3070b.dat
1 15 -70 -416 100 1 0 0 0 1 0 0 0 1 3021.dat
1 15 0 -416 130 1 0 0 0 1 0 0 0 1 3460.dat
1 71 0 -416 110 1 0 0 0 1 0 0 0 1 3710.dat
1 15 0 -416 150 1 0 0 0 1 0 0 0 1 3069b.dat
1 15 70 -416 100 1 0 0 0 1 0 0 0 1 3021.dat
1 15 110 -416 110 1 0 0 0 1 0 0 0 1 3070b.dat
1 71 90 -416 70 1 0 0 0 1 0 0 0 1 3024.dat
1 71 110 -416 80 0 0 -1 0 1 0 1 0 0 3023.dat
0 STEP
1 15 130 -416 90 1 0 0 0 1 0 0 0 1 3070b.dat
1 15 130 -416 70 1 0 0 0 1 0 0 0 1 3024.dat
1 15 130 -416 40 1 0 0 0 1 0 0 0 1 3021.dat
1 15 140 -416 0 1 0 0 0 1 0 0 0 1 3022.dat
1 15 130 -416 -40 1 0 0 0 1 0 0 0 1 3021.dat
1 15 130 -416 -70 1 0 0 0 1 0 0 0 1 3024.dat
1 15 130 -416 -90 1 0 0 0 1 0 0 0 1 3070b.dat
1 71 100 -416 -80 1 0 0 0 1 0 0 0 1 3022.dat
1 15 110 -416 -110 1 0 0 0 1 0 0 0 1 3070b.dat
1 15 80 -416 -110 1 0 0 0 1 0 0 0 1 3023.dat
1 15 70 -416 -130 1 0 0 0 1 0 0 0 1 3024.dat
0 STEP
1 15 -20 -424 -90 1 0 0 0 1 0 0 0 1 4477.dat
1 15 -70 -424 -130 1 0 0 0 1 0 0 0 1 3070b.dat
1 15 -80 -424 -110 1 0 0 0 1 0 0 0 1 3023.dat
1 15 -150 -424 -50 1 0 0 0 1 0 0 0 1 3070b.dat
1 15 -80 -424 0 0 0 -1 0 1 0 1 0 0 3036.dat
1 15 -150 -424 0 0 0 -1 0 1 0 1 0 0 3710.dat
1 15 -150 -424 50 1 0 0 0 1 0 0 0 1 3070b.dat
1 15 -110 -424 90 1 0 0 0 1 0 0 0 1 3024.dat
1 15 -70 -424 130 1 0 0 0 1 0 0 0 1 3070b.dat
1 15 0 -424 100 1 0 0 0 1 0 0 0 1 3832.dat
1 15 0 -424 130 1 0 0 0 1 0 0 0 1 3666.dat
1 15 70 -424 130 1 0 0 0 1 0 0 0 1 3070b.dat
0 STEP
1 15 110 -424 90 1 0 0 0 1 0 0 0 1 3024.dat
1 15 60 -424 20 1 0 0 0 1 0 0 0 1 3036.dat
1 15 150 -424 50 1 0 0 0 1 0 0 0 1 3070b.dat
1 15 150 -424 0 0 0 -1 0 1 0 1 0 0 3710.dat
1 15 150 -424 -50 1 0 0 0 1 0 0 0 1 3070b.dat
1 15 110 -424 -90 1 0 0 0 1 0 0 0 1 3024.dat
1 15 60 -424 -60 1 0 0 0 1 0 0 0 1 3034.dat
1 15 90 -424 -100 0 0 -1 0 1 0 1 0 0 3023.dat
1 71 70 -424 -110 1 0 0 0 1 0 0 0 1 3024.dat
1 15 70 -424 -130 1 0 0 0 1 0 0 0 1 3070b.dat
1 15 0 -424 -120 1 0 0 0 1 0 0 0 1 3795.dat
0 STEP
1 15 -30 -432 -130 1 0 0 0 1 0 0 0 1 3024.dat
1 15 -50 -432 -130 1 0 0 0 1 0 0 0 1 3070b.dat
1 71 -40 -432 -100 1 0 0 0 1 0 0 0 1 3022.dat
1 15 -70 -432 -90 0 0 -1 0 1 0 1 0 0 3623.dat
1 15 -90 -432 -80 0 0 -1 0 1 0 1 0 0 3710.dat
1 15 -150 -432 -30 1 0 0 0 1 0 0 0 1 3070b.dat
1 15 -110 -432 0 0 0 -1 0 1 0 1 0 0 4477.dat
1 15 -130 -432 0 0 0 -1 0 1 0 1 0 0 3460.dat
1 15 -150 -432 0 0 0 -1 0 1 0 1 0 0 3023.dat
1 15 -150 -432 30 1 0 0 0 1 0 0 0 1 3070b.dat
1 71 -90 -432 50 1 0 0 0 1 0 0 0 1 3024.dat
0 STEP
1 15 -80 -432 90 0 0 -1 0 1 0 1 0 0 3021.dat
1 71 -50 -432 100 0 0 -1 0 1 0 1 0 0 3023.dat
1 15 -50 -432 130 1 0 0 0 1 0 0 0 1 3070b.dat
1 71 -30 -432 90 1 0 0 0 1 0 0 0 1 3024.dat
1 15 0 -432 120 1 0 0 0 1 0 0 0 1 3020.dat
1 71 30 -432 90 1 0 0 0 1 0 0 0 1 3024.dat
1 15 50 -432 130 1 0 0 0 1 0 0 0 1 3070b.dat
1 15 70 -432 100 1 0 0 0 1 0 0 0 1 3021.dat
1 71 80 -432 70 1 0 0 0 1 0 0 0 1 3023.dat
1 71 90 -432 50 1 0 0 0 1 0 0 0 1 3024.dat
1 15 150 -432 30 1 0 0 0 1 0 0 0 1 3070b.dat
0 STEP
1 15 110 -432 0 0 0 -1 0 1 0 1 0 0 4477.dat
1 15 130 -432 0 0 0 -1 0 1 0 1 0 0 3460.dat
1 15 150 -432 0 0 0 -1 0 1 0 1 0 0 3023.dat
1 15 150 -432 -30 1 0 0 0 1 0 0 0 1 3070b.dat
1 15 90 -432 -80 0 0 -1 0 1 0 1 0 0 3710.dat
1 15 70 -432 -90 0 0 -1 0 1 0 1 0 0 3623.dat
1 71 40 -432 -100 1 0 0 0 1 0 0 0 1 3022.dat
1 15 50 -432 -130 1 0 0 0 1 0 0 0 1 3070b.dat
1 15 30 -432 -130 1 0 0 0 1 0 0 0 1 3024.dat
1 15 0 -432 -120 1 0 0 0 1 0 0 0 1 3022.dat
0 STEP
1 15 -30 -440 -130 1 0 0 0 1 0 0 0 1 3070b.dat
1 15 -90 -440 -110 1 0 0 0 1 0 0 0 1 3070b.dat
1 71 -70 -440 -70 1 0 0 0 1 0 0 0 1 3024.dat
1 15 -110 -440 -90 1 0 0 0 1 0 0 0 1 3070b.dat
1 71 -90 -440 -70 0 0 -1 0 1 0 1 0 0 3623.dat
1 15 -130 -440 -70 1 0 0 0 1 0 0 0 1 3070b.dat
1 15 -150 -440 -10 1 0 0 0 1 0 0 0 1 3070b.dat
1 71 -110 -440 0 0 0 -1 0 1 0 1 0 0 3460.dat
1 15 -130 -440 0 0 0 -1 0 1 0 1 0 0 3666.dat
1 71 -150 -440 10 1 0 0 0 1 0 0 0 1 98138.dat
1 15 -130 -440 70 1 0 0 0 1 0 0 0 1 3070b.dat
1 71 -90 -440 70 0 0 -1 0 1 0 1 0 0 3623.dat
0 STEP
1 15 -110 -440 90 1 0 0 0 1 0 0 0 1 3070b.dat
1 71 -70 -440 70 1 0 0 0 1 0 0 0 1 3024.dat
1 15 -90 -440 110 1 0 0 0 1 0 0 0 1 3070b.dat
1 15 -30 -440 130 1 0 0 0 1 0 0 0 1 3070b.dat
1 15 0 -440 100 1 0 0 0 1 0 0 0 1 3034.dat
1 15 0 -440 130 1 0 0 0 1 0 0 0 1 3023.dat
1 15 30 -440 130 1 0 0 0 1 0 0 0 1 3070b.dat
1 15 90 -440 110 1 0 0 0 1 0 0 0 1 3070b.dat
1 71 70 -440 70 1 0 0 0 1 0 0 0 1 3024.dat
1 15 110 -440 90 1 0 0 0 1 0 0 0 1 3070b.dat
1 71 90 -440 70 0 0 -1 0 1 0 1 0 0 3623.dat
1 15 130 -440 70 1 0 0 0 1 0 0 0 1 3070b.dat
0 STEP
1 71 110 -440 0 0 0 -1 0 1 0 1 0 0 3460.dat
1 15 130 -440 0 0 0 -1 0 1 0 1 0 0 3666.dat
1 15 150 -440 0 0 0 -1 0 1 0 1 0 0 3069b.dat
1 15 130 -440 -70 1 0 0 0 1 0 0 0 1 3070b.dat
1 71 90 -440 -70 0 0 -1 0 1 0 1 0 0 3623.dat
1 15 110 -440 -90 1 0 0 0 1 0 0 0 1 3070b.dat
1 71 70 -440 -70 1 0 0 0 1 0 0 0 1 3024.dat
1 15 90 -440 -110 1 0 0 0 1 0 0 0 1 3070b.dat
1 15 30 -440 -130 1 0 0 0 1 0 0 0 1 3070b.dat
1 15 0 -440 -100 1 0 0 0 1 0 0 0 1 3034.dat
1 15 0 -440 -130 1 0 0 0 1 0 0 0 1 3023.dat
0 STEP
1 15 -50 -448 -90 0 0 -1 0 1 0 1 0 0 3623.dat
1 15 -70 -448 -110 1 0 0 0 1 0 0 0 1 3070b.dat
1 71 -70 -448 -70 0 0 -1 0 1 0 1 0 0 3623.dat
1 15 -90 -448 -90 1 0 0 0 1 0 0 0 1 3024.dat
1 15 -100 -448 -50 0 0 -1 0 1 0 1 0 0 3021.dat
1 15 -130 -448 -50 1 0 0 0 1 0 0 0 1 3070b.dat
1 15 -130 -448 -30 1 0 0 0 1 0 0 0 1 3024.dat
1 15 -120 -448 0 1 0 0 0 1 0 0 0 1 3022.dat
1 15 -110 -448 30 1 0 0 0 1 0 0 0 1 3623.dat
1 15 -130 -448 50 1 0 0 0 1 0 0 0 1 3070b.dat
1 71 -90 -448 50 1 0 0 0 1 0 0 0 1 3623.dat
0 STEP
1 15 -110 -448 70 1 0 0 0 1 0 0 0 1 3024.dat
1 15 -70 -448 80 1 0 0 0 1 0 0 0 1 3021.dat
1 15 -70 -448 110 1 0 0 0 1 0 0 0 1 3070b.dat
1 15 0 -448 110 1 0 0 0 1 0 0 0 1 3666.dat
1 71 0 -448 90 1 0 0 0 1 0 0 0 1 3710.dat
1 15 0 -448 130 1 0 0 0 1 0 0 0 1 3069b.dat
1 15 70 -448 110 1 0 0 0 1 0 0 0 1 3070b.dat
1 15 70 -448 80 1 0 0 0 1 0 0 0 1 3021.dat
1 15 110 -448 70 1 0 0 0 1 0 0 0 1 3024.dat
1 71 90 -448 50 1 0 0 0 1 0 0 0 1 3623.dat
1 15 130 -448 50 1 0 0 0 1 0 0 0 1 3070b.dat
0 STEP
1 15 110 -448 30 1 0 0 0 1 0 0 0 1 3623.dat
1 15 120 -448 0 1 0 0 0 1 0 0 0 1 3022.dat
1 15 130 -448 -30 1 0 0 0 1 0 0 0 1 3024.dat
1 15 130 -448 -50 1 0 0 0 1 0 0 0 1 3070b.dat
1 15 100 -448 -50 0 0 -1 0 1 0 1 0 0 3021.dat
1 71 70 -448 -70 0 0 -1 0 1 0 1 0 0 3623.dat
1 15 90 -448 -90 1 0 0 0 1 0 0 0 1 3024.dat
1 15 70 -448 -110 1 0 0 0 1 0 0 0 1 3070b.dat
1 15 50 -448 -90 0 0 -1 0 1 0 1 0 0 3623.dat
1 15 0 -448 -100 1 0 0 0 1 0 0 0 1 3020.dat
1 15 0 -448 -130 1 0 0 0 1 0 0 0 1 3069b.dat
0 STEP
1 15 -30 -456 -110 1 0 0 0 1 0 0 0 1 3024.dat
1 15 -50 -456 -110 1 0 0 0 1 0 0 0 1 3070b.dat
1 15 -50 -456 -80 1 0 0 0 1 0 0 0 1 3021.dat
1 15 -90 -456 -90 1 0 0 0 1 0 0 0 1 3070b.dat
1 71 -90 -456 -70 1 0 0 0 1 0 0 0 1 3024.dat
1 71 -70 -456 -50 1 0 0 0 1 0 0 0 1 3024.dat
1 15 -110 -456 -70 1 0 0 0 1 0 0 0 1 3070b.dat
1 15 -130 -456 -30 1 0 0 0 1 0 0 0 1 3070b.dat
1 15 -100 -456 0 0 0 -1 0 1 0 1 0 0 3795.dat
1 15 -130 -456 0 0 0 -1 0 1 0 1 0 0 3023.dat
1 15 -130 -456 30 1 0 0 0 1 0 0 0 1 3070b.dat
1 15 -110 -456 70 1 0 0 0 1 0 0 0 1 3070b.dat
1 71 -70 -456 50 1 0 0 0 1 0 0 0 1 3024.dat
0 STEP
1 71 -90 -456 70 1 0 0 0 1 0 0 0 1 3024.dat
1 15 -90 -456 90 1 0 0 0 1 0 0 0 1 3070b.dat
1 15 -50 -456 80 1 0 0 0 1 0 0 0 1 3021.dat
1 15 -50 -456 110 1 0 0 0 1 0 0 0 1 3070b.dat
1 15 0 -456 110 1 0 0 0 1 0 0 0 1 3710.dat
1 71 0 -456 90 1 0 0 0 1 0 0 0 1 3023.dat
1 15 50 -456 110 1 0 0 0 1 0 0 0 1 3070b.dat
1 15 50 -456 80 1 0 0 0 1 0 0 0 1 3021.dat
1 15 90 -456 90 1 0 0 0 1 0 0 0 1 3070b.dat
1 71 90 -456 70 1 0 0 0 1 0 0 0 1 3024.dat
1 71 70 -456 50 1 0 0 0 1 0 0 0 1 3024.dat
1 15 110 -456 70 1 0 0 0 1 0 0 0 1 3070b.dat
1 15 130 -456 30 1 0 0 0 1 0 0 0 1 3070b.dat
0 STEP
1 15 100 -456 0 0 0 -1 0 1 0 1 0 0 3795.dat
1 15 130 -456 0 0 0 -1 0 1 0 1 0 0 3023.dat
1 15 130 -456 -30 1 0 0 0 1 0 0 0 1 3070b.dat
1 15 110 -456 -70 1 0 0 0 1 0 0 0 1 3070b.dat
1 71 70 -456 -50 1 0 0 0 1 0 0 0 1 3024.dat
1 71 90 -456 -70 1 0 0 0 1 0 0 0 1 3024.dat
1 15 90 -456 -90 1 0 0 0 1 0 0 0 1 3070b.dat
1 15 50 -456 -80 1 0 0 0 1 0 0 0 1 3021.dat
1 15 50 -456 -110 1 0 0 0 1 0 0 0 1 3070b.dat
1 15 30 -456 -110 1 0 0 0 1 0 0 0 1 3024.dat
1 15 0 -456 -100 1 0 0 0 1 0 0 0 1 3022.dat
0 STEP
1 15 -30 -464 -110 1 0 0 0 1 0 0 0 1 3070b.dat
1 15 -50 -464 -70 0 0 -1 0 1 0 1 0 0 3623.dat
1 15 -70 -464 -90 1 0 0 0 1 0 0 0 1 3024.dat
1 15 -80 -464 -50 0 0 -1 0 1 0 1 0 0 3021.dat
1 15 -110 -464 -50 1 0 0 0 1 0 0 0 1 3070b.dat
1 15 -110 -464 -30 1 0 0 0 1 0 0 0 1 3024.dat
1 71 -100 -464 0 1 0 0 0 1 0 0 0 1 3022.dat
1 15 -130 -464 0 0 0 -1 0 1 0 1 0 0 3069b.dat
1 15 -90 -464 30 1 0 0 0 1 0 0 0 1 3623.dat
1 15 -110 -464 50 1 0 0 0 1 0 0 0 1 3070b.dat
1 71 -70 -464 50 1 0 0 0 1 0 0 0 1 3623.dat
0 STEP
1 15 -90 -464 70 1 0 0 0 1 0 0 0 1 3024.dat
1 15 -30 -464 110 1 0 0 0 1 0 0 0 1 3070b.dat
1 15 0 -464 80 1 0 0 0 1 0 0 0 1 3034.dat
1 15 0 -464 110 1 0 0 0 1 0 0 0 1 3023.dat
1 15 30 -464 110 1 0 0 0 1 0 0 0 1 3070b.dat
1 15 90 -464 70 1 0 0 0 1 0 0 0 1 3024.dat
1 71 70 -464 50 1 0 0 0 1 0 0 0 1 3623.dat
1 15 110 -464 50 1 0 0 0 1 0 0 0 1 3070b.dat
1 15 90 -464 30 1 0 0 0 1 0 0 0 1 3623.dat
1 71 130 -464 10 1 0 0 0 1 0 0 0 1 98138.dat
1 71 100 -464 0 1 0 0 0 1 0 0 0 1 3022.dat
0 STEP
1 15 130 -464 -10 1 0 0 0 1 0 0 0 1 3070b.dat
1 15 110 -464 -30 1 0 0 0 1 0 0 0 1 3024.dat
1 15 110 -464 -50 1 0 0 0 1 0 0 0 1 3070b.dat
1 15 80 -464 -50 0 0 -1 0 1 0 1 0 0 3021.dat
1 15 70 -464 -90 1 0 0 0 1 0 0 0 1 3024.dat
1 15 50 -464 -70 0 0 -1 0 1 0 1 0 0 3623.dat
1 15 30 -464 -110 1 0 0 0 1 0 0 0 1 3070b.dat
1 71 0 -464 -80 1 0 0 0 1 0 0 0 1 3020.dat
1 15 0 -464 -110 1 0 0 0 1 0 0 0 1 3023.dat
0 STEP
1 15 -50 -472 -70 0 0 -1 0 1 0 1 0 0 3623.dat
1 15 -70 -472 -90 1 0 0 0 1 0 0 0 1 3070b.dat
1 71 -70 -472 -70 1 0 0 0 1 0 0 0 1 3024.dat
1 15 -90 -472 -70 1 0 0 0 1 0 0 0 1 3070b.dat
1 15 -110 -472 -30 1 0 0 0 1 0 0 0 1 3070b.dat
1 15 -80 -472 0 0 0 -1 0 1 0 1 0 0 3795.dat
1 15 -110 -472 0 0 0 -1 0 1 0 1 0 0 3023.dat
1 15 -110 -472 30 1 0 0 0 1 0 0 0 1 3070b.dat
1 15 -90 -472 70 1 0 0 0 1 0 0 0 1 3070b.dat
1 71 -70 -472 70 1 0 0 0 1 0 0 0 1 3024.dat
1 71 -50 -472 50 1 0 0 0 1 0 0 0 1 3024.dat
1 15 -70 -472 90 1 0 0 0 1 0 0 0 1 3070b.dat
1 15 0 -472 80 1 0 0 0 1 0 0 0 1 3795.dat
1 15 0 -472 110 1 0 0 0 1 0 0 0 1 3069b.dat
0 STEP
1 15 70 -472 90 1 0 0 0 1 0 0 0 1 3070b.dat
1 71 70 -472 70 1 0 0 0 1 0 0 0 1 3024.dat
1 71 50 -472 50 1 0 0 0 1 0 0 0 1 3024.dat
1 15 90 -472 70 1 0 0 0 1 0 0 0 1 3070b.dat
1 15 110 -472 30 1 0 0 0 1 0 0 0 1 3070b.dat
1 15 80 -472 0 0 0 -1 0 1 0 1 0 0 3795.dat
1 15 110 -472 0 0 0 -1 0 1 0 1 0 0 3023.dat
1 15 110 -472 -30 1 0 0 0 1 0 0 0 1 3070b.dat
1 15 90 -472 -70 1 0 0 0 1 0 0 0 1 3070b.dat
1 71 70 -472 -70 1 0 0 0 1 0 0 0 1 3024.dat
1 15 70 -472 -90 1 0 0 0 1 0 0 0 1 3070b.dat
1 15 50 -472 -70 0 0 -1 0 1 0 1 0 0 3623.dat
1 15 0 -472 -80 1 0 0 0 1 0 0 0 1 3020.dat
1 15 0 -472 -110 1 0 0 0 1 0 0 0 1 3069b.dat
0 STEP
1 71 -30 -480 -90 1 0 0 0 1 0 0 0 1 98138.dat
1 71 -30 -480 -60 0 0 -1 0 1 0 1 0 0 3023.dat
1 15 -50 -480 -90 1 0 0 0 1 0 0 0 1 3070b.dat
1 71 -50 -480 -70 1 0 0 0 1 0 0 0 1 3024.dat
1 15 -70 -480 -70 1 0 0 0 1 0 0 0 1 3070b.dat
1 71 -60 -480 -40 1 0 0 0 1 0 0 0 1 3022.dat
1 15 -90 -480 -50 1 0 0 0 1 0 0 0 1 3070b.dat
1 15 -90 -480 -30 1 0 0 0 1 0 0 0 1 3024.dat
1 71 -110 -480 -10 1 0 0 0 1 0 0 0 1 98138.dat
1 71 -80 -480 0 1 0 0 0 1 0 0 0 1 3022.dat
1 15 -110 -480 10 1 0 0 0 1 0 0 0 1 3070b.dat
1 15 -70 -480 30 1 0 0 0 1 0 0 0 1 3623.dat
0 STEP
1 15 -90 -480 50 1 0 0 0 1 0 0 0 1 3070b.dat
1 71 -70 -480 50 1 0 0 0 1 0 0 0 1 3024.dat
1 15 -70 -480 70 1 0 0 0 1 0 0 0 1 3070b.dat
1 71 -40 -480 60 1 0 0 0 1 0 0 0 1 3022.dat
1 15 -40 -480 90 1 0 0 0 1 0 0 0 1 3069b.dat
1 15 0 -480 80 1 0 0 0 1 0 0 0 1 3022.dat
1 15 40 -480 90 1 0 0 0 1 0 0 0 1 3069b.dat
1 71 40 -480 60 1 0 0 0 1 0 0 0 1 3022.dat
1 15 70 -480 70 1 0 0 0 1 0 0 0 1 3070b.dat
1 71 70 -480 50 1 0 0 0 1 0 0 0 1 3024.dat
1 15 90 -480 50 1 0 0 0 1 0 0 0 1 3070b.dat
1 15 70 -480 30 1 0 0 0 1 0 0 0 1 3623.dat
0 STEP
1 71 80 -480 0 1 0 0 0 1 0 0 0 1 3022.dat
1 15 110 -480 0 0 0 -1 0 1 0 1 0 0 3069b.dat
1 15 90 -480 -30 1 0 0 0 1 0 0 0 1 3024.dat
1 15 90 -480 -50 1 0 0 0 1 0 0 0 1 3070b.dat
1 71 60 -480 -40 1 0 0 0 1 0 0 0 1 3022.dat
1 15 70 -480 -70 1 0 0 0 1 0 0 0 1 3070b.dat
1 71 50 -480 -70 1 0 0 0 1 0 0 0 1 3024.dat
1 71 30 -480 -60 0 0 -1 0 1 0 1 0 0 3023.dat
1 15 40 -480 -90 1 0 0 0 1 0 0 0 1 3069b.dat
1 15 0 -480 -80 1 0 0 0 1 0 0 0 1 3022.dat
0 STEP
1 15 -30 -488 -50 0 0 -1 0 1 0 1 0 0 3623.dat
1 15 -50 -488 -70 1 0 0 0 1 0 0 0 1 3070b.dat
1 71 -50 -488 -50 1 0 0 0 1 0 0 0 1 3024.dat
1 15 -70 -488 -50 1 0 0 0 1 0 0 0 1 3070b.dat
1 71 -60 -488 -10 0 0 -1 0 1 0 1 0 0 3021.dat
1 15 -90 -488 0 0 0 -1 0 1 0 1 0 0 2431.dat
1 71 -50 -488 30 1 0 0 0 1 0 0 0 1 3623.dat
1 15 -70 -488 50 1 0 0 0 1 0 0 0 1 3070b.dat
1 71 -50 -488 50 1 0 0 0 1 0 0 0 1 3024.dat
1 15 -50 -488 70 1 0 0 0 1 0 0 0 1 3070b.dat
1 15 0 -488 60 1 0 0 0 1 0 0 0 1 3020.dat
1 15 0 -488 90 1 0 0 0 1 0 0 0 1 3069b.dat
1 15 50 -488 70 1 0 0 0 1 0 0 0 1 3070b.dat
0 STEP
1 71 50 -488 50 1 0 0 0 1 0 0 0 1 3024.dat
1 15 70 -488 50 1 0 0 0 1 0 0 0 1 3070b.dat
1 71 50 -488 30 1 0 0 0 1 0 0 0 1 3623.dat
1 15 90 -488 10 0 0 -1 0 1 0 1 0 0 63864.dat
1 71 60 -488 -10 0 0 -1 0 1 0 1 0 0 3021.dat
1 71 90 -488 -30 1 0 0 0 1 0 0 0 1 98138.dat
1 15 70 -488 -50 1 0 0 0 1 0 0 0 1 3070b.dat
1 71 50 -488 -50 1 0 0 0 1 0 0 0 1 3024.dat
1 15 50 -488 -70 1 0 0 0 1 0 0 0 1 3070b.dat
1 15 30 -488 -50 0 0 -1 0 1 0 1 0 0 3623.dat
1 71 0 -488 -60 1 0 0 0 1 0 0 0 1 3022.dat
1 15 0 -488 -90 1 0 0 0 1 0 0 0 1 3069b.dat
0 STEP
1 71 -30 -496 -50 1 0 0 0 1 0 0 0 1 3024.dat
1 15 -50 -496 -50 1 0 0 0 1 0 0 0 1 3070b.dat
1 71 -40 -496 -10 0 0 -1 0 1 0 1 0 0 3021.dat
1 15 -70 -496 0 0 0 -1 0 1 0 1 0 0 2431.dat
1 71 -50 -496 30 1 0 0 0 1 0 0 0 1 3024.dat
1 15 -50 -496 50 1 0 0 0 1 0 0 0 1 3070b.dat
1 71 0 -496 40 1 0 0 0 1 0 0 0 1 3020.dat
1 15 0 -496 70 1 0 0 0 1 0 0 0 1 2431.dat
0 STEP
1 15 50 -496 50 1 0 0 0 1 0 0 0 1 3070b.dat
1 71 50 -496 30 1 0 0 0 1 0 0 0 1 3024.dat
1 15 70 -496 0 0 0 -1 0 1 0 1 0 0 2431.dat
1 71 40 -496 -10 0 0 -1 0 1 0 1 0 0 3021.dat
1 15 50 -496 -50 1 0 0 0 1 0 0 0 1 3070b.dat
1 71 30 -496 -50 1 0 0 0 1 0 0 0 1 3024.dat
1 71 0 -496 -40 1 0 0 0 1 0 0 0 1 3022.dat
1 15 0 -496 -70 1 0 0 0 1 0 0 0 1 2431.dat
0 STEP
1 15 -30 -504 -40 0 0 -1 0 1 0 1 0 0 3069b.dat
1 71 -50 -504 -30 1 0 0 0 1 0 0 0 1 98138.dat
1 15 -50 -504 10 0 0 -1 0 1 0 1 0 0 63864.dat
1 15 -30 -504 30 1 0 0 0 1 0 0 0 1 3070b.dat
1 71 0 -504 30 1 0 0 0 1 0 0 0 1 3023.dat
1 15 0 -504 50 1 0 0 0 1 0 0 0 1 2431.dat
1 15 40 -504 30 1 0 0 0 1 0 0 0 1 3069b.dat
1 15 50 -504 -10 0 0 -1 0 1 0 1 0 0 63864.dat
1 15 30 -504 -30 1 0 0 0 1 0 0 0 1 3070b.dat
1 71 30 -504 -50 1 0 0 0 1 0 0 0 1 98138.dat
1 71 0 -504 0 1 0 0 0 1 0 0 0 1 3020.dat
1 71 0 -504 -30 1 0 0 0 1 0 0 0 1 3023.dat
1 15 0 -504 -50 1 0 0 0 1 0 0 0 1 3069b.dat
0 STEP
1 15 -30 -512 0 0 0 -1 0 1 0 1 0 0 3069b.dat
1 15 0 -512 20 1 0 0 0 1 0 0 0 1 3068b.dat
1 15 30 -512 0 0 0 -1 0 1 0 1 0 0 3069b.dat
1 15 0 -512 -10 1 0 0 0 1 0 0 0 1 3023.dat
1 15 0 -512 -30 1 0 0 0 1 0 0 0 1 3069b.dat
0 STEP
0 // ===== Facial geometry =====
0 // Studs forward: the face is built sideways
1 15 0 -406 -128 1 0 0 0 0 -1 0 1 0 3666.dat
1 15 0 -316 -128 0 0 -1 -1 0 0 0 1 0 3036.dat
1 15 -100 -296 -128 0 0 -1 -1 0 0 0 1 0 3034.dat
1 15 110 -296 -128 0 0 -1 -1 0 0 0 1 0 3460.dat
1 15 -130 -276 -128 0 0 -1 -1 0 0 0 1 0 3666.dat
1 15 -70 -276 -128 0 0 -1 -1 0 0 0 1 0 4477.dat
1 15 80 -276 -128 0 0 -1 -1 0 0 0 1 0 3832.dat
0 STEP
1 15 130 -276 -128 0 0 -1 -1 0 0 0 1 0 3666.dat
1 15 0 -216 -128 1 0 0 0 0 -1 0 1 0 3795.dat
1 15 -90 -196 -128 0 0 -1 -1 0 0 0 1 0 3023.dat
1 15 -40 -166 -128 0 0 -1 -1 0 0 0 1 0 3021.dat
1 15 0 -166 -128 0 0 -1 -1 0 0 0 1 0 3021.dat
1 15 40 -166 -128 0 0 -1 -1 0 0 0 1 0 3021.dat
0 STEP
1 15 -80 -356 -136 1 0 0 0 0 -1 0 1 0 3068b.dat
1 15 80 -356 -136 1 0 0 0 0 -1 0 1 0 3068b.dat
1 15 -50 -336 -136 0 0 -1 -1 0 0 0 1 0 4162.dat
1 15 -30 -336 -136 0 0 -1 -1 0 0 0 1 0 4162.dat
1 15 -10 -336 -136 0 0 -1 -1 0 0 0 1 0 4162.dat
1 15 10 -336 -136 0 0 -1 -1 0 0 0 1 0 4162.dat
1 15 30 -336 -136 0 0 -1 -1 0 0 0 1 0 4162.dat
1 15 50 -336 -136 0 0 -1 -1 0 0 0 1 0 4162.dat
1 15 -80 -326 -136 1 0 0 0 0 -1 0 1 0 3069b.dat
0 STEP
1 15 80 -326 -136 1 0 0 0 0 -1 0 1 0 3069b.dat
1 15 -110 -296 -136 0 0 -1 -1 0 0 0 1 0 4162.dat
1 15 110 -296 -136 0 0 -1 -1 0 0 0 1 0 4162.dat
1 15 -130 -276 -136 0 0 -1 -1 0 0 0 1 0 6636.dat
1 15 130 -276 -136 0 0 -1 -1 0 0 0 1 0 6636.dat
1 15 -90 -236 -136 0 0 -1 -1 0 0 0 1 0 2431.dat
1 15 -70 -236 -136 0 0 -1 -1 0 0 0 1 0 2431.dat
1 15 0 -236 -136 1 0 0 0 0 -1 0 1 0 3068b.dat
1 15 70 -236 -136 0 0 -1 -1 0 0 0 1 0 2431.dat
0 STEP
1 15 90 -236 -136 0 0 -1 -1 0 0 0 1 0 2431.dat
1 15 -50 -196 -136 0 0 -1 -1 0 0 0 1 0 6636.dat
1 15 -30 -196 -136 0 0 -1 -1 0 0 0 1 0 6636.dat
1 15 30 -196 -136 0 0 -1 -1 0 0 0 1 0 6636.dat
1 15 50 -196 -136 0 0 -1 -1 0 0 0 1 0 6636.dat
1 15 -80 -186 -136 1 0 0 0 0 -1 0 1 0 3069b.dat
1 15 80 -186 -136 1 0 0 0 0 -1 0 1 0 3069b.dat
1 15 0 -176 -136 1 0 0 0 0 -1 0 1 0 3068b.dat
1 15 0 -146 -136 1 0 0 0 0 -1 0 1 0 3069b.dat
0 STEP
0 // ===== Eyes =====
0 // The left (larger) eye: iris
1 191 -80 -296 -136 1 0 0 0 0 -1 0 1 0 4032b.dat
1 191 -80 -296 -144 1 0 0 0 0 -1 0 1 0 4032b.dat
1 191 -80 -296 -152 1 0 0 0 0 -1 0 1 0 4032b.dat
1 191 -80 -296 -160 1 0 0 0 0 -1 0 1 0 3961.dat
0 STEP
1 272 -80 -296 -168 1 0 0 0 0 -1 0 1 0 60474.dat
1 272 -100 -316 -176 0 0 -1 -1 0 0 0 1 0 27925.dat
1 272 -100 -276 -176 -1 0 0 0 0 1 0 1 0 27925.dat
1 272 -60 -276 -176 0 0 1 1 0 0 0 1 0 27925.dat
1 272 -50 -306 -176 1 0 0 0 0 -1 0 1 0 25269.dat
1 272 -70 -326 -176 1 0 0 0 0 -1 0 1 0 25269.dat
0 STEP
0 // One highlight, upper right
1 15 -70 -306 -176 1 0 0 0 0 -1 0 1 0 98138.dat
0 STEP
0 // The right eye: iris
1 191 80 -296 -136 1 0 0 0 0 -1 0 1 0 4032b.dat
1 191 80 -296 -144 1 0 0 0 0 -1 0 1 0 4032b.dat
1 191 80 -296 -152 1 0 0 0 0 -1 0 1 0 44375a.dat
0 STEP
1 272 80 -296 -160 1 0 0 0 0 -1 0 1 0 60474.dat
1 272 60 -316 -168 0 0 -1 -1 0 0 0 1 0 27925.dat
1 272 60 -276 -168 -1 0 0 0 0 1 0 1 0 27925.dat
1 272 100 -276 -168 0 0 1 1 0 0 0 1 0 27925.dat
1 272 110 -306 -168 1 0 0 0 0 -1 0 1 0 25269.dat
1 272 90 -326 -168 1 0 0 0 0 -1 0 1 0 25269.dat
0 STEP
0 // One highlight, upper right
1 15 90 -306 -168 1 0 0 0 0 -1 0 1 0 98138.dat
0 STEP
0 // ===== Beak =====
0 // Turn the square 45 degrees on the single centre stud
1 15 0 -206 -136 1 0 0 0 0 -1 0 1 0 3794b.dat
1 191 0 -206 -144 0.7071 0 -0.7071 -0.7071 0 -0.7071 0 1 0 3022.dat
0 STEP
1 191 0 -206 -152 0.7071 0 -0.7071 -0.7071 0 -0.7071 0 1 0 3022.dat
1 191 0 -206 -160 0.7071 0 -0.7071 -0.7071 0 -0.7071 0 1 0 3068b.dat
0 STEP
0 // ===== Finishing details =====
0 // Two squares, 45 degrees apart: the eight-point star
1 2 0 -92 -128 1 0 0 0 0 -1 0 1 0 87580.dat
1 2 0 -92 -136 0.7071 0 -0.7071 -0.7071 0 -0.7071 0 1 0 3068b.dat
0 STEP
0 // One soft tuft
1 15 -10 -544 -10 0 0 -1 0 1 0 1 0 0 6091.dat
0 STEP
