0 Professor Curie
0 Name: curie.ldr
0 Author: aitutors.me brick-built faculty
0 !LICENSE Model: see repository licence; part geometry LDraw.org CC BY 4.0
0 // units: LDU, -y up
0 // 1503 parts, one step per plate layer

1 72 -120 -8 80 1 0 0 0 1 0 0 0 1 3029.dat
1 72 120 -8 80 1 0 0 0 1 0 0 0 1 3029.dat
1 72 -120 -8 -0 1 0 0 0 1 0 0 0 1 3029.dat
1 72 120 -8 -0 1 0 0 0 1 0 0 0 1 3029.dat
1 72 -120 -8 -80 1 0 0 0 1 0 0 0 1 3029.dat
1 72 120 -8 -80 1 0 0 0 1 0 0 0 1 3029.dat
1 72 -120 -8 -140 1 0 0 0 1 0 0 0 1 2445.dat
1 72 120 -8 -140 1 0 0 0 1 0 0 0 1 2445.dat
0 STEP
1 72 -120 -16 80 1 0 0 0 1 0 0 0 1 3029.dat
1 72 120 -16 80 1 0 0 0 1 0 0 0 1 3029.dat
1 72 -120 -16 -0 1 0 0 0 1 0 0 0 1 3029.dat
1 72 120 -16 -0 1 0 0 0 1 0 0 0 1 3029.dat
1 72 -120 -16 -80 1 0 0 0 1 0 0 0 1 3029.dat
1 72 120 -16 -80 1 0 0 0 1 0 0 0 1 3029.dat
1 72 -120 -16 -140 1 0 0 0 1 0 0 0 1 2445.dat
1 72 120 -16 -140 1 0 0 0 1 0 0 0 1 2445.dat
0 STEP
1 72 0 -24 80 1 0 0 0 1 0 0 0 1 3832.dat
1 72 -160 -24 -0 0 0 -1 0 1 0 1 0 0 3034.dat
1 72 -120 -24 60 1 0 0 0 1 0 0 0 1 3022.dat
1 72 140 -24 60 1 0 0 0 1 0 0 0 1 3020.dat
1 72 -80 -24 50 1 0 0 0 1 0 0 0 1 3023.dat
1 72 80 -24 50 1 0 0 0 1 0 0 0 1 3023.dat
1 72 160 -24 -20 0 0 -1 0 1 0 1 0 0 3795.dat
1 72 -100 -24 -60 1 0 0 0 1 0 0 0 1 3020.dat
1 72 100 -24 -60 1 0 0 0 1 0 0 0 1 3020.dat
1 72 0 -24 -80 1 0 0 0 1 0 0 0 1 3795.dat
1 72 -80 -24 -90 1 0 0 0 1 0 0 0 1 3023.dat
1 72 80 -24 -90 1 0 0 0 1 0 0 0 1 3023.dat
1 72 -160 -24 110 1 0 0 0 1 0 0 0 1 4162.dat
1 72 0 -24 110 1 0 0 0 1 0 0 0 1 4162.dat
1 72 160 -24 110 1 0 0 0 1 0 0 0 1 4162.dat
1 72 -230 -24 20 0 0 -1 0 1 0 1 0 0 4162.dat
1 72 -210 -24 20 0 0 -1 0 1 0 1 0 0 4162.dat
1 72 -190 -24 20 0 0 -1 0 1 0 1 0 0 4162.dat
1 72 -140 -24 90 1 0 0 0 1 0 0 0 1 2431.dat
1 72 160 -24 90 1 0 0 0 1 0 0 0 1 6636.dat
1 72 230 -24 20 0 0 -1 0 1 0 1 0 0 4162.dat
1 72 190 -24 -0 0 0 -1 0 1 0 1 0 0 4162.dat
1 72 210 -24 -0 0 0 -1 0 1 0 1 0 0 4162.dat
1 72 -230 -24 -100 0 0 -1 0 1 0 1 0 0 2431.dat
1 72 -210 -24 -100 0 0 -1 0 1 0 1 0 0 2431.dat
1 72 -190 -24 -100 0 0 -1 0 1 0 1 0 0 2431.dat
1 72 230 -24 -100 0 0 -1 0 1 0 1 0 0 2431.dat
1 72 -140 -24 -90 1 0 0 0 1 0 0 0 1 2431.dat
1 72 160 -24 -90 1 0 0 0 1 0 0 0 1 6636.dat
1 72 -100 -24 -110 1 0 0 0 1 0 0 0 1 4162.dat
1 72 60 -24 -110 1 0 0 0 1 0 0 0 1 4162.dat
1 72 180 -24 -110 1 0 0 0 1 0 0 0 1 2431.dat
1 72 -100 -24 -130 1 0 0 0 1 0 0 0 1 4162.dat
1 72 60 -24 -130 1 0 0 0 1 0 0 0 1 4162.dat
1 72 180 -24 -130 1 0 0 0 1 0 0 0 1 2431.dat
1 72 -160 -24 -150 1 0 0 0 1 0 0 0 1 4162.dat
1 72 0 -24 -150 1 0 0 0 1 0 0 0 1 4162.dat
1 72 160 -24 -150 1 0 0 0 1 0 0 0 1 4162.dat
0 STEP
1 15 0 -32 80 1 0 0 0 1 0 0 0 1 3832.dat
1 15 -160 -32 -0 0 0 -1 0 1 0 1 0 0 3034.dat
1 15 -120 -32 60 1 0 0 0 1 0 0 0 1 3022.dat
1 15 140 -32 60 1 0 0 0 1 0 0 0 1 3020.dat
1 15 -80 -32 50 1 0 0 0 1 0 0 0 1 3023.dat
1 15 80 -32 50 1 0 0 0 1 0 0 0 1 3023.dat
1 15 160 -32 -20 0 0 -1 0 1 0 1 0 0 3795.dat
1 15 -100 -32 -60 1 0 0 0 1 0 0 0 1 3020.dat
1 15 100 -32 -60 1 0 0 0 1 0 0 0 1 3020.dat
1 15 0 -32 -80 1 0 0 0 1 0 0 0 1 3795.dat
1 15 -80 -32 -90 1 0 0 0 1 0 0 0 1 3023.dat
1 15 80 -32 -90 1 0 0 0 1 0 0 0 1 3023.dat
0 STEP
1 15 0 -40 80 1 0 0 0 1 0 0 0 1 3832.dat
1 15 -160 -40 -0 0 0 -1 0 1 0 1 0 0 3034.dat
1 15 -120 -40 60 1 0 0 0 1 0 0 0 1 3022.dat
1 15 140 -40 60 1 0 0 0 1 0 0 0 1 3020.dat
1 15 -80 -40 50 1 0 0 0 1 0 0 0 1 3023.dat
1 15 80 -40 50 1 0 0 0 1 0 0 0 1 3023.dat
1 15 160 -40 -20 0 0 -1 0 1 0 1 0 0 3795.dat
1 15 -190 -40 -20 0 0 -1 0 1 0 1 0 0 3023.dat
1 15 190 -40 -20 0 0 -1 0 1 0 1 0 0 3023.dat
1 15 -100 -40 -60 1 0 0 0 1 0 0 0 1 3020.dat
1 15 100 -40 -60 1 0 0 0 1 0 0 0 1 3020.dat
1 15 0 -40 -80 1 0 0 0 1 0 0 0 1 3795.dat
1 15 -80 -40 -90 1 0 0 0 1 0 0 0 1 3023.dat
1 15 80 -40 -90 1 0 0 0 1 0 0 0 1 3023.dat
0 STEP
1 15 0 -48 80 1 0 0 0 1 0 0 0 1 3832.dat
1 15 -160 -48 -0 0 0 -1 0 1 0 1 0 0 3034.dat
1 15 -120 -48 60 1 0 0 0 1 0 0 0 1 3022.dat
1 15 140 -48 60 1 0 0 0 1 0 0 0 1 3020.dat
1 15 -80 -48 50 1 0 0 0 1 0 0 0 1 3023.dat
1 15 80 -48 50 1 0 0 0 1 0 0 0 1 3023.dat
1 15 160 -48 -20 0 0 -1 0 1 0 1 0 0 3795.dat
1 15 -190 -48 -20 0 0 -1 0 1 0 1 0 0 3023.dat
1 15 190 -48 -20 0 0 -1 0 1 0 1 0 0 3023.dat
1 15 -100 -48 -60 1 0 0 0 1 0 0 0 1 3020.dat
1 15 100 -48 -60 1 0 0 0 1 0 0 0 1 3020.dat
1 15 0 -48 -80 1 0 0 0 1 0 0 0 1 3795.dat
1 15 -80 -48 -90 1 0 0 0 1 0 0 0 1 3023.dat
1 15 80 -48 -90 1 0 0 0 1 0 0 0 1 3023.dat
0 STEP
1 15 0 -56 80 1 0 0 0 1 0 0 0 1 3832.dat
1 15 -160 -56 -0 0 0 -1 0 1 0 1 0 0 3034.dat
1 15 -120 -56 60 1 0 0 0 1 0 0 0 1 3022.dat
1 15 140 -56 60 1 0 0 0 1 0 0 0 1 3020.dat
1 15 -80 -56 50 1 0 0 0 1 0 0 0 1 3023.dat
1 15 80 -56 50 1 0 0 0 1 0 0 0 1 3023.dat
1 15 160 -56 -20 0 0 -1 0 1 0 1 0 0 3795.dat
1 15 -190 -56 -20 0 0 -1 0 1 0 1 0 0 3710.dat
1 15 190 -56 -20 0 0 -1 0 1 0 1 0 0 3710.dat
1 15 -210 -56 -10 1 0 0 0 1 0 0 0 1 3024.dat
1 15 210 -56 -10 1 0 0 0 1 0 0 0 1 3024.dat
1 15 -100 -56 -60 1 0 0 0 1 0 0 0 1 3020.dat
1 15 100 -56 -60 1 0 0 0 1 0 0 0 1 3020.dat
1 15 0 -56 -80 1 0 0 0 1 0 0 0 1 3795.dat
1 15 -80 -56 -90 1 0 0 0 1 0 0 0 1 3023.dat
1 15 80 -56 -90 1 0 0 0 1 0 0 0 1 3023.dat
0 STEP
1 15 0 -64 80 1 0 0 0 1 0 0 0 1 3832.dat
1 15 -160 -64 -0 0 0 -1 0 1 0 1 0 0 3034.dat
1 15 -120 -64 60 1 0 0 0 1 0 0 0 1 3022.dat
1 15 140 -64 60 1 0 0 0 1 0 0 0 1 3020.dat
1 15 -80 -64 50 1 0 0 0 1 0 0 0 1 3023.dat
1 15 80 -64 50 1 0 0 0 1 0 0 0 1 3023.dat
1 15 160 -64 -20 0 0 -1 0 1 0 1 0 0 3795.dat
1 15 -190 -64 -20 0 0 -1 0 1 0 1 0 0 3710.dat
1 15 190 -64 -20 0 0 -1 0 1 0 1 0 0 3710.dat
1 15 -210 -64 -20 0 0 -1 0 1 0 1 0 0 3023.dat
1 15 210 -64 -20 0 0 -1 0 1 0 1 0 0 3023.dat
1 15 -100 -64 -60 1 0 0 0 1 0 0 0 1 3020.dat
1 15 100 -64 -60 1 0 0 0 1 0 0 0 1 3020.dat
1 15 0 -64 -80 1 0 0 0 1 0 0 0 1 3795.dat
1 15 -100 -64 -90 1 0 0 0 1 0 0 0 1 3710.dat
1 15 100 -64 -90 1 0 0 0 1 0 0 0 1 3710.dat
0 STEP
1 10 0 -72 -140 1 0 0 0 1 0 0 0 1 3031.dat
1 10 -50 -72 -150 0 0 -1 0 1 0 1 0 0 3623.dat
1 10 50 -72 -150 0 0 -1 0 1 0 1 0 0 3623.dat
1 10 0 -72 -190 1 0 0 0 1 0 0 0 1 3710.dat
1 15 0 -72 80 1 0 0 0 1 0 0 0 1 3832.dat
1 15 -160 -72 -0 0 0 -1 0 1 0 1 0 0 3034.dat
1 15 -120 -72 60 1 0 0 0 1 0 0 0 1 3022.dat
1 15 140 -72 60 1 0 0 0 1 0 0 0 1 3020.dat
1 15 -80 -72 50 1 0 0 0 1 0 0 0 1 3023.dat
1 15 80 -72 50 1 0 0 0 1 0 0 0 1 3023.dat
1 15 160 -72 -20 0 0 -1 0 1 0 1 0 0 3795.dat
1 15 -190 -72 -20 0 0 -1 0 1 0 1 0 0 3710.dat
1 15 190 -72 -20 0 0 -1 0 1 0 1 0 0 3710.dat
1 15 -210 -72 -20 0 0 -1 0 1 0 1 0 0 3023.dat
1 15 210 -72 -20 0 0 -1 0 1 0 1 0 0 3023.dat
1 15 -100 -72 -60 1 0 0 0 1 0 0 0 1 3020.dat
1 15 100 -72 -60 1 0 0 0 1 0 0 0 1 3020.dat
1 15 0 -72 -80 1 0 0 0 1 0 0 0 1 3795.dat
1 15 -120 -72 -90 1 0 0 0 1 0 0 0 1 3710.dat
1 15 -70 -72 -100 0 0 -1 0 1 0 1 0 0 3023.dat
1 15 90 -72 -100 1 0 0 0 1 0 0 0 1 3021.dat
1 15 140 -72 -90 1 0 0 0 1 0 0 0 1 3023.dat
1 15 -100 -72 -110 1 0 0 0 1 0 0 0 1 3023.dat
0 STEP
1 10 0 -80 -140 1 0 0 0 1 0 0 0 1 3031.dat
1 10 -50 -80 -140 0 0 -1 0 1 0 1 0 0 3023.dat
1 10 50 -80 -140 0 0 -1 0 1 0 1 0 0 3023.dat
1 10 0 -80 -190 1 0 0 0 1 0 0 0 1 3710.dat
1 10 -50 -80 -170 1 0 0 0 1 0 0 0 1 3070b.dat
1 10 50 -80 -170 1 0 0 0 1 0 0 0 1 3070b.dat
1 15 0 -80 80 1 0 0 0 1 0 0 0 1 3832.dat
1 15 -160 -80 -0 0 0 -1 0 1 0 1 0 0 3034.dat
1 15 -120 -80 60 1 0 0 0 1 0 0 0 1 3022.dat
1 15 140 -80 60 1 0 0 0 1 0 0 0 1 3020.dat
1 15 -80 -80 50 1 0 0 0 1 0 0 0 1 3023.dat
1 15 80 -80 50 1 0 0 0 1 0 0 0 1 3023.dat
1 15 160 -80 -20 0 0 -1 0 1 0 1 0 0 3795.dat
1 15 -190 -80 -20 0 0 -1 0 1 0 1 0 0 3710.dat
1 15 190 -80 -20 0 0 -1 0 1 0 1 0 0 3710.dat
1 15 -210 -80 -20 0 0 -1 0 1 0 1 0 0 3023.dat
1 15 210 -80 -20 0 0 -1 0 1 0 1 0 0 3023.dat
1 15 -120 -80 -80 0 0 -1 0 1 0 1 0 0 3020.dat
1 15 120 -80 -80 0 0 -1 0 1 0 1 0 0 3020.dat
1 15 0 -80 -80 1 0 0 0 1 0 0 0 1 3832.dat
1 15 -150 -80 -90 1 0 0 0 1 0 0 0 1 3024.dat
1 15 150 -80 -90 1 0 0 0 1 0 0 0 1 3024.dat
1 15 -80 -80 -120 1 0 0 0 1 0 0 0 1 3022.dat
1 15 80 -80 -120 1 0 0 0 1 0 0 0 1 3022.dat
0 STEP
1 10 0 -88 -140 0 0 -1 0 1 0 1 0 0 3020.dat
1 10 -30 -88 -150 0 0 -1 0 1 0 1 0 0 3623.dat
1 10 30 -88 -150 0 0 -1 0 1 0 1 0 0 3623.dat
1 10 -50 -88 -150 1 0 0 0 1 0 0 0 1 3024.dat
1 10 50 -88 -150 1 0 0 0 1 0 0 0 1 3024.dat
1 10 0 -88 -190 1 0 0 0 1 0 0 0 1 3023.dat
1 10 -30 -88 -110 1 0 0 0 1 0 0 0 1 3070b.dat
1 10 30 -88 -110 1 0 0 0 1 0 0 0 1 3070b.dat
1 10 -30 -88 -190 1 0 0 0 1 0 0 0 1 3070b.dat
1 10 30 -88 -190 1 0 0 0 1 0 0 0 1 3070b.dat
1 15 0 -88 80 1 0 0 0 1 0 0 0 1 3832.dat
1 15 -160 -88 -0 0 0 -1 0 1 0 1 0 0 3034.dat
1 15 -120 -88 60 1 0 0 0 1 0 0 0 1 3022.dat
1 15 140 -88 60 1 0 0 0 1 0 0 0 1 3020.dat
1 15 -80 -88 50 1 0 0 0 1 0 0 0 1 3023.dat
1 15 80 -88 50 1 0 0 0 1 0 0 0 1 3023.dat
1 15 160 -88 -20 0 0 -1 0 1 0 1 0 0 3795.dat
1 15 -190 -88 -20 0 0 -1 0 1 0 1 0 0 3710.dat
1 15 190 -88 -20 0 0 -1 0 1 0 1 0 0 3710.dat
1 15 -210 -88 -20 0 0 -1 0 1 0 1 0 0 3023.dat
1 15 210 -88 -20 0 0 -1 0 1 0 1 0 0 3023.dat
1 15 -130 -88 -80 0 0 -1 0 1 0 1 0 0 3710.dat
1 15 130 -88 -80 0 0 -1 0 1 0 1 0 0 3710.dat
1 15 0 -88 -80 1 0 0 0 1 0 0 0 1 2445.dat
1 15 -150 -88 -90 1 0 0 0 1 0 0 0 1 3024.dat
1 15 150 -88 -90 1 0 0 0 1 0 0 0 1 3024.dat
1 15 -80 -88 -120 1 0 0 0 1 0 0 0 1 3020.dat
1 15 80 -88 -120 1 0 0 0 1 0 0 0 1 3020.dat
1 15 -70 -88 -150 1 0 0 0 1 0 0 0 1 3024.dat
1 15 70 -88 -150 1 0 0 0 1 0 0 0 1 3024.dat
0 STEP
1 10 0 -96 -140 0 0 -1 0 1 0 1 0 0 3020.dat
1 10 -30 -96 -150 0 0 -1 0 1 0 1 0 0 3623.dat
1 10 30 -96 -150 0 0 -1 0 1 0 1 0 0 3623.dat
1 10 0 -96 -190 1 0 0 0 1 0 0 0 1 3023.dat
1 15 0 -96 80 1 0 0 0 1 0 0 0 1 3832.dat
1 15 -160 -96 -0 0 0 -1 0 1 0 1 0 0 3034.dat
1 15 -120 -96 60 1 0 0 0 1 0 0 0 1 3022.dat
1 15 140 -96 60 1 0 0 0 1 0 0 0 1 3020.dat
1 15 -80 -96 50 1 0 0 0 1 0 0 0 1 3023.dat
1 15 80 -96 50 1 0 0 0 1 0 0 0 1 3023.dat
1 15 160 -96 -20 0 0 -1 0 1 0 1 0 0 3795.dat
1 15 -200 -96 -10 0 0 -1 0 1 0 1 0 0 3021.dat
1 15 200 -96 -10 0 0 -1 0 1 0 1 0 0 3021.dat
1 15 -190 -96 -50 1 0 0 0 1 0 0 0 1 3024.dat
1 15 -120 -96 -80 0 0 -1 0 1 0 1 0 0 3020.dat
1 15 120 -96 -80 0 0 -1 0 1 0 1 0 0 3020.dat
1 15 190 -96 -50 1 0 0 0 1 0 0 0 1 3024.dat
1 15 0 -96 -80 1 0 0 0 1 0 0 0 1 3832.dat
1 15 -150 -96 -90 1 0 0 0 1 0 0 0 1 3024.dat
1 15 150 -96 -90 1 0 0 0 1 0 0 0 1 3024.dat
1 15 -70 -96 -110 1 0 0 0 1 0 0 0 1 3623.dat
1 15 70 -96 -110 1 0 0 0 1 0 0 0 1 3623.dat
1 15 -100 -96 -130 1 0 0 0 1 0 0 0 1 3023.dat
1 15 100 -96 -130 1 0 0 0 1 0 0 0 1 3023.dat
1 15 -80 -96 -150 1 0 0 0 1 0 0 0 1 3023.dat
1 15 80 -96 -150 1 0 0 0 1 0 0 0 1 3023.dat
1 78 -60 -96 -130 1 0 0 0 1 0 0 0 1 3023.dat
1 78 60 -96 -130 1 0 0 0 1 0 0 0 1 3023.dat
1 78 -50 -96 -150 1 0 0 0 1 0 0 0 1 3024.dat
1 78 50 -96 -150 1 0 0 0 1 0 0 0 1 3024.dat
0 STEP
1 10 0 -104 -140 1 0 0 0 1 0 0 0 1 3020.dat
1 10 0 -104 -170 1 0 0 0 1 0 0 0 1 3710.dat
1 10 0 -104 -110 1 0 0 0 1 0 0 0 1 3069b.dat
1 10 0 -104 -190 1 0 0 0 1 0 0 0 1 3069b.dat
1 15 0 -104 80 1 0 0 0 1 0 0 0 1 3832.dat
1 15 -160 -104 -0 0 0 -1 0 1 0 1 0 0 3034.dat
1 15 -120 -104 60 1 0 0 0 1 0 0 0 1 3022.dat
1 15 140 -104 60 1 0 0 0 1 0 0 0 1 3020.dat
1 15 -80 -104 50 1 0 0 0 1 0 0 0 1 3023.dat
1 15 80 -104 50 1 0 0 0 1 0 0 0 1 3023.dat
1 15 160 -104 -20 0 0 -1 0 1 0 1 0 0 3795.dat
1 15 -200 -104 -10 0 0 -1 0 1 0 1 0 0 3021.dat
1 15 200 -104 -10 0 0 -1 0 1 0 1 0 0 3021.dat
1 15 -190 -104 -50 1 0 0 0 1 0 0 0 1 3024.dat
1 15 -120 -104 -80 0 0 -1 0 1 0 1 0 0 3020.dat
1 15 120 -104 -80 0 0 -1 0 1 0 1 0 0 3020.dat
1 15 190 -104 -50 1 0 0 0 1 0 0 0 1 3024.dat
1 15 -70 -104 -80 1 0 0 0 1 0 0 0 1 3021.dat
1 15 70 -104 -80 1 0 0 0 1 0 0 0 1 3021.dat
1 15 -70 -104 -110 1 0 0 0 1 0 0 0 1 3623.dat
1 15 70 -104 -110 1 0 0 0 1 0 0 0 1 3623.dat
1 15 -100 -104 -130 1 0 0 0 1 0 0 0 1 3023.dat
1 15 100 -104 -130 1 0 0 0 1 0 0 0 1 3023.dat
1 15 -90 -104 -150 1 0 0 0 1 0 0 0 1 3024.dat
1 15 90 -104 -150 1 0 0 0 1 0 0 0 1 3024.dat
1 15 -150 -104 -90 1 0 0 0 1 0 0 0 1 3070b.dat
1 15 150 -104 -90 1 0 0 0 1 0 0 0 1 3070b.dat
1 71 -30 -104 -80 0 0 -1 0 1 0 1 0 0 3023.dat
1 71 30 -104 -80 0 0 -1 0 1 0 1 0 0 3023.dat
1 78 -60 -104 -140 1 0 0 0 1 0 0 0 1 3022.dat
1 78 60 -104 -140 1 0 0 0 1 0 0 0 1 3022.dat
1 212 0 -104 -80 1 0 0 0 1 0 0 0 1 3022.dat
0 STEP
1 10 0 -112 -140 1 0 0 0 1 0 0 0 1 3020.dat
1 10 0 -112 -170 1 0 0 0 1 0 0 0 1 3023.dat
1 10 -30 -112 -170 1 0 0 0 1 0 0 0 1 3070b.dat
1 10 30 -112 -170 1 0 0 0 1 0 0 0 1 3070b.dat
1 15 0 -112 80 1 0 0 0 1 0 0 0 1 3832.dat
1 15 -160 -112 -0 0 0 -1 0 1 0 1 0 0 3034.dat
1 15 -120 -112 60 1 0 0 0 1 0 0 0 1 3022.dat
1 15 140 -112 60 1 0 0 0 1 0 0 0 1 3020.dat
1 15 -80 -112 50 1 0 0 0 1 0 0 0 1 3023.dat
1 15 80 -112 50 1 0 0 0 1 0 0 0 1 3023.dat
1 15 160 -112 -20 0 0 -1 0 1 0 1 0 0 3795.dat
1 15 -200 -112 -10 0 0 -1 0 1 0 1 0 0 3021.dat
1 15 200 -112 -10 0 0 -1 0 1 0 1 0 0 3021.dat
1 15 -190 -112 -50 1 0 0 0 1 0 0 0 1 3024.dat
1 15 -120 -112 -70 0 0 -1 0 1 0 1 0 0 3021.dat
1 15 120 -112 -70 0 0 -1 0 1 0 1 0 0 3021.dat
1 15 190 -112 -50 1 0 0 0 1 0 0 0 1 3024.dat
1 15 -70 -112 -80 1 0 0 0 1 0 0 0 1 3021.dat
1 15 70 -112 -80 1 0 0 0 1 0 0 0 1 3021.dat
1 15 -100 -112 -120 1 0 0 0 1 0 0 0 1 3022.dat
1 15 -70 -112 -110 1 0 0 0 1 0 0 0 1 3024.dat
1 15 90 -112 -110 1 0 0 0 1 0 0 0 1 3623.dat
1 15 100 -112 -130 1 0 0 0 1 0 0 0 1 3023.dat
1 15 -90 -112 -150 1 0 0 0 1 0 0 0 1 3024.dat
1 15 90 -112 -150 1 0 0 0 1 0 0 0 1 3024.dat
1 15 -130 -112 -110 1 0 0 0 1 0 0 0 1 3070b.dat
1 15 130 -112 -110 1 0 0 0 1 0 0 0 1 3070b.dat
1 71 -30 -112 -80 0 0 -1 0 1 0 1 0 0 3023.dat
1 71 30 -112 -80 0 0 -1 0 1 0 1 0 0 3023.dat
1 78 -50 -112 -130 0 0 -1 0 1 0 1 0 0 3623.dat
1 78 50 -112 -130 0 0 -1 0 1 0 1 0 0 3623.dat
1 78 -70 -112 -140 0 0 -1 0 1 0 1 0 0 3023.dat
1 78 70 -112 -140 0 0 -1 0 1 0 1 0 0 3023.dat
1 212 0 -112 -80 1 0 0 0 1 0 0 0 1 3022.dat
0 STEP
1 10 0 -120 -150 0 0 -1 0 1 0 1 0 0 3021.dat
1 10 -30 -120 -150 1 0 0 0 1 0 0 0 1 3024.dat
1 10 30 -120 -150 1 0 0 0 1 0 0 0 1 3024.dat
1 15 0 -120 80 1 0 0 0 1 0 0 0 1 3832.dat
1 15 -160 -120 -0 0 0 -1 0 1 0 1 0 0 3034.dat
1 15 -120 -120 60 1 0 0 0 1 0 0 0 1 3022.dat
1 15 140 -120 60 1 0 0 0 1 0 0 0 1 3020.dat
1 15 -80 -120 50 1 0 0 0 1 0 0 0 1 3023.dat
1 15 80 -120 50 1 0 0 0 1 0 0 0 1 3023.dat
1 15 -190 -120 -0 0 0 -1 0 1 0 1 0 0 3710.dat
1 15 160 -120 -20 0 0 -1 0 1 0 1 0 0 3795.dat
1 15 190 -120 -0 0 0 -1 0 1 0 1 0 0 3710.dat
1 15 -210 -120 -10 0 0 -1 0 1 0 1 0 0 3623.dat
1 15 210 -120 -10 0 0 -1 0 1 0 1 0 0 3623.dat
1 15 -110 -120 -60 1 0 0 0 1 0 0 0 1 3021.dat
1 15 100 -120 -80 0 0 -1 0 1 0 1 0 0 3020.dat
1 15 130 -120 -70 0 0 -1 0 1 0 1 0 0 3623.dat
1 15 -60 -120 -80 1 0 0 0 1 0 0 0 1 3022.dat
1 15 60 -120 -80 1 0 0 0 1 0 0 0 1 3022.dat
1 15 -110 -120 -90 1 0 0 0 1 0 0 0 1 3623.dat
1 15 -100 -120 -110 1 0 0 0 1 0 0 0 1 3023.dat
1 15 -90 -120 -140 0 0 -1 0 1 0 1 0 0 3023.dat
1 15 90 -120 -140 0 0 -1 0 1 0 1 0 0 3023.dat
1 15 -190 -120 -50 1 0 0 0 1 0 0 0 1 3070b.dat
1 15 190 -120 -50 1 0 0 0 1 0 0 0 1 3070b.dat
1 15 -110 -120 -130 1 0 0 0 1 0 0 0 1 3070b.dat
1 15 110 -120 -130 1 0 0 0 1 0 0 0 1 3070b.dat
1 71 -30 -120 -80 0 0 -1 0 1 0 1 0 0 3023.dat
1 71 30 -120 -80 0 0 -1 0 1 0 1 0 0 3023.dat
1 78 -60 -120 -130 0 0 -1 0 1 0 1 0 0 3021.dat
1 78 60 -120 -130 0 0 -1 0 1 0 1 0 0 3021.dat
1 78 -30 -120 -130 1 0 0 0 1 0 0 0 1 3024.dat
1 78 30 -120 -130 1 0 0 0 1 0 0 0 1 3024.dat
1 212 0 -120 -80 1 0 0 0 1 0 0 0 1 3022.dat
0 STEP
1 10 0 -128 -150 0 0 -1 0 1 0 1 0 0 3021.dat
1 10 -30 -128 -150 1 0 0 0 1 0 0 0 1 3070b.dat
1 10 30 -128 -150 1 0 0 0 1 0 0 0 1 3070b.dat
1 15 0 -128 80 1 0 0 0 1 0 0 0 1 3832.dat
1 15 -160 -128 -0 0 0 -1 0 1 0 1 0 0 3034.dat
1 15 -120 -128 60 1 0 0 0 1 0 0 0 1 3022.dat
1 15 140 -128 60 1 0 0 0 1 0 0 0 1 3020.dat
1 15 -80 -128 50 1 0 0 0 1 0 0 0 1 3023.dat
1 15 80 -128 50 1 0 0 0 1 0 0 0 1 3023.dat
1 15 -190 -128 -0 0 0 -1 0 1 0 1 0 0 3710.dat
1 15 160 -128 -20 0 0 -1 0 1 0 1 0 0 3795.dat
1 15 190 -128 -0 0 0 -1 0 1 0 1 0 0 3710.dat
1 15 -210 -128 -10 0 0 -1 0 1 0 1 0 0 3623.dat
1 15 210 -128 -10 0 0 -1 0 1 0 1 0 0 3623.dat
1 15 -100 -128 -60 1 0 0 0 1 0 0 0 1 3020.dat
1 15 100 -128 -60 1 0 0 0 1 0 0 0 1 3020.dat
1 15 -50 -128 -80 0 0 -1 0 1 0 1 0 0 3023.dat
1 15 50 -128 -80 0 0 -1 0 1 0 1 0 0 3023.dat
1 15 -90 -128 -90 1 0 0 0 1 0 0 0 1 3623.dat
1 15 80 -128 -100 1 0 0 0 1 0 0 0 1 3022.dat
1 15 110 -128 -90 1 0 0 0 1 0 0 0 1 3024.dat
1 15 -80 -128 -110 1 0 0 0 1 0 0 0 1 3023.dat
1 15 -90 -128 -130 1 0 0 0 1 0 0 0 1 3024.dat
1 15 90 -128 -130 1 0 0 0 1 0 0 0 1 3024.dat
1 15 -130 -128 -90 1 0 0 0 1 0 0 0 1 3070b.dat
1 15 130 -128 -90 1 0 0 0 1 0 0 0 1 3070b.dat
1 15 -110 -128 -110 1 0 0 0 1 0 0 0 1 3070b.dat
1 15 110 -128 -110 1 0 0 0 1 0 0 0 1 3070b.dat
1 15 -90 -128 -150 1 0 0 0 1 0 0 0 1 3070b.dat
1 15 90 -128 -150 1 0 0 0 1 0 0 0 1 3070b.dat
1 71 -30 -128 -80 0 0 -1 0 1 0 1 0 0 3023.dat
1 71 30 -128 -80 0 0 -1 0 1 0 1 0 0 3023.dat
1 78 -50 -128 -130 0 0 -1 0 1 0 1 0 0 3623.dat
1 78 50 -128 -130 0 0 -1 0 1 0 1 0 0 3623.dat
1 78 -70 -128 -140 0 0 -1 0 1 0 1 0 0 3023.dat
1 78 70 -128 -140 0 0 -1 0 1 0 1 0 0 3023.dat
1 78 -30 -128 -130 1 0 0 0 1 0 0 0 1 3070b.dat
1 78 30 -128 -130 1 0 0 0 1 0 0 0 1 3070b.dat
1 212 0 -128 -80 1 0 0 0 1 0 0 0 1 3022.dat
0 STEP
1 15 0 -136 80 1 0 0 0 1 0 0 0 1 3832.dat
1 15 -160 -136 -0 0 0 -1 0 1 0 1 0 0 3034.dat
1 15 -120 -136 60 1 0 0 0 1 0 0 0 1 3022.dat
1 15 140 -136 60 1 0 0 0 1 0 0 0 1 3020.dat
1 15 -80 -136 50 1 0 0 0 1 0 0 0 1 3023.dat
1 15 80 -136 50 1 0 0 0 1 0 0 0 1 3023.dat
1 15 -190 -136 -0 0 0 -1 0 1 0 1 0 0 3710.dat
1 15 -130 -136 30 1 0 0 0 1 0 0 0 1 3024.dat
1 15 160 -136 30 1 0 0 0 1 0 0 0 1 3710.dat
1 15 -210 -136 -10 0 0 -1 0 1 0 1 0 0 3623.dat
1 15 180 -136 -0 1 0 0 0 1 0 0 0 1 3020.dat
1 15 -130 -136 -50 0 0 -1 0 1 0 1 0 0 3623.dat
1 15 150 -136 -40 1 0 0 0 1 0 0 0 1 3021.dat
1 15 200 -136 -30 1 0 0 0 1 0 0 0 1 3023.dat
1 15 -90 -136 -60 1 0 0 0 1 0 0 0 1 3021.dat
1 15 80 -136 -80 0 0 -1 0 1 0 1 0 0 3020.dat
1 15 110 -136 -60 0 0 -1 0 1 0 1 0 0 3023.dat
1 15 -50 -136 -80 0 0 -1 0 1 0 1 0 0 3023.dat
1 15 50 -136 -80 0 0 -1 0 1 0 1 0 0 3023.dat
1 15 150 -136 -70 1 0 0 0 1 0 0 0 1 3623.dat
1 15 -80 -136 -100 1 0 0 0 1 0 0 0 1 3022.dat
1 15 0 -136 -150 1 0 0 0 1 0 0 0 1 3023.dat
1 15 -110 -136 -90 1 0 0 0 1 0 0 0 1 3070b.dat
1 15 110 -136 -90 1 0 0 0 1 0 0 0 1 3070b.dat
1 15 -50 -136 -110 1 0 0 0 1 0 0 0 1 3070b.dat
1 15 50 -136 -110 1 0 0 0 1 0 0 0 1 3070b.dat
1 15 -90 -136 -130 1 0 0 0 1 0 0 0 1 3070b.dat
1 15 0 -136 -130 1 0 0 0 1 0 0 0 1 3069b.dat
1 15 90 -136 -130 1 0 0 0 1 0 0 0 1 3070b.dat
1 15 0 -136 -170 1 0 0 0 1 0 0 0 1 3069b.dat
1 71 -30 -136 -80 0 0 -1 0 1 0 1 0 0 3023.dat
1 71 30 -136 -80 0 0 -1 0 1 0 1 0 0 3023.dat
1 78 -70 -136 -130 1 0 0 0 1 0 0 0 1 3024.dat
1 78 70 -136 -130 1 0 0 0 1 0 0 0 1 3024.dat
1 78 -50 -136 -140 0 0 -1 0 1 0 1 0 0 3069b.dat
1 78 50 -136 -140 0 0 -1 0 1 0 1 0 0 3069b.dat
1 78 -70 -136 -150 1 0 0 0 1 0 0 0 1 3070b.dat
1 78 70 -136 -150 1 0 0 0 1 0 0 0 1 3070b.dat
1 212 0 -136 -80 1 0 0 0 1 0 0 0 1 3022.dat
0 STEP
1 15 0 -144 80 1 0 0 0 1 0 0 0 1 3832.dat
1 15 -150 -144 -0 0 0 -1 0 1 0 1 0 0 3460.dat
1 15 -120 -144 60 1 0 0 0 1 0 0 0 1 3022.dat
1 15 130 -144 60 1 0 0 0 1 0 0 0 1 3021.dat
1 15 -170 -144 -0 0 0 -1 0 1 0 1 0 0 3666.dat
1 15 -70 -144 50 1 0 0 0 1 0 0 0 1 3623.dat
1 15 70 -144 50 1 0 0 0 1 0 0 0 1 3623.dat
1 15 170 -144 -0 0 0 -1 0 1 0 1 0 0 3666.dat
1 15 -190 -144 -0 0 0 -1 0 1 0 1 0 0 3710.dat
1 15 -130 -144 30 1 0 0 0 1 0 0 0 1 3024.dat
1 15 140 -144 30 1 0 0 0 1 0 0 0 1 3023.dat
1 15 190 -144 -0 0 0 -1 0 1 0 1 0 0 3710.dat
1 15 -210 -144 -10 0 0 -1 0 1 0 1 0 0 3623.dat
1 15 150 -144 -20 0 0 -1 0 1 0 1 0 0 3710.dat
1 15 210 -144 -10 0 0 -1 0 1 0 1 0 0 3623.dat
1 15 -130 -144 -50 0 0 -1 0 1 0 1 0 0 3623.dat
1 15 130 -144 -40 0 0 -1 0 1 0 1 0 0 3023.dat
1 15 -80 -144 -60 1 0 0 0 1 0 0 0 1 3020.dat
1 15 80 -144 -60 1 0 0 0 1 0 0 0 1 3022.dat
1 15 110 -144 -50 1 0 0 0 1 0 0 0 1 3024.dat
1 15 50 -144 -80 0 0 -1 0 1 0 1 0 0 3023.dat
1 15 -70 -144 -90 1 0 0 0 1 0 0 0 1 3623.dat
1 15 90 -144 -110 1 0 0 0 1 0 0 0 1 3024.dat
1 15 0 -144 -150 1 0 0 0 1 0 0 0 1 3023.dat
1 15 -170 -144 70 1 0 0 0 1 0 0 0 1 3070b.dat
1 15 170 -144 70 1 0 0 0 1 0 0 0 1 3070b.dat
1 15 -170 -144 -70 1 0 0 0 1 0 0 0 1 3070b.dat
1 15 170 -144 -70 1 0 0 0 1 0 0 0 1 3070b.dat
1 15 -80 -144 -110 1 0 0 0 1 0 0 0 1 3069b.dat
1 15 70 -144 -120 0 0 -1 0 1 0 1 0 0 3069b.dat
1 15 -70 -144 -130 1 0 0 0 1 0 0 0 1 3070b.dat
1 71 -30 -144 -80 0 0 -1 0 1 0 1 0 0 3023.dat
1 71 30 -144 -80 0 0 -1 0 1 0 1 0 0 3023.dat
1 71 130 -144 -70 1 0 0 0 1 0 0 0 1 3623.dat
1 71 80 -144 -90 1 0 0 0 1 0 0 0 1 3023.dat
1 212 0 -144 -80 1 0 0 0 1 0 0 0 1 3022.dat
0 STEP
1 14 90 -152 -90 0 0 -1 0 1 0 1 0 0 3623.dat
1 14 130 -152 -90 0 0 -1 0 1 0 1 0 0 3623.dat
1 15 0 -152 80 1 0 0 0 1 0 0 0 1 3034.dat
1 15 -150 -152 -0 0 0 -1 0 1 0 1 0 0 3460.dat
1 15 -110 -152 60 1 0 0 0 1 0 0 0 1 3021.dat
1 15 120 -152 60 1 0 0 0 1 0 0 0 1 3020.dat
1 15 -170 -152 -0 0 0 -1 0 1 0 1 0 0 3666.dat
1 15 0 -152 50 1 0 0 0 1 0 0 0 1 3460.dat
1 15 170 -152 -0 0 0 -1 0 1 0 1 0 0 3666.dat
1 15 -190 -152 -0 0 0 -1 0 1 0 1 0 0 3710.dat
1 15 -130 -152 30 1 0 0 0 1 0 0 0 1 3024.dat
1 15 140 -152 30 1 0 0 0 1 0 0 0 1 3023.dat
1 15 190 -152 -0 0 0 -1 0 1 0 1 0 0 3710.dat
1 15 -210 -152 -0 0 0 -1 0 1 0 1 0 0 3023.dat
1 15 150 -152 -20 0 0 -1 0 1 0 1 0 0 3710.dat
1 15 210 -152 -0 0 0 -1 0 1 0 1 0 0 3023.dat
1 15 -130 -152 -50 0 0 -1 0 1 0 1 0 0 3623.dat
1 15 130 -152 -40 0 0 -1 0 1 0 1 0 0 3023.dat
1 15 -90 -152 -60 1 0 0 0 1 0 0 0 1 3021.dat
1 15 90 -152 -50 1 0 0 0 1 0 0 0 1 3623.dat
1 15 70 -152 -80 0 0 -1 0 1 0 1 0 0 3023.dat
1 15 110 -152 -70 1 0 0 0 1 0 0 0 1 3024.dat
1 15 150 -152 -70 1 0 0 0 1 0 0 0 1 3024.dat
1 15 -70 -152 -90 1 0 0 0 1 0 0 0 1 3024.dat
1 15 0 -152 -150 1 0 0 0 1 0 0 0 1 3023.dat
1 15 -90 -152 90 1 0 0 0 1 0 0 0 1 3070b.dat
1 15 90 -152 90 1 0 0 0 1 0 0 0 1 3070b.dat
1 15 -210 -152 -30 1 0 0 0 1 0 0 0 1 3070b.dat
1 15 210 -152 -30 1 0 0 0 1 0 0 0 1 3070b.dat
1 15 -90 -152 -90 1 0 0 0 1 0 0 0 1 3070b.dat
1 71 -50 -152 -70 0 0 -1 0 1 0 1 0 0 3623.dat
1 71 50 -152 -70 0 0 -1 0 1 0 1 0 0 3623.dat
1 212 0 -152 -60 1 0 0 0 1 0 0 0 1 3020.dat
1 212 0 -152 -90 1 0 0 0 1 0 0 0 1 3710.dat
0 STEP
1 14 90 -160 -90 0 0 -1 0 1 0 1 0 0 3623.dat
1 14 130 -160 -90 0 0 -1 0 1 0 1 0 0 3623.dat
1 15 -40 -160 60 1 0 0 0 1 0 0 0 1 2445.dat
1 15 120 -160 60 1 0 0 0 1 0 0 0 1 3020.dat
1 15 -170 -160 -0 0 0 -1 0 1 0 1 0 0 3666.dat
1 15 170 -160 -0 0 0 -1 0 1 0 1 0 0 3666.dat
1 15 -190 -160 -0 0 0 -1 0 1 0 1 0 0 3710.dat
1 15 -140 -160 -20 0 0 -1 0 1 0 1 0 0 3795.dat
1 15 -110 -160 30 1 0 0 0 1 0 0 0 1 3024.dat
1 15 130 -160 30 1 0 0 0 1 0 0 0 1 3623.dat
1 15 190 -160 -0 0 0 -1 0 1 0 1 0 0 3710.dat
1 15 -210 -160 -0 0 0 -1 0 1 0 1 0 0 3023.dat
1 15 140 -160 -20 0 0 -1 0 1 0 1 0 0 3020.dat
1 15 210 -160 -0 0 0 -1 0 1 0 1 0 0 3023.dat
1 15 -110 -160 -50 0 0 -1 0 1 0 1 0 0 3623.dat
1 15 110 -160 -50 0 0 -1 0 1 0 1 0 0 3623.dat
1 15 -80 -160 -60 1 0 0 0 1 0 0 0 1 3022.dat
1 15 80 -160 -50 1 0 0 0 1 0 0 0 1 3023.dat
1 15 70 -160 -70 1 0 0 0 1 0 0 0 1 3024.dat
1 15 150 -160 -70 1 0 0 0 1 0 0 0 1 3024.dat
1 15 0 -160 -150 1 0 0 0 1 0 0 0 1 3023.dat
1 15 0 -160 90 1 0 0 0 1 0 0 0 1 4162.dat
1 15 -70 -160 -90 1 0 0 0 1 0 0 0 1 3070b.dat
1 15 70 -160 -90 1 0 0 0 1 0 0 0 1 3070b.dat
1 71 -50 -160 -60 0 0 -1 0 1 0 1 0 0 3023.dat
1 71 50 -160 -60 0 0 -1 0 1 0 1 0 0 3023.dat
1 71 -50 -160 -90 1 0 0 0 1 0 0 0 1 3070b.dat
1 71 50 -160 -90 1 0 0 0 1 0 0 0 1 3070b.dat
1 212 0 -160 -60 1 0 0 0 1 0 0 0 1 3020.dat
1 212 0 -160 -90 1 0 0 0 1 0 0 0 1 2431.dat
0 STEP
1 14 90 -168 -90 0 0 -1 0 1 0 1 0 0 3623.dat
1 14 130 -168 -90 0 0 -1 0 1 0 1 0 0 3623.dat
1 15 -20 -168 60 1 0 0 0 1 0 0 0 1 2445.dat
1 15 120 -168 50 0 0 -1 0 1 0 1 0 0 3021.dat
1 15 -150 -168 -0 0 0 -1 0 1 0 1 0 0 3666.dat
1 15 150 -168 -0 0 0 -1 0 1 0 1 0 0 3666.dat
1 15 -180 -168 -0 0 0 -1 0 1 0 1 0 0 3020.dat
1 15 -130 -168 -20 0 0 -1 0 1 0 1 0 0 3666.dat
1 15 -100 -168 30 1 0 0 0 1 0 0 0 1 3023.dat
1 15 90 -168 30 1 0 0 0 1 0 0 0 1 3024.dat
1 15 180 -168 -0 0 0 -1 0 1 0 1 0 0 3020.dat
1 15 -210 -168 -0 0 0 -1 0 1 0 1 0 0 3023.dat
1 15 130 -168 -20 0 0 -1 0 1 0 1 0 0 3710.dat
1 15 210 -168 -0 0 0 -1 0 1 0 1 0 0 3023.dat
1 15 -100 -168 -50 0 0 -1 0 1 0 1 0 0 3021.dat
1 15 110 -168 -50 0 0 -1 0 1 0 1 0 0 3623.dat
1 15 -70 -168 -60 0 0 -1 0 1 0 1 0 0 3023.dat
1 15 80 -168 -50 1 0 0 0 1 0 0 0 1 3023.dat
1 15 70 -168 -70 1 0 0 0 1 0 0 0 1 3024.dat
1 15 0 -168 -150 1 0 0 0 1 0 0 0 1 3023.dat
1 15 -150 -168 70 1 0 0 0 1 0 0 0 1 3070b.dat
1 15 150 -168 70 1 0 0 0 1 0 0 0 1 3070b.dat
1 15 -170 -168 50 1 0 0 0 1 0 0 0 1 3070b.dat
1 15 170 -168 50 1 0 0 0 1 0 0 0 1 3070b.dat
1 15 -170 -168 -50 1 0 0 0 1 0 0 0 1 3070b.dat
1 15 170 -168 -50 1 0 0 0 1 0 0 0 1 3070b.dat
1 15 -150 -168 -70 1 0 0 0 1 0 0 0 1 3070b.dat
1 15 150 -168 -70 1 0 0 0 1 0 0 0 1 3070b.dat
1 71 -50 -168 -60 0 0 -1 0 1 0 1 0 0 3023.dat
1 71 50 -168 -60 0 0 -1 0 1 0 1 0 0 3023.dat
1 212 0 -168 -60 1 0 0 0 1 0 0 0 1 3020.dat
0 STEP
1 14 90 -176 -90 0 0 -1 0 1 0 1 0 0 3623.dat
1 15 0 -176 60 1 0 0 0 1 0 0 0 1 2445.dat
1 15 -140 -176 -0 0 0 -1 0 1 0 1 0 0 3795.dat
1 15 140 -176 -0 0 0 -1 0 1 0 1 0 0 3795.dat
1 15 -180 -176 -0 0 0 -1 0 1 0 1 0 0 3020.dat
1 15 -110 -176 -20 0 0 -1 0 1 0 1 0 0 3666.dat
1 15 -70 -176 30 1 0 0 0 1 0 0 0 1 3623.dat
1 15 80 -176 30 1 0 0 0 1 0 0 0 1 3710.dat
1 15 180 -176 -0 0 0 -1 0 1 0 1 0 0 3020.dat
1 15 -210 -176 -0 0 0 -1 0 1 0 1 0 0 3023.dat
1 15 110 -176 -20 0 0 -1 0 1 0 1 0 0 3710.dat
1 15 210 -176 -0 0 0 -1 0 1 0 1 0 0 3023.dat
1 15 -80 -176 -50 0 0 -1 0 1 0 1 0 0 3021.dat
1 15 -50 -176 -30 1 0 0 0 1 0 0 0 1 3024.dat
1 15 80 -176 -40 1 0 0 0 1 0 0 0 1 3022.dat
1 15 70 -176 -70 1 0 0 0 1 0 0 0 1 3024.dat
1 15 110 -176 -70 1 0 0 0 1 0 0 0 1 3024.dat
1 15 0 -176 -150 1 0 0 0 1 0 0 0 1 3023.dat
1 15 -130 -176 70 1 0 0 0 1 0 0 0 1 3070b.dat
1 15 130 -176 70 1 0 0 0 1 0 0 0 1 3070b.dat
1 15 -130 -176 -70 1 0 0 0 1 0 0 0 1 3070b.dat
1 19 130 -176 -90 0 0 -1 0 1 0 1 0 0 3623.dat
1 71 -50 -176 -60 0 0 -1 0 1 0 1 0 0 3023.dat
1 71 50 -176 -60 0 0 -1 0 1 0 1 0 0 3023.dat
1 212 0 -176 -60 1 0 0 0 1 0 0 0 1 3020.dat
0 STEP
1 0 130 -184 -90 0 0 -1 0 1 0 1 0 0 63864.dat
1 15 0 -184 60 1 0 0 0 1 0 0 0 1 3034.dat
1 15 -120 -184 -0 0 0 -1 0 1 0 1 0 0 3795.dat
1 15 -90 -184 -0 0 0 -1 0 1 0 1 0 0 3666.dat
1 15 100 -184 -0 0 0 -1 0 1 0 1 0 0 3795.dat
1 15 130 -184 -0 0 0 -1 0 1 0 1 0 0 3666.dat
1 15 -180 -184 -0 0 0 -1 0 1 0 1 0 0 3020.dat
1 15 0 -184 30 1 0 0 0 1 0 0 0 1 3460.dat
1 15 180 -184 -0 0 0 -1 0 1 0 1 0 0 3020.dat
1 15 -210 -184 -0 0 0 -1 0 1 0 1 0 0 3023.dat
1 15 -150 -184 -0 0 0 -1 0 1 0 1 0 0 3023.dat
1 15 -70 -184 -20 0 0 -1 0 1 0 1 0 0 3710.dat
1 15 70 -184 -20 0 0 -1 0 1 0 1 0 0 3710.dat
1 15 150 -184 -0 0 0 -1 0 1 0 1 0 0 3023.dat
1 15 210 -184 -0 0 0 -1 0 1 0 1 0 0 3023.dat
1 15 0 -184 -30 1 0 0 0 1 0 0 0 1 3666.dat
1 15 -60 -184 -70 1 0 0 0 1 0 0 0 1 3023.dat
1 15 50 -184 -120 0 0 -1 0 1 0 1 0 0 3666.dat
1 15 70 -184 -70 1 0 0 0 1 0 0 0 1 3024.dat
1 15 -50 -184 -140 0 0 -1 0 1 0 1 0 0 3666.dat
1 15 0 -184 -150 1 0 0 0 1 0 0 0 1 3023.dat
1 15 50 -184 -190 1 0 0 0 1 0 0 0 1 3024.dat
1 15 -100 -184 70 1 0 0 0 1 0 0 0 1 3069b.dat
1 15 100 -184 70 1 0 0 0 1 0 0 0 1 3069b.dat
1 15 -150 -184 40 0 0 -1 0 1 0 1 0 0 3069b.dat
1 15 150 -184 40 0 0 -1 0 1 0 1 0 0 3069b.dat
1 15 -150 -184 -40 0 0 -1 0 1 0 1 0 0 3069b.dat
1 15 150 -184 -40 0 0 -1 0 1 0 1 0 0 3069b.dat
1 15 -100 -184 -70 1 0 0 0 1 0 0 0 1 3069b.dat
1 15 110 -184 -70 1 0 0 0 1 0 0 0 1 3070b.dat
1 19 90 -184 -90 0 0 -1 0 1 0 1 0 0 3623.dat
1 71 -50 -184 -50 1 0 0 0 1 0 0 0 1 3024.dat
1 71 50 -184 -50 1 0 0 0 1 0 0 0 1 3024.dat
1 212 0 -184 -60 1 0 0 0 1 0 0 0 1 3020.dat
0 STEP
1 0 90 -192 -90 0 0 -1 0 1 0 1 0 0 63864.dat
1 15 0 -192 50 1 0 0 0 1 0 0 0 1 4477.dat
1 15 -100 -192 -0 0 0 -1 0 1 0 1 0 0 3020.dat
1 15 -70 -192 -0 0 0 -1 0 1 0 1 0 0 3710.dat
1 15 -50 -192 30 1 0 0 0 1 0 0 0 1 3024.dat
1 15 80 -192 30 1 0 0 0 1 0 0 0 1 3710.dat
1 15 -180 -192 -0 1 0 0 0 1 0 0 0 1 3022.dat
1 15 90 -192 -0 1 0 0 0 1 0 0 0 1 3021.dat
1 15 180 -192 -0 1 0 0 0 1 0 0 0 1 3022.dat
1 15 -50 -192 -30 1 0 0 0 1 0 0 0 1 3024.dat
1 15 80 -192 -30 1 0 0 0 1 0 0 0 1 3710.dat
1 15 -90 -192 -50 1 0 0 0 1 0 0 0 1 3024.dat
1 15 90 -192 -50 1 0 0 0 1 0 0 0 1 3024.dat
1 15 -50 -192 -120 0 0 -1 0 1 0 1 0 0 3666.dat
1 15 50 -192 -120 0 0 -1 0 1 0 1 0 0 3666.dat
1 15 0 -192 -150 1 0 0 0 1 0 0 0 1 3023.dat
1 15 -50 -192 -190 1 0 0 0 1 0 0 0 1 3024.dat
1 15 50 -192 -190 1 0 0 0 1 0 0 0 1 3024.dat
1 15 0 -192 70 1 0 0 0 1 0 0 0 1 4162.dat
1 15 -130 -192 -0 0 0 -1 0 1 0 1 0 0 6636.dat
1 15 -110 -192 50 1 0 0 0 1 0 0 0 1 3070b.dat
1 15 120 -192 50 1 0 0 0 1 0 0 0 1 3069b.dat
1 15 -180 -192 30 1 0 0 0 1 0 0 0 1 3069b.dat
1 15 130 -192 -0 0 0 -1 0 1 0 1 0 0 2431.dat
1 15 180 -192 30 1 0 0 0 1 0 0 0 1 3069b.dat
1 15 -210 -192 -0 0 0 -1 0 1 0 1 0 0 3069b.dat
1 15 -150 -192 -0 0 0 -1 0 1 0 1 0 0 3069b.dat
1 15 150 -192 -0 0 0 -1 0 1 0 1 0 0 3069b.dat
1 15 210 -192 -0 0 0 -1 0 1 0 1 0 0 3069b.dat
1 15 -180 -192 -30 1 0 0 0 1 0 0 0 1 3069b.dat
1 15 180 -192 -30 1 0 0 0 1 0 0 0 1 3069b.dat
1 15 -110 -192 -50 1 0 0 0 1 0 0 0 1 3070b.dat
1 15 120 -192 -50 1 0 0 0 1 0 0 0 1 3069b.dat
1 71 -70 -192 -50 1 0 0 0 1 0 0 0 1 3024.dat
1 71 70 -192 -50 1 0 0 0 1 0 0 0 1 3024.dat
1 71 -70 -192 -70 1 0 0 0 1 0 0 0 1 3070b.dat
1 71 70 -192 -70 1 0 0 0 1 0 0 0 1 3070b.dat
1 78 0 -192 -0 1 0 0 0 1 0 0 0 1 3031.dat
1 78 -50 -192 -0 0 0 -1 0 1 0 1 0 0 3023.dat
1 78 50 -192 -0 0 0 -1 0 1 0 1 0 0 3023.dat
1 78 0 -192 -50 1 0 0 0 1 0 0 0 1 3023.dat
1 212 -40 -192 -50 1 0 0 0 1 0 0 0 1 3023.dat
1 212 40 -192 -50 1 0 0 0 1 0 0 0 1 3023.dat
1 212 0 -192 -70 1 0 0 0 1 0 0 0 1 2431.dat
0 STEP
1 15 -170 -200 -0 0 0 -1 0 1 0 1 0 0 3023.dat
1 15 170 -200 -0 0 0 -1 0 1 0 1 0 0 3023.dat
1 15 -20 -200 50 1 0 0 0 1 0 0 0 1 4162.dat
1 15 70 -200 20 0 0 -1 0 1 0 1 0 0 2431.dat
1 15 90 -200 -0 0 0 -1 0 1 0 1 0 0 6636.dat
1 15 -80 -200 30 1 0 0 0 1 0 0 0 1 2431.dat
1 15 50 -200 30 1 0 0 0 1 0 0 0 1 3070b.dat
1 15 110 -200 -0 0 0 -1 0 1 0 1 0 0 2431.dat
1 15 -190 -200 -0 0 0 -1 0 1 0 1 0 0 3069b.dat
1 15 -100 -200 -0 1 0 0 0 1 0 0 0 1 3068b.dat
1 15 -70 -200 -10 0 0 -1 0 1 0 1 0 0 63864.dat
1 15 190 -200 -0 0 0 -1 0 1 0 1 0 0 3069b.dat
1 15 -100 -200 -30 1 0 0 0 1 0 0 0 1 3069b.dat
1 15 -50 -200 -30 1 0 0 0 1 0 0 0 1 3070b.dat
1 15 60 -200 -30 1 0 0 0 1 0 0 0 1 3069b.dat
1 15 -90 -200 -50 1 0 0 0 1 0 0 0 1 3070b.dat
1 15 -50 -200 -120 0 0 -1 0 1 0 1 0 0 6636.dat
1 15 50 -200 -120 0 0 -1 0 1 0 1 0 0 6636.dat
1 15 -50 -200 -190 1 0 0 0 1 0 0 0 1 3070b.dat
1 15 50 -200 -190 1 0 0 0 1 0 0 0 1 3070b.dat
1 71 -70 -200 -50 1 0 0 0 1 0 0 0 1 3070b.dat
1 71 70 -200 -50 1 0 0 0 1 0 0 0 1 3070b.dat
1 71 0 -200 -150 1 0 0 0 1 0 0 0 1 3069b.dat
1 78 0 -200 -0 1 0 0 0 1 0 0 0 1 3031.dat
1 78 -50 -200 -0 0 0 -1 0 1 0 1 0 0 3023.dat
1 78 50 -200 -0 0 0 -1 0 1 0 1 0 0 3023.dat
1 78 0 -200 -50 1 0 0 0 1 0 0 0 1 3023.dat
1 212 -40 -200 -50 1 0 0 0 1 0 0 0 1 3069b.dat
1 212 40 -200 -50 1 0 0 0 1 0 0 0 1 3069b.dat
0 STEP
1 15 -170 -208 -0 0 0 -1 0 1 0 1 0 0 3069b.dat
1 15 170 -208 -0 0 0 -1 0 1 0 1 0 0 3069b.dat
1 78 0 -208 -0 1 0 0 0 1 0 0 0 1 3031.dat
1 78 -50 -208 -0 0 0 -1 0 1 0 1 0 0 3023.dat
1 78 50 -208 -0 0 0 -1 0 1 0 1 0 0 3023.dat
1 78 0 -208 -50 1 0 0 0 1 0 0 0 1 3023.dat
0 STEP
1 78 0 -216 -0 1 0 0 0 1 0 0 0 1 3031.dat
1 78 -50 -216 -10 0 0 -1 0 1 0 1 0 0 3623.dat
1 78 50 -216 -10 0 0 -1 0 1 0 1 0 0 3623.dat
1 78 0 -216 -50 1 0 0 0 1 0 0 0 1 3710.dat
0 STEP
1 78 0 -224 -0 0 0 -1 0 1 0 1 0 0 3032.dat
1 78 -50 -224 -0 0 0 -1 0 1 0 1 0 0 3710.dat
1 78 50 -224 -0 0 0 -1 0 1 0 1 0 0 3710.dat
1 78 -70 -224 -10 1 0 0 0 1 0 0 0 1 3024.dat
1 78 70 -224 -10 1 0 0 0 1 0 0 0 1 3024.dat
1 78 -50 -224 -50 1 0 0 0 1 0 0 0 1 3024.dat
1 78 50 -224 -50 1 0 0 0 1 0 0 0 1 3024.dat
1 78 0 -224 -70 1 0 0 0 1 0 0 0 1 3023.dat
0 STEP
1 78 0 -232 -0 0 0 -1 0 1 0 1 0 0 3032.dat
1 78 -50 -232 -0 0 0 -1 0 1 0 1 0 0 3710.dat
1 78 50 -232 -0 0 0 -1 0 1 0 1 0 0 3710.dat
1 78 -70 -232 -10 0 0 -1 0 1 0 1 0 0 3623.dat
1 78 70 -232 -10 0 0 -1 0 1 0 1 0 0 3623.dat
1 78 -50 -232 -50 1 0 0 0 1 0 0 0 1 3024.dat
1 78 50 -232 -50 1 0 0 0 1 0 0 0 1 3024.dat
1 78 0 -232 -70 1 0 0 0 1 0 0 0 1 3710.dat
0 STEP
1 78 0 -240 40 0 0 -1 0 1 0 1 0 0 3020.dat
1 78 -40 -240 -0 0 0 -1 0 1 0 1 0 0 3795.dat
1 78 40 -240 -0 0 0 -1 0 1 0 1 0 0 3795.dat
1 78 -70 -240 -0 0 0 -1 0 1 0 1 0 0 3710.dat
1 78 70 -240 -0 0 0 -1 0 1 0 1 0 0 3710.dat
1 78 0 -240 -50 0 0 -1 0 1 0 1 0 0 3021.dat
1 78 -70 -240 -50 1 0 0 0 1 0 0 0 1 3024.dat
1 78 70 -240 -50 1 0 0 0 1 0 0 0 1 3024.dat
1 78 -40 -240 -70 1 0 0 0 1 0 0 0 1 3023.dat
1 78 40 -240 -70 1 0 0 0 1 0 0 0 1 3023.dat
0 STEP
1 78 0 -248 40 1 0 0 0 1 0 0 0 1 3031.dat
1 78 -50 -248 -0 0 0 -1 0 1 0 1 0 0 3666.dat
1 78 50 -248 -0 0 0 -1 0 1 0 1 0 0 3666.dat
1 78 -70 -248 -0 0 0 -1 0 1 0 1 0 0 3710.dat
1 78 70 -248 -0 0 0 -1 0 1 0 1 0 0 3710.dat
1 78 -90 -248 -10 0 0 -1 0 1 0 1 0 0 3623.dat
1 78 90 -248 -10 0 0 -1 0 1 0 1 0 0 3623.dat
1 78 -30 -248 -40 0 0 -1 0 1 0 1 0 0 3710.dat
1 78 30 -248 -40 0 0 -1 0 1 0 1 0 0 3710.dat
1 78 0 -248 -60 0 0 -1 0 1 0 1 0 0 3020.dat
1 78 -70 -248 -50 1 0 0 0 1 0 0 0 1 3024.dat
1 78 70 -248 -50 1 0 0 0 1 0 0 0 1 3024.dat
1 78 -50 -248 -70 1 0 0 0 1 0 0 0 1 3024.dat
1 78 50 -248 -70 1 0 0 0 1 0 0 0 1 3024.dat
0 STEP
1 78 0 -256 60 1 0 0 0 1 0 0 0 1 3795.dat
1 78 -70 -256 -0 0 0 -1 0 1 0 1 0 0 3666.dat
1 78 70 -256 -0 0 0 -1 0 1 0 1 0 0 3666.dat
1 78 -90 -256 -0 0 0 -1 0 1 0 1 0 0 3710.dat
1 78 0 -256 30 1 0 0 0 1 0 0 0 1 3666.dat
1 78 90 -256 -0 0 0 -1 0 1 0 1 0 0 3710.dat
1 78 -50 -256 -20 0 0 -1 0 1 0 1 0 0 3710.dat
1 78 -30 -256 10 1 0 0 0 1 0 0 0 1 3024.dat
1 78 40 -256 10 1 0 0 0 1 0 0 0 1 3023.dat
1 78 50 -256 -40 0 0 -1 0 1 0 1 0 0 3710.dat
1 78 -30 -256 -60 0 0 -1 0 1 0 1 0 0 3710.dat
1 78 30 -256 -60 0 0 -1 0 1 0 1 0 0 3710.dat
1 78 0 -256 -70 0 0 -1 0 1 0 1 0 0 3021.dat
1 78 -60 -256 -70 1 0 0 0 1 0 0 0 1 3023.dat
1 78 70 -256 -70 1 0 0 0 1 0 0 0 1 3024.dat
0 STEP
1 78 0 -264 60 1 0 0 0 1 0 0 0 1 3795.dat
1 78 -70 -264 -0 0 0 -1 0 1 0 1 0 0 3666.dat
1 78 70 -264 -0 0 0 -1 0 1 0 1 0 0 3666.dat
1 78 -90 -264 -0 0 0 -1 0 1 0 1 0 0 3710.dat
1 78 0 -264 30 1 0 0 0 1 0 0 0 1 3666.dat
1 78 90 -264 -0 0 0 -1 0 1 0 1 0 0 3710.dat
1 78 -50 -264 -40 0 0 -1 0 1 0 1 0 0 3666.dat
1 78 -30 -264 10 1 0 0 0 1 0 0 0 1 3024.dat
1 78 40 -264 10 1 0 0 0 1 0 0 0 1 3023.dat
1 78 50 -264 -40 0 0 -1 0 1 0 1 0 0 3710.dat
1 78 -30 -264 -60 0 0 -1 0 1 0 1 0 0 3710.dat
1 78 30 -264 -60 0 0 -1 0 1 0 1 0 0 3710.dat
1 78 -90 -264 -50 1 0 0 0 1 0 0 0 1 3024.dat
1 78 0 -264 -70 0 0 -1 0 1 0 1 0 0 3021.dat
1 78 90 -264 -50 1 0 0 0 1 0 0 0 1 3024.dat
1 78 -70 -264 -70 1 0 0 0 1 0 0 0 1 3024.dat
1 78 70 -264 -70 1 0 0 0 1 0 0 0 1 3024.dat
1 78 50 -264 -90 1 0 0 0 1 0 0 0 1 3024.dat
0 STEP
1 78 0 -272 70 0 0 -1 0 1 0 1 0 0 3021.dat
1 78 -50 -272 -0 0 0 -1 0 1 0 1 0 0 3460.dat
1 78 -30 -272 50 0 0 -1 0 1 0 1 0 0 3623.dat
1 78 40 -272 50 0 0 -1 0 1 0 1 0 0 3021.dat
1 78 -70 -272 -0 0 0 -1 0 1 0 1 0 0 3666.dat
1 78 70 -272 -0 0 0 -1 0 1 0 1 0 0 3666.dat
1 78 -90 -272 -0 0 0 -1 0 1 0 1 0 0 3710.dat
1 78 90 -272 -0 0 0 -1 0 1 0 1 0 0 3710.dat
1 78 50 -272 -40 0 0 -1 0 1 0 1 0 0 3666.dat
1 78 -90 -272 -50 1 0 0 0 1 0 0 0 1 3024.dat
1 78 0 -272 -60 1 0 0 0 1 0 0 0 1 3020.dat
1 78 90 -272 -50 1 0 0 0 1 0 0 0 1 3024.dat
1 78 -70 -272 -70 1 0 0 0 1 0 0 0 1 3024.dat
1 78 70 -272 -70 1 0 0 0 1 0 0 0 1 3024.dat
1 78 -20 -272 -90 1 0 0 0 1 0 0 0 1 3710.dat
1 78 30 -272 -90 1 0 0 0 1 0 0 0 1 3024.dat
0 STEP
1 78 -80 -280 -20 0 0 -1 0 1 0 1 0 0 3795.dat
1 78 -40 -280 30 1 0 0 0 1 0 0 0 1 3023.dat
1 78 60 -280 30 1 0 0 0 1 0 0 0 1 3710.dat
1 78 -110 -280 -10 0 0 -1 0 1 0 1 0 0 3623.dat
1 78 -50 -280 10 1 0 0 0 1 0 0 0 1 3024.dat
1 78 80 -280 10 1 0 0 0 1 0 0 0 1 3710.dat
1 78 80 -280 -40 0 0 -1 0 1 0 1 0 0 3020.dat
1 78 110 -280 -20 0 0 -1 0 1 0 1 0 0 3023.dat
1 78 -50 -280 -60 0 0 -1 0 1 0 1 0 0 3710.dat
1 78 50 -280 -60 0 0 -1 0 1 0 1 0 0 3710.dat
1 78 -30 -280 -70 0 0 -1 0 1 0 1 0 0 3623.dat
1 78 30 -280 -70 0 0 -1 0 1 0 1 0 0 3623.dat
1 78 0 -280 -90 0 0 -1 0 1 0 1 0 0 3021.dat
1 308 0 -280 80 1 0 0 0 1 0 0 0 1 3795.dat
1 308 -70 -280 60 0 0 -1 0 1 0 1 0 0 3023.dat
1 308 70 -280 60 0 0 -1 0 1 0 1 0 0 3023.dat
1 308 -90 -280 50 1 0 0 0 1 0 0 0 1 3024.dat
1 308 0 -280 50 1 0 0 0 1 0 0 0 1 3666.dat
1 308 90 -280 50 1 0 0 0 1 0 0 0 1 3024.dat
0 STEP
1 78 -80 -288 -20 0 0 -1 0 1 0 1 0 0 3795.dat
1 78 -40 -288 30 1 0 0 0 1 0 0 0 1 3023.dat
1 78 60 -288 30 1 0 0 0 1 0 0 0 1 3710.dat
1 78 -50 -288 10 1 0 0 0 1 0 0 0 1 3024.dat
1 78 70 -288 10 1 0 0 0 1 0 0 0 1 3623.dat
1 78 80 -288 -40 0 0 -1 0 1 0 1 0 0 3020.dat
1 78 -50 -288 -60 0 0 -1 0 1 0 1 0 0 3710.dat
1 78 50 -288 -60 0 0 -1 0 1 0 1 0 0 3710.dat
1 78 -30 -288 -80 0 0 -1 0 1 0 1 0 0 3710.dat
1 78 30 -288 -80 0 0 -1 0 1 0 1 0 0 3710.dat
1 78 0 -288 -90 0 0 -1 0 1 0 1 0 0 3021.dat
1 78 -70 -288 -90 1 0 0 0 1 0 0 0 1 3024.dat
1 78 70 -288 -90 1 0 0 0 1 0 0 0 1 3024.dat
1 308 0 -288 80 1 0 0 0 1 0 0 0 1 3795.dat
1 308 -80 -288 60 1 0 0 0 1 0 0 0 1 3022.dat
1 308 80 -288 60 1 0 0 0 1 0 0 0 1 3022.dat
1 308 0 -288 50 1 0 0 0 1 0 0 0 1 3666.dat
1 308 -110 -288 -0 0 0 -1 0 1 0 1 0 0 3710.dat
1 308 110 -288 -0 0 0 -1 0 1 0 1 0 0 3710.dat
1 308 -110 -288 -50 1 0 0 0 1 0 0 0 1 3024.dat
1 308 110 -288 -50 1 0 0 0 1 0 0 0 1 3024.dat
0 STEP
1 78 -80 -296 -20 0 0 -1 0 1 0 1 0 0 3795.dat
1 78 -50 -296 30 1 0 0 0 1 0 0 0 1 3024.dat
1 78 70 -296 30 1 0 0 0 1 0 0 0 1 3623.dat
1 78 80 -296 -20 0 0 -1 0 1 0 1 0 0 3020.dat
1 78 -40 -296 -70 0 0 -1 0 1 0 1 0 0 3021.dat
1 78 40 -296 -70 0 0 -1 0 1 0 1 0 0 3021.dat
1 78 0 -296 -80 1 0 0 0 1 0 0 0 1 3022.dat
1 78 80 -296 -70 1 0 0 0 1 0 0 0 1 3023.dat
1 78 -70 -296 -90 1 0 0 0 1 0 0 0 1 3024.dat
1 78 70 -296 -90 1 0 0 0 1 0 0 0 1 3024.dat
1 308 0 -296 80 1 0 0 0 1 0 0 0 1 3034.dat
1 308 -90 -296 60 0 0 -1 0 1 0 1 0 0 3023.dat
1 308 90 -296 60 0 0 -1 0 1 0 1 0 0 3023.dat
1 308 -110 -296 -0 0 0 -1 0 1 0 1 0 0 3666.dat
1 308 -50 -296 50 1 0 0 0 1 0 0 0 1 3623.dat
1 308 50 -296 50 1 0 0 0 1 0 0 0 1 3623.dat
1 308 110 -296 -0 0 0 -1 0 1 0 1 0 0 3666.dat
1 320 0 -296 -110 1 0 0 0 1 0 0 0 1 3710.dat
0 STEP
1 78 -90 -304 -20 0 0 -1 0 1 0 1 0 0 3666.dat
1 78 -70 -304 20 0 0 -1 0 1 0 1 0 0 3023.dat
1 78 80 -304 20 1 0 0 0 1 0 0 0 1 3022.dat
1 78 90 -304 -40 0 0 -1 0 1 0 1 0 0 3710.dat
1 78 -70 -304 -60 0 0 -1 0 1 0 1 0 0 3710.dat
1 78 70 -304 -60 0 0 -1 0 1 0 1 0 0 3710.dat
1 78 -50 -304 -60 0 0 -1 0 1 0 1 0 0 3023.dat
1 78 50 -304 -60 0 0 -1 0 1 0 1 0 0 3023.dat
1 78 0 -304 -80 1 0 0 0 1 0 0 0 1 3020.dat
1 78 0 -304 -110 1 0 0 0 1 0 0 0 1 3710.dat
1 308 0 -304 100 1 0 0 0 1 0 0 0 1 3020.dat
1 308 -60 -304 70 0 0 -1 0 1 0 1 0 0 3021.dat
1 308 60 -304 70 0 0 -1 0 1 0 1 0 0 3021.dat
1 308 -90 -304 60 0 0 -1 0 1 0 1 0 0 3023.dat
1 308 0 -304 70 1 0 0 0 1 0 0 0 1 3710.dat
1 308 90 -304 60 0 0 -1 0 1 0 1 0 0 3023.dat
1 308 -110 -304 -0 0 0 -1 0 1 0 1 0 0 3666.dat
1 308 -30 -304 50 1 0 0 0 1 0 0 0 1 3024.dat
1 308 30 -304 50 1 0 0 0 1 0 0 0 1 3024.dat
1 308 110 -304 -0 0 0 -1 0 1 0 1 0 0 3666.dat
1 308 -130 -304 -0 0 0 -1 0 1 0 1 0 0 3023.dat
1 308 130 -304 -0 0 0 -1 0 1 0 1 0 0 3023.dat
1 320 -50 -304 -90 1 0 0 0 1 0 0 0 1 3024.dat
1 320 50 -304 -90 1 0 0 0 1 0 0 0 1 3024.dat
0 STEP
1 78 -90 -312 -20 0 0 -1 0 1 0 1 0 0 3666.dat
1 78 -70 -312 30 1 0 0 0 1 0 0 0 1 3024.dat
1 78 80 -312 30 1 0 0 0 1 0 0 0 1 3023.dat
1 78 90 -312 -20 0 0 -1 0 1 0 1 0 0 3710.dat
1 78 -70 -312 -60 0 0 -1 0 1 0 1 0 0 3710.dat
1 78 70 -312 -60 0 0 -1 0 1 0 1 0 0 3710.dat
1 78 -50 -312 -80 0 0 -1 0 1 0 1 0 0 3710.dat
1 78 50 -312 -80 0 0 -1 0 1 0 1 0 0 3710.dat
1 78 0 -312 -80 1 0 0 0 1 0 0 0 1 3020.dat
1 78 90 -312 -70 1 0 0 0 1 0 0 0 1 3024.dat
1 78 0 -312 -110 1 0 0 0 1 0 0 0 1 3710.dat
1 308 0 -312 100 1 0 0 0 1 0 0 0 1 3020.dat
1 308 -60 -312 70 0 0 -1 0 1 0 1 0 0 3021.dat
1 308 60 -312 70 0 0 -1 0 1 0 1 0 0 3021.dat
1 308 -90 -312 60 0 0 -1 0 1 0 1 0 0 3023.dat
1 308 0 -312 70 1 0 0 0 1 0 0 0 1 3710.dat
1 308 90 -312 60 0 0 -1 0 1 0 1 0 0 3023.dat
1 308 -110 -312 -0 0 0 -1 0 1 0 1 0 0 3666.dat
1 308 110 -312 -0 0 0 -1 0 1 0 1 0 0 3666.dat
1 308 -130 -312 -10 0 0 -1 0 1 0 1 0 0 3623.dat
1 308 130 -312 -10 0 0 -1 0 1 0 1 0 0 3623.dat
0 STEP
1 78 -90 -320 -20 0 0 -1 0 1 0 1 0 0 3666.dat
1 78 -70 -320 30 1 0 0 0 1 0 0 0 1 3024.dat
1 78 80 -320 30 1 0 0 0 1 0 0 0 1 3023.dat
1 78 90 -320 -20 0 0 -1 0 1 0 1 0 0 3710.dat
1 78 -70 -320 -60 0 0 -1 0 1 0 1 0 0 3710.dat
1 78 70 -320 -60 0 0 -1 0 1 0 1 0 0 3710.dat
1 78 -50 -320 -80 0 0 -1 0 1 0 1 0 0 3710.dat
1 78 50 -320 -80 0 0 -1 0 1 0 1 0 0 3710.dat
1 78 0 -320 -80 1 0 0 0 1 0 0 0 1 3020.dat
1 78 90 -320 -70 1 0 0 0 1 0 0 0 1 3024.dat
1 78 0 -320 -110 1 0 0 0 1 0 0 0 1 3710.dat
1 308 0 -320 100 1 0 0 0 1 0 0 0 1 3795.dat
1 308 -70 -320 70 0 0 -1 0 1 0 1 0 0 3623.dat
1 308 70 -320 70 0 0 -1 0 1 0 1 0 0 3623.dat
1 308 -90 -320 60 0 0 -1 0 1 0 1 0 0 3023.dat
1 308 0 -320 70 1 0 0 0 1 0 0 0 1 3666.dat
1 308 90 -320 60 0 0 -1 0 1 0 1 0 0 3023.dat
1 308 -110 -320 -0 0 0 -1 0 1 0 1 0 0 3666.dat
1 308 -50 -320 50 1 0 0 0 1 0 0 0 1 3024.dat
1 308 50 -320 50 1 0 0 0 1 0 0 0 1 3024.dat
1 308 110 -320 -0 0 0 -1 0 1 0 1 0 0 3666.dat
1 308 -130 -320 -0 0 0 -1 0 1 0 1 0 0 3710.dat
1 308 130 -320 -0 0 0 -1 0 1 0 1 0 0 3710.dat
0 STEP
1 78 -90 -328 -20 0 0 -1 0 1 0 1 0 0 3666.dat
1 78 -70 -328 30 1 0 0 0 1 0 0 0 1 3024.dat
1 78 80 -328 30 1 0 0 0 1 0 0 0 1 3023.dat
1 78 90 -328 -20 0 0 -1 0 1 0 1 0 0 3710.dat
1 78 -70 -328 -60 0 0 -1 0 1 0 1 0 0 3710.dat
1 78 70 -328 -60 0 0 -1 0 1 0 1 0 0 3710.dat
1 78 -50 -328 -80 0 0 -1 0 1 0 1 0 0 3710.dat
1 78 50 -328 -80 0 0 -1 0 1 0 1 0 0 3710.dat
1 78 -30 -328 -90 0 0 -1 0 1 0 1 0 0 3623.dat
1 78 30 -328 -90 0 0 -1 0 1 0 1 0 0 3623.dat
1 78 90 -328 -70 1 0 0 0 1 0 0 0 1 3024.dat
1 78 0 -328 -110 0 0 -1 0 1 0 1 0 0 3021.dat
1 308 0 -328 100 1 0 0 0 1 0 0 0 1 3795.dat
1 308 -80 -328 70 0 0 -1 0 1 0 1 0 0 3021.dat
1 308 80 -328 70 0 0 -1 0 1 0 1 0 0 3021.dat
1 308 -110 -328 20 0 0 -1 0 1 0 1 0 0 3666.dat
1 308 0 -328 70 1 0 0 0 1 0 0 0 1 3666.dat
1 308 110 -328 20 0 0 -1 0 1 0 1 0 0 3666.dat
1 308 -50 -328 50 1 0 0 0 1 0 0 0 1 3024.dat
1 308 50 -328 50 1 0 0 0 1 0 0 0 1 3024.dat
1 308 -130 -328 -0 0 0 -1 0 1 0 1 0 0 3710.dat
1 308 130 -328 -0 0 0 -1 0 1 0 1 0 0 3710.dat
1 308 -110 -328 -50 1 0 0 0 1 0 0 0 1 3024.dat
1 308 110 -328 -50 1 0 0 0 1 0 0 0 1 3024.dat
0 STEP
1 78 -90 -336 -20 0 0 -1 0 1 0 1 0 0 3666.dat
1 78 -70 -336 30 1 0 0 0 1 0 0 0 1 3024.dat
1 78 80 -336 30 1 0 0 0 1 0 0 0 1 3023.dat
1 78 90 -336 -40 0 0 -1 0 1 0 1 0 0 3666.dat
1 78 -70 -336 -60 0 0 -1 0 1 0 1 0 0 3710.dat
1 78 70 -336 -60 0 0 -1 0 1 0 1 0 0 3710.dat
1 78 -50 -336 -80 0 0 -1 0 1 0 1 0 0 3710.dat
1 78 50 -336 -80 0 0 -1 0 1 0 1 0 0 3710.dat
1 78 -30 -336 -90 0 0 -1 0 1 0 1 0 0 3623.dat
1 78 30 -336 -90 0 0 -1 0 1 0 1 0 0 3623.dat
1 78 -90 -336 -90 1 0 0 0 1 0 0 0 1 3024.dat
1 78 0 -336 -110 0 0 -1 0 1 0 1 0 0 3021.dat
1 308 0 -336 100 1 0 0 0 1 0 0 0 1 3795.dat
1 308 -80 -336 70 0 0 -1 0 1 0 1 0 0 3021.dat
1 308 80 -336 70 0 0 -1 0 1 0 1 0 0 3021.dat
1 308 -110 -336 20 0 0 -1 0 1 0 1 0 0 3666.dat
1 308 -40 -336 70 1 0 0 0 1 0 0 0 1 3023.dat
1 308 40 -336 70 1 0 0 0 1 0 0 0 1 3023.dat
1 308 110 -336 20 0 0 -1 0 1 0 1 0 0 3666.dat
1 308 -50 -336 50 1 0 0 0 1 0 0 0 1 3024.dat
1 308 50 -336 50 1 0 0 0 1 0 0 0 1 3024.dat
1 308 -130 -336 -0 0 0 -1 0 1 0 1 0 0 3710.dat
1 308 130 -336 -0 0 0 -1 0 1 0 1 0 0 3710.dat
1 308 -120 -336 -50 1 0 0 0 1 0 0 0 1 3023.dat
1 308 120 -336 -50 1 0 0 0 1 0 0 0 1 3023.dat
0 STEP
1 78 -90 -344 -20 0 0 -1 0 1 0 1 0 0 3666.dat
1 78 90 -344 -20 0 0 -1 0 1 0 1 0 0 3666.dat
1 78 -70 -344 -60 0 0 -1 0 1 0 1 0 0 3710.dat
1 78 70 -344 -60 0 0 -1 0 1 0 1 0 0 3710.dat
1 78 -50 -344 -80 0 0 -1 0 1 0 1 0 0 3710.dat
1 78 50 -344 -80 0 0 -1 0 1 0 1 0 0 3710.dat
1 78 -30 -344 -90 0 0 -1 0 1 0 1 0 0 3623.dat
1 78 30 -344 -90 0 0 -1 0 1 0 1 0 0 3623.dat
1 78 -90 -344 -90 1 0 0 0 1 0 0 0 1 3024.dat
1 78 0 -344 -110 0 0 -1 0 1 0 1 0 0 3021.dat
1 78 90 -344 -90 1 0 0 0 1 0 0 0 1 3024.dat
1 308 0 -344 100 1 0 0 0 1 0 0 0 1 3795.dat
1 308 -80 -344 70 0 0 -1 0 1 0 1 0 0 3021.dat
1 308 80 -344 70 0 0 -1 0 1 0 1 0 0 3021.dat
1 308 -110 -344 20 0 0 -1 0 1 0 1 0 0 3666.dat
1 308 -40 -344 70 1 0 0 0 1 0 0 0 1 3023.dat
1 308 40 -344 70 1 0 0 0 1 0 0 0 1 3023.dat
1 308 110 -344 20 0 0 -1 0 1 0 1 0 0 3666.dat
1 308 -130 -344 -0 0 0 -1 0 1 0 1 0 0 3710.dat
1 308 130 -344 -0 0 0 -1 0 1 0 1 0 0 3710.dat
1 308 -120 -344 -50 1 0 0 0 1 0 0 0 1 3023.dat
1 308 120 -344 -50 1 0 0 0 1 0 0 0 1 3023.dat
0 STEP
1 78 -90 -352 20 0 0 -1 0 1 0 1 0 0 3023.dat
1 78 90 -352 20 0 0 -1 0 1 0 1 0 0 3023.dat
1 78 -80 -352 -60 0 0 -1 0 1 0 1 0 0 3020.dat
1 78 80 -352 -60 0 0 -1 0 1 0 1 0 0 3020.dat
1 78 -110 -352 -70 1 0 0 0 1 0 0 0 1 3024.dat
1 78 -40 -352 -90 0 0 -1 0 1 0 1 0 0 3021.dat
1 78 40 -352 -90 0 0 -1 0 1 0 1 0 0 3021.dat
1 78 110 -352 -70 1 0 0 0 1 0 0 0 1 3024.dat
1 78 0 -352 -110 0 0 -1 0 1 0 1 0 0 3021.dat
1 308 0 -352 100 1 0 0 0 1 0 0 0 1 3795.dat
1 308 -80 -352 70 0 0 -1 0 1 0 1 0 0 3021.dat
1 308 80 -352 70 0 0 -1 0 1 0 1 0 0 3021.dat
1 308 -110 -352 20 0 0 -1 0 1 0 1 0 0 3666.dat
1 308 -40 -352 70 1 0 0 0 1 0 0 0 1 3023.dat
1 308 40 -352 70 1 0 0 0 1 0 0 0 1 3023.dat
1 308 110 -352 20 0 0 -1 0 1 0 1 0 0 3666.dat
1 308 -130 -352 -0 0 0 -1 0 1 0 1 0 0 3666.dat
1 308 130 -352 -0 0 0 -1 0 1 0 1 0 0 3666.dat
1 308 -110 -352 -50 1 0 0 0 1 0 0 0 1 3024.dat
1 308 110 -352 -50 1 0 0 0 1 0 0 0 1 3024.dat
0 STEP
1 78 -90 -360 20 0 0 -1 0 1 0 1 0 0 3023.dat
1 78 90 -360 20 0 0 -1 0 1 0 1 0 0 3023.dat
1 78 -80 -360 -60 0 0 -1 0 1 0 1 0 0 3020.dat
1 78 80 -360 -60 0 0 -1 0 1 0 1 0 0 3020.dat
1 78 -110 -360 -70 1 0 0 0 1 0 0 0 1 3024.dat
1 78 -40 -360 -90 0 0 -1 0 1 0 1 0 0 3021.dat
1 78 40 -360 -90 0 0 -1 0 1 0 1 0 0 3021.dat
1 78 110 -360 -70 1 0 0 0 1 0 0 0 1 3024.dat
1 78 0 -360 -100 1 0 0 0 1 0 0 0 1 3022.dat
1 78 0 -360 -130 1 0 0 0 1 0 0 0 1 3069b.dat
1 308 0 -360 100 1 0 0 0 1 0 0 0 1 3795.dat
1 308 -80 -360 70 0 0 -1 0 1 0 1 0 0 3021.dat
1 308 80 -360 70 0 0 -1 0 1 0 1 0 0 3021.dat
1 308 -110 -360 20 0 0 -1 0 1 0 1 0 0 3666.dat
1 308 -40 -360 70 1 0 0 0 1 0 0 0 1 3023.dat
1 308 40 -360 70 1 0 0 0 1 0 0 0 1 3023.dat
1 308 110 -360 20 0 0 -1 0 1 0 1 0 0 3666.dat
1 308 -130 -360 -0 0 0 -1 0 1 0 1 0 0 3666.dat
1 308 130 -360 -0 0 0 -1 0 1 0 1 0 0 3666.dat
1 308 -110 -360 -50 1 0 0 0 1 0 0 0 1 3024.dat
1 308 110 -360 -50 1 0 0 0 1 0 0 0 1 3024.dat
0 STEP
1 15 -70 -368 -90 1 0 0 0 1 0 0 0 1 3024.dat
1 15 70 -368 -90 1 0 0 0 1 0 0 0 1 3024.dat
1 15 -40 -368 -110 1 0 0 0 1 0 0 0 1 3023.dat
1 15 40 -368 -110 1 0 0 0 1 0 0 0 1 3023.dat
1 78 -90 -368 30 1 0 0 0 1 0 0 0 1 3024.dat
1 78 90 -368 30 1 0 0 0 1 0 0 0 1 3024.dat
1 78 -80 -368 -50 0 0 -1 0 1 0 1 0 0 3021.dat
1 78 80 -368 -50 0 0 -1 0 1 0 1 0 0 3021.dat
1 78 -110 -368 -70 1 0 0 0 1 0 0 0 1 3024.dat
1 78 -40 -368 -80 1 0 0 0 1 0 0 0 1 3022.dat
1 78 40 -368 -80 1 0 0 0 1 0 0 0 1 3022.dat
1 78 110 -368 -70 1 0 0 0 1 0 0 0 1 3024.dat
1 78 -90 -368 -90 1 0 0 0 1 0 0 0 1 3024.dat
1 78 0 -368 -100 1 0 0 0 1 0 0 0 1 3022.dat
1 78 90 -368 -90 1 0 0 0 1 0 0 0 1 3024.dat
1 308 0 -368 100 1 0 0 0 1 0 0 0 1 3795.dat
1 308 -80 -368 70 0 0 -1 0 1 0 1 0 0 3021.dat
1 308 80 -368 70 0 0 -1 0 1 0 1 0 0 3021.dat
1 308 -110 -368 20 0 0 -1 0 1 0 1 0 0 3666.dat
1 308 -40 -368 70 1 0 0 0 1 0 0 0 1 3023.dat
1 308 40 -368 70 1 0 0 0 1 0 0 0 1 3023.dat
1 308 110 -368 20 0 0 -1 0 1 0 1 0 0 3666.dat
1 308 -130 -368 -0 0 0 -1 0 1 0 1 0 0 3666.dat
1 308 130 -368 -0 0 0 -1 0 1 0 1 0 0 3666.dat
1 308 -110 -368 -50 1 0 0 0 1 0 0 0 1 3024.dat
1 308 110 -368 -50 1 0 0 0 1 0 0 0 1 3024.dat
0 STEP
1 15 -70 -376 -90 1 0 0 0 1 0 0 0 1 3024.dat
1 15 70 -376 -90 1 0 0 0 1 0 0 0 1 3024.dat
1 15 -40 -376 -110 1 0 0 0 1 0 0 0 1 3023.dat
1 15 40 -376 -110 1 0 0 0 1 0 0 0 1 3023.dat
1 78 -90 -376 30 1 0 0 0 1 0 0 0 1 3024.dat
1 78 90 -376 30 1 0 0 0 1 0 0 0 1 3024.dat
1 78 -80 -376 -50 0 0 -1 0 1 0 1 0 0 3021.dat
1 78 80 -376 -50 0 0 -1 0 1 0 1 0 0 3021.dat
1 78 -40 -376 -80 1 0 0 0 1 0 0 0 1 3022.dat
1 78 40 -376 -80 1 0 0 0 1 0 0 0 1 3022.dat
1 78 -90 -376 -90 1 0 0 0 1 0 0 0 1 3024.dat
1 78 0 -376 -100 1 0 0 0 1 0 0 0 1 3022.dat
1 78 90 -376 -90 1 0 0 0 1 0 0 0 1 3024.dat
1 78 -110 -376 -70 1 0 0 0 1 0 0 0 1 3070b.dat
1 78 110 -376 -70 1 0 0 0 1 0 0 0 1 3070b.dat
1 308 0 -376 100 1 0 0 0 1 0 0 0 1 3034.dat
1 308 -90 -376 70 0 0 -1 0 1 0 1 0 0 3623.dat
1 308 90 -376 70 0 0 -1 0 1 0 1 0 0 3623.dat
1 308 -110 -376 20 0 0 -1 0 1 0 1 0 0 3666.dat
1 308 -50 -376 70 1 0 0 0 1 0 0 0 1 3623.dat
1 308 50 -376 70 1 0 0 0 1 0 0 0 1 3623.dat
1 308 110 -376 20 0 0 -1 0 1 0 1 0 0 3666.dat
1 308 -130 -376 -0 0 0 -1 0 1 0 1 0 0 3666.dat
1 308 -70 -376 50 1 0 0 0 1 0 0 0 1 3024.dat
1 308 70 -376 50 1 0 0 0 1 0 0 0 1 3024.dat
1 308 130 -376 -0 0 0 -1 0 1 0 1 0 0 3666.dat
1 308 -110 -376 -50 1 0 0 0 1 0 0 0 1 3024.dat
1 308 110 -376 -50 1 0 0 0 1 0 0 0 1 3024.dat
0 STEP
1 0 -50 -384 -110 1 0 0 0 1 0 0 0 1 3024.dat
1 0 50 -384 -110 1 0 0 0 1 0 0 0 1 3024.dat
1 15 -70 -384 -90 1 0 0 0 1 0 0 0 1 3024.dat
1 15 70 -384 -90 1 0 0 0 1 0 0 0 1 3024.dat
1 15 -30 -384 -110 1 0 0 0 1 0 0 0 1 3024.dat
1 15 30 -384 -110 1 0 0 0 1 0 0 0 1 3024.dat
1 78 -90 -384 30 1 0 0 0 1 0 0 0 1 3024.dat
1 78 90 -384 30 1 0 0 0 1 0 0 0 1 3024.dat
1 78 -80 -384 -50 0 0 -1 0 1 0 1 0 0 3021.dat
1 78 80 -384 -50 0 0 -1 0 1 0 1 0 0 3021.dat
1 78 -50 -384 -70 0 0 -1 0 1 0 1 0 0 3623.dat
1 78 50 -384 -70 0 0 -1 0 1 0 1 0 0 3623.dat
1 78 -30 -384 -80 0 0 -1 0 1 0 1 0 0 3023.dat
1 78 30 -384 -80 0 0 -1 0 1 0 1 0 0 3023.dat
1 78 -90 -384 -90 1 0 0 0 1 0 0 0 1 3024.dat
1 78 0 -384 -100 1 0 0 0 1 0 0 0 1 3022.dat
1 78 90 -384 -90 1 0 0 0 1 0 0 0 1 3024.dat
1 308 0 -384 100 1 0 0 0 1 0 0 0 1 3795.dat
1 308 -80 -384 70 0 0 -1 0 1 0 1 0 0 3021.dat
1 308 80 -384 70 0 0 -1 0 1 0 1 0 0 3021.dat
1 308 -110 -384 20 0 0 -1 0 1 0 1 0 0 3666.dat
1 308 -40 -384 70 1 0 0 0 1 0 0 0 1 3023.dat
1 308 40 -384 70 1 0 0 0 1 0 0 0 1 3023.dat
1 308 110 -384 20 0 0 -1 0 1 0 1 0 0 3666.dat
1 308 -130 -384 -0 0 0 -1 0 1 0 1 0 0 3666.dat
1 308 130 -384 -0 0 0 -1 0 1 0 1 0 0 3666.dat
1 308 -110 -384 -50 1 0 0 0 1 0 0 0 1 3024.dat
1 308 110 -384 -50 1 0 0 0 1 0 0 0 1 3024.dat
0 STEP
1 0 -50 -392 -110 1 0 0 0 1 0 0 0 1 3024.dat
1 0 50 -392 -110 1 0 0 0 1 0 0 0 1 3024.dat
1 15 -70 -392 -90 1 0 0 0 1 0 0 0 1 3024.dat
1 15 70 -392 -90 1 0 0 0 1 0 0 0 1 3024.dat
1 15 -30 -392 -110 1 0 0 0 1 0 0 0 1 3024.dat
1 15 30 -392 -110 1 0 0 0 1 0 0 0 1 3024.dat
1 78 -90 -392 30 1 0 0 0 1 0 0 0 1 3024.dat
1 78 90 -392 30 1 0 0 0 1 0 0 0 1 3024.dat
1 78 -80 -392 -50 0 0 -1 0 1 0 1 0 0 3021.dat
1 78 80 -392 -50 0 0 -1 0 1 0 1 0 0 3021.dat
1 78 -50 -392 -70 0 0 -1 0 1 0 1 0 0 3623.dat
1 78 50 -392 -70 0 0 -1 0 1 0 1 0 0 3623.dat
1 78 -30 -392 -80 0 0 -1 0 1 0 1 0 0 3023.dat
1 78 30 -392 -80 0 0 -1 0 1 0 1 0 0 3023.dat
1 78 0 -392 -100 1 0 0 0 1 0 0 0 1 3022.dat
1 78 -90 -392 -90 1 0 0 0 1 0 0 0 1 3070b.dat
1 78 90 -392 -90 1 0 0 0 1 0 0 0 1 3070b.dat
1 308 0 -392 100 1 0 0 0 1 0 0 0 1 3795.dat
1 308 -80 -392 70 0 0 -1 0 1 0 1 0 0 3021.dat
1 308 80 -392 70 0 0 -1 0 1 0 1 0 0 3021.dat
1 308 -110 -392 20 0 0 -1 0 1 0 1 0 0 3666.dat
1 308 -40 -392 70 1 0 0 0 1 0 0 0 1 3023.dat
1 308 40 -392 70 1 0 0 0 1 0 0 0 1 3023.dat
1 308 110 -392 20 0 0 -1 0 1 0 1 0 0 3666.dat
1 308 -130 -392 -0 0 0 -1 0 1 0 1 0 0 3666.dat
1 308 130 -392 -0 0 0 -1 0 1 0 1 0 0 3666.dat
1 308 -110 -392 -50 1 0 0 0 1 0 0 0 1 3024.dat
1 308 110 -392 -50 1 0 0 0 1 0 0 0 1 3024.dat
0 STEP
1 15 -70 -400 -90 1 0 0 0 1 0 0 0 1 3024.dat
1 15 70 -400 -90 1 0 0 0 1 0 0 0 1 3024.dat
1 15 -40 -400 -110 1 0 0 0 1 0 0 0 1 3023.dat
1 15 40 -400 -110 1 0 0 0 1 0 0 0 1 3023.dat
1 78 -90 -400 20 0 0 -1 0 1 0 1 0 0 3023.dat
1 78 90 -400 20 0 0 -1 0 1 0 1 0 0 3023.dat
1 78 -80 -400 -50 0 0 -1 0 1 0 1 0 0 3021.dat
1 78 80 -400 -50 0 0 -1 0 1 0 1 0 0 3021.dat
1 78 -50 -400 -70 0 0 -1 0 1 0 1 0 0 3623.dat
1 78 50 -400 -70 0 0 -1 0 1 0 1 0 0 3623.dat
1 78 0 -400 -80 1 0 0 0 1 0 0 0 1 3020.dat
1 78 0 -400 -110 1 0 0 0 1 0 0 0 1 3023.dat
1 308 0 -400 100 1 0 0 0 1 0 0 0 1 3795.dat
1 308 -80 -400 70 0 0 -1 0 1 0 1 0 0 3021.dat
1 308 80 -400 70 0 0 -1 0 1 0 1 0 0 3021.dat
1 308 -110 -400 20 0 0 -1 0 1 0 1 0 0 3666.dat
1 308 -40 -400 70 1 0 0 0 1 0 0 0 1 3023.dat
1 308 40 -400 70 1 0 0 0 1 0 0 0 1 3023.dat
1 308 110 -400 20 0 0 -1 0 1 0 1 0 0 3666.dat
1 308 -130 -400 -0 0 0 -1 0 1 0 1 0 0 3666.dat
1 308 130 -400 -0 0 0 -1 0 1 0 1 0 0 3666.dat
1 308 -110 -400 -50 1 0 0 0 1 0 0 0 1 3024.dat
1 308 110 -400 -50 1 0 0 0 1 0 0 0 1 3024.dat
0 STEP
1 78 -90 -408 20 0 0 -1 0 1 0 1 0 0 3023.dat
1 78 90 -408 20 0 0 -1 0 1 0 1 0 0 3023.dat
1 78 -80 -408 -50 0 0 -1 0 1 0 1 0 0 3021.dat
1 78 80 -408 -50 0 0 -1 0 1 0 1 0 0 3021.dat
1 78 -50 -408 -70 0 0 -1 0 1 0 1 0 0 3623.dat
1 78 50 -408 -70 0 0 -1 0 1 0 1 0 0 3623.dat
1 78 -30 -408 -90 0 0 -1 0 1 0 1 0 0 3623.dat
1 78 30 -408 -90 0 0 -1 0 1 0 1 0 0 3623.dat
1 78 -70 -408 -90 1 0 0 0 1 0 0 0 1 3024.dat
1 78 0 -408 -100 1 0 0 0 1 0 0 0 1 3022.dat
1 78 70 -408 -90 1 0 0 0 1 0 0 0 1 3024.dat
1 78 -50 -408 -110 1 0 0 0 1 0 0 0 1 3070b.dat
1 78 50 -408 -110 1 0 0 0 1 0 0 0 1 3070b.dat
1 308 0 -408 100 1 0 0 0 1 0 0 0 1 3795.dat
1 308 -80 -408 70 0 0 -1 0 1 0 1 0 0 3021.dat
1 308 80 -408 70 0 0 -1 0 1 0 1 0 0 3021.dat
1 308 -110 -408 20 0 0 -1 0 1 0 1 0 0 3666.dat
1 308 -40 -408 70 1 0 0 0 1 0 0 0 1 3023.dat
1 308 40 -408 70 1 0 0 0 1 0 0 0 1 3023.dat
1 308 110 -408 20 0 0 -1 0 1 0 1 0 0 3666.dat
1 308 -130 -408 -0 0 0 -1 0 1 0 1 0 0 3666.dat
1 308 130 -408 -0 0 0 -1 0 1 0 1 0 0 3666.dat
1 308 -110 -408 -50 1 0 0 0 1 0 0 0 1 3024.dat
1 308 110 -408 -50 1 0 0 0 1 0 0 0 1 3024.dat
0 STEP
1 78 -90 -416 -20 0 0 -1 0 1 0 1 0 0 3666.dat
1 78 90 -416 -20 0 0 -1 0 1 0 1 0 0 3666.dat
1 78 -70 -416 -60 0 0 -1 0 1 0 1 0 0 3710.dat
1 78 70 -416 -60 0 0 -1 0 1 0 1 0 0 3710.dat
1 78 -50 -416 -70 0 0 -1 0 1 0 1 0 0 3623.dat
1 78 50 -416 -70 0 0 -1 0 1 0 1 0 0 3623.dat
1 78 0 -416 -80 1 0 0 0 1 0 0 0 1 3020.dat
1 78 0 -416 -110 1 0 0 0 1 0 0 0 1 3710.dat
1 308 0 -416 100 1 0 0 0 1 0 0 0 1 3795.dat
1 308 -80 -416 70 0 0 -1 0 1 0 1 0 0 3021.dat
1 308 80 -416 70 0 0 -1 0 1 0 1 0 0 3021.dat
1 308 -110 -416 20 0 0 -1 0 1 0 1 0 0 3666.dat
1 308 -40 -416 70 1 0 0 0 1 0 0 0 1 3023.dat
1 308 40 -416 70 1 0 0 0 1 0 0 0 1 3023.dat
1 308 110 -416 20 0 0 -1 0 1 0 1 0 0 3666.dat
1 308 -50 -416 50 1 0 0 0 1 0 0 0 1 3024.dat
1 308 50 -416 50 1 0 0 0 1 0 0 0 1 3024.dat
1 308 -130 -416 -0 0 0 -1 0 1 0 1 0 0 3710.dat
1 308 130 -416 -0 0 0 -1 0 1 0 1 0 0 3710.dat
1 308 -120 -416 -50 1 0 0 0 1 0 0 0 1 3023.dat
1 308 120 -416 -50 1 0 0 0 1 0 0 0 1 3023.dat
0 STEP
1 78 -90 -424 -20 0 0 -1 0 1 0 1 0 0 3666.dat
1 78 -70 -424 30 1 0 0 0 1 0 0 0 1 3024.dat
1 78 80 -424 30 1 0 0 0 1 0 0 0 1 3023.dat
1 78 90 -424 -20 0 0 -1 0 1 0 1 0 0 3710.dat
1 78 -70 -424 -60 0 0 -1 0 1 0 1 0 0 3710.dat
1 78 70 -424 -60 0 0 -1 0 1 0 1 0 0 3710.dat
1 78 -50 -424 -70 0 0 -1 0 1 0 1 0 0 3623.dat
1 78 50 -424 -70 0 0 -1 0 1 0 1 0 0 3623.dat
1 78 0 -424 -80 1 0 0 0 1 0 0 0 1 3020.dat
1 78 90 -424 -70 1 0 0 0 1 0 0 0 1 3024.dat
1 78 0 -424 -110 1 0 0 0 1 0 0 0 1 3710.dat
1 308 0 -424 100 1 0 0 0 1 0 0 0 1 3795.dat
1 308 -80 -424 70 0 0 -1 0 1 0 1 0 0 3021.dat
1 308 80 -424 70 0 0 -1 0 1 0 1 0 0 3021.dat
1 308 -110 -424 20 0 0 -1 0 1 0 1 0 0 3666.dat
1 308 0 -424 70 1 0 0 0 1 0 0 0 1 3666.dat
1 308 110 -424 20 0 0 -1 0 1 0 1 0 0 3666.dat
1 308 -50 -424 50 1 0 0 0 1 0 0 0 1 3024.dat
1 308 50 -424 50 1 0 0 0 1 0 0 0 1 3024.dat
1 308 -130 -424 -0 0 0 -1 0 1 0 1 0 0 3710.dat
1 308 130 -424 -0 0 0 -1 0 1 0 1 0 0 3710.dat
1 308 -120 -424 -50 1 0 0 0 1 0 0 0 1 3023.dat
1 308 120 -424 -50 1 0 0 0 1 0 0 0 1 3023.dat
1 308 -60 -424 -110 1 0 0 0 1 0 0 0 1 3023.dat
1 308 60 -424 -110 1 0 0 0 1 0 0 0 1 3023.dat
1 308 -30 -424 -130 1 0 0 0 1 0 0 0 1 3024.dat
1 308 30 -424 -130 1 0 0 0 1 0 0 0 1 3024.dat
0 STEP
1 78 -90 -432 -20 0 0 -1 0 1 0 1 0 0 3666.dat
1 78 -70 -432 30 1 0 0 0 1 0 0 0 1 3024.dat
1 78 80 -432 30 1 0 0 0 1 0 0 0 1 3023.dat
1 78 90 -432 -20 0 0 -1 0 1 0 1 0 0 3710.dat
1 78 -70 -432 -60 0 0 -1 0 1 0 1 0 0 3710.dat
1 78 70 -432 -60 0 0 -1 0 1 0 1 0 0 3710.dat
1 78 -50 -432 -70 0 0 -1 0 1 0 1 0 0 3623.dat
1 78 50 -432 -70 0 0 -1 0 1 0 1 0 0 3623.dat
1 78 0 -432 -80 1 0 0 0 1 0 0 0 1 3020.dat
1 78 90 -432 -70 1 0 0 0 1 0 0 0 1 3024.dat
1 78 0 -432 -110 1 0 0 0 1 0 0 0 1 3023.dat
1 78 -30 -432 -110 1 0 0 0 1 0 0 0 1 3070b.dat
1 78 30 -432 -110 1 0 0 0 1 0 0 0 1 3070b.dat
1 308 0 -432 100 1 0 0 0 1 0 0 0 1 3795.dat
1 308 -70 -432 70 0 0 -1 0 1 0 1 0 0 3623.dat
1 308 70 -432 70 0 0 -1 0 1 0 1 0 0 3623.dat
1 308 -110 -432 20 0 0 -1 0 1 0 1 0 0 3666.dat
1 308 -90 -432 60 0 0 -1 0 1 0 1 0 0 3023.dat
1 308 0 -432 70 1 0 0 0 1 0 0 0 1 3666.dat
1 308 100 -432 60 1 0 0 0 1 0 0 0 1 3022.dat
1 308 -50 -432 50 1 0 0 0 1 0 0 0 1 3024.dat
1 308 50 -432 50 1 0 0 0 1 0 0 0 1 3024.dat
1 308 -130 -432 -0 0 0 -1 0 1 0 1 0 0 3710.dat
1 308 120 -432 -0 0 0 -1 0 1 0 1 0 0 3020.dat
1 308 -110 -432 -50 1 0 0 0 1 0 0 0 1 3024.dat
1 308 110 -432 -50 1 0 0 0 1 0 0 0 1 3024.dat
0 STEP
1 78 -90 -440 -20 0 0 -1 0 1 0 1 0 0 3666.dat
1 78 -70 -440 30 1 0 0 0 1 0 0 0 1 3024.dat
1 78 80 -440 30 1 0 0 0 1 0 0 0 1 3023.dat
1 78 90 -440 -20 0 0 -1 0 1 0 1 0 0 3710.dat
1 78 -70 -440 -60 0 0 -1 0 1 0 1 0 0 3710.dat
1 78 70 -440 -60 0 0 -1 0 1 0 1 0 0 3710.dat
1 78 -50 -440 -70 0 0 -1 0 1 0 1 0 0 3623.dat
1 78 50 -440 -70 0 0 -1 0 1 0 1 0 0 3623.dat
1 78 0 -440 -80 1 0 0 0 1 0 0 0 1 3020.dat
1 78 90 -440 -70 1 0 0 0 1 0 0 0 1 3024.dat
1 78 0 -440 -110 1 0 0 0 1 0 0 0 1 3069b.dat
1 308 0 -440 100 1 0 0 0 1 0 0 0 1 3020.dat
1 308 -60 -440 70 0 0 -1 0 1 0 1 0 0 3021.dat
1 308 60 -440 70 0 0 -1 0 1 0 1 0 0 3021.dat
1 308 -90 -440 60 0 0 -1 0 1 0 1 0 0 3023.dat
1 308 0 -440 70 1 0 0 0 1 0 0 0 1 3710.dat
1 308 90 -440 60 0 0 -1 0 1 0 1 0 0 3023.dat
1 308 -110 -440 -0 0 0 -1 0 1 0 1 0 0 3666.dat
1 308 110 -440 -0 0 0 -1 0 1 0 1 0 0 3666.dat
1 308 -130 -440 -0 0 0 -1 0 1 0 1 0 0 3710.dat
1 308 130 -440 -0 0 0 -1 0 1 0 1 0 0 3710.dat
0 STEP
1 78 50 -448 -70 0 0 -1 0 1 0 1 0 0 3623.dat
1 78 10 -448 -80 1 0 0 0 1 0 0 0 1 3021.dat
1 308 0 -448 100 1 0 0 0 1 0 0 0 1 3020.dat
1 308 -60 -448 70 0 0 -1 0 1 0 1 0 0 3021.dat
1 308 60 -448 70 0 0 -1 0 1 0 1 0 0 3021.dat
1 308 -90 -448 -0 0 0 -1 0 1 0 1 0 0 3460.dat
1 308 0 -448 70 1 0 0 0 1 0 0 0 1 3710.dat
1 308 90 -448 -0 0 0 -1 0 1 0 1 0 0 3460.dat
1 308 -110 -448 -0 0 0 -1 0 1 0 1 0 0 3666.dat
1 308 -30 -448 50 1 0 0 0 1 0 0 0 1 3024.dat
1 308 30 -448 50 1 0 0 0 1 0 0 0 1 3024.dat
1 308 110 -448 -0 0 0 -1 0 1 0 1 0 0 3666.dat
1 308 -70 -448 30 1 0 0 0 1 0 0 0 1 3024.dat
1 308 70 -448 30 1 0 0 0 1 0 0 0 1 3024.dat
1 308 -130 -448 -10 0 0 -1 0 1 0 1 0 0 3623.dat
1 308 130 -448 -10 0 0 -1 0 1 0 1 0 0 3623.dat
1 308 -70 -448 -60 0 0 -1 0 1 0 1 0 0 3710.dat
1 308 70 -448 -60 0 0 -1 0 1 0 1 0 0 3710.dat
1 308 -50 -448 -80 0 0 -1 0 1 0 1 0 0 3710.dat
1 308 -110 -448 -70 1 0 0 0 1 0 0 0 1 3024.dat
1 308 -30 -448 -90 0 0 -1 0 1 0 1 0 0 3623.dat
1 308 110 -448 -70 1 0 0 0 1 0 0 0 1 3024.dat
1 308 -90 -448 -90 1 0 0 0 1 0 0 0 1 3024.dat
1 308 90 -448 -90 1 0 0 0 1 0 0 0 1 3024.dat
0 STEP
1 78 20 -456 -80 1 0 0 0 1 0 0 0 1 3022.dat
1 308 0 -456 90 0 0 -1 0 1 0 1 0 0 3021.dat
1 308 -60 -456 60 0 0 -1 0 1 0 1 0 0 3020.dat
1 308 -30 -456 70 0 0 -1 0 1 0 1 0 0 3623.dat
1 308 50 -456 80 1 0 0 0 1 0 0 0 1 3021.dat
1 308 -90 -456 -0 0 0 -1 0 1 0 1 0 0 3460.dat
1 308 90 -456 -0 0 0 -1 0 1 0 1 0 0 3460.dat
1 308 -110 -456 -0 0 0 -1 0 1 0 1 0 0 3666.dat
1 308 50 -456 50 1 0 0 0 1 0 0 0 1 3623.dat
1 308 110 -456 -0 0 0 -1 0 1 0 1 0 0 3666.dat
1 308 60 -456 30 1 0 0 0 1 0 0 0 1 3023.dat
1 308 -70 -456 10 1 0 0 0 1 0 0 0 1 3024.dat
1 308 70 -456 10 1 0 0 0 1 0 0 0 1 3024.dat
1 308 -70 -456 -60 0 0 -1 0 1 0 1 0 0 3710.dat
1 308 70 -456 -60 0 0 -1 0 1 0 1 0 0 3710.dat
1 308 -50 -456 -80 0 0 -1 0 1 0 1 0 0 3710.dat
1 308 50 -456 -80 0 0 -1 0 1 0 1 0 0 3710.dat
1 308 -20 -456 -90 0 0 -1 0 1 0 1 0 0 3021.dat
0 STEP
1 308 0 -464 80 1 0 0 0 1 0 0 0 1 3795.dat
1 308 -80 -464 -0 0 0 -1 0 1 0 1 0 0 3034.dat
1 308 80 -464 -0 0 0 -1 0 1 0 1 0 0 3034.dat
1 308 -110 -464 -0 0 0 -1 0 1 0 1 0 0 3666.dat
1 308 -40 -464 50 1 0 0 0 1 0 0 0 1 3023.dat
1 308 40 -464 50 1 0 0 0 1 0 0 0 1 3023.dat
1 308 110 -464 -0 0 0 -1 0 1 0 1 0 0 3666.dat
1 308 -50 -464 30 1 0 0 0 1 0 0 0 1 3024.dat
1 308 50 -464 30 1 0 0 0 1 0 0 0 1 3024.dat
1 308 -50 -464 -70 0 0 -1 0 1 0 1 0 0 3623.dat
1 308 50 -464 -70 0 0 -1 0 1 0 1 0 0 3623.dat
1 308 0 -464 -80 1 0 0 0 1 0 0 0 1 3020.dat
1 308 -70 -464 -90 1 0 0 0 1 0 0 0 1 3024.dat
1 308 70 -464 -90 1 0 0 0 1 0 0 0 1 3024.dat
1 308 0 -464 -110 1 0 0 0 1 0 0 0 1 3710.dat
0 STEP
1 72 -90 -472 -90 1 0 0 0 1 0 0 0 1 3024.dat
1 72 90 -472 -90 1 0 0 0 1 0 0 0 1 3024.dat
1 72 -50 -472 -110 1 0 0 0 1 0 0 0 1 3623.dat
1 72 50 -472 -110 1 0 0 0 1 0 0 0 1 3623.dat
1 72 0 -472 -130 1 0 0 0 1 0 0 0 1 3069b.dat
1 308 0 -472 80 1 0 0 0 1 0 0 0 1 3795.dat
1 308 -70 -472 -0 0 0 -1 0 1 0 1 0 0 3460.dat
1 308 70 -472 -0 0 0 -1 0 1 0 1 0 0 3460.dat
1 308 -90 -472 -0 0 0 -1 0 1 0 1 0 0 3666.dat
1 308 0 -472 50 1 0 0 0 1 0 0 0 1 3666.dat
1 308 90 -472 -0 0 0 -1 0 1 0 1 0 0 3666.dat
1 308 -110 -472 -0 0 0 -1 0 1 0 1 0 0 3710.dat
1 308 -50 -472 30 1 0 0 0 1 0 0 0 1 3024.dat
1 308 50 -472 30 1 0 0 0 1 0 0 0 1 3024.dat
1 308 110 -472 -0 0 0 -1 0 1 0 1 0 0 3710.dat
1 308 -110 -472 -50 1 0 0 0 1 0 0 0 1 3024.dat
1 308 -50 -472 -70 0 0 -1 0 1 0 1 0 0 3623.dat
1 308 50 -472 -70 0 0 -1 0 1 0 1 0 0 3623.dat
1 308 110 -472 -50 1 0 0 0 1 0 0 0 1 3024.dat
1 308 -90 -472 -70 1 0 0 0 1 0 0 0 1 3024.dat
1 308 0 -472 -80 1 0 0 0 1 0 0 0 1 3020.dat
1 308 90 -472 -70 1 0 0 0 1 0 0 0 1 3024.dat
1 308 -70 -472 -90 1 0 0 0 1 0 0 0 1 3024.dat
1 308 70 -472 -90 1 0 0 0 1 0 0 0 1 3024.dat
1 308 0 -472 -110 1 0 0 0 1 0 0 0 1 3023.dat
0 STEP
1 72 -80 -480 -70 1 0 0 0 1 0 0 0 1 3023.dat
1 72 80 -480 -70 1 0 0 0 1 0 0 0 1 3023.dat
1 72 0 -480 -90 1 0 0 0 1 0 0 0 1 3460.dat
1 72 0 -480 -110 1 0 0 0 1 0 0 0 1 3666.dat
1 72 -110 -480 -30 1 0 0 0 1 0 0 0 1 3070b.dat
1 72 110 -480 -30 1 0 0 0 1 0 0 0 1 3070b.dat
1 72 -90 -480 -90 1 0 0 0 1 0 0 0 1 3070b.dat
1 72 90 -480 -90 1 0 0 0 1 0 0 0 1 3070b.dat
1 212 -70 -480 -110 1 0 0 0 1 0 0 0 1 3024.dat
1 212 70 -480 -110 1 0 0 0 1 0 0 0 1 3024.dat
1 212 -40 -480 -130 1 0 0 0 1 0 0 0 1 3023.dat
1 212 40 -480 -130 1 0 0 0 1 0 0 0 1 3023.dat
1 308 0 -480 80 1 0 0 0 1 0 0 0 1 3795.dat
1 308 -70 -480 20 0 0 -1 0 1 0 1 0 0 3666.dat
1 308 70 -480 20 0 0 -1 0 1 0 1 0 0 3666.dat
1 308 -90 -480 -0 0 0 -1 0 1 0 1 0 0 3666.dat
1 308 0 -480 50 1 0 0 0 1 0 0 0 1 3666.dat
1 308 90 -480 -0 0 0 -1 0 1 0 1 0 0 3666.dat
1 308 -110 -480 10 0 0 -1 0 1 0 1 0 0 3623.dat
1 308 -40 -480 30 1 0 0 0 1 0 0 0 1 3023.dat
1 308 40 -480 30 1 0 0 0 1 0 0 0 1 3023.dat
1 308 110 -480 10 0 0 -1 0 1 0 1 0 0 3623.dat
1 308 -50 -480 10 1 0 0 0 1 0 0 0 1 3024.dat
1 308 50 -480 10 1 0 0 0 1 0 0 0 1 3024.dat
1 308 -60 -480 -50 1 0 0 0 1 0 0 0 1 3023.dat
1 308 60 -480 -50 1 0 0 0 1 0 0 0 1 3023.dat
1 308 0 -480 -70 1 0 0 0 1 0 0 0 1 3666.dat
0 STEP
1 72 -90 -488 -60 0 0 -1 0 1 0 1 0 0 3023.dat
1 72 90 -488 -60 0 0 -1 0 1 0 1 0 0 3023.dat
1 72 -70 -488 -80 0 0 -1 0 1 0 1 0 0 3023.dat
1 72 70 -488 -80 0 0 -1 0 1 0 1 0 0 3023.dat
1 72 0 -488 -100 1 0 0 0 1 0 0 0 1 3795.dat
1 72 -110 -488 -10 1 0 0 0 1 0 0 0 1 3070b.dat
1 72 110 -488 -10 1 0 0 0 1 0 0 0 1 3070b.dat
1 212 -70 -488 -110 1 0 0 0 1 0 0 0 1 3024.dat
1 212 70 -488 -110 1 0 0 0 1 0 0 0 1 3024.dat
1 212 -30 -488 -130 1 0 0 0 1 0 0 0 1 3024.dat
1 212 30 -488 -130 1 0 0 0 1 0 0 0 1 3024.dat
1 212 -50 -488 -130 1 0 0 0 1 0 0 0 1 3070b.dat
1 212 50 -488 -130 1 0 0 0 1 0 0 0 1 3070b.dat
1 308 0 -488 80 1 0 0 0 1 0 0 0 1 3020.dat
1 308 -60 -488 40 0 0 -1 0 1 0 1 0 0 3020.dat
1 308 60 -488 40 0 0 -1 0 1 0 1 0 0 3020.dat
1 308 -90 -488 20 0 0 -1 0 1 0 1 0 0 3710.dat
1 308 0 -488 50 1 0 0 0 1 0 0 0 1 3710.dat
1 308 90 -488 20 0 0 -1 0 1 0 1 0 0 3710.dat
1 308 -30 -488 30 1 0 0 0 1 0 0 0 1 3024.dat
1 308 30 -488 30 1 0 0 0 1 0 0 0 1 3024.dat
1 308 -110 -488 10 1 0 0 0 1 0 0 0 1 3024.dat
1 308 110 -488 10 1 0 0 0 1 0 0 0 1 3024.dat
1 308 -70 -488 -30 0 0 -1 0 1 0 1 0 0 3623.dat
1 308 70 -488 -30 0 0 -1 0 1 0 1 0 0 3623.dat
1 308 -90 -488 -30 1 0 0 0 1 0 0 0 1 3024.dat
1 308 -50 -488 -50 0 0 -1 0 1 0 1 0 0 3623.dat
1 308 50 -488 -50 0 0 -1 0 1 0 1 0 0 3623.dat
1 308 90 -488 -30 1 0 0 0 1 0 0 0 1 3024.dat
1 308 -30 -488 -60 0 0 -1 0 1 0 1 0 0 3023.dat
1 308 30 -488 -60 0 0 -1 0 1 0 1 0 0 3023.dat
1 308 0 -488 -70 1 0 0 0 1 0 0 0 1 3023.dat
0 STEP
1 72 -90 -496 -50 1 0 0 0 1 0 0 0 1 3024.dat
1 72 90 -496 -50 1 0 0 0 1 0 0 0 1 3024.dat
1 72 -60 -496 -70 1 0 0 0 1 0 0 0 1 3023.dat
1 72 60 -496 -70 1 0 0 0 1 0 0 0 1 3023.dat
1 72 0 -496 -90 1 0 0 0 1 0 0 0 1 3666.dat
1 72 0 -496 -110 1 0 0 0 1 0 0 0 1 3023.dat
1 72 -90 -496 -70 1 0 0 0 1 0 0 0 1 3070b.dat
1 72 90 -496 -70 1 0 0 0 1 0 0 0 1 3070b.dat
1 72 -70 -496 -90 1 0 0 0 1 0 0 0 1 3070b.dat
1 72 70 -496 -90 1 0 0 0 1 0 0 0 1 3070b.dat
1 72 -30 -496 -110 1 0 0 0 1 0 0 0 1 3070b.dat
1 72 30 -496 -110 1 0 0 0 1 0 0 0 1 3070b.dat
1 212 -60 -496 -110 1 0 0 0 1 0 0 0 1 3069b.dat
1 212 60 -496 -110 1 0 0 0 1 0 0 0 1 3069b.dat
1 212 -30 -496 -130 1 0 0 0 1 0 0 0 1 3070b.dat
1 212 30 -496 -130 1 0 0 0 1 0 0 0 1 3070b.dat
1 308 0 -496 60 0 0 -1 0 1 0 1 0 0 3020.dat
1 308 -40 -496 40 0 0 -1 0 1 0 1 0 0 3020.dat
1 308 40 -496 40 0 0 -1 0 1 0 1 0 0 3020.dat
1 308 -70 -496 -0 0 0 -1 0 1 0 1 0 0 3666.dat
1 308 70 -496 -0 0 0 -1 0 1 0 1 0 0 3666.dat
1 308 -90 -496 -0 0 0 -1 0 1 0 1 0 0 3710.dat
1 308 90 -496 -0 0 0 -1 0 1 0 1 0 0 3710.dat
1 308 -50 -496 -30 0 0 -1 0 1 0 1 0 0 3623.dat
1 308 50 -496 -30 0 0 -1 0 1 0 1 0 0 3623.dat
1 308 -30 -496 -50 0 0 -1 0 1 0 1 0 0 3623.dat
1 308 30 -496 -50 0 0 -1 0 1 0 1 0 0 3623.dat
1 308 0 -496 -60 1 0 0 0 1 0 0 0 1 3022.dat
0 STEP
1 72 -90 -504 -50 1 0 0 0 1 0 0 0 1 3070b.dat
1 72 90 -504 -50 1 0 0 0 1 0 0 0 1 3070b.dat
1 72 -70 -504 -70 1 0 0 0 1 0 0 0 1 3070b.dat
1 72 70 -504 -70 1 0 0 0 1 0 0 0 1 3070b.dat
1 72 -40 -504 -90 1 0 0 0 1 0 0 0 1 3069b.dat
1 72 40 -504 -90 1 0 0 0 1 0 0 0 1 3069b.dat
1 72 0 -504 -110 1 0 0 0 1 0 0 0 1 3069b.dat
1 308 -40 -504 -0 0 0 -1 0 1 0 1 0 0 3034.dat
1 308 20 -504 60 1 0 0 0 1 0 0 0 1 3020.dat
1 308 -70 -504 -0 0 0 -1 0 1 0 1 0 0 3666.dat
1 308 70 -504 -0 0 0 -1 0 1 0 1 0 0 3666.dat
1 308 -90 -504 -0 0 0 -1 0 1 0 1 0 0 3710.dat
1 308 20 -504 30 1 0 0 0 1 0 0 0 1 3710.dat
1 308 90 -504 -0 0 0 -1 0 1 0 1 0 0 3710.dat
1 308 40 -504 -20 0 0 -1 0 1 0 1 0 0 3020.dat
1 308 0 -504 -60 0 0 -1 0 1 0 1 0 0 3020.dat
1 308 40 -504 -70 1 0 0 0 1 0 0 0 1 3023.dat
0 STEP
1 308 -30 -512 -0 0 0 -1 0 1 0 1 0 0 3460.dat
1 308 10 -512 60 1 0 0 0 1 0 0 0 1 3021.dat
1 308 -50 -512 -0 0 0 -1 0 1 0 1 0 0 3666.dat
1 308 50 -512 -0 0 0 -1 0 1 0 1 0 0 3666.dat
1 308 -70 -512 -0 0 0 -1 0 1 0 1 0 0 3710.dat
1 308 10 -512 30 1 0 0 0 1 0 0 0 1 3623.dat
1 308 70 -512 -0 0 0 -1 0 1 0 1 0 0 3710.dat
1 308 -90 -512 -0 0 0 -1 0 1 0 1 0 0 3023.dat
1 308 30 -512 -20 0 0 -1 0 1 0 1 0 0 3710.dat
1 308 90 -512 -0 0 0 -1 0 1 0 1 0 0 3023.dat
1 308 0 -512 -40 0 0 -1 0 1 0 1 0 0 3020.dat
1 308 -70 -512 -50 1 0 0 0 1 0 0 0 1 3024.dat
1 308 70 -512 -50 1 0 0 0 1 0 0 0 1 3024.dat
1 308 -50 -512 -70 1 0 0 0 1 0 0 0 1 3024.dat
1 308 40 -512 -70 1 0 0 0 1 0 0 0 1 3023.dat
0 STEP
1 308 0 -520 -0 0 0 -1 0 1 0 1 0 0 3035.dat
1 308 -50 -520 -0 0 0 -1 0 1 0 1 0 0 3666.dat
1 308 50 -520 -0 0 0 -1 0 1 0 1 0 0 3666.dat
1 308 -70 -520 -0 0 0 -1 0 1 0 1 0 0 3710.dat
1 308 70 -520 -0 0 0 -1 0 1 0 1 0 0 3710.dat
0 STEP
1 308 0 -528 20 0 0 -1 0 1 0 1 0 0 3032.dat
1 308 -50 -528 20 0 0 -1 0 1 0 1 0 0 3710.dat
1 308 50 -528 20 0 0 -1 0 1 0 1 0 0 3710.dat
1 308 -70 -528 -10 1 0 0 0 1 0 0 0 1 3024.dat
1 308 70 -528 -10 1 0 0 0 1 0 0 0 1 3024.dat
1 308 -50 -528 -30 1 0 0 0 1 0 0 0 1 3024.dat
1 308 50 -528 -30 1 0 0 0 1 0 0 0 1 3024.dat
1 308 0 -528 -50 1 0 0 0 1 0 0 0 1 3710.dat
0 STEP
1 308 0 -536 20 0 0 -1 0 1 0 1 0 0 3032.dat
1 308 -50 -536 20 0 0 -1 0 1 0 1 0 0 3710.dat
1 308 50 -536 20 0 0 -1 0 1 0 1 0 0 3710.dat
1 308 0 -536 -50 1 0 0 0 1 0 0 0 1 3023.dat
0 STEP
1 308 0 -544 40 1 0 0 0 1 0 0 0 1 3031.dat
1 308 -50 -544 30 0 0 -1 0 1 0 1 0 0 3623.dat
1 308 50 -544 30 0 0 -1 0 1 0 1 0 0 3623.dat
1 308 0 -544 -10 1 0 0 0 1 0 0 0 1 3710.dat
1 308 0 -544 -30 1 0 0 0 1 0 0 0 1 3023.dat
0 STEP
1 308 0 -552 40 1 0 0 0 1 0 0 0 1 3031.dat
1 308 -50 -552 30 0 0 -1 0 1 0 1 0 0 3623.dat
1 308 50 -552 30 0 0 -1 0 1 0 1 0 0 3623.dat
1 308 0 -552 -10 1 0 0 0 1 0 0 0 1 3710.dat
0 STEP
1 308 0 -560 40 1 0 0 0 1 0 0 0 1 3031.dat
1 308 -50 -560 30 0 0 -1 0 1 0 1 0 0 3623.dat
1 308 50 -560 30 0 0 -1 0 1 0 1 0 0 3623.dat
1 308 0 -560 -10 1 0 0 0 1 0 0 0 1 3710.dat
0 STEP
1 308 0 -568 40 0 0 -1 0 1 0 1 0 0 3020.dat
1 308 -30 -568 30 0 0 -1 0 1 0 1 0 0 3623.dat
1 308 30 -568 30 0 0 -1 0 1 0 1 0 0 3623.dat
1 308 -50 -568 30 1 0 0 0 1 0 0 0 1 3024.dat
1 308 50 -568 30 1 0 0 0 1 0 0 0 1 3024.dat
1 308 0 -568 -10 1 0 0 0 1 0 0 0 1 3023.dat
0 STEP
1 308 0 -576 40 1 0 0 0 1 0 0 0 1 3020.dat
1 308 0 -576 10 1 0 0 0 1 0 0 0 1 3710.dat
0 STEP
1 308 0 -584 30 0 0 -1 0 1 0 1 0 0 3021.dat
0 STEP
