0 Professor Darwin
0 Name: darwin.ldr
0 Author: aitutors.me brick-built faculty
0 !LICENSE Model: see repository licence; part geometry LDraw.org CC BY 4.0
0 // units: LDU, -y up
0 // 1591 parts, one step per plate layer

1 72 -120 -8 80 1 0 0 0 1 0 0 0 1 3029.dat
1 72 120 -8 80 1 0 0 0 1 0 0 0 1 3029.dat
1 72 -120 -8 -0 1 0 0 0 1 0 0 0 1 3029.dat
1 72 120 -8 -0 1 0 0 0 1 0 0 0 1 3029.dat
1 72 -120 -8 -80 1 0 0 0 1 0 0 0 1 3029.dat
1 72 120 -8 -80 1 0 0 0 1 0 0 0 1 3029.dat
1 72 -120 -8 -140 1 0 0 0 1 0 0 0 1 2445.dat
1 72 120 -8 -140 1 0 0 0 1 0 0 0 1 2445.dat
0 STEP
1 72 -120 -16 80 1 0 0 0 1 0 0 0 1 3029.dat
1 72 120 -16 80 1 0 0 0 1 0 0 0 1 3029.dat
1 72 -120 -16 -0 1 0 0 0 1 0 0 0 1 3029.dat
1 72 120 -16 -0 1 0 0 0 1 0 0 0 1 3029.dat
1 72 -120 -16 -80 1 0 0 0 1 0 0 0 1 3029.dat
1 72 120 -16 -80 1 0 0 0 1 0 0 0 1 3029.dat
1 72 -120 -16 -140 1 0 0 0 1 0 0 0 1 2445.dat
1 72 120 -16 -140 1 0 0 0 1 0 0 0 1 2445.dat
0 STEP
1 72 0 -24 80 1 0 0 0 1 0 0 0 1 3832.dat
1 72 -160 -24 -0 0 0 -1 0 1 0 1 0 0 3034.dat
1 72 -120 -24 60 1 0 0 0 1 0 0 0 1 3022.dat
1 72 140 -24 60 1 0 0 0 1 0 0 0 1 3020.dat
1 72 -80 -24 50 1 0 0 0 1 0 0 0 1 3023.dat
1 72 80 -24 50 1 0 0 0 1 0 0 0 1 3023.dat
1 72 160 -24 -20 0 0 -1 0 1 0 1 0 0 3795.dat
1 72 -100 -24 -60 1 0 0 0 1 0 0 0 1 3020.dat
1 72 100 -24 -60 1 0 0 0 1 0 0 0 1 3020.dat
1 72 0 -24 -80 1 0 0 0 1 0 0 0 1 3795.dat
1 72 -80 -24 -90 1 0 0 0 1 0 0 0 1 3023.dat
1 72 80 -24 -90 1 0 0 0 1 0 0 0 1 3023.dat
1 72 -160 -24 110 1 0 0 0 1 0 0 0 1 4162.dat
1 72 0 -24 110 1 0 0 0 1 0 0 0 1 4162.dat
1 72 160 -24 110 1 0 0 0 1 0 0 0 1 4162.dat
1 72 -230 -24 20 0 0 -1 0 1 0 1 0 0 4162.dat
1 72 -210 -24 20 0 0 -1 0 1 0 1 0 0 4162.dat
1 72 -190 -24 20 0 0 -1 0 1 0 1 0 0 4162.dat
1 72 -140 -24 90 1 0 0 0 1 0 0 0 1 2431.dat
1 72 160 -24 90 1 0 0 0 1 0 0 0 1 6636.dat
1 72 230 -24 20 0 0 -1 0 1 0 1 0 0 4162.dat
1 72 190 -24 -0 0 0 -1 0 1 0 1 0 0 4162.dat
1 72 210 -24 -0 0 0 -1 0 1 0 1 0 0 4162.dat
1 72 -230 -24 -100 0 0 -1 0 1 0 1 0 0 2431.dat
1 72 -210 -24 -100 0 0 -1 0 1 0 1 0 0 2431.dat
1 72 -190 -24 -100 0 0 -1 0 1 0 1 0 0 2431.dat
1 72 230 -24 -100 0 0 -1 0 1 0 1 0 0 2431.dat
1 72 -140 -24 -90 1 0 0 0 1 0 0 0 1 2431.dat
1 72 160 -24 -90 1 0 0 0 1 0 0 0 1 6636.dat
1 72 -100 -24 -110 1 0 0 0 1 0 0 0 1 4162.dat
1 72 60 -24 -110 1 0 0 0 1 0 0 0 1 4162.dat
1 72 180 -24 -110 1 0 0 0 1 0 0 0 1 2431.dat
1 72 -100 -24 -130 1 0 0 0 1 0 0 0 1 4162.dat
1 72 60 -24 -130 1 0 0 0 1 0 0 0 1 4162.dat
1 72 180 -24 -130 1 0 0 0 1 0 0 0 1 2431.dat
1 72 -160 -24 -150 1 0 0 0 1 0 0 0 1 4162.dat
1 72 0 -24 -150 1 0 0 0 1 0 0 0 1 4162.dat
1 72 160 -24 -150 1 0 0 0 1 0 0 0 1 4162.dat
0 STEP
1 330 0 -32 80 1 0 0 0 1 0 0 0 1 3832.dat
1 330 -160 -32 -0 0 0 -1 0 1 0 1 0 0 3034.dat
1 330 -120 -32 60 1 0 0 0 1 0 0 0 1 3022.dat
1 330 140 -32 60 1 0 0 0 1 0 0 0 1 3020.dat
1 330 -80 -32 50 1 0 0 0 1 0 0 0 1 3023.dat
1 330 80 -32 50 1 0 0 0 1 0 0 0 1 3023.dat
1 330 160 -32 -20 0 0 -1 0 1 0 1 0 0 3795.dat
1 330 -100 -32 -60 1 0 0 0 1 0 0 0 1 3020.dat
1 330 100 -32 -60 1 0 0 0 1 0 0 0 1 3020.dat
1 330 0 -32 -80 1 0 0 0 1 0 0 0 1 3795.dat
1 330 -80 -32 -90 1 0 0 0 1 0 0 0 1 3023.dat
1 330 80 -32 -90 1 0 0 0 1 0 0 0 1 3023.dat
0 STEP
1 330 0 -40 80 1 0 0 0 1 0 0 0 1 3832.dat
1 330 -160 -40 -0 0 0 -1 0 1 0 1 0 0 3034.dat
1 330 -120 -40 60 1 0 0 0 1 0 0 0 1 3022.dat
1 330 140 -40 60 1 0 0 0 1 0 0 0 1 3020.dat
1 330 -80 -40 50 1 0 0 0 1 0 0 0 1 3023.dat
1 330 80 -40 50 1 0 0 0 1 0 0 0 1 3023.dat
1 330 160 -40 -20 0 0 -1 0 1 0 1 0 0 3795.dat
1 330 -190 -40 -20 0 0 -1 0 1 0 1 0 0 3023.dat
1 330 190 -40 -20 0 0 -1 0 1 0 1 0 0 3023.dat
1 330 -100 -40 -60 1 0 0 0 1 0 0 0 1 3020.dat
1 330 100 -40 -60 1 0 0 0 1 0 0 0 1 3020.dat
1 330 0 -40 -80 1 0 0 0 1 0 0 0 1 3795.dat
1 330 -80 -40 -90 1 0 0 0 1 0 0 0 1 3023.dat
1 330 80 -40 -90 1 0 0 0 1 0 0 0 1 3023.dat
0 STEP
1 330 0 -48 80 1 0 0 0 1 0 0 0 1 3832.dat
1 330 -160 -48 -0 0 0 -1 0 1 0 1 0 0 3034.dat
1 330 -120 -48 60 1 0 0 0 1 0 0 0 1 3022.dat
1 330 140 -48 60 1 0 0 0 1 0 0 0 1 3020.dat
1 330 -80 -48 50 1 0 0 0 1 0 0 0 1 3023.dat
1 330 80 -48 50 1 0 0 0 1 0 0 0 1 3023.dat
1 330 160 -48 -20 0 0 -1 0 1 0 1 0 0 3795.dat
1 330 -190 -48 -20 0 0 -1 0 1 0 1 0 0 3023.dat
1 330 190 -48 -20 0 0 -1 0 1 0 1 0 0 3023.dat
1 330 -100 -48 -60 1 0 0 0 1 0 0 0 1 3020.dat
1 330 100 -48 -60 1 0 0 0 1 0 0 0 1 3020.dat
1 330 0 -48 -80 1 0 0 0 1 0 0 0 1 3795.dat
1 330 -80 -48 -90 1 0 0 0 1 0 0 0 1 3023.dat
1 330 80 -48 -90 1 0 0 0 1 0 0 0 1 3023.dat
0 STEP
1 330 0 -56 80 1 0 0 0 1 0 0 0 1 3832.dat
1 330 -160 -56 -0 0 0 -1 0 1 0 1 0 0 3034.dat
1 330 -120 -56 60 1 0 0 0 1 0 0 0 1 3022.dat
1 330 140 -56 60 1 0 0 0 1 0 0 0 1 3020.dat
1 330 -80 -56 50 1 0 0 0 1 0 0 0 1 3023.dat
1 330 80 -56 50 1 0 0 0 1 0 0 0 1 3023.dat
1 330 160 -56 -20 0 0 -1 0 1 0 1 0 0 3795.dat
1 330 -190 -56 -20 0 0 -1 0 1 0 1 0 0 3710.dat
1 330 190 -56 -20 0 0 -1 0 1 0 1 0 0 3710.dat
1 330 -210 -56 -10 1 0 0 0 1 0 0 0 1 3024.dat
1 330 210 -56 -10 1 0 0 0 1 0 0 0 1 3024.dat
1 330 -100 -56 -60 1 0 0 0 1 0 0 0 1 3020.dat
1 330 100 -56 -60 1 0 0 0 1 0 0 0 1 3020.dat
1 330 0 -56 -80 1 0 0 0 1 0 0 0 1 3795.dat
1 330 -80 -56 -90 1 0 0 0 1 0 0 0 1 3023.dat
1 330 80 -56 -90 1 0 0 0 1 0 0 0 1 3023.dat
0 STEP
1 330 0 -64 80 1 0 0 0 1 0 0 0 1 3832.dat
1 330 -160 -64 -0 0 0 -1 0 1 0 1 0 0 3034.dat
1 330 -120 -64 60 1 0 0 0 1 0 0 0 1 3022.dat
1 330 140 -64 60 1 0 0 0 1 0 0 0 1 3020.dat
1 330 -80 -64 50 1 0 0 0 1 0 0 0 1 3023.dat
1 330 80 -64 50 1 0 0 0 1 0 0 0 1 3023.dat
1 330 160 -64 -20 0 0 -1 0 1 0 1 0 0 3795.dat
1 330 -190 -64 -20 0 0 -1 0 1 0 1 0 0 3710.dat
1 330 190 -64 -20 0 0 -1 0 1 0 1 0 0 3710.dat
1 330 -210 -64 -20 0 0 -1 0 1 0 1 0 0 3023.dat
1 330 210 -64 -20 0 0 -1 0 1 0 1 0 0 3023.dat
1 330 -100 -64 -60 1 0 0 0 1 0 0 0 1 3020.dat
1 330 100 -64 -60 1 0 0 0 1 0 0 0 1 3020.dat
1 330 0 -64 -80 1 0 0 0 1 0 0 0 1 3795.dat
1 330 -100 -64 -90 1 0 0 0 1 0 0 0 1 3710.dat
1 330 100 -64 -90 1 0 0 0 1 0 0 0 1 3710.dat
1 330 150 -64 -90 1 0 0 0 1 0 0 0 1 3024.dat
0 STEP
1 330 0 -72 80 1 0 0 0 1 0 0 0 1 3832.dat
1 330 -160 -72 -0 0 0 -1 0 1 0 1 0 0 3034.dat
1 330 -120 -72 60 1 0 0 0 1 0 0 0 1 3022.dat
1 330 140 -72 60 1 0 0 0 1 0 0 0 1 3020.dat
1 330 -80 -72 50 1 0 0 0 1 0 0 0 1 3023.dat
1 330 80 -72 50 1 0 0 0 1 0 0 0 1 3023.dat
1 330 160 -72 -20 0 0 -1 0 1 0 1 0 0 3795.dat
1 330 -190 -72 -20 0 0 -1 0 1 0 1 0 0 3710.dat
1 330 190 -72 -20 0 0 -1 0 1 0 1 0 0 3710.dat
1 330 -210 -72 -20 0 0 -1 0 1 0 1 0 0 3023.dat
1 330 210 -72 -20 0 0 -1 0 1 0 1 0 0 3023.dat
1 330 -100 -72 -60 1 0 0 0 1 0 0 0 1 3020.dat
1 330 100 -72 -60 1 0 0 0 1 0 0 0 1 3020.dat
1 330 0 -72 -80 1 0 0 0 1 0 0 0 1 3795.dat
1 330 -120 -72 -90 1 0 0 0 1 0 0 0 1 3710.dat
1 330 -70 -72 -90 1 0 0 0 1 0 0 0 1 3024.dat
1 330 100 -72 -90 1 0 0 0 1 0 0 0 1 3710.dat
1 330 150 -72 -90 1 0 0 0 1 0 0 0 1 3024.dat
1 330 -100 -72 -110 1 0 0 0 1 0 0 0 1 3023.dat
1 330 110 -72 -110 1 0 0 0 1 0 0 0 1 3623.dat
0 STEP
1 330 0 -80 80 1 0 0 0 1 0 0 0 1 3832.dat
1 330 -160 -80 -0 0 0 -1 0 1 0 1 0 0 3034.dat
1 330 -120 -80 60 1 0 0 0 1 0 0 0 1 3022.dat
1 330 140 -80 60 1 0 0 0 1 0 0 0 1 3020.dat
1 330 -80 -80 50 1 0 0 0 1 0 0 0 1 3023.dat
1 330 80 -80 50 1 0 0 0 1 0 0 0 1 3023.dat
1 330 160 -80 -20 0 0 -1 0 1 0 1 0 0 3795.dat
1 330 -190 -80 -20 0 0 -1 0 1 0 1 0 0 3710.dat
1 330 190 -80 -20 0 0 -1 0 1 0 1 0 0 3710.dat
1 330 -210 -80 -20 0 0 -1 0 1 0 1 0 0 3023.dat
1 330 210 -80 -20 0 0 -1 0 1 0 1 0 0 3023.dat
1 330 -120 -80 -80 0 0 -1 0 1 0 1 0 0 3020.dat
1 330 130 -80 -80 0 0 -1 0 1 0 1 0 0 3710.dat
1 330 0 -80 -80 1 0 0 0 1 0 0 0 1 3832.dat
1 330 110 -80 -100 0 0 -1 0 1 0 1 0 0 3710.dat
1 330 -150 -80 -90 1 0 0 0 1 0 0 0 1 3024.dat
1 330 150 -80 -90 1 0 0 0 1 0 0 0 1 3024.dat
1 330 -80 -80 -120 1 0 0 0 1 0 0 0 1 3022.dat
1 330 80 -80 -120 1 0 0 0 1 0 0 0 1 3022.dat
0 STEP
1 330 0 -88 80 1 0 0 0 1 0 0 0 1 3832.dat
1 330 -160 -88 -0 0 0 -1 0 1 0 1 0 0 3034.dat
1 330 -120 -88 60 1 0 0 0 1 0 0 0 1 3022.dat
1 330 140 -88 60 1 0 0 0 1 0 0 0 1 3020.dat
1 330 -80 -88 50 1 0 0 0 1 0 0 0 1 3023.dat
1 330 80 -88 50 1 0 0 0 1 0 0 0 1 3023.dat
1 330 160 -88 -20 0 0 -1 0 1 0 1 0 0 3795.dat
1 330 -190 -88 -20 0 0 -1 0 1 0 1 0 0 3710.dat
1 330 190 -88 -20 0 0 -1 0 1 0 1 0 0 3710.dat
1 330 -210 -88 -20 0 0 -1 0 1 0 1 0 0 3023.dat
1 330 210 -88 -20 0 0 -1 0 1 0 1 0 0 3023.dat
1 330 -130 -88 -80 0 0 -1 0 1 0 1 0 0 3710.dat
1 330 130 -88 -80 0 0 -1 0 1 0 1 0 0 3710.dat
1 330 0 -88 -80 1 0 0 0 1 0 0 0 1 2445.dat
1 330 -150 -88 -90 1 0 0 0 1 0 0 0 1 3024.dat
1 330 150 -88 -90 1 0 0 0 1 0 0 0 1 3024.dat
1 330 -90 -88 -120 1 0 0 0 1 0 0 0 1 3021.dat
1 330 90 -88 -120 1 0 0 0 1 0 0 0 1 3021.dat
1 330 -50 -88 -130 1 0 0 0 1 0 0 0 1 3024.dat
1 330 90 -88 -150 1 0 0 0 1 0 0 0 1 3024.dat
0 STEP
1 78 90 -96 -130 1 0 0 0 1 0 0 0 1 3024.dat
1 330 0 -96 80 1 0 0 0 1 0 0 0 1 3832.dat
1 330 -160 -96 -0 0 0 -1 0 1 0 1 0 0 3034.dat
1 330 -120 -96 60 1 0 0 0 1 0 0 0 1 3022.dat
1 330 140 -96 60 1 0 0 0 1 0 0 0 1 3020.dat
1 330 -80 -96 50 1 0 0 0 1 0 0 0 1 3023.dat
1 330 80 -96 50 1 0 0 0 1 0 0 0 1 3023.dat
1 330 160 -96 -20 0 0 -1 0 1 0 1 0 0 3795.dat
1 330 -200 -96 -10 0 0 -1 0 1 0 1 0 0 3021.dat
1 330 200 -96 -10 0 0 -1 0 1 0 1 0 0 3021.dat
1 330 -190 -96 -50 1 0 0 0 1 0 0 0 1 3024.dat
1 330 -130 -96 -80 0 0 -1 0 1 0 1 0 0 3710.dat
1 330 130 -96 -80 0 0 -1 0 1 0 1 0 0 3710.dat
1 330 190 -96 -50 1 0 0 0 1 0 0 0 1 3024.dat
1 330 0 -96 -80 1 0 0 0 1 0 0 0 1 2445.dat
1 330 -150 -96 -90 1 0 0 0 1 0 0 0 1 3024.dat
1 330 150 -96 -90 1 0 0 0 1 0 0 0 1 3024.dat
1 330 -80 -96 -120 1 0 0 0 1 0 0 0 1 3020.dat
1 330 90 -96 -110 1 0 0 0 1 0 0 0 1 3623.dat
1 330 60 -96 -130 1 0 0 0 1 0 0 0 1 3023.dat
1 330 110 -96 -130 1 0 0 0 1 0 0 0 1 3024.dat
1 330 -70 -96 -150 1 0 0 0 1 0 0 0 1 3024.dat
1 330 80 -96 -150 1 0 0 0 1 0 0 0 1 3023.dat
0 STEP
1 19 0 -104 -80 1 0 0 0 1 0 0 0 1 3022.dat
1 78 -80 -104 -130 1 0 0 0 1 0 0 0 1 3023.dat
1 78 100 -104 -140 1 0 0 0 1 0 0 0 1 3022.dat
1 78 -90 -104 -150 1 0 0 0 1 0 0 0 1 3024.dat
1 330 0 -104 80 1 0 0 0 1 0 0 0 1 3832.dat
1 330 -160 -104 -0 0 0 -1 0 1 0 1 0 0 3034.dat
1 330 -120 -104 60 1 0 0 0 1 0 0 0 1 3022.dat
1 330 140 -104 60 1 0 0 0 1 0 0 0 1 3020.dat
1 330 -80 -104 50 1 0 0 0 1 0 0 0 1 3023.dat
1 330 80 -104 50 1 0 0 0 1 0 0 0 1 3023.dat
1 330 160 -104 -20 0 0 -1 0 1 0 1 0 0 3795.dat
1 330 -200 -104 -10 0 0 -1 0 1 0 1 0 0 3021.dat
1 330 200 -104 -10 0 0 -1 0 1 0 1 0 0 3021.dat
1 330 -190 -104 -50 1 0 0 0 1 0 0 0 1 3024.dat
1 330 -120 -104 -80 0 0 -1 0 1 0 1 0 0 3020.dat
1 330 120 -104 -80 0 0 -1 0 1 0 1 0 0 3020.dat
1 330 190 -104 -50 1 0 0 0 1 0 0 0 1 3024.dat
1 330 -60 -104 -80 1 0 0 0 1 0 0 0 1 3020.dat
1 330 60 -104 -80 1 0 0 0 1 0 0 0 1 3020.dat
1 330 -150 -104 -90 1 0 0 0 1 0 0 0 1 3024.dat
1 330 150 -104 -90 1 0 0 0 1 0 0 0 1 3024.dat
1 330 -70 -104 -110 1 0 0 0 1 0 0 0 1 3623.dat
1 330 60 -104 -120 1 0 0 0 1 0 0 0 1 3022.dat
1 330 90 -104 -110 1 0 0 0 1 0 0 0 1 3024.dat
1 330 -110 -104 -130 1 0 0 0 1 0 0 0 1 3024.dat
1 330 -50 -104 -140 0 0 -1 0 1 0 1 0 0 3023.dat
1 330 -70 -104 -150 1 0 0 0 1 0 0 0 1 3024.dat
1 330 70 -104 -150 1 0 0 0 1 0 0 0 1 3024.dat
0 STEP
1 19 0 -112 -80 1 0 0 0 1 0 0 0 1 3022.dat
1 78 -90 -112 -130 0 0 -1 0 1 0 1 0 0 3623.dat
1 78 90 -112 -130 0 0 -1 0 1 0 1 0 0 3623.dat
1 78 -110 -112 -130 1 0 0 0 1 0 0 0 1 3024.dat
1 78 -70 -112 -140 0 0 -1 0 1 0 1 0 0 3023.dat
1 78 70 -112 -130 1 0 0 0 1 0 0 0 1 3024.dat
1 78 110 -112 -140 0 0 -1 0 1 0 1 0 0 3023.dat
1 330 0 -112 80 1 0 0 0 1 0 0 0 1 3832.dat
1 330 -160 -112 -0 0 0 -1 0 1 0 1 0 0 3034.dat
1 330 -120 -112 60 1 0 0 0 1 0 0 0 1 3022.dat
1 330 140 -112 60 1 0 0 0 1 0 0 0 1 3020.dat
1 330 -80 -112 50 1 0 0 0 1 0 0 0 1 3023.dat
1 330 80 -112 50 1 0 0 0 1 0 0 0 1 3023.dat
1 330 160 -112 -20 0 0 -1 0 1 0 1 0 0 3795.dat
1 330 -200 -112 -10 0 0 -1 0 1 0 1 0 0 3021.dat
1 330 200 -112 -10 0 0 -1 0 1 0 1 0 0 3021.dat
1 330 -190 -112 -50 1 0 0 0 1 0 0 0 1 3024.dat
1 330 -120 -112 -80 0 0 -1 0 1 0 1 0 0 3020.dat
1 330 120 -112 -80 0 0 -1 0 1 0 1 0 0 3020.dat
1 330 190 -112 -50 1 0 0 0 1 0 0 0 1 3024.dat
1 330 -60 -112 -80 1 0 0 0 1 0 0 0 1 3020.dat
1 330 60 -112 -80 1 0 0 0 1 0 0 0 1 3020.dat
1 330 -60 -112 -110 1 0 0 0 1 0 0 0 1 3023.dat
1 330 60 -112 -110 1 0 0 0 1 0 0 0 1 3023.dat
1 330 -50 -112 -140 0 0 -1 0 1 0 1 0 0 3023.dat
1 330 50 -112 -130 1 0 0 0 1 0 0 0 1 3024.dat
1 330 70 -112 -150 1 0 0 0 1 0 0 0 1 3024.dat
1 330 -150 -112 -90 1 0 0 0 1 0 0 0 1 3070b.dat
1 330 150 -112 -90 1 0 0 0 1 0 0 0 1 3070b.dat
0 STEP
1 19 0 -120 -80 1 0 0 0 1 0 0 0 1 3022.dat
1 78 -90 -120 -130 0 0 -1 0 1 0 1 0 0 3623.dat
1 78 100 -120 -130 0 0 -1 0 1 0 1 0 0 3021.dat
1 78 -110 -120 -140 0 0 -1 0 1 0 1 0 0 3023.dat
1 78 -70 -120 -140 0 0 -1 0 1 0 1 0 0 3023.dat
1 78 70 -120 -140 0 0 -1 0 1 0 1 0 0 3023.dat
1 288 110 -120 -50 1 0 0 0 1 0 0 0 1 3024.dat
1 330 0 -120 80 1 0 0 0 1 0 0 0 1 3832.dat
1 330 -160 -120 -0 0 0 -1 0 1 0 1 0 0 3034.dat
1 330 -120 -120 60 1 0 0 0 1 0 0 0 1 3022.dat
1 330 140 -120 60 1 0 0 0 1 0 0 0 1 3020.dat
1 330 -80 -120 50 1 0 0 0 1 0 0 0 1 3023.dat
1 330 80 -120 50 1 0 0 0 1 0 0 0 1 3023.dat
1 330 -190 -120 -0 0 0 -1 0 1 0 1 0 0 3710.dat
1 330 160 -120 -20 0 0 -1 0 1 0 1 0 0 3795.dat
1 330 190 -120 -0 0 0 -1 0 1 0 1 0 0 3710.dat
1 330 -210 -120 -10 0 0 -1 0 1 0 1 0 0 3623.dat
1 330 210 -120 -10 0 0 -1 0 1 0 1 0 0 3623.dat
1 330 -110 -120 -60 1 0 0 0 1 0 0 0 1 3021.dat
1 330 90 -120 -70 0 0 -1 0 1 0 1 0 0 3623.dat
1 330 130 -120 -80 0 0 -1 0 1 0 1 0 0 3710.dat
1 330 -50 -120 -80 1 0 0 0 1 0 0 0 1 3021.dat
1 330 50 -120 -80 1 0 0 0 1 0 0 0 1 3021.dat
1 330 110 -120 -80 0 0 -1 0 1 0 1 0 0 3023.dat
1 330 -110 -120 -90 1 0 0 0 1 0 0 0 1 3623.dat
1 330 -110 -120 -110 1 0 0 0 1 0 0 0 1 3024.dat
1 330 -60 -120 -110 1 0 0 0 1 0 0 0 1 3023.dat
1 330 60 -120 -110 1 0 0 0 1 0 0 0 1 3023.dat
1 330 -50 -120 -140 0 0 -1 0 1 0 1 0 0 3023.dat
1 330 50 -120 -130 1 0 0 0 1 0 0 0 1 3024.dat
1 330 -190 -120 -50 1 0 0 0 1 0 0 0 1 3070b.dat
1 330 190 -120 -50 1 0 0 0 1 0 0 0 1 3070b.dat
1 330 -130 -120 -110 1 0 0 0 1 0 0 0 1 3070b.dat
0 STEP
1 19 0 -128 -80 1 0 0 0 1 0 0 0 1 3022.dat
1 78 -90 -128 -130 0 0 -1 0 1 0 1 0 0 3623.dat
1 78 90 -128 -130 0 0 -1 0 1 0 1 0 0 3623.dat
1 78 -110 -128 -130 1 0 0 0 1 0 0 0 1 3024.dat
1 78 -70 -128 -140 0 0 -1 0 1 0 1 0 0 3023.dat
1 78 70 -128 -130 1 0 0 0 1 0 0 0 1 3024.dat
1 78 110 -128 -130 1 0 0 0 1 0 0 0 1 3024.dat
1 78 -110 -128 -150 1 0 0 0 1 0 0 0 1 3070b.dat
1 288 -130 -128 -50 1 0 0 0 1 0 0 0 1 3623.dat
1 288 130 -128 -50 1 0 0 0 1 0 0 0 1 3623.dat
1 288 -150 -128 -70 1 0 0 0 1 0 0 0 1 3024.dat
1 288 150 -128 -70 1 0 0 0 1 0 0 0 1 3024.dat
1 308 110 -128 -150 1 0 0 0 1 0 0 0 1 3024.dat
1 330 0 -128 80 1 0 0 0 1 0 0 0 1 3832.dat
1 330 -160 -128 20 0 0 -1 0 1 0 1 0 0 3795.dat
1 330 -120 -128 60 1 0 0 0 1 0 0 0 1 3022.dat
1 330 140 -128 60 1 0 0 0 1 0 0 0 1 3020.dat
1 330 -80 -128 50 1 0 0 0 1 0 0 0 1 3023.dat
1 330 80 -128 50 1 0 0 0 1 0 0 0 1 3023.dat
1 330 -190 -128 -0 0 0 -1 0 1 0 1 0 0 3710.dat
1 330 160 -128 -0 0 0 -1 0 1 0 1 0 0 3020.dat
1 330 190 -128 -0 0 0 -1 0 1 0 1 0 0 3710.dat
1 330 -210 -128 -10 0 0 -1 0 1 0 1 0 0 3623.dat
1 330 210 -128 -10 0 0 -1 0 1 0 1 0 0 3623.dat
1 330 -170 -128 -60 0 0 -1 0 1 0 1 0 0 3023.dat
1 330 -80 -128 -70 0 0 -1 0 1 0 1 0 0 3021.dat
1 330 80 -128 -70 0 0 -1 0 1 0 1 0 0 3021.dat
1 330 170 -128 -60 0 0 -1 0 1 0 1 0 0 3023.dat
1 330 -120 -128 -70 1 0 0 0 1 0 0 0 1 3023.dat
1 330 -50 -128 -100 0 0 -1 0 1 0 1 0 0 3710.dat
1 330 -30 -128 -80 0 0 -1 0 1 0 1 0 0 3023.dat
1 330 40 -128 -80 1 0 0 0 1 0 0 0 1 3022.dat
1 330 110 -128 -90 0 0 -1 0 1 0 1 0 0 3623.dat
1 330 130 -128 -70 1 0 0 0 1 0 0 0 1 3024.dat
1 330 -110 -128 -100 0 0 -1 0 1 0 1 0 0 3023.dat
1 330 -70 -128 -110 1 0 0 0 1 0 0 0 1 3024.dat
1 330 70 -128 -110 1 0 0 0 1 0 0 0 1 3024.dat
1 330 70 -128 -150 1 0 0 0 1 0 0 0 1 3024.dat
1 330 -130 -128 -90 1 0 0 0 1 0 0 0 1 3070b.dat
1 330 130 -128 -100 0 0 -1 0 1 0 1 0 0 3069b.dat
1 330 50 -128 -120 0 0 -1 0 1 0 1 0 0 3069b.dat
1 330 -50 -128 -150 1 0 0 0 1 0 0 0 1 3070b.dat
0 STEP
1 19 0 -136 -80 1 0 0 0 1 0 0 0 1 3022.dat
1 78 -90 -136 -120 0 0 -1 0 1 0 1 0 0 3023.dat
1 78 -70 -136 -140 0 0 -1 0 1 0 1 0 0 3023.dat
1 78 90 -136 -130 1 0 0 0 1 0 0 0 1 3024.dat
1 78 -110 -136 -130 1 0 0 0 1 0 0 0 1 3070b.dat
1 78 110 -136 -130 1 0 0 0 1 0 0 0 1 3070b.dat
1 78 90 -136 -150 1 0 0 0 1 0 0 0 1 3070b.dat
1 288 -130 -136 -60 1 0 0 0 1 0 0 0 1 3021.dat
1 288 130 -136 -60 1 0 0 0 1 0 0 0 1 3021.dat
1 308 -90 -136 -150 1 0 0 0 1 0 0 0 1 3024.dat
1 308 110 -136 -150 1 0 0 0 1 0 0 0 1 3024.dat
1 330 0 -136 80 1 0 0 0 1 0 0 0 1 3832.dat
1 330 -160 -136 20 0 0 -1 0 1 0 1 0 0 3795.dat
1 330 -120 -136 60 1 0 0 0 1 0 0 0 1 3022.dat
1 330 140 -136 60 1 0 0 0 1 0 0 0 1 3020.dat
1 330 -80 -136 50 1 0 0 0 1 0 0 0 1 3023.dat
1 330 80 -136 50 1 0 0 0 1 0 0 0 1 3023.dat
1 330 -190 -136 -0 0 0 -1 0 1 0 1 0 0 3710.dat
1 330 -130 -136 30 1 0 0 0 1 0 0 0 1 3024.dat
1 330 160 -136 30 1 0 0 0 1 0 0 0 1 3710.dat
1 330 -210 -136 -10 0 0 -1 0 1 0 1 0 0 3623.dat
1 330 180 -136 -0 1 0 0 0 1 0 0 0 1 3020.dat
1 330 -130 -136 -30 1 0 0 0 1 0 0 0 1 3024.dat
1 330 160 -136 -30 1 0 0 0 1 0 0 0 1 3710.dat
1 330 210 -136 -30 1 0 0 0 1 0 0 0 1 3024.dat
1 330 -170 -136 -60 0 0 -1 0 1 0 1 0 0 3023.dat
1 330 -80 -136 -70 0 0 -1 0 1 0 1 0 0 3021.dat
1 330 80 -136 -80 0 0 -1 0 1 0 1 0 0 3020.dat
1 330 170 -136 -60 0 0 -1 0 1 0 1 0 0 3023.dat
1 330 -50 -136 -100 0 0 -1 0 1 0 1 0 0 3710.dat
1 330 -30 -136 -80 0 0 -1 0 1 0 1 0 0 3023.dat
1 330 40 -136 -80 1 0 0 0 1 0 0 0 1 3022.dat
1 330 -70 -136 -110 1 0 0 0 1 0 0 0 1 3024.dat
1 330 70 -136 -130 1 0 0 0 1 0 0 0 1 3024.dat
1 330 -110 -136 -100 0 0 -1 0 1 0 1 0 0 3069b.dat
1 330 110 -136 -100 0 0 -1 0 1 0 1 0 0 3069b.dat
1 330 70 -136 -150 1 0 0 0 1 0 0 0 1 3070b.dat
0 STEP
1 19 0 -144 -80 1 0 0 0 1 0 0 0 1 3022.dat
1 78 -70 -144 -130 1 0 0 0 1 0 0 0 1 3024.dat
1 78 -90 -144 -130 1 0 0 0 1 0 0 0 1 3070b.dat
1 78 90 -144 -130 1 0 0 0 1 0 0 0 1 3070b.dat
1 288 -130 -144 -60 1 0 0 0 1 0 0 0 1 3021.dat
1 288 130 -144 -60 1 0 0 0 1 0 0 0 1 3021.dat
1 308 -90 -144 -150 1 0 0 0 1 0 0 0 1 3024.dat
1 308 110 -144 -150 1 0 0 0 1 0 0 0 1 3024.dat
1 330 0 -144 80 1 0 0 0 1 0 0 0 1 3832.dat
1 330 -150 -144 20 0 0 -1 0 1 0 1 0 0 3666.dat
1 330 -120 -144 60 1 0 0 0 1 0 0 0 1 3022.dat
1 330 130 -144 60 1 0 0 0 1 0 0 0 1 3021.dat
1 330 -170 -144 -0 0 0 -1 0 1 0 1 0 0 3666.dat
1 330 -70 -144 50 1 0 0 0 1 0 0 0 1 3623.dat
1 330 70 -144 50 1 0 0 0 1 0 0 0 1 3623.dat
1 330 170 -144 -0 0 0 -1 0 1 0 1 0 0 3666.dat
1 330 -190 -144 -0 0 0 -1 0 1 0 1 0 0 3710.dat
1 330 -130 -144 30 1 0 0 0 1 0 0 0 1 3024.dat
1 330 140 -144 30 1 0 0 0 1 0 0 0 1 3023.dat
1 330 190 -144 -0 0 0 -1 0 1 0 1 0 0 3710.dat
1 330 -210 -144 -10 0 0 -1 0 1 0 1 0 0 3623.dat
1 330 150 -144 -10 0 0 -1 0 1 0 1 0 0 3623.dat
1 330 210 -144 -10 0 0 -1 0 1 0 1 0 0 3623.dat
1 330 -130 -144 -30 1 0 0 0 1 0 0 0 1 3024.dat
1 330 130 -144 -30 1 0 0 0 1 0 0 0 1 3024.dat
1 330 -70 -144 -60 1 0 0 0 1 0 0 0 1 3021.dat
1 330 70 -144 -60 1 0 0 0 1 0 0 0 1 3021.dat
1 330 -30 -144 -80 0 0 -1 0 1 0 1 0 0 3023.dat
1 330 30 -144 -80 0 0 -1 0 1 0 1 0 0 3023.dat
1 330 -70 -144 -90 1 0 0 0 1 0 0 0 1 3623.dat
1 330 70 -144 -90 1 0 0 0 1 0 0 0 1 3623.dat
1 330 -70 -144 -110 1 0 0 0 1 0 0 0 1 3024.dat
1 330 -170 -144 70 1 0 0 0 1 0 0 0 1 3070b.dat
1 330 170 -144 70 1 0 0 0 1 0 0 0 1 3070b.dat
1 330 -170 -144 -70 1 0 0 0 1 0 0 0 1 3070b.dat
1 330 170 -144 -70 1 0 0 0 1 0 0 0 1 3070b.dat
1 330 -90 -144 -110 1 0 0 0 1 0 0 0 1 3070b.dat
1 330 -50 -144 -120 0 0 -1 0 1 0 1 0 0 3069b.dat
1 330 80 -144 -110 1 0 0 0 1 0 0 0 1 3069b.dat
1 330 70 -144 -130 1 0 0 0 1 0 0 0 1 3070b.dat
1 330 -70 -144 -150 1 0 0 0 1 0 0 0 1 3070b.dat
0 STEP
1 19 0 -152 -60 1 0 0 0 1 0 0 0 1 3020.dat
1 19 0 -152 -90 1 0 0 0 1 0 0 0 1 3710.dat
1 288 -130 -152 -60 1 0 0 0 1 0 0 0 1 3021.dat
1 288 130 -152 -60 1 0 0 0 1 0 0 0 1 3021.dat
1 308 -90 -152 -150 1 0 0 0 1 0 0 0 1 3024.dat
1 308 110 -152 -150 1 0 0 0 1 0 0 0 1 3024.dat
1 330 0 -152 80 1 0 0 0 1 0 0 0 1 3034.dat
1 330 -120 -152 60 1 0 0 0 1 0 0 0 1 3020.dat
1 330 120 -152 60 1 0 0 0 1 0 0 0 1 3020.dat
1 330 -170 -152 -0 0 0 -1 0 1 0 1 0 0 3666.dat
1 330 0 -152 50 1 0 0 0 1 0 0 0 1 3460.dat
1 330 170 -152 -0 0 0 -1 0 1 0 1 0 0 3666.dat
1 330 -190 -152 -0 0 0 -1 0 1 0 1 0 0 3710.dat
1 330 -150 -152 -0 0 0 -1 0 1 0 1 0 0 3710.dat
1 330 -130 -152 30 1 0 0 0 1 0 0 0 1 3024.dat
1 330 140 -152 30 1 0 0 0 1 0 0 0 1 3023.dat
1 330 190 -152 -0 0 0 -1 0 1 0 1 0 0 3710.dat
1 330 -210 -152 -0 0 0 -1 0 1 0 1 0 0 3023.dat
1 330 150 -152 -10 0 0 -1 0 1 0 1 0 0 3623.dat
1 330 210 -152 -0 0 0 -1 0 1 0 1 0 0 3023.dat
1 330 -130 -152 -30 1 0 0 0 1 0 0 0 1 3024.dat
1 330 130 -152 -30 1 0 0 0 1 0 0 0 1 3024.dat
1 330 -70 -152 -60 1 0 0 0 1 0 0 0 1 3021.dat
1 330 70 -152 -60 1 0 0 0 1 0 0 0 1 3021.dat
1 330 -60 -152 -90 1 0 0 0 1 0 0 0 1 3023.dat
1 330 60 -152 -90 1 0 0 0 1 0 0 0 1 3023.dat
1 330 -90 -152 90 1 0 0 0 1 0 0 0 1 3070b.dat
1 330 90 -152 90 1 0 0 0 1 0 0 0 1 3070b.dat
1 330 -210 -152 -30 1 0 0 0 1 0 0 0 1 3070b.dat
1 330 210 -152 -30 1 0 0 0 1 0 0 0 1 3070b.dat
1 330 -90 -152 -90 1 0 0 0 1 0 0 0 1 3070b.dat
1 330 90 -152 -90 1 0 0 0 1 0 0 0 1 3070b.dat
1 330 -70 -152 -120 0 0 -1 0 1 0 1 0 0 3069b.dat
0 STEP
1 19 0 -160 -60 1 0 0 0 1 0 0 0 1 3020.dat
1 19 0 -160 -90 1 0 0 0 1 0 0 0 1 2431.dat
1 288 110 -160 -150 1 0 0 0 1 0 0 0 1 3024.dat
1 308 -90 -160 -150 1 0 0 0 1 0 0 0 1 3024.dat
1 330 -40 -160 60 1 0 0 0 1 0 0 0 1 2445.dat
1 330 120 -160 60 1 0 0 0 1 0 0 0 1 3020.dat
1 330 -170 -160 -0 0 0 -1 0 1 0 1 0 0 3666.dat
1 330 170 -160 -0 0 0 -1 0 1 0 1 0 0 3666.dat
1 330 -190 -160 -0 0 0 -1 0 1 0 1 0 0 3710.dat
1 330 -140 -160 -20 0 0 -1 0 1 0 1 0 0 3795.dat
1 330 -110 -160 30 1 0 0 0 1 0 0 0 1 3024.dat
1 330 130 -160 30 1 0 0 0 1 0 0 0 1 3623.dat
1 330 190 -160 -0 0 0 -1 0 1 0 1 0 0 3710.dat
1 330 -210 -160 -0 0 0 -1 0 1 0 1 0 0 3023.dat
1 330 140 -160 -20 0 0 -1 0 1 0 1 0 0 3020.dat
1 330 210 -160 -0 0 0 -1 0 1 0 1 0 0 3023.dat
1 330 -110 -160 -50 0 0 -1 0 1 0 1 0 0 3623.dat
1 330 110 -160 -50 0 0 -1 0 1 0 1 0 0 3623.dat
1 330 -70 -160 -60 1 0 0 0 1 0 0 0 1 3021.dat
1 330 70 -160 -60 1 0 0 0 1 0 0 0 1 3021.dat
1 330 140 -160 -70 1 0 0 0 1 0 0 0 1 3023.dat
1 330 0 -160 90 1 0 0 0 1 0 0 0 1 4162.dat
1 330 -60 -160 -90 1 0 0 0 1 0 0 0 1 3069b.dat
1 330 60 -160 -90 1 0 0 0 1 0 0 0 1 3069b.dat
0 STEP
1 0 -120 -168 -150 1 0 0 0 1 0 0 0 1 3023.dat
1 2 90 -168 -150 1 0 0 0 1 0 0 0 1 3024.dat
1 19 0 -168 -60 1 0 0 0 1 0 0 0 1 3020.dat
1 288 110 -168 -150 1 0 0 0 1 0 0 0 1 3024.dat
1 308 -90 -168 -150 1 0 0 0 1 0 0 0 1 3024.dat
1 330 -20 -168 60 1 0 0 0 1 0 0 0 1 2445.dat
1 330 120 -168 50 0 0 -1 0 1 0 1 0 0 3021.dat
1 330 -150 -168 -0 0 0 -1 0 1 0 1 0 0 3666.dat
1 330 150 -168 -0 0 0 -1 0 1 0 1 0 0 3666.dat
1 330 -180 -168 -0 0 0 -1 0 1 0 1 0 0 3020.dat
1 330 -130 -168 -20 0 0 -1 0 1 0 1 0 0 3666.dat
1 330 -100 -168 30 1 0 0 0 1 0 0 0 1 3023.dat
1 330 90 -168 30 1 0 0 0 1 0 0 0 1 3024.dat
1 330 180 -168 -0 0 0 -1 0 1 0 1 0 0 3020.dat
1 330 -210 -168 -0 0 0 -1 0 1 0 1 0 0 3023.dat
1 330 130 -168 -20 0 0 -1 0 1 0 1 0 0 3710.dat
1 330 210 -168 -0 0 0 -1 0 1 0 1 0 0 3023.dat
1 330 -100 -168 -50 0 0 -1 0 1 0 1 0 0 3021.dat
1 330 100 -168 -50 0 0 -1 0 1 0 1 0 0 3021.dat
1 330 -60 -168 -60 1 0 0 0 1 0 0 0 1 3022.dat
1 330 60 -168 -60 1 0 0 0 1 0 0 0 1 3022.dat
1 330 130 -168 -70 1 0 0 0 1 0 0 0 1 3024.dat
1 330 -150 -168 70 1 0 0 0 1 0 0 0 1 3070b.dat
1 330 150 -168 70 1 0 0 0 1 0 0 0 1 3070b.dat
1 330 -170 -168 50 1 0 0 0 1 0 0 0 1 3070b.dat
1 330 170 -168 50 1 0 0 0 1 0 0 0 1 3070b.dat
1 330 -170 -168 -50 1 0 0 0 1 0 0 0 1 3070b.dat
1 330 170 -168 -50 1 0 0 0 1 0 0 0 1 3070b.dat
1 330 -150 -168 -70 1 0 0 0 1 0 0 0 1 3070b.dat
1 330 150 -168 -70 1 0 0 0 1 0 0 0 1 3070b.dat
0 STEP
1 0 -100 -176 -150 1 0 0 0 1 0 0 0 1 3710.dat
1 2 90 -176 -150 1 0 0 0 1 0 0 0 1 3024.dat
1 2 130 -176 -150 1 0 0 0 1 0 0 0 1 3024.dat
1 19 0 -176 -60 1 0 0 0 1 0 0 0 1 3020.dat
1 288 110 -176 -150 1 0 0 0 1 0 0 0 1 3024.dat
1 330 0 -176 60 1 0 0 0 1 0 0 0 1 2445.dat
1 330 -140 -176 -0 0 0 -1 0 1 0 1 0 0 3795.dat
1 330 140 -176 -0 0 0 -1 0 1 0 1 0 0 3795.dat
1 330 -180 -176 -0 0 0 -1 0 1 0 1 0 0 3020.dat
1 330 -110 -176 -20 0 0 -1 0 1 0 1 0 0 3666.dat
1 330 -70 -176 30 1 0 0 0 1 0 0 0 1 3623.dat
1 330 80 -176 30 1 0 0 0 1 0 0 0 1 3710.dat
1 330 180 -176 -0 0 0 -1 0 1 0 1 0 0 3020.dat
1 330 -210 -176 -0 0 0 -1 0 1 0 1 0 0 3023.dat
1 330 110 -176 -20 0 0 -1 0 1 0 1 0 0 3710.dat
1 330 210 -176 -0 0 0 -1 0 1 0 1 0 0 3023.dat
1 330 -70 -176 -40 1 0 0 0 1 0 0 0 1 3021.dat
1 330 70 -176 -40 1 0 0 0 1 0 0 0 1 3021.dat
1 330 -70 -176 -70 1 0 0 0 1 0 0 0 1 3623.dat
1 330 80 -176 -70 1 0 0 0 1 0 0 0 1 3710.dat
1 330 -130 -176 70 1 0 0 0 1 0 0 0 1 3070b.dat
1 330 130 -176 70 1 0 0 0 1 0 0 0 1 3070b.dat
1 330 -130 -176 -70 1 0 0 0 1 0 0 0 1 3070b.dat
1 330 130 -176 -70 1 0 0 0 1 0 0 0 1 3070b.dat
0 STEP
1 0 -140 -184 -150 1 0 0 0 1 0 0 0 1 3023.dat
1 0 -70 -184 -150 1 0 0 0 1 0 0 0 1 3024.dat
1 2 80 -184 -150 1 0 0 0 1 0 0 0 1 3023.dat
1 2 130 -184 -150 1 0 0 0 1 0 0 0 1 3024.dat
1 19 0 -184 -60 1 0 0 0 1 0 0 0 1 3020.dat
1 28 -50 -184 -120 0 0 -1 0 1 0 1 0 0 3666.dat
1 28 50 -184 -120 0 0 -1 0 1 0 1 0 0 3666.dat
1 28 -50 -184 -190 1 0 0 0 1 0 0 0 1 3024.dat
1 28 50 -184 -190 1 0 0 0 1 0 0 0 1 3024.dat
1 212 -100 -184 -150 1 0 0 0 1 0 0 0 1 3023.dat
1 288 110 -184 -150 1 0 0 0 1 0 0 0 1 3024.dat
1 330 0 -184 60 1 0 0 0 1 0 0 0 1 3034.dat
1 330 -120 -184 -0 0 0 -1 0 1 0 1 0 0 3795.dat
1 330 -90 -184 -0 0 0 -1 0 1 0 1 0 0 3666.dat
1 330 100 -184 -0 0 0 -1 0 1 0 1 0 0 3795.dat
1 330 130 -184 -0 0 0 -1 0 1 0 1 0 0 3666.dat
1 330 -180 -184 -0 0 0 -1 0 1 0 1 0 0 3020.dat
1 330 0 -184 30 1 0 0 0 1 0 0 0 1 3460.dat
1 330 180 -184 -0 0 0 -1 0 1 0 1 0 0 3020.dat
1 330 -210 -184 -0 0 0 -1 0 1 0 1 0 0 3023.dat
1 330 -150 -184 -0 0 0 -1 0 1 0 1 0 0 3023.dat
1 330 -70 -184 -20 0 0 -1 0 1 0 1 0 0 3710.dat
1 330 70 -184 -20 0 0 -1 0 1 0 1 0 0 3710.dat
1 330 150 -184 -0 0 0 -1 0 1 0 1 0 0 3023.dat
1 330 210 -184 -0 0 0 -1 0 1 0 1 0 0 3023.dat
1 330 0 -184 -30 1 0 0 0 1 0 0 0 1 3666.dat
1 330 -50 -184 -50 1 0 0 0 1 0 0 0 1 3024.dat
1 330 50 -184 -50 1 0 0 0 1 0 0 0 1 3024.dat
1 330 -70 -184 -70 1 0 0 0 1 0 0 0 1 3024.dat
1 330 70 -184 -70 1 0 0 0 1 0 0 0 1 3024.dat
1 330 -100 -184 70 1 0 0 0 1 0 0 0 1 3069b.dat
1 330 100 -184 70 1 0 0 0 1 0 0 0 1 3069b.dat
1 330 -150 -184 40 0 0 -1 0 1 0 1 0 0 3069b.dat
1 330 150 -184 40 0 0 -1 0 1 0 1 0 0 3069b.dat
1 330 -150 -184 -40 0 0 -1 0 1 0 1 0 0 3069b.dat
1 330 150 -184 -40 0 0 -1 0 1 0 1 0 0 3069b.dat
1 330 -100 -184 -70 1 0 0 0 1 0 0 0 1 3069b.dat
1 330 100 -184 -70 1 0 0 0 1 0 0 0 1 3069b.dat
0 STEP
1 0 -150 -192 -150 1 0 0 0 1 0 0 0 1 3024.dat
1 0 -70 -192 -150 1 0 0 0 1 0 0 0 1 3024.dat
1 2 80 -192 -150 1 0 0 0 1 0 0 0 1 3023.dat
1 2 140 -192 -150 1 0 0 0 1 0 0 0 1 3023.dat
1 19 -40 -192 -50 1 0 0 0 1 0 0 0 1 3023.dat
1 19 40 -192 -50 1 0 0 0 1 0 0 0 1 3023.dat
1 19 0 -192 -70 1 0 0 0 1 0 0 0 1 2431.dat
1 28 -50 -192 -120 0 0 -1 0 1 0 1 0 0 3666.dat
1 28 50 -192 -120 0 0 -1 0 1 0 1 0 0 3666.dat
1 28 -50 -192 -190 1 0 0 0 1 0 0 0 1 3024.dat
1 28 50 -192 -190 1 0 0 0 1 0 0 0 1 3024.dat
1 78 0 -192 -0 1 0 0 0 1 0 0 0 1 3031.dat
1 78 -50 -192 -0 0 0 -1 0 1 0 1 0 0 3023.dat
1 78 50 -192 -0 0 0 -1 0 1 0 1 0 0 3023.dat
1 78 0 -192 -50 1 0 0 0 1 0 0 0 1 3023.dat
1 212 -110 -192 -150 1 0 0 0 1 0 0 0 1 3623.dat
1 288 110 -192 -150 1 0 0 0 1 0 0 0 1 3024.dat
1 330 -80 -192 -0 0 0 -1 0 1 0 1 0 0 3795.dat
1 330 20 -192 50 1 0 0 0 1 0 0 0 1 3460.dat
1 330 -110 -192 -0 0 0 -1 0 1 0 1 0 0 3710.dat
1 330 -50 -192 30 1 0 0 0 1 0 0 0 1 3024.dat
1 330 80 -192 30 1 0 0 0 1 0 0 0 1 3710.dat
1 330 -180 -192 -0 1 0 0 0 1 0 0 0 1 3022.dat
1 330 80 -192 -20 0 0 -1 0 1 0 1 0 0 3020.dat
1 330 110 -192 -10 0 0 -1 0 1 0 1 0 0 3623.dat
1 330 180 -192 -0 1 0 0 0 1 0 0 0 1 3022.dat
1 330 -50 -192 -30 1 0 0 0 1 0 0 0 1 3024.dat
1 330 50 -192 -30 1 0 0 0 1 0 0 0 1 3024.dat
1 330 0 -192 70 1 0 0 0 1 0 0 0 1 4162.dat
1 330 -130 -192 -0 0 0 -1 0 1 0 1 0 0 6636.dat
1 330 -110 -192 50 1 0 0 0 1 0 0 0 1 3070b.dat
1 330 120 -192 50 1 0 0 0 1 0 0 0 1 3069b.dat
1 330 -180 -192 30 1 0 0 0 1 0 0 0 1 3069b.dat
1 330 130 -192 -0 0 0 -1 0 1 0 1 0 0 2431.dat
1 330 180 -192 30 1 0 0 0 1 0 0 0 1 3069b.dat
1 330 -210 -192 -0 0 0 -1 0 1 0 1 0 0 3069b.dat
1 330 -150 -192 -0 0 0 -1 0 1 0 1 0 0 3069b.dat
1 330 150 -192 -0 0 0 -1 0 1 0 1 0 0 3069b.dat
1 330 210 -192 -0 0 0 -1 0 1 0 1 0 0 3069b.dat
1 330 -180 -192 -30 1 0 0 0 1 0 0 0 1 3069b.dat
1 330 180 -192 -30 1 0 0 0 1 0 0 0 1 3069b.dat
1 330 -110 -192 -50 1 0 0 0 1 0 0 0 1 3070b.dat
1 330 120 -192 -50 1 0 0 0 1 0 0 0 1 3069b.dat
1 330 -70 -192 -70 1 0 0 0 1 0 0 0 1 3070b.dat
1 330 70 -192 -70 1 0 0 0 1 0 0 0 1 3070b.dat
0 STEP
1 0 -150 -200 -150 1 0 0 0 1 0 0 0 1 3024.dat
1 0 -50 -200 -150 1 0 0 0 1 0 0 0 1 3024.dat
1 2 80 -200 -150 1 0 0 0 1 0 0 0 1 3023.dat
1 2 140 -200 -150 1 0 0 0 1 0 0 0 1 3023.dat
1 19 -30 -200 -50 1 0 0 0 1 0 0 0 1 3024.dat
1 19 30 -200 -50 1 0 0 0 1 0 0 0 1 3024.dat
1 19 -50 -200 -50 1 0 0 0 1 0 0 0 1 3070b.dat
1 19 50 -200 -50 1 0 0 0 1 0 0 0 1 3070b.dat
1 28 50 -200 -150 1 0 0 0 1 0 0 0 1 3024.dat
1 28 -50 -200 -100 0 0 -1 0 1 0 1 0 0 2431.dat
1 28 50 -200 -100 0 0 -1 0 1 0 1 0 0 2431.dat
1 28 -50 -200 -180 0 0 -1 0 1 0 1 0 0 3069b.dat
1 28 50 -200 -180 0 0 -1 0 1 0 1 0 0 3069b.dat
1 78 0 -200 20 1 0 0 0 1 0 0 0 1 3020.dat
1 78 -50 -200 -0 0 0 -1 0 1 0 1 0 0 3023.dat
1 78 50 -200 -0 0 0 -1 0 1 0 1 0 0 3023.dat
1 78 -30 -200 -20 0 0 -1 0 1 0 1 0 0 3023.dat
1 78 30 -200 -20 0 0 -1 0 1 0 1 0 0 3023.dat
1 212 -100 -200 -150 1 0 0 0 1 0 0 0 1 3710.dat
1 288 110 -200 -150 1 0 0 0 1 0 0 0 1 3024.dat
1 330 -170 -200 -0 0 0 -1 0 1 0 1 0 0 3023.dat
1 330 170 -200 -0 0 0 -1 0 1 0 1 0 0 3023.dat
1 330 -20 -200 50 1 0 0 0 1 0 0 0 1 4162.dat
1 330 70 -200 -0 0 0 -1 0 1 0 1 0 0 6636.dat
1 330 90 -200 -0 0 0 -1 0 1 0 1 0 0 6636.dat
1 330 -80 -200 30 1 0 0 0 1 0 0 0 1 2431.dat
1 330 50 -200 30 1 0 0 0 1 0 0 0 1 3070b.dat
1 330 110 -200 -0 0 0 -1 0 1 0 1 0 0 2431.dat
1 330 -190 -200 -0 0 0 -1 0 1 0 1 0 0 3069b.dat
1 330 -100 -200 -0 1 0 0 0 1 0 0 0 1 3068b.dat
1 330 -70 -200 -20 0 0 -1 0 1 0 1 0 0 2431.dat
1 330 190 -200 -0 0 0 -1 0 1 0 1 0 0 3069b.dat
1 330 -100 -200 -30 1 0 0 0 1 0 0 0 1 3069b.dat
1 330 -50 -200 -30 1 0 0 0 1 0 0 0 1 3070b.dat
1 330 50 -200 -30 1 0 0 0 1 0 0 0 1 3070b.dat
1 330 -90 -200 -50 1 0 0 0 1 0 0 0 1 3070b.dat
1 484 0 -200 -30 0 0 -1 0 1 0 1 0 0 3021.dat
0 STEP
1 0 -150 -208 -150 1 0 0 0 1 0 0 0 1 3024.dat
1 0 -50 -208 -150 1 0 0 0 1 0 0 0 1 3024.dat
1 2 70 -208 -150 1 0 0 0 1 0 0 0 1 3623.dat
1 2 140 -208 -150 1 0 0 0 1 0 0 0 1 3023.dat
1 78 0 -208 20 1 0 0 0 1 0 0 0 1 3020.dat
1 78 -50 -208 -0 0 0 -1 0 1 0 1 0 0 3023.dat
1 78 50 -208 -0 0 0 -1 0 1 0 1 0 0 3023.dat
1 78 0 -208 -10 1 0 0 0 1 0 0 0 1 3023.dat
1 212 -100 -208 -150 1 0 0 0 1 0 0 0 1 3710.dat
1 288 110 -208 -150 1 0 0 0 1 0 0 0 1 3024.dat
1 330 -170 -208 -0 0 0 -1 0 1 0 1 0 0 3069b.dat
1 330 170 -208 -0 0 0 -1 0 1 0 1 0 0 3069b.dat
1 484 -30 -208 -30 0 0 -1 0 1 0 1 0 0 3623.dat
1 484 30 -208 -30 0 0 -1 0 1 0 1 0 0 3623.dat
1 484 0 -208 -50 0 0 -1 0 1 0 1 0 0 3021.dat
0 STEP
1 0 -150 -216 -150 1 0 0 0 1 0 0 0 1 3024.dat
1 0 -50 -216 -150 1 0 0 0 1 0 0 0 1 3024.dat
1 2 70 -216 -150 1 0 0 0 1 0 0 0 1 3623.dat
1 2 140 -216 -150 1 0 0 0 1 0 0 0 1 3023.dat
1 78 0 -216 20 1 0 0 0 1 0 0 0 1 3020.dat
1 78 -50 -216 10 1 0 0 0 1 0 0 0 1 3024.dat
1 78 50 -216 10 1 0 0 0 1 0 0 0 1 3024.dat
1 78 0 -216 -10 1 0 0 0 1 0 0 0 1 3710.dat
1 212 -100 -216 -150 1 0 0 0 1 0 0 0 1 3710.dat
1 288 110 -216 -150 1 0 0 0 1 0 0 0 1 3024.dat
1 484 -50 -216 -30 0 0 -1 0 1 0 1 0 0 3623.dat
1 484 50 -216 -30 0 0 -1 0 1 0 1 0 0 3623.dat
1 484 0 -216 -40 1 0 0 0 1 0 0 0 1 3020.dat
1 484 0 -216 -70 1 0 0 0 1 0 0 0 1 3710.dat
0 STEP
1 0 -150 -224 -150 1 0 0 0 1 0 0 0 1 3024.dat
1 0 -50 -224 -150 1 0 0 0 1 0 0 0 1 3024.dat
1 2 70 -224 -150 1 0 0 0 1 0 0 0 1 3623.dat
1 2 140 -224 -150 1 0 0 0 1 0 0 0 1 3023.dat
1 78 0 -224 20 1 0 0 0 1 0 0 0 1 3031.dat
1 78 -50 -224 10 0 0 -1 0 1 0 1 0 0 3623.dat
1 78 50 -224 10 0 0 -1 0 1 0 1 0 0 3623.dat
1 78 0 -224 -30 1 0 0 0 1 0 0 0 1 3023.dat
1 212 -100 -224 -150 1 0 0 0 1 0 0 0 1 3710.dat
1 288 110 -224 -150 1 0 0 0 1 0 0 0 1 3024.dat
1 484 -70 -224 -10 1 0 0 0 1 0 0 0 1 3024.dat
1 484 70 -224 -10 1 0 0 0 1 0 0 0 1 3024.dat
1 484 -40 -224 -50 0 0 -1 0 1 0 1 0 0 3021.dat
1 484 40 -224 -50 0 0 -1 0 1 0 1 0 0 3021.dat
1 484 0 -224 -70 0 0 -1 0 1 0 1 0 0 3021.dat
0 STEP
1 0 -150 -232 -150 1 0 0 0 1 0 0 0 1 3024.dat
1 0 -50 -232 -150 1 0 0 0 1 0 0 0 1 3024.dat
1 2 70 -232 -150 1 0 0 0 1 0 0 0 1 3623.dat
1 2 140 -232 -150 1 0 0 0 1 0 0 0 1 3023.dat
1 15 -130 -232 -150 1 0 0 0 1 0 0 0 1 3024.dat
1 78 0 -232 20 1 0 0 0 1 0 0 0 1 3031.dat
1 78 -50 -232 10 0 0 -1 0 1 0 1 0 0 3623.dat
1 78 50 -232 10 0 0 -1 0 1 0 1 0 0 3623.dat
1 78 -70 -232 10 1 0 0 0 1 0 0 0 1 3024.dat
1 78 70 -232 10 1 0 0 0 1 0 0 0 1 3024.dat
1 78 0 -232 -30 1 0 0 0 1 0 0 0 1 3710.dat
1 212 -90 -232 -150 1 0 0 0 1 0 0 0 1 3623.dat
1 288 110 -232 -150 1 0 0 0 1 0 0 0 1 3024.dat
1 484 -70 -232 -20 0 0 -1 0 1 0 1 0 0 3023.dat
1 484 70 -232 -20 0 0 -1 0 1 0 1 0 0 3023.dat
1 484 -50 -232 -50 0 0 -1 0 1 0 1 0 0 3623.dat
1 484 50 -232 -50 0 0 -1 0 1 0 1 0 0 3623.dat
1 484 0 -232 -60 1 0 0 0 1 0 0 0 1 3020.dat
1 484 0 -232 -90 1 0 0 0 1 0 0 0 1 3710.dat
0 STEP
1 0 -150 -240 -150 1 0 0 0 1 0 0 0 1 3024.dat
1 0 -50 -240 -150 1 0 0 0 1 0 0 0 1 3024.dat
1 2 80 -240 -150 1 0 0 0 1 0 0 0 1 3023.dat
1 2 140 -240 -150 1 0 0 0 1 0 0 0 1 3023.dat
1 2 50 -240 -150 1 0 0 0 1 0 0 0 1 3070b.dat
1 15 -130 -240 -150 1 0 0 0 1 0 0 0 1 3024.dat
1 78 0 -240 40 0 0 -1 0 1 0 1 0 0 3020.dat
1 78 -40 -240 20 0 0 -1 0 1 0 1 0 0 3020.dat
1 78 40 -240 20 0 0 -1 0 1 0 1 0 0 3020.dat
1 78 -70 -240 10 0 0 -1 0 1 0 1 0 0 3623.dat
1 78 70 -240 10 0 0 -1 0 1 0 1 0 0 3623.dat
1 78 -40 -240 -30 1 0 0 0 1 0 0 0 1 3023.dat
1 78 40 -240 -30 1 0 0 0 1 0 0 0 1 3023.dat
1 212 -90 -240 -150 1 0 0 0 1 0 0 0 1 3623.dat
1 288 110 -240 -150 1 0 0 0 1 0 0 0 1 3024.dat
1 484 -70 -240 -40 0 0 -1 0 1 0 1 0 0 3023.dat
1 484 70 -240 -40 0 0 -1 0 1 0 1 0 0 3023.dat
1 484 0 -240 -60 1 0 0 0 1 0 0 0 1 3795.dat
1 484 0 -240 -90 1 0 0 0 1 0 0 0 1 3666.dat
0 STEP
1 0 -150 -248 -150 1 0 0 0 1 0 0 0 1 3024.dat
1 0 -50 -248 -150 1 0 0 0 1 0 0 0 1 3070b.dat
1 2 80 -248 -150 1 0 0 0 1 0 0 0 1 3023.dat
1 2 140 -248 -150 1 0 0 0 1 0 0 0 1 3023.dat
1 15 -120 -248 -150 1 0 0 0 1 0 0 0 1 3023.dat
1 78 0 -248 40 1 0 0 0 1 0 0 0 1 3031.dat
1 78 -50 -248 20 0 0 -1 0 1 0 1 0 0 3710.dat
1 78 50 -248 20 0 0 -1 0 1 0 1 0 0 3710.dat
1 78 -70 -248 10 0 0 -1 0 1 0 1 0 0 3623.dat
1 78 70 -248 10 0 0 -1 0 1 0 1 0 0 3623.dat
1 78 -90 -248 10 1 0 0 0 1 0 0 0 1 3024.dat
1 78 90 -248 10 1 0 0 0 1 0 0 0 1 3024.dat
1 78 -30 -248 -20 0 0 -1 0 1 0 1 0 0 3023.dat
1 78 30 -248 -20 0 0 -1 0 1 0 1 0 0 3023.dat
1 78 -50 -248 -30 1 0 0 0 1 0 0 0 1 3024.dat
1 78 50 -248 -30 1 0 0 0 1 0 0 0 1 3024.dat
1 78 0 -248 -50 1 0 0 0 1 0 0 0 1 3023.dat
1 212 -80 -248 -150 1 0 0 0 1 0 0 0 1 3023.dat
1 288 110 -248 -150 1 0 0 0 1 0 0 0 1 3024.dat
1 484 -90 -248 -20 0 0 -1 0 1 0 1 0 0 3023.dat
1 484 90 -248 -20 0 0 -1 0 1 0 1 0 0 3023.dat
1 484 -70 -248 -40 0 0 -1 0 1 0 1 0 0 3023.dat
1 484 70 -248 -40 0 0 -1 0 1 0 1 0 0 3023.dat
1 484 -40 -248 -70 0 0 -1 0 1 0 1 0 0 3021.dat
1 484 40 -248 -70 0 0 -1 0 1 0 1 0 0 3021.dat
1 484 0 -248 -90 0 0 -1 0 1 0 1 0 0 3021.dat
0 STEP
1 0 -150 -256 -150 1 0 0 0 1 0 0 0 1 3024.dat
1 0 -70 -256 -150 1 0 0 0 1 0 0 0 1 3024.dat
1 2 80 -256 -150 1 0 0 0 1 0 0 0 1 3023.dat
1 2 130 -256 -150 1 0 0 0 1 0 0 0 1 3024.dat
1 2 150 -256 -150 1 0 0 0 1 0 0 0 1 3070b.dat
1 78 0 -256 60 1 0 0 0 1 0 0 0 1 3795.dat
1 78 -70 -256 20 0 0 -1 0 1 0 1 0 0 3710.dat
1 78 70 -256 20 0 0 -1 0 1 0 1 0 0 3710.dat
1 78 -90 -256 20 0 0 -1 0 1 0 1 0 0 3023.dat
1 78 0 -256 30 1 0 0 0 1 0 0 0 1 3666.dat
1 78 90 -256 20 0 0 -1 0 1 0 1 0 0 3023.dat
1 78 -50 -256 -10 0 0 -1 0 1 0 1 0 0 3623.dat
1 78 -30 -256 10 1 0 0 0 1 0 0 0 1 3024.dat
1 78 40 -256 10 1 0 0 0 1 0 0 0 1 3023.dat
1 78 50 -256 -20 0 0 -1 0 1 0 1 0 0 3023.dat
1 78 -70 -256 -30 1 0 0 0 1 0 0 0 1 3024.dat
1 78 -30 -256 -40 0 0 -1 0 1 0 1 0 0 3023.dat
1 78 30 -256 -40 0 0 -1 0 1 0 1 0 0 3023.dat
1 78 70 -256 -30 1 0 0 0 1 0 0 0 1 3024.dat
1 78 0 -256 -50 1 0 0 0 1 0 0 0 1 3023.dat
1 212 -110 -256 -150 1 0 0 0 1 0 0 0 1 3623.dat
1 288 110 -256 -150 1 0 0 0 1 0 0 0 1 3024.dat
1 484 -90 -256 -20 0 0 -1 0 1 0 1 0 0 3023.dat
1 484 90 -256 -20 0 0 -1 0 1 0 1 0 0 3023.dat
1 484 -60 -256 -60 1 0 0 0 1 0 0 0 1 3022.dat
1 484 60 -256 -60 1 0 0 0 1 0 0 0 1 3022.dat
1 484 0 -256 -80 1 0 0 0 1 0 0 0 1 3020.dat
0 STEP
1 0 -130 -264 -150 1 0 0 0 1 0 0 0 1 3024.dat
1 0 -70 -264 -150 1 0 0 0 1 0 0 0 1 3024.dat
1 0 -150 -264 -150 1 0 0 0 1 0 0 0 1 3070b.dat
1 2 110 -264 -150 1 0 0 0 1 0 0 0 1 3623.dat
1 2 70 -264 -150 1 0 0 0 1 0 0 0 1 3070b.dat
1 78 0 -264 60 1 0 0 0 1 0 0 0 1 3795.dat
1 78 -70 -264 20 0 0 -1 0 1 0 1 0 0 3710.dat
1 78 70 -264 20 0 0 -1 0 1 0 1 0 0 3710.dat
1 78 -90 -264 10 0 0 -1 0 1 0 1 0 0 3623.dat
1 78 0 -264 30 1 0 0 0 1 0 0 0 1 3666.dat
1 78 90 -264 10 0 0 -1 0 1 0 1 0 0 3623.dat
1 78 -50 -264 -20 0 0 -1 0 1 0 1 0 0 3710.dat
1 78 -30 -264 10 1 0 0 0 1 0 0 0 1 3024.dat
1 78 40 -264 10 1 0 0 0 1 0 0 0 1 3023.dat
1 78 50 -264 -30 0 0 -1 0 1 0 1 0 0 3623.dat
1 78 -70 -264 -30 1 0 0 0 1 0 0 0 1 3024.dat
1 78 -30 -264 -40 0 0 -1 0 1 0 1 0 0 3023.dat
1 78 30 -264 -40 0 0 -1 0 1 0 1 0 0 3023.dat
1 78 70 -264 -30 1 0 0 0 1 0 0 0 1 3024.dat
1 212 -100 -264 -150 1 0 0 0 1 0 0 0 1 3023.dat
1 484 -90 -264 -40 0 0 -1 0 1 0 1 0 0 3023.dat
1 484 90 -264 -40 0 0 -1 0 1 0 1 0 0 3023.dat
1 484 -70 -264 -60 0 0 -1 0 1 0 1 0 0 3023.dat
1 484 70 -264 -60 0 0 -1 0 1 0 1 0 0 3023.dat
1 484 0 -264 -80 1 0 0 0 1 0 0 0 1 3795.dat
0 STEP
1 0 -110 -272 -150 1 0 0 0 1 0 0 0 1 3623.dat
1 0 -70 -272 -150 1 0 0 0 1 0 0 0 1 3070b.dat
1 2 100 -272 -150 1 0 0 0 1 0 0 0 1 3023.dat
1 2 130 -272 -150 1 0 0 0 1 0 0 0 1 3070b.dat
1 78 0 -272 70 0 0 -1 0 1 0 1 0 0 3021.dat
1 78 -50 -272 20 0 0 -1 0 1 0 1 0 0 3666.dat
1 78 -30 -272 50 0 0 -1 0 1 0 1 0 0 3623.dat
1 78 40 -272 50 0 0 -1 0 1 0 1 0 0 3021.dat
1 78 -70 -272 20 0 0 -1 0 1 0 1 0 0 3710.dat
1 78 70 -272 20 0 0 -1 0 1 0 1 0 0 3710.dat
1 78 -90 -272 10 0 0 -1 0 1 0 1 0 0 3623.dat
1 78 90 -272 10 0 0 -1 0 1 0 1 0 0 3623.dat
1 78 50 -272 -20 0 0 -1 0 1 0 1 0 0 3710.dat
1 78 -70 -272 -30 1 0 0 0 1 0 0 0 1 3024.dat
1 78 70 -272 -30 1 0 0 0 1 0 0 0 1 3024.dat
1 78 -20 -272 -50 1 0 0 0 1 0 0 0 1 3710.dat
1 78 30 -272 -50 1 0 0 0 1 0 0 0 1 3024.dat
1 484 -90 -272 -40 0 0 -1 0 1 0 1 0 0 3023.dat
1 484 90 -272 -40 0 0 -1 0 1 0 1 0 0 3023.dat
1 484 -70 -272 -60 0 0 -1 0 1 0 1 0 0 3023.dat
1 484 70 -272 -60 0 0 -1 0 1 0 1 0 0 3023.dat
1 484 0 -272 -80 1 0 0 0 1 0 0 0 1 3795.dat
0 STEP
1 0 -110 -280 -150 1 0 0 0 1 0 0 0 1 63864.dat
1 2 110 -280 -150 1 0 0 0 1 0 0 0 1 3024.dat
1 2 90 -280 -150 1 0 0 0 1 0 0 0 1 3070b.dat
1 78 0 -280 80 1 0 0 0 1 0 0 0 1 3020.dat
1 78 -70 -280 -0 0 0 -1 0 1 0 1 0 0 3460.dat
1 78 -50 -280 40 0 0 -1 0 1 0 1 0 0 3710.dat
1 78 60 -280 40 0 0 -1 0 1 0 1 0 0 3020.dat
1 78 -90 -280 -0 0 0 -1 0 1 0 1 0 0 3666.dat
1 78 0 -280 50 1 0 0 0 1 0 0 0 1 3710.dat
1 78 90 -280 -0 0 0 -1 0 1 0 1 0 0 3666.dat
1 78 -30 -280 30 1 0 0 0 1 0 0 0 1 3024.dat
1 78 30 -280 30 1 0 0 0 1 0 0 0 1 3024.dat
1 78 -110 -280 10 1 0 0 0 1 0 0 0 1 3024.dat
1 78 110 -280 10 1 0 0 0 1 0 0 0 1 3024.dat
1 78 70 -280 -40 0 0 -1 0 1 0 1 0 0 3710.dat
1 78 -50 -280 -60 0 0 -1 0 1 0 1 0 0 3710.dat
1 78 50 -280 -60 0 0 -1 0 1 0 1 0 0 3710.dat
1 78 -30 -280 -70 0 0 -1 0 1 0 1 0 0 3623.dat
1 78 30 -280 -70 0 0 -1 0 1 0 1 0 0 3623.dat
1 78 -90 -280 -70 1 0 0 0 1 0 0 0 1 3024.dat
1 78 0 -280 -90 0 0 -1 0 1 0 1 0 0 3021.dat
1 78 90 -280 -70 1 0 0 0 1 0 0 0 1 3024.dat
1 484 -110 -280 -20 0 0 -1 0 1 0 1 0 0 3023.dat
1 484 110 -280 -20 0 0 -1 0 1 0 1 0 0 3023.dat
0 STEP
1 2 110 -288 -150 1 0 0 0 1 0 0 0 1 3070b.dat
1 78 0 -288 80 1 0 0 0 1 0 0 0 1 3020.dat
1 78 -70 -288 -0 0 0 -1 0 1 0 1 0 0 3460.dat
1 78 -50 -288 40 0 0 -1 0 1 0 1 0 0 3710.dat
1 78 60 -288 40 0 0 -1 0 1 0 1 0 0 3020.dat
1 78 -90 -288 -0 0 0 -1 0 1 0 1 0 0 3666.dat
1 78 0 -288 50 1 0 0 0 1 0 0 0 1 3710.dat
1 78 90 -288 -0 0 0 -1 0 1 0 1 0 0 3666.dat
1 78 -30 -288 30 1 0 0 0 1 0 0 0 1 3024.dat
1 78 30 -288 30 1 0 0 0 1 0 0 0 1 3024.dat
1 78 -110 -288 10 1 0 0 0 1 0 0 0 1 3024.dat
1 78 110 -288 10 1 0 0 0 1 0 0 0 1 3024.dat
1 78 70 -288 -40 0 0 -1 0 1 0 1 0 0 3710.dat
1 78 -50 -288 -60 0 0 -1 0 1 0 1 0 0 3710.dat
1 78 50 -288 -60 0 0 -1 0 1 0 1 0 0 3710.dat
1 78 -30 -288 -80 0 0 -1 0 1 0 1 0 0 3710.dat
1 78 30 -288 -80 0 0 -1 0 1 0 1 0 0 3710.dat
1 78 -90 -288 -70 1 0 0 0 1 0 0 0 1 3024.dat
1 78 0 -288 -90 0 0 -1 0 1 0 1 0 0 3021.dat
1 78 90 -288 -70 1 0 0 0 1 0 0 0 1 3024.dat
1 78 -70 -288 -90 1 0 0 0 1 0 0 0 1 3024.dat
1 78 70 -288 -90 1 0 0 0 1 0 0 0 1 3024.dat
1 484 -110 -288 -20 0 0 -1 0 1 0 1 0 0 3023.dat
1 484 110 -288 -20 0 0 -1 0 1 0 1 0 0 3023.dat
0 STEP
1 0 0 -296 -110 1 0 0 0 1 0 0 0 1 3710.dat
1 78 0 -296 80 1 0 0 0 1 0 0 0 1 3795.dat
1 78 -70 -296 -0 0 0 -1 0 1 0 1 0 0 3460.dat
1 78 70 -296 -0 0 0 -1 0 1 0 1 0 0 3460.dat
1 78 -90 -296 -0 0 0 -1 0 1 0 1 0 0 3666.dat
1 78 0 -296 50 1 0 0 0 1 0 0 0 1 3666.dat
1 78 90 -296 -0 0 0 -1 0 1 0 1 0 0 3666.dat
1 78 -110 -296 20 0 0 -1 0 1 0 1 0 0 3023.dat
1 78 -50 -296 30 1 0 0 0 1 0 0 0 1 3024.dat
1 78 50 -296 30 1 0 0 0 1 0 0 0 1 3024.dat
1 78 110 -296 20 0 0 -1 0 1 0 1 0 0 3023.dat
1 78 -40 -296 -70 0 0 -1 0 1 0 1 0 0 3021.dat
1 78 40 -296 -70 0 0 -1 0 1 0 1 0 0 3021.dat
1 78 -90 -296 -70 1 0 0 0 1 0 0 0 1 3024.dat
1 78 0 -296 -80 1 0 0 0 1 0 0 0 1 3022.dat
1 78 90 -296 -70 1 0 0 0 1 0 0 0 1 3024.dat
1 78 -70 -296 -90 1 0 0 0 1 0 0 0 1 3024.dat
1 78 70 -296 -90 1 0 0 0 1 0 0 0 1 3024.dat
1 484 -110 -296 -20 0 0 -1 0 1 0 1 0 0 3023.dat
1 484 110 -296 -20 0 0 -1 0 1 0 1 0 0 3023.dat
0 STEP
1 0 -50 -304 -90 1 0 0 0 1 0 0 0 1 3024.dat
1 0 50 -304 -90 1 0 0 0 1 0 0 0 1 3024.dat
1 78 0 -304 80 1 0 0 0 1 0 0 0 1 3795.dat
1 78 -70 -304 -0 0 0 -1 0 1 0 1 0 0 3460.dat
1 78 70 -304 -0 0 0 -1 0 1 0 1 0 0 3460.dat
1 78 -90 -304 -0 0 0 -1 0 1 0 1 0 0 3666.dat
1 78 0 -304 50 1 0 0 0 1 0 0 0 1 3666.dat
1 78 90 -304 -0 0 0 -1 0 1 0 1 0 0 3666.dat
1 78 -110 -304 10 0 0 -1 0 1 0 1 0 0 3623.dat
1 78 -50 -304 30 1 0 0 0 1 0 0 0 1 3024.dat
1 78 50 -304 30 1 0 0 0 1 0 0 0 1 3024.dat
1 78 110 -304 10 0 0 -1 0 1 0 1 0 0 3623.dat
1 78 -50 -304 -60 0 0 -1 0 1 0 1 0 0 3023.dat
1 78 50 -304 -60 0 0 -1 0 1 0 1 0 0 3023.dat
1 78 -90 -304 -70 1 0 0 0 1 0 0 0 1 3024.dat
1 78 0 -304 -80 1 0 0 0 1 0 0 0 1 3020.dat
1 78 90 -304 -70 1 0 0 0 1 0 0 0 1 3024.dat
1 78 -70 -304 -90 1 0 0 0 1 0 0 0 1 3024.dat
1 78 70 -304 -90 1 0 0 0 1 0 0 0 1 3024.dat
1 78 0 -304 -110 1 0 0 0 1 0 0 0 1 3710.dat
1 484 -110 -304 -40 0 0 -1 0 1 0 1 0 0 3023.dat
1 484 110 -304 -40 0 0 -1 0 1 0 1 0 0 3023.dat
0 STEP
1 78 0 -312 80 1 0 0 0 1 0 0 0 1 3795.dat
1 78 -70 -312 -0 0 0 -1 0 1 0 1 0 0 3460.dat
1 78 70 -312 -0 0 0 -1 0 1 0 1 0 0 3460.dat
1 78 -90 -312 -0 0 0 -1 0 1 0 1 0 0 3666.dat
1 78 -40 -312 50 1 0 0 0 1 0 0 0 1 3023.dat
1 78 40 -312 50 1 0 0 0 1 0 0 0 1 3023.dat
1 78 90 -312 -0 0 0 -1 0 1 0 1 0 0 3666.dat
1 78 -110 -312 10 0 0 -1 0 1 0 1 0 0 3623.dat
1 78 -50 -312 30 1 0 0 0 1 0 0 0 1 3024.dat
1 78 50 -312 30 1 0 0 0 1 0 0 0 1 3024.dat
1 78 110 -312 10 0 0 -1 0 1 0 1 0 0 3623.dat
1 78 -50 -312 -80 0 0 -1 0 1 0 1 0 0 3710.dat
1 78 50 -312 -80 0 0 -1 0 1 0 1 0 0 3710.dat
1 78 -90 -312 -70 1 0 0 0 1 0 0 0 1 3024.dat
1 78 0 -312 -80 1 0 0 0 1 0 0 0 1 3020.dat
1 78 90 -312 -70 1 0 0 0 1 0 0 0 1 3024.dat
1 78 -70 -312 -90 1 0 0 0 1 0 0 0 1 3024.dat
1 78 70 -312 -90 1 0 0 0 1 0 0 0 1 3024.dat
1 78 0 -312 -110 1 0 0 0 1 0 0 0 1 3710.dat
1 484 -110 -312 -40 0 0 -1 0 1 0 1 0 0 3023.dat
1 484 110 -312 -40 0 0 -1 0 1 0 1 0 0 3023.dat
0 STEP
1 78 0 -320 80 1 0 0 0 1 0 0 0 1 3795.dat
1 78 -90 -320 -0 0 0 -1 0 1 0 1 0 0 3460.dat
1 78 -70 -320 40 0 0 -1 0 1 0 1 0 0 3710.dat
1 78 80 -320 40 0 0 -1 0 1 0 1 0 0 3020.dat
1 78 -40 -320 50 1 0 0 0 1 0 0 0 1 3023.dat
1 78 40 -320 50 1 0 0 0 1 0 0 0 1 3023.dat
1 78 -110 -320 10 0 0 -1 0 1 0 1 0 0 3623.dat
1 78 -50 -320 30 1 0 0 0 1 0 0 0 1 3024.dat
1 78 50 -320 30 1 0 0 0 1 0 0 0 1 3024.dat
1 78 110 -320 10 0 0 -1 0 1 0 1 0 0 3623.dat
1 78 90 -320 -40 0 0 -1 0 1 0 1 0 0 3710.dat
1 78 -70 -320 -60 0 0 -1 0 1 0 1 0 0 3710.dat
1 78 70 -320 -60 0 0 -1 0 1 0 1 0 0 3710.dat
1 78 -50 -320 -80 0 0 -1 0 1 0 1 0 0 3710.dat
1 78 50 -320 -80 0 0 -1 0 1 0 1 0 0 3710.dat
1 78 0 -320 -80 1 0 0 0 1 0 0 0 1 3020.dat
1 78 0 -320 -110 1 0 0 0 1 0 0 0 1 3710.dat
1 484 -110 -320 -40 0 0 -1 0 1 0 1 0 0 3023.dat
1 484 110 -320 -40 0 0 -1 0 1 0 1 0 0 3023.dat
0 STEP
1 78 -100 -328 -0 0 0 -1 0 1 0 1 0 0 3020.dat
1 78 -60 -328 30 1 0 0 0 1 0 0 0 1 3023.dat
1 78 80 -328 30 1 0 0 0 1 0 0 0 1 3710.dat
1 78 -70 -328 10 1 0 0 0 1 0 0 0 1 3024.dat
1 78 90 -328 10 1 0 0 0 1 0 0 0 1 3623.dat
1 78 100 -328 -30 0 0 -1 0 1 0 1 0 0 3021.dat
1 78 -70 -328 -60 0 0 -1 0 1 0 1 0 0 3710.dat
1 78 70 -328 -60 0 0 -1 0 1 0 1 0 0 3710.dat
1 78 -100 -328 -50 1 0 0 0 1 0 0 0 1 3023.dat
1 78 -50 -328 -80 0 0 -1 0 1 0 1 0 0 3710.dat
1 78 50 -328 -80 0 0 -1 0 1 0 1 0 0 3710.dat
1 78 -30 -328 -90 0 0 -1 0 1 0 1 0 0 3623.dat
1 78 30 -328 -90 0 0 -1 0 1 0 1 0 0 3623.dat
1 78 0 -328 -110 0 0 -1 0 1 0 1 0 0 3021.dat
1 92 -90 -328 -70 1 0 0 0 1 0 0 0 1 3024.dat
1 92 90 -328 -70 1 0 0 0 1 0 0 0 1 3024.dat
1 484 -20 -328 100 1 0 0 0 1 0 0 0 1 3795.dat
1 484 -100 -328 70 0 0 -1 0 1 0 1 0 0 3021.dat
1 484 80 -328 80 1 0 0 0 1 0 0 0 1 3020.dat
1 484 -20 -328 70 1 0 0 0 1 0 0 0 1 3666.dat
1 484 130 -328 70 1 0 0 0 1 0 0 0 1 3024.dat
1 484 -50 -328 50 1 0 0 0 1 0 0 0 1 3623.dat
1 484 60 -328 50 1 0 0 0 1 0 0 0 1 3710.dat
1 484 110 -328 50 1 0 0 0 1 0 0 0 1 3024.dat
0 STEP
1 78 -100 -336 -0 0 0 -1 0 1 0 1 0 0 3020.dat
1 78 -70 -336 20 0 0 -1 0 1 0 1 0 0 3023.dat
1 78 90 -336 20 1 0 0 0 1 0 0 0 1 3021.dat
1 78 100 -336 -30 0 0 -1 0 1 0 1 0 0 3021.dat
1 78 -70 -336 -60 0 0 -1 0 1 0 1 0 0 3710.dat
1 78 70 -336 -60 0 0 -1 0 1 0 1 0 0 3710.dat
1 78 -100 -336 -50 1 0 0 0 1 0 0 0 1 3023.dat
1 78 -50 -336 -80 0 0 -1 0 1 0 1 0 0 3710.dat
1 78 50 -336 -80 0 0 -1 0 1 0 1 0 0 3710.dat
1 78 -90 -336 -70 1 0 0 0 1 0 0 0 1 3024.dat
1 78 -30 -336 -90 0 0 -1 0 1 0 1 0 0 3623.dat
1 78 30 -336 -90 0 0 -1 0 1 0 1 0 0 3623.dat
1 78 90 -336 -70 1 0 0 0 1 0 0 0 1 3024.dat
1 78 0 -336 -110 0 0 -1 0 1 0 1 0 0 3021.dat
1 92 -90 -336 -90 1 0 0 0 1 0 0 0 1 3024.dat
1 92 90 -336 -90 1 0 0 0 1 0 0 0 1 3024.dat
1 484 0 -336 100 1 0 0 0 1 0 0 0 1 3034.dat
1 484 -100 -336 70 0 0 -1 0 1 0 1 0 0 3021.dat
1 484 100 -336 70 0 0 -1 0 1 0 1 0 0 3021.dat
1 484 -130 -336 70 1 0 0 0 1 0 0 0 1 3024.dat
1 484 0 -336 70 1 0 0 0 1 0 0 0 1 3460.dat
1 484 130 -336 70 1 0 0 0 1 0 0 0 1 3024.dat
1 484 -50 -336 50 1 0 0 0 1 0 0 0 1 3623.dat
1 484 50 -336 50 1 0 0 0 1 0 0 0 1 3623.dat
0 STEP
1 78 -100 -344 -0 0 0 -1 0 1 0 1 0 0 3020.dat
1 78 100 -344 -0 0 0 -1 0 1 0 1 0 0 3020.dat
1 78 -130 -344 -0 0 0 -1 0 1 0 1 0 0 3023.dat
1 78 130 -344 -0 0 0 -1 0 1 0 1 0 0 3023.dat
1 78 -70 -344 -50 0 0 -1 0 1 0 1 0 0 3623.dat
1 78 70 -344 -50 0 0 -1 0 1 0 1 0 0 3623.dat
1 78 -100 -344 -50 1 0 0 0 1 0 0 0 1 3023.dat
1 78 -50 -344 -80 0 0 -1 0 1 0 1 0 0 3710.dat
1 78 50 -344 -80 0 0 -1 0 1 0 1 0 0 3710.dat
1 78 90 -344 -70 0 0 -1 0 1 0 1 0 0 3623.dat
1 78 110 -344 -50 1 0 0 0 1 0 0 0 1 3024.dat
1 78 -90 -344 -80 0 0 -1 0 1 0 1 0 0 3023.dat
1 78 -30 -344 -90 0 0 -1 0 1 0 1 0 0 3623.dat
1 78 30 -344 -90 0 0 -1 0 1 0 1 0 0 3623.dat
1 78 0 -344 -110 0 0 -1 0 1 0 1 0 0 3021.dat
1 92 -70 -344 -90 1 0 0 0 1 0 0 0 1 3024.dat
1 92 70 -344 -90 1 0 0 0 1 0 0 0 1 3024.dat
1 484 70 -344 100 0 0 -1 0 1 0 1 0 0 3710.dat
1 484 0 -344 100 1 0 0 0 1 0 0 0 1 3795.dat
1 484 -90 -344 80 1 0 0 0 1 0 0 0 1 3021.dat
1 484 100 -344 70 0 0 -1 0 1 0 1 0 0 3021.dat
1 484 -130 -344 60 0 0 -1 0 1 0 1 0 0 3023.dat
1 484 -40 -344 70 1 0 0 0 1 0 0 0 1 3023.dat
1 484 30 -344 70 1 0 0 0 1 0 0 0 1 3623.dat
1 484 -100 -344 50 1 0 0 0 1 0 0 0 1 3023.dat
1 484 60 -344 50 1 0 0 0 1 0 0 0 1 3023.dat
0 STEP
1 78 -100 -352 -0 0 0 -1 0 1 0 1 0 0 3020.dat
1 78 100 -352 -0 0 0 -1 0 1 0 1 0 0 3020.dat
1 78 -130 -352 -0 0 0 -1 0 1 0 1 0 0 3023.dat
1 78 130 -352 -0 0 0 -1 0 1 0 1 0 0 3023.dat
1 78 -70 -352 -50 0 0 -1 0 1 0 1 0 0 3623.dat
1 78 70 -352 -50 0 0 -1 0 1 0 1 0 0 3623.dat
1 78 -100 -352 -50 1 0 0 0 1 0 0 0 1 3023.dat
1 78 90 -352 -70 0 0 -1 0 1 0 1 0 0 3623.dat
1 78 110 -352 -50 1 0 0 0 1 0 0 0 1 3024.dat
1 78 -90 -352 -80 0 0 -1 0 1 0 1 0 0 3023.dat
1 78 -40 -352 -90 0 0 -1 0 1 0 1 0 0 3021.dat
1 78 40 -352 -90 0 0 -1 0 1 0 1 0 0 3021.dat
1 78 0 -352 -110 0 0 -1 0 1 0 1 0 0 3021.dat
1 92 -110 -352 -70 1 0 0 0 1 0 0 0 1 3024.dat
1 92 110 -352 -70 1 0 0 0 1 0 0 0 1 3024.dat
1 92 -70 -352 -90 1 0 0 0 1 0 0 0 1 3024.dat
1 92 70 -352 -90 1 0 0 0 1 0 0 0 1 3024.dat
1 484 60 -352 100 0 0 -1 0 1 0 1 0 0 3020.dat
1 484 0 -352 100 1 0 0 0 1 0 0 0 1 3020.dat
1 484 -100 -352 80 1 0 0 0 1 0 0 0 1 3020.dat
1 484 -50 -352 80 0 0 -1 0 1 0 1 0 0 3023.dat
1 484 90 -352 70 0 0 -1 0 1 0 1 0 0 3623.dat
1 484 -20 -352 70 1 0 0 0 1 0 0 0 1 3023.dat
1 484 30 -352 70 1 0 0 0 1 0 0 0 1 3024.dat
1 484 110 -352 60 0 0 -1 0 1 0 1 0 0 3023.dat
1 484 -110 -352 50 1 0 0 0 1 0 0 0 1 3623.dat
1 484 60 -352 50 1 0 0 0 1 0 0 0 1 3023.dat
0 STEP
1 78 -100 -360 -0 0 0 -1 0 1 0 1 0 0 3020.dat
1 78 100 -360 -0 0 0 -1 0 1 0 1 0 0 3020.dat
1 78 -130 -360 -0 0 0 -1 0 1 0 1 0 0 3023.dat
1 78 130 -360 -0 0 0 -1 0 1 0 1 0 0 3023.dat
1 78 -70 -360 -60 0 0 -1 0 1 0 1 0 0 3710.dat
1 78 70 -360 -60 0 0 -1 0 1 0 1 0 0 3710.dat
1 78 -100 -360 -50 1 0 0 0 1 0 0 0 1 3023.dat
1 78 90 -360 -70 0 0 -1 0 1 0 1 0 0 3623.dat
1 78 110 -360 -50 1 0 0 0 1 0 0 0 1 3024.dat
1 78 -90 -360 -80 0 0 -1 0 1 0 1 0 0 3023.dat
1 78 -40 -360 -90 0 0 -1 0 1 0 1 0 0 3021.dat
1 78 40 -360 -90 0 0 -1 0 1 0 1 0 0 3021.dat
1 78 0 -360 -100 1 0 0 0 1 0 0 0 1 3022.dat
1 78 0 -360 -130 1 0 0 0 1 0 0 0 1 3069b.dat
1 92 -110 -360 -70 1 0 0 0 1 0 0 0 1 3024.dat
1 92 110 -360 -70 1 0 0 0 1 0 0 0 1 3024.dat
1 484 50 -360 100 0 0 -1 0 1 0 1 0 0 3710.dat
1 484 -20 -360 100 1 0 0 0 1 0 0 0 1 3020.dat
1 484 30 -360 90 0 0 -1 0 1 0 1 0 0 3623.dat
1 484 70 -360 80 0 0 -1 0 1 0 1 0 0 3710.dat
1 484 -90 -360 80 1 0 0 0 1 0 0 0 1 3021.dat
1 484 -130 -360 60 0 0 -1 0 1 0 1 0 0 3023.dat
1 484 -40 -360 70 1 0 0 0 1 0 0 0 1 3023.dat
1 484 100 -360 60 1 0 0 0 1 0 0 0 1 3022.dat
1 484 -90 -360 50 1 0 0 0 1 0 0 0 1 3623.dat
1 484 50 -360 50 1 0 0 0 1 0 0 0 1 3024.dat
0 STEP
1 15 -70 -368 -90 1 0 0 0 1 0 0 0 1 3024.dat
1 15 70 -368 -90 1 0 0 0 1 0 0 0 1 3024.dat
1 15 -40 -368 -110 1 0 0 0 1 0 0 0 1 3023.dat
1 15 40 -368 -110 1 0 0 0 1 0 0 0 1 3023.dat
1 78 -100 -368 -20 0 0 -1 0 1 0 1 0 0 3795.dat
1 78 100 -368 -20 0 0 -1 0 1 0 1 0 0 3795.dat
1 78 -130 -368 -0 0 0 -1 0 1 0 1 0 0 3023.dat
1 78 130 -368 -0 0 0 -1 0 1 0 1 0 0 3023.dat
1 78 -70 -368 -50 0 0 -1 0 1 0 1 0 0 3623.dat
1 78 70 -368 -50 0 0 -1 0 1 0 1 0 0 3623.dat
1 78 -40 -368 -80 1 0 0 0 1 0 0 0 1 3022.dat
1 78 40 -368 -80 1 0 0 0 1 0 0 0 1 3022.dat
1 78 -90 -368 -90 1 0 0 0 1 0 0 0 1 3024.dat
1 78 0 -368 -100 1 0 0 0 1 0 0 0 1 3022.dat
1 78 90 -368 -90 1 0 0 0 1 0 0 0 1 3024.dat
1 484 50 -368 100 0 0 -1 0 1 0 1 0 0 3710.dat
1 484 -20 -368 100 1 0 0 0 1 0 0 0 1 3020.dat
1 484 30 -368 90 0 0 -1 0 1 0 1 0 0 3623.dat
1 484 -90 -368 80 1 0 0 0 1 0 0 0 1 3021.dat
1 484 70 -368 70 0 0 -1 0 1 0 1 0 0 3623.dat
1 484 -130 -368 70 1 0 0 0 1 0 0 0 1 3024.dat
1 484 -30 -368 70 1 0 0 0 1 0 0 0 1 3623.dat
1 484 100 -368 60 1 0 0 0 1 0 0 0 1 3022.dat
1 484 -90 -368 50 1 0 0 0 1 0 0 0 1 3623.dat
1 484 50 -368 50 1 0 0 0 1 0 0 0 1 3024.dat
0 STEP
1 15 -70 -376 -90 1 0 0 0 1 0 0 0 1 3024.dat
1 15 70 -376 -90 1 0 0 0 1 0 0 0 1 3024.dat
1 15 -40 -376 -110 1 0 0 0 1 0 0 0 1 3023.dat
1 15 40 -376 -110 1 0 0 0 1 0 0 0 1 3023.dat
1 78 -100 -376 -0 0 0 -1 0 1 0 1 0 0 3020.dat
1 78 100 -376 -0 0 0 -1 0 1 0 1 0 0 3020.dat
1 78 -130 -376 -0 0 0 -1 0 1 0 1 0 0 3023.dat
1 78 130 -376 -0 0 0 -1 0 1 0 1 0 0 3023.dat
1 78 -70 -376 -50 0 0 -1 0 1 0 1 0 0 3623.dat
1 78 70 -376 -50 0 0 -1 0 1 0 1 0 0 3623.dat
1 78 -100 -376 -50 1 0 0 0 1 0 0 0 1 3023.dat
1 78 90 -376 -70 0 0 -1 0 1 0 1 0 0 3623.dat
1 78 110 -376 -50 1 0 0 0 1 0 0 0 1 3024.dat
1 78 -90 -376 -80 0 0 -1 0 1 0 1 0 0 3023.dat
1 78 -40 -376 -80 1 0 0 0 1 0 0 0 1 3022.dat
1 78 40 -376 -80 1 0 0 0 1 0 0 0 1 3022.dat
1 78 0 -376 -100 1 0 0 0 1 0 0 0 1 3022.dat
1 78 -110 -376 -70 1 0 0 0 1 0 0 0 1 3070b.dat
1 78 110 -376 -70 1 0 0 0 1 0 0 0 1 3070b.dat
1 484 -40 -376 100 0 0 -1 0 1 0 1 0 0 3020.dat
1 484 20 -376 100 1 0 0 0 1 0 0 0 1 3020.dat
1 484 -80 -376 70 0 0 -1 0 1 0 1 0 0 3021.dat
1 484 70 -376 70 0 0 -1 0 1 0 1 0 0 3623.dat
1 484 -110 -376 60 0 0 -1 0 1 0 1 0 0 3023.dat
1 484 40 -376 70 1 0 0 0 1 0 0 0 1 3023.dat
1 484 100 -376 60 1 0 0 0 1 0 0 0 1 3022.dat
1 484 50 -376 50 1 0 0 0 1 0 0 0 1 3024.dat
0 STEP
1 0 -50 -384 -110 1 0 0 0 1 0 0 0 1 3024.dat
1 0 50 -384 -110 1 0 0 0 1 0 0 0 1 3024.dat
1 15 -70 -384 -90 1 0 0 0 1 0 0 0 1 3024.dat
1 15 70 -384 -90 1 0 0 0 1 0 0 0 1 3024.dat
1 15 -30 -384 -110 1 0 0 0 1 0 0 0 1 3024.dat
1 15 30 -384 -110 1 0 0 0 1 0 0 0 1 3024.dat
1 78 -100 -384 -0 0 0 -1 0 1 0 1 0 0 3020.dat
1 78 100 -384 -0 0 0 -1 0 1 0 1 0 0 3020.dat
1 78 -130 -384 -0 0 0 -1 0 1 0 1 0 0 3023.dat
1 78 130 -384 -0 0 0 -1 0 1 0 1 0 0 3023.dat
1 78 -70 -384 -50 0 0 -1 0 1 0 1 0 0 3623.dat
1 78 70 -384 -50 0 0 -1 0 1 0 1 0 0 3623.dat
1 78 -100 -384 -50 1 0 0 0 1 0 0 0 1 3023.dat
1 78 -50 -384 -70 0 0 -1 0 1 0 1 0 0 3623.dat
1 78 50 -384 -70 0 0 -1 0 1 0 1 0 0 3623.dat
1 78 90 -384 -70 0 0 -1 0 1 0 1 0 0 3623.dat
1 78 110 -384 -50 1 0 0 0 1 0 0 0 1 3024.dat
1 78 -90 -384 -80 0 0 -1 0 1 0 1 0 0 3023.dat
1 78 -30 -384 -80 0 0 -1 0 1 0 1 0 0 3023.dat
1 78 30 -384 -80 0 0 -1 0 1 0 1 0 0 3023.dat
1 78 0 -384 -100 1 0 0 0 1 0 0 0 1 3022.dat
1 484 -40 -384 100 0 0 -1 0 1 0 1 0 0 3020.dat
1 484 -70 -384 80 0 0 -1 0 1 0 1 0 0 3710.dat
1 484 20 -384 100 1 0 0 0 1 0 0 0 1 3020.dat
1 484 -90 -384 70 0 0 -1 0 1 0 1 0 0 3623.dat
1 484 70 -384 70 0 0 -1 0 1 0 1 0 0 3623.dat
1 484 -110 -384 60 0 0 -1 0 1 0 1 0 0 3023.dat
1 484 40 -384 70 1 0 0 0 1 0 0 0 1 3023.dat
1 484 110 -384 60 1 0 0 0 1 0 0 0 1 3021.dat
1 484 50 -384 50 1 0 0 0 1 0 0 0 1 3024.dat
0 STEP
1 0 -50 -392 -110 1 0 0 0 1 0 0 0 1 3024.dat
1 0 50 -392 -110 1 0 0 0 1 0 0 0 1 3024.dat
1 15 -70 -392 -90 1 0 0 0 1 0 0 0 1 3024.dat
1 15 70 -392 -90 1 0 0 0 1 0 0 0 1 3024.dat
1 15 -30 -392 -110 1 0 0 0 1 0 0 0 1 3024.dat
1 15 30 -392 -110 1 0 0 0 1 0 0 0 1 3024.dat
1 78 -100 -392 -0 0 0 -1 0 1 0 1 0 0 3020.dat
1 78 100 -392 -0 0 0 -1 0 1 0 1 0 0 3020.dat
1 78 -70 -392 -50 0 0 -1 0 1 0 1 0 0 3623.dat
1 78 70 -392 -50 0 0 -1 0 1 0 1 0 0 3623.dat
1 78 -100 -392 -50 1 0 0 0 1 0 0 0 1 3023.dat
1 78 -50 -392 -70 0 0 -1 0 1 0 1 0 0 3623.dat
1 78 50 -392 -70 0 0 -1 0 1 0 1 0 0 3623.dat
1 78 100 -392 -50 1 0 0 0 1 0 0 0 1 3023.dat
1 78 -90 -392 -70 1 0 0 0 1 0 0 0 1 3024.dat
1 78 -30 -392 -80 0 0 -1 0 1 0 1 0 0 3023.dat
1 78 30 -392 -80 0 0 -1 0 1 0 1 0 0 3023.dat
1 78 90 -392 -70 1 0 0 0 1 0 0 0 1 3024.dat
1 78 0 -392 -100 1 0 0 0 1 0 0 0 1 3022.dat
1 78 -90 -392 -90 1 0 0 0 1 0 0 0 1 3070b.dat
1 78 90 -392 -90 1 0 0 0 1 0 0 0 1 3070b.dat
1 484 -40 -392 100 0 0 -1 0 1 0 1 0 0 3020.dat
1 484 -70 -392 80 0 0 -1 0 1 0 1 0 0 3710.dat
1 484 20 -392 100 1 0 0 0 1 0 0 0 1 3020.dat
1 484 -100 -392 70 0 0 -1 0 1 0 1 0 0 3021.dat
1 484 70 -392 70 0 0 -1 0 1 0 1 0 0 3623.dat
1 484 120 -392 70 0 0 -1 0 1 0 1 0 0 3021.dat
1 484 40 -392 70 1 0 0 0 1 0 0 0 1 3023.dat
1 484 90 -392 60 0 0 -1 0 1 0 1 0 0 3023.dat
1 484 50 -392 50 1 0 0 0 1 0 0 0 1 3024.dat
1 484 130 -392 -0 0 0 -1 0 1 0 1 0 0 3710.dat
1 484 -130 -392 -10 0 0 -1 0 1 0 1 0 0 3623.dat
1 484 150 -392 -10 0 0 -1 0 1 0 1 0 0 3623.dat
0 STEP
1 15 -70 -400 -90 1 0 0 0 1 0 0 0 1 3024.dat
1 15 70 -400 -90 1 0 0 0 1 0 0 0 1 3024.dat
1 15 -40 -400 -110 1 0 0 0 1 0 0 0 1 3023.dat
1 15 40 -400 -110 1 0 0 0 1 0 0 0 1 3023.dat
1 78 -100 -400 -0 0 0 -1 0 1 0 1 0 0 3020.dat
1 78 100 -400 -0 0 0 -1 0 1 0 1 0 0 3020.dat
1 78 -70 -400 -50 0 0 -1 0 1 0 1 0 0 3623.dat
1 78 70 -400 -50 0 0 -1 0 1 0 1 0 0 3623.dat
1 78 -100 -400 -50 1 0 0 0 1 0 0 0 1 3023.dat
1 78 -50 -400 -70 0 0 -1 0 1 0 1 0 0 3623.dat
1 78 50 -400 -70 0 0 -1 0 1 0 1 0 0 3623.dat
1 78 100 -400 -50 1 0 0 0 1 0 0 0 1 3023.dat
1 78 -90 -400 -70 1 0 0 0 1 0 0 0 1 3024.dat
1 78 0 -400 -80 1 0 0 0 1 0 0 0 1 3020.dat
1 78 90 -400 -70 1 0 0 0 1 0 0 0 1 3024.dat
1 78 0 -400 -110 1 0 0 0 1 0 0 0 1 3023.dat
1 484 -60 -400 100 0 0 -1 0 1 0 1 0 0 3020.dat
1 484 -30 -400 110 0 0 -1 0 1 0 1 0 0 3623.dat
1 484 20 -400 100 1 0 0 0 1 0 0 0 1 3020.dat
1 484 -100 -400 70 0 0 -1 0 1 0 1 0 0 3021.dat
1 484 100 -400 80 1 0 0 0 1 0 0 0 1 3020.dat
1 484 40 -400 70 1 0 0 0 1 0 0 0 1 3023.dat
1 484 -70 -400 50 1 0 0 0 1 0 0 0 1 3024.dat
1 484 80 -400 50 1 0 0 0 1 0 0 0 1 3710.dat
1 484 130 -400 20 0 0 -1 0 1 0 1 0 0 3710.dat
1 484 -130 -400 -10 0 0 -1 0 1 0 1 0 0 3623.dat
1 484 150 -400 -10 0 0 -1 0 1 0 1 0 0 3623.dat
1 484 130 -400 -30 1 0 0 0 1 0 0 0 1 3024.dat
0 STEP
1 78 -100 -408 -0 0 0 -1 0 1 0 1 0 0 3020.dat
1 78 100 -408 -0 0 0 -1 0 1 0 1 0 0 3020.dat
1 78 -70 -408 -60 0 0 -1 0 1 0 1 0 0 3710.dat
1 78 70 -408 -60 0 0 -1 0 1 0 1 0 0 3710.dat
1 78 -100 -408 -50 1 0 0 0 1 0 0 0 1 3023.dat
1 78 -50 -408 -70 0 0 -1 0 1 0 1 0 0 3623.dat
1 78 50 -408 -70 0 0 -1 0 1 0 1 0 0 3623.dat
1 78 100 -408 -50 1 0 0 0 1 0 0 0 1 3023.dat
1 78 -90 -408 -70 1 0 0 0 1 0 0 0 1 3024.dat
1 78 -30 -408 -90 0 0 -1 0 1 0 1 0 0 3623.dat
1 78 30 -408 -90 0 0 -1 0 1 0 1 0 0 3623.dat
1 78 90 -408 -70 1 0 0 0 1 0 0 0 1 3024.dat
1 78 0 -408 -100 1 0 0 0 1 0 0 0 1 3022.dat
1 78 -50 -408 -110 1 0 0 0 1 0 0 0 1 3070b.dat
1 78 50 -408 -110 1 0 0 0 1 0 0 0 1 3070b.dat
1 484 -60 -408 100 0 0 -1 0 1 0 1 0 0 3020.dat
1 484 20 -408 100 1 0 0 0 1 0 0 0 1 3795.dat
1 484 -100 -408 70 0 0 -1 0 1 0 1 0 0 3021.dat
1 484 110 -408 80 1 0 0 0 1 0 0 0 1 3021.dat
1 484 -130 -408 70 1 0 0 0 1 0 0 0 1 3024.dat
1 484 -30 -408 70 1 0 0 0 1 0 0 0 1 3024.dat
1 484 50 -408 70 1 0 0 0 1 0 0 0 1 3623.dat
1 484 80 -408 50 1 0 0 0 1 0 0 0 1 3710.dat
1 484 130 -408 20 0 0 -1 0 1 0 1 0 0 3710.dat
1 484 -130 -408 -10 0 0 -1 0 1 0 1 0 0 3623.dat
1 484 150 -408 -20 0 0 -1 0 1 0 1 0 0 3023.dat
1 484 130 -408 -30 1 0 0 0 1 0 0 0 1 3024.dat
0 STEP
1 78 -100 -416 -0 0 0 -1 0 1 0 1 0 0 3020.dat
1 78 100 -416 -0 0 0 -1 0 1 0 1 0 0 3020.dat
1 78 -70 -416 -40 0 0 -1 0 1 0 1 0 0 3710.dat
1 78 70 -416 -40 0 0 -1 0 1 0 1 0 0 3710.dat
1 78 -100 -416 -50 1 0 0 0 1 0 0 0 1 3023.dat
1 78 -50 -416 -70 0 0 -1 0 1 0 1 0 0 3623.dat
1 78 50 -416 -70 0 0 -1 0 1 0 1 0 0 3623.dat
1 78 100 -416 -50 1 0 0 0 1 0 0 0 1 3023.dat
1 78 -90 -416 -70 1 0 0 0 1 0 0 0 1 3024.dat
1 78 0 -416 -80 1 0 0 0 1 0 0 0 1 3020.dat
1 78 90 -416 -70 1 0 0 0 1 0 0 0 1 3024.dat
1 78 -70 -416 -90 1 0 0 0 1 0 0 0 1 3024.dat
1 78 70 -416 -90 1 0 0 0 1 0 0 0 1 3024.dat
1 78 0 -416 -110 1 0 0 0 1 0 0 0 1 3710.dat
1 484 0 -416 100 1 0 0 0 1 0 0 0 1 3034.dat
1 484 -100 -416 70 0 0 -1 0 1 0 1 0 0 3021.dat
1 484 100 -416 70 0 0 -1 0 1 0 1 0 0 3021.dat
1 484 -130 -416 20 0 0 -1 0 1 0 1 0 0 3666.dat
1 484 -40 -416 70 1 0 0 0 1 0 0 0 1 3710.dat
1 484 50 -416 70 1 0 0 0 1 0 0 0 1 3623.dat
1 484 130 -416 20 0 0 -1 0 1 0 1 0 0 3666.dat
1 484 70 -416 50 1 0 0 0 1 0 0 0 1 3024.dat
1 484 -150 -416 -10 1 0 0 0 1 0 0 0 1 3024.dat
1 484 150 -416 -20 0 0 -1 0 1 0 1 0 0 3023.dat
0 STEP
1 78 -100 -424 -0 0 0 -1 0 1 0 1 0 0 3020.dat
1 78 -70 -424 -20 0 0 -1 0 1 0 1 0 0 3666.dat
1 78 80 -424 -20 0 0 -1 0 1 0 1 0 0 3795.dat
1 78 110 -424 -0 0 0 -1 0 1 0 1 0 0 3710.dat
1 78 -90 -424 -60 0 0 -1 0 1 0 1 0 0 3023.dat
1 78 -50 -424 -70 0 0 -1 0 1 0 1 0 0 3623.dat
1 78 50 -424 -70 0 0 -1 0 1 0 1 0 0 3623.dat
1 78 0 -424 -80 1 0 0 0 1 0 0 0 1 3020.dat
1 78 -70 -424 -90 1 0 0 0 1 0 0 0 1 3024.dat
1 78 70 -424 -90 1 0 0 0 1 0 0 0 1 3024.dat
1 78 0 -424 -110 1 0 0 0 1 0 0 0 1 3710.dat
1 78 -110 -424 -50 1 0 0 0 1 0 0 0 1 3070b.dat
1 78 110 -424 -50 1 0 0 0 1 0 0 0 1 3070b.dat
1 484 0 -424 100 1 0 0 0 1 0 0 0 1 3795.dat
1 484 70 -424 80 0 0 -1 0 1 0 1 0 0 3710.dat
1 484 -90 -424 80 1 0 0 0 1 0 0 0 1 3021.dat
1 484 100 -424 70 0 0 -1 0 1 0 1 0 0 3021.dat
1 484 -130 -424 20 0 0 -1 0 1 0 1 0 0 3666.dat
1 484 -40 -424 60 1 0 0 0 1 0 0 0 1 3022.dat
1 484 -10 -424 70 1 0 0 0 1 0 0 0 1 3024.dat
1 484 40 -424 70 1 0 0 0 1 0 0 0 1 3023.dat
1 484 -90 -424 50 1 0 0 0 1 0 0 0 1 3623.dat
1 484 50 -424 50 1 0 0 0 1 0 0 0 1 3024.dat
1 484 130 -424 -10 0 0 -1 0 1 0 1 0 0 3623.dat
1 484 -150 -424 -20 0 0 -1 0 1 0 1 0 0 3023.dat
1 484 150 -424 -10 1 0 0 0 1 0 0 0 1 3024.dat
1 484 -60 -424 -110 1 0 0 0 1 0 0 0 1 3023.dat
1 484 60 -424 -110 1 0 0 0 1 0 0 0 1 3023.dat
1 484 -30 -424 -130 1 0 0 0 1 0 0 0 1 3024.dat
1 484 30 -424 -130 1 0 0 0 1 0 0 0 1 3024.dat
0 STEP
1 78 -80 -432 -20 0 0 -1 0 1 0 1 0 0 3795.dat
1 78 80 -432 -20 0 0 -1 0 1 0 1 0 0 3795.dat
1 78 -110 -432 -10 0 0 -1 0 1 0 1 0 0 3623.dat
1 78 110 -432 -10 0 0 -1 0 1 0 1 0 0 3623.dat
1 78 -50 -432 -60 0 0 -1 0 1 0 1 0 0 3710.dat
1 78 50 -432 -60 0 0 -1 0 1 0 1 0 0 3710.dat
1 78 -30 -432 -70 0 0 -1 0 1 0 1 0 0 3623.dat
1 78 30 -432 -70 0 0 -1 0 1 0 1 0 0 3623.dat
1 78 0 -432 -90 0 0 -1 0 1 0 1 0 0 3021.dat
1 78 -70 -432 -90 1 0 0 0 1 0 0 0 1 3024.dat
1 78 70 -432 -90 1 0 0 0 1 0 0 0 1 3024.dat
1 78 -110 -432 30 1 0 0 0 1 0 0 0 1 3070b.dat
1 78 110 -432 30 1 0 0 0 1 0 0 0 1 3070b.dat
1 78 -30 -432 -110 1 0 0 0 1 0 0 0 1 3070b.dat
1 78 30 -432 -110 1 0 0 0 1 0 0 0 1 3070b.dat
1 484 50 -432 100 0 0 -1 0 1 0 1 0 0 3710.dat
1 484 0 -432 100 1 0 0 0 1 0 0 0 1 3020.dat
1 484 70 -432 80 0 0 -1 0 1 0 1 0 0 3710.dat
1 484 -80 -432 80 1 0 0 0 1 0 0 0 1 3020.dat
1 484 90 -432 70 0 0 -1 0 1 0 1 0 0 3623.dat
1 484 -130 -432 20 0 0 -1 0 1 0 1 0 0 3666.dat
1 484 -20 -432 70 1 0 0 0 1 0 0 0 1 3023.dat
1 484 30 -432 60 0 0 -1 0 1 0 1 0 0 3023.dat
1 484 110 -432 60 0 0 -1 0 1 0 1 0 0 3023.dat
1 484 -80 -432 50 1 0 0 0 1 0 0 0 1 3710.dat
1 484 -30 -432 50 1 0 0 0 1 0 0 0 1 3024.dat
1 484 50 -432 50 1 0 0 0 1 0 0 0 1 3024.dat
1 484 130 -432 -10 0 0 -1 0 1 0 1 0 0 3623.dat
1 484 -150 -432 -20 0 0 -1 0 1 0 1 0 0 3023.dat
0 STEP
1 78 -80 -440 -0 0 0 -1 0 1 0 1 0 0 3020.dat
1 78 80 -440 -0 0 0 -1 0 1 0 1 0 0 3020.dat
1 78 -110 -440 -10 1 0 0 0 1 0 0 0 1 3024.dat
1 78 110 -440 -10 1 0 0 0 1 0 0 0 1 3024.dat
1 78 -50 -440 -60 0 0 -1 0 1 0 1 0 0 3710.dat
1 78 50 -440 -60 0 0 -1 0 1 0 1 0 0 3710.dat
1 78 -80 -440 -50 1 0 0 0 1 0 0 0 1 3023.dat
1 78 -30 -440 -70 0 0 -1 0 1 0 1 0 0 3623.dat
1 78 30 -440 -70 0 0 -1 0 1 0 1 0 0 3623.dat
1 78 80 -440 -50 1 0 0 0 1 0 0 0 1 3023.dat
1 78 -70 -440 -70 1 0 0 0 1 0 0 0 1 3024.dat
1 78 0 -440 -80 1 0 0 0 1 0 0 0 1 3022.dat
1 78 70 -440 -70 1 0 0 0 1 0 0 0 1 3024.dat
1 78 -110 -440 10 1 0 0 0 1 0 0 0 1 3070b.dat
1 78 110 -440 10 1 0 0 0 1 0 0 0 1 3070b.dat
1 78 -110 -440 -30 1 0 0 0 1 0 0 0 1 3070b.dat
1 78 110 -440 -30 1 0 0 0 1 0 0 0 1 3070b.dat
1 78 -90 -440 -70 1 0 0 0 1 0 0 0 1 3070b.dat
1 78 90 -440 -70 1 0 0 0 1 0 0 0 1 3070b.dat
1 78 -70 -440 -90 1 0 0 0 1 0 0 0 1 3070b.dat
1 78 70 -440 -90 1 0 0 0 1 0 0 0 1 3070b.dat
1 78 0 -440 -110 1 0 0 0 1 0 0 0 1 3069b.dat
1 484 0 -440 100 1 0 0 0 1 0 0 0 1 3020.dat
1 484 50 -440 80 0 0 -1 0 1 0 1 0 0 3710.dat
1 484 -110 -440 70 0 0 -1 0 1 0 1 0 0 3623.dat
1 484 -50 -440 70 0 0 -1 0 1 0 1 0 0 3623.dat
1 484 70 -440 70 0 0 -1 0 1 0 1 0 0 3623.dat
1 484 -130 -440 70 1 0 0 0 1 0 0 0 1 3024.dat
1 484 -80 -440 60 1 0 0 0 1 0 0 0 1 3022.dat
1 484 0 -440 70 1 0 0 0 1 0 0 0 1 3710.dat
1 484 100 -440 60 1 0 0 0 1 0 0 0 1 3022.dat
1 484 -30 -440 50 1 0 0 0 1 0 0 0 1 3024.dat
1 484 30 -440 50 1 0 0 0 1 0 0 0 1 3024.dat
1 484 -130 -440 -10 0 0 -1 0 1 0 1 0 0 3623.dat
1 484 130 -440 -10 0 0 -1 0 1 0 1 0 0 3623.dat
1 484 -150 -440 -20 0 0 -1 0 1 0 1 0 0 3023.dat
0 STEP
1 78 -80 -448 -0 0 0 -1 0 1 0 1 0 0 3020.dat
1 78 70 -448 30 1 0 0 0 1 0 0 0 1 3623.dat
1 78 80 -448 -20 0 0 -1 0 1 0 1 0 0 3020.dat
1 78 -50 -448 -60 0 0 -1 0 1 0 1 0 0 3710.dat
1 78 50 -448 -60 0 0 -1 0 1 0 1 0 0 3710.dat
1 78 -80 -448 -50 1 0 0 0 1 0 0 0 1 3023.dat
1 78 -30 -448 -70 0 0 -1 0 1 0 1 0 0 3623.dat
1 78 30 -448 -70 0 0 -1 0 1 0 1 0 0 3623.dat
1 78 -70 -448 -70 1 0 0 0 1 0 0 0 1 3024.dat
1 78 0 -448 -80 1 0 0 0 1 0 0 0 1 3022.dat
1 78 70 -448 -70 1 0 0 0 1 0 0 0 1 3024.dat
1 78 -110 -448 -10 1 0 0 0 1 0 0 0 1 3070b.dat
1 78 110 -448 -10 1 0 0 0 1 0 0 0 1 3070b.dat
1 484 0 -448 100 1 0 0 0 1 0 0 0 1 3020.dat
1 484 50 -448 80 0 0 -1 0 1 0 1 0 0 3710.dat
1 484 -50 -448 70 0 0 -1 0 1 0 1 0 0 3623.dat
1 484 -90 -448 60 1 0 0 0 1 0 0 0 1 3021.dat
1 484 0 -448 70 1 0 0 0 1 0 0 0 1 3710.dat
1 484 80 -448 60 1 0 0 0 1 0 0 0 1 3022.dat
1 484 -30 -448 50 1 0 0 0 1 0 0 0 1 3024.dat
1 484 30 -448 50 1 0 0 0 1 0 0 0 1 3024.dat
1 484 110 -448 50 1 0 0 0 1 0 0 0 1 3024.dat
1 484 -130 -448 -10 0 0 -1 0 1 0 1 0 0 3623.dat
1 484 -150 -448 -10 1 0 0 0 1 0 0 0 1 3024.dat
1 484 130 -448 -20 0 0 -1 0 1 0 1 0 0 3023.dat
0 STEP
1 78 -80 -456 -0 0 0 -1 0 1 0 1 0 0 3020.dat
1 78 70 -456 30 1 0 0 0 1 0 0 0 1 3623.dat
1 78 80 -456 -20 0 0 -1 0 1 0 1 0 0 3020.dat
1 78 -50 -456 -60 0 0 -1 0 1 0 1 0 0 3710.dat
1 78 50 -456 -60 0 0 -1 0 1 0 1 0 0 3710.dat
1 78 -80 -456 -50 1 0 0 0 1 0 0 0 1 3023.dat
1 78 -30 -456 -70 0 0 -1 0 1 0 1 0 0 3623.dat
1 78 30 -456 -70 0 0 -1 0 1 0 1 0 0 3623.dat
1 78 -70 -456 -70 1 0 0 0 1 0 0 0 1 3024.dat
1 78 0 -456 -80 1 0 0 0 1 0 0 0 1 3022.dat
1 78 70 -456 -70 1 0 0 0 1 0 0 0 1 3024.dat
1 484 0 -456 100 1 0 0 0 1 0 0 0 1 3020.dat
1 484 -50 -456 70 0 0 -1 0 1 0 1 0 0 3623.dat
1 484 50 -456 70 0 0 -1 0 1 0 1 0 0 3623.dat
1 484 -80 -456 60 1 0 0 0 1 0 0 0 1 3022.dat
1 484 0 -456 70 1 0 0 0 1 0 0 0 1 3710.dat
1 484 80 -456 60 1 0 0 0 1 0 0 0 1 3022.dat
1 484 -30 -456 50 1 0 0 0 1 0 0 0 1 3024.dat
1 484 20 -456 50 1 0 0 0 1 0 0 0 1 3023.dat
1 484 110 -456 50 1 0 0 0 1 0 0 0 1 3024.dat
1 484 -130 -456 -20 0 0 -1 0 1 0 1 0 0 3023.dat
1 484 130 -456 -20 0 0 -1 0 1 0 1 0 0 3023.dat
0 STEP
1 78 -80 -464 -0 0 0 -1 0 1 0 1 0 0 3020.dat
1 78 80 -464 -0 0 0 -1 0 1 0 1 0 0 3020.dat
1 78 -80 -464 -50 1 0 0 0 1 0 0 0 1 3023.dat
1 78 80 -464 -50 1 0 0 0 1 0 0 0 1 3023.dat
1 78 -70 -464 -70 1 0 0 0 1 0 0 0 1 3024.dat
1 78 0 -464 -80 1 0 0 0 1 0 0 0 1 3022.dat
1 78 70 -464 -70 1 0 0 0 1 0 0 0 1 3024.dat
1 484 0 -464 100 1 0 0 0 1 0 0 0 1 3020.dat
1 484 -50 -464 70 0 0 -1 0 1 0 1 0 0 3623.dat
1 484 50 -464 60 0 0 -1 0 1 0 1 0 0 3710.dat
1 484 -80 -464 60 1 0 0 0 1 0 0 0 1 3022.dat
1 484 0 -464 70 1 0 0 0 1 0 0 0 1 3710.dat
1 484 70 -464 60 0 0 -1 0 1 0 1 0 0 3023.dat
1 484 -30 -464 50 1 0 0 0 1 0 0 0 1 3024.dat
1 484 20 -464 50 1 0 0 0 1 0 0 0 1 3023.dat
1 484 100 -464 50 1 0 0 0 1 0 0 0 1 3023.dat
1 484 110 -464 -0 0 0 -1 0 1 0 1 0 0 3710.dat
1 484 -110 -464 -20 0 0 -1 0 1 0 1 0 0 3710.dat
1 484 130 -464 -10 0 0 -1 0 1 0 1 0 0 3623.dat
1 484 -130 -464 -20 0 0 -1 0 1 0 1 0 0 3023.dat
1 484 -50 -464 -60 0 0 -1 0 1 0 1 0 0 3710.dat
1 484 50 -464 -60 0 0 -1 0 1 0 1 0 0 3710.dat
1 484 -30 -464 -80 0 0 -1 0 1 0 1 0 0 3710.dat
1 484 30 -464 -80 0 0 -1 0 1 0 1 0 0 3710.dat
1 484 110 -464 -50 1 0 0 0 1 0 0 0 1 3024.dat
1 484 -50 -464 -110 1 0 0 0 1 0 0 0 1 3024.dat
1 484 -30 -464 -130 1 0 0 0 1 0 0 0 1 3024.dat
1 484 30 -464 -130 1 0 0 0 1 0 0 0 1 3024.dat
0 STEP
1 484 -20 -472 80 0 0 -1 0 1 0 1 0 0 3020.dat
1 484 10 -472 80 0 0 -1 0 1 0 1 0 0 3710.dat
1 484 -50 -472 70 0 0 -1 0 1 0 1 0 0 3623.dat
1 484 30 -472 70 0 0 -1 0 1 0 1 0 0 3623.dat
1 484 -80 -472 -0 0 0 -1 0 1 0 1 0 0 3034.dat
1 484 60 -472 50 0 0 -1 0 1 0 1 0 0 3021.dat
1 484 100 -472 -0 0 0 -1 0 1 0 1 0 0 3795.dat
1 484 -110 -472 -20 0 0 -1 0 1 0 1 0 0 3710.dat
1 484 70 -472 -40 0 0 -1 0 1 0 1 0 0 3666.dat
1 484 130 -472 -10 0 0 -1 0 1 0 1 0 0 3623.dat
1 484 -130 -472 -20 0 0 -1 0 1 0 1 0 0 3023.dat
1 484 -50 -472 -60 0 0 -1 0 1 0 1 0 0 3710.dat
1 484 50 -472 -60 0 0 -1 0 1 0 1 0 0 3710.dat
1 484 -30 -472 -80 0 0 -1 0 1 0 1 0 0 3710.dat
1 484 30 -472 -80 0 0 -1 0 1 0 1 0 0 3710.dat
1 484 0 -472 -100 0 0 -1 0 1 0 1 0 0 3020.dat
1 484 90 -472 -80 0 0 -1 0 1 0 1 0 0 3023.dat
1 484 -80 -472 -90 1 0 0 0 1 0 0 0 1 3023.dat
1 484 -50 -472 -110 1 0 0 0 1 0 0 0 1 3024.dat
0 STEP
1 484 -20 -480 80 0 0 -1 0 1 0 1 0 0 3020.dat
1 484 -50 -480 70 0 0 -1 0 1 0 1 0 0 3623.dat
1 484 20 -480 70 0 0 -1 0 1 0 1 0 0 3021.dat
1 484 -80 -480 -0 0 0 -1 0 1 0 1 0 0 3034.dat
1 484 60 -480 50 0 0 -1 0 1 0 1 0 0 3021.dat
1 484 100 -480 -0 0 0 -1 0 1 0 1 0 0 3795.dat
1 484 -110 -480 -20 0 0 -1 0 1 0 1 0 0 3710.dat
1 484 70 -480 10 1 0 0 0 1 0 0 0 1 3024.dat
1 484 130 -480 -10 0 0 -1 0 1 0 1 0 0 3623.dat
1 484 -130 -480 -10 1 0 0 0 1 0 0 0 1 3024.dat
1 484 -50 -480 -60 0 0 -1 0 1 0 1 0 0 3710.dat
1 484 60 -480 -60 0 0 -1 0 1 0 1 0 0 3020.dat
1 484 -30 -480 -80 0 0 -1 0 1 0 1 0 0 3710.dat
1 484 30 -480 -80 0 0 -1 0 1 0 1 0 0 3710.dat
1 484 0 -480 -90 0 0 -1 0 1 0 1 0 0 3021.dat
1 484 90 -480 -80 0 0 -1 0 1 0 1 0 0 3023.dat
1 484 -80 -480 -90 1 0 0 0 1 0 0 0 1 3023.dat
1 484 -50 -480 -110 1 0 0 0 1 0 0 0 1 3024.dat
1 484 -10 -480 -130 1 0 0 0 1 0 0 0 1 3024.dat
0 STEP
1 484 0 -488 80 1 0 0 0 1 0 0 0 1 3020.dat
1 484 -80 -488 -0 0 0 -1 0 1 0 1 0 0 3034.dat
1 484 -50 -488 50 0 0 -1 0 1 0 1 0 0 3623.dat
1 484 60 -488 50 0 0 -1 0 1 0 1 0 0 3021.dat
1 484 0 -488 50 1 0 0 0 1 0 0 0 1 3710.dat
1 484 100 -488 -0 0 0 -1 0 1 0 1 0 0 3795.dat
1 484 -20 -488 30 1 0 0 0 1 0 0 0 1 3023.dat
1 484 -110 -488 -20 0 0 -1 0 1 0 1 0 0 3710.dat
1 484 70 -488 -40 0 0 -1 0 1 0 1 0 0 3666.dat
1 484 -130 -488 -20 0 0 -1 0 1 0 1 0 0 3023.dat
1 484 130 -488 -20 0 0 -1 0 1 0 1 0 0 3023.dat
1 484 0 -488 -60 1 0 0 0 1 0 0 0 1 3795.dat
1 484 90 -488 -80 0 0 -1 0 1 0 1 0 0 3023.dat
1 484 -20 -488 -90 1 0 0 0 1 0 0 0 1 3460.dat
1 484 -10 -488 -110 1 0 0 0 1 0 0 0 1 3623.dat
0 STEP
1 484 10 -496 80 1 0 0 0 1 0 0 0 1 3021.dat
1 484 -80 -496 -0 0 0 -1 0 1 0 1 0 0 3034.dat
1 484 -40 -496 50 0 0 -1 0 1 0 1 0 0 3021.dat
1 484 60 -496 50 0 0 -1 0 1 0 1 0 0 3021.dat
1 484 10 -496 50 1 0 0 0 1 0 0 0 1 3623.dat
1 484 90 -496 -20 0 0 -1 0 1 0 1 0 0 3460.dat
1 484 -10 -496 30 1 0 0 0 1 0 0 0 1 3024.dat
1 484 30 -496 30 1 0 0 0 1 0 0 0 1 3024.dat
1 484 110 -496 -0 0 0 -1 0 1 0 1 0 0 3710.dat
1 484 -110 -496 -20 0 0 -1 0 1 0 1 0 0 3710.dat
1 484 -50 -496 10 1 0 0 0 1 0 0 0 1 3024.dat
1 484 70 -496 -40 0 0 -1 0 1 0 1 0 0 3666.dat
1 484 -130 -496 -20 0 0 -1 0 1 0 1 0 0 3023.dat
1 484 130 -496 -20 0 0 -1 0 1 0 1 0 0 3023.dat
1 484 -50 -496 -60 0 0 -1 0 1 0 1 0 0 3710.dat
1 484 0 -496 -60 1 0 0 0 1 0 0 0 1 3020.dat
1 484 50 -496 -70 0 0 -1 0 1 0 1 0 0 3623.dat
1 484 110 -496 -50 1 0 0 0 1 0 0 0 1 3024.dat
1 484 -70 -496 -90 1 0 0 0 1 0 0 0 1 3024.dat
1 484 0 -496 -90 1 0 0 0 1 0 0 0 1 3710.dat
1 484 10 -496 -110 1 0 0 0 1 0 0 0 1 3024.dat
0 STEP
1 484 0 -504 60 0 0 -1 0 1 0 1 0 0 3020.dat
1 484 30 -504 60 0 0 -1 0 1 0 1 0 0 3710.dat
1 484 -30 -504 -0 0 0 -1 0 1 0 1 0 0 3460.dat
1 484 60 -504 -0 0 0 -1 0 1 0 1 0 0 3034.dat
1 484 -80 -504 -0 0 0 -1 0 1 0 1 0 0 3795.dat
1 484 -50 -504 -20 0 0 -1 0 1 0 1 0 0 3460.dat
1 484 90 -504 -0 0 0 -1 0 1 0 1 0 0 3666.dat
1 484 -110 -504 -10 0 0 -1 0 1 0 1 0 0 3623.dat
1 484 110 -504 -10 0 0 -1 0 1 0 1 0 0 3623.dat
1 484 -130 -504 -20 0 0 -1 0 1 0 1 0 0 3023.dat
1 484 10 -504 -60 1 0 0 0 1 0 0 0 1 3021.dat
1 484 -80 -504 -70 1 0 0 0 1 0 0 0 1 3023.dat
1 484 90 -504 -70 1 0 0 0 1 0 0 0 1 3024.dat
1 484 -70 -504 -90 1 0 0 0 1 0 0 0 1 3024.dat
1 484 -30 -504 -90 1 0 0 0 1 0 0 0 1 3024.dat
1 484 50 -504 -90 1 0 0 0 1 0 0 0 1 3623.dat
0 STEP
1 484 0 -512 60 0 0 -1 0 1 0 1 0 0 3020.dat
1 484 30 -512 -0 0 0 -1 0 1 0 1 0 0 4477.dat
1 484 -30 -512 -0 0 0 -1 0 1 0 1 0 0 3460.dat
1 484 50 -512 -0 0 0 -1 0 1 0 1 0 0 3460.dat
1 484 -60 -512 -0 0 0 -1 0 1 0 1 0 0 3795.dat
1 484 80 -512 -0 0 0 -1 0 1 0 1 0 0 3795.dat
1 484 -90 -512 -0 0 0 -1 0 1 0 1 0 0 3710.dat
1 484 -120 -512 -10 1 0 0 0 1 0 0 0 1 3023.dat
1 484 -110 -512 -30 1 0 0 0 1 0 0 0 1 3024.dat
1 484 -90 -512 -50 1 0 0 0 1 0 0 0 1 3024.dat
1 484 0 -512 -60 1 0 0 0 1 0 0 0 1 3022.dat
1 484 -60 -512 -70 1 0 0 0 1 0 0 0 1 3023.dat
1 484 80 -512 -70 1 0 0 0 1 0 0 0 1 3023.dat
1 484 60 -512 -90 1 0 0 0 1 0 0 0 1 3023.dat
0 STEP
1 484 -10 -520 20 0 0 -1 0 1 0 1 0 0 3460.dat
1 484 20 -520 60 0 0 -1 0 1 0 1 0 0 3020.dat
1 484 50 -520 -0 0 0 -1 0 1 0 1 0 0 3460.dat
1 484 -50 -520 40 1 0 0 0 1 0 0 0 1 3021.dat
1 484 70 -520 -0 0 0 -1 0 1 0 1 0 0 3666.dat
1 484 90 -520 20 0 0 -1 0 1 0 1 0 0 3023.dat
1 484 -60 -520 10 1 0 0 0 1 0 0 0 1 3710.dat
1 484 30 -520 -40 0 0 -1 0 1 0 1 0 0 3666.dat
1 484 -110 -520 -10 1 0 0 0 1 0 0 0 1 3024.dat
1 484 -40 -520 -40 0 0 -1 0 1 0 1 0 0 3020.dat
1 484 10 -520 -50 0 0 -1 0 1 0 1 0 0 3623.dat
1 484 -70 -520 -60 0 0 -1 0 1 0 1 0 0 3023.dat
1 484 -10 -520 -70 1 0 0 0 1 0 0 0 1 3024.dat
1 484 70 -520 -70 1 0 0 0 1 0 0 0 1 3024.dat
1 484 50 -520 -90 1 0 0 0 1 0 0 0 1 3024.dat
0 STEP
1 484 0 -528 20 0 0 -1 0 1 0 1 0 0 3034.dat
1 484 30 -528 -0 0 0 -1 0 1 0 1 0 0 3460.dat
1 484 -40 -528 -0 0 0 -1 0 1 0 1 0 0 3795.dat
1 484 50 -528 -0 0 0 -1 0 1 0 1 0 0 3666.dat
1 484 70 -528 30 0 0 -1 0 1 0 1 0 0 3623.dat
1 484 -70 -528 20 0 0 -1 0 1 0 1 0 0 3023.dat
1 484 70 -528 -60 0 0 -1 0 1 0 1 0 0 3023.dat
1 484 -20 -528 -70 1 0 0 0 1 0 0 0 1 3710.dat
1 484 50 -528 -70 1 0 0 0 1 0 0 0 1 3024.dat
0 STEP
1 484 0 -536 20 0 0 -1 0 1 0 1 0 0 3034.dat
1 484 30 -536 -0 0 0 -1 0 1 0 1 0 0 3460.dat
1 484 -40 -536 20 0 0 -1 0 1 0 1 0 0 3020.dat
1 484 50 -536 -0 0 0 -1 0 1 0 1 0 0 3666.dat
1 484 -70 -536 30 1 0 0 0 1 0 0 0 1 3024.dat
1 484 70 -536 20 0 0 -1 0 1 0 1 0 0 3023.dat
1 484 -30 -536 -50 0 0 -1 0 1 0 1 0 0 3623.dat
1 484 -50 -536 -60 0 0 -1 0 1 0 1 0 0 3023.dat
1 484 -10 -536 -70 1 0 0 0 1 0 0 0 1 3024.dat
1 484 50 -536 -70 1 0 0 0 1 0 0 0 1 3024.dat
0 STEP
