0 Professor Harari
0 Name: harari.ldr
0 Author: aitutors.me brick-built faculty
0 !LICENSE Model: see repository licence; part geometry LDraw.org CC BY 4.0
0 // units: LDU, -y up
0 // 1600 parts, one step per plate layer

1 72 -120 -8 80 1 0 0 0 1 0 0 0 1 3029.dat
1 72 120 -8 80 1 0 0 0 1 0 0 0 1 3029.dat
1 72 -120 -8 -0 1 0 0 0 1 0 0 0 1 3029.dat
1 72 120 -8 -0 1 0 0 0 1 0 0 0 1 3029.dat
1 72 -120 -8 -80 1 0 0 0 1 0 0 0 1 3029.dat
1 72 120 -8 -80 1 0 0 0 1 0 0 0 1 3029.dat
1 72 -120 -8 -140 1 0 0 0 1 0 0 0 1 2445.dat
1 72 120 -8 -140 1 0 0 0 1 0 0 0 1 2445.dat
0 STEP
1 72 -120 -16 80 1 0 0 0 1 0 0 0 1 3029.dat
1 72 120 -16 80 1 0 0 0 1 0 0 0 1 3029.dat
1 72 -120 -16 -0 1 0 0 0 1 0 0 0 1 3029.dat
1 72 120 -16 -0 1 0 0 0 1 0 0 0 1 3029.dat
1 72 -120 -16 -80 1 0 0 0 1 0 0 0 1 3029.dat
1 72 120 -16 -80 1 0 0 0 1 0 0 0 1 3029.dat
1 72 -120 -16 -140 1 0 0 0 1 0 0 0 1 2445.dat
1 72 120 -16 -140 1 0 0 0 1 0 0 0 1 2445.dat
0 STEP
1 72 0 -24 80 1 0 0 0 1 0 0 0 1 3832.dat
1 72 -160 -24 -0 0 0 -1 0 1 0 1 0 0 3034.dat
1 72 -120 -24 60 1 0 0 0 1 0 0 0 1 3022.dat
1 72 140 -24 60 1 0 0 0 1 0 0 0 1 3020.dat
1 72 -80 -24 50 1 0 0 0 1 0 0 0 1 3023.dat
1 72 80 -24 50 1 0 0 0 1 0 0 0 1 3023.dat
1 72 160 -24 -20 0 0 -1 0 1 0 1 0 0 3795.dat
1 72 -100 -24 -60 1 0 0 0 1 0 0 0 1 3020.dat
1 72 100 -24 -60 1 0 0 0 1 0 0 0 1 3020.dat
1 72 0 -24 -80 1 0 0 0 1 0 0 0 1 3795.dat
1 72 -80 -24 -90 1 0 0 0 1 0 0 0 1 3023.dat
1 72 80 -24 -90 1 0 0 0 1 0 0 0 1 3023.dat
1 72 -160 -24 110 1 0 0 0 1 0 0 0 1 4162.dat
1 72 0 -24 110 1 0 0 0 1 0 0 0 1 4162.dat
1 72 160 -24 110 1 0 0 0 1 0 0 0 1 4162.dat
1 72 -230 -24 20 0 0 -1 0 1 0 1 0 0 4162.dat
1 72 -210 -24 20 0 0 -1 0 1 0 1 0 0 4162.dat
1 72 -190 -24 20 0 0 -1 0 1 0 1 0 0 4162.dat
1 72 -140 -24 90 1 0 0 0 1 0 0 0 1 2431.dat
1 72 160 -24 90 1 0 0 0 1 0 0 0 1 6636.dat
1 72 230 -24 20 0 0 -1 0 1 0 1 0 0 4162.dat
1 72 190 -24 -0 0 0 -1 0 1 0 1 0 0 4162.dat
1 72 210 -24 -0 0 0 -1 0 1 0 1 0 0 4162.dat
1 72 -230 -24 -100 0 0 -1 0 1 0 1 0 0 2431.dat
1 72 -210 -24 -100 0 0 -1 0 1 0 1 0 0 2431.dat
1 72 -190 -24 -100 0 0 -1 0 1 0 1 0 0 2431.dat
1 72 230 -24 -100 0 0 -1 0 1 0 1 0 0 2431.dat
1 72 -140 -24 -90 1 0 0 0 1 0 0 0 1 2431.dat
1 72 160 -24 -90 1 0 0 0 1 0 0 0 1 6636.dat
1 72 -100 -24 -110 1 0 0 0 1 0 0 0 1 4162.dat
1 72 60 -24 -110 1 0 0 0 1 0 0 0 1 4162.dat
1 72 180 -24 -110 1 0 0 0 1 0 0 0 1 2431.dat
1 72 -100 -24 -130 1 0 0 0 1 0 0 0 1 4162.dat
1 72 60 -24 -130 1 0 0 0 1 0 0 0 1 4162.dat
1 72 180 -24 -130 1 0 0 0 1 0 0 0 1 2431.dat
1 72 -160 -24 -150 1 0 0 0 1 0 0 0 1 4162.dat
1 72 0 -24 -150 1 0 0 0 1 0 0 0 1 4162.dat
1 72 160 -24 -150 1 0 0 0 1 0 0 0 1 4162.dat
0 STEP
1 70 0 -32 80 1 0 0 0 1 0 0 0 1 3832.dat
1 70 -160 -32 -0 0 0 -1 0 1 0 1 0 0 3034.dat
1 70 -120 -32 60 1 0 0 0 1 0 0 0 1 3022.dat
1 70 140 -32 60 1 0 0 0 1 0 0 0 1 3020.dat
1 70 -80 -32 50 1 0 0 0 1 0 0 0 1 3023.dat
1 70 80 -32 50 1 0 0 0 1 0 0 0 1 3023.dat
1 70 160 -32 -20 0 0 -1 0 1 0 1 0 0 3795.dat
1 70 -100 -32 -60 1 0 0 0 1 0 0 0 1 3020.dat
1 70 100 -32 -60 1 0 0 0 1 0 0 0 1 3020.dat
1 70 0 -32 -80 1 0 0 0 1 0 0 0 1 3795.dat
1 70 -80 -32 -90 1 0 0 0 1 0 0 0 1 3023.dat
1 70 80 -32 -90 1 0 0 0 1 0 0 0 1 3023.dat
0 STEP
1 19 -180 -40 -20 1 0 0 0 1 0 0 0 1 3022.dat
1 19 180 -40 -20 1 0 0 0 1 0 0 0 1 3022.dat
1 19 -150 -40 -30 1 0 0 0 1 0 0 0 1 3024.dat
1 19 150 -40 -30 1 0 0 0 1 0 0 0 1 3024.dat
1 70 0 -40 80 1 0 0 0 1 0 0 0 1 3832.dat
1 70 -140 -40 60 1 0 0 0 1 0 0 0 1 3020.dat
1 70 140 -40 60 1 0 0 0 1 0 0 0 1 3020.dat
1 70 -80 -40 50 1 0 0 0 1 0 0 0 1 3023.dat
1 70 80 -40 50 1 0 0 0 1 0 0 0 1 3023.dat
1 70 -160 -40 20 1 0 0 0 1 0 0 0 1 3022.dat
1 70 160 -40 20 1 0 0 0 1 0 0 0 1 3022.dat
1 70 -150 -40 -10 1 0 0 0 1 0 0 0 1 3024.dat
1 70 150 -40 -10 1 0 0 0 1 0 0 0 1 3024.dat
1 70 -120 -40 -60 1 0 0 0 1 0 0 0 1 3795.dat
1 70 120 -40 -60 1 0 0 0 1 0 0 0 1 3795.dat
1 70 0 -40 -80 1 0 0 0 1 0 0 0 1 3795.dat
1 70 -80 -40 -90 1 0 0 0 1 0 0 0 1 3023.dat
1 70 80 -40 -90 1 0 0 0 1 0 0 0 1 3023.dat
0 STEP
1 19 -170 -48 -20 0 0 -1 0 1 0 1 0 0 3710.dat
1 19 170 -48 -20 0 0 -1 0 1 0 1 0 0 3710.dat
1 19 -190 -48 -20 0 0 -1 0 1 0 1 0 0 3023.dat
1 19 -150 -48 -30 0 0 -1 0 1 0 1 0 0 3623.dat
1 19 150 -48 -30 0 0 -1 0 1 0 1 0 0 3623.dat
1 19 190 -48 -20 0 0 -1 0 1 0 1 0 0 3023.dat
1 19 -130 -48 -50 1 0 0 0 1 0 0 0 1 3024.dat
1 19 130 -48 -50 1 0 0 0 1 0 0 0 1 3024.dat
1 70 0 -48 80 1 0 0 0 1 0 0 0 1 3832.dat
1 70 -140 -48 60 1 0 0 0 1 0 0 0 1 3020.dat
1 70 140 -48 60 1 0 0 0 1 0 0 0 1 3020.dat
1 70 -80 -48 50 1 0 0 0 1 0 0 0 1 3023.dat
1 70 80 -48 50 1 0 0 0 1 0 0 0 1 3023.dat
1 70 -160 -48 30 1 0 0 0 1 0 0 0 1 3023.dat
1 70 160 -48 30 1 0 0 0 1 0 0 0 1 3023.dat
1 70 -150 -48 10 1 0 0 0 1 0 0 0 1 3024.dat
1 70 150 -48 10 1 0 0 0 1 0 0 0 1 3024.dat
1 70 -90 -48 -60 1 0 0 0 1 0 0 0 1 3021.dat
1 70 90 -48 -60 1 0 0 0 1 0 0 0 1 3021.dat
1 70 -150 -48 -70 1 0 0 0 1 0 0 0 1 3623.dat
1 70 0 -48 -80 1 0 0 0 1 0 0 0 1 3795.dat
1 70 150 -48 -70 1 0 0 0 1 0 0 0 1 3623.dat
1 70 -80 -48 -90 1 0 0 0 1 0 0 0 1 3023.dat
1 70 80 -48 -90 1 0 0 0 1 0 0 0 1 3023.dat
0 STEP
1 19 -180 -56 -20 0 0 -1 0 1 0 1 0 0 3020.dat
1 19 180 -56 -20 0 0 -1 0 1 0 1 0 0 3020.dat
1 19 -210 -56 -10 1 0 0 0 1 0 0 0 1 3024.dat
1 19 -150 -56 -40 0 0 -1 0 1 0 1 0 0 3710.dat
1 19 150 -56 -40 0 0 -1 0 1 0 1 0 0 3710.dat
1 19 210 -56 -10 1 0 0 0 1 0 0 0 1 3024.dat
1 19 -130 -56 -60 0 0 -1 0 1 0 1 0 0 3023.dat
1 19 130 -56 -60 0 0 -1 0 1 0 1 0 0 3023.dat
1 19 -110 -56 -70 1 0 0 0 1 0 0 0 1 3024.dat
1 19 110 -56 -70 1 0 0 0 1 0 0 0 1 3024.dat
1 70 0 -56 80 1 0 0 0 1 0 0 0 1 3832.dat
1 70 -140 -56 60 1 0 0 0 1 0 0 0 1 3020.dat
1 70 140 -56 60 1 0 0 0 1 0 0 0 1 3020.dat
1 70 -80 -56 50 1 0 0 0 1 0 0 0 1 3023.dat
1 70 80 -56 50 1 0 0 0 1 0 0 0 1 3023.dat
1 70 -160 -56 30 1 0 0 0 1 0 0 0 1 3023.dat
1 70 160 -56 30 1 0 0 0 1 0 0 0 1 3023.dat
1 70 -150 -56 10 1 0 0 0 1 0 0 0 1 3024.dat
1 70 150 -56 10 1 0 0 0 1 0 0 0 1 3024.dat
1 70 -90 -56 -50 1 0 0 0 1 0 0 0 1 3623.dat
1 70 80 -56 -70 0 0 -1 0 1 0 1 0 0 3021.dat
1 70 110 -56 -50 1 0 0 0 1 0 0 0 1 3024.dat
1 70 -170 -56 -70 1 0 0 0 1 0 0 0 1 3024.dat
1 70 -20 -56 -80 1 0 0 0 1 0 0 0 1 3034.dat
1 70 170 -56 -70 1 0 0 0 1 0 0 0 1 3024.dat
0 STEP
1 19 -180 -64 -20 0 0 -1 0 1 0 1 0 0 3020.dat
1 19 -150 -64 -20 0 0 -1 0 1 0 1 0 0 3710.dat
1 19 160 -64 -20 0 0 -1 0 1 0 1 0 0 3020.dat
1 19 190 -64 -20 0 0 -1 0 1 0 1 0 0 3710.dat
1 19 -210 -64 -20 0 0 -1 0 1 0 1 0 0 3023.dat
1 19 210 -64 -20 0 0 -1 0 1 0 1 0 0 3023.dat
1 19 -120 -64 -70 0 0 -1 0 1 0 1 0 0 3021.dat
1 19 120 -64 -70 0 0 -1 0 1 0 1 0 0 3021.dat
1 19 -160 -64 -70 1 0 0 0 1 0 0 0 1 3023.dat
1 19 160 -64 -70 1 0 0 0 1 0 0 0 1 3023.dat
1 19 -90 -64 -90 1 0 0 0 1 0 0 0 1 3024.dat
1 19 90 -64 -90 1 0 0 0 1 0 0 0 1 3024.dat
1 70 0 -64 80 1 0 0 0 1 0 0 0 1 3832.dat
1 70 -140 -64 60 1 0 0 0 1 0 0 0 1 3020.dat
1 70 140 -64 60 1 0 0 0 1 0 0 0 1 3020.dat
1 70 -80 -64 50 1 0 0 0 1 0 0 0 1 3023.dat
1 70 80 -64 50 1 0 0 0 1 0 0 0 1 3023.dat
1 70 -160 -64 30 1 0 0 0 1 0 0 0 1 3023.dat
1 70 160 -64 30 1 0 0 0 1 0 0 0 1 3023.dat
1 70 -80 -64 -60 1 0 0 0 1 0 0 0 1 3022.dat
1 70 80 -64 -60 1 0 0 0 1 0 0 0 1 3022.dat
1 70 0 -64 -80 1 0 0 0 1 0 0 0 1 3795.dat
1 70 -70 -64 -90 1 0 0 0 1 0 0 0 1 3024.dat
1 70 70 -64 -90 1 0 0 0 1 0 0 0 1 3024.dat
0 STEP
1 19 -180 -72 -20 0 0 -1 0 1 0 1 0 0 3020.dat
1 19 -150 -72 -40 0 0 -1 0 1 0 1 0 0 3666.dat
1 19 160 -72 -20 0 0 -1 0 1 0 1 0 0 3020.dat
1 19 190 -72 -20 0 0 -1 0 1 0 1 0 0 3710.dat
1 19 -210 -72 -20 0 0 -1 0 1 0 1 0 0 3023.dat
1 19 210 -72 -20 0 0 -1 0 1 0 1 0 0 3023.dat
1 19 -120 -72 -70 0 0 -1 0 1 0 1 0 0 3021.dat
1 19 120 -72 -70 0 0 -1 0 1 0 1 0 0 3021.dat
1 19 -170 -72 -70 1 0 0 0 1 0 0 0 1 3024.dat
1 19 -90 -72 -90 0 0 -1 0 1 0 1 0 0 3623.dat
1 19 90 -72 -90 0 0 -1 0 1 0 1 0 0 3623.dat
1 19 160 -72 -70 1 0 0 0 1 0 0 0 1 3023.dat
1 19 150 -72 -90 1 0 0 0 1 0 0 0 1 3024.dat
1 19 -110 -72 -110 1 0 0 0 1 0 0 0 1 3024.dat
1 19 -70 -72 -110 1 0 0 0 1 0 0 0 1 3024.dat
1 19 70 -72 -110 1 0 0 0 1 0 0 0 1 3024.dat
1 19 110 -72 -110 1 0 0 0 1 0 0 0 1 3024.dat
1 70 0 -72 80 1 0 0 0 1 0 0 0 1 3832.dat
1 70 -140 -72 60 1 0 0 0 1 0 0 0 1 3020.dat
1 70 140 -72 60 1 0 0 0 1 0 0 0 1 3020.dat
1 70 -80 -72 50 1 0 0 0 1 0 0 0 1 3023.dat
1 70 80 -72 50 1 0 0 0 1 0 0 0 1 3023.dat
1 70 -160 -72 30 1 0 0 0 1 0 0 0 1 3023.dat
1 70 160 -72 30 1 0 0 0 1 0 0 0 1 3023.dat
1 70 -80 -72 -50 1 0 0 0 1 0 0 0 1 3023.dat
1 70 70 -72 -70 0 0 -1 0 1 0 1 0 0 3623.dat
1 70 90 -72 -50 1 0 0 0 1 0 0 0 1 3024.dat
1 70 -20 -72 -80 1 0 0 0 1 0 0 0 1 3795.dat
1 70 50 -72 -80 0 0 -1 0 1 0 1 0 0 3023.dat
0 STEP
1 19 -180 -80 -20 0 0 -1 0 1 0 1 0 0 3020.dat
1 19 -150 -80 -40 0 0 -1 0 1 0 1 0 0 3666.dat
1 19 160 -80 -20 0 0 -1 0 1 0 1 0 0 3020.dat
1 19 190 -80 -20 0 0 -1 0 1 0 1 0 0 3710.dat
1 19 -210 -80 -20 0 0 -1 0 1 0 1 0 0 3023.dat
1 19 210 -80 -20 0 0 -1 0 1 0 1 0 0 3023.dat
1 19 -120 -80 -80 0 0 -1 0 1 0 1 0 0 3020.dat
1 19 120 -80 -80 0 0 -1 0 1 0 1 0 0 3020.dat
1 19 -170 -80 -70 1 0 0 0 1 0 0 0 1 3024.dat
1 19 -90 -80 -100 0 0 -1 0 1 0 1 0 0 3710.dat
1 19 90 -80 -100 0 0 -1 0 1 0 1 0 0 3710.dat
1 19 160 -80 -70 1 0 0 0 1 0 0 0 1 3023.dat
1 19 -70 -80 -110 0 0 -1 0 1 0 1 0 0 3623.dat
1 19 70 -80 -110 0 0 -1 0 1 0 1 0 0 3623.dat
1 19 150 -80 -90 1 0 0 0 1 0 0 0 1 3024.dat
1 70 0 -80 80 1 0 0 0 1 0 0 0 1 3832.dat
1 70 -140 -80 60 1 0 0 0 1 0 0 0 1 3020.dat
1 70 140 -80 60 1 0 0 0 1 0 0 0 1 3020.dat
1 70 -80 -80 50 1 0 0 0 1 0 0 0 1 3023.dat
1 70 80 -80 50 1 0 0 0 1 0 0 0 1 3023.dat
1 70 -160 -80 30 1 0 0 0 1 0 0 0 1 3023.dat
1 70 160 -80 30 1 0 0 0 1 0 0 0 1 3023.dat
1 70 0 -80 -70 1 0 0 0 1 0 0 0 1 3460.dat
1 70 0 -80 -90 1 0 0 0 1 0 0 0 1 3666.dat
0 STEP
1 19 -180 -88 -20 0 0 -1 0 1 0 1 0 0 3020.dat
1 19 -150 -88 -40 0 0 -1 0 1 0 1 0 0 3666.dat
1 19 160 -88 -20 0 0 -1 0 1 0 1 0 0 3020.dat
1 19 190 -88 -20 0 0 -1 0 1 0 1 0 0 3710.dat
1 19 -210 -88 -20 0 0 -1 0 1 0 1 0 0 3023.dat
1 19 210 -88 -20 0 0 -1 0 1 0 1 0 0 3023.dat
1 19 -130 -88 -80 0 0 -1 0 1 0 1 0 0 3710.dat
1 19 130 -88 -80 0 0 -1 0 1 0 1 0 0 3710.dat
1 19 -170 -88 -70 1 0 0 0 1 0 0 0 1 3024.dat
1 19 -100 -88 -100 0 0 -1 0 1 0 1 0 0 3020.dat
1 19 100 -88 -100 0 0 -1 0 1 0 1 0 0 3020.dat
1 19 160 -88 -70 1 0 0 0 1 0 0 0 1 3023.dat
1 19 -70 -88 -120 0 0 -1 0 1 0 1 0 0 3710.dat
1 19 70 -88 -120 0 0 -1 0 1 0 1 0 0 3710.dat
1 19 150 -88 -90 1 0 0 0 1 0 0 0 1 3024.dat
1 19 -50 -88 -120 0 0 -1 0 1 0 1 0 0 3023.dat
1 19 50 -88 -120 0 0 -1 0 1 0 1 0 0 3023.dat
1 70 0 -88 80 1 0 0 0 1 0 0 0 1 3832.dat
1 70 -140 -88 60 1 0 0 0 1 0 0 0 1 3020.dat
1 70 140 -88 60 1 0 0 0 1 0 0 0 1 3020.dat
1 70 -80 -88 50 1 0 0 0 1 0 0 0 1 3023.dat
1 70 80 -88 50 1 0 0 0 1 0 0 0 1 3023.dat
1 70 -160 -88 30 1 0 0 0 1 0 0 0 1 3023.dat
1 70 160 -88 30 1 0 0 0 1 0 0 0 1 3023.dat
1 70 0 -88 -70 1 0 0 0 1 0 0 0 1 3460.dat
1 70 0 -88 -90 1 0 0 0 1 0 0 0 1 3666.dat
0 STEP
1 19 -180 -96 -0 1 0 0 0 1 0 0 0 1 3020.dat
1 19 180 -96 -0 1 0 0 0 1 0 0 0 1 3020.dat
1 19 -180 -96 -30 1 0 0 0 1 0 0 0 1 3710.dat
1 19 170 -96 -40 1 0 0 0 1 0 0 0 1 3021.dat
1 19 210 -96 -30 1 0 0 0 1 0 0 0 1 3024.dat
1 19 -160 -96 -50 1 0 0 0 1 0 0 0 1 3710.dat
1 19 -110 -96 -80 0 0 -1 0 1 0 1 0 0 3710.dat
1 19 120 -96 -80 0 0 -1 0 1 0 1 0 0 3020.dat
1 19 -150 -96 -70 1 0 0 0 1 0 0 0 1 3623.dat
1 19 -90 -96 -100 0 0 -1 0 1 0 1 0 0 3710.dat
1 19 90 -96 -100 0 0 -1 0 1 0 1 0 0 3710.dat
1 19 160 -96 -70 1 0 0 0 1 0 0 0 1 3023.dat
1 19 -140 -96 -90 1 0 0 0 1 0 0 0 1 3023.dat
1 19 -70 -96 -100 0 0 -1 0 1 0 1 0 0 3023.dat
1 19 70 -96 -100 0 0 -1 0 1 0 1 0 0 3023.dat
1 19 150 -96 -90 1 0 0 0 1 0 0 0 1 3024.dat
1 19 -130 -96 -110 1 0 0 0 1 0 0 0 1 3024.dat
1 19 -50 -96 -110 1 0 0 0 1 0 0 0 1 3024.dat
1 19 50 -96 -110 1 0 0 0 1 0 0 0 1 3024.dat
1 19 -80 -96 -150 1 0 0 0 1 0 0 0 1 3023.dat
1 19 80 -96 -150 1 0 0 0 1 0 0 0 1 3023.dat
1 70 0 -96 80 1 0 0 0 1 0 0 0 1 3832.dat
1 70 -140 -96 60 1 0 0 0 1 0 0 0 1 3020.dat
1 70 140 -96 60 1 0 0 0 1 0 0 0 1 3020.dat
1 70 -80 -96 50 1 0 0 0 1 0 0 0 1 3023.dat
1 70 80 -96 50 1 0 0 0 1 0 0 0 1 3023.dat
1 70 -160 -96 30 1 0 0 0 1 0 0 0 1 3023.dat
1 70 160 -96 30 1 0 0 0 1 0 0 0 1 3023.dat
1 70 0 -96 -70 1 0 0 0 1 0 0 0 1 3460.dat
1 70 0 -96 -90 1 0 0 0 1 0 0 0 1 3666.dat
1 78 -60 -96 -130 1 0 0 0 1 0 0 0 1 3023.dat
1 78 60 -96 -130 1 0 0 0 1 0 0 0 1 3023.dat
1 78 -50 -96 -150 1 0 0 0 1 0 0 0 1 3024.dat
1 78 50 -96 -150 1 0 0 0 1 0 0 0 1 3024.dat
1 308 -110 -96 -140 0 0 -1 0 1 0 1 0 0 3023.dat
1 308 110 -96 -140 0 0 -1 0 1 0 1 0 0 3023.dat
0 STEP
1 2 0 -104 -80 1 0 0 0 1 0 0 0 1 3022.dat
1 15 -90 -104 -140 0 0 -1 0 1 0 1 0 0 3023.dat
1 15 0 -104 -140 1 0 0 0 1 0 0 0 1 3020.dat
1 15 90 -104 -140 0 0 -1 0 1 0 1 0 0 3023.dat
1 19 -180 -104 -0 1 0 0 0 1 0 0 0 1 3020.dat
1 19 180 -104 -0 1 0 0 0 1 0 0 0 1 3020.dat
1 19 -180 -104 -30 1 0 0 0 1 0 0 0 1 3710.dat
1 19 170 -104 -40 1 0 0 0 1 0 0 0 1 3021.dat
1 19 210 -104 -30 1 0 0 0 1 0 0 0 1 3024.dat
1 19 -160 -104 -50 1 0 0 0 1 0 0 0 1 3710.dat
1 19 -110 -104 -80 0 0 -1 0 1 0 1 0 0 3710.dat
1 19 120 -104 -80 0 0 -1 0 1 0 1 0 0 3020.dat
1 19 -150 -104 -70 1 0 0 0 1 0 0 0 1 3623.dat
1 19 -90 -104 -90 0 0 -1 0 1 0 1 0 0 3623.dat
1 19 90 -104 -90 0 0 -1 0 1 0 1 0 0 3623.dat
1 19 160 -104 -70 1 0 0 0 1 0 0 0 1 3023.dat
1 19 -130 -104 -100 0 0 -1 0 1 0 1 0 0 3023.dat
1 19 -70 -104 -100 0 0 -1 0 1 0 1 0 0 3023.dat
1 19 70 -104 -100 0 0 -1 0 1 0 1 0 0 3023.dat
1 19 -50 -104 -110 1 0 0 0 1 0 0 0 1 3024.dat
1 19 50 -104 -110 1 0 0 0 1 0 0 0 1 3024.dat
1 19 -150 -104 -90 1 0 0 0 1 0 0 0 1 3070b.dat
1 19 150 -104 -90 1 0 0 0 1 0 0 0 1 3070b.dat
1 70 0 -104 80 1 0 0 0 1 0 0 0 1 3832.dat
1 70 -140 -104 60 1 0 0 0 1 0 0 0 1 3020.dat
1 70 140 -104 60 1 0 0 0 1 0 0 0 1 3020.dat
1 70 -80 -104 50 1 0 0 0 1 0 0 0 1 3023.dat
1 70 80 -104 50 1 0 0 0 1 0 0 0 1 3023.dat
1 70 -160 -104 30 1 0 0 0 1 0 0 0 1 3023.dat
1 70 160 -104 30 1 0 0 0 1 0 0 0 1 3023.dat
1 70 -50 -104 -70 1 0 0 0 1 0 0 0 1 3623.dat
1 70 40 -104 -80 1 0 0 0 1 0 0 0 1 3022.dat
1 70 70 -104 -70 1 0 0 0 1 0 0 0 1 3024.dat
1 70 -40 -104 -90 1 0 0 0 1 0 0 0 1 3023.dat
1 78 -60 -104 -140 1 0 0 0 1 0 0 0 1 3022.dat
1 78 60 -104 -140 1 0 0 0 1 0 0 0 1 3022.dat
1 308 -110 -104 -140 0 0 -1 0 1 0 1 0 0 3023.dat
1 308 110 -104 -140 0 0 -1 0 1 0 1 0 0 3023.dat
0 STEP
1 2 0 -112 -80 1 0 0 0 1 0 0 0 1 3022.dat
1 15 -90 -112 -130 1 0 0 0 1 0 0 0 1 3024.dat
1 15 0 -112 -130 1 0 0 0 1 0 0 0 1 3023.dat
1 15 90 -112 -130 1 0 0 0 1 0 0 0 1 3024.dat
1 19 -170 -112 -0 0 0 -1 0 1 0 1 0 0 3710.dat
1 19 170 -112 -0 0 0 -1 0 1 0 1 0 0 3710.dat
1 19 -200 -112 -10 0 0 -1 0 1 0 1 0 0 3021.dat
1 19 -150 -112 -20 0 0 -1 0 1 0 1 0 0 3710.dat
1 19 150 -112 -20 0 0 -1 0 1 0 1 0 0 3710.dat
1 19 200 -112 -10 0 0 -1 0 1 0 1 0 0 3021.dat
1 19 -180 -112 -50 1 0 0 0 1 0 0 0 1 3023.dat
1 19 -120 -112 -70 0 0 -1 0 1 0 1 0 0 3021.dat
1 19 120 -112 -70 0 0 -1 0 1 0 1 0 0 3021.dat
1 19 180 -112 -50 1 0 0 0 1 0 0 0 1 3023.dat
1 19 -150 -112 -70 1 0 0 0 1 0 0 0 1 3024.dat
1 19 -90 -112 -90 0 0 -1 0 1 0 1 0 0 3623.dat
1 19 90 -112 -90 0 0 -1 0 1 0 1 0 0 3623.dat
1 19 150 -112 -70 1 0 0 0 1 0 0 0 1 3024.dat
1 19 -70 -112 -100 0 0 -1 0 1 0 1 0 0 3023.dat
1 19 70 -112 -100 0 0 -1 0 1 0 1 0 0 3023.dat
1 19 -110 -112 -110 1 0 0 0 1 0 0 0 1 3024.dat
1 19 110 -112 -110 1 0 0 0 1 0 0 0 1 3024.dat
1 19 -90 -112 -150 1 0 0 0 1 0 0 0 1 3024.dat
1 19 0 -112 -150 1 0 0 0 1 0 0 0 1 3710.dat
1 19 90 -112 -150 1 0 0 0 1 0 0 0 1 3024.dat
1 19 -130 -112 -110 1 0 0 0 1 0 0 0 1 3070b.dat
1 19 130 -112 -110 1 0 0 0 1 0 0 0 1 3070b.dat
1 70 0 -112 80 1 0 0 0 1 0 0 0 1 3832.dat
1 70 -140 -112 60 1 0 0 0 1 0 0 0 1 3020.dat
1 70 140 -112 60 1 0 0 0 1 0 0 0 1 3020.dat
1 70 -80 -112 50 1 0 0 0 1 0 0 0 1 3023.dat
1 70 80 -112 50 1 0 0 0 1 0 0 0 1 3023.dat
1 70 -150 -112 30 1 0 0 0 1 0 0 0 1 3024.dat
1 70 150 -112 30 1 0 0 0 1 0 0 0 1 3024.dat
1 70 -170 -112 -70 1 0 0 0 1 0 0 0 1 3024.dat
1 70 -50 -112 -70 1 0 0 0 1 0 0 0 1 3623.dat
1 70 40 -112 -80 1 0 0 0 1 0 0 0 1 3022.dat
1 70 70 -112 -70 1 0 0 0 1 0 0 0 1 3024.dat
1 70 170 -112 -70 1 0 0 0 1 0 0 0 1 3024.dat
1 70 -40 -112 -90 1 0 0 0 1 0 0 0 1 3023.dat
1 78 -50 -112 -130 0 0 -1 0 1 0 1 0 0 3623.dat
1 78 50 -112 -130 0 0 -1 0 1 0 1 0 0 3623.dat
1 78 -70 -112 -140 0 0 -1 0 1 0 1 0 0 3023.dat
1 78 -30 -112 -130 1 0 0 0 1 0 0 0 1 3024.dat
1 78 30 -112 -130 1 0 0 0 1 0 0 0 1 3024.dat
1 78 70 -112 -140 0 0 -1 0 1 0 1 0 0 3023.dat
1 308 -110 -112 -150 0 0 -1 0 1 0 1 0 0 3623.dat
1 308 110 -112 -150 0 0 -1 0 1 0 1 0 0 3623.dat
1 308 -130 -112 -150 1 0 0 0 1 0 0 0 1 3024.dat
1 308 130 -112 -150 1 0 0 0 1 0 0 0 1 3024.dat
0 STEP
1 2 0 -120 -80 1 0 0 0 1 0 0 0 1 3022.dat
1 15 -90 -120 -140 0 0 -1 0 1 0 1 0 0 3023.dat
1 15 0 -120 -140 1 0 0 0 1 0 0 0 1 3022.dat
1 15 90 -120 -140 0 0 -1 0 1 0 1 0 0 3023.dat
1 19 -180 -120 -0 0 0 -1 0 1 0 1 0 0 3020.dat
1 19 180 -120 -0 0 0 -1 0 1 0 1 0 0 3020.dat
1 19 -210 -120 -10 0 0 -1 0 1 0 1 0 0 3623.dat
1 19 -150 -120 -20 0 0 -1 0 1 0 1 0 0 3710.dat
1 19 150 -120 -20 0 0 -1 0 1 0 1 0 0 3710.dat
1 19 210 -120 -10 0 0 -1 0 1 0 1 0 0 3623.dat
1 19 -170 -120 -50 1 0 0 0 1 0 0 0 1 3024.dat
1 19 -130 -120 -70 0 0 -1 0 1 0 1 0 0 3623.dat
1 19 130 -120 -70 0 0 -1 0 1 0 1 0 0 3623.dat
1 19 170 -120 -50 1 0 0 0 1 0 0 0 1 3024.dat
1 19 -150 -120 -70 1 0 0 0 1 0 0 0 1 3024.dat
1 19 -100 -120 -80 1 0 0 0 1 0 0 0 1 3022.dat
1 19 100 -120 -80 1 0 0 0 1 0 0 0 1 3022.dat
1 19 150 -120 -70 1 0 0 0 1 0 0 0 1 3024.dat
1 19 -70 -120 -90 1 0 0 0 1 0 0 0 1 3024.dat
1 19 70 -120 -90 1 0 0 0 1 0 0 0 1 3024.dat
1 19 -90 -120 -110 1 0 0 0 1 0 0 0 1 3024.dat
1 19 90 -120 -110 1 0 0 0 1 0 0 0 1 3024.dat
1 19 -190 -120 -50 1 0 0 0 1 0 0 0 1 3070b.dat
1 19 190 -120 -50 1 0 0 0 1 0 0 0 1 3070b.dat
1 70 0 -120 80 1 0 0 0 1 0 0 0 1 3832.dat
1 70 -140 -120 60 1 0 0 0 1 0 0 0 1 3020.dat
1 70 140 -120 60 1 0 0 0 1 0 0 0 1 3020.dat
1 70 -80 -120 50 1 0 0 0 1 0 0 0 1 3023.dat
1 70 80 -120 50 1 0 0 0 1 0 0 0 1 3023.dat
1 70 -150 -120 30 1 0 0 0 1 0 0 0 1 3024.dat
1 70 150 -120 30 1 0 0 0 1 0 0 0 1 3024.dat
1 70 -100 -120 -50 1 0 0 0 1 0 0 0 1 3023.dat
1 70 100 -120 -50 1 0 0 0 1 0 0 0 1 3023.dat
1 70 -170 -120 -70 1 0 0 0 1 0 0 0 1 3024.dat
1 70 -50 -120 -70 1 0 0 0 1 0 0 0 1 3623.dat
1 70 40 -120 -80 1 0 0 0 1 0 0 0 1 3022.dat
1 70 70 -120 -70 1 0 0 0 1 0 0 0 1 3024.dat
1 70 170 -120 -70 1 0 0 0 1 0 0 0 1 3024.dat
1 70 -40 -120 -90 1 0 0 0 1 0 0 0 1 3023.dat
1 78 -60 -120 -130 0 0 -1 0 1 0 1 0 0 3021.dat
1 78 60 -120 -130 0 0 -1 0 1 0 1 0 0 3021.dat
1 78 -30 -120 -140 0 0 -1 0 1 0 1 0 0 3023.dat
1 78 30 -120 -140 0 0 -1 0 1 0 1 0 0 3023.dat
1 308 -110 -120 -140 0 0 -1 0 1 0 1 0 0 3710.dat
1 308 110 -120 -140 0 0 -1 0 1 0 1 0 0 3710.dat
1 308 -130 -120 -140 0 0 -1 0 1 0 1 0 0 3023.dat
1 308 130 -120 -140 0 0 -1 0 1 0 1 0 0 3023.dat
0 STEP
1 2 0 -128 -80 1 0 0 0 1 0 0 0 1 3022.dat
1 15 -90 -128 -140 0 0 -1 0 1 0 1 0 0 3023.dat
1 15 0 -128 -140 1 0 0 0 1 0 0 0 1 3022.dat
1 15 90 -128 -140 0 0 -1 0 1 0 1 0 0 3023.dat
1 15 -30 -128 -150 1 0 0 0 1 0 0 0 1 3024.dat
1 15 30 -128 -150 1 0 0 0 1 0 0 0 1 3024.dat
1 19 -180 -128 -0 0 0 -1 0 1 0 1 0 0 3020.dat
1 19 180 -128 -0 0 0 -1 0 1 0 1 0 0 3020.dat
1 19 -210 -128 -10 0 0 -1 0 1 0 1 0 0 3623.dat
1 19 -150 -128 -10 0 0 -1 0 1 0 1 0 0 3623.dat
1 19 150 -128 -10 0 0 -1 0 1 0 1 0 0 3623.dat
1 19 210 -128 -10 0 0 -1 0 1 0 1 0 0 3623.dat
1 19 -170 -128 -50 1 0 0 0 1 0 0 0 1 3024.dat
1 19 170 -128 -50 1 0 0 0 1 0 0 0 1 3024.dat
1 19 -120 -128 -70 1 0 0 0 1 0 0 0 1 3023.dat
1 19 120 -128 -70 1 0 0 0 1 0 0 0 1 3023.dat
1 19 -90 -128 -90 1 0 0 0 1 0 0 0 1 3623.dat
1 19 80 -128 -100 1 0 0 0 1 0 0 0 1 3022.dat
1 19 110 -128 -90 1 0 0 0 1 0 0 0 1 3024.dat
1 19 -80 -128 -110 1 0 0 0 1 0 0 0 1 3023.dat
1 19 -130 -128 -90 1 0 0 0 1 0 0 0 1 3070b.dat
1 19 130 -128 -90 1 0 0 0 1 0 0 0 1 3070b.dat
1 70 0 -128 80 1 0 0 0 1 0 0 0 1 3832.dat
1 70 -140 -128 60 1 0 0 0 1 0 0 0 1 3020.dat
1 70 140 -128 60 1 0 0 0 1 0 0 0 1 3020.dat
1 70 -80 -128 50 1 0 0 0 1 0 0 0 1 3023.dat
1 70 80 -128 50 1 0 0 0 1 0 0 0 1 3023.dat
1 70 -150 -128 30 1 0 0 0 1 0 0 0 1 3024.dat
1 70 150 -128 30 1 0 0 0 1 0 0 0 1 3024.dat
1 70 -120 -128 -50 1 0 0 0 1 0 0 0 1 3710.dat
1 70 -70 -128 -60 0 0 -1 0 1 0 1 0 0 3023.dat
1 70 100 -128 -50 1 0 0 0 1 0 0 0 1 3710.dat
1 70 150 -128 -60 0 0 -1 0 1 0 1 0 0 3023.dat
1 70 -160 -128 -70 1 0 0 0 1 0 0 0 1 3023.dat
1 70 -90 -128 -70 1 0 0 0 1 0 0 0 1 3024.dat
1 70 -40 -128 -80 1 0 0 0 1 0 0 0 1 3022.dat
1 70 60 -128 -70 1 0 0 0 1 0 0 0 1 3710.dat
1 70 170 -128 -70 1 0 0 0 1 0 0 0 1 3024.dat
1 70 40 -128 -90 1 0 0 0 1 0 0 0 1 3023.dat
1 78 -50 -128 -130 0 0 -1 0 1 0 1 0 0 3623.dat
1 78 50 -128 -130 0 0 -1 0 1 0 1 0 0 3623.dat
1 78 -70 -128 -140 0 0 -1 0 1 0 1 0 0 3023.dat
1 78 -30 -128 -130 1 0 0 0 1 0 0 0 1 3024.dat
1 78 30 -128 -130 1 0 0 0 1 0 0 0 1 3024.dat
1 78 70 -128 -140 0 0 -1 0 1 0 1 0 0 3023.dat
1 308 -110 -128 -150 0 0 -1 0 1 0 1 0 0 3623.dat
1 308 110 -128 -150 0 0 -1 0 1 0 1 0 0 3623.dat
1 308 -130 -128 -150 1 0 0 0 1 0 0 0 1 3024.dat
1 308 130 -128 -150 1 0 0 0 1 0 0 0 1 3024.dat
1 308 -110 -128 -110 1 0 0 0 1 0 0 0 1 3070b.dat
1 308 110 -128 -110 1 0 0 0 1 0 0 0 1 3070b.dat
1 308 -130 -128 -130 1 0 0 0 1 0 0 0 1 3070b.dat
1 308 130 -128 -130 1 0 0 0 1 0 0 0 1 3070b.dat
0 STEP
1 2 0 -136 -80 1 0 0 0 1 0 0 0 1 3022.dat
1 15 -90 -136 -140 0 0 -1 0 1 0 1 0 0 3023.dat
1 15 0 -136 -140 1 0 0 0 1 0 0 0 1 3020.dat
1 15 90 -136 -140 0 0 -1 0 1 0 1 0 0 3023.dat
1 19 -180 -136 -0 0 0 -1 0 1 0 1 0 0 3020.dat
1 19 180 -136 -0 0 0 -1 0 1 0 1 0 0 3020.dat
1 19 -210 -136 -10 0 0 -1 0 1 0 1 0 0 3623.dat
1 19 -150 -136 -10 0 0 -1 0 1 0 1 0 0 3623.dat
1 19 150 -136 -10 0 0 -1 0 1 0 1 0 0 3623.dat
1 19 210 -136 -10 0 0 -1 0 1 0 1 0 0 3623.dat
1 19 -90 -136 -100 0 0 -1 0 1 0 1 0 0 3023.dat
1 19 90 -136 -100 0 0 -1 0 1 0 1 0 0 3023.dat
1 19 -70 -136 -110 1 0 0 0 1 0 0 0 1 3024.dat
1 19 70 -136 -110 1 0 0 0 1 0 0 0 1 3024.dat
1 19 -110 -136 -90 1 0 0 0 1 0 0 0 1 3070b.dat
1 19 110 -136 -90 1 0 0 0 1 0 0 0 1 3070b.dat
1 19 -50 -136 -110 1 0 0 0 1 0 0 0 1 3070b.dat
1 19 50 -136 -110 1 0 0 0 1 0 0 0 1 3070b.dat
1 70 0 -136 80 1 0 0 0 1 0 0 0 1 3832.dat
1 70 -140 -136 60 1 0 0 0 1 0 0 0 1 3020.dat
1 70 140 -136 60 1 0 0 0 1 0 0 0 1 3020.dat
1 70 -80 -136 50 1 0 0 0 1 0 0 0 1 3023.dat
1 70 80 -136 50 1 0 0 0 1 0 0 0 1 3023.dat
1 70 -140 -136 30 1 0 0 0 1 0 0 0 1 3023.dat
1 70 140 -136 30 1 0 0 0 1 0 0 0 1 3023.dat
1 70 -130 -136 -50 0 0 -1 0 1 0 1 0 0 3623.dat
1 70 130 -136 -50 0 0 -1 0 1 0 1 0 0 3623.dat
1 70 -160 -136 -60 1 0 0 0 1 0 0 0 1 3022.dat
1 70 -90 -136 -60 1 0 0 0 1 0 0 0 1 3021.dat
1 70 90 -136 -60 1 0 0 0 1 0 0 0 1 3021.dat
1 70 160 -136 -60 1 0 0 0 1 0 0 0 1 3022.dat
1 70 -40 -136 -80 1 0 0 0 1 0 0 0 1 3022.dat
1 70 40 -136 -80 1 0 0 0 1 0 0 0 1 3022.dat
1 70 -70 -136 -90 1 0 0 0 1 0 0 0 1 3024.dat
1 70 70 -136 -90 1 0 0 0 1 0 0 0 1 3024.dat
1 78 -60 -136 -140 1 0 0 0 1 0 0 0 1 3022.dat
1 78 60 -136 -140 1 0 0 0 1 0 0 0 1 3022.dat
1 308 -110 -136 -140 0 0 -1 0 1 0 1 0 0 3023.dat
1 308 110 -136 -140 0 0 -1 0 1 0 1 0 0 3023.dat
1 308 -130 -136 -150 1 0 0 0 1 0 0 0 1 3070b.dat
1 308 130 -136 -150 1 0 0 0 1 0 0 0 1 3070b.dat
1 308 -110 -136 -170 1 0 0 0 1 0 0 0 1 3070b.dat
1 308 110 -136 -170 1 0 0 0 1 0 0 0 1 3070b.dat
0 STEP
1 2 0 -144 -80 1 0 0 0 1 0 0 0 1 3022.dat
1 15 0 -144 -140 1 0 0 0 1 0 0 0 1 3832.dat
1 19 -180 -144 -0 0 0 -1 0 1 0 1 0 0 3020.dat
1 19 180 -144 -0 0 0 -1 0 1 0 1 0 0 3020.dat
1 19 -210 -144 -10 0 0 -1 0 1 0 1 0 0 3623.dat
1 19 -150 -144 -10 0 0 -1 0 1 0 1 0 0 3623.dat
1 19 150 -144 -10 0 0 -1 0 1 0 1 0 0 3623.dat
1 19 210 -144 -10 0 0 -1 0 1 0 1 0 0 3623.dat
1 19 -80 -144 -110 1 0 0 0 1 0 0 0 1 3069b.dat
1 19 80 -144 -110 1 0 0 0 1 0 0 0 1 3069b.dat
1 70 0 -144 80 1 0 0 0 1 0 0 0 1 3832.dat
1 70 -130 -144 60 1 0 0 0 1 0 0 0 1 3021.dat
1 70 130 -144 60 1 0 0 0 1 0 0 0 1 3021.dat
1 70 -170 -144 50 1 0 0 0 1 0 0 0 1 3024.dat
1 70 -70 -144 50 1 0 0 0 1 0 0 0 1 3623.dat
1 70 70 -144 50 1 0 0 0 1 0 0 0 1 3623.dat
1 70 170 -144 50 1 0 0 0 1 0 0 0 1 3024.dat
1 70 -140 -144 30 1 0 0 0 1 0 0 0 1 3023.dat
1 70 140 -144 30 1 0 0 0 1 0 0 0 1 3023.dat
1 70 -130 -144 -50 0 0 -1 0 1 0 1 0 0 3623.dat
1 70 130 -144 -50 0 0 -1 0 1 0 1 0 0 3623.dat
1 70 -160 -144 -50 1 0 0 0 1 0 0 0 1 3023.dat
1 70 -80 -144 -60 1 0 0 0 1 0 0 0 1 3020.dat
1 70 80 -144 -60 1 0 0 0 1 0 0 0 1 3020.dat
1 70 160 -144 -50 1 0 0 0 1 0 0 0 1 3023.dat
1 70 -150 -144 -70 1 0 0 0 1 0 0 0 1 3024.dat
1 70 -30 -144 -80 0 0 -1 0 1 0 1 0 0 3023.dat
1 70 30 -144 -80 0 0 -1 0 1 0 1 0 0 3023.dat
1 70 150 -144 -70 1 0 0 0 1 0 0 0 1 3024.dat
1 70 -70 -144 -90 1 0 0 0 1 0 0 0 1 3623.dat
1 70 70 -144 -90 1 0 0 0 1 0 0 0 1 3623.dat
1 70 -170 -144 70 1 0 0 0 1 0 0 0 1 3070b.dat
1 70 170 -144 70 1 0 0 0 1 0 0 0 1 3070b.dat
1 70 -170 -144 -70 1 0 0 0 1 0 0 0 1 3070b.dat
1 70 170 -144 -70 1 0 0 0 1 0 0 0 1 3070b.dat
1 308 -110 -144 -140 0 0 -1 0 1 0 1 0 0 3023.dat
1 308 110 -144 -140 0 0 -1 0 1 0 1 0 0 3023.dat
0 STEP
1 2 0 -152 -70 0 0 -1 0 1 0 1 0 0 3021.dat
1 19 -180 -152 -0 0 0 -1 0 1 0 1 0 0 3020.dat
1 19 180 -152 -0 0 0 -1 0 1 0 1 0 0 3020.dat
1 19 -210 -152 -0 0 0 -1 0 1 0 1 0 0 3023.dat
1 19 -150 -152 -10 0 0 -1 0 1 0 1 0 0 3623.dat
1 19 150 -152 -10 0 0 -1 0 1 0 1 0 0 3623.dat
1 19 210 -152 -0 0 0 -1 0 1 0 1 0 0 3023.dat
1 19 -30 -152 -70 0 0 -1 0 1 0 1 0 0 3623.dat
1 19 30 -152 -70 0 0 -1 0 1 0 1 0 0 3623.dat
1 19 -210 -152 -30 1 0 0 0 1 0 0 0 1 3070b.dat
1 19 210 -152 -30 1 0 0 0 1 0 0 0 1 3070b.dat
1 70 0 -152 80 1 0 0 0 1 0 0 0 1 3034.dat
1 70 -120 -152 60 1 0 0 0 1 0 0 0 1 3020.dat
1 70 120 -152 60 1 0 0 0 1 0 0 0 1 3020.dat
1 70 -170 -152 50 1 0 0 0 1 0 0 0 1 3024.dat
1 70 0 -152 50 1 0 0 0 1 0 0 0 1 3460.dat
1 70 170 -152 50 1 0 0 0 1 0 0 0 1 3024.dat
1 70 -140 -152 30 1 0 0 0 1 0 0 0 1 3023.dat
1 70 140 -152 30 1 0 0 0 1 0 0 0 1 3023.dat
1 70 -130 -152 -50 0 0 -1 0 1 0 1 0 0 3623.dat
1 70 130 -152 -50 0 0 -1 0 1 0 1 0 0 3623.dat
1 70 -160 -152 -50 1 0 0 0 1 0 0 0 1 3023.dat
1 70 -80 -152 -60 1 0 0 0 1 0 0 0 1 3020.dat
1 70 80 -152 -60 1 0 0 0 1 0 0 0 1 3020.dat
1 70 160 -152 -50 1 0 0 0 1 0 0 0 1 3023.dat
1 70 -150 -152 -70 1 0 0 0 1 0 0 0 1 3024.dat
1 70 150 -152 -70 1 0 0 0 1 0 0 0 1 3024.dat
1 70 -60 -152 -90 1 0 0 0 1 0 0 0 1 3023.dat
1 70 60 -152 -90 1 0 0 0 1 0 0 0 1 3023.dat
1 70 -90 -152 90 1 0 0 0 1 0 0 0 1 3070b.dat
1 70 90 -152 90 1 0 0 0 1 0 0 0 1 3070b.dat
1 70 -90 -152 -90 1 0 0 0 1 0 0 0 1 3070b.dat
1 70 90 -152 -90 1 0 0 0 1 0 0 0 1 3070b.dat
1 308 -110 -152 -140 0 0 -1 0 1 0 1 0 0 3069b.dat
1 308 110 -152 -140 0 0 -1 0 1 0 1 0 0 3069b.dat
0 STEP
1 2 0 -160 -60 1 0 0 0 1 0 0 0 1 3022.dat
1 2 0 -160 -90 1 0 0 0 1 0 0 0 1 3069b.dat
1 19 -180 -160 -0 0 0 -1 0 1 0 1 0 0 3020.dat
1 19 -150 -160 -0 0 0 -1 0 1 0 1 0 0 3710.dat
1 19 160 -160 -0 0 0 -1 0 1 0 1 0 0 3020.dat
1 19 190 -160 -0 0 0 -1 0 1 0 1 0 0 3710.dat
1 19 -210 -160 -0 0 0 -1 0 1 0 1 0 0 3023.dat
1 19 210 -160 -0 0 0 -1 0 1 0 1 0 0 3023.dat
1 19 -30 -160 -60 0 0 -1 0 1 0 1 0 0 3023.dat
1 19 30 -160 -60 0 0 -1 0 1 0 1 0 0 3023.dat
1 19 -30 -160 -90 1 0 0 0 1 0 0 0 1 3070b.dat
1 19 30 -160 -90 1 0 0 0 1 0 0 0 1 3070b.dat
1 70 -40 -160 60 1 0 0 0 1 0 0 0 1 2445.dat
1 70 120 -160 60 1 0 0 0 1 0 0 0 1 3020.dat
1 70 -170 -160 50 1 0 0 0 1 0 0 0 1 3024.dat
1 70 170 -160 50 1 0 0 0 1 0 0 0 1 3024.dat
1 70 -130 -160 -20 0 0 -1 0 1 0 1 0 0 3666.dat
1 70 -110 -160 30 1 0 0 0 1 0 0 0 1 3024.dat
1 70 120 -160 30 1 0 0 0 1 0 0 0 1 3023.dat
1 70 130 -160 -20 0 0 -1 0 1 0 1 0 0 3710.dat
1 70 -110 -160 -50 0 0 -1 0 1 0 1 0 0 3623.dat
1 70 110 -160 -50 0 0 -1 0 1 0 1 0 0 3623.dat
1 70 -160 -160 -50 1 0 0 0 1 0 0 0 1 3023.dat
1 70 -70 -160 -60 1 0 0 0 1 0 0 0 1 3021.dat
1 70 70 -160 -60 1 0 0 0 1 0 0 0 1 3021.dat
1 70 160 -160 -50 1 0 0 0 1 0 0 0 1 3023.dat
1 70 -150 -160 -70 1 0 0 0 1 0 0 0 1 3024.dat
1 70 140 -160 -70 1 0 0 0 1 0 0 0 1 3023.dat
1 70 0 -160 90 1 0 0 0 1 0 0 0 1 4162.dat
1 70 -60 -160 -90 1 0 0 0 1 0 0 0 1 3069b.dat
1 70 60 -160 -90 1 0 0 0 1 0 0 0 1 3069b.dat
0 STEP
1 2 0 -168 -60 1 0 0 0 1 0 0 0 1 3022.dat
1 19 -180 -168 -0 0 0 -1 0 1 0 1 0 0 3020.dat
1 19 -150 -168 -0 0 0 -1 0 1 0 1 0 0 3710.dat
1 19 160 -168 -0 0 0 -1 0 1 0 1 0 0 3020.dat
1 19 190 -168 -0 0 0 -1 0 1 0 1 0 0 3710.dat
1 19 -210 -168 -0 0 0 -1 0 1 0 1 0 0 3023.dat
1 19 210 -168 -0 0 0 -1 0 1 0 1 0 0 3023.dat
1 19 -30 -168 -60 0 0 -1 0 1 0 1 0 0 3023.dat
1 19 30 -168 -60 0 0 -1 0 1 0 1 0 0 3023.dat
1 70 -20 -168 60 1 0 0 0 1 0 0 0 1 2445.dat
1 70 120 -168 50 0 0 -1 0 1 0 1 0 0 3021.dat
1 70 -150 -168 50 1 0 0 0 1 0 0 0 1 3024.dat
1 70 150 -168 50 1 0 0 0 1 0 0 0 1 3024.dat
1 70 -130 -168 -20 0 0 -1 0 1 0 1 0 0 3666.dat
1 70 -100 -168 30 1 0 0 0 1 0 0 0 1 3023.dat
1 70 90 -168 30 1 0 0 0 1 0 0 0 1 3024.dat
1 70 130 -168 -20 0 0 -1 0 1 0 1 0 0 3710.dat
1 70 -100 -168 -50 0 0 -1 0 1 0 1 0 0 3021.dat
1 70 100 -168 -50 0 0 -1 0 1 0 1 0 0 3021.dat
1 70 -150 -168 -50 1 0 0 0 1 0 0 0 1 3024.dat
1 70 -60 -168 -60 1 0 0 0 1 0 0 0 1 3022.dat
1 70 60 -168 -60 1 0 0 0 1 0 0 0 1 3022.dat
1 70 150 -168 -50 1 0 0 0 1 0 0 0 1 3024.dat
1 70 130 -168 -70 1 0 0 0 1 0 0 0 1 3024.dat
1 70 -150 -168 70 1 0 0 0 1 0 0 0 1 3070b.dat
1 70 150 -168 70 1 0 0 0 1 0 0 0 1 3070b.dat
1 70 -170 -168 50 1 0 0 0 1 0 0 0 1 3070b.dat
1 70 170 -168 50 1 0 0 0 1 0 0 0 1 3070b.dat
1 70 -170 -168 -50 1 0 0 0 1 0 0 0 1 3070b.dat
1 70 170 -168 -50 1 0 0 0 1 0 0 0 1 3070b.dat
1 70 -150 -168 -70 1 0 0 0 1 0 0 0 1 3070b.dat
1 70 150 -168 -70 1 0 0 0 1 0 0 0 1 3070b.dat
0 STEP
1 2 0 -176 -60 1 0 0 0 1 0 0 0 1 3022.dat
1 19 -180 -176 -0 0 0 -1 0 1 0 1 0 0 3020.dat
1 19 -150 -176 -0 0 0 -1 0 1 0 1 0 0 3710.dat
1 19 160 -176 -0 0 0 -1 0 1 0 1 0 0 3020.dat
1 19 190 -176 -0 0 0 -1 0 1 0 1 0 0 3710.dat
1 19 -210 -176 -0 0 0 -1 0 1 0 1 0 0 3023.dat
1 19 210 -176 -0 0 0 -1 0 1 0 1 0 0 3023.dat
1 19 -30 -176 -60 0 0 -1 0 1 0 1 0 0 3023.dat
1 19 30 -176 -60 0 0 -1 0 1 0 1 0 0 3023.dat
1 70 0 -176 60 1 0 0 0 1 0 0 0 1 2445.dat
1 70 -140 -176 50 1 0 0 0 1 0 0 0 1 3023.dat
1 70 130 -176 -0 0 0 -1 0 1 0 1 0 0 3666.dat
1 70 150 -176 50 1 0 0 0 1 0 0 0 1 3024.dat
1 70 -120 -176 -0 0 0 -1 0 1 0 1 0 0 3020.dat
1 70 -70 -176 30 1 0 0 0 1 0 0 0 1 3623.dat
1 70 80 -176 30 1 0 0 0 1 0 0 0 1 3710.dat
1 70 110 -176 -20 0 0 -1 0 1 0 1 0 0 3710.dat
1 70 -70 -176 -40 1 0 0 0 1 0 0 0 1 3021.dat
1 70 70 -176 -40 1 0 0 0 1 0 0 0 1 3021.dat
1 70 -130 -176 -50 1 0 0 0 1 0 0 0 1 3623.dat
1 70 150 -176 -50 1 0 0 0 1 0 0 0 1 3024.dat
1 70 -80 -176 -70 1 0 0 0 1 0 0 0 1 3710.dat
1 70 80 -176 -70 1 0 0 0 1 0 0 0 1 3710.dat
1 70 -130 -176 70 1 0 0 0 1 0 0 0 1 3070b.dat
1 70 130 -176 70 1 0 0 0 1 0 0 0 1 3070b.dat
1 70 -130 -176 -70 1 0 0 0 1 0 0 0 1 3070b.dat
1 70 130 -176 -70 1 0 0 0 1 0 0 0 1 3070b.dat
0 STEP
1 2 0 -184 -60 1 0 0 0 1 0 0 0 1 3022.dat
1 19 -180 -184 -0 0 0 -1 0 1 0 1 0 0 3020.dat
1 19 180 -184 -0 0 0 -1 0 1 0 1 0 0 3020.dat
1 19 -210 -184 -0 0 0 -1 0 1 0 1 0 0 3023.dat
1 19 -150 -184 -0 0 0 -1 0 1 0 1 0 0 3023.dat
1 19 150 -184 -0 0 0 -1 0 1 0 1 0 0 3023.dat
1 19 210 -184 -0 0 0 -1 0 1 0 1 0 0 3023.dat
1 19 -30 -184 -60 0 0 -1 0 1 0 1 0 0 3023.dat
1 19 30 -184 -60 0 0 -1 0 1 0 1 0 0 3023.dat
1 19 -50 -184 -120 0 0 -1 0 1 0 1 0 0 3666.dat
1 19 50 -184 -120 0 0 -1 0 1 0 1 0 0 3666.dat
1 19 -50 -184 -190 1 0 0 0 1 0 0 0 1 3024.dat
1 19 50 -184 -190 1 0 0 0 1 0 0 0 1 3024.dat
1 70 0 -184 60 1 0 0 0 1 0 0 0 1 3034.dat
1 70 -120 -184 -0 0 0 -1 0 1 0 1 0 0 3795.dat
1 70 -90 -184 -0 0 0 -1 0 1 0 1 0 0 3666.dat
1 70 100 -184 -0 0 0 -1 0 1 0 1 0 0 3795.dat
1 70 130 -184 -0 0 0 -1 0 1 0 1 0 0 3666.dat
1 70 0 -184 30 1 0 0 0 1 0 0 0 1 3460.dat
1 70 -70 -184 -20 0 0 -1 0 1 0 1 0 0 3710.dat
1 70 70 -184 -20 0 0 -1 0 1 0 1 0 0 3710.dat
1 70 0 -184 -30 1 0 0 0 1 0 0 0 1 3666.dat
1 70 -50 -184 -50 1 0 0 0 1 0 0 0 1 3024.dat
1 70 50 -184 -50 1 0 0 0 1 0 0 0 1 3024.dat
1 70 -70 -184 -70 1 0 0 0 1 0 0 0 1 3024.dat
1 70 70 -184 -70 1 0 0 0 1 0 0 0 1 3024.dat
1 70 -100 -184 70 1 0 0 0 1 0 0 0 1 3069b.dat
1 70 100 -184 70 1 0 0 0 1 0 0 0 1 3069b.dat
1 70 -150 -184 40 0 0 -1 0 1 0 1 0 0 3069b.dat
1 70 150 -184 40 0 0 -1 0 1 0 1 0 0 3069b.dat
1 70 -150 -184 -40 0 0 -1 0 1 0 1 0 0 3069b.dat
1 70 150 -184 -40 0 0 -1 0 1 0 1 0 0 3069b.dat
1 70 -100 -184 -70 1 0 0 0 1 0 0 0 1 3069b.dat
1 70 100 -184 -70 1 0 0 0 1 0 0 0 1 3069b.dat
0 STEP
1 2 0 -192 -70 1 0 0 0 1 0 0 0 1 3069b.dat
1 19 -180 -192 -0 1 0 0 0 1 0 0 0 1 3022.dat
1 19 180 -192 -0 1 0 0 0 1 0 0 0 1 3022.dat
1 19 -50 -192 -120 0 0 -1 0 1 0 1 0 0 3460.dat
1 19 -30 -192 -50 1 0 0 0 1 0 0 0 1 3024.dat
1 19 40 -192 -50 1 0 0 0 1 0 0 0 1 3023.dat
1 19 50 -192 -120 0 0 -1 0 1 0 1 0 0 3666.dat
1 19 50 -192 -190 1 0 0 0 1 0 0 0 1 3024.dat
1 19 -180 -192 30 1 0 0 0 1 0 0 0 1 3069b.dat
1 19 180 -192 30 1 0 0 0 1 0 0 0 1 3069b.dat
1 19 -210 -192 -0 0 0 -1 0 1 0 1 0 0 3069b.dat
1 19 -150 -192 -0 0 0 -1 0 1 0 1 0 0 3069b.dat
1 19 150 -192 -0 0 0 -1 0 1 0 1 0 0 3069b.dat
1 19 210 -192 -0 0 0 -1 0 1 0 1 0 0 3069b.dat
1 19 -180 -192 -30 1 0 0 0 1 0 0 0 1 3069b.dat
1 19 180 -192 -30 1 0 0 0 1 0 0 0 1 3069b.dat
1 19 -30 -192 -70 1 0 0 0 1 0 0 0 1 3070b.dat
1 19 30 -192 -70 1 0 0 0 1 0 0 0 1 3070b.dat
1 70 -80 -192 -0 0 0 -1 0 1 0 1 0 0 3795.dat
1 70 20 -192 50 1 0 0 0 1 0 0 0 1 3460.dat
1 70 -110 -192 -0 0 0 -1 0 1 0 1 0 0 3710.dat
1 70 -50 -192 30 1 0 0 0 1 0 0 0 1 3024.dat
1 70 80 -192 30 1 0 0 0 1 0 0 0 1 3710.dat
1 70 80 -192 -20 0 0 -1 0 1 0 1 0 0 3020.dat
1 70 110 -192 -10 0 0 -1 0 1 0 1 0 0 3623.dat
1 70 -50 -192 -30 1 0 0 0 1 0 0 0 1 3024.dat
1 70 50 -192 -30 1 0 0 0 1 0 0 0 1 3024.dat
1 70 0 -192 70 1 0 0 0 1 0 0 0 1 4162.dat
1 70 -130 -192 -0 0 0 -1 0 1 0 1 0 0 6636.dat
1 70 -110 -192 50 1 0 0 0 1 0 0 0 1 3070b.dat
1 70 120 -192 50 1 0 0 0 1 0 0 0 1 3069b.dat
1 70 130 -192 -0 0 0 -1 0 1 0 1 0 0 2431.dat
1 70 -110 -192 -50 1 0 0 0 1 0 0 0 1 3070b.dat
1 70 120 -192 -50 1 0 0 0 1 0 0 0 1 3069b.dat
1 70 -70 -192 -70 1 0 0 0 1 0 0 0 1 3070b.dat
1 70 70 -192 -70 1 0 0 0 1 0 0 0 1 3070b.dat
1 78 0 -192 -0 1 0 0 0 1 0 0 0 1 3031.dat
1 78 -50 -192 -0 0 0 -1 0 1 0 1 0 0 3023.dat
1 78 50 -192 -0 0 0 -1 0 1 0 1 0 0 3023.dat
1 78 0 -192 -50 1 0 0 0 1 0 0 0 1 3023.dat
0 STEP
1 19 -170 -200 -0 0 0 -1 0 1 0 1 0 0 3023.dat
1 19 170 -200 -0 0 0 -1 0 1 0 1 0 0 3023.dat
1 19 -190 -200 -0 0 0 -1 0 1 0 1 0 0 3069b.dat
1 19 190 -200 -0 0 0 -1 0 1 0 1 0 0 3069b.dat
1 19 -50 -200 -120 0 0 -1 0 1 0 1 0 0 4162.dat
1 19 -30 -200 -50 1 0 0 0 1 0 0 0 1 3070b.dat
1 19 40 -200 -50 1 0 0 0 1 0 0 0 1 3069b.dat
1 19 50 -200 -120 0 0 -1 0 1 0 1 0 0 6636.dat
1 19 50 -200 -190 1 0 0 0 1 0 0 0 1 3070b.dat
1 70 -20 -200 50 1 0 0 0 1 0 0 0 1 4162.dat
1 70 70 -200 -0 0 0 -1 0 1 0 1 0 0 6636.dat
1 70 90 -200 -0 0 0 -1 0 1 0 1 0 0 6636.dat
1 70 -80 -200 30 1 0 0 0 1 0 0 0 1 2431.dat
1 70 50 -200 30 1 0 0 0 1 0 0 0 1 3070b.dat
1 70 110 -200 -0 0 0 -1 0 1 0 1 0 0 2431.dat
1 70 -100 -200 -0 1 0 0 0 1 0 0 0 1 3068b.dat
1 70 -70 -200 -20 0 0 -1 0 1 0 1 0 0 2431.dat
1 70 -100 -200 -30 1 0 0 0 1 0 0 0 1 3069b.dat
1 70 -50 -200 -30 1 0 0 0 1 0 0 0 1 3070b.dat
1 70 50 -200 -30 1 0 0 0 1 0 0 0 1 3070b.dat
1 70 -90 -200 -50 1 0 0 0 1 0 0 0 1 3070b.dat
1 78 0 -200 -0 1 0 0 0 1 0 0 0 1 3031.dat
1 78 -50 -200 -0 0 0 -1 0 1 0 1 0 0 3023.dat
1 78 50 -200 -0 0 0 -1 0 1 0 1 0 0 3023.dat
1 78 0 -200 -50 1 0 0 0 1 0 0 0 1 3023.dat
0 STEP
1 19 -170 -208 -0 0 0 -1 0 1 0 1 0 0 3069b.dat
1 19 170 -208 -0 0 0 -1 0 1 0 1 0 0 3069b.dat
1 78 0 -208 -0 1 0 0 0 1 0 0 0 1 3031.dat
1 78 -50 -208 -0 0 0 -1 0 1 0 1 0 0 3023.dat
1 78 50 -208 -0 0 0 -1 0 1 0 1 0 0 3023.dat
1 78 0 -208 -50 1 0 0 0 1 0 0 0 1 3023.dat
0 STEP
1 78 0 -216 -0 1 0 0 0 1 0 0 0 1 3031.dat
1 78 -50 -216 -10 0 0 -1 0 1 0 1 0 0 3623.dat
1 78 50 -216 -10 0 0 -1 0 1 0 1 0 0 3623.dat
1 78 0 -216 -50 1 0 0 0 1 0 0 0 1 3710.dat
0 STEP
1 78 0 -224 -0 0 0 -1 0 1 0 1 0 0 3032.dat
1 78 -50 -224 -0 0 0 -1 0 1 0 1 0 0 3710.dat
1 78 50 -224 -0 0 0 -1 0 1 0 1 0 0 3710.dat
1 78 -70 -224 -10 1 0 0 0 1 0 0 0 1 3024.dat
1 78 70 -224 -10 1 0 0 0 1 0 0 0 1 3024.dat
1 78 -50 -224 -50 1 0 0 0 1 0 0 0 1 3024.dat
1 78 50 -224 -50 1 0 0 0 1 0 0 0 1 3024.dat
1 78 0 -224 -70 1 0 0 0 1 0 0 0 1 3023.dat
0 STEP
1 78 0 -232 -0 0 0 -1 0 1 0 1 0 0 3032.dat
1 78 -50 -232 -0 0 0 -1 0 1 0 1 0 0 3710.dat
1 78 50 -232 -0 0 0 -1 0 1 0 1 0 0 3710.dat
1 78 -70 -232 -10 0 0 -1 0 1 0 1 0 0 3623.dat
1 78 70 -232 -10 0 0 -1 0 1 0 1 0 0 3623.dat
1 78 -50 -232 -50 1 0 0 0 1 0 0 0 1 3024.dat
1 78 50 -232 -50 1 0 0 0 1 0 0 0 1 3024.dat
1 78 0 -232 -70 1 0 0 0 1 0 0 0 1 3710.dat
0 STEP
1 78 0 -240 40 0 0 -1 0 1 0 1 0 0 3020.dat
1 78 -40 -240 -0 0 0 -1 0 1 0 1 0 0 3795.dat
1 78 40 -240 -0 0 0 -1 0 1 0 1 0 0 3795.dat
1 78 -70 -240 -0 0 0 -1 0 1 0 1 0 0 3710.dat
1 78 70 -240 -0 0 0 -1 0 1 0 1 0 0 3710.dat
1 78 0 -240 -50 0 0 -1 0 1 0 1 0 0 3021.dat
1 78 -70 -240 -50 1 0 0 0 1 0 0 0 1 3024.dat
1 78 70 -240 -50 1 0 0 0 1 0 0 0 1 3024.dat
1 78 -40 -240 -70 1 0 0 0 1 0 0 0 1 3023.dat
1 78 40 -240 -70 1 0 0 0 1 0 0 0 1 3023.dat
0 STEP
1 78 0 -248 40 1 0 0 0 1 0 0 0 1 3031.dat
1 78 -50 -248 -0 0 0 -1 0 1 0 1 0 0 3666.dat
1 78 50 -248 -0 0 0 -1 0 1 0 1 0 0 3666.dat
1 78 -70 -248 -0 0 0 -1 0 1 0 1 0 0 3710.dat
1 78 70 -248 -0 0 0 -1 0 1 0 1 0 0 3710.dat
1 78 -90 -248 -10 0 0 -1 0 1 0 1 0 0 3623.dat
1 78 90 -248 -10 0 0 -1 0 1 0 1 0 0 3623.dat
1 78 -30 -248 -40 0 0 -1 0 1 0 1 0 0 3710.dat
1 78 30 -248 -40 0 0 -1 0 1 0 1 0 0 3710.dat
1 78 0 -248 -60 0 0 -1 0 1 0 1 0 0 3020.dat
1 78 -70 -248 -50 1 0 0 0 1 0 0 0 1 3024.dat
1 78 70 -248 -50 1 0 0 0 1 0 0 0 1 3024.dat
1 78 -50 -248 -70 1 0 0 0 1 0 0 0 1 3024.dat
1 78 50 -248 -70 1 0 0 0 1 0 0 0 1 3024.dat
0 STEP
1 78 0 -256 60 1 0 0 0 1 0 0 0 1 3795.dat
1 78 -70 -256 -0 0 0 -1 0 1 0 1 0 0 3666.dat
1 78 70 -256 -0 0 0 -1 0 1 0 1 0 0 3666.dat
1 78 -90 -256 -0 0 0 -1 0 1 0 1 0 0 3710.dat
1 78 0 -256 30 1 0 0 0 1 0 0 0 1 3666.dat
1 78 90 -256 -0 0 0 -1 0 1 0 1 0 0 3710.dat
1 78 -50 -256 -20 0 0 -1 0 1 0 1 0 0 3710.dat
1 78 -30 -256 10 1 0 0 0 1 0 0 0 1 3024.dat
1 78 40 -256 10 1 0 0 0 1 0 0 0 1 3023.dat
1 78 50 -256 -40 0 0 -1 0 1 0 1 0 0 3710.dat
1 78 -30 -256 -60 0 0 -1 0 1 0 1 0 0 3710.dat
1 78 30 -256 -60 0 0 -1 0 1 0 1 0 0 3710.dat
1 78 0 -256 -70 0 0 -1 0 1 0 1 0 0 3021.dat
1 78 -60 -256 -70 1 0 0 0 1 0 0 0 1 3023.dat
1 78 70 -256 -70 1 0 0 0 1 0 0 0 1 3024.dat
0 STEP
1 78 0 -264 60 1 0 0 0 1 0 0 0 1 3795.dat
1 78 -70 -264 -0 0 0 -1 0 1 0 1 0 0 3666.dat
1 78 70 -264 -0 0 0 -1 0 1 0 1 0 0 3666.dat
1 78 -90 -264 -0 0 0 -1 0 1 0 1 0 0 3710.dat
1 78 0 -264 30 1 0 0 0 1 0 0 0 1 3666.dat
1 78 90 -264 -0 0 0 -1 0 1 0 1 0 0 3710.dat
1 78 -50 -264 -40 0 0 -1 0 1 0 1 0 0 3666.dat
1 78 -30 -264 10 1 0 0 0 1 0 0 0 1 3024.dat
1 78 40 -264 10 1 0 0 0 1 0 0 0 1 3023.dat
1 78 50 -264 -40 0 0 -1 0 1 0 1 0 0 3710.dat
1 78 -30 -264 -60 0 0 -1 0 1 0 1 0 0 3710.dat
1 78 30 -264 -60 0 0 -1 0 1 0 1 0 0 3710.dat
1 78 -90 -264 -50 1 0 0 0 1 0 0 0 1 3024.dat
1 78 0 -264 -70 0 0 -1 0 1 0 1 0 0 3021.dat
1 78 90 -264 -50 1 0 0 0 1 0 0 0 1 3024.dat
1 78 -70 -264 -70 1 0 0 0 1 0 0 0 1 3024.dat
1 78 70 -264 -70 1 0 0 0 1 0 0 0 1 3024.dat
1 78 50 -264 -90 1 0 0 0 1 0 0 0 1 3024.dat
0 STEP
1 78 0 -272 70 0 0 -1 0 1 0 1 0 0 3021.dat
1 78 -50 -272 -0 0 0 -1 0 1 0 1 0 0 3460.dat
1 78 -30 -272 50 0 0 -1 0 1 0 1 0 0 3623.dat
1 78 40 -272 50 0 0 -1 0 1 0 1 0 0 3021.dat
1 78 -70 -272 -0 0 0 -1 0 1 0 1 0 0 3666.dat
1 78 70 -272 -0 0 0 -1 0 1 0 1 0 0 3666.dat
1 78 -90 -272 -0 0 0 -1 0 1 0 1 0 0 3710.dat
1 78 90 -272 -0 0 0 -1 0 1 0 1 0 0 3710.dat
1 78 50 -272 -40 0 0 -1 0 1 0 1 0 0 3666.dat
1 78 -90 -272 -50 1 0 0 0 1 0 0 0 1 3024.dat
1 78 0 -272 -60 1 0 0 0 1 0 0 0 1 3020.dat
1 78 90 -272 -50 1 0 0 0 1 0 0 0 1 3024.dat
1 78 -70 -272 -70 1 0 0 0 1 0 0 0 1 3024.dat
1 78 70 -272 -70 1 0 0 0 1 0 0 0 1 3024.dat
1 78 -20 -272 -90 1 0 0 0 1 0 0 0 1 3710.dat
1 78 30 -272 -90 1 0 0 0 1 0 0 0 1 3024.dat
0 STEP
1 78 0 -280 80 1 0 0 0 1 0 0 0 1 3020.dat
1 78 -70 -280 -0 0 0 -1 0 1 0 1 0 0 3460.dat
1 78 -50 -280 40 0 0 -1 0 1 0 1 0 0 3710.dat
1 78 60 -280 40 0 0 -1 0 1 0 1 0 0 3020.dat
1 78 -90 -280 -0 0 0 -1 0 1 0 1 0 0 3666.dat
1 78 0 -280 50 1 0 0 0 1 0 0 0 1 3710.dat
1 78 90 -280 -0 0 0 -1 0 1 0 1 0 0 3666.dat
1 78 -30 -280 30 1 0 0 0 1 0 0 0 1 3024.dat
1 78 30 -280 30 1 0 0 0 1 0 0 0 1 3024.dat
1 78 -110 -280 -10 0 0 -1 0 1 0 1 0 0 3623.dat
1 78 110 -280 -10 0 0 -1 0 1 0 1 0 0 3623.dat
1 78 70 -280 -40 0 0 -1 0 1 0 1 0 0 3710.dat
1 78 -50 -280 -60 0 0 -1 0 1 0 1 0 0 3710.dat
1 78 50 -280 -60 0 0 -1 0 1 0 1 0 0 3710.dat
1 78 -30 -280 -70 0 0 -1 0 1 0 1 0 0 3623.dat
1 78 30 -280 -70 0 0 -1 0 1 0 1 0 0 3623.dat
1 78 -90 -280 -70 1 0 0 0 1 0 0 0 1 3024.dat
1 78 0 -280 -90 0 0 -1 0 1 0 1 0 0 3021.dat
1 78 90 -280 -70 1 0 0 0 1 0 0 0 1 3024.dat
0 STEP
1 78 0 -288 80 1 0 0 0 1 0 0 0 1 3020.dat
1 78 -70 -288 -0 0 0 -1 0 1 0 1 0 0 3460.dat
1 78 -50 -288 40 0 0 -1 0 1 0 1 0 0 3710.dat
1 78 60 -288 40 0 0 -1 0 1 0 1 0 0 3020.dat
1 78 -90 -288 -0 0 0 -1 0 1 0 1 0 0 3666.dat
1 78 0 -288 50 1 0 0 0 1 0 0 0 1 3710.dat
1 78 90 -288 -0 0 0 -1 0 1 0 1 0 0 3666.dat
1 78 -30 -288 30 1 0 0 0 1 0 0 0 1 3024.dat
1 78 30 -288 30 1 0 0 0 1 0 0 0 1 3024.dat
1 78 -110 -288 -10 0 0 -1 0 1 0 1 0 0 3623.dat
1 78 110 -288 -10 0 0 -1 0 1 0 1 0 0 3623.dat
1 78 70 -288 -40 0 0 -1 0 1 0 1 0 0 3710.dat
1 78 -50 -288 -60 0 0 -1 0 1 0 1 0 0 3710.dat
1 78 50 -288 -60 0 0 -1 0 1 0 1 0 0 3710.dat
1 78 -30 -288 -70 0 0 -1 0 1 0 1 0 0 3623.dat
1 78 30 -288 -70 0 0 -1 0 1 0 1 0 0 3623.dat
1 78 -90 -288 -70 1 0 0 0 1 0 0 0 1 3024.dat
1 78 0 -288 -80 1 0 0 0 1 0 0 0 1 3022.dat
1 78 90 -288 -70 1 0 0 0 1 0 0 0 1 3024.dat
1 78 -70 -288 -90 1 0 0 0 1 0 0 0 1 3024.dat
1 78 70 -288 -90 1 0 0 0 1 0 0 0 1 3024.dat
1 308 0 -288 -110 1 0 0 0 1 0 0 0 1 3710.dat
0 STEP
1 78 0 -296 80 1 0 0 0 1 0 0 0 1 3795.dat
1 78 -70 -296 -0 0 0 -1 0 1 0 1 0 0 3460.dat
1 78 70 -296 -0 0 0 -1 0 1 0 1 0 0 3460.dat
1 78 -90 -296 -0 0 0 -1 0 1 0 1 0 0 3666.dat
1 78 0 -296 50 1 0 0 0 1 0 0 0 1 3666.dat
1 78 90 -296 -0 0 0 -1 0 1 0 1 0 0 3666.dat
1 78 -110 -296 -0 0 0 -1 0 1 0 1 0 0 3710.dat
1 78 -50 -296 30 1 0 0 0 1 0 0 0 1 3024.dat
1 78 50 -296 30 1 0 0 0 1 0 0 0 1 3024.dat
1 78 110 -296 -0 0 0 -1 0 1 0 1 0 0 3710.dat
1 78 -40 -296 -60 1 0 0 0 1 0 0 0 1 3022.dat
1 78 30 -296 -80 0 0 -1 0 1 0 1 0 0 3710.dat
1 78 50 -296 -60 0 0 -1 0 1 0 1 0 0 3023.dat
1 78 -90 -296 -70 1 0 0 0 1 0 0 0 1 3024.dat
1 78 0 -296 -90 0 0 -1 0 1 0 1 0 0 3021.dat
1 78 90 -296 -70 1 0 0 0 1 0 0 0 1 3024.dat
1 78 -70 -296 -90 1 0 0 0 1 0 0 0 1 3024.dat
1 78 -30 -296 -100 0 0 -1 0 1 0 1 0 0 3023.dat
1 78 70 -296 -90 1 0 0 0 1 0 0 0 1 3024.dat
1 308 -50 -296 -90 1 0 0 0 1 0 0 0 1 3024.dat
1 308 50 -296 -90 1 0 0 0 1 0 0 0 1 3024.dat
0 STEP
1 78 0 -304 80 1 0 0 0 1 0 0 0 1 3795.dat
1 78 -70 -304 -0 0 0 -1 0 1 0 1 0 0 3460.dat
1 78 70 -304 -0 0 0 -1 0 1 0 1 0 0 3460.dat
1 78 -90 -304 -0 0 0 -1 0 1 0 1 0 0 3666.dat
1 78 0 -304 50 1 0 0 0 1 0 0 0 1 3666.dat
1 78 90 -304 -0 0 0 -1 0 1 0 1 0 0 3666.dat
1 78 -110 -304 -0 0 0 -1 0 1 0 1 0 0 3710.dat
1 78 -50 -304 30 1 0 0 0 1 0 0 0 1 3024.dat
1 78 50 -304 30 1 0 0 0 1 0 0 0 1 3024.dat
1 78 110 -304 -0 0 0 -1 0 1 0 1 0 0 3710.dat
1 78 -110 -304 -50 1 0 0 0 1 0 0 0 1 3024.dat
1 78 -50 -304 -70 0 0 -1 0 1 0 1 0 0 3623.dat
1 78 50 -304 -70 0 0 -1 0 1 0 1 0 0 3623.dat
1 78 110 -304 -50 1 0 0 0 1 0 0 0 1 3024.dat
1 78 -90 -304 -70 1 0 0 0 1 0 0 0 1 3024.dat
1 78 0 -304 -80 1 0 0 0 1 0 0 0 1 3020.dat
1 78 90 -304 -70 1 0 0 0 1 0 0 0 1 3024.dat
1 78 -70 -304 -90 1 0 0 0 1 0 0 0 1 3024.dat
1 78 70 -304 -90 1 0 0 0 1 0 0 0 1 3024.dat
1 78 0 -304 -110 1 0 0 0 1 0 0 0 1 3710.dat
0 STEP
1 78 0 -312 80 1 0 0 0 1 0 0 0 1 3795.dat
1 78 -70 -312 -0 0 0 -1 0 1 0 1 0 0 3460.dat
1 78 70 -312 -0 0 0 -1 0 1 0 1 0 0 3460.dat
1 78 -90 -312 -0 0 0 -1 0 1 0 1 0 0 3666.dat
1 78 -40 -312 50 1 0 0 0 1 0 0 0 1 3023.dat
1 78 40 -312 50 1 0 0 0 1 0 0 0 1 3023.dat
1 78 90 -312 -0 0 0 -1 0 1 0 1 0 0 3666.dat
1 78 -110 -312 -0 0 0 -1 0 1 0 1 0 0 3710.dat
1 78 -50 -312 30 1 0 0 0 1 0 0 0 1 3024.dat
1 78 50 -312 30 1 0 0 0 1 0 0 0 1 3024.dat
1 78 110 -312 -0 0 0 -1 0 1 0 1 0 0 3710.dat
1 78 -110 -312 -50 1 0 0 0 1 0 0 0 1 3024.dat
1 78 -50 -312 -80 0 0 -1 0 1 0 1 0 0 3710.dat
1 78 50 -312 -80 0 0 -1 0 1 0 1 0 0 3710.dat
1 78 110 -312 -50 1 0 0 0 1 0 0 0 1 3024.dat
1 78 -90 -312 -70 1 0 0 0 1 0 0 0 1 3024.dat
1 78 0 -312 -80 1 0 0 0 1 0 0 0 1 3020.dat
1 78 90 -312 -70 1 0 0 0 1 0 0 0 1 3024.dat
1 78 -70 -312 -90 1 0 0 0 1 0 0 0 1 3024.dat
1 78 70 -312 -90 1 0 0 0 1 0 0 0 1 3024.dat
1 78 0 -312 -110 1 0 0 0 1 0 0 0 1 3710.dat
0 STEP
1 15 0 -320 100 1 0 0 0 1 0 0 0 1 3795.dat
1 15 -80 -320 70 0 0 -1 0 1 0 1 0 0 3021.dat
1 15 80 -320 70 0 0 -1 0 1 0 1 0 0 3021.dat
1 15 -110 -320 60 0 0 -1 0 1 0 1 0 0 3023.dat
1 15 0 -320 70 1 0 0 0 1 0 0 0 1 3666.dat
1 15 110 -320 60 0 0 -1 0 1 0 1 0 0 3023.dat
1 15 -40 -320 50 1 0 0 0 1 0 0 0 1 3023.dat
1 15 40 -320 50 1 0 0 0 1 0 0 0 1 3023.dat
1 78 -100 -320 -0 0 0 -1 0 1 0 1 0 0 3020.dat
1 78 -60 -320 30 1 0 0 0 1 0 0 0 1 3023.dat
1 78 80 -320 30 1 0 0 0 1 0 0 0 1 3710.dat
1 78 -70 -320 10 1 0 0 0 1 0 0 0 1 3024.dat
1 78 90 -320 10 1 0 0 0 1 0 0 0 1 3623.dat
1 78 100 -320 -30 0 0 -1 0 1 0 1 0 0 3021.dat
1 78 -70 -320 -60 0 0 -1 0 1 0 1 0 0 3710.dat
1 78 70 -320 -60 0 0 -1 0 1 0 1 0 0 3710.dat
1 78 -100 -320 -50 1 0 0 0 1 0 0 0 1 3023.dat
1 78 -50 -320 -80 0 0 -1 0 1 0 1 0 0 3710.dat
1 78 50 -320 -80 0 0 -1 0 1 0 1 0 0 3710.dat
1 78 -90 -320 -70 1 0 0 0 1 0 0 0 1 3024.dat
1 78 0 -320 -80 1 0 0 0 1 0 0 0 1 3020.dat
1 78 90 -320 -70 1 0 0 0 1 0 0 0 1 3024.dat
1 78 0 -320 -110 1 0 0 0 1 0 0 0 1 3710.dat
0 STEP
1 15 0 -328 100 1 0 0 0 1 0 0 0 1 3034.dat
1 15 -90 -328 70 0 0 -1 0 1 0 1 0 0 3623.dat
1 15 90 -328 70 0 0 -1 0 1 0 1 0 0 3623.dat
1 15 -110 -328 60 0 0 -1 0 1 0 1 0 0 3023.dat
1 15 0 -328 70 1 0 0 0 1 0 0 0 1 3460.dat
1 15 110 -328 60 0 0 -1 0 1 0 1 0 0 3023.dat
1 15 -130 -328 50 1 0 0 0 1 0 0 0 1 3024.dat
1 15 -50 -328 50 1 0 0 0 1 0 0 0 1 3623.dat
1 15 50 -328 50 1 0 0 0 1 0 0 0 1 3623.dat
1 15 130 -328 50 1 0 0 0 1 0 0 0 1 3024.dat
1 78 -100 -328 -0 0 0 -1 0 1 0 1 0 0 3020.dat
1 78 -60 -328 30 1 0 0 0 1 0 0 0 1 3023.dat
1 78 80 -328 30 1 0 0 0 1 0 0 0 1 3710.dat
1 78 -70 -328 10 1 0 0 0 1 0 0 0 1 3024.dat
1 78 90 -328 10 1 0 0 0 1 0 0 0 1 3623.dat
1 78 100 -328 -30 0 0 -1 0 1 0 1 0 0 3021.dat
1 78 -70 -328 -60 0 0 -1 0 1 0 1 0 0 3710.dat
1 78 70 -328 -60 0 0 -1 0 1 0 1 0 0 3710.dat
1 78 -100 -328 -50 1 0 0 0 1 0 0 0 1 3023.dat
1 78 -50 -328 -80 0 0 -1 0 1 0 1 0 0 3710.dat
1 78 50 -328 -80 0 0 -1 0 1 0 1 0 0 3710.dat
1 78 -90 -328 -70 1 0 0 0 1 0 0 0 1 3024.dat
1 78 -30 -328 -90 0 0 -1 0 1 0 1 0 0 3623.dat
1 78 30 -328 -90 0 0 -1 0 1 0 1 0 0 3623.dat
1 78 90 -328 -70 1 0 0 0 1 0 0 0 1 3024.dat
1 78 0 -328 -110 0 0 -1 0 1 0 1 0 0 3021.dat
0 STEP
1 15 0 -336 100 1 0 0 0 1 0 0 0 1 3034.dat
1 15 -90 -336 70 0 0 -1 0 1 0 1 0 0 3623.dat
1 15 90 -336 70 0 0 -1 0 1 0 1 0 0 3623.dat
1 15 -110 -336 60 0 0 -1 0 1 0 1 0 0 3023.dat
1 15 -50 -336 70 1 0 0 0 1 0 0 0 1 3623.dat
1 15 50 -336 70 1 0 0 0 1 0 0 0 1 3623.dat
1 15 110 -336 60 0 0 -1 0 1 0 1 0 0 3023.dat
1 15 -130 -336 50 1 0 0 0 1 0 0 0 1 3024.dat
1 15 -70 -336 50 1 0 0 0 1 0 0 0 1 3024.dat
1 15 70 -336 50 1 0 0 0 1 0 0 0 1 3024.dat
1 15 130 -336 50 1 0 0 0 1 0 0 0 1 3024.dat
1 78 -100 -336 -0 0 0 -1 0 1 0 1 0 0 3020.dat
1 78 100 -336 -0 0 0 -1 0 1 0 1 0 0 3020.dat
1 78 -70 -336 -60 0 0 -1 0 1 0 1 0 0 3710.dat
1 78 70 -336 -60 0 0 -1 0 1 0 1 0 0 3710.dat
1 78 -100 -336 -50 1 0 0 0 1 0 0 0 1 3023.dat
1 78 -50 -336 -80 0 0 -1 0 1 0 1 0 0 3710.dat
1 78 50 -336 -80 0 0 -1 0 1 0 1 0 0 3710.dat
1 78 90 -336 -70 0 0 -1 0 1 0 1 0 0 3623.dat
1 78 110 -336 -50 1 0 0 0 1 0 0 0 1 3024.dat
1 78 -90 -336 -80 0 0 -1 0 1 0 1 0 0 3023.dat
1 78 -30 -336 -90 0 0 -1 0 1 0 1 0 0 3623.dat
1 78 30 -336 -90 0 0 -1 0 1 0 1 0 0 3623.dat
1 78 0 -336 -110 0 0 -1 0 1 0 1 0 0 3021.dat
0 STEP
1 15 0 -344 110 0 0 -1 0 1 0 1 0 0 3021.dat
1 15 -50 -344 100 1 0 0 0 1 0 0 0 1 3021.dat
1 15 50 -344 100 1 0 0 0 1 0 0 0 1 3021.dat
1 15 -90 -344 70 0 0 -1 0 1 0 1 0 0 3623.dat
1 15 90 -344 70 0 0 -1 0 1 0 1 0 0 3623.dat
1 15 -110 -344 60 0 0 -1 0 1 0 1 0 0 3023.dat
1 15 -60 -344 70 1 0 0 0 1 0 0 0 1 3023.dat
1 15 60 -344 70 1 0 0 0 1 0 0 0 1 3023.dat
1 15 110 -344 60 0 0 -1 0 1 0 1 0 0 3023.dat
1 15 -130 -344 50 1 0 0 0 1 0 0 0 1 3024.dat
1 15 -70 -344 50 1 0 0 0 1 0 0 0 1 3024.dat
1 15 70 -344 50 1 0 0 0 1 0 0 0 1 3024.dat
1 15 130 -344 50 1 0 0 0 1 0 0 0 1 3024.dat
1 78 -100 -344 -0 0 0 -1 0 1 0 1 0 0 3020.dat
1 78 100 -344 -0 0 0 -1 0 1 0 1 0 0 3020.dat
1 78 -130 -344 -0 0 0 -1 0 1 0 1 0 0 3023.dat
1 78 130 -344 -0 0 0 -1 0 1 0 1 0 0 3023.dat
1 78 -70 -344 -60 0 0 -1 0 1 0 1 0 0 3710.dat
1 78 70 -344 -60 0 0 -1 0 1 0 1 0 0 3710.dat
1 78 -100 -344 -50 1 0 0 0 1 0 0 0 1 3023.dat
1 78 -50 -344 -80 0 0 -1 0 1 0 1 0 0 3710.dat
1 78 50 -344 -80 0 0 -1 0 1 0 1 0 0 3710.dat
1 78 90 -344 -70 0 0 -1 0 1 0 1 0 0 3623.dat
1 78 110 -344 -50 1 0 0 0 1 0 0 0 1 3024.dat
1 78 -90 -344 -80 0 0 -1 0 1 0 1 0 0 3023.dat
1 78 -30 -344 -90 0 0 -1 0 1 0 1 0 0 3623.dat
1 78 30 -344 -90 0 0 -1 0 1 0 1 0 0 3623.dat
1 78 0 -344 -110 0 0 -1 0 1 0 1 0 0 3021.dat
0 STEP
1 15 0 -352 110 0 0 -1 0 1 0 1 0 0 3021.dat
1 15 -50 -352 100 1 0 0 0 1 0 0 0 1 3021.dat
1 15 50 -352 100 1 0 0 0 1 0 0 0 1 3021.dat
1 15 -90 -352 70 0 0 -1 0 1 0 1 0 0 3623.dat
1 15 90 -352 70 0 0 -1 0 1 0 1 0 0 3623.dat
1 15 -110 -352 60 0 0 -1 0 1 0 1 0 0 3023.dat
1 15 -60 -352 70 1 0 0 0 1 0 0 0 1 3023.dat
1 15 60 -352 70 1 0 0 0 1 0 0 0 1 3023.dat
1 15 110 -352 60 0 0 -1 0 1 0 1 0 0 3023.dat
1 15 -130 -352 50 1 0 0 0 1 0 0 0 1 3024.dat
1 15 -70 -352 50 1 0 0 0 1 0 0 0 1 3024.dat
1 15 70 -352 50 1 0 0 0 1 0 0 0 1 3024.dat
1 15 130 -352 50 1 0 0 0 1 0 0 0 1 3024.dat
1 78 -100 -352 -20 0 0 -1 0 1 0 1 0 0 3795.dat
1 78 100 -352 -20 0 0 -1 0 1 0 1 0 0 3795.dat
1 78 -130 -352 -0 0 0 -1 0 1 0 1 0 0 3023.dat
1 78 130 -352 -0 0 0 -1 0 1 0 1 0 0 3023.dat
1 78 -70 -352 -60 0 0 -1 0 1 0 1 0 0 3710.dat
1 78 70 -352 -60 0 0 -1 0 1 0 1 0 0 3710.dat
1 78 -40 -352 -90 0 0 -1 0 1 0 1 0 0 3021.dat
1 78 40 -352 -90 0 0 -1 0 1 0 1 0 0 3021.dat
1 78 -90 -352 -90 1 0 0 0 1 0 0 0 1 3024.dat
1 78 0 -352 -110 0 0 -1 0 1 0 1 0 0 3021.dat
1 78 90 -352 -90 1 0 0 0 1 0 0 0 1 3024.dat
0 STEP
1 15 0 -360 120 1 0 0 0 1 0 0 0 1 3020.dat
1 15 -60 -360 90 0 0 -1 0 1 0 1 0 0 3021.dat
1 15 60 -360 90 0 0 -1 0 1 0 1 0 0 3021.dat
1 15 -90 -360 70 0 0 -1 0 1 0 1 0 0 3623.dat
1 15 0 -360 90 1 0 0 0 1 0 0 0 1 3710.dat
1 15 90 -360 70 0 0 -1 0 1 0 1 0 0 3623.dat
1 15 -110 -360 60 0 0 -1 0 1 0 1 0 0 3023.dat
1 15 110 -360 60 0 0 -1 0 1 0 1 0 0 3023.dat
1 15 -130 -360 50 1 0 0 0 1 0 0 0 1 3024.dat
1 15 -70 -360 50 1 0 0 0 1 0 0 0 1 3024.dat
1 15 70 -360 50 1 0 0 0 1 0 0 0 1 3024.dat
1 15 130 -360 50 1 0 0 0 1 0 0 0 1 3024.dat
1 78 -100 -360 -20 0 0 -1 0 1 0 1 0 0 3795.dat
1 78 100 -360 -20 0 0 -1 0 1 0 1 0 0 3795.dat
1 78 -130 -360 -0 0 0 -1 0 1 0 1 0 0 3023.dat
1 78 130 -360 -0 0 0 -1 0 1 0 1 0 0 3023.dat
1 78 -70 -360 -60 0 0 -1 0 1 0 1 0 0 3710.dat
1 78 70 -360 -60 0 0 -1 0 1 0 1 0 0 3710.dat
1 78 -40 -360 -90 0 0 -1 0 1 0 1 0 0 3021.dat
1 78 40 -360 -90 0 0 -1 0 1 0 1 0 0 3021.dat
1 78 -90 -360 -90 1 0 0 0 1 0 0 0 1 3024.dat
1 78 0 -360 -100 1 0 0 0 1 0 0 0 1 3022.dat
1 78 90 -360 -90 1 0 0 0 1 0 0 0 1 3024.dat
1 78 0 -360 -130 1 0 0 0 1 0 0 0 1 3069b.dat
0 STEP
1 15 0 -368 120 1 0 0 0 1 0 0 0 1 3020.dat
1 15 -60 -368 90 0 0 -1 0 1 0 1 0 0 3021.dat
1 15 60 -368 90 0 0 -1 0 1 0 1 0 0 3021.dat
1 15 -90 -368 70 0 0 -1 0 1 0 1 0 0 3623.dat
1 15 0 -368 90 1 0 0 0 1 0 0 0 1 3710.dat
1 15 90 -368 70 0 0 -1 0 1 0 1 0 0 3623.dat
1 15 -110 -368 60 0 0 -1 0 1 0 1 0 0 3023.dat
1 15 110 -368 60 0 0 -1 0 1 0 1 0 0 3023.dat
1 15 -130 -368 50 1 0 0 0 1 0 0 0 1 3024.dat
1 15 -70 -368 50 1 0 0 0 1 0 0 0 1 3024.dat
1 15 70 -368 50 1 0 0 0 1 0 0 0 1 3024.dat
1 15 130 -368 50 1 0 0 0 1 0 0 0 1 3024.dat
1 15 -70 -368 -90 1 0 0 0 1 0 0 0 1 3024.dat
1 15 70 -368 -90 1 0 0 0 1 0 0 0 1 3024.dat
1 15 -40 -368 -110 1 0 0 0 1 0 0 0 1 3023.dat
1 15 40 -368 -110 1 0 0 0 1 0 0 0 1 3023.dat
1 78 -100 -368 -20 0 0 -1 0 1 0 1 0 0 3795.dat
1 78 100 -368 -20 0 0 -1 0 1 0 1 0 0 3795.dat
1 78 -130 -368 -0 0 0 -1 0 1 0 1 0 0 3023.dat
1 78 130 -368 -0 0 0 -1 0 1 0 1 0 0 3023.dat
1 78 -70 -368 -50 0 0 -1 0 1 0 1 0 0 3623.dat
1 78 70 -368 -50 0 0 -1 0 1 0 1 0 0 3623.dat
1 78 -40 -368 -80 1 0 0 0 1 0 0 0 1 3022.dat
1 78 40 -368 -80 1 0 0 0 1 0 0 0 1 3022.dat
1 78 -90 -368 -90 1 0 0 0 1 0 0 0 1 3024.dat
1 78 0 -368 -100 1 0 0 0 1 0 0 0 1 3022.dat
1 78 90 -368 -90 1 0 0 0 1 0 0 0 1 3024.dat
0 STEP
1 15 0 -376 120 1 0 0 0 1 0 0 0 1 3020.dat
1 15 -60 -376 90 0 0 -1 0 1 0 1 0 0 3021.dat
1 15 60 -376 90 0 0 -1 0 1 0 1 0 0 3021.dat
1 15 -100 -376 70 0 0 -1 0 1 0 1 0 0 3021.dat
1 15 0 -376 90 1 0 0 0 1 0 0 0 1 3710.dat
1 15 100 -376 70 0 0 -1 0 1 0 1 0 0 3021.dat
1 15 -130 -376 50 1 0 0 0 1 0 0 0 1 3024.dat
1 15 -70 -376 50 1 0 0 0 1 0 0 0 1 3024.dat
1 15 70 -376 50 1 0 0 0 1 0 0 0 1 3024.dat
1 15 130 -376 50 1 0 0 0 1 0 0 0 1 3024.dat
1 15 -70 -376 -90 1 0 0 0 1 0 0 0 1 3024.dat
1 15 70 -376 -90 1 0 0 0 1 0 0 0 1 3024.dat
1 15 -40 -376 -110 1 0 0 0 1 0 0 0 1 3023.dat
1 15 40 -376 -110 1 0 0 0 1 0 0 0 1 3023.dat
1 78 -100 -376 -0 0 0 -1 0 1 0 1 0 0 3020.dat
1 78 100 -376 -0 0 0 -1 0 1 0 1 0 0 3020.dat
1 78 -130 -376 -0 0 0 -1 0 1 0 1 0 0 3023.dat
1 78 130 -376 -0 0 0 -1 0 1 0 1 0 0 3023.dat
1 78 -70 -376 -50 0 0 -1 0 1 0 1 0 0 3623.dat
1 78 70 -376 -50 0 0 -1 0 1 0 1 0 0 3623.dat
1 78 -100 -376 -50 1 0 0 0 1 0 0 0 1 3023.dat
1 78 90 -376 -70 0 0 -1 0 1 0 1 0 0 3623.dat
1 78 110 -376 -50 1 0 0 0 1 0 0 0 1 3024.dat
1 78 -90 -376 -80 0 0 -1 0 1 0 1 0 0 3023.dat
1 78 -40 -376 -80 1 0 0 0 1 0 0 0 1 3022.dat
1 78 40 -376 -80 1 0 0 0 1 0 0 0 1 3022.dat
1 78 0 -376 -100 1 0 0 0 1 0 0 0 1 3022.dat
1 78 -110 -376 -70 1 0 0 0 1 0 0 0 1 3070b.dat
1 78 110 -376 -70 1 0 0 0 1 0 0 0 1 3070b.dat
0 STEP
1 0 -50 -384 -110 1 0 0 0 1 0 0 0 1 3024.dat
1 0 50 -384 -110 1 0 0 0 1 0 0 0 1 3024.dat
1 15 0 -384 120 1 0 0 0 1 0 0 0 1 3020.dat
1 15 -60 -384 90 0 0 -1 0 1 0 1 0 0 3021.dat
1 15 60 -384 90 0 0 -1 0 1 0 1 0 0 3021.dat
1 15 -100 -384 70 0 0 -1 0 1 0 1 0 0 3021.dat
1 15 0 -384 90 1 0 0 0 1 0 0 0 1 3710.dat
1 15 100 -384 70 0 0 -1 0 1 0 1 0 0 3021.dat
1 15 -130 -384 50 1 0 0 0 1 0 0 0 1 3024.dat
1 15 -70 -384 50 1 0 0 0 1 0 0 0 1 3024.dat
1 15 70 -384 50 1 0 0 0 1 0 0 0 1 3024.dat
1 15 130 -384 50 1 0 0 0 1 0 0 0 1 3024.dat
1 15 -70 -384 -90 1 0 0 0 1 0 0 0 1 3024.dat
1 15 70 -384 -90 1 0 0 0 1 0 0 0 1 3024.dat
1 15 -30 -384 -110 1 0 0 0 1 0 0 0 1 3024.dat
1 15 30 -384 -110 1 0 0 0 1 0 0 0 1 3024.dat
1 78 -100 -384 -0 0 0 -1 0 1 0 1 0 0 3020.dat
1 78 100 -384 -0 0 0 -1 0 1 0 1 0 0 3020.dat
1 78 -130 -384 -0 0 0 -1 0 1 0 1 0 0 3023.dat
1 78 130 -384 -0 0 0 -1 0 1 0 1 0 0 3023.dat
1 78 -70 -384 -50 0 0 -1 0 1 0 1 0 0 3623.dat
1 78 70 -384 -50 0 0 -1 0 1 0 1 0 0 3623.dat
1 78 -100 -384 -50 1 0 0 0 1 0 0 0 1 3023.dat
1 78 -50 -384 -70 0 0 -1 0 1 0 1 0 0 3623.dat
1 78 50 -384 -70 0 0 -1 0 1 0 1 0 0 3623.dat
1 78 90 -384 -70 0 0 -1 0 1 0 1 0 0 3623.dat
1 78 110 -384 -50 1 0 0 0 1 0 0 0 1 3024.dat
1 78 -90 -384 -80 0 0 -1 0 1 0 1 0 0 3023.dat
1 78 -30 -384 -80 0 0 -1 0 1 0 1 0 0 3023.dat
1 78 30 -384 -80 0 0 -1 0 1 0 1 0 0 3023.dat
1 78 0 -384 -100 1 0 0 0 1 0 0 0 1 3022.dat
0 STEP
1 0 -50 -392 -110 1 0 0 0 1 0 0 0 1 3024.dat
1 0 50 -392 -110 1 0 0 0 1 0 0 0 1 3024.dat
1 15 0 -392 120 1 0 0 0 1 0 0 0 1 3020.dat
1 15 -60 -392 90 0 0 -1 0 1 0 1 0 0 3021.dat
1 15 60 -392 90 0 0 -1 0 1 0 1 0 0 3021.dat
1 15 -100 -392 70 0 0 -1 0 1 0 1 0 0 3021.dat
1 15 0 -392 90 1 0 0 0 1 0 0 0 1 3710.dat
1 15 100 -392 70 0 0 -1 0 1 0 1 0 0 3021.dat
1 15 -130 -392 50 1 0 0 0 1 0 0 0 1 3024.dat
1 15 -70 -392 50 1 0 0 0 1 0 0 0 1 3024.dat
1 15 70 -392 50 1 0 0 0 1 0 0 0 1 3024.dat
1 15 130 -392 50 1 0 0 0 1 0 0 0 1 3024.dat
1 15 -70 -392 -90 1 0 0 0 1 0 0 0 1 3024.dat
1 15 70 -392 -90 1 0 0 0 1 0 0 0 1 3024.dat
1 15 -30 -392 -110 1 0 0 0 1 0 0 0 1 3024.dat
1 15 30 -392 -110 1 0 0 0 1 0 0 0 1 3024.dat
1 78 -100 -392 -0 0 0 -1 0 1 0 1 0 0 3020.dat
1 78 100 -392 -0 0 0 -1 0 1 0 1 0 0 3020.dat
1 78 -130 -392 -0 0 0 -1 0 1 0 1 0 0 3023.dat
1 78 130 -392 -0 0 0 -1 0 1 0 1 0 0 3023.dat
1 78 -70 -392 -50 0 0 -1 0 1 0 1 0 0 3623.dat
1 78 70 -392 -50 0 0 -1 0 1 0 1 0 0 3623.dat
1 78 -100 -392 -50 1 0 0 0 1 0 0 0 1 3023.dat
1 78 -50 -392 -70 0 0 -1 0 1 0 1 0 0 3623.dat
1 78 50 -392 -70 0 0 -1 0 1 0 1 0 0 3623.dat
1 78 100 -392 -50 1 0 0 0 1 0 0 0 1 3023.dat
1 78 -90 -392 -70 1 0 0 0 1 0 0 0 1 3024.dat
1 78 -30 -392 -80 0 0 -1 0 1 0 1 0 0 3023.dat
1 78 30 -392 -80 0 0 -1 0 1 0 1 0 0 3023.dat
1 78 90 -392 -70 1 0 0 0 1 0 0 0 1 3024.dat
1 78 0 -392 -100 1 0 0 0 1 0 0 0 1 3022.dat
1 78 -90 -392 -90 1 0 0 0 1 0 0 0 1 3070b.dat
1 78 90 -392 -90 1 0 0 0 1 0 0 0 1 3070b.dat
0 STEP
1 15 0 -400 120 1 0 0 0 1 0 0 0 1 3020.dat
1 15 -60 -400 90 0 0 -1 0 1 0 1 0 0 3021.dat
1 15 60 -400 90 0 0 -1 0 1 0 1 0 0 3021.dat
1 15 -90 -400 70 0 0 -1 0 1 0 1 0 0 3623.dat
1 15 0 -400 90 1 0 0 0 1 0 0 0 1 3710.dat
1 15 90 -400 70 0 0 -1 0 1 0 1 0 0 3623.dat
1 15 -110 -400 60 0 0 -1 0 1 0 1 0 0 3023.dat
1 15 110 -400 60 0 0 -1 0 1 0 1 0 0 3023.dat
1 15 -130 -400 50 1 0 0 0 1 0 0 0 1 3024.dat
1 15 -70 -400 50 1 0 0 0 1 0 0 0 1 3024.dat
1 15 70 -400 50 1 0 0 0 1 0 0 0 1 3024.dat
1 15 130 -400 50 1 0 0 0 1 0 0 0 1 3024.dat
1 15 -150 -400 10 0 0 -1 0 1 0 1 0 0 3623.dat
1 15 150 -400 10 0 0 -1 0 1 0 1 0 0 3623.dat
1 15 -130 -400 -0 0 0 -1 0 1 0 1 0 0 3023.dat
1 15 130 -400 -0 0 0 -1 0 1 0 1 0 0 3023.dat
1 15 -70 -400 -90 1 0 0 0 1 0 0 0 1 3024.dat
1 15 70 -400 -90 1 0 0 0 1 0 0 0 1 3024.dat
1 15 -40 -400 -110 1 0 0 0 1 0 0 0 1 3023.dat
1 15 40 -400 -110 1 0 0 0 1 0 0 0 1 3023.dat
1 78 -100 -400 -0 0 0 -1 0 1 0 1 0 0 3020.dat
1 78 100 -400 -0 0 0 -1 0 1 0 1 0 0 3020.dat
1 78 -70 -400 -50 0 0 -1 0 1 0 1 0 0 3623.dat
1 78 70 -400 -50 0 0 -1 0 1 0 1 0 0 3623.dat
1 78 -100 -400 -50 1 0 0 0 1 0 0 0 1 3023.dat
1 78 -50 -400 -70 0 0 -1 0 1 0 1 0 0 3623.dat
1 78 50 -400 -70 0 0 -1 0 1 0 1 0 0 3623.dat
1 78 100 -400 -50 1 0 0 0 1 0 0 0 1 3023.dat
1 78 -90 -400 -70 1 0 0 0 1 0 0 0 1 3024.dat
1 78 0 -400 -80 1 0 0 0 1 0 0 0 1 3020.dat
1 78 90 -400 -70 1 0 0 0 1 0 0 0 1 3024.dat
1 78 0 -400 -110 1 0 0 0 1 0 0 0 1 3023.dat
0 STEP
1 15 0 -408 110 0 0 -1 0 1 0 1 0 0 3021.dat
1 15 -50 -408 100 1 0 0 0 1 0 0 0 1 3021.dat
1 15 50 -408 100 1 0 0 0 1 0 0 0 1 3021.dat
1 15 -90 -408 70 0 0 -1 0 1 0 1 0 0 3623.dat
1 15 90 -408 70 0 0 -1 0 1 0 1 0 0 3623.dat
1 15 -110 -408 20 0 0 -1 0 1 0 1 0 0 3666.dat
1 15 -60 -408 70 1 0 0 0 1 0 0 0 1 3023.dat
1 15 60 -408 70 1 0 0 0 1 0 0 0 1 3023.dat
1 15 110 -408 20 0 0 -1 0 1 0 1 0 0 3666.dat
1 15 -130 -408 -0 0 0 -1 0 1 0 1 0 0 3666.dat
1 15 -70 -408 50 1 0 0 0 1 0 0 0 1 3024.dat
1 15 70 -408 50 1 0 0 0 1 0 0 0 1 3024.dat
1 15 130 -408 -0 0 0 -1 0 1 0 1 0 0 3666.dat
1 15 -150 -408 -0 0 0 -1 0 1 0 1 0 0 3710.dat
1 15 150 -408 -0 0 0 -1 0 1 0 1 0 0 3710.dat
1 15 -110 -408 -50 1 0 0 0 1 0 0 0 1 3024.dat
1 15 110 -408 -50 1 0 0 0 1 0 0 0 1 3024.dat
1 78 -90 -408 -20 0 0 -1 0 1 0 1 0 0 3666.dat
1 78 90 -408 -20 0 0 -1 0 1 0 1 0 0 3666.dat
1 78 -70 -408 -50 0 0 -1 0 1 0 1 0 0 3623.dat
1 78 70 -408 -50 0 0 -1 0 1 0 1 0 0 3623.dat
1 78 -50 -408 -70 0 0 -1 0 1 0 1 0 0 3623.dat
1 78 50 -408 -70 0 0 -1 0 1 0 1 0 0 3623.dat
1 78 -30 -408 -80 0 0 -1 0 1 0 1 0 0 3023.dat
1 78 30 -408 -80 0 0 -1 0 1 0 1 0 0 3023.dat
1 78 0 -408 -100 1 0 0 0 1 0 0 0 1 3022.dat
1 308 -70 -408 -90 1 0 0 0 1 0 0 0 1 3024.dat
1 308 70 -408 -90 1 0 0 0 1 0 0 0 1 3024.dat
1 308 -30 -408 -110 1 0 0 0 1 0 0 0 1 3024.dat
1 308 30 -408 -110 1 0 0 0 1 0 0 0 1 3024.dat
1 308 -50 -408 -110 1 0 0 0 1 0 0 0 1 3070b.dat
1 308 50 -408 -110 1 0 0 0 1 0 0 0 1 3070b.dat
0 STEP
1 15 0 -416 110 0 0 -1 0 1 0 1 0 0 3021.dat
1 15 -50 -416 100 1 0 0 0 1 0 0 0 1 3021.dat
1 15 50 -416 100 1 0 0 0 1 0 0 0 1 3021.dat
1 15 -90 -416 70 0 0 -1 0 1 0 1 0 0 3623.dat
1 15 90 -416 70 0 0 -1 0 1 0 1 0 0 3623.dat
1 15 -110 -416 20 0 0 -1 0 1 0 1 0 0 3666.dat
1 15 -60 -416 70 1 0 0 0 1 0 0 0 1 3023.dat
1 15 60 -416 70 1 0 0 0 1 0 0 0 1 3023.dat
1 15 110 -416 20 0 0 -1 0 1 0 1 0 0 3666.dat
1 15 -130 -416 -0 0 0 -1 0 1 0 1 0 0 3666.dat
1 15 -70 -416 50 1 0 0 0 1 0 0 0 1 3024.dat
1 15 70 -416 50 1 0 0 0 1 0 0 0 1 3024.dat
1 15 130 -416 -0 0 0 -1 0 1 0 1 0 0 3666.dat
1 15 -150 -416 -0 0 0 -1 0 1 0 1 0 0 3710.dat
1 15 150 -416 -0 0 0 -1 0 1 0 1 0 0 3710.dat
1 15 -110 -416 -50 1 0 0 0 1 0 0 0 1 3024.dat
1 15 110 -416 -50 1 0 0 0 1 0 0 0 1 3024.dat
1 78 -90 -416 -20 0 0 -1 0 1 0 1 0 0 3666.dat
1 78 90 -416 -20 0 0 -1 0 1 0 1 0 0 3666.dat
1 78 -70 -416 -60 0 0 -1 0 1 0 1 0 0 3710.dat
1 78 70 -416 -60 0 0 -1 0 1 0 1 0 0 3710.dat
1 78 -50 -416 -70 0 0 -1 0 1 0 1 0 0 3623.dat
1 78 50 -416 -70 0 0 -1 0 1 0 1 0 0 3623.dat
1 78 0 -416 -80 1 0 0 0 1 0 0 0 1 3020.dat
1 78 0 -416 -110 1 0 0 0 1 0 0 0 1 3710.dat
0 STEP
1 15 0 -424 100 1 0 0 0 1 0 0 0 1 3034.dat
1 15 -90 -424 70 0 0 -1 0 1 0 1 0 0 3623.dat
1 15 90 -424 70 0 0 -1 0 1 0 1 0 0 3623.dat
1 15 -110 -424 20 0 0 -1 0 1 0 1 0 0 3666.dat
1 15 -50 -424 70 1 0 0 0 1 0 0 0 1 3623.dat
1 15 50 -424 70 1 0 0 0 1 0 0 0 1 3623.dat
1 15 110 -424 20 0 0 -1 0 1 0 1 0 0 3666.dat
1 15 -140 -424 20 0 0 -1 0 1 0 1 0 0 3020.dat
1 15 -70 -424 50 1 0 0 0 1 0 0 0 1 3024.dat
1 15 70 -424 50 1 0 0 0 1 0 0 0 1 3024.dat
1 15 140 -424 20 0 0 -1 0 1 0 1 0 0 3020.dat
1 15 -170 -424 10 1 0 0 0 1 0 0 0 1 3024.dat
1 15 170 -424 10 1 0 0 0 1 0 0 0 1 3024.dat
1 15 -140 -424 -30 1 0 0 0 1 0 0 0 1 3023.dat
1 15 140 -424 -30 1 0 0 0 1 0 0 0 1 3023.dat
1 15 -120 -424 -50 1 0 0 0 1 0 0 0 1 3023.dat
1 15 120 -424 -50 1 0 0 0 1 0 0 0 1 3023.dat
1 15 -60 -424 -110 1 0 0 0 1 0 0 0 1 3023.dat
1 15 60 -424 -110 1 0 0 0 1 0 0 0 1 3023.dat
1 15 -30 -424 -130 1 0 0 0 1 0 0 0 1 3024.dat
1 15 30 -424 -130 1 0 0 0 1 0 0 0 1 3024.dat
1 78 -90 -424 30 1 0 0 0 1 0 0 0 1 3024.dat
1 78 90 -424 30 1 0 0 0 1 0 0 0 1 3024.dat
1 78 -80 -424 -50 0 0 -1 0 1 0 1 0 0 3021.dat
1 78 80 -424 -50 0 0 -1 0 1 0 1 0 0 3021.dat
1 78 -50 -424 -70 0 0 -1 0 1 0 1 0 0 3623.dat
1 78 50 -424 -70 0 0 -1 0 1 0 1 0 0 3623.dat
1 78 0 -424 -80 1 0 0 0 1 0 0 0 1 3020.dat
1 78 -70 -424 -90 1 0 0 0 1 0 0 0 1 3024.dat
1 78 70 -424 -90 1 0 0 0 1 0 0 0 1 3024.dat
1 78 0 -424 -110 1 0 0 0 1 0 0 0 1 3710.dat
0 STEP
1 15 0 -432 100 1 0 0 0 1 0 0 0 1 3034.dat
1 15 -90 -432 70 0 0 -1 0 1 0 1 0 0 3623.dat
1 15 90 -432 70 0 0 -1 0 1 0 1 0 0 3623.dat
1 15 -110 -432 20 0 0 -1 0 1 0 1 0 0 3666.dat
1 15 -50 -432 70 1 0 0 0 1 0 0 0 1 3623.dat
1 15 50 -432 70 1 0 0 0 1 0 0 0 1 3623.dat
1 15 110 -432 20 0 0 -1 0 1 0 1 0 0 3666.dat
1 15 -140 -432 20 0 0 -1 0 1 0 1 0 0 3020.dat
1 15 -70 -432 50 1 0 0 0 1 0 0 0 1 3024.dat
1 15 70 -432 50 1 0 0 0 1 0 0 0 1 3024.dat
1 15 140 -432 20 0 0 -1 0 1 0 1 0 0 3020.dat
1 15 -170 -432 -0 0 0 -1 0 1 0 1 0 0 3023.dat
1 15 170 -432 -0 0 0 -1 0 1 0 1 0 0 3023.dat
1 15 -140 -432 -30 1 0 0 0 1 0 0 0 1 3023.dat
1 15 140 -432 -30 1 0 0 0 1 0 0 0 1 3023.dat
1 15 -120 -432 -50 1 0 0 0 1 0 0 0 1 3023.dat
1 15 120 -432 -50 1 0 0 0 1 0 0 0 1 3023.dat
1 15 -60 -432 -110 1 0 0 0 1 0 0 0 1 3023.dat
1 15 60 -432 -110 1 0 0 0 1 0 0 0 1 3023.dat
1 15 -30 -432 -130 1 0 0 0 1 0 0 0 1 3024.dat
1 15 30 -432 -130 1 0 0 0 1 0 0 0 1 3024.dat
1 78 -90 -432 -20 0 0 -1 0 1 0 1 0 0 3666.dat
1 78 90 -432 -20 0 0 -1 0 1 0 1 0 0 3666.dat
1 78 -60 -432 -60 0 0 -1 0 1 0 1 0 0 3020.dat
1 78 60 -432 -60 0 0 -1 0 1 0 1 0 0 3020.dat
1 78 -30 -432 -70 0 0 -1 0 1 0 1 0 0 3623.dat
1 78 30 -432 -70 0 0 -1 0 1 0 1 0 0 3623.dat
1 78 0 -432 -90 0 0 -1 0 1 0 1 0 0 3021.dat
1 78 -30 -432 -110 1 0 0 0 1 0 0 0 1 3070b.dat
1 78 30 -432 -110 1 0 0 0 1 0 0 0 1 3070b.dat
0 STEP
1 15 0 -440 100 1 0 0 0 1 0 0 0 1 3795.dat
1 15 -80 -440 70 0 0 -1 0 1 0 1 0 0 3021.dat
1 15 80 -440 70 0 0 -1 0 1 0 1 0 0 3021.dat
1 15 -110 -440 20 0 0 -1 0 1 0 1 0 0 3666.dat
1 15 -40 -440 70 1 0 0 0 1 0 0 0 1 3023.dat
1 15 40 -440 70 1 0 0 0 1 0 0 0 1 3023.dat
1 15 110 -440 20 0 0 -1 0 1 0 1 0 0 3666.dat
1 15 -140 -440 20 0 0 -1 0 1 0 1 0 0 3020.dat
1 15 140 -440 20 0 0 -1 0 1 0 1 0 0 3020.dat
1 15 -170 -440 -0 0 0 -1 0 1 0 1 0 0 3023.dat
1 15 170 -440 -0 0 0 -1 0 1 0 1 0 0 3023.dat
1 15 -140 -440 -30 1 0 0 0 1 0 0 0 1 3023.dat
1 15 140 -440 -30 1 0 0 0 1 0 0 0 1 3023.dat
1 15 -120 -440 -50 1 0 0 0 1 0 0 0 1 3023.dat
1 15 120 -440 -50 1 0 0 0 1 0 0 0 1 3023.dat
1 78 -90 -440 -0 0 0 -1 0 1 0 1 0 0 3710.dat
1 78 90 -440 -0 0 0 -1 0 1 0 1 0 0 3710.dat
1 78 -60 -440 -50 0 0 -1 0 1 0 1 0 0 3021.dat
1 78 60 -440 -50 0 0 -1 0 1 0 1 0 0 3021.dat
1 78 -90 -440 -50 1 0 0 0 1 0 0 0 1 3024.dat
1 78 -30 -440 -70 0 0 -1 0 1 0 1 0 0 3623.dat
1 78 30 -440 -70 0 0 -1 0 1 0 1 0 0 3623.dat
1 78 90 -440 -50 1 0 0 0 1 0 0 0 1 3024.dat
1 78 0 -440 -80 1 0 0 0 1 0 0 0 1 3022.dat
1 78 -50 -440 -90 1 0 0 0 1 0 0 0 1 3024.dat
1 78 50 -440 -90 1 0 0 0 1 0 0 0 1 3024.dat
1 78 -90 -440 -70 1 0 0 0 1 0 0 0 1 3070b.dat
1 78 90 -440 -70 1 0 0 0 1 0 0 0 1 3070b.dat
1 78 -70 -440 -90 1 0 0 0 1 0 0 0 1 3070b.dat
1 78 70 -440 -90 1 0 0 0 1 0 0 0 1 3070b.dat
1 78 0 -440 -110 1 0 0 0 1 0 0 0 1 3069b.dat
0 STEP
1 15 0 -448 100 1 0 0 0 1 0 0 0 1 3795.dat
1 15 -80 -448 70 0 0 -1 0 1 0 1 0 0 3021.dat
1 15 80 -448 70 0 0 -1 0 1 0 1 0 0 3021.dat
1 15 -110 -448 20 0 0 -1 0 1 0 1 0 0 3666.dat
1 15 0 -448 70 1 0 0 0 1 0 0 0 1 3666.dat
1 15 110 -448 20 0 0 -1 0 1 0 1 0 0 3666.dat
1 15 -150 -448 20 0 0 -1 0 1 0 1 0 0 3710.dat
1 15 -50 -448 50 1 0 0 0 1 0 0 0 1 3024.dat
1 15 50 -448 50 1 0 0 0 1 0 0 0 1 3024.dat
1 15 150 -448 20 0 0 -1 0 1 0 1 0 0 3710.dat
1 15 -130 -448 -0 0 0 -1 0 1 0 1 0 0 3710.dat
1 15 130 -448 -0 0 0 -1 0 1 0 1 0 0 3710.dat
1 15 -170 -448 10 1 0 0 0 1 0 0 0 1 3024.dat
1 15 170 -448 10 1 0 0 0 1 0 0 0 1 3024.dat
1 15 -150 -448 -30 1 0 0 0 1 0 0 0 1 3024.dat
1 15 150 -448 -30 1 0 0 0 1 0 0 0 1 3024.dat
1 15 -110 -448 -50 1 0 0 0 1 0 0 0 1 3024.dat
1 15 110 -448 -50 1 0 0 0 1 0 0 0 1 3024.dat
1 78 -90 -448 -0 0 0 -1 0 1 0 1 0 0 3710.dat
1 78 -70 -448 30 1 0 0 0 1 0 0 0 1 3024.dat
1 78 80 -448 30 1 0 0 0 1 0 0 0 1 3023.dat
1 78 90 -448 -20 0 0 -1 0 1 0 1 0 0 3710.dat
1 78 -60 -448 -50 0 0 -1 0 1 0 1 0 0 3021.dat
1 78 60 -448 -50 0 0 -1 0 1 0 1 0 0 3021.dat
1 78 -90 -448 -50 1 0 0 0 1 0 0 0 1 3024.dat
1 78 0 -448 -60 1 0 0 0 1 0 0 0 1 3020.dat
1 78 0 -448 -90 1 0 0 0 1 0 0 0 1 3666.dat
0 STEP
1 15 0 -456 100 1 0 0 0 1 0 0 0 1 3795.dat
1 15 -80 -456 70 0 0 -1 0 1 0 1 0 0 3021.dat
1 15 80 -456 70 0 0 -1 0 1 0 1 0 0 3021.dat
1 15 -110 -456 20 0 0 -1 0 1 0 1 0 0 3666.dat
1 15 0 -456 70 1 0 0 0 1 0 0 0 1 3666.dat
1 15 110 -456 20 0 0 -1 0 1 0 1 0 0 3666.dat
1 15 -50 -456 50 1 0 0 0 1 0 0 0 1 3024.dat
1 15 50 -456 50 1 0 0 0 1 0 0 0 1 3024.dat
1 15 -140 -456 -0 0 0 -1 0 1 0 1 0 0 3020.dat
1 15 140 -456 -0 0 0 -1 0 1 0 1 0 0 3020.dat
1 15 -110 -456 -50 1 0 0 0 1 0 0 0 1 3024.dat
1 15 110 -456 -50 1 0 0 0 1 0 0 0 1 3024.dat
1 78 -90 -456 -0 0 0 -1 0 1 0 1 0 0 3710.dat
1 78 -70 -456 30 1 0 0 0 1 0 0 0 1 3024.dat
1 78 80 -456 30 1 0 0 0 1 0 0 0 1 3023.dat
1 78 90 -456 -20 0 0 -1 0 1 0 1 0 0 3710.dat
1 78 -60 -456 -50 0 0 -1 0 1 0 1 0 0 3021.dat
1 78 60 -456 -50 0 0 -1 0 1 0 1 0 0 3021.dat
1 78 -90 -456 -50 1 0 0 0 1 0 0 0 1 3024.dat
1 78 -30 -456 -70 0 0 -1 0 1 0 1 0 0 3623.dat
1 78 30 -456 -70 0 0 -1 0 1 0 1 0 0 3623.dat
1 78 0 -456 -80 1 0 0 0 1 0 0 0 1 3022.dat
1 78 -50 -456 -90 1 0 0 0 1 0 0 0 1 3070b.dat
1 78 50 -456 -90 1 0 0 0 1 0 0 0 1 3070b.dat
0 STEP
1 15 0 -464 100 1 0 0 0 1 0 0 0 1 3020.dat
1 15 -60 -464 70 0 0 -1 0 1 0 1 0 0 3021.dat
1 15 60 -464 70 0 0 -1 0 1 0 1 0 0 3021.dat
1 15 -90 -464 60 0 0 -1 0 1 0 1 0 0 3023.dat
1 15 0 -464 70 1 0 0 0 1 0 0 0 1 3710.dat
1 15 90 -464 60 0 0 -1 0 1 0 1 0 0 3023.dat
1 15 -110 -464 -0 0 0 -1 0 1 0 1 0 0 3666.dat
1 15 110 -464 -0 0 0 -1 0 1 0 1 0 0 3666.dat
1 15 -140 -464 10 0 0 -1 0 1 0 1 0 0 3021.dat
1 15 140 -464 10 0 0 -1 0 1 0 1 0 0 3021.dat
1 15 -150 -464 -30 1 0 0 0 1 0 0 0 1 3024.dat
1 15 150 -464 -30 1 0 0 0 1 0 0 0 1 3024.dat
1 78 -90 -464 -0 0 0 -1 0 1 0 1 0 0 3710.dat
1 78 -70 -464 30 1 0 0 0 1 0 0 0 1 3024.dat
1 78 80 -464 30 1 0 0 0 1 0 0 0 1 3023.dat
1 78 90 -464 -20 0 0 -1 0 1 0 1 0 0 3710.dat
1 78 -60 -464 -50 0 0 -1 0 1 0 1 0 0 3021.dat
1 78 60 -464 -50 0 0 -1 0 1 0 1 0 0 3021.dat
1 78 -90 -464 -50 1 0 0 0 1 0 0 0 1 3024.dat
1 78 0 -464 -60 1 0 0 0 1 0 0 0 1 3020.dat
1 78 0 -464 -90 1 0 0 0 1 0 0 0 1 3710.dat
0 STEP
1 15 0 -472 100 1 0 0 0 1 0 0 0 1 3020.dat
1 15 -70 -472 -0 0 0 -1 0 1 0 1 0 0 4477.dat
1 15 -50 -472 70 0 0 -1 0 1 0 1 0 0 3623.dat
1 15 60 -472 70 0 0 -1 0 1 0 1 0 0 3021.dat
1 15 -90 -472 -0 0 0 -1 0 1 0 1 0 0 3460.dat
1 15 0 -472 70 1 0 0 0 1 0 0 0 1 3710.dat
1 15 90 -472 -0 0 0 -1 0 1 0 1 0 0 3460.dat
1 15 -110 -472 -0 0 0 -1 0 1 0 1 0 0 3666.dat
1 15 -30 -472 50 1 0 0 0 1 0 0 0 1 3024.dat
1 15 30 -472 50 1 0 0 0 1 0 0 0 1 3024.dat
1 15 110 -472 -0 0 0 -1 0 1 0 1 0 0 3666.dat
1 15 -150 -472 10 0 0 -1 0 1 0 1 0 0 3623.dat
1 15 70 -472 -20 0 0 -1 0 1 0 1 0 0 3666.dat
1 15 150 -472 10 0 0 -1 0 1 0 1 0 0 3623.dat
1 15 -130 -472 -0 0 0 -1 0 1 0 1 0 0 3023.dat
1 15 130 -472 -0 0 0 -1 0 1 0 1 0 0 3023.dat
1 15 -50 -472 -60 0 0 -1 0 1 0 1 0 0 3710.dat
1 15 50 -472 -60 0 0 -1 0 1 0 1 0 0 3710.dat
1 15 -30 -472 -80 0 0 -1 0 1 0 1 0 0 3710.dat
1 15 30 -472 -80 0 0 -1 0 1 0 1 0 0 3710.dat
1 15 0 -472 -90 0 0 -1 0 1 0 1 0 0 3021.dat
1 15 70 -472 -90 1 0 0 0 1 0 0 0 1 3024.dat
1 15 -50 -472 -110 1 0 0 0 1 0 0 0 1 3024.dat
1 15 50 -472 -110 1 0 0 0 1 0 0 0 1 3024.dat
0 STEP
1 15 0 -480 90 0 0 -1 0 1 0 1 0 0 3021.dat
1 15 -70 -480 -0 0 0 -1 0 1 0 1 0 0 4477.dat
1 15 -40 -480 70 0 0 -1 0 1 0 1 0 0 3021.dat
1 15 50 -480 80 1 0 0 0 1 0 0 0 1 3021.dat
1 15 -90 -480 -0 0 0 -1 0 1 0 1 0 0 3460.dat
1 15 90 -480 -0 0 0 -1 0 1 0 1 0 0 3460.dat
1 15 -110 -480 -0 0 0 -1 0 1 0 1 0 0 3666.dat
1 15 50 -480 50 1 0 0 0 1 0 0 0 1 3623.dat
1 15 110 -480 -0 0 0 -1 0 1 0 1 0 0 3666.dat
1 15 -50 -480 30 1 0 0 0 1 0 0 0 1 3024.dat
1 15 60 -480 30 1 0 0 0 1 0 0 0 1 3023.dat
1 15 70 -480 -40 0 0 -1 0 1 0 1 0 0 3666.dat
1 15 -50 -480 -60 0 0 -1 0 1 0 1 0 0 3710.dat
1 15 50 -480 -60 0 0 -1 0 1 0 1 0 0 3710.dat
1 15 0 -480 -80 1 0 0 0 1 0 0 0 1 3031.dat
0 STEP
1 15 0 -488 80 1 0 0 0 1 0 0 0 1 3795.dat
1 15 -80 -488 -0 0 0 -1 0 1 0 1 0 0 3034.dat
1 15 80 -488 -0 0 0 -1 0 1 0 1 0 0 3034.dat
1 15 0 -488 50 1 0 0 0 1 0 0 0 1 3666.dat
1 15 -110 -488 -0 0 0 -1 0 1 0 1 0 0 3710.dat
1 15 -50 -488 30 1 0 0 0 1 0 0 0 1 3024.dat
1 15 50 -488 30 1 0 0 0 1 0 0 0 1 3024.dat
1 15 110 -488 -0 0 0 -1 0 1 0 1 0 0 3710.dat
1 15 -50 -488 -60 0 0 -1 0 1 0 1 0 0 3710.dat
1 15 50 -488 -60 0 0 -1 0 1 0 1 0 0 3710.dat
1 15 -30 -488 -70 0 0 -1 0 1 0 1 0 0 3623.dat
1 15 30 -488 -70 0 0 -1 0 1 0 1 0 0 3623.dat
1 15 0 -488 -90 0 0 -1 0 1 0 1 0 0 3021.dat
1 15 -70 -488 -90 1 0 0 0 1 0 0 0 1 3024.dat
1 15 70 -488 -90 1 0 0 0 1 0 0 0 1 3024.dat
0 STEP
1 15 0 -496 80 1 0 0 0 1 0 0 0 1 3795.dat
1 15 -70 -496 -0 0 0 -1 0 1 0 1 0 0 3460.dat
1 15 70 -496 -0 0 0 -1 0 1 0 1 0 0 3460.dat
1 15 -90 -496 -0 0 0 -1 0 1 0 1 0 0 3666.dat
1 15 -50 -496 -20 0 0 -1 0 1 0 1 0 0 3460.dat
1 15 0 -496 50 1 0 0 0 1 0 0 0 1 3710.dat
1 15 50 -496 -20 0 0 -1 0 1 0 1 0 0 3460.dat
1 15 90 -496 -0 0 0 -1 0 1 0 1 0 0 3666.dat
1 15 -30 -496 30 1 0 0 0 1 0 0 0 1 3024.dat
1 15 30 -496 30 1 0 0 0 1 0 0 0 1 3024.dat
1 15 -110 -496 -10 0 0 -1 0 1 0 1 0 0 3623.dat
1 15 110 -496 -10 0 0 -1 0 1 0 1 0 0 3623.dat
1 15 -30 -496 -60 0 0 -1 0 1 0 1 0 0 3710.dat
1 15 30 -496 -60 0 0 -1 0 1 0 1 0 0 3710.dat
1 15 0 -496 -70 0 0 -1 0 1 0 1 0 0 3021.dat
0 STEP
1 15 0 -504 80 1 0 0 0 1 0 0 0 1 3020.dat
1 15 -60 -504 -0 0 0 -1 0 1 0 1 0 0 3034.dat
1 15 60 -504 -0 0 0 -1 0 1 0 1 0 0 3034.dat
1 15 -90 -504 -0 0 0 -1 0 1 0 1 0 0 3666.dat
1 15 0 -504 50 1 0 0 0 1 0 0 0 1 3710.dat
1 15 90 -504 -0 0 0 -1 0 1 0 1 0 0 3666.dat
1 15 -30 -504 30 1 0 0 0 1 0 0 0 1 3024.dat
1 15 30 -504 30 1 0 0 0 1 0 0 0 1 3024.dat
1 15 -30 -504 -60 0 0 -1 0 1 0 1 0 0 3710.dat
1 15 30 -504 -60 0 0 -1 0 1 0 1 0 0 3710.dat
1 15 0 -504 -70 0 0 -1 0 1 0 1 0 0 3021.dat
1 15 -50 -504 -90 1 0 0 0 1 0 0 0 1 3024.dat
1 15 50 -504 -90 1 0 0 0 1 0 0 0 1 3024.dat
0 STEP
1 15 0 -512 60 0 0 -1 0 1 0 1 0 0 3020.dat
1 15 -40 -512 -0 0 0 -1 0 1 0 1 0 0 3034.dat
1 15 40 -512 -0 0 0 -1 0 1 0 1 0 0 3034.dat
1 15 -70 -512 -0 0 0 -1 0 1 0 1 0 0 3666.dat
1 15 70 -512 -0 0 0 -1 0 1 0 1 0 0 3666.dat
1 15 -90 -512 -0 0 0 -1 0 1 0 1 0 0 3710.dat
1 15 90 -512 -0 0 0 -1 0 1 0 1 0 0 3710.dat
1 15 0 -512 -60 0 0 -1 0 1 0 1 0 0 3020.dat
1 15 -30 -512 -90 1 0 0 0 1 0 0 0 1 3024.dat
1 15 30 -512 -90 1 0 0 0 1 0 0 0 1 3024.dat
0 STEP
1 15 0 -520 40 1 0 0 0 1 0 0 0 1 3032.dat
1 15 -70 -520 -0 0 0 -1 0 1 0 1 0 0 3666.dat
1 15 70 -520 -0 0 0 -1 0 1 0 1 0 0 3666.dat
1 15 -90 -520 -0 0 0 -1 0 1 0 1 0 0 3023.dat
1 15 90 -520 -0 0 0 -1 0 1 0 1 0 0 3023.dat
1 15 -40 -520 -40 0 0 -1 0 1 0 1 0 0 3020.dat
1 15 40 -520 -40 0 0 -1 0 1 0 1 0 0 3020.dat
1 15 0 -520 -50 0 0 -1 0 1 0 1 0 0 3021.dat
0 STEP
1 15 0 -528 -0 0 0 -1 0 1 0 1 0 0 3035.dat
1 15 -50 -528 -0 0 0 -1 0 1 0 1 0 0 3666.dat
1 15 50 -528 -0 0 0 -1 0 1 0 1 0 0 3666.dat
1 15 -70 -528 -0 0 0 -1 0 1 0 1 0 0 3710.dat
1 15 70 -528 -0 0 0 -1 0 1 0 1 0 0 3710.dat
0 STEP
1 15 0 -536 -0 0 0 -1 0 1 0 1 0 0 3032.dat
1 15 -50 -536 -0 0 0 -1 0 1 0 1 0 0 3710.dat
1 15 50 -536 -0 0 0 -1 0 1 0 1 0 0 3710.dat
1 15 -70 -536 -0 0 0 -1 0 1 0 1 0 0 3023.dat
1 15 70 -536 -0 0 0 -1 0 1 0 1 0 0 3023.dat
1 15 -50 -536 -50 1 0 0 0 1 0 0 0 1 3024.dat
1 15 50 -536 -50 1 0 0 0 1 0 0 0 1 3024.dat
0 STEP
