0 Mentor
0 Name: mentor.ldr
0 Author: aitutors.me brick-built faculty
0 !LICENSE Model: see repository licence; part geometry LDraw.org CC BY 4.0
0 // units: LDU, -y up
0 // 1579 parts, one step per plate layer

1 72 -120 -8 80 1 0 0 0 1 0 0 0 1 3029.dat
1 72 120 -8 80 1 0 0 0 1 0 0 0 1 3029.dat
1 72 -120 -8 -0 1 0 0 0 1 0 0 0 1 3029.dat
1 72 120 -8 -0 1 0 0 0 1 0 0 0 1 3029.dat
1 72 -120 -8 -80 1 0 0 0 1 0 0 0 1 3029.dat
1 72 120 -8 -80 1 0 0 0 1 0 0 0 1 3029.dat
1 72 -120 -8 -140 1 0 0 0 1 0 0 0 1 2445.dat
1 72 120 -8 -140 1 0 0 0 1 0 0 0 1 2445.dat
0 STEP
1 72 -120 -16 80 1 0 0 0 1 0 0 0 1 3029.dat
1 72 120 -16 80 1 0 0 0 1 0 0 0 1 3029.dat
1 72 -120 -16 -0 1 0 0 0 1 0 0 0 1 3029.dat
1 72 120 -16 -0 1 0 0 0 1 0 0 0 1 3029.dat
1 72 -120 -16 -80 1 0 0 0 1 0 0 0 1 3029.dat
1 72 120 -16 -80 1 0 0 0 1 0 0 0 1 3029.dat
1 72 -120 -16 -140 1 0 0 0 1 0 0 0 1 2445.dat
1 72 120 -16 -140 1 0 0 0 1 0 0 0 1 2445.dat
0 STEP
1 72 0 -24 80 1 0 0 0 1 0 0 0 1 3832.dat
1 72 -160 -24 -0 0 0 -1 0 1 0 1 0 0 3034.dat
1 72 -120 -24 60 1 0 0 0 1 0 0 0 1 3022.dat
1 72 140 -24 60 1 0 0 0 1 0 0 0 1 3020.dat
1 72 -80 -24 50 1 0 0 0 1 0 0 0 1 3023.dat
1 72 80 -24 50 1 0 0 0 1 0 0 0 1 3023.dat
1 72 160 -24 -20 0 0 -1 0 1 0 1 0 0 3795.dat
1 72 -100 -24 -60 1 0 0 0 1 0 0 0 1 3020.dat
1 72 100 -24 -60 1 0 0 0 1 0 0 0 1 3020.dat
1 72 0 -24 -80 1 0 0 0 1 0 0 0 1 3795.dat
1 72 -80 -24 -90 1 0 0 0 1 0 0 0 1 3023.dat
1 72 80 -24 -90 1 0 0 0 1 0 0 0 1 3023.dat
1 72 -160 -24 110 1 0 0 0 1 0 0 0 1 4162.dat
1 72 0 -24 110 1 0 0 0 1 0 0 0 1 4162.dat
1 72 160 -24 110 1 0 0 0 1 0 0 0 1 4162.dat
1 72 -230 -24 20 0 0 -1 0 1 0 1 0 0 4162.dat
1 72 -210 -24 20 0 0 -1 0 1 0 1 0 0 4162.dat
1 72 -190 -24 20 0 0 -1 0 1 0 1 0 0 4162.dat
1 72 -140 -24 90 1 0 0 0 1 0 0 0 1 2431.dat
1 72 160 -24 90 1 0 0 0 1 0 0 0 1 6636.dat
1 72 230 -24 20 0 0 -1 0 1 0 1 0 0 4162.dat
1 72 190 -24 -0 0 0 -1 0 1 0 1 0 0 4162.dat
1 72 210 -24 -0 0 0 -1 0 1 0 1 0 0 4162.dat
1 72 -230 -24 -100 0 0 -1 0 1 0 1 0 0 2431.dat
1 72 -210 -24 -100 0 0 -1 0 1 0 1 0 0 2431.dat
1 72 -190 -24 -100 0 0 -1 0 1 0 1 0 0 2431.dat
1 72 230 -24 -100 0 0 -1 0 1 0 1 0 0 2431.dat
1 72 -140 -24 -90 1 0 0 0 1 0 0 0 1 2431.dat
1 72 160 -24 -90 1 0 0 0 1 0 0 0 1 6636.dat
1 72 -100 -24 -110 1 0 0 0 1 0 0 0 1 4162.dat
1 72 60 -24 -110 1 0 0 0 1 0 0 0 1 4162.dat
1 72 180 -24 -110 1 0 0 0 1 0 0 0 1 2431.dat
1 72 -100 -24 -130 1 0 0 0 1 0 0 0 1 4162.dat
1 72 60 -24 -130 1 0 0 0 1 0 0 0 1 4162.dat
1 72 180 -24 -130 1 0 0 0 1 0 0 0 1 2431.dat
1 72 -160 -24 -150 1 0 0 0 1 0 0 0 1 4162.dat
1 72 0 -24 -150 1 0 0 0 1 0 0 0 1 4162.dat
1 72 160 -24 -150 1 0 0 0 1 0 0 0 1 4162.dat
0 STEP
1 3 -90 -32 70 0 0 -1 0 1 0 1 0 0 3623.dat
1 3 -50 -32 80 0 0 -1 0 1 0 1 0 0 3023.dat
1 3 -10 -32 80 0 0 -1 0 1 0 1 0 0 3023.dat
1 3 30 -32 80 0 0 -1 0 1 0 1 0 0 3023.dat
1 3 70 -32 70 0 0 -1 0 1 0 1 0 0 3623.dat
1 3 -170 -32 -0 0 0 -1 0 1 0 1 0 0 3460.dat
1 3 -130 -32 60 0 0 -1 0 1 0 1 0 0 3023.dat
1 3 110 -32 60 0 0 -1 0 1 0 1 0 0 3023.dat
1 3 150 -32 -0 0 0 -1 0 1 0 1 0 0 3460.dat
1 3 -130 -32 -60 0 0 -1 0 1 0 1 0 0 3023.dat
1 3 -90 -32 -70 0 0 -1 0 1 0 1 0 0 3623.dat
1 3 70 -32 -70 0 0 -1 0 1 0 1 0 0 3623.dat
1 3 110 -32 -60 0 0 -1 0 1 0 1 0 0 3023.dat
1 3 -50 -32 -80 0 0 -1 0 1 0 1 0 0 3023.dat
1 3 -10 -32 -80 0 0 -1 0 1 0 1 0 0 3023.dat
1 3 30 -32 -80 0 0 -1 0 1 0 1 0 0 3023.dat
1 378 -70 -32 70 0 0 -1 0 1 0 1 0 0 3623.dat
1 378 -30 -32 80 0 0 -1 0 1 0 1 0 0 3023.dat
1 378 10 -32 80 0 0 -1 0 1 0 1 0 0 3023.dat
1 378 50 -32 80 0 0 -1 0 1 0 1 0 0 3023.dat
1 378 90 -32 70 0 0 -1 0 1 0 1 0 0 3623.dat
1 378 -150 -32 -0 0 0 -1 0 1 0 1 0 0 3460.dat
1 378 -110 -32 60 0 0 -1 0 1 0 1 0 0 3023.dat
1 378 130 -32 60 0 0 -1 0 1 0 1 0 0 3023.dat
1 378 170 -32 -0 0 0 -1 0 1 0 1 0 0 3460.dat
1 378 -110 -32 -60 0 0 -1 0 1 0 1 0 0 3023.dat
1 378 -70 -32 -70 0 0 -1 0 1 0 1 0 0 3623.dat
1 378 90 -32 -70 0 0 -1 0 1 0 1 0 0 3623.dat
1 378 130 -32 -60 0 0 -1 0 1 0 1 0 0 3023.dat
1 378 -30 -32 -80 0 0 -1 0 1 0 1 0 0 3023.dat
1 378 10 -32 -80 0 0 -1 0 1 0 1 0 0 3023.dat
1 378 50 -32 -80 0 0 -1 0 1 0 1 0 0 3023.dat
0 STEP
1 3 -70 -40 70 0 0 -1 0 1 0 1 0 0 3623.dat
1 3 -30 -40 80 0 0 -1 0 1 0 1 0 0 3023.dat
1 3 10 -40 80 0 0 -1 0 1 0 1 0 0 3023.dat
1 3 50 -40 80 0 0 -1 0 1 0 1 0 0 3023.dat
1 3 90 -40 70 0 0 -1 0 1 0 1 0 0 3623.dat
1 3 -150 -40 -0 0 0 -1 0 1 0 1 0 0 3460.dat
1 3 -110 -40 60 0 0 -1 0 1 0 1 0 0 3023.dat
1 3 130 -40 60 0 0 -1 0 1 0 1 0 0 3023.dat
1 3 170 -40 -0 0 0 -1 0 1 0 1 0 0 3460.dat
1 3 -190 -40 -20 0 0 -1 0 1 0 1 0 0 3023.dat
1 3 -110 -40 -60 0 0 -1 0 1 0 1 0 0 3023.dat
1 3 -70 -40 -70 0 0 -1 0 1 0 1 0 0 3623.dat
1 3 90 -40 -70 0 0 -1 0 1 0 1 0 0 3623.dat
1 3 130 -40 -60 0 0 -1 0 1 0 1 0 0 3023.dat
1 3 -30 -40 -80 0 0 -1 0 1 0 1 0 0 3023.dat
1 3 10 -40 -80 0 0 -1 0 1 0 1 0 0 3023.dat
1 3 50 -40 -80 0 0 -1 0 1 0 1 0 0 3023.dat
1 378 -90 -40 70 0 0 -1 0 1 0 1 0 0 3623.dat
1 378 -50 -40 80 0 0 -1 0 1 0 1 0 0 3023.dat
1 378 -10 -40 80 0 0 -1 0 1 0 1 0 0 3023.dat
1 378 30 -40 80 0 0 -1 0 1 0 1 0 0 3023.dat
1 378 70 -40 70 0 0 -1 0 1 0 1 0 0 3623.dat
1 378 -170 -40 -0 0 0 -1 0 1 0 1 0 0 3460.dat
1 378 -130 -40 60 0 0 -1 0 1 0 1 0 0 3023.dat
1 378 110 -40 60 0 0 -1 0 1 0 1 0 0 3023.dat
1 378 150 -40 -0 0 0 -1 0 1 0 1 0 0 3460.dat
1 378 190 -40 -20 0 0 -1 0 1 0 1 0 0 3023.dat
1 378 -130 -40 -60 0 0 -1 0 1 0 1 0 0 3023.dat
1 378 -90 -40 -70 0 0 -1 0 1 0 1 0 0 3623.dat
1 378 70 -40 -70 0 0 -1 0 1 0 1 0 0 3623.dat
1 378 110 -40 -60 0 0 -1 0 1 0 1 0 0 3023.dat
1 378 -50 -40 -80 0 0 -1 0 1 0 1 0 0 3023.dat
1 378 -10 -40 -80 0 0 -1 0 1 0 1 0 0 3023.dat
1 378 30 -40 -80 0 0 -1 0 1 0 1 0 0 3023.dat
0 STEP
1 3 0 -48 80 1 0 0 0 1 0 0 0 1 3832.dat
1 3 -160 -48 -0 0 0 -1 0 1 0 1 0 0 3034.dat
1 3 -120 -48 60 1 0 0 0 1 0 0 0 1 3022.dat
1 3 140 -48 60 1 0 0 0 1 0 0 0 1 3020.dat
1 3 -80 -48 50 1 0 0 0 1 0 0 0 1 3023.dat
1 3 80 -48 50 1 0 0 0 1 0 0 0 1 3023.dat
1 3 160 -48 -20 0 0 -1 0 1 0 1 0 0 3795.dat
1 3 -190 -48 -20 0 0 -1 0 1 0 1 0 0 3023.dat
1 3 190 -48 -20 0 0 -1 0 1 0 1 0 0 3023.dat
1 3 -100 -48 -60 1 0 0 0 1 0 0 0 1 3020.dat
1 3 100 -48 -60 1 0 0 0 1 0 0 0 1 3020.dat
1 3 0 -48 -80 1 0 0 0 1 0 0 0 1 3795.dat
1 3 -80 -48 -90 1 0 0 0 1 0 0 0 1 3023.dat
1 3 80 -48 -90 1 0 0 0 1 0 0 0 1 3023.dat
1 320 20 -48 -150 1 0 0 0 1 0 0 0 1 3023.dat
0 STEP
1 3 0 -56 80 1 0 0 0 1 0 0 0 1 3832.dat
1 3 -160 -56 -0 0 0 -1 0 1 0 1 0 0 3034.dat
1 3 -120 -56 60 1 0 0 0 1 0 0 0 1 3022.dat
1 3 140 -56 60 1 0 0 0 1 0 0 0 1 3020.dat
1 3 -80 -56 50 1 0 0 0 1 0 0 0 1 3023.dat
1 3 80 -56 50 1 0 0 0 1 0 0 0 1 3023.dat
1 3 160 -56 -20 0 0 -1 0 1 0 1 0 0 3795.dat
1 3 -190 -56 -20 0 0 -1 0 1 0 1 0 0 3710.dat
1 3 190 -56 -20 0 0 -1 0 1 0 1 0 0 3710.dat
1 3 -210 -56 -10 1 0 0 0 1 0 0 0 1 3024.dat
1 3 210 -56 -10 1 0 0 0 1 0 0 0 1 3024.dat
1 3 -100 -56 -60 1 0 0 0 1 0 0 0 1 3020.dat
1 3 100 -56 -60 1 0 0 0 1 0 0 0 1 3020.dat
1 3 0 -56 -80 1 0 0 0 1 0 0 0 1 3795.dat
1 3 -80 -56 -90 1 0 0 0 1 0 0 0 1 3023.dat
1 3 80 -56 -90 1 0 0 0 1 0 0 0 1 3023.dat
1 320 20 -56 -150 1 0 0 0 1 0 0 0 1 3023.dat
0 STEP
1 3 0 -64 80 1 0 0 0 1 0 0 0 1 3832.dat
1 3 -160 -64 -0 0 0 -1 0 1 0 1 0 0 3034.dat
1 3 -120 -64 60 1 0 0 0 1 0 0 0 1 3022.dat
1 3 140 -64 60 1 0 0 0 1 0 0 0 1 3020.dat
1 3 -80 -64 50 1 0 0 0 1 0 0 0 1 3023.dat
1 3 80 -64 50 1 0 0 0 1 0 0 0 1 3023.dat
1 3 160 -64 -20 0 0 -1 0 1 0 1 0 0 3795.dat
1 3 -190 -64 -20 0 0 -1 0 1 0 1 0 0 3710.dat
1 3 190 -64 -20 0 0 -1 0 1 0 1 0 0 3710.dat
1 3 -210 -64 -20 0 0 -1 0 1 0 1 0 0 3023.dat
1 3 210 -64 -20 0 0 -1 0 1 0 1 0 0 3023.dat
1 3 -100 -64 -60 1 0 0 0 1 0 0 0 1 3020.dat
1 3 100 -64 -60 1 0 0 0 1 0 0 0 1 3020.dat
1 3 0 -64 -80 1 0 0 0 1 0 0 0 1 3795.dat
1 3 -100 -64 -90 1 0 0 0 1 0 0 0 1 3710.dat
1 3 100 -64 -90 1 0 0 0 1 0 0 0 1 3710.dat
1 70 0 -64 -170 1 0 0 0 1 0 0 0 1 3460.dat
1 320 20 -64 -150 1 0 0 0 1 0 0 0 1 3023.dat
0 STEP
1 3 0 -72 80 1 0 0 0 1 0 0 0 1 3832.dat
1 3 -160 -72 -0 0 0 -1 0 1 0 1 0 0 3034.dat
1 3 -120 -72 60 1 0 0 0 1 0 0 0 1 3022.dat
1 3 140 -72 60 1 0 0 0 1 0 0 0 1 3020.dat
1 3 -80 -72 50 1 0 0 0 1 0 0 0 1 3023.dat
1 3 80 -72 50 1 0 0 0 1 0 0 0 1 3023.dat
1 3 160 -72 -20 0 0 -1 0 1 0 1 0 0 3795.dat
1 3 -190 -72 -20 0 0 -1 0 1 0 1 0 0 3710.dat
1 3 190 -72 -20 0 0 -1 0 1 0 1 0 0 3710.dat
1 3 -210 -72 -20 0 0 -1 0 1 0 1 0 0 3023.dat
1 3 210 -72 -20 0 0 -1 0 1 0 1 0 0 3023.dat
1 3 -100 -72 -60 1 0 0 0 1 0 0 0 1 3020.dat
1 3 100 -72 -60 1 0 0 0 1 0 0 0 1 3020.dat
1 3 0 -72 -80 1 0 0 0 1 0 0 0 1 3795.dat
1 3 -120 -72 -90 1 0 0 0 1 0 0 0 1 3710.dat
1 3 -70 -72 -100 0 0 -1 0 1 0 1 0 0 3023.dat
1 3 90 -72 -100 1 0 0 0 1 0 0 0 1 3021.dat
1 3 140 -72 -90 1 0 0 0 1 0 0 0 1 3023.dat
1 3 -100 -72 -110 1 0 0 0 1 0 0 0 1 3023.dat
1 15 0 -72 -150 1 0 0 0 1 0 0 0 1 3666.dat
1 70 0 -72 -130 1 0 0 0 1 0 0 0 1 3460.dat
1 70 0 -72 -170 1 0 0 0 1 0 0 0 1 3460.dat
0 STEP
1 3 -90 -80 70 0 0 -1 0 1 0 1 0 0 3623.dat
1 3 -50 -80 80 0 0 -1 0 1 0 1 0 0 3023.dat
1 3 -10 -80 80 0 0 -1 0 1 0 1 0 0 3023.dat
1 3 30 -80 80 0 0 -1 0 1 0 1 0 0 3023.dat
1 3 70 -80 70 0 0 -1 0 1 0 1 0 0 3623.dat
1 3 -170 -80 -0 0 0 -1 0 1 0 1 0 0 3460.dat
1 3 -130 -80 60 0 0 -1 0 1 0 1 0 0 3023.dat
1 3 110 -80 60 0 0 -1 0 1 0 1 0 0 3023.dat
1 3 150 -80 -0 0 0 -1 0 1 0 1 0 0 3460.dat
1 3 190 -80 -20 0 0 -1 0 1 0 1 0 0 3710.dat
1 3 -210 -80 -20 0 0 -1 0 1 0 1 0 0 3023.dat
1 3 -130 -80 -80 0 0 -1 0 1 0 1 0 0 3710.dat
1 3 110 -80 -80 0 0 -1 0 1 0 1 0 0 3710.dat
1 3 -90 -80 -100 0 0 -1 0 1 0 1 0 0 3710.dat
1 3 -50 -80 -80 0 0 -1 0 1 0 1 0 0 3023.dat
1 3 -10 -80 -80 0 0 -1 0 1 0 1 0 0 3023.dat
1 3 30 -80 -80 0 0 -1 0 1 0 1 0 0 3023.dat
1 3 70 -80 -90 0 0 -1 0 1 0 1 0 0 3623.dat
1 3 150 -80 -90 1 0 0 0 1 0 0 0 1 3024.dat
1 15 0 -80 -150 1 0 0 0 1 0 0 0 1 3666.dat
1 70 0 -80 -130 1 0 0 0 1 0 0 0 1 3460.dat
1 70 0 -80 -170 1 0 0 0 1 0 0 0 1 3460.dat
1 378 -70 -80 70 0 0 -1 0 1 0 1 0 0 3623.dat
1 378 -30 -80 80 0 0 -1 0 1 0 1 0 0 3023.dat
1 378 10 -80 80 0 0 -1 0 1 0 1 0 0 3023.dat
1 378 50 -80 80 0 0 -1 0 1 0 1 0 0 3023.dat
1 378 90 -80 70 0 0 -1 0 1 0 1 0 0 3623.dat
1 378 -150 -80 -0 0 0 -1 0 1 0 1 0 0 3460.dat
1 378 -110 -80 60 0 0 -1 0 1 0 1 0 0 3023.dat
1 378 130 -80 60 0 0 -1 0 1 0 1 0 0 3023.dat
1 378 170 -80 -0 0 0 -1 0 1 0 1 0 0 3460.dat
1 378 -190 -80 -20 0 0 -1 0 1 0 1 0 0 3710.dat
1 378 210 -80 -20 0 0 -1 0 1 0 1 0 0 3023.dat
1 378 -110 -80 -80 0 0 -1 0 1 0 1 0 0 3710.dat
1 378 130 -80 -80 0 0 -1 0 1 0 1 0 0 3710.dat
1 378 -70 -80 -90 0 0 -1 0 1 0 1 0 0 3623.dat
1 378 -30 -80 -80 0 0 -1 0 1 0 1 0 0 3023.dat
1 378 10 -80 -80 0 0 -1 0 1 0 1 0 0 3023.dat
1 378 50 -80 -80 0 0 -1 0 1 0 1 0 0 3023.dat
1 378 90 -80 -100 0 0 -1 0 1 0 1 0 0 3710.dat
1 378 -150 -80 -90 1 0 0 0 1 0 0 0 1 3024.dat
0 STEP
1 3 -70 -88 70 0 0 -1 0 1 0 1 0 0 3623.dat
1 3 -30 -88 80 0 0 -1 0 1 0 1 0 0 3023.dat
1 3 10 -88 80 0 0 -1 0 1 0 1 0 0 3023.dat
1 3 50 -88 80 0 0 -1 0 1 0 1 0 0 3023.dat
1 3 90 -88 70 0 0 -1 0 1 0 1 0 0 3623.dat
1 3 -150 -88 -0 0 0 -1 0 1 0 1 0 0 3460.dat
1 3 -110 -88 60 0 0 -1 0 1 0 1 0 0 3023.dat
1 3 130 -88 60 0 0 -1 0 1 0 1 0 0 3023.dat
1 3 170 -88 -0 0 0 -1 0 1 0 1 0 0 3460.dat
1 3 -190 -88 -20 0 0 -1 0 1 0 1 0 0 3710.dat
1 3 210 -88 -20 0 0 -1 0 1 0 1 0 0 3023.dat
1 3 130 -88 -80 0 0 -1 0 1 0 1 0 0 3710.dat
1 3 -110 -88 -100 0 0 -1 0 1 0 1 0 0 3710.dat
1 3 -70 -88 -90 0 0 -1 0 1 0 1 0 0 3623.dat
1 3 -30 -88 -80 0 0 -1 0 1 0 1 0 0 3023.dat
1 3 10 -88 -80 0 0 -1 0 1 0 1 0 0 3023.dat
1 3 50 -88 -90 0 0 -1 0 1 0 1 0 0 3623.dat
1 3 90 -88 -100 0 0 -1 0 1 0 1 0 0 3710.dat
1 3 -150 -88 -90 1 0 0 0 1 0 0 0 1 3024.dat
1 3 -70 -88 -150 1 0 0 0 1 0 0 0 1 3024.dat
1 15 0 -88 -150 1 0 0 0 1 0 0 0 1 3666.dat
1 70 0 -88 -130 1 0 0 0 1 0 0 0 1 3460.dat
1 70 0 -88 -170 1 0 0 0 1 0 0 0 1 3460.dat
1 378 -90 -88 70 0 0 -1 0 1 0 1 0 0 3623.dat
1 378 -50 -88 80 0 0 -1 0 1 0 1 0 0 3023.dat
1 378 -10 -88 80 0 0 -1 0 1 0 1 0 0 3023.dat
1 378 30 -88 80 0 0 -1 0 1 0 1 0 0 3023.dat
1 378 70 -88 70 0 0 -1 0 1 0 1 0 0 3623.dat
1 378 -170 -88 -0 0 0 -1 0 1 0 1 0 0 3460.dat
1 378 -130 -88 60 0 0 -1 0 1 0 1 0 0 3023.dat
1 378 110 -88 60 0 0 -1 0 1 0 1 0 0 3023.dat
1 378 150 -88 -0 0 0 -1 0 1 0 1 0 0 3460.dat
1 378 190 -88 -20 0 0 -1 0 1 0 1 0 0 3710.dat
1 378 -210 -88 -20 0 0 -1 0 1 0 1 0 0 3023.dat
1 378 -130 -88 -80 0 0 -1 0 1 0 1 0 0 3710.dat
1 378 -90 -88 -100 0 0 -1 0 1 0 1 0 0 3710.dat
1 378 -50 -88 -90 0 0 -1 0 1 0 1 0 0 3623.dat
1 378 -10 -88 -80 0 0 -1 0 1 0 1 0 0 3023.dat
1 378 30 -88 -80 0 0 -1 0 1 0 1 0 0 3023.dat
1 378 70 -88 -90 0 0 -1 0 1 0 1 0 0 3623.dat
1 378 110 -88 -100 0 0 -1 0 1 0 1 0 0 3710.dat
1 378 150 -88 -90 1 0 0 0 1 0 0 0 1 3024.dat
1 378 70 -88 -150 1 0 0 0 1 0 0 0 1 3024.dat
0 STEP
1 3 0 -96 80 1 0 0 0 1 0 0 0 1 3832.dat
1 3 -160 -96 -0 0 0 -1 0 1 0 1 0 0 3034.dat
1 3 -120 -96 60 1 0 0 0 1 0 0 0 1 3022.dat
1 3 140 -96 60 1 0 0 0 1 0 0 0 1 3020.dat
1 3 -80 -96 50 1 0 0 0 1 0 0 0 1 3023.dat
1 3 80 -96 50 1 0 0 0 1 0 0 0 1 3023.dat
1 3 160 -96 -20 0 0 -1 0 1 0 1 0 0 3795.dat
1 3 -200 -96 -10 0 0 -1 0 1 0 1 0 0 3021.dat
1 3 200 -96 -10 0 0 -1 0 1 0 1 0 0 3021.dat
1 3 -190 -96 -50 1 0 0 0 1 0 0 0 1 3024.dat
1 3 -120 -96 -80 0 0 -1 0 1 0 1 0 0 3020.dat
1 3 120 -96 -80 0 0 -1 0 1 0 1 0 0 3020.dat
1 3 190 -96 -50 1 0 0 0 1 0 0 0 1 3024.dat
1 3 0 -96 -80 1 0 0 0 1 0 0 0 1 3832.dat
1 3 -150 -96 -90 1 0 0 0 1 0 0 0 1 3024.dat
1 3 150 -96 -90 1 0 0 0 1 0 0 0 1 3024.dat
1 3 -70 -96 -110 1 0 0 0 1 0 0 0 1 3623.dat
1 3 70 -96 -110 1 0 0 0 1 0 0 0 1 3623.dat
1 3 -100 -96 -130 1 0 0 0 1 0 0 0 1 3023.dat
1 3 100 -96 -130 1 0 0 0 1 0 0 0 1 3023.dat
1 3 -80 -96 -150 1 0 0 0 1 0 0 0 1 3023.dat
1 3 80 -96 -150 1 0 0 0 1 0 0 0 1 3023.dat
1 15 0 -96 -150 1 0 0 0 1 0 0 0 1 3666.dat
1 70 0 -96 -130 1 0 0 0 1 0 0 0 1 3460.dat
1 70 0 -96 -170 1 0 0 0 1 0 0 0 1 3460.dat
0 STEP
1 3 0 -104 80 1 0 0 0 1 0 0 0 1 3832.dat
1 3 -160 -104 -0 0 0 -1 0 1 0 1 0 0 3034.dat
1 3 -120 -104 60 1 0 0 0 1 0 0 0 1 3022.dat
1 3 140 -104 60 1 0 0 0 1 0 0 0 1 3020.dat
1 3 -80 -104 50 1 0 0 0 1 0 0 0 1 3023.dat
1 3 80 -104 50 1 0 0 0 1 0 0 0 1 3023.dat
1 3 160 -104 -20 0 0 -1 0 1 0 1 0 0 3795.dat
1 3 -200 -104 -10 0 0 -1 0 1 0 1 0 0 3021.dat
1 3 200 -104 -10 0 0 -1 0 1 0 1 0 0 3021.dat
1 3 -190 -104 -50 1 0 0 0 1 0 0 0 1 3024.dat
1 3 -120 -104 -80 0 0 -1 0 1 0 1 0 0 3020.dat
1 3 120 -104 -80 0 0 -1 0 1 0 1 0 0 3020.dat
1 3 190 -104 -50 1 0 0 0 1 0 0 0 1 3024.dat
1 3 0 -104 -80 1 0 0 0 1 0 0 0 1 3832.dat
1 3 -70 -104 -110 1 0 0 0 1 0 0 0 1 3623.dat
1 3 70 -104 -110 1 0 0 0 1 0 0 0 1 3623.dat
1 3 -100 -104 -130 1 0 0 0 1 0 0 0 1 3023.dat
1 3 100 -104 -130 1 0 0 0 1 0 0 0 1 3023.dat
1 3 -70 -104 -150 1 0 0 0 1 0 0 0 1 3024.dat
1 3 70 -104 -150 1 0 0 0 1 0 0 0 1 3024.dat
1 3 -150 -104 -90 1 0 0 0 1 0 0 0 1 3070b.dat
1 3 150 -104 -90 1 0 0 0 1 0 0 0 1 3070b.dat
1 15 0 -104 -150 1 0 0 0 1 0 0 0 1 3666.dat
1 70 0 -104 -130 1 0 0 0 1 0 0 0 1 3460.dat
1 70 0 -104 -170 1 0 0 0 1 0 0 0 1 3460.dat
1 84 -90 -104 -160 0 0 -1 0 1 0 1 0 0 3023.dat
1 84 90 -104 -160 0 0 -1 0 1 0 1 0 0 3023.dat
0 STEP
1 3 0 -112 80 1 0 0 0 1 0 0 0 1 3832.dat
1 3 -160 -112 -0 0 0 -1 0 1 0 1 0 0 3034.dat
1 3 -120 -112 60 1 0 0 0 1 0 0 0 1 3022.dat
1 3 140 -112 60 1 0 0 0 1 0 0 0 1 3020.dat
1 3 -80 -112 50 1 0 0 0 1 0 0 0 1 3023.dat
1 3 80 -112 50 1 0 0 0 1 0 0 0 1 3023.dat
1 3 160 -112 -20 0 0 -1 0 1 0 1 0 0 3795.dat
1 3 -200 -112 -10 0 0 -1 0 1 0 1 0 0 3021.dat
1 3 200 -112 -10 0 0 -1 0 1 0 1 0 0 3021.dat
1 3 -190 -112 -50 1 0 0 0 1 0 0 0 1 3024.dat
1 3 -120 -112 -70 0 0 -1 0 1 0 1 0 0 3021.dat
1 3 120 -112 -70 0 0 -1 0 1 0 1 0 0 3021.dat
1 3 190 -112 -50 1 0 0 0 1 0 0 0 1 3024.dat
1 3 0 -112 -80 1 0 0 0 1 0 0 0 1 3832.dat
1 3 -80 -112 -110 1 0 0 0 1 0 0 0 1 3710.dat
1 3 80 -112 -110 1 0 0 0 1 0 0 0 1 3710.dat
1 3 -100 -112 -130 1 0 0 0 1 0 0 0 1 3023.dat
1 3 100 -112 -130 1 0 0 0 1 0 0 0 1 3023.dat
1 3 -130 -112 -110 1 0 0 0 1 0 0 0 1 3070b.dat
1 3 130 -112 -110 1 0 0 0 1 0 0 0 1 3070b.dat
1 15 0 -112 -150 1 0 0 0 1 0 0 0 1 3666.dat
1 70 0 -112 -130 1 0 0 0 1 0 0 0 1 3460.dat
1 70 0 -112 -170 1 0 0 0 1 0 0 0 1 3666.dat
1 84 -80 -112 -160 1 0 0 0 1 0 0 0 1 3022.dat
1 84 80 -112 -160 1 0 0 0 1 0 0 0 1 3022.dat
0 STEP
1 3 0 -120 80 1 0 0 0 1 0 0 0 1 3832.dat
1 3 -160 -120 -0 0 0 -1 0 1 0 1 0 0 3034.dat
1 3 -120 -120 60 1 0 0 0 1 0 0 0 1 3022.dat
1 3 140 -120 60 1 0 0 0 1 0 0 0 1 3020.dat
1 3 -80 -120 50 1 0 0 0 1 0 0 0 1 3023.dat
1 3 80 -120 50 1 0 0 0 1 0 0 0 1 3023.dat
1 3 -190 -120 -0 0 0 -1 0 1 0 1 0 0 3710.dat
1 3 160 -120 -20 0 0 -1 0 1 0 1 0 0 3795.dat
1 3 190 -120 -0 0 0 -1 0 1 0 1 0 0 3710.dat
1 3 -210 -120 -10 0 0 -1 0 1 0 1 0 0 3623.dat
1 3 210 -120 -10 0 0 -1 0 1 0 1 0 0 3623.dat
1 3 -110 -120 -60 1 0 0 0 1 0 0 0 1 3021.dat
1 3 100 -120 -80 0 0 -1 0 1 0 1 0 0 3020.dat
1 3 130 -120 -70 0 0 -1 0 1 0 1 0 0 3623.dat
1 3 0 -120 -80 1 0 0 0 1 0 0 0 1 3034.dat
1 3 -110 -120 -90 1 0 0 0 1 0 0 0 1 3623.dat
1 3 -80 -120 -110 1 0 0 0 1 0 0 0 1 3710.dat
1 3 60 -120 -110 1 0 0 0 1 0 0 0 1 3023.dat
1 3 -90 -120 -130 1 0 0 0 1 0 0 0 1 3024.dat
1 3 90 -120 -130 1 0 0 0 1 0 0 0 1 3024.dat
1 3 -190 -120 -50 1 0 0 0 1 0 0 0 1 3070b.dat
1 3 190 -120 -50 1 0 0 0 1 0 0 0 1 3070b.dat
1 3 -110 -120 -130 1 0 0 0 1 0 0 0 1 3070b.dat
1 3 110 -120 -130 1 0 0 0 1 0 0 0 1 3070b.dat
1 15 0 -120 -150 1 0 0 0 1 0 0 0 1 3666.dat
1 70 0 -120 -130 1 0 0 0 1 0 0 0 1 3460.dat
1 70 0 -120 -170 1 0 0 0 1 0 0 0 1 3666.dat
1 84 -80 -120 -160 1 0 0 0 1 0 0 0 1 3022.dat
1 84 80 -120 -160 1 0 0 0 1 0 0 0 1 3022.dat
0 STEP
1 3 -90 -128 70 0 0 -1 0 1 0 1 0 0 3623.dat
1 3 -50 -128 80 0 0 -1 0 1 0 1 0 0 3023.dat
1 3 -10 -128 80 0 0 -1 0 1 0 1 0 0 3023.dat
1 3 30 -128 80 0 0 -1 0 1 0 1 0 0 3023.dat
1 3 70 -128 70 0 0 -1 0 1 0 1 0 0 3623.dat
1 3 -170 -128 -0 0 0 -1 0 1 0 1 0 0 3460.dat
1 3 -130 -128 60 0 0 -1 0 1 0 1 0 0 3023.dat
1 3 110 -128 60 0 0 -1 0 1 0 1 0 0 3023.dat
1 3 150 -128 -0 0 0 -1 0 1 0 1 0 0 3460.dat
1 3 190 -128 -0 0 0 -1 0 1 0 1 0 0 3710.dat
1 3 -210 -128 -10 0 0 -1 0 1 0 1 0 0 3623.dat
1 3 -130 -128 -60 0 0 -1 0 1 0 1 0 0 3023.dat
1 3 -90 -128 -80 0 0 -1 0 1 0 1 0 0 3710.dat
1 3 70 -128 -80 0 0 -1 0 1 0 1 0 0 3710.dat
1 3 110 -128 -70 0 0 -1 0 1 0 1 0 0 3623.dat
1 3 -50 -128 -90 0 0 -1 0 1 0 1 0 0 3623.dat
1 3 -10 -128 -80 0 0 -1 0 1 0 1 0 0 3023.dat
1 3 30 -128 -80 0 0 -1 0 1 0 1 0 0 3023.dat
1 3 -90 -128 -130 1 0 0 0 1 0 0 0 1 3024.dat
1 3 -130 -128 -90 1 0 0 0 1 0 0 0 1 3070b.dat
1 3 110 -128 -110 1 0 0 0 1 0 0 0 1 3070b.dat
1 15 0 -128 -150 1 0 0 0 1 0 0 0 1 3666.dat
1 70 0 -128 -130 1 0 0 0 1 0 0 0 1 3460.dat
1 70 0 -128 -170 1 0 0 0 1 0 0 0 1 3666.dat
1 84 -80 -128 -160 1 0 0 0 1 0 0 0 1 3022.dat
1 84 80 -128 -160 1 0 0 0 1 0 0 0 1 3022.dat
1 378 -70 -128 70 0 0 -1 0 1 0 1 0 0 3623.dat
1 378 -30 -128 80 0 0 -1 0 1 0 1 0 0 3023.dat
1 378 10 -128 80 0 0 -1 0 1 0 1 0 0 3023.dat
1 378 50 -128 80 0 0 -1 0 1 0 1 0 0 3023.dat
1 378 90 -128 70 0 0 -1 0 1 0 1 0 0 3623.dat
1 378 -150 -128 -0 0 0 -1 0 1 0 1 0 0 3460.dat
1 378 -110 -128 60 0 0 -1 0 1 0 1 0 0 3023.dat
1 378 130 -128 60 0 0 -1 0 1 0 1 0 0 3023.dat
1 378 170 -128 -0 0 0 -1 0 1 0 1 0 0 3460.dat
1 378 -190 -128 -0 0 0 -1 0 1 0 1 0 0 3710.dat
1 378 210 -128 -10 0 0 -1 0 1 0 1 0 0 3623.dat
1 378 -110 -128 -70 0 0 -1 0 1 0 1 0 0 3623.dat
1 378 -70 -128 -80 0 0 -1 0 1 0 1 0 0 3710.dat
1 378 90 -128 -80 0 0 -1 0 1 0 1 0 0 3710.dat
1 378 130 -128 -60 0 0 -1 0 1 0 1 0 0 3023.dat
1 378 -30 -128 -80 0 0 -1 0 1 0 1 0 0 3023.dat
1 378 10 -128 -80 0 0 -1 0 1 0 1 0 0 3023.dat
1 378 50 -128 -90 0 0 -1 0 1 0 1 0 0 3623.dat
1 378 90 -128 -130 1 0 0 0 1 0 0 0 1 3024.dat
1 378 130 -128 -90 1 0 0 0 1 0 0 0 1 3070b.dat
1 378 -110 -128 -110 1 0 0 0 1 0 0 0 1 3070b.dat
0 STEP
1 3 -70 -136 70 0 0 -1 0 1 0 1 0 0 3623.dat
1 3 -30 -136 80 0 0 -1 0 1 0 1 0 0 3023.dat
1 3 10 -136 80 0 0 -1 0 1 0 1 0 0 3023.dat
1 3 50 -136 80 0 0 -1 0 1 0 1 0 0 3023.dat
1 3 90 -136 70 0 0 -1 0 1 0 1 0 0 3623.dat
1 3 -150 -136 -0 0 0 -1 0 1 0 1 0 0 3460.dat
1 3 -110 -136 60 0 0 -1 0 1 0 1 0 0 3023.dat
1 3 130 -136 50 0 0 -1 0 1 0 1 0 0 3623.dat
1 3 170 -136 -0 0 0 -1 0 1 0 1 0 0 3460.dat
1 3 -190 -136 -0 0 0 -1 0 1 0 1 0 0 3710.dat
1 3 210 -136 -10 0 0 -1 0 1 0 1 0 0 3623.dat
1 3 130 -136 -50 0 0 -1 0 1 0 1 0 0 3623.dat
1 3 -110 -136 -60 0 0 -1 0 1 0 1 0 0 3023.dat
1 3 -70 -136 -80 0 0 -1 0 1 0 1 0 0 3710.dat
1 3 90 -136 -80 0 0 -1 0 1 0 1 0 0 3710.dat
1 3 50 -136 -80 0 0 -1 0 1 0 1 0 0 3023.dat
1 3 -110 -136 -90 1 0 0 0 1 0 0 0 1 3070b.dat
1 3 50 -136 -110 1 0 0 0 1 0 0 0 1 3070b.dat
1 3 90 -136 -130 1 0 0 0 1 0 0 0 1 3070b.dat
1 15 0 -136 -150 1 0 0 0 1 0 0 0 1 3666.dat
1 19 0 -136 -170 1 0 0 0 1 0 0 0 1 3710.dat
1 70 0 -136 -130 1 0 0 0 1 0 0 0 1 3460.dat
1 70 -50 -136 -170 1 0 0 0 1 0 0 0 1 3024.dat
1 70 50 -136 -170 1 0 0 0 1 0 0 0 1 3024.dat
1 84 -90 -136 -160 0 0 -1 0 1 0 1 0 0 3023.dat
1 84 90 -136 -160 0 0 -1 0 1 0 1 0 0 3023.dat
1 84 -70 -136 -170 1 0 0 0 1 0 0 0 1 3024.dat
1 84 70 -136 -170 1 0 0 0 1 0 0 0 1 3024.dat
1 84 -70 -136 -150 1 0 0 0 1 0 0 0 1 3070b.dat
1 84 70 -136 -150 1 0 0 0 1 0 0 0 1 3070b.dat
1 378 -90 -136 70 0 0 -1 0 1 0 1 0 0 3623.dat
1 378 -50 -136 80 0 0 -1 0 1 0 1 0 0 3023.dat
1 378 -10 -136 80 0 0 -1 0 1 0 1 0 0 3023.dat
1 378 30 -136 80 0 0 -1 0 1 0 1 0 0 3023.dat
1 378 70 -136 70 0 0 -1 0 1 0 1 0 0 3623.dat
1 378 -170 -136 -0 0 0 -1 0 1 0 1 0 0 3460.dat
1 378 -130 -136 50 0 0 -1 0 1 0 1 0 0 3623.dat
1 378 110 -136 60 0 0 -1 0 1 0 1 0 0 3023.dat
1 378 150 -136 -0 0 0 -1 0 1 0 1 0 0 3460.dat
1 378 190 -136 -0 0 0 -1 0 1 0 1 0 0 3710.dat
1 378 -210 -136 -10 0 0 -1 0 1 0 1 0 0 3623.dat
1 378 -130 -136 -50 0 0 -1 0 1 0 1 0 0 3623.dat
1 378 -90 -136 -80 0 0 -1 0 1 0 1 0 0 3710.dat
1 378 70 -136 -80 0 0 -1 0 1 0 1 0 0 3710.dat
1 378 110 -136 -60 0 0 -1 0 1 0 1 0 0 3023.dat
1 378 -20 -136 -80 1 0 0 0 1 0 0 0 1 3020.dat
1 378 30 -136 -80 0 0 -1 0 1 0 1 0 0 3023.dat
1 378 110 -136 -90 1 0 0 0 1 0 0 0 1 3070b.dat
1 378 -50 -136 -110 1 0 0 0 1 0 0 0 1 3070b.dat
1 378 -90 -136 -130 1 0 0 0 1 0 0 0 1 3070b.dat
0 STEP
1 3 0 -144 80 1 0 0 0 1 0 0 0 1 3832.dat
1 3 -150 -144 -0 0 0 -1 0 1 0 1 0 0 3460.dat
1 3 -120 -144 60 1 0 0 0 1 0 0 0 1 3022.dat
1 3 130 -144 60 1 0 0 0 1 0 0 0 1 3021.dat
1 3 -170 -144 -0 0 0 -1 0 1 0 1 0 0 3666.dat
1 3 -70 -144 50 1 0 0 0 1 0 0 0 1 3623.dat
1 3 70 -144 50 1 0 0 0 1 0 0 0 1 3623.dat
1 3 170 -144 -0 0 0 -1 0 1 0 1 0 0 3666.dat
1 3 -190 -144 -0 0 0 -1 0 1 0 1 0 0 3710.dat
1 3 -130 -144 30 1 0 0 0 1 0 0 0 1 3024.dat
1 3 140 -144 30 1 0 0 0 1 0 0 0 1 3023.dat
1 3 190 -144 -0 0 0 -1 0 1 0 1 0 0 3710.dat
1 3 -210 -144 -10 0 0 -1 0 1 0 1 0 0 3623.dat
1 3 150 -144 -20 0 0 -1 0 1 0 1 0 0 3710.dat
1 3 210 -144 -10 0 0 -1 0 1 0 1 0 0 3623.dat
1 3 -130 -144 -50 0 0 -1 0 1 0 1 0 0 3623.dat
1 3 130 -144 -50 0 0 -1 0 1 0 1 0 0 3623.dat
1 3 -80 -144 -60 1 0 0 0 1 0 0 0 1 3020.dat
1 3 80 -144 -60 1 0 0 0 1 0 0 0 1 3020.dat
1 3 150 -144 -70 1 0 0 0 1 0 0 0 1 3024.dat
1 3 -70 -144 -90 1 0 0 0 1 0 0 0 1 3623.dat
1 3 70 -144 -90 1 0 0 0 1 0 0 0 1 3623.dat
1 3 -170 -144 70 1 0 0 0 1 0 0 0 1 3070b.dat
1 3 170 -144 70 1 0 0 0 1 0 0 0 1 3070b.dat
1 3 -170 -144 -70 1 0 0 0 1 0 0 0 1 3070b.dat
1 3 170 -144 -70 1 0 0 0 1 0 0 0 1 3070b.dat
1 3 -80 -144 -110 1 0 0 0 1 0 0 0 1 3069b.dat
1 3 80 -144 -110 1 0 0 0 1 0 0 0 1 3069b.dat
1 15 0 -144 -80 1 0 0 0 1 0 0 0 1 3022.dat
1 15 0 -144 -150 1 0 0 0 1 0 0 0 1 3666.dat
1 19 0 -144 -170 1 0 0 0 1 0 0 0 1 3710.dat
1 70 0 -144 -130 1 0 0 0 1 0 0 0 1 3460.dat
1 70 -60 -144 -170 1 0 0 0 1 0 0 0 1 3023.dat
1 70 60 -144 -170 1 0 0 0 1 0 0 0 1 3023.dat
1 84 -90 -144 -160 0 0 -1 0 1 0 1 0 0 3069b.dat
1 84 90 -144 -160 0 0 -1 0 1 0 1 0 0 3069b.dat
1 378 -30 -144 -80 0 0 -1 0 1 0 1 0 0 3023.dat
1 378 30 -144 -80 0 0 -1 0 1 0 1 0 0 3023.dat
0 STEP
1 3 0 -152 80 1 0 0 0 1 0 0 0 1 3034.dat
1 3 -150 -152 -0 0 0 -1 0 1 0 1 0 0 3460.dat
1 3 -110 -152 60 1 0 0 0 1 0 0 0 1 3021.dat
1 3 120 -152 60 1 0 0 0 1 0 0 0 1 3020.dat
1 3 -170 -152 -0 0 0 -1 0 1 0 1 0 0 3666.dat
1 3 0 -152 50 1 0 0 0 1 0 0 0 1 3460.dat
1 3 170 -152 -0 0 0 -1 0 1 0 1 0 0 3666.dat
1 3 -190 -152 -0 0 0 -1 0 1 0 1 0 0 3710.dat
1 3 -130 -152 30 1 0 0 0 1 0 0 0 1 3024.dat
1 3 140 -152 30 1 0 0 0 1 0 0 0 1 3023.dat
1 3 190 -152 -0 0 0 -1 0 1 0 1 0 0 3710.dat
1 3 -210 -152 -0 0 0 -1 0 1 0 1 0 0 3023.dat
1 3 150 -152 -20 0 0 -1 0 1 0 1 0 0 3710.dat
1 3 210 -152 -0 0 0 -1 0 1 0 1 0 0 3023.dat
1 3 -130 -152 -50 0 0 -1 0 1 0 1 0 0 3623.dat
1 3 130 -152 -50 0 0 -1 0 1 0 1 0 0 3623.dat
1 3 -80 -152 -60 1 0 0 0 1 0 0 0 1 3020.dat
1 3 80 -152 -60 1 0 0 0 1 0 0 0 1 3020.dat
1 3 150 -152 -70 1 0 0 0 1 0 0 0 1 3024.dat
1 3 -60 -152 -90 1 0 0 0 1 0 0 0 1 3023.dat
1 3 60 -152 -90 1 0 0 0 1 0 0 0 1 3023.dat
1 3 -90 -152 90 1 0 0 0 1 0 0 0 1 3070b.dat
1 3 90 -152 90 1 0 0 0 1 0 0 0 1 3070b.dat
1 3 -210 -152 -30 1 0 0 0 1 0 0 0 1 3070b.dat
1 3 210 -152 -30 1 0 0 0 1 0 0 0 1 3070b.dat
1 3 -90 -152 -90 1 0 0 0 1 0 0 0 1 3070b.dat
1 3 90 -152 -90 1 0 0 0 1 0 0 0 1 3070b.dat
1 15 0 -152 -70 0 0 -1 0 1 0 1 0 0 3021.dat
1 15 0 -152 -150 1 0 0 0 1 0 0 0 1 3666.dat
1 19 0 -152 -170 1 0 0 0 1 0 0 0 1 3710.dat
1 70 0 -152 -130 1 0 0 0 1 0 0 0 1 3460.dat
1 70 -60 -152 -170 1 0 0 0 1 0 0 0 1 3023.dat
1 70 60 -152 -170 1 0 0 0 1 0 0 0 1 3023.dat
1 378 -30 -152 -70 0 0 -1 0 1 0 1 0 0 3623.dat
1 378 30 -152 -70 0 0 -1 0 1 0 1 0 0 3623.dat
0 STEP
1 3 -40 -160 60 1 0 0 0 1 0 0 0 1 2445.dat
1 3 120 -160 60 1 0 0 0 1 0 0 0 1 3020.dat
1 3 -170 -160 -0 0 0 -1 0 1 0 1 0 0 3666.dat
1 3 170 -160 -0 0 0 -1 0 1 0 1 0 0 3666.dat
1 3 -190 -160 -0 0 0 -1 0 1 0 1 0 0 3710.dat
1 3 -140 -160 -20 0 0 -1 0 1 0 1 0 0 3795.dat
1 3 -110 -160 30 1 0 0 0 1 0 0 0 1 3024.dat
1 3 130 -160 30 1 0 0 0 1 0 0 0 1 3623.dat
1 3 190 -160 -0 0 0 -1 0 1 0 1 0 0 3710.dat
1 3 -210 -160 -0 0 0 -1 0 1 0 1 0 0 3023.dat
1 3 140 -160 -20 0 0 -1 0 1 0 1 0 0 3020.dat
1 3 210 -160 -0 0 0 -1 0 1 0 1 0 0 3023.dat
1 3 -110 -160 -50 0 0 -1 0 1 0 1 0 0 3623.dat
1 3 110 -160 -50 0 0 -1 0 1 0 1 0 0 3623.dat
1 3 -80 -160 -60 1 0 0 0 1 0 0 0 1 3022.dat
1 3 80 -160 -60 1 0 0 0 1 0 0 0 1 3022.dat
1 3 140 -160 -70 1 0 0 0 1 0 0 0 1 3023.dat
1 3 0 -160 90 1 0 0 0 1 0 0 0 1 4162.dat
1 3 -70 -160 -90 1 0 0 0 1 0 0 0 1 3070b.dat
1 3 70 -160 -90 1 0 0 0 1 0 0 0 1 3070b.dat
1 15 0 -160 -60 1 0 0 0 1 0 0 0 1 3022.dat
1 15 0 -160 -150 1 0 0 0 1 0 0 0 1 3666.dat
1 15 0 -160 -90 1 0 0 0 1 0 0 0 1 3069b.dat
1 70 0 -160 -130 1 0 0 0 1 0 0 0 1 3460.dat
1 70 0 -160 -170 1 0 0 0 1 0 0 0 1 3460.dat
1 378 -40 -160 -60 1 0 0 0 1 0 0 0 1 3022.dat
1 378 40 -160 -60 1 0 0 0 1 0 0 0 1 3022.dat
1 378 -40 -160 -90 1 0 0 0 1 0 0 0 1 3069b.dat
1 378 40 -160 -90 1 0 0 0 1 0 0 0 1 3069b.dat
0 STEP
1 3 -20 -168 60 1 0 0 0 1 0 0 0 1 2445.dat
1 3 120 -168 50 0 0 -1 0 1 0 1 0 0 3021.dat
1 3 -150 -168 -0 0 0 -1 0 1 0 1 0 0 3666.dat
1 3 150 -168 -0 0 0 -1 0 1 0 1 0 0 3666.dat
1 3 -180 -168 -0 0 0 -1 0 1 0 1 0 0 3020.dat
1 3 -130 -168 -20 0 0 -1 0 1 0 1 0 0 3666.dat
1 3 -100 -168 30 1 0 0 0 1 0 0 0 1 3023.dat
1 3 90 -168 30 1 0 0 0 1 0 0 0 1 3024.dat
1 3 180 -168 -0 0 0 -1 0 1 0 1 0 0 3020.dat
1 3 -210 -168 -0 0 0 -1 0 1 0 1 0 0 3023.dat
1 3 130 -168 -20 0 0 -1 0 1 0 1 0 0 3710.dat
1 3 210 -168 -0 0 0 -1 0 1 0 1 0 0 3023.dat
1 3 -100 -168 -50 0 0 -1 0 1 0 1 0 0 3021.dat
1 3 100 -168 -50 0 0 -1 0 1 0 1 0 0 3021.dat
1 3 -70 -168 -60 0 0 -1 0 1 0 1 0 0 3023.dat
1 3 70 -168 -60 0 0 -1 0 1 0 1 0 0 3023.dat
1 3 130 -168 -70 1 0 0 0 1 0 0 0 1 3024.dat
1 3 -150 -168 70 1 0 0 0 1 0 0 0 1 3070b.dat
1 3 150 -168 70 1 0 0 0 1 0 0 0 1 3070b.dat
1 3 -170 -168 50 1 0 0 0 1 0 0 0 1 3070b.dat
1 3 170 -168 50 1 0 0 0 1 0 0 0 1 3070b.dat
1 3 -170 -168 -50 1 0 0 0 1 0 0 0 1 3070b.dat
1 3 170 -168 -50 1 0 0 0 1 0 0 0 1 3070b.dat
1 3 -150 -168 -70 1 0 0 0 1 0 0 0 1 3070b.dat
1 3 150 -168 -70 1 0 0 0 1 0 0 0 1 3070b.dat
1 15 0 -168 -60 1 0 0 0 1 0 0 0 1 3022.dat
1 15 0 -168 -150 1 0 0 0 1 0 0 0 1 3666.dat
1 70 0 -168 -130 1 0 0 0 1 0 0 0 1 3460.dat
1 70 0 -168 -170 1 0 0 0 1 0 0 0 1 3460.dat
1 378 -40 -168 -60 1 0 0 0 1 0 0 0 1 3022.dat
1 378 40 -168 -60 1 0 0 0 1 0 0 0 1 3022.dat
0 STEP
1 3 -90 -176 50 0 0 -1 0 1 0 1 0 0 3623.dat
1 3 -50 -176 50 0 0 -1 0 1 0 1 0 0 3623.dat
1 3 -10 -176 60 0 0 -1 0 1 0 1 0 0 3023.dat
1 3 30 -176 60 0 0 -1 0 1 0 1 0 0 3023.dat
1 3 70 -176 50 0 0 -1 0 1 0 1 0 0 3623.dat
1 3 110 -176 -0 0 0 -1 0 1 0 1 0 0 3460.dat
1 3 -130 -176 -0 0 0 -1 0 1 0 1 0 0 3666.dat
1 3 150 -176 -0 0 0 -1 0 1 0 1 0 0 3666.dat
1 3 -170 -176 -0 0 0 -1 0 1 0 1 0 0 3710.dat
1 3 190 -176 -0 0 0 -1 0 1 0 1 0 0 3710.dat
1 3 -210 -176 -0 0 0 -1 0 1 0 1 0 0 3023.dat
1 3 -90 -176 -50 0 0 -1 0 1 0 1 0 0 3623.dat
1 3 -50 -176 -30 1 0 0 0 1 0 0 0 1 3024.dat
1 3 70 -176 -50 0 0 -1 0 1 0 1 0 0 3623.dat
1 3 -130 -176 70 1 0 0 0 1 0 0 0 1 3070b.dat
1 3 -130 -176 -70 1 0 0 0 1 0 0 0 1 3070b.dat
1 15 0 -176 -60 1 0 0 0 1 0 0 0 1 3022.dat
1 15 0 -176 -150 1 0 0 0 1 0 0 0 1 3666.dat
1 70 0 -176 -130 1 0 0 0 1 0 0 0 1 3460.dat
1 70 0 -176 -170 1 0 0 0 1 0 0 0 1 4162.dat
1 378 -110 -176 -0 0 0 -1 0 1 0 1 0 0 3460.dat
1 378 -70 -176 50 0 0 -1 0 1 0 1 0 0 3623.dat
1 378 -30 -176 60 0 0 -1 0 1 0 1 0 0 3023.dat
1 378 10 -176 60 0 0 -1 0 1 0 1 0 0 3023.dat
1 378 50 -176 50 0 0 -1 0 1 0 1 0 0 3623.dat
1 378 90 -176 50 0 0 -1 0 1 0 1 0 0 3623.dat
1 378 -150 -176 -0 0 0 -1 0 1 0 1 0 0 3666.dat
1 378 130 -176 -0 0 0 -1 0 1 0 1 0 0 3666.dat
1 378 -190 -176 -0 0 0 -1 0 1 0 1 0 0 3710.dat
1 378 170 -176 -0 0 0 -1 0 1 0 1 0 0 3710.dat
1 378 210 -176 -0 0 0 -1 0 1 0 1 0 0 3023.dat
1 378 -70 -176 -50 0 0 -1 0 1 0 1 0 0 3623.dat
1 378 50 -176 -50 0 0 -1 0 1 0 1 0 0 3623.dat
1 378 90 -176 -50 0 0 -1 0 1 0 1 0 0 3623.dat
1 378 -40 -176 -60 1 0 0 0 1 0 0 0 1 3022.dat
1 378 30 -176 -60 0 0 -1 0 1 0 1 0 0 3023.dat
1 378 130 -176 70 1 0 0 0 1 0 0 0 1 3070b.dat
1 378 130 -176 -70 1 0 0 0 1 0 0 0 1 3070b.dat
0 STEP
1 3 -70 -184 -0 0 0 -1 0 1 0 1 0 0 3460.dat
1 3 -30 -184 50 0 0 -1 0 1 0 1 0 0 3623.dat
1 3 10 -184 50 0 0 -1 0 1 0 1 0 0 3623.dat
1 3 50 -184 50 0 0 -1 0 1 0 1 0 0 3623.dat
1 3 -110 -184 -0 0 0 -1 0 1 0 1 0 0 3666.dat
1 3 90 -184 -0 0 0 -1 0 1 0 1 0 0 3666.dat
1 3 130 -184 -0 0 0 -1 0 1 0 1 0 0 3666.dat
1 3 -190 -184 -0 0 0 -1 0 1 0 1 0 0 3710.dat
1 3 170 -184 -0 0 0 -1 0 1 0 1 0 0 3710.dat
1 3 -150 -184 -0 0 0 -1 0 1 0 1 0 0 3023.dat
1 3 210 -184 -0 0 0 -1 0 1 0 1 0 0 3023.dat
1 3 -30 -184 -30 1 0 0 0 1 0 0 0 1 3024.dat
1 3 10 -184 -30 1 0 0 0 1 0 0 0 1 3024.dat
1 3 50 -184 -30 1 0 0 0 1 0 0 0 1 3024.dat
1 3 -110 -184 70 1 0 0 0 1 0 0 0 1 3070b.dat
1 3 90 -184 70 1 0 0 0 1 0 0 0 1 3070b.dat
1 3 -150 -184 40 0 0 -1 0 1 0 1 0 0 3069b.dat
1 3 -150 -184 -40 0 0 -1 0 1 0 1 0 0 3069b.dat
1 3 -110 -184 -70 1 0 0 0 1 0 0 0 1 3070b.dat
1 3 90 -184 -70 1 0 0 0 1 0 0 0 1 3070b.dat
1 15 0 -184 -60 1 0 0 0 1 0 0 0 1 3020.dat
1 15 0 -184 -150 1 0 0 0 1 0 0 0 1 6636.dat
1 70 0 -184 -130 1 0 0 0 1 0 0 0 1 4162.dat
1 378 -50 -184 50 0 0 -1 0 1 0 1 0 0 3623.dat
1 378 -10 -184 50 0 0 -1 0 1 0 1 0 0 3623.dat
1 378 30 -184 50 0 0 -1 0 1 0 1 0 0 3623.dat
1 378 70 -184 -0 0 0 -1 0 1 0 1 0 0 3460.dat
1 378 -130 -184 -0 0 0 -1 0 1 0 1 0 0 3666.dat
1 378 -90 -184 -0 0 0 -1 0 1 0 1 0 0 3666.dat
1 378 110 -184 -0 0 0 -1 0 1 0 1 0 0 3666.dat
1 378 -170 -184 -0 0 0 -1 0 1 0 1 0 0 3710.dat
1 378 190 -184 -0 0 0 -1 0 1 0 1 0 0 3710.dat
1 378 -210 -184 -0 0 0 -1 0 1 0 1 0 0 3023.dat
1 378 150 -184 -0 0 0 -1 0 1 0 1 0 0 3023.dat
1 378 -50 -184 -50 0 0 -1 0 1 0 1 0 0 3623.dat
1 378 -10 -184 -30 1 0 0 0 1 0 0 0 1 3024.dat
1 378 30 -184 -30 1 0 0 0 1 0 0 0 1 3024.dat
1 378 50 -184 -60 0 0 -1 0 1 0 1 0 0 3023.dat
1 378 -90 -184 70 1 0 0 0 1 0 0 0 1 3070b.dat
1 378 110 -184 70 1 0 0 0 1 0 0 0 1 3070b.dat
1 378 150 -184 40 0 0 -1 0 1 0 1 0 0 3069b.dat
1 378 150 -184 -40 0 0 -1 0 1 0 1 0 0 3069b.dat
1 378 -90 -184 -70 1 0 0 0 1 0 0 0 1 3070b.dat
1 378 110 -184 -70 1 0 0 0 1 0 0 0 1 3070b.dat
0 STEP
1 3 0 -192 50 1 0 0 0 1 0 0 0 1 4477.dat
1 3 -100 -192 -0 0 0 -1 0 1 0 1 0 0 3020.dat
1 3 -70 -192 -0 0 0 -1 0 1 0 1 0 0 3710.dat
1 3 -50 -192 30 1 0 0 0 1 0 0 0 1 3024.dat
1 3 80 -192 30 1 0 0 0 1 0 0 0 1 3710.dat
1 3 -180 -192 -0 1 0 0 0 1 0 0 0 1 3022.dat
1 3 90 -192 -0 1 0 0 0 1 0 0 0 1 3021.dat
1 3 180 -192 -0 1 0 0 0 1 0 0 0 1 3022.dat
1 3 -50 -192 -30 1 0 0 0 1 0 0 0 1 3024.dat
1 3 80 -192 -30 1 0 0 0 1 0 0 0 1 3710.dat
1 3 -90 -192 -50 1 0 0 0 1 0 0 0 1 3024.dat
1 3 90 -192 -50 1 0 0 0 1 0 0 0 1 3024.dat
1 3 0 -192 70 1 0 0 0 1 0 0 0 1 4162.dat
1 3 -130 -192 -0 0 0 -1 0 1 0 1 0 0 6636.dat
1 3 -110 -192 50 1 0 0 0 1 0 0 0 1 3070b.dat
1 3 120 -192 50 1 0 0 0 1 0 0 0 1 3069b.dat
1 3 -180 -192 30 1 0 0 0 1 0 0 0 1 3069b.dat
1 3 130 -192 -0 0 0 -1 0 1 0 1 0 0 2431.dat
1 3 180 -192 30 1 0 0 0 1 0 0 0 1 3069b.dat
1 3 -210 -192 -0 0 0 -1 0 1 0 1 0 0 3069b.dat
1 3 -150 -192 -0 0 0 -1 0 1 0 1 0 0 3069b.dat
1 3 150 -192 -0 0 0 -1 0 1 0 1 0 0 3069b.dat
1 3 210 -192 -0 0 0 -1 0 1 0 1 0 0 3069b.dat
1 3 -180 -192 -30 1 0 0 0 1 0 0 0 1 3069b.dat
1 3 180 -192 -30 1 0 0 0 1 0 0 0 1 3069b.dat
1 3 -110 -192 -50 1 0 0 0 1 0 0 0 1 3070b.dat
1 3 120 -192 -50 1 0 0 0 1 0 0 0 1 3069b.dat
1 15 -30 -192 -50 1 0 0 0 1 0 0 0 1 3024.dat
1 15 30 -192 -50 1 0 0 0 1 0 0 0 1 3024.dat
1 15 0 -192 -70 1 0 0 0 1 0 0 0 1 2431.dat
1 84 0 -192 -0 1 0 0 0 1 0 0 0 1 3031.dat
1 84 -50 -192 -0 0 0 -1 0 1 0 1 0 0 3023.dat
1 84 50 -192 -0 0 0 -1 0 1 0 1 0 0 3023.dat
1 84 0 -192 -50 1 0 0 0 1 0 0 0 1 3023.dat
1 378 -60 -192 -50 1 0 0 0 1 0 0 0 1 3023.dat
1 378 60 -192 -50 1 0 0 0 1 0 0 0 1 3023.dat
1 378 -60 -192 -70 1 0 0 0 1 0 0 0 1 3069b.dat
1 378 60 -192 -70 1 0 0 0 1 0 0 0 1 3069b.dat
0 STEP
1 3 -170 -200 -0 0 0 -1 0 1 0 1 0 0 3023.dat
1 3 170 -200 -0 0 0 -1 0 1 0 1 0 0 3023.dat
1 3 -90 -200 -30 1 0 0 0 1 0 0 0 1 3024.dat
1 3 90 -200 -30 1 0 0 0 1 0 0 0 1 3024.dat
1 3 -20 -200 50 1 0 0 0 1 0 0 0 1 4162.dat
1 3 70 -200 20 0 0 -1 0 1 0 1 0 0 2431.dat
1 3 90 -200 20 0 0 -1 0 1 0 1 0 0 2431.dat
1 3 -80 -200 30 1 0 0 0 1 0 0 0 1 2431.dat
1 3 50 -200 30 1 0 0 0 1 0 0 0 1 3070b.dat
1 3 110 -200 -0 0 0 -1 0 1 0 1 0 0 2431.dat
1 3 -190 -200 -0 0 0 -1 0 1 0 1 0 0 3069b.dat
1 3 -100 -200 -0 1 0 0 0 1 0 0 0 1 3068b.dat
1 3 -70 -200 -10 0 0 -1 0 1 0 1 0 0 63864.dat
1 3 190 -200 -0 0 0 -1 0 1 0 1 0 0 3069b.dat
1 3 -110 -200 -30 1 0 0 0 1 0 0 0 1 3070b.dat
1 3 -50 -200 -30 1 0 0 0 1 0 0 0 1 3070b.dat
1 3 60 -200 -30 1 0 0 0 1 0 0 0 1 3069b.dat
1 3 -90 -200 -50 1 0 0 0 1 0 0 0 1 3070b.dat
1 3 90 -200 -50 1 0 0 0 1 0 0 0 1 3070b.dat
1 15 -30 -200 -50 1 0 0 0 1 0 0 0 1 3070b.dat
1 15 30 -200 -50 1 0 0 0 1 0 0 0 1 3070b.dat
1 84 0 -200 -0 1 0 0 0 1 0 0 0 1 3031.dat
1 84 -50 -200 -0 0 0 -1 0 1 0 1 0 0 3023.dat
1 84 50 -200 -0 0 0 -1 0 1 0 1 0 0 3023.dat
1 84 0 -200 -50 1 0 0 0 1 0 0 0 1 3023.dat
1 378 -60 -200 -50 1 0 0 0 1 0 0 0 1 3069b.dat
1 378 60 -200 -50 1 0 0 0 1 0 0 0 1 3069b.dat
0 STEP
1 3 -170 -208 -0 0 0 -1 0 1 0 1 0 0 3069b.dat
1 3 170 -208 -0 0 0 -1 0 1 0 1 0 0 3069b.dat
1 84 0 -208 -0 1 0 0 0 1 0 0 0 1 3031.dat
1 84 -50 -208 -0 0 0 -1 0 1 0 1 0 0 3023.dat
1 84 50 -208 -0 0 0 -1 0 1 0 1 0 0 3023.dat
1 84 0 -208 -50 1 0 0 0 1 0 0 0 1 3023.dat
1 320 -90 -208 -30 1 0 0 0 1 0 0 0 1 3024.dat
1 320 90 -208 -30 1 0 0 0 1 0 0 0 1 3024.dat
0 STEP
1 84 0 -216 -0 1 0 0 0 1 0 0 0 1 3031.dat
1 84 -50 -216 -10 0 0 -1 0 1 0 1 0 0 3623.dat
1 84 50 -216 -10 0 0 -1 0 1 0 1 0 0 3623.dat
1 84 0 -216 -50 1 0 0 0 1 0 0 0 1 3710.dat
1 320 -90 -216 -30 1 0 0 0 1 0 0 0 1 3024.dat
1 320 90 -216 -30 1 0 0 0 1 0 0 0 1 3024.dat
0 STEP
1 84 0 -224 -0 0 0 -1 0 1 0 1 0 0 3032.dat
1 84 -50 -224 -0 0 0 -1 0 1 0 1 0 0 3710.dat
1 84 50 -224 -0 0 0 -1 0 1 0 1 0 0 3710.dat
1 84 -70 -224 -10 1 0 0 0 1 0 0 0 1 3024.dat
1 84 70 -224 -10 1 0 0 0 1 0 0 0 1 3024.dat
1 84 -50 -224 -50 1 0 0 0 1 0 0 0 1 3024.dat
1 84 50 -224 -50 1 0 0 0 1 0 0 0 1 3024.dat
1 84 0 -224 -70 1 0 0 0 1 0 0 0 1 3023.dat
1 320 -90 -224 -30 1 0 0 0 1 0 0 0 1 3024.dat
1 320 90 -224 -30 1 0 0 0 1 0 0 0 1 3024.dat
0 STEP
1 84 0 -232 -0 0 0 -1 0 1 0 1 0 0 3032.dat
1 84 -50 -232 -0 0 0 -1 0 1 0 1 0 0 3710.dat
1 84 50 -232 -0 0 0 -1 0 1 0 1 0 0 3710.dat
1 84 -70 -232 -10 0 0 -1 0 1 0 1 0 0 3623.dat
1 84 70 -232 -10 0 0 -1 0 1 0 1 0 0 3623.dat
1 84 -50 -232 -50 1 0 0 0 1 0 0 0 1 3024.dat
1 84 50 -232 -50 1 0 0 0 1 0 0 0 1 3024.dat
1 84 0 -232 -70 1 0 0 0 1 0 0 0 1 3710.dat
1 320 -90 -232 -30 1 0 0 0 1 0 0 0 1 3024.dat
1 320 90 -232 -30 1 0 0 0 1 0 0 0 1 3024.dat
0 STEP
1 84 0 -240 40 0 0 -1 0 1 0 1 0 0 3020.dat
1 84 -40 -240 -0 0 0 -1 0 1 0 1 0 0 3795.dat
1 84 40 -240 -0 0 0 -1 0 1 0 1 0 0 3795.dat
1 84 -70 -240 -0 0 0 -1 0 1 0 1 0 0 3710.dat
1 84 70 -240 -0 0 0 -1 0 1 0 1 0 0 3710.dat
1 84 0 -240 -50 0 0 -1 0 1 0 1 0 0 3021.dat
1 84 -70 -240 -50 1 0 0 0 1 0 0 0 1 3024.dat
1 84 70 -240 -50 1 0 0 0 1 0 0 0 1 3024.dat
1 84 -40 -240 -70 1 0 0 0 1 0 0 0 1 3023.dat
1 84 40 -240 -70 1 0 0 0 1 0 0 0 1 3023.dat
1 320 -90 -240 -30 1 0 0 0 1 0 0 0 1 3024.dat
1 320 90 -240 -30 1 0 0 0 1 0 0 0 1 3024.dat
0 STEP
1 84 0 -248 40 1 0 0 0 1 0 0 0 1 3031.dat
1 84 -50 -248 -0 0 0 -1 0 1 0 1 0 0 3666.dat
1 84 50 -248 -0 0 0 -1 0 1 0 1 0 0 3666.dat
1 84 -70 -248 -0 0 0 -1 0 1 0 1 0 0 3710.dat
1 84 70 -248 -0 0 0 -1 0 1 0 1 0 0 3710.dat
1 84 -90 -248 -10 0 0 -1 0 1 0 1 0 0 3623.dat
1 84 90 -248 -10 0 0 -1 0 1 0 1 0 0 3623.dat
1 84 -30 -248 -40 0 0 -1 0 1 0 1 0 0 3710.dat
1 84 30 -248 -40 0 0 -1 0 1 0 1 0 0 3710.dat
1 84 0 -248 -60 0 0 -1 0 1 0 1 0 0 3020.dat
1 84 -70 -248 -50 1 0 0 0 1 0 0 0 1 3024.dat
1 84 70 -248 -50 1 0 0 0 1 0 0 0 1 3024.dat
1 84 -50 -248 -70 1 0 0 0 1 0 0 0 1 3024.dat
1 84 50 -248 -70 1 0 0 0 1 0 0 0 1 3024.dat
0 STEP
1 84 0 -256 60 1 0 0 0 1 0 0 0 1 3795.dat
1 84 -70 -256 -0 0 0 -1 0 1 0 1 0 0 3666.dat
1 84 70 -256 -0 0 0 -1 0 1 0 1 0 0 3666.dat
1 84 -90 -256 -0 0 0 -1 0 1 0 1 0 0 3710.dat
1 84 0 -256 30 1 0 0 0 1 0 0 0 1 3666.dat
1 84 90 -256 -0 0 0 -1 0 1 0 1 0 0 3710.dat
1 84 -50 -256 -20 0 0 -1 0 1 0 1 0 0 3710.dat
1 84 -30 -256 10 1 0 0 0 1 0 0 0 1 3024.dat
1 84 40 -256 10 1 0 0 0 1 0 0 0 1 3023.dat
1 84 50 -256 -40 0 0 -1 0 1 0 1 0 0 3710.dat
1 84 -30 -256 -60 0 0 -1 0 1 0 1 0 0 3710.dat
1 84 30 -256 -60 0 0 -1 0 1 0 1 0 0 3710.dat
1 84 0 -256 -70 0 0 -1 0 1 0 1 0 0 3021.dat
1 84 -60 -256 -70 1 0 0 0 1 0 0 0 1 3023.dat
1 84 70 -256 -70 1 0 0 0 1 0 0 0 1 3024.dat
1 320 -110 -256 -30 1 0 0 0 1 0 0 0 1 3024.dat
1 320 110 -256 -30 1 0 0 0 1 0 0 0 1 3024.dat
0 STEP
1 84 0 -264 60 1 0 0 0 1 0 0 0 1 3795.dat
1 84 -70 -264 -0 0 0 -1 0 1 0 1 0 0 3666.dat
1 84 70 -264 -0 0 0 -1 0 1 0 1 0 0 3666.dat
1 84 -90 -264 -0 0 0 -1 0 1 0 1 0 0 3710.dat
1 84 0 -264 30 1 0 0 0 1 0 0 0 1 3666.dat
1 84 90 -264 -0 0 0 -1 0 1 0 1 0 0 3710.dat
1 84 -50 -264 -40 0 0 -1 0 1 0 1 0 0 3666.dat
1 84 -30 -264 10 1 0 0 0 1 0 0 0 1 3024.dat
1 84 40 -264 10 1 0 0 0 1 0 0 0 1 3023.dat
1 84 50 -264 -40 0 0 -1 0 1 0 1 0 0 3710.dat
1 84 -30 -264 -60 0 0 -1 0 1 0 1 0 0 3710.dat
1 84 30 -264 -60 0 0 -1 0 1 0 1 0 0 3710.dat
1 84 -90 -264 -50 1 0 0 0 1 0 0 0 1 3024.dat
1 84 0 -264 -70 0 0 -1 0 1 0 1 0 0 3021.dat
1 84 90 -264 -50 1 0 0 0 1 0 0 0 1 3024.dat
1 84 -70 -264 -70 1 0 0 0 1 0 0 0 1 3024.dat
1 84 70 -264 -70 1 0 0 0 1 0 0 0 1 3024.dat
1 84 50 -264 -90 1 0 0 0 1 0 0 0 1 3024.dat
1 320 -110 -264 -30 1 0 0 0 1 0 0 0 1 3024.dat
1 320 110 -264 -30 1 0 0 0 1 0 0 0 1 3024.dat
0 STEP
1 84 0 -272 70 0 0 -1 0 1 0 1 0 0 3021.dat
1 84 -50 -272 -0 0 0 -1 0 1 0 1 0 0 3460.dat
1 84 -30 -272 50 0 0 -1 0 1 0 1 0 0 3623.dat
1 84 40 -272 50 0 0 -1 0 1 0 1 0 0 3021.dat
1 84 -70 -272 -0 0 0 -1 0 1 0 1 0 0 3666.dat
1 84 70 -272 -0 0 0 -1 0 1 0 1 0 0 3666.dat
1 84 -90 -272 -0 0 0 -1 0 1 0 1 0 0 3710.dat
1 84 90 -272 -0 0 0 -1 0 1 0 1 0 0 3710.dat
1 84 50 -272 -40 0 0 -1 0 1 0 1 0 0 3666.dat
1 84 -90 -272 -50 1 0 0 0 1 0 0 0 1 3024.dat
1 84 0 -272 -60 1 0 0 0 1 0 0 0 1 3020.dat
1 84 90 -272 -50 1 0 0 0 1 0 0 0 1 3024.dat
1 84 -70 -272 -70 1 0 0 0 1 0 0 0 1 3024.dat
1 84 70 -272 -70 1 0 0 0 1 0 0 0 1 3024.dat
1 84 -20 -272 -90 1 0 0 0 1 0 0 0 1 3710.dat
1 84 30 -272 -90 1 0 0 0 1 0 0 0 1 3024.dat
1 320 -110 -272 -20 0 0 -1 0 1 0 1 0 0 3023.dat
1 320 110 -272 -20 0 0 -1 0 1 0 1 0 0 3023.dat
0 STEP
1 84 0 -280 80 1 0 0 0 1 0 0 0 1 3020.dat
1 84 -70 -280 -0 0 0 -1 0 1 0 1 0 0 3460.dat
1 84 -50 -280 40 0 0 -1 0 1 0 1 0 0 3710.dat
1 84 60 -280 40 0 0 -1 0 1 0 1 0 0 3020.dat
1 84 -90 -280 -0 0 0 -1 0 1 0 1 0 0 3666.dat
1 84 0 -280 50 1 0 0 0 1 0 0 0 1 3710.dat
1 84 90 -280 -0 0 0 -1 0 1 0 1 0 0 3666.dat
1 84 -30 -280 30 1 0 0 0 1 0 0 0 1 3024.dat
1 84 30 -280 30 1 0 0 0 1 0 0 0 1 3024.dat
1 84 -110 -280 -10 0 0 -1 0 1 0 1 0 0 3623.dat
1 84 110 -280 -10 0 0 -1 0 1 0 1 0 0 3623.dat
1 84 70 -280 -40 0 0 -1 0 1 0 1 0 0 3710.dat
1 84 -50 -280 -60 0 0 -1 0 1 0 1 0 0 3710.dat
1 84 50 -280 -60 0 0 -1 0 1 0 1 0 0 3710.dat
1 84 -30 -280 -70 0 0 -1 0 1 0 1 0 0 3623.dat
1 84 30 -280 -70 0 0 -1 0 1 0 1 0 0 3623.dat
1 84 -90 -280 -70 1 0 0 0 1 0 0 0 1 3024.dat
1 84 0 -280 -90 0 0 -1 0 1 0 1 0 0 3021.dat
1 84 90 -280 -70 1 0 0 0 1 0 0 0 1 3024.dat
0 STEP
1 84 0 -288 80 1 0 0 0 1 0 0 0 1 3020.dat
1 84 -70 -288 -0 0 0 -1 0 1 0 1 0 0 3460.dat
1 84 -50 -288 40 0 0 -1 0 1 0 1 0 0 3710.dat
1 84 60 -288 40 0 0 -1 0 1 0 1 0 0 3020.dat
1 84 -90 -288 -0 0 0 -1 0 1 0 1 0 0 3666.dat
1 84 0 -288 50 1 0 0 0 1 0 0 0 1 3710.dat
1 84 90 -288 -0 0 0 -1 0 1 0 1 0 0 3666.dat
1 84 -30 -288 30 1 0 0 0 1 0 0 0 1 3024.dat
1 84 30 -288 30 1 0 0 0 1 0 0 0 1 3024.dat
1 84 -110 -288 -10 0 0 -1 0 1 0 1 0 0 3623.dat
1 84 110 -288 -10 0 0 -1 0 1 0 1 0 0 3623.dat
1 84 70 -288 -40 0 0 -1 0 1 0 1 0 0 3710.dat
1 84 -50 -288 -60 0 0 -1 0 1 0 1 0 0 3710.dat
1 84 50 -288 -60 0 0 -1 0 1 0 1 0 0 3710.dat
1 84 -30 -288 -80 0 0 -1 0 1 0 1 0 0 3710.dat
1 84 30 -288 -80 0 0 -1 0 1 0 1 0 0 3710.dat
1 84 -90 -288 -70 1 0 0 0 1 0 0 0 1 3024.dat
1 84 0 -288 -90 0 0 -1 0 1 0 1 0 0 3021.dat
1 84 90 -288 -70 1 0 0 0 1 0 0 0 1 3024.dat
1 84 -70 -288 -90 1 0 0 0 1 0 0 0 1 3024.dat
1 84 70 -288 -90 1 0 0 0 1 0 0 0 1 3024.dat
0 STEP
1 84 0 -296 80 1 0 0 0 1 0 0 0 1 3795.dat
1 84 -70 -296 -0 0 0 -1 0 1 0 1 0 0 3460.dat
1 84 70 -296 -0 0 0 -1 0 1 0 1 0 0 3460.dat
1 84 -90 -296 -0 0 0 -1 0 1 0 1 0 0 3666.dat
1 84 0 -296 50 1 0 0 0 1 0 0 0 1 3666.dat
1 84 90 -296 -0 0 0 -1 0 1 0 1 0 0 3666.dat
1 84 -110 -296 -0 0 0 -1 0 1 0 1 0 0 3710.dat
1 84 -50 -296 30 1 0 0 0 1 0 0 0 1 3024.dat
1 84 50 -296 30 1 0 0 0 1 0 0 0 1 3024.dat
1 84 110 -296 -0 0 0 -1 0 1 0 1 0 0 3710.dat
1 84 -40 -296 -70 0 0 -1 0 1 0 1 0 0 3021.dat
1 84 40 -296 -70 0 0 -1 0 1 0 1 0 0 3021.dat
1 84 -90 -296 -70 1 0 0 0 1 0 0 0 1 3024.dat
1 84 0 -296 -80 1 0 0 0 1 0 0 0 1 3022.dat
1 84 90 -296 -70 1 0 0 0 1 0 0 0 1 3024.dat
1 84 -70 -296 -90 1 0 0 0 1 0 0 0 1 3024.dat
1 84 70 -296 -90 1 0 0 0 1 0 0 0 1 3024.dat
1 320 0 -296 -110 1 0 0 0 1 0 0 0 1 3710.dat
0 STEP
1 84 0 -304 80 1 0 0 0 1 0 0 0 1 3795.dat
1 84 -70 -304 -0 0 0 -1 0 1 0 1 0 0 3460.dat
1 84 70 -304 -0 0 0 -1 0 1 0 1 0 0 3460.dat
1 84 -90 -304 -0 0 0 -1 0 1 0 1 0 0 3666.dat
1 84 0 -304 50 1 0 0 0 1 0 0 0 1 3666.dat
1 84 90 -304 -0 0 0 -1 0 1 0 1 0 0 3666.dat
1 84 -110 -304 -0 0 0 -1 0 1 0 1 0 0 3710.dat
1 84 -50 -304 30 1 0 0 0 1 0 0 0 1 3024.dat
1 84 50 -304 30 1 0 0 0 1 0 0 0 1 3024.dat
1 84 110 -304 -0 0 0 -1 0 1 0 1 0 0 3710.dat
1 84 -110 -304 -50 1 0 0 0 1 0 0 0 1 3024.dat
1 84 -50 -304 -60 0 0 -1 0 1 0 1 0 0 3023.dat
1 84 50 -304 -60 0 0 -1 0 1 0 1 0 0 3023.dat
1 84 110 -304 -50 1 0 0 0 1 0 0 0 1 3024.dat
1 84 -90 -304 -70 1 0 0 0 1 0 0 0 1 3024.dat
1 84 0 -304 -80 1 0 0 0 1 0 0 0 1 3020.dat
1 84 90 -304 -70 1 0 0 0 1 0 0 0 1 3024.dat
1 84 -70 -304 -90 1 0 0 0 1 0 0 0 1 3024.dat
1 84 70 -304 -90 1 0 0 0 1 0 0 0 1 3024.dat
1 84 0 -304 -110 1 0 0 0 1 0 0 0 1 3710.dat
1 320 -50 -304 -90 1 0 0 0 1 0 0 0 1 3024.dat
1 320 50 -304 -90 1 0 0 0 1 0 0 0 1 3024.dat
0 STEP
1 71 0 -312 90 0 0 -1 0 1 0 1 0 0 3021.dat
1 71 -50 -312 80 1 0 0 0 1 0 0 0 1 3021.dat
1 71 50 -312 80 1 0 0 0 1 0 0 0 1 3021.dat
1 71 -90 -312 60 0 0 -1 0 1 0 1 0 0 3023.dat
1 71 90 -312 60 0 0 -1 0 1 0 1 0 0 3023.dat
1 71 -110 -312 50 1 0 0 0 1 0 0 0 1 3024.dat
1 71 -50 -312 50 1 0 0 0 1 0 0 0 1 3623.dat
1 71 50 -312 50 1 0 0 0 1 0 0 0 1 3623.dat
1 71 110 -312 50 1 0 0 0 1 0 0 0 1 3024.dat
1 84 -100 -312 -0 0 0 -1 0 1 0 1 0 0 3020.dat
1 84 -70 -312 -20 0 0 -1 0 1 0 1 0 0 3666.dat
1 84 -50 -312 30 1 0 0 0 1 0 0 0 1 3024.dat
1 84 80 -312 30 1 0 0 0 1 0 0 0 1 3710.dat
1 84 80 -312 -20 0 0 -1 0 1 0 1 0 0 3020.dat
1 84 110 -312 -20 0 0 -1 0 1 0 1 0 0 3710.dat
1 84 -100 -312 -50 1 0 0 0 1 0 0 0 1 3023.dat
1 84 -50 -312 -80 0 0 -1 0 1 0 1 0 0 3710.dat
1 84 50 -312 -80 0 0 -1 0 1 0 1 0 0 3710.dat
1 84 -90 -312 -70 1 0 0 0 1 0 0 0 1 3024.dat
1 84 0 -312 -80 1 0 0 0 1 0 0 0 1 3020.dat
1 84 80 -312 -70 1 0 0 0 1 0 0 0 1 3023.dat
1 84 -70 -312 -90 1 0 0 0 1 0 0 0 1 3024.dat
1 84 70 -312 -90 1 0 0 0 1 0 0 0 1 3024.dat
1 84 0 -312 -110 1 0 0 0 1 0 0 0 1 3710.dat
0 STEP
1 71 0 -320 100 1 0 0 0 1 0 0 0 1 3020.dat
1 71 -60 -320 70 0 0 -1 0 1 0 1 0 0 3021.dat
1 71 60 -320 70 0 0 -1 0 1 0 1 0 0 3021.dat
1 71 -90 -320 60 0 0 -1 0 1 0 1 0 0 3023.dat
1 71 0 -320 70 1 0 0 0 1 0 0 0 1 3710.dat
1 71 90 -320 60 0 0 -1 0 1 0 1 0 0 3023.dat
1 71 -110 -320 50 1 0 0 0 1 0 0 0 1 3024.dat
1 71 -30 -320 50 1 0 0 0 1 0 0 0 1 3024.dat
1 71 30 -320 50 1 0 0 0 1 0 0 0 1 3024.dat
1 71 110 -320 50 1 0 0 0 1 0 0 0 1 3024.dat
1 84 -100 -320 -0 0 0 -1 0 1 0 1 0 0 3020.dat
1 84 -60 -320 30 1 0 0 0 1 0 0 0 1 3023.dat
1 84 80 -320 30 1 0 0 0 1 0 0 0 1 3710.dat
1 84 -70 -320 10 1 0 0 0 1 0 0 0 1 3024.dat
1 84 90 -320 10 1 0 0 0 1 0 0 0 1 3623.dat
1 84 100 -320 -30 0 0 -1 0 1 0 1 0 0 3021.dat
1 84 -70 -320 -60 0 0 -1 0 1 0 1 0 0 3710.dat
1 84 70 -320 -60 0 0 -1 0 1 0 1 0 0 3710.dat
1 84 -100 -320 -50 1 0 0 0 1 0 0 0 1 3023.dat
1 84 -50 -320 -80 0 0 -1 0 1 0 1 0 0 3710.dat
1 84 50 -320 -80 0 0 -1 0 1 0 1 0 0 3710.dat
1 84 -90 -320 -70 1 0 0 0 1 0 0 0 1 3024.dat
1 84 0 -320 -80 1 0 0 0 1 0 0 0 1 3020.dat
1 84 90 -320 -70 1 0 0 0 1 0 0 0 1 3024.dat
1 84 0 -320 -110 1 0 0 0 1 0 0 0 1 3710.dat
1 320 -130 -320 -10 1 0 0 0 1 0 0 0 1 3070b.dat
1 320 130 -320 -10 1 0 0 0 1 0 0 0 1 3070b.dat
0 STEP
1 71 0 -328 100 1 0 0 0 1 0 0 0 1 3020.dat
1 71 -60 -328 70 0 0 -1 0 1 0 1 0 0 3021.dat
1 71 60 -328 70 0 0 -1 0 1 0 1 0 0 3021.dat
1 71 -90 -328 60 0 0 -1 0 1 0 1 0 0 3023.dat
1 71 0 -328 70 1 0 0 0 1 0 0 0 1 3710.dat
1 71 90 -328 60 0 0 -1 0 1 0 1 0 0 3023.dat
1 71 -110 -328 50 1 0 0 0 1 0 0 0 1 3024.dat
1 71 110 -328 50 1 0 0 0 1 0 0 0 1 3024.dat
1 84 -100 -328 -0 0 0 -1 0 1 0 1 0 0 3020.dat
1 84 -70 -328 30 1 0 0 0 1 0 0 0 1 3024.dat
1 84 90 -328 30 1 0 0 0 1 0 0 0 1 3623.dat
1 84 100 -328 -20 0 0 -1 0 1 0 1 0 0 3020.dat
1 84 -70 -328 -60 0 0 -1 0 1 0 1 0 0 3710.dat
1 84 70 -328 -60 0 0 -1 0 1 0 1 0 0 3710.dat
1 84 -100 -328 -50 1 0 0 0 1 0 0 0 1 3023.dat
1 84 -50 -328 -80 0 0 -1 0 1 0 1 0 0 3710.dat
1 84 50 -328 -80 0 0 -1 0 1 0 1 0 0 3710.dat
1 84 -90 -328 -70 1 0 0 0 1 0 0 0 1 3024.dat
1 84 -30 -328 -90 0 0 -1 0 1 0 1 0 0 3623.dat
1 84 30 -328 -90 0 0 -1 0 1 0 1 0 0 3623.dat
1 84 90 -328 -70 1 0 0 0 1 0 0 0 1 3024.dat
1 84 0 -328 -110 0 0 -1 0 1 0 1 0 0 3021.dat
0 STEP
1 71 0 -336 100 1 0 0 0 1 0 0 0 1 3020.dat
1 71 -60 -336 70 0 0 -1 0 1 0 1 0 0 3021.dat
1 71 60 -336 70 0 0 -1 0 1 0 1 0 0 3021.dat
1 71 -90 -336 60 0 0 -1 0 1 0 1 0 0 3023.dat
1 71 0 -336 70 1 0 0 0 1 0 0 0 1 3710.dat
1 71 90 -336 60 0 0 -1 0 1 0 1 0 0 3023.dat
1 71 -110 -336 50 1 0 0 0 1 0 0 0 1 3024.dat
1 71 110 -336 50 1 0 0 0 1 0 0 0 1 3024.dat
1 84 -100 -336 -0 0 0 -1 0 1 0 1 0 0 3020.dat
1 84 -70 -336 30 1 0 0 0 1 0 0 0 1 3024.dat
1 84 90 -336 30 1 0 0 0 1 0 0 0 1 3623.dat
1 84 100 -336 -20 0 0 -1 0 1 0 1 0 0 3020.dat
1 84 -70 -336 -60 0 0 -1 0 1 0 1 0 0 3710.dat
1 84 70 -336 -60 0 0 -1 0 1 0 1 0 0 3710.dat
1 84 -100 -336 -50 1 0 0 0 1 0 0 0 1 3023.dat
1 84 -50 -336 -80 0 0 -1 0 1 0 1 0 0 3710.dat
1 84 50 -336 -80 0 0 -1 0 1 0 1 0 0 3710.dat
1 84 -90 -336 -80 0 0 -1 0 1 0 1 0 0 3023.dat
1 84 -30 -336 -90 0 0 -1 0 1 0 1 0 0 3623.dat
1 84 30 -336 -90 0 0 -1 0 1 0 1 0 0 3623.dat
1 84 90 -336 -80 0 0 -1 0 1 0 1 0 0 3023.dat
1 84 0 -336 -110 0 0 -1 0 1 0 1 0 0 3021.dat
0 STEP
1 71 0 -344 100 1 0 0 0 1 0 0 0 1 3795.dat
1 71 -70 -344 70 0 0 -1 0 1 0 1 0 0 3623.dat
1 71 70 -344 70 0 0 -1 0 1 0 1 0 0 3623.dat
1 71 -90 -344 60 0 0 -1 0 1 0 1 0 0 3023.dat
1 71 0 -344 70 1 0 0 0 1 0 0 0 1 3666.dat
1 71 90 -344 60 0 0 -1 0 1 0 1 0 0 3023.dat
1 71 -110 -344 50 1 0 0 0 1 0 0 0 1 3024.dat
1 71 -50 -344 50 1 0 0 0 1 0 0 0 1 3024.dat
1 71 50 -344 50 1 0 0 0 1 0 0 0 1 3024.dat
1 71 110 -344 50 1 0 0 0 1 0 0 0 1 3024.dat
1 84 -100 -344 -0 0 0 -1 0 1 0 1 0 0 3020.dat
1 84 -70 -344 30 1 0 0 0 1 0 0 0 1 3024.dat
1 84 90 -344 30 1 0 0 0 1 0 0 0 1 3623.dat
1 84 -130 -344 -0 0 0 -1 0 1 0 1 0 0 3023.dat
1 84 100 -344 -20 0 0 -1 0 1 0 1 0 0 3020.dat
1 84 130 -344 -0 0 0 -1 0 1 0 1 0 0 3023.dat
1 84 -70 -344 -60 0 0 -1 0 1 0 1 0 0 3710.dat
1 84 70 -344 -60 0 0 -1 0 1 0 1 0 0 3710.dat
1 84 -100 -344 -50 1 0 0 0 1 0 0 0 1 3023.dat
1 84 -50 -344 -80 0 0 -1 0 1 0 1 0 0 3710.dat
1 84 50 -344 -80 0 0 -1 0 1 0 1 0 0 3710.dat
1 84 -90 -344 -80 0 0 -1 0 1 0 1 0 0 3023.dat
1 84 -30 -344 -90 0 0 -1 0 1 0 1 0 0 3623.dat
1 84 30 -344 -90 0 0 -1 0 1 0 1 0 0 3623.dat
1 84 90 -344 -80 0 0 -1 0 1 0 1 0 0 3023.dat
1 84 0 -344 -110 0 0 -1 0 1 0 1 0 0 3021.dat
0 STEP
1 71 0 -352 100 1 0 0 0 1 0 0 0 1 3795.dat
1 71 -70 -352 70 0 0 -1 0 1 0 1 0 0 3623.dat
1 71 70 -352 70 0 0 -1 0 1 0 1 0 0 3623.dat
1 71 -90 -352 60 0 0 -1 0 1 0 1 0 0 3023.dat
1 71 0 -352 70 1 0 0 0 1 0 0 0 1 3666.dat
1 71 90 -352 60 0 0 -1 0 1 0 1 0 0 3023.dat
1 71 -110 -352 50 1 0 0 0 1 0 0 0 1 3024.dat
1 71 -50 -352 50 1 0 0 0 1 0 0 0 1 3024.dat
1 71 50 -352 50 1 0 0 0 1 0 0 0 1 3024.dat
1 71 110 -352 50 1 0 0 0 1 0 0 0 1 3024.dat
1 84 -100 -352 -20 0 0 -1 0 1 0 1 0 0 3795.dat
1 84 -70 -352 30 1 0 0 0 1 0 0 0 1 3024.dat
1 84 90 -352 30 1 0 0 0 1 0 0 0 1 3623.dat
1 84 -130 -352 -0 0 0 -1 0 1 0 1 0 0 3023.dat
1 84 100 -352 -20 0 0 -1 0 1 0 1 0 0 3020.dat
1 84 130 -352 -0 0 0 -1 0 1 0 1 0 0 3023.dat
1 84 -70 -352 -60 0 0 -1 0 1 0 1 0 0 3710.dat
1 84 70 -352 -60 0 0 -1 0 1 0 1 0 0 3710.dat
1 84 -40 -352 -90 0 0 -1 0 1 0 1 0 0 3021.dat
1 84 40 -352 -90 0 0 -1 0 1 0 1 0 0 3021.dat
1 84 100 -352 -70 1 0 0 0 1 0 0 0 1 3023.dat
1 84 -90 -352 -90 1 0 0 0 1 0 0 0 1 3024.dat
1 84 0 -352 -110 0 0 -1 0 1 0 1 0 0 3021.dat
1 84 90 -352 -90 1 0 0 0 1 0 0 0 1 3024.dat
0 STEP
1 71 0 -360 100 1 0 0 0 1 0 0 0 1 3795.dat
1 71 -80 -360 70 0 0 -1 0 1 0 1 0 0 3021.dat
1 71 80 -360 70 0 0 -1 0 1 0 1 0 0 3021.dat
1 71 -110 -360 60 0 0 -1 0 1 0 1 0 0 3023.dat
1 71 -40 -360 70 1 0 0 0 1 0 0 0 1 3023.dat
1 71 40 -360 70 1 0 0 0 1 0 0 0 1 3023.dat
1 71 110 -360 60 0 0 -1 0 1 0 1 0 0 3023.dat
1 71 -50 -360 50 1 0 0 0 1 0 0 0 1 3024.dat
1 71 50 -360 50 1 0 0 0 1 0 0 0 1 3024.dat
1 84 -100 -360 -20 0 0 -1 0 1 0 1 0 0 3795.dat
1 84 -70 -360 30 1 0 0 0 1 0 0 0 1 3024.dat
1 84 90 -360 30 1 0 0 0 1 0 0 0 1 3623.dat
1 84 -130 -360 -0 0 0 -1 0 1 0 1 0 0 3023.dat
1 84 100 -360 -20 0 0 -1 0 1 0 1 0 0 3020.dat
1 84 130 -360 -0 0 0 -1 0 1 0 1 0 0 3023.dat
1 84 -70 -360 -60 0 0 -1 0 1 0 1 0 0 3710.dat
1 84 70 -360 -60 0 0 -1 0 1 0 1 0 0 3710.dat
1 84 -40 -360 -90 0 0 -1 0 1 0 1 0 0 3021.dat
1 84 40 -360 -90 0 0 -1 0 1 0 1 0 0 3021.dat
1 84 100 -360 -70 1 0 0 0 1 0 0 0 1 3023.dat
1 84 -90 -360 -90 1 0 0 0 1 0 0 0 1 3024.dat
1 84 0 -360 -100 1 0 0 0 1 0 0 0 1 3022.dat
1 84 90 -360 -90 1 0 0 0 1 0 0 0 1 3024.dat
1 84 0 -360 -130 1 0 0 0 1 0 0 0 1 3069b.dat
0 STEP
1 15 -70 -368 -90 1 0 0 0 1 0 0 0 1 3024.dat
1 15 70 -368 -90 1 0 0 0 1 0 0 0 1 3024.dat
1 15 -40 -368 -110 1 0 0 0 1 0 0 0 1 3023.dat
1 15 40 -368 -110 1 0 0 0 1 0 0 0 1 3023.dat
1 71 0 -368 100 1 0 0 0 1 0 0 0 1 3795.dat
1 71 -80 -368 70 0 0 -1 0 1 0 1 0 0 3021.dat
1 71 80 -368 70 0 0 -1 0 1 0 1 0 0 3021.dat
1 71 -110 -368 60 0 0 -1 0 1 0 1 0 0 3023.dat
1 71 -40 -368 70 1 0 0 0 1 0 0 0 1 3023.dat
1 71 40 -368 70 1 0 0 0 1 0 0 0 1 3023.dat
1 71 110 -368 60 0 0 -1 0 1 0 1 0 0 3023.dat
1 71 -50 -368 50 1 0 0 0 1 0 0 0 1 3024.dat
1 71 50 -368 50 1 0 0 0 1 0 0 0 1 3024.dat
1 72 -90 -368 -90 1 0 0 0 1 0 0 0 1 3024.dat
1 72 90 -368 -90 1 0 0 0 1 0 0 0 1 3024.dat
1 84 -100 -368 -20 0 0 -1 0 1 0 1 0 0 3795.dat
1 84 -70 -368 30 1 0 0 0 1 0 0 0 1 3024.dat
1 84 90 -368 30 1 0 0 0 1 0 0 0 1 3623.dat
1 84 -130 -368 -0 0 0 -1 0 1 0 1 0 0 3023.dat
1 84 100 -368 -20 0 0 -1 0 1 0 1 0 0 3020.dat
1 84 130 -368 -0 0 0 -1 0 1 0 1 0 0 3023.dat
1 84 -70 -368 -50 0 0 -1 0 1 0 1 0 0 3623.dat
1 84 70 -368 -50 0 0 -1 0 1 0 1 0 0 3623.dat
1 84 -40 -368 -80 1 0 0 0 1 0 0 0 1 3022.dat
1 84 40 -368 -80 1 0 0 0 1 0 0 0 1 3022.dat
1 84 100 -368 -70 1 0 0 0 1 0 0 0 1 3023.dat
1 84 0 -368 -100 1 0 0 0 1 0 0 0 1 3022.dat
0 STEP
1 15 -70 -376 -90 1 0 0 0 1 0 0 0 1 3024.dat
1 15 70 -376 -90 1 0 0 0 1 0 0 0 1 3024.dat
1 15 -40 -376 -110 1 0 0 0 1 0 0 0 1 3023.dat
1 15 40 -376 -110 1 0 0 0 1 0 0 0 1 3023.dat
1 71 0 -376 100 1 0 0 0 1 0 0 0 1 3795.dat
1 71 -80 -376 70 0 0 -1 0 1 0 1 0 0 3021.dat
1 71 80 -376 70 0 0 -1 0 1 0 1 0 0 3021.dat
1 71 -110 -376 60 0 0 -1 0 1 0 1 0 0 3023.dat
1 71 -40 -376 70 1 0 0 0 1 0 0 0 1 3023.dat
1 71 40 -376 70 1 0 0 0 1 0 0 0 1 3023.dat
1 71 110 -376 60 0 0 -1 0 1 0 1 0 0 3023.dat
1 72 -90 -376 -90 1 0 0 0 1 0 0 0 1 3024.dat
1 72 90 -376 -90 1 0 0 0 1 0 0 0 1 3024.dat
1 84 -100 -376 -0 0 0 -1 0 1 0 1 0 0 3020.dat
1 84 100 -376 -0 0 0 -1 0 1 0 1 0 0 3020.dat
1 84 -130 -376 -0 0 0 -1 0 1 0 1 0 0 3023.dat
1 84 130 -376 -0 0 0 -1 0 1 0 1 0 0 3023.dat
1 84 -70 -376 -50 0 0 -1 0 1 0 1 0 0 3623.dat
1 84 70 -376 -50 0 0 -1 0 1 0 1 0 0 3623.dat
1 84 -100 -376 -50 1 0 0 0 1 0 0 0 1 3023.dat
1 84 100 -376 -50 1 0 0 0 1 0 0 0 1 3023.dat
1 84 -90 -376 -70 1 0 0 0 1 0 0 0 1 3024.dat
1 84 -40 -376 -80 1 0 0 0 1 0 0 0 1 3022.dat
1 84 40 -376 -80 1 0 0 0 1 0 0 0 1 3022.dat
1 84 90 -376 -70 1 0 0 0 1 0 0 0 1 3024.dat
1 84 0 -376 -100 1 0 0 0 1 0 0 0 1 3022.dat
1 84 -110 -376 -70 1 0 0 0 1 0 0 0 1 3070b.dat
1 84 110 -376 -70 1 0 0 0 1 0 0 0 1 3070b.dat
0 STEP
1 0 -50 -384 -110 1 0 0 0 1 0 0 0 1 3024.dat
1 0 50 -384 -110 1 0 0 0 1 0 0 0 1 3024.dat
1 15 -70 -384 -90 1 0 0 0 1 0 0 0 1 3024.dat
1 15 70 -384 -90 1 0 0 0 1 0 0 0 1 3024.dat
1 15 -30 -384 -110 1 0 0 0 1 0 0 0 1 3024.dat
1 15 30 -384 -110 1 0 0 0 1 0 0 0 1 3024.dat
1 71 0 -384 100 1 0 0 0 1 0 0 0 1 3795.dat
1 71 -80 -384 70 0 0 -1 0 1 0 1 0 0 3021.dat
1 71 80 -384 70 0 0 -1 0 1 0 1 0 0 3021.dat
1 71 -110 -384 60 0 0 -1 0 1 0 1 0 0 3023.dat
1 71 -40 -384 70 1 0 0 0 1 0 0 0 1 3023.dat
1 71 40 -384 70 1 0 0 0 1 0 0 0 1 3023.dat
1 71 110 -384 60 0 0 -1 0 1 0 1 0 0 3023.dat
1 72 -90 -384 -90 1 0 0 0 1 0 0 0 1 3024.dat
1 72 90 -384 -90 1 0 0 0 1 0 0 0 1 3024.dat
1 84 -100 -384 -0 0 0 -1 0 1 0 1 0 0 3020.dat
1 84 100 -384 -0 0 0 -1 0 1 0 1 0 0 3020.dat
1 84 -130 -384 -0 0 0 -1 0 1 0 1 0 0 3023.dat
1 84 130 -384 -0 0 0 -1 0 1 0 1 0 0 3023.dat
1 84 -70 -384 -50 0 0 -1 0 1 0 1 0 0 3623.dat
1 84 70 -384 -50 0 0 -1 0 1 0 1 0 0 3623.dat
1 84 -100 -384 -50 1 0 0 0 1 0 0 0 1 3023.dat
1 84 -50 -384 -70 0 0 -1 0 1 0 1 0 0 3623.dat
1 84 50 -384 -70 0 0 -1 0 1 0 1 0 0 3623.dat
1 84 100 -384 -50 1 0 0 0 1 0 0 0 1 3023.dat
1 84 -90 -384 -70 1 0 0 0 1 0 0 0 1 3024.dat
1 84 -30 -384 -80 0 0 -1 0 1 0 1 0 0 3023.dat
1 84 30 -384 -80 0 0 -1 0 1 0 1 0 0 3023.dat
1 84 90 -384 -70 1 0 0 0 1 0 0 0 1 3024.dat
1 84 0 -384 -100 1 0 0 0 1 0 0 0 1 3022.dat
0 STEP
1 0 -50 -392 -110 1 0 0 0 1 0 0 0 1 3024.dat
1 0 50 -392 -110 1 0 0 0 1 0 0 0 1 3024.dat
1 15 -70 -392 -90 1 0 0 0 1 0 0 0 1 3024.dat
1 15 70 -392 -90 1 0 0 0 1 0 0 0 1 3024.dat
1 15 -30 -392 -110 1 0 0 0 1 0 0 0 1 3024.dat
1 15 30 -392 -110 1 0 0 0 1 0 0 0 1 3024.dat
1 71 0 -392 100 1 0 0 0 1 0 0 0 1 3795.dat
1 71 -80 -392 70 0 0 -1 0 1 0 1 0 0 3021.dat
1 71 80 -392 70 0 0 -1 0 1 0 1 0 0 3021.dat
1 71 -110 -392 60 0 0 -1 0 1 0 1 0 0 3023.dat
1 71 -40 -392 70 1 0 0 0 1 0 0 0 1 3023.dat
1 71 40 -392 70 1 0 0 0 1 0 0 0 1 3023.dat
1 71 110 -392 60 0 0 -1 0 1 0 1 0 0 3023.dat
1 71 -50 -392 50 1 0 0 0 1 0 0 0 1 3024.dat
1 71 50 -392 50 1 0 0 0 1 0 0 0 1 3024.dat
1 72 -110 -392 -50 1 0 0 0 1 0 0 0 1 3024.dat
1 72 110 -392 -50 1 0 0 0 1 0 0 0 1 3024.dat
1 72 -90 -392 -90 1 0 0 0 1 0 0 0 1 3070b.dat
1 72 90 -392 -90 1 0 0 0 1 0 0 0 1 3070b.dat
1 84 -100 -392 -0 0 0 -1 0 1 0 1 0 0 3020.dat
1 84 -70 -392 30 1 0 0 0 1 0 0 0 1 3024.dat
1 84 90 -392 30 1 0 0 0 1 0 0 0 1 3623.dat
1 84 100 -392 -10 0 0 -1 0 1 0 1 0 0 3021.dat
1 84 -70 -392 -50 0 0 -1 0 1 0 1 0 0 3623.dat
1 84 70 -392 -50 0 0 -1 0 1 0 1 0 0 3623.dat
1 84 -90 -392 -60 0 0 -1 0 1 0 1 0 0 3023.dat
1 84 -50 -392 -70 0 0 -1 0 1 0 1 0 0 3623.dat
1 84 50 -392 -70 0 0 -1 0 1 0 1 0 0 3623.dat
1 84 90 -392 -60 0 0 -1 0 1 0 1 0 0 3023.dat
1 84 -30 -392 -80 0 0 -1 0 1 0 1 0 0 3023.dat
1 84 30 -392 -80 0 0 -1 0 1 0 1 0 0 3023.dat
1 84 0 -392 -100 1 0 0 0 1 0 0 0 1 3022.dat
1 84 -130 -392 -0 0 0 -1 0 1 0 1 0 0 3069b.dat
1 84 130 -392 -0 0 0 -1 0 1 0 1 0 0 3069b.dat
0 STEP
1 15 -70 -400 -90 1 0 0 0 1 0 0 0 1 3024.dat
1 15 70 -400 -90 1 0 0 0 1 0 0 0 1 3024.dat
1 15 -40 -400 -110 1 0 0 0 1 0 0 0 1 3023.dat
1 15 40 -400 -110 1 0 0 0 1 0 0 0 1 3023.dat
1 71 0 -400 100 1 0 0 0 1 0 0 0 1 3795.dat
1 71 -80 -400 70 0 0 -1 0 1 0 1 0 0 3021.dat
1 71 80 -400 70 0 0 -1 0 1 0 1 0 0 3021.dat
1 71 -110 -400 60 0 0 -1 0 1 0 1 0 0 3023.dat
1 71 -40 -400 70 1 0 0 0 1 0 0 0 1 3023.dat
1 71 40 -400 70 1 0 0 0 1 0 0 0 1 3023.dat
1 71 110 -400 60 0 0 -1 0 1 0 1 0 0 3023.dat
1 71 -50 -400 50 1 0 0 0 1 0 0 0 1 3024.dat
1 71 50 -400 50 1 0 0 0 1 0 0 0 1 3024.dat
1 72 -90 -400 -70 1 0 0 0 1 0 0 0 1 3024.dat
1 72 90 -400 -70 1 0 0 0 1 0 0 0 1 3024.dat
1 72 0 -400 -110 1 0 0 0 1 0 0 0 1 3023.dat
1 84 -100 -400 -0 0 0 -1 0 1 0 1 0 0 3020.dat
1 84 -70 -400 30 1 0 0 0 1 0 0 0 1 3024.dat
1 84 90 -400 30 1 0 0 0 1 0 0 0 1 3623.dat
1 84 100 -400 -20 0 0 -1 0 1 0 1 0 0 3020.dat
1 84 -70 -400 -50 0 0 -1 0 1 0 1 0 0 3623.dat
1 84 70 -400 -50 0 0 -1 0 1 0 1 0 0 3623.dat
1 84 -100 -400 -50 1 0 0 0 1 0 0 0 1 3023.dat
1 84 -50 -400 -70 0 0 -1 0 1 0 1 0 0 3623.dat
1 84 50 -400 -70 0 0 -1 0 1 0 1 0 0 3623.dat
1 84 0 -400 -80 1 0 0 0 1 0 0 0 1 3020.dat
0 STEP
1 71 0 -408 100 1 0 0 0 1 0 0 0 1 3795.dat
1 71 -70 -408 70 0 0 -1 0 1 0 1 0 0 3623.dat
1 71 70 -408 70 0 0 -1 0 1 0 1 0 0 3623.dat
1 71 -90 -408 60 0 0 -1 0 1 0 1 0 0 3023.dat
1 71 0 -408 70 1 0 0 0 1 0 0 0 1 3666.dat
1 71 90 -408 60 0 0 -1 0 1 0 1 0 0 3023.dat
1 71 -110 -408 20 0 0 -1 0 1 0 1 0 0 3710.dat
1 71 -50 -408 50 1 0 0 0 1 0 0 0 1 3024.dat
1 71 50 -408 50 1 0 0 0 1 0 0 0 1 3024.dat
1 71 110 -408 20 0 0 -1 0 1 0 1 0 0 3710.dat
1 71 -130 -408 -0 0 0 -1 0 1 0 1 0 0 3710.dat
1 71 130 -408 -0 0 0 -1 0 1 0 1 0 0 3710.dat
1 71 -110 -408 -30 1 0 0 0 1 0 0 0 1 3024.dat
1 71 110 -408 -30 1 0 0 0 1 0 0 0 1 3024.dat
1 72 -90 -408 -70 1 0 0 0 1 0 0 0 1 3024.dat
1 72 90 -408 -70 1 0 0 0 1 0 0 0 1 3024.dat
1 72 -70 -408 -90 1 0 0 0 1 0 0 0 1 3024.dat
1 72 70 -408 -90 1 0 0 0 1 0 0 0 1 3024.dat
1 72 -30 -408 -110 1 0 0 0 1 0 0 0 1 3024.dat
1 72 30 -408 -110 1 0 0 0 1 0 0 0 1 3024.dat
1 72 -50 -408 -110 1 0 0 0 1 0 0 0 1 3070b.dat
1 72 50 -408 -110 1 0 0 0 1 0 0 0 1 3070b.dat
1 84 -90 -408 -0 0 0 -1 0 1 0 1 0 0 3710.dat
1 84 -70 -408 30 1 0 0 0 1 0 0 0 1 3024.dat
1 84 80 -408 30 1 0 0 0 1 0 0 0 1 3023.dat
1 84 90 -408 -20 0 0 -1 0 1 0 1 0 0 3710.dat
1 84 -70 -408 -50 0 0 -1 0 1 0 1 0 0 3623.dat
1 84 70 -408 -50 0 0 -1 0 1 0 1 0 0 3623.dat
1 84 -100 -408 -50 1 0 0 0 1 0 0 0 1 3023.dat
1 84 -50 -408 -70 0 0 -1 0 1 0 1 0 0 3623.dat
1 84 50 -408 -70 0 0 -1 0 1 0 1 0 0 3623.dat
1 84 110 -408 -50 1 0 0 0 1 0 0 0 1 3024.dat
1 84 -30 -408 -80 0 0 -1 0 1 0 1 0 0 3023.dat
1 84 30 -408 -80 0 0 -1 0 1 0 1 0 0 3023.dat
1 84 0 -408 -100 1 0 0 0 1 0 0 0 1 3022.dat
0 STEP
1 71 0 -416 100 1 0 0 0 1 0 0 0 1 3795.dat
1 71 -70 -416 70 0 0 -1 0 1 0 1 0 0 3623.dat
1 71 70 -416 70 0 0 -1 0 1 0 1 0 0 3623.dat
1 71 -90 -416 60 0 0 -1 0 1 0 1 0 0 3023.dat
1 71 0 -416 70 1 0 0 0 1 0 0 0 1 3666.dat
1 71 90 -416 60 0 0 -1 0 1 0 1 0 0 3023.dat
1 71 -110 -416 20 0 0 -1 0 1 0 1 0 0 3710.dat
1 71 -50 -416 50 1 0 0 0 1 0 0 0 1 3024.dat
1 71 50 -416 50 1 0 0 0 1 0 0 0 1 3024.dat
1 71 110 -416 20 0 0 -1 0 1 0 1 0 0 3710.dat
1 71 -130 -416 -10 0 0 -1 0 1 0 1 0 0 3623.dat
1 71 130 -416 -10 0 0 -1 0 1 0 1 0 0 3623.dat
1 71 -110 -416 -30 1 0 0 0 1 0 0 0 1 3024.dat
1 71 110 -416 -30 1 0 0 0 1 0 0 0 1 3024.dat
1 84 -90 -416 -20 0 0 -1 0 1 0 1 0 0 3666.dat
1 84 -70 -416 30 1 0 0 0 1 0 0 0 1 3024.dat
1 84 80 -416 30 1 0 0 0 1 0 0 0 1 3023.dat
1 84 90 -416 -20 0 0 -1 0 1 0 1 0 0 3710.dat
1 84 -70 -416 -60 0 0 -1 0 1 0 1 0 0 3710.dat
1 84 70 -416 -60 0 0 -1 0 1 0 1 0 0 3710.dat
1 84 -110 -416 -50 1 0 0 0 1 0 0 0 1 3024.dat
1 84 -50 -416 -70 0 0 -1 0 1 0 1 0 0 3623.dat
1 84 50 -416 -70 0 0 -1 0 1 0 1 0 0 3623.dat
1 84 110 -416 -50 1 0 0 0 1 0 0 0 1 3024.dat
1 84 0 -416 -80 1 0 0 0 1 0 0 0 1 3020.dat
1 84 90 -416 -70 1 0 0 0 1 0 0 0 1 3024.dat
1 84 0 -416 -110 1 0 0 0 1 0 0 0 1 3710.dat
0 STEP
1 71 0 -424 100 1 0 0 0 1 0 0 0 1 3020.dat
1 71 -60 -424 70 0 0 -1 0 1 0 1 0 0 3021.dat
1 71 60 -424 70 0 0 -1 0 1 0 1 0 0 3021.dat
1 71 -90 -424 60 0 0 -1 0 1 0 1 0 0 3023.dat
1 71 0 -424 70 1 0 0 0 1 0 0 0 1 3710.dat
1 71 90 -424 60 0 0 -1 0 1 0 1 0 0 3023.dat
1 71 -110 -424 20 0 0 -1 0 1 0 1 0 0 3710.dat
1 71 110 -424 20 0 0 -1 0 1 0 1 0 0 3710.dat
1 71 -130 -424 -0 0 0 -1 0 1 0 1 0 0 3023.dat
1 71 130 -424 -0 0 0 -1 0 1 0 1 0 0 3023.dat
1 71 -110 -424 -30 1 0 0 0 1 0 0 0 1 3024.dat
1 71 110 -424 -30 1 0 0 0 1 0 0 0 1 3024.dat
1 71 -60 -424 -110 1 0 0 0 1 0 0 0 1 3023.dat
1 71 60 -424 -110 1 0 0 0 1 0 0 0 1 3023.dat
1 71 -30 -424 -130 1 0 0 0 1 0 0 0 1 3024.dat
1 71 30 -424 -130 1 0 0 0 1 0 0 0 1 3024.dat
1 84 -90 -424 -20 0 0 -1 0 1 0 1 0 0 3666.dat
1 84 -70 -424 30 1 0 0 0 1 0 0 0 1 3024.dat
1 84 80 -424 30 1 0 0 0 1 0 0 0 1 3023.dat
1 84 90 -424 -20 0 0 -1 0 1 0 1 0 0 3710.dat
1 84 -70 -424 -60 0 0 -1 0 1 0 1 0 0 3710.dat
1 84 70 -424 -60 0 0 -1 0 1 0 1 0 0 3710.dat
1 84 -110 -424 -50 1 0 0 0 1 0 0 0 1 3024.dat
1 84 -50 -424 -70 0 0 -1 0 1 0 1 0 0 3623.dat
1 84 50 -424 -70 0 0 -1 0 1 0 1 0 0 3623.dat
1 84 110 -424 -50 1 0 0 0 1 0 0 0 1 3024.dat
1 84 0 -424 -80 1 0 0 0 1 0 0 0 1 3020.dat
1 84 90 -424 -70 1 0 0 0 1 0 0 0 1 3024.dat
1 84 0 -424 -110 1 0 0 0 1 0 0 0 1 3710.dat
0 STEP
1 71 0 -432 100 1 0 0 0 1 0 0 0 1 3020.dat
1 71 -60 -432 70 0 0 -1 0 1 0 1 0 0 3021.dat
1 71 60 -432 70 0 0 -1 0 1 0 1 0 0 3021.dat
1 71 -90 -432 60 0 0 -1 0 1 0 1 0 0 3023.dat
1 71 0 -432 70 1 0 0 0 1 0 0 0 1 3710.dat
1 71 90 -432 60 0 0 -1 0 1 0 1 0 0 3023.dat
1 71 -110 -432 -0 0 0 -1 0 1 0 1 0 0 3666.dat
1 71 110 -432 -0 0 0 -1 0 1 0 1 0 0 3666.dat
1 71 -130 -432 -10 1 0 0 0 1 0 0 0 1 3024.dat
1 71 130 -432 -10 1 0 0 0 1 0 0 0 1 3024.dat
1 84 -90 -432 -20 0 0 -1 0 1 0 1 0 0 3666.dat
1 84 -70 -432 30 1 0 0 0 1 0 0 0 1 3024.dat
1 84 80 -432 30 1 0 0 0 1 0 0 0 1 3023.dat
1 84 90 -432 -20 0 0 -1 0 1 0 1 0 0 3710.dat
1 84 -70 -432 -60 0 0 -1 0 1 0 1 0 0 3710.dat
1 84 70 -432 -60 0 0 -1 0 1 0 1 0 0 3710.dat
1 84 -40 -432 -70 0 0 -1 0 1 0 1 0 0 3021.dat
1 84 40 -432 -70 0 0 -1 0 1 0 1 0 0 3021.dat
1 84 0 -432 -90 0 0 -1 0 1 0 1 0 0 3021.dat
1 84 90 -432 -70 1 0 0 0 1 0 0 0 1 3024.dat
1 84 -30 -432 -110 1 0 0 0 1 0 0 0 1 3070b.dat
1 84 30 -432 -110 1 0 0 0 1 0 0 0 1 3070b.dat
0 STEP
1 71 0 -440 100 1 0 0 0 1 0 0 0 1 3020.dat
1 71 -60 -440 70 0 0 -1 0 1 0 1 0 0 3021.dat
1 71 60 -440 70 0 0 -1 0 1 0 1 0 0 3021.dat
1 71 -90 -440 60 0 0 -1 0 1 0 1 0 0 3023.dat
1 71 0 -440 70 1 0 0 0 1 0 0 0 1 3710.dat
1 71 90 -440 60 0 0 -1 0 1 0 1 0 0 3023.dat
1 71 -110 -440 -0 0 0 -1 0 1 0 1 0 0 3666.dat
1 71 -30 -440 50 1 0 0 0 1 0 0 0 1 3024.dat
1 71 30 -440 50 1 0 0 0 1 0 0 0 1 3024.dat
1 71 110 -440 -0 0 0 -1 0 1 0 1 0 0 3666.dat
1 84 -90 -440 -20 0 0 -1 0 1 0 1 0 0 3666.dat
1 84 -70 -440 20 0 0 -1 0 1 0 1 0 0 3023.dat
1 84 80 -440 20 1 0 0 0 1 0 0 0 1 3022.dat
1 84 90 -440 -40 0 0 -1 0 1 0 1 0 0 3710.dat
1 84 -70 -440 -50 0 0 -1 0 1 0 1 0 0 3623.dat
1 84 70 -440 -50 0 0 -1 0 1 0 1 0 0 3623.dat
1 84 -40 -440 -70 0 0 -1 0 1 0 1 0 0 3021.dat
1 84 40 -440 -70 0 0 -1 0 1 0 1 0 0 3021.dat
1 84 0 -440 -80 1 0 0 0 1 0 0 0 1 3022.dat
1 84 -70 -440 -90 1 0 0 0 1 0 0 0 1 3070b.dat
1 84 70 -440 -90 1 0 0 0 1 0 0 0 1 3070b.dat
1 84 0 -440 -110 1 0 0 0 1 0 0 0 1 3069b.dat
0 STEP
1 71 0 -448 90 0 0 -1 0 1 0 1 0 0 3021.dat
1 71 -50 -448 80 1 0 0 0 1 0 0 0 1 3021.dat
1 71 50 -448 80 1 0 0 0 1 0 0 0 1 3021.dat
1 71 -90 -448 -0 0 0 -1 0 1 0 1 0 0 3460.dat
1 71 90 -448 -0 0 0 -1 0 1 0 1 0 0 3460.dat
1 71 -110 -448 -0 0 0 -1 0 1 0 1 0 0 3666.dat
1 71 -50 -448 50 1 0 0 0 1 0 0 0 1 3623.dat
1 71 50 -448 50 1 0 0 0 1 0 0 0 1 3623.dat
1 71 110 -448 -0 0 0 -1 0 1 0 1 0 0 3666.dat
1 84 -70 -448 -20 0 0 -1 0 1 0 1 0 0 3666.dat
1 84 -50 -448 30 1 0 0 0 1 0 0 0 1 3024.dat
1 84 60 -448 30 1 0 0 0 1 0 0 0 1 3023.dat
1 84 70 -448 -20 0 0 -1 0 1 0 1 0 0 3710.dat
1 84 0 -448 -60 1 0 0 0 1 0 0 0 1 3795.dat
1 84 70 -448 -70 1 0 0 0 1 0 0 0 1 3024.dat
1 84 0 -448 -90 1 0 0 0 1 0 0 0 1 3666.dat
0 STEP
1 71 0 -456 100 0 0 -1 0 1 0 1 0 0 3020.dat
1 71 -30 -456 80 0 0 -1 0 1 0 1 0 0 3710.dat
1 71 30 -456 80 0 0 -1 0 1 0 1 0 0 3710.dat
1 71 -50 -456 70 0 0 -1 0 1 0 1 0 0 3623.dat
1 71 50 -456 70 0 0 -1 0 1 0 1 0 0 3623.dat
1 71 -90 -456 -0 0 0 -1 0 1 0 1 0 0 3460.dat
1 71 -70 -456 60 0 0 -1 0 1 0 1 0 0 3023.dat
1 71 80 -456 60 1 0 0 0 1 0 0 0 1 3022.dat
1 71 -110 -456 -0 0 0 -1 0 1 0 1 0 0 3710.dat
1 71 100 -456 -0 0 0 -1 0 1 0 1 0 0 3020.dat
1 71 -110 -456 -50 1 0 0 0 1 0 0 0 1 3024.dat
1 71 100 -456 -50 1 0 0 0 1 0 0 0 1 3023.dat
1 71 90 -456 -70 1 0 0 0 1 0 0 0 1 3024.dat
1 84 -70 -456 -20 0 0 -1 0 1 0 1 0 0 3666.dat
1 84 -50 -456 30 1 0 0 0 1 0 0 0 1 3024.dat
1 84 60 -456 30 1 0 0 0 1 0 0 0 1 3023.dat
1 84 70 -456 -20 0 0 -1 0 1 0 1 0 0 3710.dat
1 84 -50 -456 -50 0 0 -1 0 1 0 1 0 0 3623.dat
1 84 50 -456 -50 0 0 -1 0 1 0 1 0 0 3623.dat
1 84 -30 -456 -70 0 0 -1 0 1 0 1 0 0 3623.dat
1 84 30 -456 -70 0 0 -1 0 1 0 1 0 0 3623.dat
1 84 0 -456 -80 1 0 0 0 1 0 0 0 1 3022.dat
1 84 70 -456 -70 1 0 0 0 1 0 0 0 1 3024.dat
1 84 -50 -456 -90 1 0 0 0 1 0 0 0 1 3070b.dat
1 84 50 -456 -90 1 0 0 0 1 0 0 0 1 3070b.dat
0 STEP
1 71 0 -464 100 0 0 -1 0 1 0 1 0 0 3795.dat
1 71 -30 -464 100 0 0 -1 0 1 0 1 0 0 3710.dat
1 71 30 -464 100 0 0 -1 0 1 0 1 0 0 3710.dat
1 71 -50 -464 70 0 0 -1 0 1 0 1 0 0 3623.dat
1 71 50 -464 70 0 0 -1 0 1 0 1 0 0 3623.dat
1 71 -70 -464 -0 0 0 -1 0 1 0 1 0 0 3460.dat
1 71 70 -464 -0 0 0 -1 0 1 0 1 0 0 3460.dat
1 71 -90 -464 -0 0 0 -1 0 1 0 1 0 0 3666.dat
1 71 -30 -464 50 1 0 0 0 1 0 0 0 1 3024.dat
1 71 30 -464 50 1 0 0 0 1 0 0 0 1 3024.dat
1 71 90 -464 -0 0 0 -1 0 1 0 1 0 0 3666.dat
1 71 -110 -464 -0 0 0 -1 0 1 0 1 0 0 3710.dat
1 71 110 -464 -0 0 0 -1 0 1 0 1 0 0 3710.dat
1 71 -90 -464 -70 1 0 0 0 1 0 0 0 1 3024.dat
1 71 90 -464 -70 1 0 0 0 1 0 0 0 1 3024.dat
1 71 -70 -464 -90 1 0 0 0 1 0 0 0 1 3024.dat
1 71 70 -464 -90 1 0 0 0 1 0 0 0 1 3024.dat
1 84 -50 -464 30 1 0 0 0 1 0 0 0 1 3024.dat
1 84 50 -464 30 1 0 0 0 1 0 0 0 1 3024.dat
1 84 -50 -464 -50 0 0 -1 0 1 0 1 0 0 3623.dat
1 84 50 -464 -50 0 0 -1 0 1 0 1 0 0 3623.dat
1 84 0 -464 -60 1 0 0 0 1 0 0 0 1 3020.dat
1 84 0 -464 -90 1 0 0 0 1 0 0 0 1 3710.dat
0 STEP
1 71 0 -472 100 0 0 -1 0 1 0 1 0 0 3795.dat
1 71 -30 -472 80 0 0 -1 0 1 0 1 0 0 3666.dat
1 71 30 -472 80 0 0 -1 0 1 0 1 0 0 3666.dat
1 71 -50 -472 60 0 0 -1 0 1 0 1 0 0 3710.dat
1 71 50 -472 60 0 0 -1 0 1 0 1 0 0 3710.dat
1 71 -70 -472 -0 0 0 -1 0 1 0 1 0 0 3460.dat
1 71 70 -472 -0 0 0 -1 0 1 0 1 0 0 3460.dat
1 71 -90 -472 -0 0 0 -1 0 1 0 1 0 0 3666.dat
1 71 90 -472 -0 0 0 -1 0 1 0 1 0 0 3666.dat
1 71 -110 -472 -10 0 0 -1 0 1 0 1 0 0 3623.dat
1 71 -50 -472 10 1 0 0 0 1 0 0 0 1 3024.dat
1 71 50 -472 10 1 0 0 0 1 0 0 0 1 3024.dat
1 71 110 -472 -10 0 0 -1 0 1 0 1 0 0 3623.dat
1 71 -50 -472 -60 0 0 -1 0 1 0 1 0 0 3710.dat
1 71 50 -472 -60 0 0 -1 0 1 0 1 0 0 3710.dat
1 71 -30 -472 -70 0 0 -1 0 1 0 1 0 0 3623.dat
1 71 30 -472 -70 0 0 -1 0 1 0 1 0 0 3623.dat
1 84 0 -472 -70 0 0 -1 0 1 0 1 0 0 3021.dat
0 STEP
1 71 0 -480 100 0 0 -1 0 1 0 1 0 0 3032.dat
1 71 -50 -480 110 1 0 0 0 1 0 0 0 1 3024.dat
1 71 50 -480 110 1 0 0 0 1 0 0 0 1 3024.dat
1 71 -60 -480 -0 0 0 -1 0 1 0 1 0 0 3034.dat
1 71 60 -480 -0 0 0 -1 0 1 0 1 0 0 3034.dat
1 71 -90 -480 -0 0 0 -1 0 1 0 1 0 0 3666.dat
1 71 90 -480 -0 0 0 -1 0 1 0 1 0 0 3666.dat
1 71 -30 -480 30 1 0 0 0 1 0 0 0 1 3024.dat
1 71 30 -480 30 1 0 0 0 1 0 0 0 1 3024.dat
1 71 -110 -480 -10 1 0 0 0 1 0 0 0 1 3024.dat
1 71 110 -480 -10 1 0 0 0 1 0 0 0 1 3024.dat
1 71 -30 -480 -60 0 0 -1 0 1 0 1 0 0 3710.dat
1 71 30 -480 -60 0 0 -1 0 1 0 1 0 0 3710.dat
1 71 0 -480 -70 0 0 -1 0 1 0 1 0 0 3021.dat
1 71 -50 -480 -90 1 0 0 0 1 0 0 0 1 3024.dat
1 71 50 -480 -90 1 0 0 0 1 0 0 0 1 3024.dat
0 STEP
1 71 0 -488 100 0 0 -1 0 1 0 1 0 0 3032.dat
1 71 -50 -488 120 0 0 -1 0 1 0 1 0 0 3023.dat
1 71 50 -488 120 0 0 -1 0 1 0 1 0 0 3023.dat
1 71 -50 -488 -0 0 0 -1 0 1 0 1 0 0 3460.dat
1 71 50 -488 -0 0 0 -1 0 1 0 1 0 0 3460.dat
1 71 -70 -488 -0 0 0 -1 0 1 0 1 0 0 3666.dat
1 71 70 -488 -0 0 0 -1 0 1 0 1 0 0 3666.dat
1 71 -90 -488 -0 0 0 -1 0 1 0 1 0 0 3710.dat
1 71 0 -488 30 1 0 0 0 1 0 0 0 1 3710.dat
1 71 90 -488 -0 0 0 -1 0 1 0 1 0 0 3710.dat
1 71 -30 -488 -60 0 0 -1 0 1 0 1 0 0 3710.dat
1 71 30 -488 -60 0 0 -1 0 1 0 1 0 0 3710.dat
1 71 -90 -488 -50 1 0 0 0 1 0 0 0 1 3024.dat
1 71 0 -488 -70 0 0 -1 0 1 0 1 0 0 3021.dat
1 71 90 -488 -50 1 0 0 0 1 0 0 0 1 3024.dat
1 71 -70 -488 -70 1 0 0 0 1 0 0 0 1 3024.dat
1 71 70 -488 -70 1 0 0 0 1 0 0 0 1 3024.dat
0 STEP
1 71 0 -496 100 0 0 -1 0 1 0 1 0 0 3032.dat
1 71 -50 -496 120 0 0 -1 0 1 0 1 0 0 3023.dat
1 71 50 -496 120 0 0 -1 0 1 0 1 0 0 3023.dat
1 71 -50 -496 -0 0 0 -1 0 1 0 1 0 0 3460.dat
1 71 50 -496 -0 0 0 -1 0 1 0 1 0 0 3460.dat
1 71 -70 -496 -0 0 0 -1 0 1 0 1 0 0 3666.dat
1 71 70 -496 -0 0 0 -1 0 1 0 1 0 0 3666.dat
1 71 -90 -496 -0 0 0 -1 0 1 0 1 0 0 3710.dat
1 71 -30 -496 -20 0 0 -1 0 1 0 1 0 0 3666.dat
1 71 10 -496 30 1 0 0 0 1 0 0 0 1 3623.dat
1 71 90 -496 -0 0 0 -1 0 1 0 1 0 0 3710.dat
1 71 30 -496 -40 0 0 -1 0 1 0 1 0 0 3666.dat
1 71 0 -496 -60 0 0 -1 0 1 0 1 0 0 3020.dat
1 71 -30 -496 -90 1 0 0 0 1 0 0 0 1 3024.dat
0 STEP
1 71 0 -504 80 0 0 -1 0 1 0 1 0 0 3035.dat
1 71 -50 -504 120 0 0 -1 0 1 0 1 0 0 3023.dat
1 71 50 -504 120 0 0 -1 0 1 0 1 0 0 3023.dat
1 71 -60 -504 -0 0 0 -1 0 1 0 1 0 0 3795.dat
1 71 60 -504 -0 0 0 -1 0 1 0 1 0 0 3795.dat
1 71 -90 -504 -0 0 0 -1 0 1 0 1 0 0 3023.dat
1 71 90 -504 -0 0 0 -1 0 1 0 1 0 0 3023.dat
1 71 -30 -504 -40 0 0 -1 0 1 0 1 0 0 3710.dat
1 71 30 -504 -40 0 0 -1 0 1 0 1 0 0 3710.dat
1 71 0 -504 -50 0 0 -1 0 1 0 1 0 0 3021.dat
1 71 -50 -504 -70 1 0 0 0 1 0 0 0 1 3024.dat
1 71 50 -504 -70 1 0 0 0 1 0 0 0 1 3024.dat
0 STEP
1 71 0 -512 120 1 0 0 0 1 0 0 0 1 3031.dat
1 71 -50 -512 110 1 0 0 0 1 0 0 0 1 3024.dat
1 71 50 -512 110 1 0 0 0 1 0 0 0 1 3024.dat
1 71 0 -512 -0 0 0 -1 0 1 0 1 0 0 3034.dat
1 71 -40 -512 -0 0 0 -1 0 1 0 1 0 0 3795.dat
1 71 40 -512 -0 0 0 -1 0 1 0 1 0 0 3795.dat
1 71 -70 -512 -0 0 0 -1 0 1 0 1 0 0 3710.dat
1 71 70 -512 -0 0 0 -1 0 1 0 1 0 0 3710.dat
1 71 -30 -512 -70 1 0 0 0 1 0 0 0 1 3024.dat
1 71 30 -512 -70 1 0 0 0 1 0 0 0 1 3024.dat
0 STEP
1 71 0 -520 120 0 0 -1 0 1 0 1 0 0 3020.dat
1 71 -30 -520 110 0 0 -1 0 1 0 1 0 0 3623.dat
1 71 30 -520 110 0 0 -1 0 1 0 1 0 0 3623.dat
1 71 0 -520 -0 0 0 -1 0 1 0 1 0 0 3032.dat
1 71 -50 -520 -0 0 0 -1 0 1 0 1 0 0 3710.dat
1 71 50 -520 -0 0 0 -1 0 1 0 1 0 0 3710.dat
1 71 -70 -520 -10 0 0 -1 0 1 0 1 0 0 3623.dat
1 71 70 -520 -10 0 0 -1 0 1 0 1 0 0 3623.dat
1 71 -50 -520 -50 1 0 0 0 1 0 0 0 1 3024.dat
1 71 50 -520 -50 1 0 0 0 1 0 0 0 1 3024.dat
1 71 0 -520 -70 1 0 0 0 1 0 0 0 1 3023.dat
0 STEP
1 71 0 -528 120 0 0 -1 0 1 0 1 0 0 3020.dat
1 71 -30 -528 120 0 0 -1 0 1 0 1 0 0 3023.dat
1 71 30 -528 120 0 0 -1 0 1 0 1 0 0 3023.dat
1 71 0 -528 -0 0 0 -1 0 1 0 1 0 0 3795.dat
1 71 -40 -528 -0 0 0 -1 0 1 0 1 0 0 3020.dat
1 71 40 -528 -0 0 0 -1 0 1 0 1 0 0 3020.dat
1 71 -30 -528 -50 1 0 0 0 1 0 0 0 1 3024.dat
1 71 30 -528 -50 1 0 0 0 1 0 0 0 1 3024.dat
0 STEP
1 71 0 -536 120 1 0 0 0 1 0 0 0 1 3022.dat
1 71 -30 -536 110 1 0 0 0 1 0 0 0 1 3024.dat
1 71 30 -536 110 1 0 0 0 1 0 0 0 1 3024.dat
1 71 0 -536 -0 1 0 0 0 1 0 0 0 1 3031.dat
1 71 -50 -536 -10 1 0 0 0 1 0 0 0 1 3024.dat
1 71 50 -536 -10 1 0 0 0 1 0 0 0 1 3024.dat
0 STEP
