0 Professor Pi
0 Name: pi.ldr
0 Author: aitutors.me brick-built faculty
0 !LICENSE Model: see repository licence; part geometry LDraw.org CC BY 4.0
0 // units: LDU, -y up
0 // 1477 parts, one step per plate layer

1 72 -120 -8 80 1 0 0 0 1 0 0 0 1 3029.dat
1 72 120 -8 80 1 0 0 0 1 0 0 0 1 3029.dat
1 72 -120 -8 -0 1 0 0 0 1 0 0 0 1 3029.dat
1 72 120 -8 -0 1 0 0 0 1 0 0 0 1 3029.dat
1 72 -120 -8 -80 1 0 0 0 1 0 0 0 1 3029.dat
1 72 120 -8 -80 1 0 0 0 1 0 0 0 1 3029.dat
1 72 -120 -8 -140 1 0 0 0 1 0 0 0 1 2445.dat
1 72 120 -8 -140 1 0 0 0 1 0 0 0 1 2445.dat
0 STEP
1 72 -120 -16 80 1 0 0 0 1 0 0 0 1 3029.dat
1 72 120 -16 80 1 0 0 0 1 0 0 0 1 3029.dat
1 72 -120 -16 -0 1 0 0 0 1 0 0 0 1 3029.dat
1 72 120 -16 -0 1 0 0 0 1 0 0 0 1 3029.dat
1 72 -120 -16 -80 1 0 0 0 1 0 0 0 1 3029.dat
1 72 120 -16 -80 1 0 0 0 1 0 0 0 1 3029.dat
1 72 -120 -16 -140 1 0 0 0 1 0 0 0 1 2445.dat
1 72 120 -16 -140 1 0 0 0 1 0 0 0 1 2445.dat
0 STEP
1 72 0 -24 80 1 0 0 0 1 0 0 0 1 3832.dat
1 72 -160 -24 -0 0 0 -1 0 1 0 1 0 0 3034.dat
1 72 -120 -24 60 1 0 0 0 1 0 0 0 1 3022.dat
1 72 140 -24 60 1 0 0 0 1 0 0 0 1 3020.dat
1 72 -80 -24 50 1 0 0 0 1 0 0 0 1 3023.dat
1 72 80 -24 50 1 0 0 0 1 0 0 0 1 3023.dat
1 72 160 -24 -20 0 0 -1 0 1 0 1 0 0 3795.dat
1 72 -100 -24 -60 1 0 0 0 1 0 0 0 1 3020.dat
1 72 100 -24 -60 1 0 0 0 1 0 0 0 1 3020.dat
1 72 0 -24 -80 1 0 0 0 1 0 0 0 1 3795.dat
1 72 -80 -24 -90 1 0 0 0 1 0 0 0 1 3023.dat
1 72 80 -24 -90 1 0 0 0 1 0 0 0 1 3023.dat
1 72 -160 -24 110 1 0 0 0 1 0 0 0 1 4162.dat
1 72 0 -24 110 1 0 0 0 1 0 0 0 1 4162.dat
1 72 160 -24 110 1 0 0 0 1 0 0 0 1 4162.dat
1 72 -230 -24 20 0 0 -1 0 1 0 1 0 0 4162.dat
1 72 -210 -24 20 0 0 -1 0 1 0 1 0 0 4162.dat
1 72 -190 -24 20 0 0 -1 0 1 0 1 0 0 4162.dat
1 72 -140 -24 90 1 0 0 0 1 0 0 0 1 2431.dat
1 72 160 -24 90 1 0 0 0 1 0 0 0 1 6636.dat
1 72 230 -24 20 0 0 -1 0 1 0 1 0 0 4162.dat
1 72 190 -24 -0 0 0 -1 0 1 0 1 0 0 4162.dat
1 72 210 -24 -0 0 0 -1 0 1 0 1 0 0 4162.dat
1 72 -230 -24 -100 0 0 -1 0 1 0 1 0 0 2431.dat
1 72 -210 -24 -100 0 0 -1 0 1 0 1 0 0 2431.dat
1 72 -190 -24 -100 0 0 -1 0 1 0 1 0 0 2431.dat
1 72 230 -24 -100 0 0 -1 0 1 0 1 0 0 2431.dat
1 72 -140 -24 -90 1 0 0 0 1 0 0 0 1 2431.dat
1 72 160 -24 -90 1 0 0 0 1 0 0 0 1 6636.dat
1 72 -100 -24 -110 1 0 0 0 1 0 0 0 1 4162.dat
1 72 60 -24 -110 1 0 0 0 1 0 0 0 1 4162.dat
1 72 180 -24 -110 1 0 0 0 1 0 0 0 1 2431.dat
1 72 -100 -24 -130 1 0 0 0 1 0 0 0 1 4162.dat
1 72 60 -24 -130 1 0 0 0 1 0 0 0 1 4162.dat
1 72 180 -24 -130 1 0 0 0 1 0 0 0 1 2431.dat
1 72 -160 -24 -150 1 0 0 0 1 0 0 0 1 4162.dat
1 72 0 -24 -150 1 0 0 0 1 0 0 0 1 4162.dat
1 72 160 -24 -150 1 0 0 0 1 0 0 0 1 4162.dat
0 STEP
1 2 0 -32 80 1 0 0 0 1 0 0 0 1 3832.dat
1 2 -160 -32 -0 0 0 -1 0 1 0 1 0 0 3034.dat
1 2 -120 -32 60 1 0 0 0 1 0 0 0 1 3022.dat
1 2 140 -32 60 1 0 0 0 1 0 0 0 1 3020.dat
1 2 -80 -32 50 1 0 0 0 1 0 0 0 1 3023.dat
1 2 80 -32 50 1 0 0 0 1 0 0 0 1 3023.dat
1 2 160 -32 -20 0 0 -1 0 1 0 1 0 0 3795.dat
1 2 -100 -32 -60 1 0 0 0 1 0 0 0 1 3020.dat
1 2 100 -32 -60 1 0 0 0 1 0 0 0 1 3020.dat
1 2 0 -32 -80 1 0 0 0 1 0 0 0 1 3795.dat
1 2 -80 -32 -90 1 0 0 0 1 0 0 0 1 3023.dat
1 2 80 -32 -90 1 0 0 0 1 0 0 0 1 3023.dat
0 STEP
1 2 0 -40 80 1 0 0 0 1 0 0 0 1 3832.dat
1 2 -160 -40 -0 0 0 -1 0 1 0 1 0 0 3034.dat
1 2 -120 -40 60 1 0 0 0 1 0 0 0 1 3022.dat
1 2 140 -40 60 1 0 0 0 1 0 0 0 1 3020.dat
1 2 -80 -40 50 1 0 0 0 1 0 0 0 1 3023.dat
1 2 80 -40 50 1 0 0 0 1 0 0 0 1 3023.dat
1 2 160 -40 -20 0 0 -1 0 1 0 1 0 0 3795.dat
1 2 -190 -40 -20 0 0 -1 0 1 0 1 0 0 3023.dat
1 2 190 -40 -20 0 0 -1 0 1 0 1 0 0 3023.dat
1 2 -100 -40 -60 1 0 0 0 1 0 0 0 1 3020.dat
1 2 100 -40 -60 1 0 0 0 1 0 0 0 1 3020.dat
1 2 0 -40 -80 1 0 0 0 1 0 0 0 1 3795.dat
1 2 -80 -40 -90 1 0 0 0 1 0 0 0 1 3023.dat
1 2 80 -40 -90 1 0 0 0 1 0 0 0 1 3023.dat
0 STEP
1 2 0 -48 80 1 0 0 0 1 0 0 0 1 3832.dat
1 2 -160 -48 -0 0 0 -1 0 1 0 1 0 0 3034.dat
1 2 -120 -48 60 1 0 0 0 1 0 0 0 1 3022.dat
1 2 140 -48 60 1 0 0 0 1 0 0 0 1 3020.dat
1 2 -80 -48 50 1 0 0 0 1 0 0 0 1 3023.dat
1 2 80 -48 50 1 0 0 0 1 0 0 0 1 3023.dat
1 2 160 -48 -20 0 0 -1 0 1 0 1 0 0 3795.dat
1 2 -190 -48 -20 0 0 -1 0 1 0 1 0 0 3023.dat
1 2 190 -48 -20 0 0 -1 0 1 0 1 0 0 3023.dat
1 2 -100 -48 -60 1 0 0 0 1 0 0 0 1 3020.dat
1 2 100 -48 -60 1 0 0 0 1 0 0 0 1 3020.dat
1 2 0 -48 -80 1 0 0 0 1 0 0 0 1 3795.dat
1 2 -80 -48 -90 1 0 0 0 1 0 0 0 1 3023.dat
1 2 80 -48 -90 1 0 0 0 1 0 0 0 1 3023.dat
0 STEP
1 2 0 -56 80 1 0 0 0 1 0 0 0 1 3832.dat
1 2 -160 -56 -0 0 0 -1 0 1 0 1 0 0 3034.dat
1 2 -120 -56 60 1 0 0 0 1 0 0 0 1 3022.dat
1 2 140 -56 60 1 0 0 0 1 0 0 0 1 3020.dat
1 2 -80 -56 50 1 0 0 0 1 0 0 0 1 3023.dat
1 2 80 -56 50 1 0 0 0 1 0 0 0 1 3023.dat
1 2 160 -56 -20 0 0 -1 0 1 0 1 0 0 3795.dat
1 2 -190 -56 -20 0 0 -1 0 1 0 1 0 0 3710.dat
1 2 190 -56 -20 0 0 -1 0 1 0 1 0 0 3710.dat
1 2 -210 -56 -10 1 0 0 0 1 0 0 0 1 3024.dat
1 2 210 -56 -10 1 0 0 0 1 0 0 0 1 3024.dat
1 2 -100 -56 -60 1 0 0 0 1 0 0 0 1 3020.dat
1 2 100 -56 -60 1 0 0 0 1 0 0 0 1 3020.dat
1 2 0 -56 -80 1 0 0 0 1 0 0 0 1 3795.dat
1 2 -80 -56 -90 1 0 0 0 1 0 0 0 1 3023.dat
1 2 80 -56 -90 1 0 0 0 1 0 0 0 1 3023.dat
0 STEP
1 2 0 -64 80 1 0 0 0 1 0 0 0 1 3832.dat
1 2 -160 -64 -0 0 0 -1 0 1 0 1 0 0 3034.dat
1 2 -120 -64 60 1 0 0 0 1 0 0 0 1 3022.dat
1 2 140 -64 60 1 0 0 0 1 0 0 0 1 3020.dat
1 2 -80 -64 50 1 0 0 0 1 0 0 0 1 3023.dat
1 2 80 -64 50 1 0 0 0 1 0 0 0 1 3023.dat
1 2 160 -64 -20 0 0 -1 0 1 0 1 0 0 3795.dat
1 2 -190 -64 -20 0 0 -1 0 1 0 1 0 0 3710.dat
1 2 190 -64 -20 0 0 -1 0 1 0 1 0 0 3710.dat
1 2 -210 -64 -20 0 0 -1 0 1 0 1 0 0 3023.dat
1 2 210 -64 -20 0 0 -1 0 1 0 1 0 0 3023.dat
1 2 -100 -64 -60 1 0 0 0 1 0 0 0 1 3020.dat
1 2 100 -64 -60 1 0 0 0 1 0 0 0 1 3020.dat
1 2 0 -64 -80 1 0 0 0 1 0 0 0 1 3795.dat
1 2 -100 -64 -90 1 0 0 0 1 0 0 0 1 3710.dat
1 2 100 -64 -90 1 0 0 0 1 0 0 0 1 3710.dat
0 STEP
1 2 0 -72 80 1 0 0 0 1 0 0 0 1 3832.dat
1 2 -160 -72 -0 0 0 -1 0 1 0 1 0 0 3034.dat
1 2 -120 -72 60 1 0 0 0 1 0 0 0 1 3022.dat
1 2 140 -72 60 1 0 0 0 1 0 0 0 1 3020.dat
1 2 -80 -72 50 1 0 0 0 1 0 0 0 1 3023.dat
1 2 80 -72 50 1 0 0 0 1 0 0 0 1 3023.dat
1 2 160 -72 -20 0 0 -1 0 1 0 1 0 0 3795.dat
1 2 -190 -72 -20 0 0 -1 0 1 0 1 0 0 3710.dat
1 2 190 -72 -20 0 0 -1 0 1 0 1 0 0 3710.dat
1 2 -210 -72 -20 0 0 -1 0 1 0 1 0 0 3023.dat
1 2 210 -72 -20 0 0 -1 0 1 0 1 0 0 3023.dat
1 2 -100 -72 -60 1 0 0 0 1 0 0 0 1 3020.dat
1 2 100 -72 -60 1 0 0 0 1 0 0 0 1 3020.dat
1 2 0 -72 -80 1 0 0 0 1 0 0 0 1 3795.dat
1 2 -120 -72 -90 1 0 0 0 1 0 0 0 1 3710.dat
1 2 -70 -72 -100 0 0 -1 0 1 0 1 0 0 3023.dat
1 2 90 -72 -100 1 0 0 0 1 0 0 0 1 3021.dat
1 2 140 -72 -90 1 0 0 0 1 0 0 0 1 3023.dat
1 2 -100 -72 -110 1 0 0 0 1 0 0 0 1 3023.dat
0 STEP
1 2 0 -80 80 1 0 0 0 1 0 0 0 1 3832.dat
1 2 -160 -80 -0 0 0 -1 0 1 0 1 0 0 3034.dat
1 2 -120 -80 60 1 0 0 0 1 0 0 0 1 3022.dat
1 2 140 -80 60 1 0 0 0 1 0 0 0 1 3020.dat
1 2 -80 -80 50 1 0 0 0 1 0 0 0 1 3023.dat
1 2 80 -80 50 1 0 0 0 1 0 0 0 1 3023.dat
1 2 160 -80 -20 0 0 -1 0 1 0 1 0 0 3795.dat
1 2 -190 -80 -20 0 0 -1 0 1 0 1 0 0 3710.dat
1 2 190 -80 -20 0 0 -1 0 1 0 1 0 0 3710.dat
1 2 -210 -80 -20 0 0 -1 0 1 0 1 0 0 3023.dat
1 2 210 -80 -20 0 0 -1 0 1 0 1 0 0 3023.dat
1 2 -120 -80 -80 0 0 -1 0 1 0 1 0 0 3020.dat
1 2 120 -80 -80 0 0 -1 0 1 0 1 0 0 3020.dat
1 2 0 -80 -80 1 0 0 0 1 0 0 0 1 3832.dat
1 2 -150 -80 -90 1 0 0 0 1 0 0 0 1 3024.dat
1 2 150 -80 -90 1 0 0 0 1 0 0 0 1 3024.dat
1 2 -80 -80 -120 1 0 0 0 1 0 0 0 1 3022.dat
1 2 80 -80 -120 1 0 0 0 1 0 0 0 1 3022.dat
0 STEP
1 2 0 -88 80 1 0 0 0 1 0 0 0 1 3832.dat
1 2 -160 -88 -0 0 0 -1 0 1 0 1 0 0 3034.dat
1 2 -120 -88 60 1 0 0 0 1 0 0 0 1 3022.dat
1 2 140 -88 60 1 0 0 0 1 0 0 0 1 3020.dat
1 2 -80 -88 50 1 0 0 0 1 0 0 0 1 3023.dat
1 2 80 -88 50 1 0 0 0 1 0 0 0 1 3023.dat
1 2 160 -88 -20 0 0 -1 0 1 0 1 0 0 3795.dat
1 2 -190 -88 -20 0 0 -1 0 1 0 1 0 0 3710.dat
1 2 190 -88 -20 0 0 -1 0 1 0 1 0 0 3710.dat
1 2 -210 -88 -20 0 0 -1 0 1 0 1 0 0 3023.dat
1 2 210 -88 -20 0 0 -1 0 1 0 1 0 0 3023.dat
1 2 -130 -88 -80 0 0 -1 0 1 0 1 0 0 3710.dat
1 2 130 -88 -80 0 0 -1 0 1 0 1 0 0 3710.dat
1 2 0 -88 -80 1 0 0 0 1 0 0 0 1 2445.dat
1 2 -150 -88 -90 1 0 0 0 1 0 0 0 1 3024.dat
1 2 150 -88 -90 1 0 0 0 1 0 0 0 1 3024.dat
1 2 -80 -88 -120 1 0 0 0 1 0 0 0 1 3020.dat
1 2 80 -88 -120 1 0 0 0 1 0 0 0 1 3020.dat
1 2 -70 -88 -150 1 0 0 0 1 0 0 0 1 3024.dat
1 2 70 -88 -150 1 0 0 0 1 0 0 0 1 3024.dat
1 15 0 -88 -140 0 0 -1 0 1 0 1 0 0 3020.dat
1 15 -30 -88 -150 0 0 -1 0 1 0 1 0 0 3623.dat
1 15 30 -88 -150 0 0 -1 0 1 0 1 0 0 3623.dat
0 STEP
1 2 0 -96 80 1 0 0 0 1 0 0 0 1 3832.dat
1 2 -160 -96 -0 0 0 -1 0 1 0 1 0 0 3034.dat
1 2 -120 -96 60 1 0 0 0 1 0 0 0 1 3022.dat
1 2 140 -96 60 1 0 0 0 1 0 0 0 1 3020.dat
1 2 -80 -96 50 1 0 0 0 1 0 0 0 1 3023.dat
1 2 80 -96 50 1 0 0 0 1 0 0 0 1 3023.dat
1 2 160 -96 -20 0 0 -1 0 1 0 1 0 0 3795.dat
1 2 -200 -96 -10 0 0 -1 0 1 0 1 0 0 3021.dat
1 2 200 -96 -10 0 0 -1 0 1 0 1 0 0 3021.dat
1 2 -190 -96 -50 1 0 0 0 1 0 0 0 1 3024.dat
1 2 -120 -96 -80 0 0 -1 0 1 0 1 0 0 3020.dat
1 2 120 -96 -80 0 0 -1 0 1 0 1 0 0 3020.dat
1 2 190 -96 -50 1 0 0 0 1 0 0 0 1 3024.dat
1 2 0 -96 -80 1 0 0 0 1 0 0 0 1 3832.dat
1 2 -150 -96 -90 1 0 0 0 1 0 0 0 1 3024.dat
1 2 150 -96 -90 1 0 0 0 1 0 0 0 1 3024.dat
1 2 -70 -96 -110 1 0 0 0 1 0 0 0 1 3623.dat
1 2 70 -96 -110 1 0 0 0 1 0 0 0 1 3623.dat
1 2 -100 -96 -130 1 0 0 0 1 0 0 0 1 3023.dat
1 2 100 -96 -130 1 0 0 0 1 0 0 0 1 3023.dat
1 2 -80 -96 -150 1 0 0 0 1 0 0 0 1 3023.dat
1 2 80 -96 -150 1 0 0 0 1 0 0 0 1 3023.dat
1 15 0 -96 -140 0 0 -1 0 1 0 1 0 0 3020.dat
1 15 -30 -96 -150 0 0 -1 0 1 0 1 0 0 3623.dat
1 15 30 -96 -150 0 0 -1 0 1 0 1 0 0 3623.dat
1 70 -60 -96 -130 1 0 0 0 1 0 0 0 1 3023.dat
1 70 60 -96 -130 1 0 0 0 1 0 0 0 1 3023.dat
1 70 -50 -96 -150 1 0 0 0 1 0 0 0 1 3024.dat
1 70 50 -96 -150 1 0 0 0 1 0 0 0 1 3024.dat
0 STEP
1 2 0 -104 80 1 0 0 0 1 0 0 0 1 3832.dat
1 2 -160 -104 -0 0 0 -1 0 1 0 1 0 0 3034.dat
1 2 -120 -104 60 1 0 0 0 1 0 0 0 1 3022.dat
1 2 140 -104 60 1 0 0 0 1 0 0 0 1 3020.dat
1 2 -80 -104 50 1 0 0 0 1 0 0 0 1 3023.dat
1 2 80 -104 50 1 0 0 0 1 0 0 0 1 3023.dat
1 2 160 -104 -20 0 0 -1 0 1 0 1 0 0 3795.dat
1 2 -200 -104 -10 0 0 -1 0 1 0 1 0 0 3021.dat
1 2 200 -104 -10 0 0 -1 0 1 0 1 0 0 3021.dat
1 2 -190 -104 -50 1 0 0 0 1 0 0 0 1 3024.dat
1 2 -120 -104 -80 0 0 -1 0 1 0 1 0 0 3020.dat
1 2 120 -104 -80 0 0 -1 0 1 0 1 0 0 3020.dat
1 2 190 -104 -50 1 0 0 0 1 0 0 0 1 3024.dat
1 2 -60 -104 -80 1 0 0 0 1 0 0 0 1 3020.dat
1 2 60 -104 -80 1 0 0 0 1 0 0 0 1 3020.dat
1 2 -70 -104 -110 1 0 0 0 1 0 0 0 1 3623.dat
1 2 70 -104 -110 1 0 0 0 1 0 0 0 1 3623.dat
1 2 -100 -104 -130 1 0 0 0 1 0 0 0 1 3023.dat
1 2 100 -104 -130 1 0 0 0 1 0 0 0 1 3023.dat
1 2 -90 -104 -150 1 0 0 0 1 0 0 0 1 3024.dat
1 2 90 -104 -150 1 0 0 0 1 0 0 0 1 3024.dat
1 2 -150 -104 -90 1 0 0 0 1 0 0 0 1 3070b.dat
1 2 150 -104 -90 1 0 0 0 1 0 0 0 1 3070b.dat
1 15 10 -104 -120 0 0 -1 0 1 0 1 0 0 3666.dat
1 15 -10 -104 -140 0 0 -1 0 1 0 1 0 0 3710.dat
1 15 -30 -104 -150 0 0 -1 0 1 0 1 0 0 3623.dat
1 15 50 -104 -140 1 0 0 0 1 0 0 0 1 3021.dat
1 15 30 -104 -170 1 0 0 0 1 0 0 0 1 3024.dat
1 70 -60 -104 -140 1 0 0 0 1 0 0 0 1 3022.dat
1 272 -10 -104 -80 0 0 -1 0 1 0 1 0 0 3023.dat
0 STEP
1 2 0 -112 80 1 0 0 0 1 0 0 0 1 3832.dat
1 2 -160 -112 -0 0 0 -1 0 1 0 1 0 0 3034.dat
1 2 -120 -112 60 1 0 0 0 1 0 0 0 1 3022.dat
1 2 140 -112 60 1 0 0 0 1 0 0 0 1 3020.dat
1 2 -80 -112 50 1 0 0 0 1 0 0 0 1 3023.dat
1 2 80 -112 50 1 0 0 0 1 0 0 0 1 3023.dat
1 2 160 -112 -20 0 0 -1 0 1 0 1 0 0 3795.dat
1 2 -200 -112 -10 0 0 -1 0 1 0 1 0 0 3021.dat
1 2 200 -112 -10 0 0 -1 0 1 0 1 0 0 3021.dat
1 2 -190 -112 -50 1 0 0 0 1 0 0 0 1 3024.dat
1 2 -120 -112 -70 0 0 -1 0 1 0 1 0 0 3021.dat
1 2 120 -112 -70 0 0 -1 0 1 0 1 0 0 3021.dat
1 2 190 -112 -50 1 0 0 0 1 0 0 0 1 3024.dat
1 2 -60 -112 -80 1 0 0 0 1 0 0 0 1 3020.dat
1 2 60 -112 -80 1 0 0 0 1 0 0 0 1 3020.dat
1 2 -100 -112 -120 1 0 0 0 1 0 0 0 1 3022.dat
1 2 -70 -112 -110 1 0 0 0 1 0 0 0 1 3024.dat
1 2 90 -112 -110 1 0 0 0 1 0 0 0 1 3623.dat
1 2 100 -112 -130 1 0 0 0 1 0 0 0 1 3023.dat
1 2 -90 -112 -150 1 0 0 0 1 0 0 0 1 3024.dat
1 2 90 -112 -150 1 0 0 0 1 0 0 0 1 3024.dat
1 2 -130 -112 -110 1 0 0 0 1 0 0 0 1 3070b.dat
1 2 130 -112 -110 1 0 0 0 1 0 0 0 1 3070b.dat
1 15 -10 -112 -120 0 0 -1 0 1 0 1 0 0 3666.dat
1 15 10 -112 -140 0 0 -1 0 1 0 1 0 0 3710.dat
1 15 -30 -112 -150 0 0 -1 0 1 0 1 0 0 3623.dat
1 15 30 -112 -150 0 0 -1 0 1 0 1 0 0 3623.dat
1 15 70 -112 -140 0 0 -1 0 1 0 1 0 0 3023.dat
1 70 -50 -112 -130 0 0 -1 0 1 0 1 0 0 3623.dat
1 70 50 -112 -130 0 0 -1 0 1 0 1 0 0 3623.dat
1 70 -70 -112 -140 0 0 -1 0 1 0 1 0 0 3023.dat
1 272 10 -112 -80 0 0 -1 0 1 0 1 0 0 3023.dat
0 STEP
1 2 0 -120 80 1 0 0 0 1 0 0 0 1 3832.dat
1 2 -160 -120 -0 0 0 -1 0 1 0 1 0 0 3034.dat
1 2 -120 -120 60 1 0 0 0 1 0 0 0 1 3022.dat
1 2 140 -120 60 1 0 0 0 1 0 0 0 1 3020.dat
1 2 -80 -120 50 1 0 0 0 1 0 0 0 1 3023.dat
1 2 80 -120 50 1 0 0 0 1 0 0 0 1 3023.dat
1 2 -190 -120 -0 0 0 -1 0 1 0 1 0 0 3710.dat
1 2 160 -120 -20 0 0 -1 0 1 0 1 0 0 3795.dat
1 2 190 -120 -0 0 0 -1 0 1 0 1 0 0 3710.dat
1 2 -210 -120 -10 0 0 -1 0 1 0 1 0 0 3623.dat
1 2 210 -120 -10 0 0 -1 0 1 0 1 0 0 3623.dat
1 2 -110 -120 -60 1 0 0 0 1 0 0 0 1 3021.dat
1 2 100 -120 -80 0 0 -1 0 1 0 1 0 0 3020.dat
1 2 130 -120 -70 0 0 -1 0 1 0 1 0 0 3623.dat
1 2 -50 -120 -80 1 0 0 0 1 0 0 0 1 3021.dat
1 2 50 -120 -80 1 0 0 0 1 0 0 0 1 3021.dat
1 2 -110 -120 -90 1 0 0 0 1 0 0 0 1 3623.dat
1 2 -100 -120 -110 1 0 0 0 1 0 0 0 1 3023.dat
1 2 -90 -120 -140 0 0 -1 0 1 0 1 0 0 3023.dat
1 2 90 -120 -140 0 0 -1 0 1 0 1 0 0 3023.dat
1 2 -190 -120 -50 1 0 0 0 1 0 0 0 1 3070b.dat
1 2 190 -120 -50 1 0 0 0 1 0 0 0 1 3070b.dat
1 2 -110 -120 -130 1 0 0 0 1 0 0 0 1 3070b.dat
1 2 110 -120 -130 1 0 0 0 1 0 0 0 1 3070b.dat
1 15 -10 -120 -120 0 0 -1 0 1 0 1 0 0 3666.dat
1 15 10 -120 -140 0 0 -1 0 1 0 1 0 0 3710.dat
1 15 -30 -120 -150 0 0 -1 0 1 0 1 0 0 3623.dat
1 15 30 -120 -150 0 0 -1 0 1 0 1 0 0 3623.dat
1 15 70 -120 -140 0 0 -1 0 1 0 1 0 0 3023.dat
1 70 -60 -120 -130 0 0 -1 0 1 0 1 0 0 3021.dat
1 70 50 -120 -130 0 0 -1 0 1 0 1 0 0 3623.dat
1 70 70 -120 -110 1 0 0 0 1 0 0 0 1 3024.dat
1 272 10 -120 -80 0 0 -1 0 1 0 1 0 0 3023.dat
0 STEP
1 2 0 -128 80 1 0 0 0 1 0 0 0 1 3832.dat
1 2 -160 -128 -0 0 0 -1 0 1 0 1 0 0 3034.dat
1 2 -120 -128 60 1 0 0 0 1 0 0 0 1 3022.dat
1 2 140 -128 60 1 0 0 0 1 0 0 0 1 3020.dat
1 2 -80 -128 50 1 0 0 0 1 0 0 0 1 3023.dat
1 2 80 -128 50 1 0 0 0 1 0 0 0 1 3023.dat
1 2 -190 -128 -0 0 0 -1 0 1 0 1 0 0 3710.dat
1 2 160 -128 -20 0 0 -1 0 1 0 1 0 0 3795.dat
1 2 190 -128 -0 0 0 -1 0 1 0 1 0 0 3710.dat
1 2 -210 -128 -10 0 0 -1 0 1 0 1 0 0 3623.dat
1 2 210 -128 -10 0 0 -1 0 1 0 1 0 0 3623.dat
1 2 -100 -128 -60 1 0 0 0 1 0 0 0 1 3020.dat
1 2 100 -128 -60 1 0 0 0 1 0 0 0 1 3020.dat
1 2 -40 -128 -80 1 0 0 0 1 0 0 0 1 3022.dat
1 2 40 -128 -80 1 0 0 0 1 0 0 0 1 3022.dat
1 2 -90 -128 -90 1 0 0 0 1 0 0 0 1 3623.dat
1 2 80 -128 -100 1 0 0 0 1 0 0 0 1 3022.dat
1 2 110 -128 -90 1 0 0 0 1 0 0 0 1 3024.dat
1 2 -80 -128 -110 1 0 0 0 1 0 0 0 1 3023.dat
1 2 -90 -128 -130 1 0 0 0 1 0 0 0 1 3024.dat
1 2 90 -128 -130 1 0 0 0 1 0 0 0 1 3024.dat
1 2 -130 -128 -90 1 0 0 0 1 0 0 0 1 3070b.dat
1 2 130 -128 -90 1 0 0 0 1 0 0 0 1 3070b.dat
1 2 -110 -128 -110 1 0 0 0 1 0 0 0 1 3070b.dat
1 2 110 -128 -110 1 0 0 0 1 0 0 0 1 3070b.dat
1 2 -90 -128 -150 1 0 0 0 1 0 0 0 1 3070b.dat
1 2 90 -128 -150 1 0 0 0 1 0 0 0 1 3070b.dat
1 15 10 -128 -120 0 0 -1 0 1 0 1 0 0 3666.dat
1 15 -10 -128 -140 0 0 -1 0 1 0 1 0 0 3710.dat
1 15 -30 -128 -150 0 0 -1 0 1 0 1 0 0 3623.dat
1 15 30 -128 -150 0 0 -1 0 1 0 1 0 0 3623.dat
1 15 70 -128 -140 0 0 -1 0 1 0 1 0 0 3023.dat
1 70 -50 -128 -130 0 0 -1 0 1 0 1 0 0 3623.dat
1 70 50 -128 -130 0 0 -1 0 1 0 1 0 0 3623.dat
1 70 -70 -128 -140 0 0 -1 0 1 0 1 0 0 3023.dat
1 272 -10 -128 -80 0 0 -1 0 1 0 1 0 0 3023.dat
0 STEP
1 2 0 -136 80 1 0 0 0 1 0 0 0 1 3832.dat
1 2 -160 -136 -0 0 0 -1 0 1 0 1 0 0 3034.dat
1 2 -120 -136 60 1 0 0 0 1 0 0 0 1 3022.dat
1 2 140 -136 60 1 0 0 0 1 0 0 0 1 3020.dat
1 2 -80 -136 50 1 0 0 0 1 0 0 0 1 3023.dat
1 2 80 -136 50 1 0 0 0 1 0 0 0 1 3023.dat
1 2 -190 -136 -0 0 0 -1 0 1 0 1 0 0 3710.dat
1 2 -130 -136 30 1 0 0 0 1 0 0 0 1 3024.dat
1 2 160 -136 30 1 0 0 0 1 0 0 0 1 3710.dat
1 2 -210 -136 -10 0 0 -1 0 1 0 1 0 0 3623.dat
1 2 180 -136 -0 1 0 0 0 1 0 0 0 1 3020.dat
1 2 -130 -136 -50 0 0 -1 0 1 0 1 0 0 3623.dat
1 2 150 -136 -40 1 0 0 0 1 0 0 0 1 3021.dat
1 2 200 -136 -30 1 0 0 0 1 0 0 0 1 3023.dat
1 2 -90 -136 -60 1 0 0 0 1 0 0 0 1 3021.dat
1 2 80 -136 -80 0 0 -1 0 1 0 1 0 0 3020.dat
1 2 110 -136 -60 0 0 -1 0 1 0 1 0 0 3023.dat
1 2 -40 -136 -80 1 0 0 0 1 0 0 0 1 3022.dat
1 2 40 -136 -80 1 0 0 0 1 0 0 0 1 3022.dat
1 2 150 -136 -70 1 0 0 0 1 0 0 0 1 3623.dat
1 2 -80 -136 -100 1 0 0 0 1 0 0 0 1 3022.dat
1 2 -110 -136 -90 1 0 0 0 1 0 0 0 1 3070b.dat
1 2 110 -136 -90 1 0 0 0 1 0 0 0 1 3070b.dat
1 2 -50 -136 -110 1 0 0 0 1 0 0 0 1 3070b.dat
1 2 50 -136 -110 1 0 0 0 1 0 0 0 1 3070b.dat
1 2 -90 -136 -130 1 0 0 0 1 0 0 0 1 3070b.dat
1 2 90 -136 -130 1 0 0 0 1 0 0 0 1 3070b.dat
1 15 10 -136 -120 0 0 -1 0 1 0 1 0 0 3666.dat
1 15 -10 -136 -140 0 0 -1 0 1 0 1 0 0 3710.dat
1 15 -30 -136 -150 0 0 -1 0 1 0 1 0 0 3623.dat
1 15 30 -136 -150 0 0 -1 0 1 0 1 0 0 3623.dat
1 15 70 -136 -140 0 0 -1 0 1 0 1 0 0 3023.dat
1 70 -70 -136 -130 1 0 0 0 1 0 0 0 1 3024.dat
1 70 50 -136 -140 0 0 -1 0 1 0 1 0 0 3023.dat
1 70 -50 -136 -140 0 0 -1 0 1 0 1 0 0 3069b.dat
1 70 -70 -136 -150 1 0 0 0 1 0 0 0 1 3070b.dat
1 272 -10 -136 -80 0 0 -1 0 1 0 1 0 0 3023.dat
0 STEP
1 2 0 -144 80 1 0 0 0 1 0 0 0 1 3832.dat
1 2 -150 -144 -0 0 0 -1 0 1 0 1 0 0 3460.dat
1 2 -120 -144 60 1 0 0 0 1 0 0 0 1 3022.dat
1 2 130 -144 60 1 0 0 0 1 0 0 0 1 3021.dat
1 2 -170 -144 -0 0 0 -1 0 1 0 1 0 0 3666.dat
1 2 -70 -144 50 1 0 0 0 1 0 0 0 1 3623.dat
1 2 70 -144 50 1 0 0 0 1 0 0 0 1 3623.dat
1 2 170 -144 -0 0 0 -1 0 1 0 1 0 0 3666.dat
1 2 -190 -144 -0 0 0 -1 0 1 0 1 0 0 3710.dat
1 2 -130 -144 30 1 0 0 0 1 0 0 0 1 3024.dat
1 2 140 -144 30 1 0 0 0 1 0 0 0 1 3023.dat
1 2 190 -144 -0 0 0 -1 0 1 0 1 0 0 3710.dat
1 2 -210 -144 -10 0 0 -1 0 1 0 1 0 0 3623.dat
1 2 150 -144 -20 0 0 -1 0 1 0 1 0 0 3710.dat
1 2 210 -144 -10 0 0 -1 0 1 0 1 0 0 3623.dat
1 2 -130 -144 -50 0 0 -1 0 1 0 1 0 0 3623.dat
1 2 130 -144 -50 0 0 -1 0 1 0 1 0 0 3623.dat
1 2 -80 -144 -60 1 0 0 0 1 0 0 0 1 3020.dat
1 2 80 -144 -60 1 0 0 0 1 0 0 0 1 3020.dat
1 2 -30 -144 -80 0 0 -1 0 1 0 1 0 0 3023.dat
1 2 30 -144 -80 0 0 -1 0 1 0 1 0 0 3023.dat
1 2 150 -144 -70 1 0 0 0 1 0 0 0 1 3024.dat
1 2 -70 -144 -90 1 0 0 0 1 0 0 0 1 3623.dat
1 2 70 -144 -90 1 0 0 0 1 0 0 0 1 3623.dat
1 2 -170 -144 70 1 0 0 0 1 0 0 0 1 3070b.dat
1 2 170 -144 70 1 0 0 0 1 0 0 0 1 3070b.dat
1 2 -170 -144 -70 1 0 0 0 1 0 0 0 1 3070b.dat
1 2 170 -144 -70 1 0 0 0 1 0 0 0 1 3070b.dat
1 2 -80 -144 -110 1 0 0 0 1 0 0 0 1 3069b.dat
1 2 80 -144 -110 1 0 0 0 1 0 0 0 1 3069b.dat
1 2 -70 -144 -130 1 0 0 0 1 0 0 0 1 3070b.dat
1 15 -10 -144 -120 0 0 -1 0 1 0 1 0 0 3666.dat
1 15 10 -144 -140 0 0 -1 0 1 0 1 0 0 3710.dat
1 15 -30 -144 -150 0 0 -1 0 1 0 1 0 0 3623.dat
1 15 30 -144 -150 0 0 -1 0 1 0 1 0 0 3623.dat
1 15 60 -144 -140 1 0 0 0 1 0 0 0 1 3068b.dat
1 272 10 -144 -80 0 0 -1 0 1 0 1 0 0 3023.dat
0 STEP
1 2 0 -152 80 1 0 0 0 1 0 0 0 1 3034.dat
1 2 -150 -152 -0 0 0 -1 0 1 0 1 0 0 3460.dat
1 2 -110 -152 60 1 0 0 0 1 0 0 0 1 3021.dat
1 2 120 -152 60 1 0 0 0 1 0 0 0 1 3020.dat
1 2 -170 -152 -0 0 0 -1 0 1 0 1 0 0 3666.dat
1 2 0 -152 50 1 0 0 0 1 0 0 0 1 3460.dat
1 2 170 -152 -0 0 0 -1 0 1 0 1 0 0 3666.dat
1 2 -190 -152 -0 0 0 -1 0 1 0 1 0 0 3710.dat
1 2 -130 -152 30 1 0 0 0 1 0 0 0 1 3024.dat
1 2 140 -152 30 1 0 0 0 1 0 0 0 1 3023.dat
1 2 190 -152 -0 0 0 -1 0 1 0 1 0 0 3710.dat
1 2 -210 -152 -0 0 0 -1 0 1 0 1 0 0 3023.dat
1 2 150 -152 -20 0 0 -1 0 1 0 1 0 0 3710.dat
1 2 210 -152 -0 0 0 -1 0 1 0 1 0 0 3023.dat
1 2 -130 -152 -50 0 0 -1 0 1 0 1 0 0 3623.dat
1 2 130 -152 -50 0 0 -1 0 1 0 1 0 0 3623.dat
1 2 -80 -152 -60 1 0 0 0 1 0 0 0 1 3020.dat
1 2 80 -152 -60 1 0 0 0 1 0 0 0 1 3020.dat
1 2 150 -152 -70 1 0 0 0 1 0 0 0 1 3024.dat
1 2 -60 -152 -90 1 0 0 0 1 0 0 0 1 3023.dat
1 2 60 -152 -90 1 0 0 0 1 0 0 0 1 3023.dat
1 2 -90 -152 90 1 0 0 0 1 0 0 0 1 3070b.dat
1 2 90 -152 90 1 0 0 0 1 0 0 0 1 3070b.dat
1 2 -210 -152 -30 1 0 0 0 1 0 0 0 1 3070b.dat
1 2 210 -152 -30 1 0 0 0 1 0 0 0 1 3070b.dat
1 2 -90 -152 -90 1 0 0 0 1 0 0 0 1 3070b.dat
1 2 90 -152 -90 1 0 0 0 1 0 0 0 1 3070b.dat
1 15 -10 -152 -100 0 0 -1 0 1 0 1 0 0 3666.dat
1 15 30 -152 -70 0 0 -1 0 1 0 1 0 0 3623.dat
1 15 10 -152 -140 0 0 -1 0 1 0 1 0 0 3710.dat
1 15 -30 -152 -150 0 0 -1 0 1 0 1 0 0 3623.dat
1 15 30 -152 -150 0 0 -1 0 1 0 1 0 0 3623.dat
1 15 -10 -152 -170 1 0 0 0 1 0 0 0 1 3024.dat
1 272 -30 -152 -70 0 0 -1 0 1 0 1 0 0 3623.dat
1 272 10 -152 -70 0 0 -1 0 1 0 1 0 0 3623.dat
0 STEP
1 2 -40 -160 60 1 0 0 0 1 0 0 0 1 2445.dat
1 2 120 -160 60 1 0 0 0 1 0 0 0 1 3020.dat
1 2 -170 -160 -0 0 0 -1 0 1 0 1 0 0 3666.dat
1 2 170 -160 -0 0 0 -1 0 1 0 1 0 0 3666.dat
1 2 -190 -160 -0 0 0 -1 0 1 0 1 0 0 3710.dat
1 2 -140 -160 -20 0 0 -1 0 1 0 1 0 0 3795.dat
1 2 -110 -160 30 1 0 0 0 1 0 0 0 1 3024.dat
1 2 130 -160 30 1 0 0 0 1 0 0 0 1 3623.dat
1 2 190 -160 -0 0 0 -1 0 1 0 1 0 0 3710.dat
1 2 -210 -160 -0 0 0 -1 0 1 0 1 0 0 3023.dat
1 2 140 -160 -20 0 0 -1 0 1 0 1 0 0 3020.dat
1 2 210 -160 -0 0 0 -1 0 1 0 1 0 0 3023.dat
1 2 -110 -160 -50 0 0 -1 0 1 0 1 0 0 3623.dat
1 2 110 -160 -50 0 0 -1 0 1 0 1 0 0 3623.dat
1 2 -70 -160 -60 1 0 0 0 1 0 0 0 1 3021.dat
1 2 70 -160 -60 1 0 0 0 1 0 0 0 1 3021.dat
1 2 140 -160 -70 1 0 0 0 1 0 0 0 1 3023.dat
1 2 0 -160 90 1 0 0 0 1 0 0 0 1 4162.dat
1 2 -60 -160 -90 1 0 0 0 1 0 0 0 1 3069b.dat
1 2 60 -160 -90 1 0 0 0 1 0 0 0 1 3069b.dat
1 15 -30 -160 -60 0 0 -1 0 1 0 1 0 0 3023.dat
1 15 10 -160 -60 0 0 -1 0 1 0 1 0 0 3023.dat
1 15 -30 -160 -90 1 0 0 0 1 0 0 0 1 3070b.dat
1 15 10 -160 -100 0 0 -1 0 1 0 1 0 0 3069b.dat
1 15 -10 -160 -110 1 0 0 0 1 0 0 0 1 3070b.dat
1 15 -30 -160 -130 1 0 0 0 1 0 0 0 1 3070b.dat
1 15 30 -160 -130 1 0 0 0 1 0 0 0 1 3070b.dat
1 15 -30 -160 -170 1 0 0 0 1 0 0 0 1 3070b.dat
1 15 30 -160 -170 1 0 0 0 1 0 0 0 1 3070b.dat
1 272 -10 -160 -60 0 0 -1 0 1 0 1 0 0 3023.dat
1 272 30 -160 -60 0 0 -1 0 1 0 1 0 0 3023.dat
1 272 -10 -160 -90 1 0 0 0 1 0 0 0 1 3070b.dat
1 272 30 -160 -90 1 0 0 0 1 0 0 0 1 3070b.dat
1 308 0 -160 -140 1 0 0 0 1 0 0 0 1 3068b.dat
1 308 -30 -160 -150 1 0 0 0 1 0 0 0 1 3070b.dat
1 308 30 -160 -150 1 0 0 0 1 0 0 0 1 3070b.dat
1 308 0 -160 -170 1 0 0 0 1 0 0 0 1 3069b.dat
0 STEP
1 2 -20 -168 60 1 0 0 0 1 0 0 0 1 2445.dat
1 2 120 -168 50 0 0 -1 0 1 0 1 0 0 3021.dat
1 2 -150 -168 -0 0 0 -1 0 1 0 1 0 0 3666.dat
1 2 150 -168 -0 0 0 -1 0 1 0 1 0 0 3666.dat
1 2 -180 -168 -0 0 0 -1 0 1 0 1 0 0 3020.dat
1 2 -130 -168 -20 0 0 -1 0 1 0 1 0 0 3666.dat
1 2 -100 -168 30 1 0 0 0 1 0 0 0 1 3023.dat
1 2 90 -168 30 1 0 0 0 1 0 0 0 1 3024.dat
1 2 180 -168 -0 0 0 -1 0 1 0 1 0 0 3020.dat
1 2 -210 -168 -0 0 0 -1 0 1 0 1 0 0 3023.dat
1 2 130 -168 -20 0 0 -1 0 1 0 1 0 0 3710.dat
1 2 210 -168 -0 0 0 -1 0 1 0 1 0 0 3023.dat
1 2 -100 -168 -50 0 0 -1 0 1 0 1 0 0 3021.dat
1 2 100 -168 -50 0 0 -1 0 1 0 1 0 0 3021.dat
1 2 -60 -168 -60 1 0 0 0 1 0 0 0 1 3022.dat
1 2 60 -168 -60 1 0 0 0 1 0 0 0 1 3022.dat
1 2 130 -168 -70 1 0 0 0 1 0 0 0 1 3024.dat
1 2 -150 -168 70 1 0 0 0 1 0 0 0 1 3070b.dat
1 2 150 -168 70 1 0 0 0 1 0 0 0 1 3070b.dat
1 2 -170 -168 50 1 0 0 0 1 0 0 0 1 3070b.dat
1 2 170 -168 50 1 0 0 0 1 0 0 0 1 3070b.dat
1 2 -170 -168 -50 1 0 0 0 1 0 0 0 1 3070b.dat
1 2 170 -168 -50 1 0 0 0 1 0 0 0 1 3070b.dat
1 2 -150 -168 -70 1 0 0 0 1 0 0 0 1 3070b.dat
1 2 150 -168 -70 1 0 0 0 1 0 0 0 1 3070b.dat
1 15 -30 -168 -60 0 0 -1 0 1 0 1 0 0 3023.dat
1 15 10 -168 -60 0 0 -1 0 1 0 1 0 0 3023.dat
1 272 -10 -168 -60 0 0 -1 0 1 0 1 0 0 3023.dat
1 272 30 -168 -60 0 0 -1 0 1 0 1 0 0 3023.dat
0 STEP
1 2 0 -176 60 1 0 0 0 1 0 0 0 1 2445.dat
1 2 -140 -176 -0 0 0 -1 0 1 0 1 0 0 3795.dat
1 2 140 -176 -0 0 0 -1 0 1 0 1 0 0 3795.dat
1 2 -180 -176 -0 0 0 -1 0 1 0 1 0 0 3020.dat
1 2 -110 -176 -20 0 0 -1 0 1 0 1 0 0 3666.dat
1 2 -70 -176 30 1 0 0 0 1 0 0 0 1 3623.dat
1 2 80 -176 30 1 0 0 0 1 0 0 0 1 3710.dat
1 2 180 -176 -0 0 0 -1 0 1 0 1 0 0 3020.dat
1 2 -210 -176 -0 0 0 -1 0 1 0 1 0 0 3023.dat
1 2 110 -176 -20 0 0 -1 0 1 0 1 0 0 3710.dat
1 2 210 -176 -0 0 0 -1 0 1 0 1 0 0 3023.dat
1 2 -70 -176 -40 1 0 0 0 1 0 0 0 1 3021.dat
1 2 70 -176 -40 1 0 0 0 1 0 0 0 1 3021.dat
1 2 -70 -176 -70 1 0 0 0 1 0 0 0 1 3623.dat
1 2 80 -176 -70 1 0 0 0 1 0 0 0 1 3710.dat
1 2 -130 -176 70 1 0 0 0 1 0 0 0 1 3070b.dat
1 2 130 -176 70 1 0 0 0 1 0 0 0 1 3070b.dat
1 2 -130 -176 -70 1 0 0 0 1 0 0 0 1 3070b.dat
1 2 130 -176 -70 1 0 0 0 1 0 0 0 1 3070b.dat
1 15 -10 -176 -60 0 0 -1 0 1 0 1 0 0 3023.dat
1 15 30 -176 -60 0 0 -1 0 1 0 1 0 0 3023.dat
1 272 -30 -176 -60 0 0 -1 0 1 0 1 0 0 3023.dat
1 272 10 -176 -60 0 0 -1 0 1 0 1 0 0 3023.dat
0 STEP
1 2 0 -184 60 1 0 0 0 1 0 0 0 1 3034.dat
1 2 -120 -184 -0 0 0 -1 0 1 0 1 0 0 3795.dat
1 2 -90 -184 -0 0 0 -1 0 1 0 1 0 0 3666.dat
1 2 100 -184 -0 0 0 -1 0 1 0 1 0 0 3795.dat
1 2 130 -184 -0 0 0 -1 0 1 0 1 0 0 3666.dat
1 2 -180 -184 -0 0 0 -1 0 1 0 1 0 0 3020.dat
1 2 0 -184 30 1 0 0 0 1 0 0 0 1 3460.dat
1 2 180 -184 -0 0 0 -1 0 1 0 1 0 0 3020.dat
1 2 -210 -184 -0 0 0 -1 0 1 0 1 0 0 3023.dat
1 2 -150 -184 -0 0 0 -1 0 1 0 1 0 0 3023.dat
1 2 -70 -184 -20 0 0 -1 0 1 0 1 0 0 3710.dat
1 2 70 -184 -20 0 0 -1 0 1 0 1 0 0 3710.dat
1 2 150 -184 -0 0 0 -1 0 1 0 1 0 0 3023.dat
1 2 210 -184 -0 0 0 -1 0 1 0 1 0 0 3023.dat
1 2 0 -184 -30 1 0 0 0 1 0 0 0 1 3666.dat
1 2 -50 -184 -50 1 0 0 0 1 0 0 0 1 3024.dat
1 2 50 -184 -50 1 0 0 0 1 0 0 0 1 3024.dat
1 2 -70 -184 -70 1 0 0 0 1 0 0 0 1 3024.dat
1 2 70 -184 -70 1 0 0 0 1 0 0 0 1 3024.dat
1 2 -100 -184 70 1 0 0 0 1 0 0 0 1 3069b.dat
1 2 100 -184 70 1 0 0 0 1 0 0 0 1 3069b.dat
1 2 -150 -184 40 0 0 -1 0 1 0 1 0 0 3069b.dat
1 2 150 -184 40 0 0 -1 0 1 0 1 0 0 3069b.dat
1 2 -150 -184 -40 0 0 -1 0 1 0 1 0 0 3069b.dat
1 2 150 -184 -40 0 0 -1 0 1 0 1 0 0 3069b.dat
1 2 -100 -184 -70 1 0 0 0 1 0 0 0 1 3069b.dat
1 2 100 -184 -70 1 0 0 0 1 0 0 0 1 3069b.dat
1 15 -10 -184 -60 0 0 -1 0 1 0 1 0 0 3023.dat
1 15 30 -184 -60 0 0 -1 0 1 0 1 0 0 3023.dat
1 15 -50 -184 -120 0 0 -1 0 1 0 1 0 0 3666.dat
1 15 50 -184 -120 0 0 -1 0 1 0 1 0 0 3666.dat
1 15 -50 -184 -190 1 0 0 0 1 0 0 0 1 3024.dat
1 15 50 -184 -190 1 0 0 0 1 0 0 0 1 3024.dat
1 272 -30 -184 -60 0 0 -1 0 1 0 1 0 0 3023.dat
1 272 10 -184 -60 0 0 -1 0 1 0 1 0 0 3023.dat
0 STEP
1 2 -80 -192 -0 0 0 -1 0 1 0 1 0 0 3795.dat
1 2 20 -192 50 1 0 0 0 1 0 0 0 1 3460.dat
1 2 -110 -192 -0 0 0 -1 0 1 0 1 0 0 3710.dat
1 2 -50 -192 30 1 0 0 0 1 0 0 0 1 3024.dat
1 2 80 -192 30 1 0 0 0 1 0 0 0 1 3710.dat
1 2 -180 -192 -0 1 0 0 0 1 0 0 0 1 3022.dat
1 2 80 -192 -20 0 0 -1 0 1 0 1 0 0 3020.dat
1 2 110 -192 -10 0 0 -1 0 1 0 1 0 0 3623.dat
1 2 180 -192 -0 1 0 0 0 1 0 0 0 1 3022.dat
1 2 -50 -192 -30 1 0 0 0 1 0 0 0 1 3024.dat
1 2 50 -192 -30 1 0 0 0 1 0 0 0 1 3024.dat
1 2 0 -192 70 1 0 0 0 1 0 0 0 1 4162.dat
1 2 -130 -192 -0 0 0 -1 0 1 0 1 0 0 6636.dat
1 2 -110 -192 50 1 0 0 0 1 0 0 0 1 3070b.dat
1 2 120 -192 50 1 0 0 0 1 0 0 0 1 3069b.dat
1 2 -180 -192 30 1 0 0 0 1 0 0 0 1 3069b.dat
1 2 130 -192 -0 0 0 -1 0 1 0 1 0 0 2431.dat
1 2 180 -192 30 1 0 0 0 1 0 0 0 1 3069b.dat
1 2 -210 -192 -0 0 0 -1 0 1 0 1 0 0 3069b.dat
1 2 -150 -192 -0 0 0 -1 0 1 0 1 0 0 3069b.dat
1 2 150 -192 -0 0 0 -1 0 1 0 1 0 0 3069b.dat
1 2 210 -192 -0 0 0 -1 0 1 0 1 0 0 3069b.dat
1 2 -180 -192 -30 1 0 0 0 1 0 0 0 1 3069b.dat
1 2 180 -192 -30 1 0 0 0 1 0 0 0 1 3069b.dat
1 2 -110 -192 -50 1 0 0 0 1 0 0 0 1 3070b.dat
1 2 120 -192 -50 1 0 0 0 1 0 0 0 1 3069b.dat
1 2 -70 -192 -70 1 0 0 0 1 0 0 0 1 3070b.dat
1 2 70 -192 -70 1 0 0 0 1 0 0 0 1 3070b.dat
1 15 -30 -192 -50 1 0 0 0 1 0 0 0 1 3024.dat
1 15 50 -192 -120 0 0 -1 0 1 0 1 0 0 3460.dat
1 15 -50 -192 -120 0 0 -1 0 1 0 1 0 0 3666.dat
1 15 -50 -192 -190 1 0 0 0 1 0 0 0 1 3024.dat
1 15 -30 -192 -70 1 0 0 0 1 0 0 0 1 3070b.dat
1 15 10 -192 -70 1 0 0 0 1 0 0 0 1 3070b.dat
1 70 0 -192 -0 1 0 0 0 1 0 0 0 1 3031.dat
1 70 -50 -192 -0 0 0 -1 0 1 0 1 0 0 3023.dat
1 70 50 -192 -0 0 0 -1 0 1 0 1 0 0 3023.dat
1 70 0 -192 -50 1 0 0 0 1 0 0 0 1 3023.dat
1 272 -50 -192 -50 1 0 0 0 1 0 0 0 1 3024.dat
1 272 30 -192 -50 1 0 0 0 1 0 0 0 1 3024.dat
1 272 -10 -192 -70 1 0 0 0 1 0 0 0 1 3070b.dat
1 272 30 -192 -70 1 0 0 0 1 0 0 0 1 3070b.dat
0 STEP
1 2 -170 -200 -0 0 0 -1 0 1 0 1 0 0 3023.dat
1 2 170 -200 -0 0 0 -1 0 1 0 1 0 0 3023.dat
1 2 -20 -200 50 1 0 0 0 1 0 0 0 1 4162.dat
1 2 70 -200 -0 0 0 -1 0 1 0 1 0 0 6636.dat
1 2 90 -200 -0 0 0 -1 0 1 0 1 0 0 6636.dat
1 2 -80 -200 30 1 0 0 0 1 0 0 0 1 2431.dat
1 2 50 -200 30 1 0 0 0 1 0 0 0 1 3070b.dat
1 2 110 -200 -0 0 0 -1 0 1 0 1 0 0 2431.dat
1 2 -190 -200 -0 0 0 -1 0 1 0 1 0 0 3069b.dat
1 2 -100 -200 -0 1 0 0 0 1 0 0 0 1 3068b.dat
1 2 -70 -200 -20 0 0 -1 0 1 0 1 0 0 2431.dat
1 2 190 -200 -0 0 0 -1 0 1 0 1 0 0 3069b.dat
1 2 -100 -200 -30 1 0 0 0 1 0 0 0 1 3069b.dat
1 2 -50 -200 -30 1 0 0 0 1 0 0 0 1 3070b.dat
1 2 50 -200 -30 1 0 0 0 1 0 0 0 1 3070b.dat
1 2 -90 -200 -50 1 0 0 0 1 0 0 0 1 3070b.dat
1 15 -30 -200 -50 1 0 0 0 1 0 0 0 1 3024.dat
1 15 50 -200 -120 0 0 -1 0 1 0 1 0 0 4162.dat
1 15 -50 -200 -120 0 0 -1 0 1 0 1 0 0 6636.dat
1 15 -50 -200 -190 1 0 0 0 1 0 0 0 1 3070b.dat
1 70 0 -200 20 1 0 0 0 1 0 0 0 1 3020.dat
1 70 -50 -200 -0 0 0 -1 0 1 0 1 0 0 3023.dat
1 70 50 -200 -0 0 0 -1 0 1 0 1 0 0 3023.dat
1 70 -30 -200 -20 0 0 -1 0 1 0 1 0 0 3023.dat
1 70 30 -200 -20 0 0 -1 0 1 0 1 0 0 3023.dat
1 71 0 -200 -30 0 0 -1 0 1 0 1 0 0 3021.dat
1 272 30 -200 -50 1 0 0 0 1 0 0 0 1 3024.dat
1 272 -50 -200 -50 1 0 0 0 1 0 0 0 1 3070b.dat
0 STEP
1 2 -170 -208 -0 0 0 -1 0 1 0 1 0 0 3069b.dat
1 2 170 -208 -0 0 0 -1 0 1 0 1 0 0 3069b.dat
1 70 0 -208 20 1 0 0 0 1 0 0 0 1 3020.dat
1 70 -50 -208 -0 0 0 -1 0 1 0 1 0 0 3023.dat
1 70 50 -208 -0 0 0 -1 0 1 0 1 0 0 3023.dat
1 70 0 -208 -10 1 0 0 0 1 0 0 0 1 3023.dat
1 71 -30 -208 -30 0 0 -1 0 1 0 1 0 0 3623.dat
1 71 30 -208 -30 0 0 -1 0 1 0 1 0 0 3623.dat
1 71 0 -208 -50 0 0 -1 0 1 0 1 0 0 3021.dat
0 STEP
1 70 0 -216 20 1 0 0 0 1 0 0 0 1 3020.dat
1 70 -50 -216 10 1 0 0 0 1 0 0 0 1 3024.dat
1 70 50 -216 10 1 0 0 0 1 0 0 0 1 3024.dat
1 70 0 -216 -10 1 0 0 0 1 0 0 0 1 3710.dat
1 71 -50 -216 -30 0 0 -1 0 1 0 1 0 0 3623.dat
1 71 50 -216 -30 0 0 -1 0 1 0 1 0 0 3623.dat
1 71 0 -216 -40 1 0 0 0 1 0 0 0 1 3020.dat
1 71 0 -216 -70 1 0 0 0 1 0 0 0 1 3710.dat
0 STEP
1 70 0 -224 20 1 0 0 0 1 0 0 0 1 3031.dat
1 70 -50 -224 10 0 0 -1 0 1 0 1 0 0 3623.dat
1 70 50 -224 10 0 0 -1 0 1 0 1 0 0 3623.dat
1 70 0 -224 -30 1 0 0 0 1 0 0 0 1 3023.dat
1 71 -70 -224 -10 1 0 0 0 1 0 0 0 1 3024.dat
1 71 70 -224 -10 1 0 0 0 1 0 0 0 1 3024.dat
1 71 -40 -224 -50 0 0 -1 0 1 0 1 0 0 3021.dat
1 71 40 -224 -50 0 0 -1 0 1 0 1 0 0 3021.dat
1 71 0 -224 -70 0 0 -1 0 1 0 1 0 0 3021.dat
0 STEP
1 70 0 -232 20 1 0 0 0 1 0 0 0 1 3031.dat
1 70 -50 -232 10 0 0 -1 0 1 0 1 0 0 3623.dat
1 70 50 -232 10 0 0 -1 0 1 0 1 0 0 3623.dat
1 70 -70 -232 10 1 0 0 0 1 0 0 0 1 3024.dat
1 70 70 -232 10 1 0 0 0 1 0 0 0 1 3024.dat
1 70 0 -232 -30 1 0 0 0 1 0 0 0 1 3710.dat
1 71 -70 -232 -20 0 0 -1 0 1 0 1 0 0 3023.dat
1 71 70 -232 -20 0 0 -1 0 1 0 1 0 0 3023.dat
1 71 -50 -232 -50 0 0 -1 0 1 0 1 0 0 3623.dat
1 71 50 -232 -50 0 0 -1 0 1 0 1 0 0 3623.dat
1 71 0 -232 -60 1 0 0 0 1 0 0 0 1 3020.dat
1 71 0 -232 -90 1 0 0 0 1 0 0 0 1 3710.dat
0 STEP
1 70 0 -240 40 0 0 -1 0 1 0 1 0 0 3020.dat
1 70 -40 -240 20 0 0 -1 0 1 0 1 0 0 3020.dat
1 70 40 -240 20 0 0 -1 0 1 0 1 0 0 3020.dat
1 70 -70 -240 10 0 0 -1 0 1 0 1 0 0 3623.dat
1 70 70 -240 10 0 0 -1 0 1 0 1 0 0 3623.dat
1 70 -40 -240 -30 1 0 0 0 1 0 0 0 1 3023.dat
1 70 40 -240 -30 1 0 0 0 1 0 0 0 1 3023.dat
1 71 -70 -240 -40 0 0 -1 0 1 0 1 0 0 3023.dat
1 71 70 -240 -40 0 0 -1 0 1 0 1 0 0 3023.dat
1 71 0 -240 -60 1 0 0 0 1 0 0 0 1 3795.dat
1 71 0 -240 -90 1 0 0 0 1 0 0 0 1 3666.dat
0 STEP
1 70 0 -248 40 1 0 0 0 1 0 0 0 1 3031.dat
1 70 -50 -248 20 0 0 -1 0 1 0 1 0 0 3710.dat
1 70 50 -248 20 0 0 -1 0 1 0 1 0 0 3710.dat
1 70 -70 -248 10 0 0 -1 0 1 0 1 0 0 3623.dat
1 70 70 -248 10 0 0 -1 0 1 0 1 0 0 3623.dat
1 70 -90 -248 10 1 0 0 0 1 0 0 0 1 3024.dat
1 70 90 -248 10 1 0 0 0 1 0 0 0 1 3024.dat
1 70 -30 -248 -20 0 0 -1 0 1 0 1 0 0 3023.dat
1 70 30 -248 -20 0 0 -1 0 1 0 1 0 0 3023.dat
1 70 -50 -248 -30 1 0 0 0 1 0 0 0 1 3024.dat
1 70 50 -248 -30 1 0 0 0 1 0 0 0 1 3024.dat
1 70 0 -248 -50 1 0 0 0 1 0 0 0 1 3023.dat
1 71 -90 -248 -20 0 0 -1 0 1 0 1 0 0 3023.dat
1 71 90 -248 -20 0 0 -1 0 1 0 1 0 0 3023.dat
1 71 -70 -248 -40 0 0 -1 0 1 0 1 0 0 3023.dat
1 71 70 -248 -40 0 0 -1 0 1 0 1 0 0 3023.dat
1 71 -40 -248 -70 0 0 -1 0 1 0 1 0 0 3021.dat
1 71 40 -248 -70 0 0 -1 0 1 0 1 0 0 3021.dat
1 71 0 -248 -90 0 0 -1 0 1 0 1 0 0 3021.dat
0 STEP
1 70 0 -256 60 1 0 0 0 1 0 0 0 1 3795.dat
1 70 -70 -256 20 0 0 -1 0 1 0 1 0 0 3710.dat
1 70 70 -256 20 0 0 -1 0 1 0 1 0 0 3710.dat
1 70 -90 -256 20 0 0 -1 0 1 0 1 0 0 3023.dat
1 70 0 -256 30 1 0 0 0 1 0 0 0 1 3666.dat
1 70 90 -256 20 0 0 -1 0 1 0 1 0 0 3023.dat
1 70 -50 -256 -10 0 0 -1 0 1 0 1 0 0 3623.dat
1 70 -30 -256 10 1 0 0 0 1 0 0 0 1 3024.dat
1 70 40 -256 10 1 0 0 0 1 0 0 0 1 3023.dat
1 70 50 -256 -20 0 0 -1 0 1 0 1 0 0 3023.dat
1 70 -70 -256 -30 1 0 0 0 1 0 0 0 1 3024.dat
1 70 -30 -256 -40 0 0 -1 0 1 0 1 0 0 3023.dat
1 70 30 -256 -40 0 0 -1 0 1 0 1 0 0 3023.dat
1 70 70 -256 -30 1 0 0 0 1 0 0 0 1 3024.dat
1 70 0 -256 -50 1 0 0 0 1 0 0 0 1 3023.dat
1 71 -90 -256 -20 0 0 -1 0 1 0 1 0 0 3023.dat
1 71 90 -256 -20 0 0 -1 0 1 0 1 0 0 3023.dat
1 71 -60 -256 -60 1 0 0 0 1 0 0 0 1 3022.dat
1 71 60 -256 -60 1 0 0 0 1 0 0 0 1 3022.dat
1 71 0 -256 -80 1 0 0 0 1 0 0 0 1 3020.dat
0 STEP
1 70 0 -264 60 1 0 0 0 1 0 0 0 1 3795.dat
1 70 -70 -264 20 0 0 -1 0 1 0 1 0 0 3710.dat
1 70 70 -264 20 0 0 -1 0 1 0 1 0 0 3710.dat
1 70 -90 -264 10 0 0 -1 0 1 0 1 0 0 3623.dat
1 70 0 -264 30 1 0 0 0 1 0 0 0 1 3666.dat
1 70 90 -264 10 0 0 -1 0 1 0 1 0 0 3623.dat
1 70 -50 -264 -20 0 0 -1 0 1 0 1 0 0 3710.dat
1 70 -30 -264 10 1 0 0 0 1 0 0 0 1 3024.dat
1 70 40 -264 10 1 0 0 0 1 0 0 0 1 3023.dat
1 70 50 -264 -30 0 0 -1 0 1 0 1 0 0 3623.dat
1 70 -70 -264 -30 1 0 0 0 1 0 0 0 1 3024.dat
1 70 -30 -264 -40 0 0 -1 0 1 0 1 0 0 3023.dat
1 70 30 -264 -40 0 0 -1 0 1 0 1 0 0 3023.dat
1 70 70 -264 -30 1 0 0 0 1 0 0 0 1 3024.dat
1 71 -90 -264 -40 0 0 -1 0 1 0 1 0 0 3023.dat
1 71 90 -264 -40 0 0 -1 0 1 0 1 0 0 3023.dat
1 71 -70 -264 -60 0 0 -1 0 1 0 1 0 0 3023.dat
1 71 70 -264 -60 0 0 -1 0 1 0 1 0 0 3023.dat
1 71 0 -264 -80 1 0 0 0 1 0 0 0 1 3795.dat
0 STEP
1 70 0 -272 70 0 0 -1 0 1 0 1 0 0 3021.dat
1 70 -50 -272 20 0 0 -1 0 1 0 1 0 0 3666.dat
1 70 -30 -272 50 0 0 -1 0 1 0 1 0 0 3623.dat
1 70 40 -272 50 0 0 -1 0 1 0 1 0 0 3021.dat
1 70 -70 -272 20 0 0 -1 0 1 0 1 0 0 3710.dat
1 70 70 -272 20 0 0 -1 0 1 0 1 0 0 3710.dat
1 70 -90 -272 10 0 0 -1 0 1 0 1 0 0 3623.dat
1 70 90 -272 10 0 0 -1 0 1 0 1 0 0 3623.dat
1 70 50 -272 -20 0 0 -1 0 1 0 1 0 0 3710.dat
1 70 -70 -272 -30 1 0 0 0 1 0 0 0 1 3024.dat
1 70 70 -272 -30 1 0 0 0 1 0 0 0 1 3024.dat
1 70 -20 -272 -50 1 0 0 0 1 0 0 0 1 3710.dat
1 70 30 -272 -50 1 0 0 0 1 0 0 0 1 3024.dat
1 71 -90 -272 -40 0 0 -1 0 1 0 1 0 0 3023.dat
1 71 90 -272 -40 0 0 -1 0 1 0 1 0 0 3023.dat
1 71 -70 -272 -60 0 0 -1 0 1 0 1 0 0 3023.dat
1 71 70 -272 -60 0 0 -1 0 1 0 1 0 0 3023.dat
1 71 0 -272 -80 1 0 0 0 1 0 0 0 1 3795.dat
0 STEP
1 70 0 -280 80 1 0 0 0 1 0 0 0 1 3020.dat
1 70 -70 -280 -0 0 0 -1 0 1 0 1 0 0 3460.dat
1 70 -50 -280 40 0 0 -1 0 1 0 1 0 0 3710.dat
1 70 60 -280 40 0 0 -1 0 1 0 1 0 0 3020.dat
1 70 -90 -280 -0 0 0 -1 0 1 0 1 0 0 3666.dat
1 70 0 -280 50 1 0 0 0 1 0 0 0 1 3710.dat
1 70 90 -280 -0 0 0 -1 0 1 0 1 0 0 3666.dat
1 70 -30 -280 30 1 0 0 0 1 0 0 0 1 3024.dat
1 70 30 -280 30 1 0 0 0 1 0 0 0 1 3024.dat
1 70 -110 -280 10 1 0 0 0 1 0 0 0 1 3024.dat
1 70 110 -280 10 1 0 0 0 1 0 0 0 1 3024.dat
1 70 70 -280 -40 0 0 -1 0 1 0 1 0 0 3710.dat
1 70 -50 -280 -60 0 0 -1 0 1 0 1 0 0 3710.dat
1 70 50 -280 -60 0 0 -1 0 1 0 1 0 0 3710.dat
1 70 -30 -280 -70 0 0 -1 0 1 0 1 0 0 3623.dat
1 70 30 -280 -70 0 0 -1 0 1 0 1 0 0 3623.dat
1 70 -90 -280 -70 1 0 0 0 1 0 0 0 1 3024.dat
1 70 0 -280 -90 0 0 -1 0 1 0 1 0 0 3021.dat
1 70 90 -280 -70 1 0 0 0 1 0 0 0 1 3024.dat
1 71 -110 -280 -20 0 0 -1 0 1 0 1 0 0 3023.dat
1 71 110 -280 -20 0 0 -1 0 1 0 1 0 0 3023.dat
0 STEP
1 70 0 -288 80 1 0 0 0 1 0 0 0 1 3020.dat
1 70 -70 -288 -0 0 0 -1 0 1 0 1 0 0 3460.dat
1 70 -50 -288 40 0 0 -1 0 1 0 1 0 0 3710.dat
1 70 60 -288 40 0 0 -1 0 1 0 1 0 0 3020.dat
1 70 -90 -288 -0 0 0 -1 0 1 0 1 0 0 3666.dat
1 70 0 -288 50 1 0 0 0 1 0 0 0 1 3710.dat
1 70 90 -288 -0 0 0 -1 0 1 0 1 0 0 3666.dat
1 70 -30 -288 30 1 0 0 0 1 0 0 0 1 3024.dat
1 70 30 -288 30 1 0 0 0 1 0 0 0 1 3024.dat
1 70 -110 -288 10 1 0 0 0 1 0 0 0 1 3024.dat
1 70 110 -288 10 1 0 0 0 1 0 0 0 1 3024.dat
1 70 70 -288 -40 0 0 -1 0 1 0 1 0 0 3710.dat
1 70 -50 -288 -60 0 0 -1 0 1 0 1 0 0 3710.dat
1 70 50 -288 -60 0 0 -1 0 1 0 1 0 0 3710.dat
1 70 -30 -288 -80 0 0 -1 0 1 0 1 0 0 3710.dat
1 70 30 -288 -80 0 0 -1 0 1 0 1 0 0 3710.dat
1 70 -90 -288 -70 1 0 0 0 1 0 0 0 1 3024.dat
1 70 0 -288 -90 0 0 -1 0 1 0 1 0 0 3021.dat
1 70 90 -288 -70 1 0 0 0 1 0 0 0 1 3024.dat
1 70 -70 -288 -90 1 0 0 0 1 0 0 0 1 3024.dat
1 70 70 -288 -90 1 0 0 0 1 0 0 0 1 3024.dat
1 71 -110 -288 -20 0 0 -1 0 1 0 1 0 0 3023.dat
1 71 110 -288 -20 0 0 -1 0 1 0 1 0 0 3023.dat
0 STEP
1 0 0 -296 -110 1 0 0 0 1 0 0 0 1 3710.dat
1 70 0 -296 80 1 0 0 0 1 0 0 0 1 3795.dat
1 70 -70 -296 -0 0 0 -1 0 1 0 1 0 0 3460.dat
1 70 70 -296 -0 0 0 -1 0 1 0 1 0 0 3460.dat
1 70 -90 -296 -0 0 0 -1 0 1 0 1 0 0 3666.dat
1 70 0 -296 50 1 0 0 0 1 0 0 0 1 3666.dat
1 70 90 -296 -0 0 0 -1 0 1 0 1 0 0 3666.dat
1 70 -110 -296 20 0 0 -1 0 1 0 1 0 0 3023.dat
1 70 -50 -296 30 1 0 0 0 1 0 0 0 1 3024.dat
1 70 50 -296 30 1 0 0 0 1 0 0 0 1 3024.dat
1 70 110 -296 20 0 0 -1 0 1 0 1 0 0 3023.dat
1 70 -40 -296 -70 0 0 -1 0 1 0 1 0 0 3021.dat
1 70 40 -296 -70 0 0 -1 0 1 0 1 0 0 3021.dat
1 70 -90 -296 -70 1 0 0 0 1 0 0 0 1 3024.dat
1 70 0 -296 -80 1 0 0 0 1 0 0 0 1 3022.dat
1 70 90 -296 -70 1 0 0 0 1 0 0 0 1 3024.dat
1 70 -70 -296 -90 1 0 0 0 1 0 0 0 1 3024.dat
1 70 70 -296 -90 1 0 0 0 1 0 0 0 1 3024.dat
1 71 -110 -296 -20 0 0 -1 0 1 0 1 0 0 3023.dat
1 71 110 -296 -20 0 0 -1 0 1 0 1 0 0 3023.dat
0 STEP
1 0 -50 -304 -90 1 0 0 0 1 0 0 0 1 3024.dat
1 0 50 -304 -90 1 0 0 0 1 0 0 0 1 3024.dat
1 70 0 -304 80 1 0 0 0 1 0 0 0 1 3795.dat
1 70 -70 -304 -0 0 0 -1 0 1 0 1 0 0 3460.dat
1 70 70 -304 -0 0 0 -1 0 1 0 1 0 0 3460.dat
1 70 -90 -304 -0 0 0 -1 0 1 0 1 0 0 3666.dat
1 70 0 -304 50 1 0 0 0 1 0 0 0 1 3666.dat
1 70 90 -304 -0 0 0 -1 0 1 0 1 0 0 3666.dat
1 70 -110 -304 10 0 0 -1 0 1 0 1 0 0 3623.dat
1 70 -50 -304 30 1 0 0 0 1 0 0 0 1 3024.dat
1 70 50 -304 30 1 0 0 0 1 0 0 0 1 3024.dat
1 70 110 -304 10 0 0 -1 0 1 0 1 0 0 3623.dat
1 70 -50 -304 -60 0 0 -1 0 1 0 1 0 0 3023.dat
1 70 50 -304 -60 0 0 -1 0 1 0 1 0 0 3023.dat
1 70 -90 -304 -70 1 0 0 0 1 0 0 0 1 3024.dat
1 70 0 -304 -80 1 0 0 0 1 0 0 0 1 3020.dat
1 70 90 -304 -70 1 0 0 0 1 0 0 0 1 3024.dat
1 70 -70 -304 -90 1 0 0 0 1 0 0 0 1 3024.dat
1 70 70 -304 -90 1 0 0 0 1 0 0 0 1 3024.dat
1 70 0 -304 -110 1 0 0 0 1 0 0 0 1 3710.dat
1 71 -110 -304 -40 0 0 -1 0 1 0 1 0 0 3023.dat
1 71 110 -304 -40 0 0 -1 0 1 0 1 0 0 3023.dat
0 STEP
1 70 0 -312 80 1 0 0 0 1 0 0 0 1 3795.dat
1 70 -70 -312 -0 0 0 -1 0 1 0 1 0 0 3460.dat
1 70 70 -312 -0 0 0 -1 0 1 0 1 0 0 3460.dat
1 70 -90 -312 -0 0 0 -1 0 1 0 1 0 0 3666.dat
1 70 -40 -312 50 1 0 0 0 1 0 0 0 1 3023.dat
1 70 40 -312 50 1 0 0 0 1 0 0 0 1 3023.dat
1 70 90 -312 -0 0 0 -1 0 1 0 1 0 0 3666.dat
1 70 -110 -312 10 0 0 -1 0 1 0 1 0 0 3623.dat
1 70 -50 -312 30 1 0 0 0 1 0 0 0 1 3024.dat
1 70 50 -312 30 1 0 0 0 1 0 0 0 1 3024.dat
1 70 110 -312 10 0 0 -1 0 1 0 1 0 0 3623.dat
1 70 -50 -312 -80 0 0 -1 0 1 0 1 0 0 3710.dat
1 70 50 -312 -80 0 0 -1 0 1 0 1 0 0 3710.dat
1 70 -90 -312 -70 1 0 0 0 1 0 0 0 1 3024.dat
1 70 0 -312 -80 1 0 0 0 1 0 0 0 1 3020.dat
1 70 90 -312 -70 1 0 0 0 1 0 0 0 1 3024.dat
1 70 -70 -312 -90 1 0 0 0 1 0 0 0 1 3024.dat
1 70 70 -312 -90 1 0 0 0 1 0 0 0 1 3024.dat
1 70 0 -312 -110 1 0 0 0 1 0 0 0 1 3710.dat
1 71 -110 -312 -40 0 0 -1 0 1 0 1 0 0 3023.dat
1 71 110 -312 -40 0 0 -1 0 1 0 1 0 0 3023.dat
0 STEP
1 70 0 -320 80 1 0 0 0 1 0 0 0 1 3795.dat
1 70 -90 -320 -0 0 0 -1 0 1 0 1 0 0 3460.dat
1 70 -70 -320 40 0 0 -1 0 1 0 1 0 0 3710.dat
1 70 80 -320 40 0 0 -1 0 1 0 1 0 0 3020.dat
1 70 -40 -320 50 1 0 0 0 1 0 0 0 1 3023.dat
1 70 40 -320 50 1 0 0 0 1 0 0 0 1 3023.dat
1 70 -110 -320 10 0 0 -1 0 1 0 1 0 0 3623.dat
1 70 -50 -320 30 1 0 0 0 1 0 0 0 1 3024.dat
1 70 50 -320 30 1 0 0 0 1 0 0 0 1 3024.dat
1 70 110 -320 10 0 0 -1 0 1 0 1 0 0 3623.dat
1 70 90 -320 -40 0 0 -1 0 1 0 1 0 0 3710.dat
1 70 -70 -320 -60 0 0 -1 0 1 0 1 0 0 3710.dat
1 70 70 -320 -60 0 0 -1 0 1 0 1 0 0 3710.dat
1 70 -50 -320 -80 0 0 -1 0 1 0 1 0 0 3710.dat
1 70 50 -320 -80 0 0 -1 0 1 0 1 0 0 3710.dat
1 70 0 -320 -80 1 0 0 0 1 0 0 0 1 3020.dat
1 70 0 -320 -110 1 0 0 0 1 0 0 0 1 3710.dat
1 71 -110 -320 -40 0 0 -1 0 1 0 1 0 0 3023.dat
1 71 110 -320 -40 0 0 -1 0 1 0 1 0 0 3023.dat
0 STEP
1 70 0 -328 80 1 0 0 0 1 0 0 0 1 3795.dat
1 70 -90 -328 -0 0 0 -1 0 1 0 1 0 0 3460.dat
1 70 -70 -328 40 0 0 -1 0 1 0 1 0 0 3710.dat
1 70 80 -328 40 0 0 -1 0 1 0 1 0 0 3020.dat
1 70 -110 -328 20 0 0 -1 0 1 0 1 0 0 3710.dat
1 70 -40 -328 50 1 0 0 0 1 0 0 0 1 3023.dat
1 70 40 -328 50 1 0 0 0 1 0 0 0 1 3023.dat
1 70 110 -328 20 0 0 -1 0 1 0 1 0 0 3710.dat
1 70 -50 -328 30 1 0 0 0 1 0 0 0 1 3024.dat
1 70 50 -328 30 1 0 0 0 1 0 0 0 1 3024.dat
1 70 90 -328 -40 0 0 -1 0 1 0 1 0 0 3710.dat
1 70 -70 -328 -60 0 0 -1 0 1 0 1 0 0 3710.dat
1 70 70 -328 -60 0 0 -1 0 1 0 1 0 0 3710.dat
1 70 -50 -328 -80 0 0 -1 0 1 0 1 0 0 3710.dat
1 70 50 -328 -80 0 0 -1 0 1 0 1 0 0 3710.dat
1 70 -30 -328 -90 0 0 -1 0 1 0 1 0 0 3623.dat
1 70 30 -328 -90 0 0 -1 0 1 0 1 0 0 3623.dat
1 70 0 -328 -110 0 0 -1 0 1 0 1 0 0 3021.dat
1 71 -110 -328 -40 0 0 -1 0 1 0 1 0 0 3023.dat
1 71 110 -328 -40 0 0 -1 0 1 0 1 0 0 3023.dat
0 STEP
1 70 -100 -336 -0 0 0 -1 0 1 0 1 0 0 3020.dat
1 70 -70 -336 20 0 0 -1 0 1 0 1 0 0 3023.dat
1 70 90 -336 20 1 0 0 0 1 0 0 0 1 3021.dat
1 70 100 -336 -30 0 0 -1 0 1 0 1 0 0 3021.dat
1 70 -70 -336 -60 0 0 -1 0 1 0 1 0 0 3710.dat
1 70 70 -336 -60 0 0 -1 0 1 0 1 0 0 3710.dat
1 70 -100 -336 -50 1 0 0 0 1 0 0 0 1 3023.dat
1 70 -50 -336 -80 0 0 -1 0 1 0 1 0 0 3710.dat
1 70 50 -336 -80 0 0 -1 0 1 0 1 0 0 3710.dat
1 70 -90 -336 -80 0 0 -1 0 1 0 1 0 0 3023.dat
1 70 -30 -336 -90 0 0 -1 0 1 0 1 0 0 3623.dat
1 70 30 -336 -90 0 0 -1 0 1 0 1 0 0 3623.dat
1 70 90 -336 -80 0 0 -1 0 1 0 1 0 0 3023.dat
1 70 0 -336 -110 0 0 -1 0 1 0 1 0 0 3021.dat
1 71 0 -336 100 1 0 0 0 1 0 0 0 1 3020.dat
1 71 -60 -336 70 0 0 -1 0 1 0 1 0 0 3021.dat
1 71 60 -336 70 0 0 -1 0 1 0 1 0 0 3021.dat
1 71 -90 -336 60 0 0 -1 0 1 0 1 0 0 3023.dat
1 71 0 -336 70 1 0 0 0 1 0 0 0 1 3710.dat
1 71 90 -336 60 0 0 -1 0 1 0 1 0 0 3023.dat
1 71 -110 -336 50 1 0 0 0 1 0 0 0 1 3024.dat
1 71 -30 -336 50 1 0 0 0 1 0 0 0 1 3024.dat
1 71 30 -336 50 1 0 0 0 1 0 0 0 1 3024.dat
1 71 110 -336 50 1 0 0 0 1 0 0 0 1 3024.dat
0 STEP
1 70 -100 -344 -0 0 0 -1 0 1 0 1 0 0 3020.dat
1 70 -70 -344 30 1 0 0 0 1 0 0 0 1 3024.dat
1 70 90 -344 30 1 0 0 0 1 0 0 0 1 3623.dat
1 70 -130 -344 -0 0 0 -1 0 1 0 1 0 0 3023.dat
1 70 100 -344 -20 0 0 -1 0 1 0 1 0 0 3020.dat
1 70 130 -344 -0 0 0 -1 0 1 0 1 0 0 3023.dat
1 70 -70 -344 -60 0 0 -1 0 1 0 1 0 0 3710.dat
1 70 70 -344 -60 0 0 -1 0 1 0 1 0 0 3710.dat
1 70 -100 -344 -50 1 0 0 0 1 0 0 0 1 3023.dat
1 70 -50 -344 -80 0 0 -1 0 1 0 1 0 0 3710.dat
1 70 50 -344 -80 0 0 -1 0 1 0 1 0 0 3710.dat
1 70 -90 -344 -80 0 0 -1 0 1 0 1 0 0 3023.dat
1 70 -30 -344 -90 0 0 -1 0 1 0 1 0 0 3623.dat
1 70 30 -344 -90 0 0 -1 0 1 0 1 0 0 3623.dat
1 70 90 -344 -80 0 0 -1 0 1 0 1 0 0 3023.dat
1 70 0 -344 -110 0 0 -1 0 1 0 1 0 0 3021.dat
1 71 0 -344 100 1 0 0 0 1 0 0 0 1 3795.dat
1 71 -70 -344 70 0 0 -1 0 1 0 1 0 0 3623.dat
1 71 70 -344 70 0 0 -1 0 1 0 1 0 0 3623.dat
1 71 -90 -344 60 0 0 -1 0 1 0 1 0 0 3023.dat
1 71 0 -344 70 1 0 0 0 1 0 0 0 1 3666.dat
1 71 90 -344 60 0 0 -1 0 1 0 1 0 0 3023.dat
1 71 -110 -344 50 1 0 0 0 1 0 0 0 1 3024.dat
1 71 -40 -344 50 1 0 0 0 1 0 0 0 1 3023.dat
1 71 40 -344 50 1 0 0 0 1 0 0 0 1 3023.dat
1 71 110 -344 50 1 0 0 0 1 0 0 0 1 3024.dat
0 STEP
1 70 -100 -352 -20 0 0 -1 0 1 0 1 0 0 3795.dat
1 70 -70 -352 30 1 0 0 0 1 0 0 0 1 3024.dat
1 70 90 -352 30 1 0 0 0 1 0 0 0 1 3623.dat
1 70 -130 -352 -0 0 0 -1 0 1 0 1 0 0 3023.dat
1 70 100 -352 -20 0 0 -1 0 1 0 1 0 0 3020.dat
1 70 130 -352 -0 0 0 -1 0 1 0 1 0 0 3023.dat
1 70 -70 -352 -60 0 0 -1 0 1 0 1 0 0 3710.dat
1 70 70 -352 -60 0 0 -1 0 1 0 1 0 0 3710.dat
1 70 -40 -352 -90 0 0 -1 0 1 0 1 0 0 3021.dat
1 70 40 -352 -90 0 0 -1 0 1 0 1 0 0 3021.dat
1 70 100 -352 -70 1 0 0 0 1 0 0 0 1 3023.dat
1 70 -90 -352 -90 1 0 0 0 1 0 0 0 1 3024.dat
1 70 0 -352 -110 0 0 -1 0 1 0 1 0 0 3021.dat
1 70 90 -352 -90 1 0 0 0 1 0 0 0 1 3024.dat
1 71 0 -352 100 1 0 0 0 1 0 0 0 1 3795.dat
1 71 -70 -352 70 0 0 -1 0 1 0 1 0 0 3623.dat
1 71 70 -352 70 0 0 -1 0 1 0 1 0 0 3623.dat
1 71 -90 -352 60 0 0 -1 0 1 0 1 0 0 3023.dat
1 71 0 -352 70 1 0 0 0 1 0 0 0 1 3666.dat
1 71 90 -352 60 0 0 -1 0 1 0 1 0 0 3023.dat
1 71 -110 -352 50 1 0 0 0 1 0 0 0 1 3024.dat
1 71 -50 -352 50 1 0 0 0 1 0 0 0 1 3024.dat
1 71 50 -352 50 1 0 0 0 1 0 0 0 1 3024.dat
1 71 110 -352 50 1 0 0 0 1 0 0 0 1 3024.dat
0 STEP
1 0 -70 -360 -90 1 0 0 0 1 0 0 0 1 3024.dat
1 0 70 -360 -90 1 0 0 0 1 0 0 0 1 3024.dat
1 0 -40 -360 -110 1 0 0 0 1 0 0 0 1 3023.dat
1 0 40 -360 -110 1 0 0 0 1 0 0 0 1 3023.dat
1 70 -100 -360 -20 0 0 -1 0 1 0 1 0 0 3795.dat
1 70 -70 -360 30 1 0 0 0 1 0 0 0 1 3024.dat
1 70 90 -360 30 1 0 0 0 1 0 0 0 1 3623.dat
1 70 -130 -360 -0 0 0 -1 0 1 0 1 0 0 3023.dat
1 70 100 -360 -20 0 0 -1 0 1 0 1 0 0 3020.dat
1 70 130 -360 -0 0 0 -1 0 1 0 1 0 0 3023.dat
1 70 -70 -360 -50 0 0 -1 0 1 0 1 0 0 3623.dat
1 70 70 -360 -50 0 0 -1 0 1 0 1 0 0 3623.dat
1 70 -40 -360 -80 1 0 0 0 1 0 0 0 1 3022.dat
1 70 40 -360 -80 1 0 0 0 1 0 0 0 1 3022.dat
1 70 100 -360 -70 1 0 0 0 1 0 0 0 1 3023.dat
1 70 -90 -360 -90 1 0 0 0 1 0 0 0 1 3024.dat
1 70 0 -360 -100 1 0 0 0 1 0 0 0 1 3022.dat
1 70 90 -360 -90 1 0 0 0 1 0 0 0 1 3024.dat
1 70 0 -360 -130 1 0 0 0 1 0 0 0 1 3069b.dat
1 71 0 -360 100 1 0 0 0 1 0 0 0 1 3795.dat
1 71 -80 -360 70 0 0 -1 0 1 0 1 0 0 3021.dat
1 71 80 -360 70 0 0 -1 0 1 0 1 0 0 3021.dat
1 71 -110 -360 60 0 0 -1 0 1 0 1 0 0 3023.dat
1 71 -40 -360 70 1 0 0 0 1 0 0 0 1 3023.dat
1 71 40 -360 70 1 0 0 0 1 0 0 0 1 3023.dat
1 71 110 -360 60 0 0 -1 0 1 0 1 0 0 3023.dat
1 71 -50 -360 50 1 0 0 0 1 0 0 0 1 3024.dat
1 71 50 -360 50 1 0 0 0 1 0 0 0 1 3024.dat
0 STEP
1 0 -90 -368 -90 1 0 0 0 1 0 0 0 1 3024.dat
1 0 90 -368 -90 1 0 0 0 1 0 0 0 1 3024.dat
1 15 -70 -368 -90 1 0 0 0 1 0 0 0 1 3024.dat
1 15 70 -368 -90 1 0 0 0 1 0 0 0 1 3024.dat
1 15 -40 -368 -110 1 0 0 0 1 0 0 0 1 3023.dat
1 15 40 -368 -110 1 0 0 0 1 0 0 0 1 3023.dat
1 70 -100 -368 -20 0 0 -1 0 1 0 1 0 0 3795.dat
1 70 -70 -368 30 1 0 0 0 1 0 0 0 1 3024.dat
1 70 90 -368 30 1 0 0 0 1 0 0 0 1 3623.dat
1 70 -130 -368 -0 0 0 -1 0 1 0 1 0 0 3023.dat
1 70 100 -368 -20 0 0 -1 0 1 0 1 0 0 3020.dat
1 70 130 -368 -0 0 0 -1 0 1 0 1 0 0 3023.dat
1 70 -70 -368 -50 0 0 -1 0 1 0 1 0 0 3623.dat
1 70 70 -368 -50 0 0 -1 0 1 0 1 0 0 3623.dat
1 70 -40 -368 -80 1 0 0 0 1 0 0 0 1 3022.dat
1 70 40 -368 -80 1 0 0 0 1 0 0 0 1 3022.dat
1 70 100 -368 -70 1 0 0 0 1 0 0 0 1 3023.dat
1 70 0 -368 -100 1 0 0 0 1 0 0 0 1 3022.dat
1 71 0 -368 100 1 0 0 0 1 0 0 0 1 3795.dat
1 71 -80 -368 70 0 0 -1 0 1 0 1 0 0 3021.dat
1 71 80 -368 70 0 0 -1 0 1 0 1 0 0 3021.dat
1 71 -110 -368 60 0 0 -1 0 1 0 1 0 0 3023.dat
1 71 -40 -368 70 1 0 0 0 1 0 0 0 1 3023.dat
1 71 40 -368 70 1 0 0 0 1 0 0 0 1 3023.dat
1 71 110 -368 60 0 0 -1 0 1 0 1 0 0 3023.dat
1 71 -50 -368 50 1 0 0 0 1 0 0 0 1 3024.dat
1 71 50 -368 50 1 0 0 0 1 0 0 0 1 3024.dat
0 STEP
1 0 -90 -376 -90 1 0 0 0 1 0 0 0 1 3024.dat
1 0 90 -376 -90 1 0 0 0 1 0 0 0 1 3024.dat
1 15 -70 -376 -90 1 0 0 0 1 0 0 0 1 3024.dat
1 15 70 -376 -90 1 0 0 0 1 0 0 0 1 3024.dat
1 15 -40 -376 -110 1 0 0 0 1 0 0 0 1 3023.dat
1 15 40 -376 -110 1 0 0 0 1 0 0 0 1 3023.dat
1 70 -100 -376 -0 0 0 -1 0 1 0 1 0 0 3020.dat
1 70 100 -376 -0 0 0 -1 0 1 0 1 0 0 3020.dat
1 70 -130 -376 -0 0 0 -1 0 1 0 1 0 0 3023.dat
1 70 130 -376 -0 0 0 -1 0 1 0 1 0 0 3023.dat
1 70 -70 -376 -50 0 0 -1 0 1 0 1 0 0 3623.dat
1 70 70 -376 -50 0 0 -1 0 1 0 1 0 0 3623.dat
1 70 -100 -376 -50 1 0 0 0 1 0 0 0 1 3023.dat
1 70 100 -376 -50 1 0 0 0 1 0 0 0 1 3023.dat
1 70 -90 -376 -70 1 0 0 0 1 0 0 0 1 3024.dat
1 70 -40 -376 -80 1 0 0 0 1 0 0 0 1 3022.dat
1 70 40 -376 -80 1 0 0 0 1 0 0 0 1 3022.dat
1 70 90 -376 -70 1 0 0 0 1 0 0 0 1 3024.dat
1 70 0 -376 -100 1 0 0 0 1 0 0 0 1 3022.dat
1 70 -110 -376 -70 1 0 0 0 1 0 0 0 1 3070b.dat
1 70 110 -376 -70 1 0 0 0 1 0 0 0 1 3070b.dat
1 71 0 -376 100 1 0 0 0 1 0 0 0 1 3795.dat
1 71 -80 -376 70 0 0 -1 0 1 0 1 0 0 3021.dat
1 71 80 -376 70 0 0 -1 0 1 0 1 0 0 3021.dat
1 71 -110 -376 60 0 0 -1 0 1 0 1 0 0 3023.dat
1 71 -40 -376 70 1 0 0 0 1 0 0 0 1 3023.dat
1 71 40 -376 70 1 0 0 0 1 0 0 0 1 3023.dat
1 71 110 -376 60 0 0 -1 0 1 0 1 0 0 3023.dat
0 STEP
1 0 -90 -384 -90 1 0 0 0 1 0 0 0 1 3024.dat
1 0 90 -384 -90 1 0 0 0 1 0 0 0 1 3024.dat
1 0 -50 -384 -110 1 0 0 0 1 0 0 0 1 3024.dat
1 0 50 -384 -110 1 0 0 0 1 0 0 0 1 3024.dat
1 15 -70 -384 -90 1 0 0 0 1 0 0 0 1 3024.dat
1 15 70 -384 -90 1 0 0 0 1 0 0 0 1 3024.dat
1 15 -30 -384 -110 1 0 0 0 1 0 0 0 1 3024.dat
1 15 30 -384 -110 1 0 0 0 1 0 0 0 1 3024.dat
1 70 -100 -384 -0 0 0 -1 0 1 0 1 0 0 3020.dat
1 70 100 -384 -0 0 0 -1 0 1 0 1 0 0 3020.dat
1 70 -130 -384 -0 0 0 -1 0 1 0 1 0 0 3023.dat
1 70 130 -384 -0 0 0 -1 0 1 0 1 0 0 3023.dat
1 70 -70 -384 -50 0 0 -1 0 1 0 1 0 0 3623.dat
1 70 70 -384 -50 0 0 -1 0 1 0 1 0 0 3623.dat
1 70 -100 -384 -50 1 0 0 0 1 0 0 0 1 3023.dat
1 70 -50 -384 -70 0 0 -1 0 1 0 1 0 0 3623.dat
1 70 50 -384 -70 0 0 -1 0 1 0 1 0 0 3623.dat
1 70 100 -384 -50 1 0 0 0 1 0 0 0 1 3023.dat
1 70 -90 -384 -70 1 0 0 0 1 0 0 0 1 3024.dat
1 70 -30 -384 -80 0 0 -1 0 1 0 1 0 0 3023.dat
1 70 30 -384 -80 0 0 -1 0 1 0 1 0 0 3023.dat
1 70 90 -384 -70 1 0 0 0 1 0 0 0 1 3024.dat
1 70 0 -384 -100 1 0 0 0 1 0 0 0 1 3022.dat
1 71 0 -384 100 1 0 0 0 1 0 0 0 1 3795.dat
1 71 -80 -384 70 0 0 -1 0 1 0 1 0 0 3021.dat
1 71 80 -384 70 0 0 -1 0 1 0 1 0 0 3021.dat
1 71 -110 -384 60 0 0 -1 0 1 0 1 0 0 3023.dat
1 71 -40 -384 70 1 0 0 0 1 0 0 0 1 3023.dat
1 71 40 -384 70 1 0 0 0 1 0 0 0 1 3023.dat
1 71 110 -384 60 0 0 -1 0 1 0 1 0 0 3023.dat
0 STEP
1 0 -50 -392 -110 1 0 0 0 1 0 0 0 1 3024.dat
1 0 0 -392 -110 1 0 0 0 1 0 0 0 1 3023.dat
1 0 50 -392 -110 1 0 0 0 1 0 0 0 1 3024.dat
1 0 -90 -392 -90 1 0 0 0 1 0 0 0 1 3070b.dat
1 0 90 -392 -90 1 0 0 0 1 0 0 0 1 3070b.dat
1 15 -70 -392 -90 1 0 0 0 1 0 0 0 1 3024.dat
1 15 70 -392 -90 1 0 0 0 1 0 0 0 1 3024.dat
1 15 -30 -392 -110 1 0 0 0 1 0 0 0 1 3024.dat
1 15 30 -392 -110 1 0 0 0 1 0 0 0 1 3024.dat
1 70 -100 -392 -0 0 0 -1 0 1 0 1 0 0 3020.dat
1 70 -70 -392 30 1 0 0 0 1 0 0 0 1 3024.dat
1 70 90 -392 30 1 0 0 0 1 0 0 0 1 3623.dat
1 70 100 -392 -20 0 0 -1 0 1 0 1 0 0 3020.dat
1 70 -70 -392 -50 0 0 -1 0 1 0 1 0 0 3623.dat
1 70 70 -392 -50 0 0 -1 0 1 0 1 0 0 3623.dat
1 70 -100 -392 -50 1 0 0 0 1 0 0 0 1 3023.dat
1 70 -50 -392 -70 0 0 -1 0 1 0 1 0 0 3623.dat
1 70 50 -392 -70 0 0 -1 0 1 0 1 0 0 3623.dat
1 70 -90 -392 -70 1 0 0 0 1 0 0 0 1 3024.dat
1 70 -30 -392 -80 0 0 -1 0 1 0 1 0 0 3023.dat
1 70 30 -392 -80 0 0 -1 0 1 0 1 0 0 3023.dat
1 70 90 -392 -70 1 0 0 0 1 0 0 0 1 3024.dat
1 70 0 -392 -90 1 0 0 0 1 0 0 0 1 3023.dat
1 71 0 -392 100 1 0 0 0 1 0 0 0 1 3795.dat
1 71 -80 -392 70 0 0 -1 0 1 0 1 0 0 3021.dat
1 71 80 -392 70 0 0 -1 0 1 0 1 0 0 3021.dat
1 71 -110 -392 60 0 0 -1 0 1 0 1 0 0 3023.dat
1 71 -40 -392 70 1 0 0 0 1 0 0 0 1 3023.dat
1 71 40 -392 70 1 0 0 0 1 0 0 0 1 3023.dat
1 71 110 -392 60 0 0 -1 0 1 0 1 0 0 3023.dat
1 71 -50 -392 50 1 0 0 0 1 0 0 0 1 3024.dat
1 71 50 -392 50 1 0 0 0 1 0 0 0 1 3024.dat
1 71 -130 -392 -0 0 0 -1 0 1 0 1 0 0 3710.dat
1 71 130 -392 -0 0 0 -1 0 1 0 1 0 0 3710.dat
0 STEP
1 0 -90 -400 -70 1 0 0 0 1 0 0 0 1 3024.dat
1 0 90 -400 -70 1 0 0 0 1 0 0 0 1 3024.dat
1 15 -70 -400 -90 1 0 0 0 1 0 0 0 1 3024.dat
1 15 70 -400 -90 1 0 0 0 1 0 0 0 1 3024.dat
1 15 -40 -400 -110 1 0 0 0 1 0 0 0 1 3023.dat
1 15 40 -400 -110 1 0 0 0 1 0 0 0 1 3023.dat
1 70 -100 -400 -0 0 0 -1 0 1 0 1 0 0 3020.dat
1 70 -70 -400 30 1 0 0 0 1 0 0 0 1 3024.dat
1 70 90 -400 30 1 0 0 0 1 0 0 0 1 3623.dat
1 70 100 -400 -20 0 0 -1 0 1 0 1 0 0 3020.dat
1 70 -70 -400 -50 0 0 -1 0 1 0 1 0 0 3623.dat
1 70 70 -400 -50 0 0 -1 0 1 0 1 0 0 3623.dat
1 70 -100 -400 -50 1 0 0 0 1 0 0 0 1 3023.dat
1 70 -50 -400 -70 0 0 -1 0 1 0 1 0 0 3623.dat
1 70 50 -400 -70 0 0 -1 0 1 0 1 0 0 3623.dat
1 70 0 -400 -80 1 0 0 0 1 0 0 0 1 3020.dat
1 70 0 -400 -110 1 0 0 0 1 0 0 0 1 3023.dat
1 71 0 -400 100 1 0 0 0 1 0 0 0 1 3795.dat
1 71 -80 -400 70 0 0 -1 0 1 0 1 0 0 3021.dat
1 71 80 -400 70 0 0 -1 0 1 0 1 0 0 3021.dat
1 71 -110 -400 60 0 0 -1 0 1 0 1 0 0 3023.dat
1 71 -40 -400 70 1 0 0 0 1 0 0 0 1 3023.dat
1 71 40 -400 70 1 0 0 0 1 0 0 0 1 3023.dat
1 71 110 -400 60 0 0 -1 0 1 0 1 0 0 3023.dat
1 71 -50 -400 50 1 0 0 0 1 0 0 0 1 3024.dat
1 71 50 -400 50 1 0 0 0 1 0 0 0 1 3024.dat
1 71 -130 -400 -0 0 0 -1 0 1 0 1 0 0 3710.dat
1 71 130 -400 -0 0 0 -1 0 1 0 1 0 0 3710.dat
0 STEP
1 0 -70 -408 -90 1 0 0 0 1 0 0 0 1 3024.dat
1 0 70 -408 -90 1 0 0 0 1 0 0 0 1 3024.dat
1 0 -30 -408 -110 1 0 0 0 1 0 0 0 1 3024.dat
1 0 30 -408 -110 1 0 0 0 1 0 0 0 1 3024.dat
1 0 -50 -408 -110 1 0 0 0 1 0 0 0 1 3070b.dat
1 0 50 -408 -110 1 0 0 0 1 0 0 0 1 3070b.dat
1 70 -100 -408 -0 0 0 -1 0 1 0 1 0 0 3020.dat
1 70 -70 -408 30 1 0 0 0 1 0 0 0 1 3024.dat
1 70 90 -408 30 1 0 0 0 1 0 0 0 1 3623.dat
1 70 100 -408 -20 0 0 -1 0 1 0 1 0 0 3020.dat
1 70 -70 -408 -50 0 0 -1 0 1 0 1 0 0 3623.dat
1 70 70 -408 -50 0 0 -1 0 1 0 1 0 0 3623.dat
1 70 -100 -408 -50 1 0 0 0 1 0 0 0 1 3023.dat
1 70 -50 -408 -70 0 0 -1 0 1 0 1 0 0 3623.dat
1 70 50 -408 -70 0 0 -1 0 1 0 1 0 0 3623.dat
1 70 -90 -408 -70 1 0 0 0 1 0 0 0 1 3024.dat
1 70 -30 -408 -80 0 0 -1 0 1 0 1 0 0 3023.dat
1 70 30 -408 -80 0 0 -1 0 1 0 1 0 0 3023.dat
1 70 90 -408 -70 1 0 0 0 1 0 0 0 1 3024.dat
1 70 0 -408 -100 1 0 0 0 1 0 0 0 1 3022.dat
1 71 0 -408 100 1 0 0 0 1 0 0 0 1 3795.dat
1 71 -70 -408 70 0 0 -1 0 1 0 1 0 0 3623.dat
1 71 70 -408 70 0 0 -1 0 1 0 1 0 0 3623.dat
1 71 -90 -408 60 0 0 -1 0 1 0 1 0 0 3023.dat
1 71 0 -408 70 1 0 0 0 1 0 0 0 1 3666.dat
1 71 90 -408 60 0 0 -1 0 1 0 1 0 0 3023.dat
1 71 -110 -408 50 1 0 0 0 1 0 0 0 1 3024.dat
1 71 -50 -408 50 1 0 0 0 1 0 0 0 1 3024.dat
1 71 50 -408 50 1 0 0 0 1 0 0 0 1 3024.dat
1 71 110 -408 50 1 0 0 0 1 0 0 0 1 3024.dat
1 71 -130 -408 -0 0 0 -1 0 1 0 1 0 0 3710.dat
1 71 130 -408 -0 0 0 -1 0 1 0 1 0 0 3710.dat
0 STEP
1 70 -100 -416 -0 0 0 -1 0 1 0 1 0 0 3020.dat
1 70 -70 -416 30 1 0 0 0 1 0 0 0 1 3024.dat
1 70 90 -416 30 1 0 0 0 1 0 0 0 1 3623.dat
1 70 100 -416 -20 0 0 -1 0 1 0 1 0 0 3020.dat
1 70 -70 -416 -40 0 0 -1 0 1 0 1 0 0 3710.dat
1 70 70 -416 -40 0 0 -1 0 1 0 1 0 0 3710.dat
1 70 -100 -416 -50 1 0 0 0 1 0 0 0 1 3023.dat
1 70 -50 -416 -70 0 0 -1 0 1 0 1 0 0 3623.dat
1 70 50 -416 -70 0 0 -1 0 1 0 1 0 0 3623.dat
1 70 -90 -416 -70 1 0 0 0 1 0 0 0 1 3024.dat
1 70 0 -416 -80 1 0 0 0 1 0 0 0 1 3020.dat
1 70 90 -416 -70 1 0 0 0 1 0 0 0 1 3024.dat
1 70 -70 -416 -90 1 0 0 0 1 0 0 0 1 3024.dat
1 70 70 -416 -90 1 0 0 0 1 0 0 0 1 3024.dat
1 70 0 -416 -110 1 0 0 0 1 0 0 0 1 3710.dat
1 71 0 -416 100 1 0 0 0 1 0 0 0 1 3795.dat
1 71 -70 -416 70 0 0 -1 0 1 0 1 0 0 3623.dat
1 71 70 -416 70 0 0 -1 0 1 0 1 0 0 3623.dat
1 71 -90 -416 60 0 0 -1 0 1 0 1 0 0 3023.dat
1 71 0 -416 70 1 0 0 0 1 0 0 0 1 3666.dat
1 71 90 -416 60 0 0 -1 0 1 0 1 0 0 3023.dat
1 71 -110 -416 50 1 0 0 0 1 0 0 0 1 3024.dat
1 71 -50 -416 50 1 0 0 0 1 0 0 0 1 3024.dat
1 71 50 -416 50 1 0 0 0 1 0 0 0 1 3024.dat
1 71 110 -416 50 1 0 0 0 1 0 0 0 1 3024.dat
1 71 -130 -416 -10 0 0 -1 0 1 0 1 0 0 3623.dat
1 71 130 -416 -10 0 0 -1 0 1 0 1 0 0 3623.dat
0 STEP
1 70 -100 -424 -0 0 0 -1 0 1 0 1 0 0 3020.dat
1 70 -70 -424 -20 0 0 -1 0 1 0 1 0 0 3666.dat
1 70 80 -424 -20 0 0 -1 0 1 0 1 0 0 3795.dat
1 70 110 -424 -0 0 0 -1 0 1 0 1 0 0 3710.dat
1 70 -90 -424 -60 0 0 -1 0 1 0 1 0 0 3023.dat
1 70 -50 -424 -70 0 0 -1 0 1 0 1 0 0 3623.dat
1 70 50 -424 -70 0 0 -1 0 1 0 1 0 0 3623.dat
1 70 0 -424 -80 1 0 0 0 1 0 0 0 1 3020.dat
1 70 -70 -424 -90 1 0 0 0 1 0 0 0 1 3024.dat
1 70 70 -424 -90 1 0 0 0 1 0 0 0 1 3024.dat
1 70 0 -424 -110 1 0 0 0 1 0 0 0 1 3710.dat
1 70 -110 -424 -50 1 0 0 0 1 0 0 0 1 3070b.dat
1 70 110 -424 -50 1 0 0 0 1 0 0 0 1 3070b.dat
1 71 0 -424 100 1 0 0 0 1 0 0 0 1 3020.dat
1 71 -60 -424 70 0 0 -1 0 1 0 1 0 0 3021.dat
1 71 60 -424 70 0 0 -1 0 1 0 1 0 0 3021.dat
1 71 -90 -424 60 0 0 -1 0 1 0 1 0 0 3023.dat
1 71 0 -424 70 1 0 0 0 1 0 0 0 1 3710.dat
1 71 90 -424 60 0 0 -1 0 1 0 1 0 0 3023.dat
1 71 -110 -424 50 1 0 0 0 1 0 0 0 1 3024.dat
1 71 110 -424 50 1 0 0 0 1 0 0 0 1 3024.dat
1 71 -130 -424 -0 0 0 -1 0 1 0 1 0 0 3023.dat
1 71 130 -424 -0 0 0 -1 0 1 0 1 0 0 3023.dat
1 71 -60 -424 -110 1 0 0 0 1 0 0 0 1 3023.dat
1 71 60 -424 -110 1 0 0 0 1 0 0 0 1 3023.dat
1 71 -30 -424 -130 1 0 0 0 1 0 0 0 1 3024.dat
1 71 30 -424 -130 1 0 0 0 1 0 0 0 1 3024.dat
0 STEP
1 70 -80 -432 -20 0 0 -1 0 1 0 1 0 0 3795.dat
1 70 80 -432 -20 0 0 -1 0 1 0 1 0 0 3795.dat
1 70 -110 -432 -10 0 0 -1 0 1 0 1 0 0 3623.dat
1 70 110 -432 -10 0 0 -1 0 1 0 1 0 0 3623.dat
1 70 -50 -432 -60 0 0 -1 0 1 0 1 0 0 3710.dat
1 70 50 -432 -60 0 0 -1 0 1 0 1 0 0 3710.dat
1 70 -30 -432 -70 0 0 -1 0 1 0 1 0 0 3623.dat
1 70 30 -432 -70 0 0 -1 0 1 0 1 0 0 3623.dat
1 70 0 -432 -90 0 0 -1 0 1 0 1 0 0 3021.dat
1 70 -70 -432 -90 1 0 0 0 1 0 0 0 1 3024.dat
1 70 70 -432 -90 1 0 0 0 1 0 0 0 1 3024.dat
1 70 -110 -432 30 1 0 0 0 1 0 0 0 1 3070b.dat
1 70 110 -432 30 1 0 0 0 1 0 0 0 1 3070b.dat
1 70 -30 -432 -110 1 0 0 0 1 0 0 0 1 3070b.dat
1 70 30 -432 -110 1 0 0 0 1 0 0 0 1 3070b.dat
1 71 0 -432 100 1 0 0 0 1 0 0 0 1 3020.dat
1 71 -60 -432 70 0 0 -1 0 1 0 1 0 0 3021.dat
1 71 60 -432 70 0 0 -1 0 1 0 1 0 0 3021.dat
1 71 -90 -432 60 0 0 -1 0 1 0 1 0 0 3023.dat
1 71 0 -432 70 1 0 0 0 1 0 0 0 1 3710.dat
1 71 90 -432 60 0 0 -1 0 1 0 1 0 0 3023.dat
1 71 -110 -432 50 1 0 0 0 1 0 0 0 1 3024.dat
1 71 110 -432 50 1 0 0 0 1 0 0 0 1 3024.dat
1 71 -130 -432 -10 1 0 0 0 1 0 0 0 1 3024.dat
1 71 130 -432 -10 1 0 0 0 1 0 0 0 1 3024.dat
0 STEP
1 70 -80 -440 -0 0 0 -1 0 1 0 1 0 0 3020.dat
1 70 80 -440 -0 0 0 -1 0 1 0 1 0 0 3020.dat
1 70 -110 -440 -10 1 0 0 0 1 0 0 0 1 3024.dat
1 70 110 -440 -10 1 0 0 0 1 0 0 0 1 3024.dat
1 70 -50 -440 -60 0 0 -1 0 1 0 1 0 0 3710.dat
1 70 50 -440 -60 0 0 -1 0 1 0 1 0 0 3710.dat
1 70 -80 -440 -50 1 0 0 0 1 0 0 0 1 3023.dat
1 70 -30 -440 -70 0 0 -1 0 1 0 1 0 0 3623.dat
1 70 30 -440 -70 0 0 -1 0 1 0 1 0 0 3623.dat
1 70 80 -440 -50 1 0 0 0 1 0 0 0 1 3023.dat
1 70 -70 -440 -70 1 0 0 0 1 0 0 0 1 3024.dat
1 70 0 -440 -80 1 0 0 0 1 0 0 0 1 3022.dat
1 70 70 -440 -70 1 0 0 0 1 0 0 0 1 3024.dat
1 70 -110 -440 10 1 0 0 0 1 0 0 0 1 3070b.dat
1 70 110 -440 10 1 0 0 0 1 0 0 0 1 3070b.dat
1 70 -110 -440 -30 1 0 0 0 1 0 0 0 1 3070b.dat
1 70 110 -440 -30 1 0 0 0 1 0 0 0 1 3070b.dat
1 70 -90 -440 -70 1 0 0 0 1 0 0 0 1 3070b.dat
1 70 90 -440 -70 1 0 0 0 1 0 0 0 1 3070b.dat
1 70 -70 -440 -90 1 0 0 0 1 0 0 0 1 3070b.dat
1 70 70 -440 -90 1 0 0 0 1 0 0 0 1 3070b.dat
1 70 0 -440 -110 1 0 0 0 1 0 0 0 1 3069b.dat
1 71 0 -440 100 1 0 0 0 1 0 0 0 1 3020.dat
1 71 -60 -440 70 0 0 -1 0 1 0 1 0 0 3021.dat
1 71 60 -440 70 0 0 -1 0 1 0 1 0 0 3021.dat
1 71 -90 -440 60 0 0 -1 0 1 0 1 0 0 3023.dat
1 71 0 -440 70 1 0 0 0 1 0 0 0 1 3710.dat
1 71 90 -440 60 0 0 -1 0 1 0 1 0 0 3023.dat
1 71 -110 -440 50 1 0 0 0 1 0 0 0 1 3024.dat
1 71 -30 -440 50 1 0 0 0 1 0 0 0 1 3024.dat
1 71 30 -440 50 1 0 0 0 1 0 0 0 1 3024.dat
1 71 110 -440 50 1 0 0 0 1 0 0 0 1 3024.dat
0 STEP
1 70 -80 -448 -0 0 0 -1 0 1 0 1 0 0 3020.dat
1 70 -50 -448 30 1 0 0 0 1 0 0 0 1 3024.dat
1 70 70 -448 30 1 0 0 0 1 0 0 0 1 3623.dat
1 70 80 -448 -20 0 0 -1 0 1 0 1 0 0 3020.dat
1 70 -50 -448 -60 0 0 -1 0 1 0 1 0 0 3710.dat
1 70 50 -448 -60 0 0 -1 0 1 0 1 0 0 3710.dat
1 70 -80 -448 -50 1 0 0 0 1 0 0 0 1 3023.dat
1 70 0 -448 -60 1 0 0 0 1 0 0 0 1 3020.dat
1 70 -70 -448 -70 1 0 0 0 1 0 0 0 1 3024.dat
1 70 70 -448 -70 1 0 0 0 1 0 0 0 1 3024.dat
1 70 0 -448 -90 1 0 0 0 1 0 0 0 1 3710.dat
1 70 -110 -448 -10 1 0 0 0 1 0 0 0 1 3070b.dat
1 70 110 -448 -10 1 0 0 0 1 0 0 0 1 3070b.dat
1 71 0 -448 90 0 0 -1 0 1 0 1 0 0 3021.dat
1 71 -50 -448 80 1 0 0 0 1 0 0 0 1 3021.dat
1 71 50 -448 80 1 0 0 0 1 0 0 0 1 3021.dat
1 71 -90 -448 60 0 0 -1 0 1 0 1 0 0 3023.dat
1 71 90 -448 60 0 0 -1 0 1 0 1 0 0 3023.dat
1 71 -110 -448 50 1 0 0 0 1 0 0 0 1 3024.dat
1 71 -50 -448 50 1 0 0 0 1 0 0 0 1 3623.dat
1 71 50 -448 50 1 0 0 0 1 0 0 0 1 3623.dat
1 71 110 -448 50 1 0 0 0 1 0 0 0 1 3024.dat
0 STEP
1 70 -80 -456 -0 0 0 -1 0 1 0 1 0 0 3020.dat
1 70 -50 -456 -20 0 0 -1 0 1 0 1 0 0 3666.dat
1 70 60 -456 -20 0 0 -1 0 1 0 1 0 0 3795.dat
1 70 90 -456 -0 0 0 -1 0 1 0 1 0 0 3710.dat
1 70 -30 -456 -60 0 0 -1 0 1 0 1 0 0 3710.dat
1 70 30 -456 -60 0 0 -1 0 1 0 1 0 0 3710.dat
1 70 -80 -456 -50 1 0 0 0 1 0 0 0 1 3023.dat
1 70 0 -456 -70 0 0 -1 0 1 0 1 0 0 3021.dat
1 70 90 -456 -50 1 0 0 0 1 0 0 0 1 3024.dat
1 70 -70 -456 -70 1 0 0 0 1 0 0 0 1 3024.dat
1 70 -50 -456 -90 1 0 0 0 1 0 0 0 1 3070b.dat
1 70 50 -456 -90 1 0 0 0 1 0 0 0 1 3070b.dat
1 71 0 -456 80 1 0 0 0 1 0 0 0 1 3795.dat
1 71 -80 -456 60 1 0 0 0 1 0 0 0 1 3022.dat
1 71 80 -456 60 1 0 0 0 1 0 0 0 1 3022.dat
1 71 -40 -456 50 1 0 0 0 1 0 0 0 1 3023.dat
1 71 40 -456 50 1 0 0 0 1 0 0 0 1 3023.dat
0 STEP
1 70 -60 -464 -0 0 0 -1 0 1 0 1 0 0 3020.dat
1 70 60 -464 -0 0 0 -1 0 1 0 1 0 0 3020.dat
1 70 -90 -464 -10 0 0 -1 0 1 0 1 0 0 3623.dat
1 70 90 -464 -10 0 0 -1 0 1 0 1 0 0 3623.dat
1 70 -30 -464 -60 0 0 -1 0 1 0 1 0 0 3710.dat
1 70 30 -464 -60 0 0 -1 0 1 0 1 0 0 3710.dat
1 70 -60 -464 -50 1 0 0 0 1 0 0 0 1 3023.dat
1 70 0 -464 -70 0 0 -1 0 1 0 1 0 0 3021.dat
1 70 60 -464 -50 1 0 0 0 1 0 0 0 1 3023.dat
1 70 -50 -464 -70 1 0 0 0 1 0 0 0 1 3024.dat
1 70 50 -464 -70 1 0 0 0 1 0 0 0 1 3024.dat
1 70 -90 -464 30 1 0 0 0 1 0 0 0 1 3070b.dat
1 70 90 -464 30 1 0 0 0 1 0 0 0 1 3070b.dat
1 70 -90 -464 -50 1 0 0 0 1 0 0 0 1 3070b.dat
1 70 90 -464 -50 1 0 0 0 1 0 0 0 1 3070b.dat
1 70 -70 -464 -70 1 0 0 0 1 0 0 0 1 3070b.dat
1 70 70 -464 -70 1 0 0 0 1 0 0 0 1 3070b.dat
1 71 0 -464 80 1 0 0 0 1 0 0 0 1 3795.dat
1 71 -70 -464 60 0 0 -1 0 1 0 1 0 0 3023.dat
1 71 70 -464 60 0 0 -1 0 1 0 1 0 0 3023.dat
1 71 -90 -464 50 1 0 0 0 1 0 0 0 1 3024.dat
1 71 0 -464 50 1 0 0 0 1 0 0 0 1 3666.dat
1 71 90 -464 50 1 0 0 0 1 0 0 0 1 3024.dat
0 STEP
1 70 -60 -472 -0 0 0 -1 0 1 0 1 0 0 3020.dat
1 70 -30 -472 30 1 0 0 0 1 0 0 0 1 3024.dat
1 70 50 -472 30 1 0 0 0 1 0 0 0 1 3623.dat
1 70 60 -472 -20 0 0 -1 0 1 0 1 0 0 3020.dat
1 70 -90 -472 -10 1 0 0 0 1 0 0 0 1 3024.dat
1 70 90 -472 -10 1 0 0 0 1 0 0 0 1 3024.dat
1 70 -30 -472 -50 0 0 -1 0 1 0 1 0 0 3623.dat
1 70 30 -472 -50 0 0 -1 0 1 0 1 0 0 3623.dat
1 70 -60 -472 -50 1 0 0 0 1 0 0 0 1 3023.dat
1 70 0 -472 -70 0 0 -1 0 1 0 1 0 0 3021.dat
1 70 -50 -472 -70 1 0 0 0 1 0 0 0 1 3024.dat
1 70 50 -472 -70 1 0 0 0 1 0 0 0 1 3024.dat
1 70 -90 -472 10 1 0 0 0 1 0 0 0 1 3070b.dat
1 70 90 -472 10 1 0 0 0 1 0 0 0 1 3070b.dat
1 70 -90 -472 -30 1 0 0 0 1 0 0 0 1 3070b.dat
1 70 90 -472 -30 1 0 0 0 1 0 0 0 1 3070b.dat
1 70 -30 -472 -90 1 0 0 0 1 0 0 0 1 3070b.dat
1 70 30 -472 -90 1 0 0 0 1 0 0 0 1 3070b.dat
1 71 0 -472 80 1 0 0 0 1 0 0 0 1 3795.dat
1 71 -70 -472 60 0 0 -1 0 1 0 1 0 0 3023.dat
1 71 70 -472 60 0 0 -1 0 1 0 1 0 0 3023.dat
1 71 -90 -472 50 1 0 0 0 1 0 0 0 1 3024.dat
1 71 0 -472 50 1 0 0 0 1 0 0 0 1 3666.dat
1 71 90 -472 50 1 0 0 0 1 0 0 0 1 3024.dat
0 STEP
1 70 -60 -480 -0 0 0 -1 0 1 0 1 0 0 3020.dat
1 70 -30 -480 30 1 0 0 0 1 0 0 0 1 3024.dat
1 70 50 -480 30 1 0 0 0 1 0 0 0 1 3623.dat
1 70 60 -480 -20 0 0 -1 0 1 0 1 0 0 3020.dat
1 70 -90 -480 -10 1 0 0 0 1 0 0 0 1 3024.dat
1 70 90 -480 -10 1 0 0 0 1 0 0 0 1 3024.dat
1 70 -30 -480 -50 0 0 -1 0 1 0 1 0 0 3623.dat
1 70 30 -480 -50 0 0 -1 0 1 0 1 0 0 3623.dat
1 70 -60 -480 -50 1 0 0 0 1 0 0 0 1 3023.dat
1 70 0 -480 -70 0 0 -1 0 1 0 1 0 0 3021.dat
1 70 -50 -480 -70 1 0 0 0 1 0 0 0 1 3024.dat
1 70 50 -480 -70 1 0 0 0 1 0 0 0 1 3024.dat
1 71 0 -480 80 1 0 0 0 1 0 0 0 1 3020.dat
1 71 -60 -480 60 1 0 0 0 1 0 0 0 1 3022.dat
1 71 60 -480 60 1 0 0 0 1 0 0 0 1 3022.dat
1 71 -90 -480 50 1 0 0 0 1 0 0 0 1 3024.dat
1 71 0 -480 50 1 0 0 0 1 0 0 0 1 3710.dat
1 71 90 -480 50 1 0 0 0 1 0 0 0 1 3024.dat
0 STEP
1 71 0 -488 60 0 0 -1 0 1 0 1 0 0 3020.dat
1 71 -50 -488 -0 0 0 -1 0 1 0 1 0 0 3460.dat
1 71 -30 -488 50 0 0 -1 0 1 0 1 0 0 3623.dat
1 71 40 -488 50 0 0 -1 0 1 0 1 0 0 3021.dat
1 71 -70 -488 -0 0 0 -1 0 1 0 1 0 0 3666.dat
1 71 70 -488 -0 0 0 -1 0 1 0 1 0 0 3666.dat
1 71 -90 -488 -0 0 0 -1 0 1 0 1 0 0 3710.dat
1 71 90 -488 -0 0 0 -1 0 1 0 1 0 0 3710.dat
1 71 50 -488 -20 0 0 -1 0 1 0 1 0 0 3710.dat
1 71 -30 -488 -60 0 0 -1 0 1 0 1 0 0 3710.dat
1 71 30 -488 -60 0 0 -1 0 1 0 1 0 0 3710.dat
1 71 -90 -488 -50 1 0 0 0 1 0 0 0 1 3024.dat
1 71 0 -488 -70 0 0 -1 0 1 0 1 0 0 3021.dat
1 71 90 -488 -50 1 0 0 0 1 0 0 0 1 3024.dat
1 71 -70 -488 -70 1 0 0 0 1 0 0 0 1 3024.dat
1 71 60 -488 -70 1 0 0 0 1 0 0 0 1 3023.dat
0 STEP
1 71 -40 -496 -0 0 0 -1 0 1 0 1 0 0 3034.dat
1 71 20 -496 60 1 0 0 0 1 0 0 0 1 3020.dat
1 71 -70 -496 -0 0 0 -1 0 1 0 1 0 0 3666.dat
1 71 70 -496 -0 0 0 -1 0 1 0 1 0 0 3666.dat
1 71 -90 -496 -0 0 0 -1 0 1 0 1 0 0 3710.dat
1 71 20 -496 30 1 0 0 0 1 0 0 0 1 3710.dat
1 71 90 -496 -0 0 0 -1 0 1 0 1 0 0 3710.dat
1 71 40 -496 -20 0 0 -1 0 1 0 1 0 0 3020.dat
1 71 0 -496 -60 0 0 -1 0 1 0 1 0 0 3020.dat
1 71 40 -496 -70 1 0 0 0 1 0 0 0 1 3023.dat
1 71 -30 -496 -90 1 0 0 0 1 0 0 0 1 3024.dat
1 71 30 -496 -90 1 0 0 0 1 0 0 0 1 3024.dat
0 STEP
1 71 0 -504 40 1 0 0 0 1 0 0 0 1 3031.dat
1 71 -60 -504 -0 0 0 -1 0 1 0 1 0 0 3795.dat
1 71 60 -504 -0 0 0 -1 0 1 0 1 0 0 3795.dat
1 71 -90 -504 -0 0 0 -1 0 1 0 1 0 0 3023.dat
1 71 90 -504 -0 0 0 -1 0 1 0 1 0 0 3023.dat
1 71 -30 -504 -40 0 0 -1 0 1 0 1 0 0 3710.dat
1 71 30 -504 -40 0 0 -1 0 1 0 1 0 0 3710.dat
1 71 0 -504 -50 0 0 -1 0 1 0 1 0 0 3021.dat
1 71 -50 -504 -70 1 0 0 0 1 0 0 0 1 3024.dat
1 71 50 -504 -70 1 0 0 0 1 0 0 0 1 3024.dat
0 STEP
1 71 0 -512 -0 0 0 -1 0 1 0 1 0 0 3034.dat
1 71 -40 -512 -0 0 0 -1 0 1 0 1 0 0 3795.dat
1 71 40 -512 -0 0 0 -1 0 1 0 1 0 0 3795.dat
1 71 -70 -512 -0 0 0 -1 0 1 0 1 0 0 3710.dat
1 71 70 -512 -0 0 0 -1 0 1 0 1 0 0 3710.dat
1 71 -30 -512 -70 1 0 0 0 1 0 0 0 1 3024.dat
1 71 30 -512 -70 1 0 0 0 1 0 0 0 1 3024.dat
0 STEP
1 71 0 -520 -0 0 0 -1 0 1 0 1 0 0 3032.dat
1 71 -50 -520 -0 0 0 -1 0 1 0 1 0 0 3710.dat
1 71 50 -520 -0 0 0 -1 0 1 0 1 0 0 3710.dat
1 71 -70 -520 -10 0 0 -1 0 1 0 1 0 0 3623.dat
1 71 70 -520 -10 0 0 -1 0 1 0 1 0 0 3623.dat
1 71 -50 -520 -50 1 0 0 0 1 0 0 0 1 3024.dat
1 71 50 -520 -50 1 0 0 0 1 0 0 0 1 3024.dat
1 71 0 -520 -70 1 0 0 0 1 0 0 0 1 3023.dat
0 STEP
1 71 0 -528 -0 0 0 -1 0 1 0 1 0 0 3795.dat
1 71 -40 -528 -0 0 0 -1 0 1 0 1 0 0 3020.dat
1 71 40 -528 -0 0 0 -1 0 1 0 1 0 0 3020.dat
1 71 -30 -528 -50 1 0 0 0 1 0 0 0 1 3024.dat
1 71 30 -528 -50 1 0 0 0 1 0 0 0 1 3024.dat
0 STEP
1 71 0 -536 -0 1 0 0 0 1 0 0 0 1 3031.dat
1 71 -50 -536 -10 1 0 0 0 1 0 0 0 1 3024.dat
1 71 50 -536 -10 1 0 0 0 1 0 0 0 1 3024.dat
0 STEP
