0 Professor Quill
0 Name: quill.ldr
0 Author: aitutors.me brick-built faculty
0 !LICENSE Model: see repository licence; part geometry LDraw.org CC BY 4.0
0 // units: LDU, -y up
0 // 1517 parts, one step per plate layer

1 72 -120 -8 80 1 0 0 0 1 0 0 0 1 3029.dat
1 72 120 -8 80 1 0 0 0 1 0 0 0 1 3029.dat
1 72 -120 -8 -0 1 0 0 0 1 0 0 0 1 3029.dat
1 72 120 -8 -0 1 0 0 0 1 0 0 0 1 3029.dat
1 72 -120 -8 -80 1 0 0 0 1 0 0 0 1 3029.dat
1 72 120 -8 -80 1 0 0 0 1 0 0 0 1 3029.dat
1 72 -120 -8 -140 1 0 0 0 1 0 0 0 1 2445.dat
1 72 120 -8 -140 1 0 0 0 1 0 0 0 1 2445.dat
0 STEP
1 72 -120 -16 80 1 0 0 0 1 0 0 0 1 3029.dat
1 72 120 -16 80 1 0 0 0 1 0 0 0 1 3029.dat
1 72 -120 -16 -0 1 0 0 0 1 0 0 0 1 3029.dat
1 72 120 -16 -0 1 0 0 0 1 0 0 0 1 3029.dat
1 72 -120 -16 -80 1 0 0 0 1 0 0 0 1 3029.dat
1 72 120 -16 -80 1 0 0 0 1 0 0 0 1 3029.dat
1 72 -120 -16 -140 1 0 0 0 1 0 0 0 1 2445.dat
1 72 120 -16 -140 1 0 0 0 1 0 0 0 1 2445.dat
0 STEP
1 72 0 -24 80 1 0 0 0 1 0 0 0 1 3832.dat
1 72 -160 -24 -0 0 0 -1 0 1 0 1 0 0 3034.dat
1 72 -120 -24 60 1 0 0 0 1 0 0 0 1 3022.dat
1 72 140 -24 60 1 0 0 0 1 0 0 0 1 3020.dat
1 72 -80 -24 50 1 0 0 0 1 0 0 0 1 3023.dat
1 72 80 -24 50 1 0 0 0 1 0 0 0 1 3023.dat
1 72 160 -24 -20 0 0 -1 0 1 0 1 0 0 3795.dat
1 72 -100 -24 -60 1 0 0 0 1 0 0 0 1 3020.dat
1 72 100 -24 -60 1 0 0 0 1 0 0 0 1 3020.dat
1 72 0 -24 -80 1 0 0 0 1 0 0 0 1 3795.dat
1 72 -80 -24 -90 1 0 0 0 1 0 0 0 1 3023.dat
1 72 80 -24 -90 1 0 0 0 1 0 0 0 1 3023.dat
1 72 -160 -24 110 1 0 0 0 1 0 0 0 1 4162.dat
1 72 0 -24 110 1 0 0 0 1 0 0 0 1 4162.dat
1 72 160 -24 110 1 0 0 0 1 0 0 0 1 4162.dat
1 72 -230 -24 20 0 0 -1 0 1 0 1 0 0 4162.dat
1 72 -210 -24 20 0 0 -1 0 1 0 1 0 0 4162.dat
1 72 -190 -24 20 0 0 -1 0 1 0 1 0 0 4162.dat
1 72 -140 -24 90 1 0 0 0 1 0 0 0 1 2431.dat
1 72 160 -24 90 1 0 0 0 1 0 0 0 1 6636.dat
1 72 230 -24 20 0 0 -1 0 1 0 1 0 0 4162.dat
1 72 190 -24 -0 0 0 -1 0 1 0 1 0 0 4162.dat
1 72 210 -24 -0 0 0 -1 0 1 0 1 0 0 4162.dat
1 72 -230 -24 -100 0 0 -1 0 1 0 1 0 0 2431.dat
1 72 -210 -24 -100 0 0 -1 0 1 0 1 0 0 2431.dat
1 72 -190 -24 -100 0 0 -1 0 1 0 1 0 0 2431.dat
1 72 230 -24 -100 0 0 -1 0 1 0 1 0 0 2431.dat
1 72 -140 -24 -90 1 0 0 0 1 0 0 0 1 2431.dat
1 72 160 -24 -90 1 0 0 0 1 0 0 0 1 6636.dat
1 72 -100 -24 -110 1 0 0 0 1 0 0 0 1 4162.dat
1 72 60 -24 -110 1 0 0 0 1 0 0 0 1 4162.dat
1 72 180 -24 -110 1 0 0 0 1 0 0 0 1 2431.dat
1 72 -100 -24 -130 1 0 0 0 1 0 0 0 1 4162.dat
1 72 60 -24 -130 1 0 0 0 1 0 0 0 1 4162.dat
1 72 180 -24 -130 1 0 0 0 1 0 0 0 1 2431.dat
1 72 -160 -24 -150 1 0 0 0 1 0 0 0 1 4162.dat
1 72 0 -24 -150 1 0 0 0 1 0 0 0 1 4162.dat
1 72 160 -24 -150 1 0 0 0 1 0 0 0 1 4162.dat
0 STEP
1 191 0 -32 80 1 0 0 0 1 0 0 0 1 3832.dat
1 191 -160 -32 -0 0 0 -1 0 1 0 1 0 0 3034.dat
1 191 -120 -32 60 1 0 0 0 1 0 0 0 1 3022.dat
1 191 140 -32 60 1 0 0 0 1 0 0 0 1 3020.dat
1 191 -80 -32 50 1 0 0 0 1 0 0 0 1 3023.dat
1 191 80 -32 50 1 0 0 0 1 0 0 0 1 3023.dat
1 191 160 -32 -20 0 0 -1 0 1 0 1 0 0 3795.dat
1 191 -100 -32 -60 1 0 0 0 1 0 0 0 1 3020.dat
1 191 100 -32 -60 1 0 0 0 1 0 0 0 1 3020.dat
1 191 0 -32 -80 1 0 0 0 1 0 0 0 1 3795.dat
1 191 -80 -32 -90 1 0 0 0 1 0 0 0 1 3023.dat
1 191 80 -32 -90 1 0 0 0 1 0 0 0 1 3023.dat
0 STEP
1 191 0 -40 80 1 0 0 0 1 0 0 0 1 3832.dat
1 191 -160 -40 -0 0 0 -1 0 1 0 1 0 0 3034.dat
1 191 -120 -40 60 1 0 0 0 1 0 0 0 1 3022.dat
1 191 140 -40 60 1 0 0 0 1 0 0 0 1 3020.dat
1 191 -80 -40 50 1 0 0 0 1 0 0 0 1 3023.dat
1 191 80 -40 50 1 0 0 0 1 0 0 0 1 3023.dat
1 191 160 -40 -20 0 0 -1 0 1 0 1 0 0 3795.dat
1 191 -190 -40 -20 0 0 -1 0 1 0 1 0 0 3023.dat
1 191 190 -40 -20 0 0 -1 0 1 0 1 0 0 3023.dat
1 191 -100 -40 -60 1 0 0 0 1 0 0 0 1 3020.dat
1 191 100 -40 -60 1 0 0 0 1 0 0 0 1 3020.dat
1 191 0 -40 -80 1 0 0 0 1 0 0 0 1 3795.dat
1 191 -80 -40 -90 1 0 0 0 1 0 0 0 1 3023.dat
1 191 80 -40 -90 1 0 0 0 1 0 0 0 1 3023.dat
0 STEP
1 191 0 -48 80 1 0 0 0 1 0 0 0 1 3832.dat
1 191 -160 -48 -0 0 0 -1 0 1 0 1 0 0 3034.dat
1 191 -120 -48 60 1 0 0 0 1 0 0 0 1 3022.dat
1 191 140 -48 60 1 0 0 0 1 0 0 0 1 3020.dat
1 191 -80 -48 50 1 0 0 0 1 0 0 0 1 3023.dat
1 191 80 -48 50 1 0 0 0 1 0 0 0 1 3023.dat
1 191 160 -48 -20 0 0 -1 0 1 0 1 0 0 3795.dat
1 191 -190 -48 -20 0 0 -1 0 1 0 1 0 0 3023.dat
1 191 190 -48 -20 0 0 -1 0 1 0 1 0 0 3023.dat
1 191 -100 -48 -60 1 0 0 0 1 0 0 0 1 3020.dat
1 191 100 -48 -60 1 0 0 0 1 0 0 0 1 3020.dat
1 191 0 -48 -80 1 0 0 0 1 0 0 0 1 3795.dat
1 191 -80 -48 -90 1 0 0 0 1 0 0 0 1 3023.dat
1 191 80 -48 -90 1 0 0 0 1 0 0 0 1 3023.dat
0 STEP
1 191 0 -56 80 1 0 0 0 1 0 0 0 1 3832.dat
1 191 -160 -56 -0 0 0 -1 0 1 0 1 0 0 3034.dat
1 191 -120 -56 60 1 0 0 0 1 0 0 0 1 3022.dat
1 191 140 -56 60 1 0 0 0 1 0 0 0 1 3020.dat
1 191 -80 -56 50 1 0 0 0 1 0 0 0 1 3023.dat
1 191 80 -56 50 1 0 0 0 1 0 0 0 1 3023.dat
1 191 160 -56 -20 0 0 -1 0 1 0 1 0 0 3795.dat
1 191 -190 -56 -20 0 0 -1 0 1 0 1 0 0 3710.dat
1 191 190 -56 -20 0 0 -1 0 1 0 1 0 0 3710.dat
1 191 -210 -56 -10 1 0 0 0 1 0 0 0 1 3024.dat
1 191 210 -56 -10 1 0 0 0 1 0 0 0 1 3024.dat
1 191 -100 -56 -60 1 0 0 0 1 0 0 0 1 3020.dat
1 191 100 -56 -60 1 0 0 0 1 0 0 0 1 3020.dat
1 191 0 -56 -80 1 0 0 0 1 0 0 0 1 3795.dat
1 191 -80 -56 -90 1 0 0 0 1 0 0 0 1 3023.dat
1 191 80 -56 -90 1 0 0 0 1 0 0 0 1 3023.dat
0 STEP
1 191 0 -64 80 1 0 0 0 1 0 0 0 1 3832.dat
1 191 -160 -64 -0 0 0 -1 0 1 0 1 0 0 3034.dat
1 191 -120 -64 60 1 0 0 0 1 0 0 0 1 3022.dat
1 191 140 -64 60 1 0 0 0 1 0 0 0 1 3020.dat
1 191 -80 -64 50 1 0 0 0 1 0 0 0 1 3023.dat
1 191 80 -64 50 1 0 0 0 1 0 0 0 1 3023.dat
1 191 160 -64 -20 0 0 -1 0 1 0 1 0 0 3795.dat
1 191 -190 -64 -20 0 0 -1 0 1 0 1 0 0 3710.dat
1 191 190 -64 -20 0 0 -1 0 1 0 1 0 0 3710.dat
1 191 -210 -64 -20 0 0 -1 0 1 0 1 0 0 3023.dat
1 191 210 -64 -20 0 0 -1 0 1 0 1 0 0 3023.dat
1 191 -100 -64 -60 1 0 0 0 1 0 0 0 1 3020.dat
1 191 100 -64 -60 1 0 0 0 1 0 0 0 1 3020.dat
1 191 0 -64 -80 1 0 0 0 1 0 0 0 1 3795.dat
1 191 -100 -64 -90 1 0 0 0 1 0 0 0 1 3710.dat
1 191 100 -64 -90 1 0 0 0 1 0 0 0 1 3710.dat
0 STEP
1 191 0 -72 80 1 0 0 0 1 0 0 0 1 3832.dat
1 191 -160 -72 -0 0 0 -1 0 1 0 1 0 0 3034.dat
1 191 -120 -72 60 1 0 0 0 1 0 0 0 1 3022.dat
1 191 140 -72 60 1 0 0 0 1 0 0 0 1 3020.dat
1 191 -80 -72 50 1 0 0 0 1 0 0 0 1 3023.dat
1 191 80 -72 50 1 0 0 0 1 0 0 0 1 3023.dat
1 191 160 -72 -20 0 0 -1 0 1 0 1 0 0 3795.dat
1 191 -190 -72 -20 0 0 -1 0 1 0 1 0 0 3710.dat
1 191 190 -72 -20 0 0 -1 0 1 0 1 0 0 3710.dat
1 191 -210 -72 -20 0 0 -1 0 1 0 1 0 0 3023.dat
1 191 210 -72 -20 0 0 -1 0 1 0 1 0 0 3023.dat
1 191 -100 -72 -60 1 0 0 0 1 0 0 0 1 3020.dat
1 191 100 -72 -60 1 0 0 0 1 0 0 0 1 3020.dat
1 191 0 -72 -80 1 0 0 0 1 0 0 0 1 3795.dat
1 191 -120 -72 -90 1 0 0 0 1 0 0 0 1 3710.dat
1 191 -70 -72 -100 0 0 -1 0 1 0 1 0 0 3023.dat
1 191 90 -72 -100 1 0 0 0 1 0 0 0 1 3021.dat
1 191 140 -72 -90 1 0 0 0 1 0 0 0 1 3023.dat
1 191 -100 -72 -110 1 0 0 0 1 0 0 0 1 3023.dat
0 STEP
1 191 0 -80 80 1 0 0 0 1 0 0 0 1 3832.dat
1 191 -160 -80 -0 0 0 -1 0 1 0 1 0 0 3034.dat
1 191 -120 -80 60 1 0 0 0 1 0 0 0 1 3022.dat
1 191 140 -80 60 1 0 0 0 1 0 0 0 1 3020.dat
1 191 -80 -80 50 1 0 0 0 1 0 0 0 1 3023.dat
1 191 80 -80 50 1 0 0 0 1 0 0 0 1 3023.dat
1 191 160 -80 -20 0 0 -1 0 1 0 1 0 0 3795.dat
1 191 -190 -80 -20 0 0 -1 0 1 0 1 0 0 3710.dat
1 191 190 -80 -20 0 0 -1 0 1 0 1 0 0 3710.dat
1 191 -210 -80 -20 0 0 -1 0 1 0 1 0 0 3023.dat
1 191 210 -80 -20 0 0 -1 0 1 0 1 0 0 3023.dat
1 191 -120 -80 -80 0 0 -1 0 1 0 1 0 0 3020.dat
1 191 120 -80 -80 0 0 -1 0 1 0 1 0 0 3020.dat
1 191 0 -80 -80 1 0 0 0 1 0 0 0 1 3832.dat
1 191 -150 -80 -90 1 0 0 0 1 0 0 0 1 3024.dat
1 191 150 -80 -90 1 0 0 0 1 0 0 0 1 3024.dat
1 191 -80 -80 -120 1 0 0 0 1 0 0 0 1 3022.dat
1 191 80 -80 -120 1 0 0 0 1 0 0 0 1 3022.dat
0 STEP
1 191 0 -88 80 1 0 0 0 1 0 0 0 1 3832.dat
1 191 -160 -88 -0 0 0 -1 0 1 0 1 0 0 3034.dat
1 191 -120 -88 60 1 0 0 0 1 0 0 0 1 3022.dat
1 191 140 -88 60 1 0 0 0 1 0 0 0 1 3020.dat
1 191 -80 -88 50 1 0 0 0 1 0 0 0 1 3023.dat
1 191 80 -88 50 1 0 0 0 1 0 0 0 1 3023.dat
1 191 160 -88 -20 0 0 -1 0 1 0 1 0 0 3795.dat
1 191 -190 -88 -20 0 0 -1 0 1 0 1 0 0 3710.dat
1 191 190 -88 -20 0 0 -1 0 1 0 1 0 0 3710.dat
1 191 -210 -88 -20 0 0 -1 0 1 0 1 0 0 3023.dat
1 191 210 -88 -20 0 0 -1 0 1 0 1 0 0 3023.dat
1 191 -130 -88 -80 0 0 -1 0 1 0 1 0 0 3710.dat
1 191 130 -88 -80 0 0 -1 0 1 0 1 0 0 3710.dat
1 191 0 -88 -80 1 0 0 0 1 0 0 0 1 2445.dat
1 191 -150 -88 -90 1 0 0 0 1 0 0 0 1 3024.dat
1 191 150 -88 -90 1 0 0 0 1 0 0 0 1 3024.dat
1 191 -80 -88 -120 1 0 0 0 1 0 0 0 1 3020.dat
1 191 80 -88 -120 1 0 0 0 1 0 0 0 1 3020.dat
1 191 -70 -88 -150 1 0 0 0 1 0 0 0 1 3024.dat
1 191 70 -88 -150 1 0 0 0 1 0 0 0 1 3024.dat
0 STEP
1 70 0 -96 -110 1 0 0 0 1 0 0 0 1 3710.dat
1 70 -90 -96 -130 1 0 0 0 1 0 0 0 1 3024.dat
1 70 90 -96 -130 1 0 0 0 1 0 0 0 1 3024.dat
1 70 -110 -96 -150 1 0 0 0 1 0 0 0 1 3024.dat
1 70 110 -96 -150 1 0 0 0 1 0 0 0 1 3024.dat
1 78 -60 -96 -130 1 0 0 0 1 0 0 0 1 3023.dat
1 78 60 -96 -130 1 0 0 0 1 0 0 0 1 3023.dat
1 78 -50 -96 -150 1 0 0 0 1 0 0 0 1 3024.dat
1 78 50 -96 -150 1 0 0 0 1 0 0 0 1 3024.dat
1 191 0 -96 80 1 0 0 0 1 0 0 0 1 3832.dat
1 191 -160 -96 -0 0 0 -1 0 1 0 1 0 0 3034.dat
1 191 -120 -96 60 1 0 0 0 1 0 0 0 1 3022.dat
1 191 140 -96 60 1 0 0 0 1 0 0 0 1 3020.dat
1 191 -80 -96 50 1 0 0 0 1 0 0 0 1 3023.dat
1 191 80 -96 50 1 0 0 0 1 0 0 0 1 3023.dat
1 191 160 -96 -20 0 0 -1 0 1 0 1 0 0 3795.dat
1 191 -200 -96 -10 0 0 -1 0 1 0 1 0 0 3021.dat
1 191 200 -96 -10 0 0 -1 0 1 0 1 0 0 3021.dat
1 191 -190 -96 -50 1 0 0 0 1 0 0 0 1 3024.dat
1 191 -120 -96 -80 0 0 -1 0 1 0 1 0 0 3020.dat
1 191 120 -96 -80 0 0 -1 0 1 0 1 0 0 3020.dat
1 191 190 -96 -50 1 0 0 0 1 0 0 0 1 3024.dat
1 191 0 -96 -80 1 0 0 0 1 0 0 0 1 3832.dat
1 191 -150 -96 -90 1 0 0 0 1 0 0 0 1 3024.dat
1 191 150 -96 -90 1 0 0 0 1 0 0 0 1 3024.dat
1 191 -70 -96 -110 1 0 0 0 1 0 0 0 1 3623.dat
1 191 70 -96 -110 1 0 0 0 1 0 0 0 1 3623.dat
1 191 -110 -96 -130 1 0 0 0 1 0 0 0 1 3024.dat
1 191 110 -96 -130 1 0 0 0 1 0 0 0 1 3024.dat
1 191 -80 -96 -150 1 0 0 0 1 0 0 0 1 3023.dat
1 191 80 -96 -150 1 0 0 0 1 0 0 0 1 3023.dat
0 STEP
1 70 0 -104 -110 1 0 0 0 1 0 0 0 1 3710.dat
1 70 -90 -104 -130 1 0 0 0 1 0 0 0 1 3024.dat
1 70 90 -104 -130 1 0 0 0 1 0 0 0 1 3024.dat
1 70 -110 -104 -150 1 0 0 0 1 0 0 0 1 3024.dat
1 70 110 -104 -150 1 0 0 0 1 0 0 0 1 3024.dat
1 78 -60 -104 -140 1 0 0 0 1 0 0 0 1 3022.dat
1 78 60 -104 -140 1 0 0 0 1 0 0 0 1 3022.dat
1 191 0 -104 80 1 0 0 0 1 0 0 0 1 3832.dat
1 191 -160 -104 -0 0 0 -1 0 1 0 1 0 0 3034.dat
1 191 -120 -104 60 1 0 0 0 1 0 0 0 1 3022.dat
1 191 140 -104 60 1 0 0 0 1 0 0 0 1 3020.dat
1 191 -80 -104 50 1 0 0 0 1 0 0 0 1 3023.dat
1 191 80 -104 50 1 0 0 0 1 0 0 0 1 3023.dat
1 191 160 -104 -20 0 0 -1 0 1 0 1 0 0 3795.dat
1 191 -200 -104 -10 0 0 -1 0 1 0 1 0 0 3021.dat
1 191 200 -104 -10 0 0 -1 0 1 0 1 0 0 3021.dat
1 191 -190 -104 -50 1 0 0 0 1 0 0 0 1 3024.dat
1 191 -120 -104 -80 0 0 -1 0 1 0 1 0 0 3020.dat
1 191 120 -104 -80 0 0 -1 0 1 0 1 0 0 3020.dat
1 191 190 -104 -50 1 0 0 0 1 0 0 0 1 3024.dat
1 191 0 -104 -80 1 0 0 0 1 0 0 0 1 3832.dat
1 191 -70 -104 -110 1 0 0 0 1 0 0 0 1 3623.dat
1 191 70 -104 -110 1 0 0 0 1 0 0 0 1 3623.dat
1 191 -110 -104 -130 1 0 0 0 1 0 0 0 1 3024.dat
1 191 110 -104 -130 1 0 0 0 1 0 0 0 1 3024.dat
1 191 -90 -104 -150 1 0 0 0 1 0 0 0 1 3024.dat
1 191 90 -104 -150 1 0 0 0 1 0 0 0 1 3024.dat
1 191 -150 -104 -90 1 0 0 0 1 0 0 0 1 3070b.dat
1 191 150 -104 -90 1 0 0 0 1 0 0 0 1 3070b.dat
0 STEP
1 15 -90 -112 -150 1 0 0 0 1 0 0 0 1 3024.dat
1 15 90 -112 -150 1 0 0 0 1 0 0 0 1 3024.dat
1 70 0 -112 -110 1 0 0 0 1 0 0 0 1 3710.dat
1 70 -90 -112 -130 1 0 0 0 1 0 0 0 1 3024.dat
1 70 90 -112 -130 1 0 0 0 1 0 0 0 1 3024.dat
1 70 -110 -112 -150 1 0 0 0 1 0 0 0 1 3024.dat
1 70 110 -112 -150 1 0 0 0 1 0 0 0 1 3024.dat
1 78 -50 -112 -130 0 0 -1 0 1 0 1 0 0 3623.dat
1 78 50 -112 -130 0 0 -1 0 1 0 1 0 0 3623.dat
1 78 -70 -112 -140 0 0 -1 0 1 0 1 0 0 3023.dat
1 78 -30 -112 -130 1 0 0 0 1 0 0 0 1 3024.dat
1 78 30 -112 -130 1 0 0 0 1 0 0 0 1 3024.dat
1 78 70 -112 -140 0 0 -1 0 1 0 1 0 0 3023.dat
1 191 0 -112 80 1 0 0 0 1 0 0 0 1 3832.dat
1 191 -160 -112 -0 0 0 -1 0 1 0 1 0 0 3034.dat
1 191 -120 -112 60 1 0 0 0 1 0 0 0 1 3022.dat
1 191 140 -112 60 1 0 0 0 1 0 0 0 1 3020.dat
1 191 -80 -112 50 1 0 0 0 1 0 0 0 1 3023.dat
1 191 80 -112 50 1 0 0 0 1 0 0 0 1 3023.dat
1 191 160 -112 -20 0 0 -1 0 1 0 1 0 0 3795.dat
1 191 -200 -112 -10 0 0 -1 0 1 0 1 0 0 3021.dat
1 191 200 -112 -10 0 0 -1 0 1 0 1 0 0 3021.dat
1 191 -190 -112 -50 1 0 0 0 1 0 0 0 1 3024.dat
1 191 -120 -112 -70 0 0 -1 0 1 0 1 0 0 3021.dat
1 191 120 -112 -70 0 0 -1 0 1 0 1 0 0 3021.dat
1 191 190 -112 -50 1 0 0 0 1 0 0 0 1 3024.dat
1 191 -90 -112 -90 0 0 -1 0 1 0 1 0 0 3623.dat
1 191 90 -112 -90 0 0 -1 0 1 0 1 0 0 3623.dat
1 191 0 -112 -90 1 0 0 0 1 0 0 0 1 3460.dat
1 191 -110 -112 -120 0 0 -1 0 1 0 1 0 0 3023.dat
1 191 -70 -112 -110 1 0 0 0 1 0 0 0 1 3024.dat
1 191 70 -112 -110 1 0 0 0 1 0 0 0 1 3024.dat
1 191 110 -112 -120 0 0 -1 0 1 0 1 0 0 3023.dat
1 191 -130 -112 -110 1 0 0 0 1 0 0 0 1 3070b.dat
1 191 130 -112 -110 1 0 0 0 1 0 0 0 1 3070b.dat
0 STEP
1 15 -90 -120 -150 1 0 0 0 1 0 0 0 1 3024.dat
1 15 90 -120 -150 1 0 0 0 1 0 0 0 1 3024.dat
1 70 0 -120 -110 1 0 0 0 1 0 0 0 1 3710.dat
1 70 -90 -120 -130 1 0 0 0 1 0 0 0 1 3024.dat
1 70 90 -120 -130 1 0 0 0 1 0 0 0 1 3024.dat
1 70 -110 -120 -150 1 0 0 0 1 0 0 0 1 3024.dat
1 70 110 -120 -150 1 0 0 0 1 0 0 0 1 3024.dat
1 78 -60 -120 -130 0 0 -1 0 1 0 1 0 0 3021.dat
1 78 60 -120 -130 0 0 -1 0 1 0 1 0 0 3021.dat
1 78 -30 -120 -130 1 0 0 0 1 0 0 0 1 3024.dat
1 78 30 -120 -130 1 0 0 0 1 0 0 0 1 3024.dat
1 78 -30 -120 -150 1 0 0 0 1 0 0 0 1 3070b.dat
1 78 30 -120 -150 1 0 0 0 1 0 0 0 1 3070b.dat
1 191 0 -120 80 1 0 0 0 1 0 0 0 1 3832.dat
1 191 -160 -120 -0 0 0 -1 0 1 0 1 0 0 3034.dat
1 191 -120 -120 60 1 0 0 0 1 0 0 0 1 3022.dat
1 191 140 -120 60 1 0 0 0 1 0 0 0 1 3020.dat
1 191 -80 -120 50 1 0 0 0 1 0 0 0 1 3023.dat
1 191 80 -120 50 1 0 0 0 1 0 0 0 1 3023.dat
1 191 -190 -120 -0 0 0 -1 0 1 0 1 0 0 3710.dat
1 191 160 -120 -20 0 0 -1 0 1 0 1 0 0 3795.dat
1 191 190 -120 -0 0 0 -1 0 1 0 1 0 0 3710.dat
1 191 -210 -120 -10 0 0 -1 0 1 0 1 0 0 3623.dat
1 191 210 -120 -10 0 0 -1 0 1 0 1 0 0 3623.dat
1 191 -110 -120 -60 1 0 0 0 1 0 0 0 1 3021.dat
1 191 100 -120 -80 0 0 -1 0 1 0 1 0 0 3020.dat
1 191 130 -120 -70 0 0 -1 0 1 0 1 0 0 3623.dat
1 191 -70 -120 -80 0 0 -1 0 1 0 1 0 0 3023.dat
1 191 70 -120 -80 0 0 -1 0 1 0 1 0 0 3023.dat
1 191 -110 -120 -90 1 0 0 0 1 0 0 0 1 3623.dat
1 191 0 -120 -90 1 0 0 0 1 0 0 0 1 3666.dat
1 191 -100 -120 -110 1 0 0 0 1 0 0 0 1 3023.dat
1 191 -190 -120 -50 1 0 0 0 1 0 0 0 1 3070b.dat
1 191 190 -120 -50 1 0 0 0 1 0 0 0 1 3070b.dat
1 191 -110 -120 -130 1 0 0 0 1 0 0 0 1 3070b.dat
1 191 110 -120 -130 1 0 0 0 1 0 0 0 1 3070b.dat
0 STEP
1 15 -90 -128 -150 1 0 0 0 1 0 0 0 1 3024.dat
1 15 90 -128 -150 1 0 0 0 1 0 0 0 1 3024.dat
1 70 0 -128 -110 1 0 0 0 1 0 0 0 1 3710.dat
1 70 -90 -128 -130 1 0 0 0 1 0 0 0 1 3024.dat
1 70 90 -128 -130 1 0 0 0 1 0 0 0 1 3024.dat
1 70 -110 -128 -150 1 0 0 0 1 0 0 0 1 3024.dat
1 70 110 -128 -150 1 0 0 0 1 0 0 0 1 3024.dat
1 78 -50 -128 -130 0 0 -1 0 1 0 1 0 0 3623.dat
1 78 50 -128 -130 0 0 -1 0 1 0 1 0 0 3623.dat
1 78 -70 -128 -140 0 0 -1 0 1 0 1 0 0 3023.dat
1 78 -30 -128 -130 1 0 0 0 1 0 0 0 1 3024.dat
1 78 30 -128 -130 1 0 0 0 1 0 0 0 1 3024.dat
1 78 70 -128 -140 0 0 -1 0 1 0 1 0 0 3023.dat
1 191 0 -128 80 1 0 0 0 1 0 0 0 1 3832.dat
1 191 -160 -128 -0 0 0 -1 0 1 0 1 0 0 3034.dat
1 191 -120 -128 60 1 0 0 0 1 0 0 0 1 3022.dat
1 191 140 -128 60 1 0 0 0 1 0 0 0 1 3020.dat
1 191 -80 -128 50 1 0 0 0 1 0 0 0 1 3023.dat
1 191 80 -128 50 1 0 0 0 1 0 0 0 1 3023.dat
1 191 -190 -128 -0 0 0 -1 0 1 0 1 0 0 3710.dat
1 191 160 -128 -20 0 0 -1 0 1 0 1 0 0 3795.dat
1 191 190 -128 -0 0 0 -1 0 1 0 1 0 0 3710.dat
1 191 -210 -128 -10 0 0 -1 0 1 0 1 0 0 3623.dat
1 191 210 -128 -10 0 0 -1 0 1 0 1 0 0 3623.dat
1 191 -100 -128 -60 1 0 0 0 1 0 0 0 1 3020.dat
1 191 100 -128 -60 1 0 0 0 1 0 0 0 1 3020.dat
1 191 0 -128 -80 1 0 0 0 1 0 0 0 1 3795.dat
1 191 -90 -128 -90 1 0 0 0 1 0 0 0 1 3623.dat
1 191 80 -128 -100 1 0 0 0 1 0 0 0 1 3022.dat
1 191 110 -128 -90 1 0 0 0 1 0 0 0 1 3024.dat
1 191 -80 -128 -110 1 0 0 0 1 0 0 0 1 3023.dat
1 191 -130 -128 -90 1 0 0 0 1 0 0 0 1 3070b.dat
1 191 130 -128 -90 1 0 0 0 1 0 0 0 1 3070b.dat
1 191 -110 -128 -110 1 0 0 0 1 0 0 0 1 3070b.dat
1 191 110 -128 -110 1 0 0 0 1 0 0 0 1 3070b.dat
0 STEP
1 15 -30 -136 -130 1 0 0 0 1 0 0 0 1 3024.dat
1 15 30 -136 -130 1 0 0 0 1 0 0 0 1 3024.dat
1 15 -90 -136 -150 1 0 0 0 1 0 0 0 1 3024.dat
1 15 90 -136 -150 1 0 0 0 1 0 0 0 1 3024.dat
1 70 0 -136 -110 1 0 0 0 1 0 0 0 1 3710.dat
1 70 -90 -136 -130 1 0 0 0 1 0 0 0 1 3024.dat
1 70 90 -136 -130 1 0 0 0 1 0 0 0 1 3024.dat
1 70 -110 -136 -150 1 0 0 0 1 0 0 0 1 3024.dat
1 70 110 -136 -150 1 0 0 0 1 0 0 0 1 3024.dat
1 78 -60 -136 -130 1 0 0 0 1 0 0 0 1 3023.dat
1 78 60 -136 -140 1 0 0 0 1 0 0 0 1 3022.dat
1 78 -70 -136 -150 1 0 0 0 1 0 0 0 1 3024.dat
1 78 -50 -136 -150 1 0 0 0 1 0 0 0 1 3070b.dat
1 191 0 -136 80 1 0 0 0 1 0 0 0 1 3832.dat
1 191 -160 -136 -0 0 0 -1 0 1 0 1 0 0 3034.dat
1 191 -120 -136 60 1 0 0 0 1 0 0 0 1 3022.dat
1 191 140 -136 60 1 0 0 0 1 0 0 0 1 3020.dat
1 191 -80 -136 50 1 0 0 0 1 0 0 0 1 3023.dat
1 191 80 -136 50 1 0 0 0 1 0 0 0 1 3023.dat
1 191 -190 -136 -0 0 0 -1 0 1 0 1 0 0 3710.dat
1 191 -130 -136 30 1 0 0 0 1 0 0 0 1 3024.dat
1 191 160 -136 30 1 0 0 0 1 0 0 0 1 3710.dat
1 191 -210 -136 -10 0 0 -1 0 1 0 1 0 0 3623.dat
1 191 180 -136 -0 1 0 0 0 1 0 0 0 1 3020.dat
1 191 -130 -136 -50 0 0 -1 0 1 0 1 0 0 3623.dat
1 191 150 -136 -40 1 0 0 0 1 0 0 0 1 3021.dat
1 191 200 -136 -30 1 0 0 0 1 0 0 0 1 3023.dat
1 191 -90 -136 -60 1 0 0 0 1 0 0 0 1 3021.dat
1 191 80 -136 -80 0 0 -1 0 1 0 1 0 0 3020.dat
1 191 110 -136 -60 0 0 -1 0 1 0 1 0 0 3023.dat
1 191 0 -136 -80 1 0 0 0 1 0 0 0 1 3795.dat
1 191 150 -136 -70 1 0 0 0 1 0 0 0 1 3623.dat
1 191 -80 -136 -100 1 0 0 0 1 0 0 0 1 3022.dat
1 191 -110 -136 -90 1 0 0 0 1 0 0 0 1 3070b.dat
1 191 110 -136 -90 1 0 0 0 1 0 0 0 1 3070b.dat
1 191 -50 -136 -110 1 0 0 0 1 0 0 0 1 3070b.dat
1 191 50 -136 -110 1 0 0 0 1 0 0 0 1 3070b.dat
0 STEP
1 14 50 -144 -170 0 0 -1 0 1 0 1 0 0 3623.dat
1 15 0 -144 -80 1 0 0 0 1 0 0 0 1 3022.dat
1 15 -40 -144 -130 1 0 0 0 1 0 0 0 1 3023.dat
1 15 40 -144 -130 1 0 0 0 1 0 0 0 1 3023.dat
1 15 -80 -144 -150 1 0 0 0 1 0 0 0 1 3023.dat
1 15 80 -144 -150 1 0 0 0 1 0 0 0 1 3023.dat
1 70 0 -144 -110 1 0 0 0 1 0 0 0 1 3710.dat
1 70 -80 -144 -130 1 0 0 0 1 0 0 0 1 3023.dat
1 70 80 -144 -130 1 0 0 0 1 0 0 0 1 3023.dat
1 70 -110 -144 -150 1 0 0 0 1 0 0 0 1 3024.dat
1 70 110 -144 -150 1 0 0 0 1 0 0 0 1 3024.dat
1 191 0 -144 80 1 0 0 0 1 0 0 0 1 3832.dat
1 191 -150 -144 -0 0 0 -1 0 1 0 1 0 0 3460.dat
1 191 -120 -144 60 1 0 0 0 1 0 0 0 1 3022.dat
1 191 130 -144 60 1 0 0 0 1 0 0 0 1 3021.dat
1 191 -170 -144 -0 0 0 -1 0 1 0 1 0 0 3666.dat
1 191 -70 -144 50 1 0 0 0 1 0 0 0 1 3623.dat
1 191 70 -144 50 1 0 0 0 1 0 0 0 1 3623.dat
1 191 170 -144 -0 0 0 -1 0 1 0 1 0 0 3666.dat
1 191 -190 -144 -0 0 0 -1 0 1 0 1 0 0 3710.dat
1 191 -130 -144 30 1 0 0 0 1 0 0 0 1 3024.dat
1 191 140 -144 30 1 0 0 0 1 0 0 0 1 3023.dat
1 191 190 -144 -0 0 0 -1 0 1 0 1 0 0 3710.dat
1 191 -210 -144 -10 0 0 -1 0 1 0 1 0 0 3623.dat
1 191 150 -144 -20 0 0 -1 0 1 0 1 0 0 3710.dat
1 191 210 -144 -10 0 0 -1 0 1 0 1 0 0 3623.dat
1 191 -130 -144 -50 0 0 -1 0 1 0 1 0 0 3623.dat
1 191 130 -144 -50 0 0 -1 0 1 0 1 0 0 3623.dat
1 191 -80 -144 -60 1 0 0 0 1 0 0 0 1 3020.dat
1 191 80 -144 -60 1 0 0 0 1 0 0 0 1 3020.dat
1 191 -30 -144 -80 0 0 -1 0 1 0 1 0 0 3023.dat
1 191 30 -144 -80 0 0 -1 0 1 0 1 0 0 3023.dat
1 191 150 -144 -70 1 0 0 0 1 0 0 0 1 3024.dat
1 191 -70 -144 -90 1 0 0 0 1 0 0 0 1 3623.dat
1 191 70 -144 -90 1 0 0 0 1 0 0 0 1 3623.dat
1 191 -170 -144 70 1 0 0 0 1 0 0 0 1 3070b.dat
1 191 170 -144 70 1 0 0 0 1 0 0 0 1 3070b.dat
1 191 -170 -144 -70 1 0 0 0 1 0 0 0 1 3070b.dat
1 191 170 -144 -70 1 0 0 0 1 0 0 0 1 3070b.dat
1 191 -80 -144 -110 1 0 0 0 1 0 0 0 1 3069b.dat
1 191 80 -144 -110 1 0 0 0 1 0 0 0 1 3069b.dat
0 STEP
1 14 50 -152 -170 0 0 -1 0 1 0 1 0 0 3623.dat
1 15 0 -152 -70 0 0 -1 0 1 0 1 0 0 3021.dat
1 15 -40 -152 -130 1 0 0 0 1 0 0 0 1 3023.dat
1 15 40 -152 -130 1 0 0 0 1 0 0 0 1 3023.dat
1 15 -80 -152 -150 1 0 0 0 1 0 0 0 1 3023.dat
1 15 80 -152 -150 1 0 0 0 1 0 0 0 1 3023.dat
1 70 0 -152 -110 1 0 0 0 1 0 0 0 1 3710.dat
1 70 -80 -152 -130 1 0 0 0 1 0 0 0 1 3023.dat
1 70 80 -152 -130 1 0 0 0 1 0 0 0 1 3023.dat
1 70 -110 -152 -150 1 0 0 0 1 0 0 0 1 3024.dat
1 70 110 -152 -150 1 0 0 0 1 0 0 0 1 3024.dat
1 191 0 -152 80 1 0 0 0 1 0 0 0 1 3034.dat
1 191 -150 -152 -0 0 0 -1 0 1 0 1 0 0 3460.dat
1 191 -110 -152 60 1 0 0 0 1 0 0 0 1 3021.dat
1 191 120 -152 60 1 0 0 0 1 0 0 0 1 3020.dat
1 191 -170 -152 -0 0 0 -1 0 1 0 1 0 0 3666.dat
1 191 0 -152 50 1 0 0 0 1 0 0 0 1 3460.dat
1 191 170 -152 -0 0 0 -1 0 1 0 1 0 0 3666.dat
1 191 -190 -152 -0 0 0 -1 0 1 0 1 0 0 3710.dat
1 191 -130 -152 30 1 0 0 0 1 0 0 0 1 3024.dat
1 191 140 -152 30 1 0 0 0 1 0 0 0 1 3023.dat
1 191 190 -152 -0 0 0 -1 0 1 0 1 0 0 3710.dat
1 191 -210 -152 -0 0 0 -1 0 1 0 1 0 0 3023.dat
1 191 150 -152 -20 0 0 -1 0 1 0 1 0 0 3710.dat
1 191 210 -152 -0 0 0 -1 0 1 0 1 0 0 3023.dat
1 191 -130 -152 -50 0 0 -1 0 1 0 1 0 0 3623.dat
1 191 130 -152 -50 0 0 -1 0 1 0 1 0 0 3623.dat
1 191 -80 -152 -60 1 0 0 0 1 0 0 0 1 3020.dat
1 191 -30 -152 -70 0 0 -1 0 1 0 1 0 0 3623.dat
1 191 60 -152 -60 1 0 0 0 1 0 0 0 1 3020.dat
1 191 110 -152 -60 0 0 -1 0 1 0 1 0 0 3023.dat
1 191 150 -152 -70 1 0 0 0 1 0 0 0 1 3024.dat
1 191 -60 -152 -90 1 0 0 0 1 0 0 0 1 3023.dat
1 191 50 -152 -90 1 0 0 0 1 0 0 0 1 3623.dat
1 191 -90 -152 90 1 0 0 0 1 0 0 0 1 3070b.dat
1 191 90 -152 90 1 0 0 0 1 0 0 0 1 3070b.dat
1 191 -210 -152 -30 1 0 0 0 1 0 0 0 1 3070b.dat
1 191 210 -152 -30 1 0 0 0 1 0 0 0 1 3070b.dat
1 191 -90 -152 -90 1 0 0 0 1 0 0 0 1 3070b.dat
1 191 90 -152 -90 1 0 0 0 1 0 0 0 1 3070b.dat
0 STEP
1 0 50 -160 -170 0 0 -1 0 1 0 1 0 0 3623.dat
1 15 0 -160 -60 1 0 0 0 1 0 0 0 1 3022.dat
1 15 -40 -160 -130 1 0 0 0 1 0 0 0 1 3023.dat
1 15 40 -160 -130 1 0 0 0 1 0 0 0 1 3023.dat
1 15 -80 -160 -150 1 0 0 0 1 0 0 0 1 3023.dat
1 15 80 -160 -150 1 0 0 0 1 0 0 0 1 3023.dat
1 15 0 -160 -90 1 0 0 0 1 0 0 0 1 3069b.dat
1 70 0 -160 -110 1 0 0 0 1 0 0 0 1 3710.dat
1 70 -80 -160 -130 1 0 0 0 1 0 0 0 1 3023.dat
1 70 80 -160 -130 1 0 0 0 1 0 0 0 1 3023.dat
1 70 -110 -160 -150 1 0 0 0 1 0 0 0 1 3024.dat
1 70 110 -160 -150 1 0 0 0 1 0 0 0 1 3024.dat
1 191 -40 -160 60 1 0 0 0 1 0 0 0 1 2445.dat
1 191 120 -160 60 1 0 0 0 1 0 0 0 1 3020.dat
1 191 -170 -160 -0 0 0 -1 0 1 0 1 0 0 3666.dat
1 191 170 -160 -0 0 0 -1 0 1 0 1 0 0 3666.dat
1 191 -190 -160 -0 0 0 -1 0 1 0 1 0 0 3710.dat
1 191 -140 -160 -20 0 0 -1 0 1 0 1 0 0 3795.dat
1 191 -110 -160 30 1 0 0 0 1 0 0 0 1 3024.dat
1 191 130 -160 30 1 0 0 0 1 0 0 0 1 3623.dat
1 191 190 -160 -0 0 0 -1 0 1 0 1 0 0 3710.dat
1 191 -210 -160 -0 0 0 -1 0 1 0 1 0 0 3023.dat
1 191 140 -160 -20 0 0 -1 0 1 0 1 0 0 3020.dat
1 191 210 -160 -0 0 0 -1 0 1 0 1 0 0 3023.dat
1 191 -110 -160 -50 0 0 -1 0 1 0 1 0 0 3623.dat
1 191 110 -160 -50 0 0 -1 0 1 0 1 0 0 3623.dat
1 191 -60 -160 -60 1 0 0 0 1 0 0 0 1 3020.dat
1 191 60 -160 -60 1 0 0 0 1 0 0 0 1 3020.dat
1 191 140 -160 -70 1 0 0 0 1 0 0 0 1 3023.dat
1 191 0 -160 90 1 0 0 0 1 0 0 0 1 4162.dat
1 191 -50 -160 -90 1 0 0 0 1 0 0 0 1 63864.dat
1 191 50 -160 -90 1 0 0 0 1 0 0 0 1 63864.dat
0 STEP
1 0 70 -168 -170 0 0 -1 0 1 0 1 0 0 3623.dat
1 15 0 -168 -60 1 0 0 0 1 0 0 0 1 3022.dat
1 15 -40 -168 -130 1 0 0 0 1 0 0 0 1 3069b.dat
1 15 40 -168 -130 1 0 0 0 1 0 0 0 1 3069b.dat
1 15 -80 -168 -150 1 0 0 0 1 0 0 0 1 3069b.dat
1 15 90 -168 -150 1 0 0 0 1 0 0 0 1 3070b.dat
1 70 0 -168 -110 1 0 0 0 1 0 0 0 1 3710.dat
1 70 -80 -168 -130 1 0 0 0 1 0 0 0 1 3023.dat
1 70 80 -168 -130 1 0 0 0 1 0 0 0 1 3023.dat
1 70 -110 -168 -150 1 0 0 0 1 0 0 0 1 3024.dat
1 70 110 -168 -150 1 0 0 0 1 0 0 0 1 3024.dat
1 191 -20 -168 60 1 0 0 0 1 0 0 0 1 2445.dat
1 191 120 -168 50 0 0 -1 0 1 0 1 0 0 3021.dat
1 191 -150 -168 -0 0 0 -1 0 1 0 1 0 0 3666.dat
1 191 150 -168 -0 0 0 -1 0 1 0 1 0 0 3666.dat
1 191 -180 -168 -0 0 0 -1 0 1 0 1 0 0 3020.dat
1 191 -130 -168 -20 0 0 -1 0 1 0 1 0 0 3666.dat
1 191 -100 -168 30 1 0 0 0 1 0 0 0 1 3023.dat
1 191 90 -168 30 1 0 0 0 1 0 0 0 1 3024.dat
1 191 180 -168 -0 0 0 -1 0 1 0 1 0 0 3020.dat
1 191 -210 -168 -0 0 0 -1 0 1 0 1 0 0 3023.dat
1 191 130 -168 -20 0 0 -1 0 1 0 1 0 0 3710.dat
1 191 210 -168 -0 0 0 -1 0 1 0 1 0 0 3023.dat
1 191 -100 -168 -50 0 0 -1 0 1 0 1 0 0 3021.dat
1 191 100 -168 -50 0 0 -1 0 1 0 1 0 0 3021.dat
1 191 -50 -168 -60 1 0 0 0 1 0 0 0 1 3021.dat
1 191 50 -168 -60 1 0 0 0 1 0 0 0 1 3021.dat
1 191 130 -168 -70 1 0 0 0 1 0 0 0 1 3024.dat
1 191 -150 -168 70 1 0 0 0 1 0 0 0 1 3070b.dat
1 191 150 -168 70 1 0 0 0 1 0 0 0 1 3070b.dat
1 191 -170 -168 50 1 0 0 0 1 0 0 0 1 3070b.dat
1 191 170 -168 50 1 0 0 0 1 0 0 0 1 3070b.dat
1 191 -170 -168 -50 1 0 0 0 1 0 0 0 1 3070b.dat
1 191 170 -168 -50 1 0 0 0 1 0 0 0 1 3070b.dat
1 191 -150 -168 -70 1 0 0 0 1 0 0 0 1 3070b.dat
1 191 150 -168 -70 1 0 0 0 1 0 0 0 1 3070b.dat
0 STEP
1 0 70 -176 -170 0 0 -1 0 1 0 1 0 0 3623.dat
1 15 0 -176 -60 1 0 0 0 1 0 0 0 1 3022.dat
1 70 0 -176 -110 1 0 0 0 1 0 0 0 1 3710.dat
1 70 -80 -176 -130 1 0 0 0 1 0 0 0 1 3023.dat
1 70 80 -176 -130 1 0 0 0 1 0 0 0 1 3023.dat
1 70 -110 -176 -150 1 0 0 0 1 0 0 0 1 3024.dat
1 70 110 -176 -150 1 0 0 0 1 0 0 0 1 3024.dat
1 191 0 -176 60 1 0 0 0 1 0 0 0 1 2445.dat
1 191 -140 -176 -0 0 0 -1 0 1 0 1 0 0 3795.dat
1 191 140 -176 -0 0 0 -1 0 1 0 1 0 0 3795.dat
1 191 -180 -176 -0 0 0 -1 0 1 0 1 0 0 3020.dat
1 191 -110 -176 -20 0 0 -1 0 1 0 1 0 0 3666.dat
1 191 -70 -176 30 1 0 0 0 1 0 0 0 1 3623.dat
1 191 80 -176 30 1 0 0 0 1 0 0 0 1 3710.dat
1 191 180 -176 -0 0 0 -1 0 1 0 1 0 0 3020.dat
1 191 -210 -176 -0 0 0 -1 0 1 0 1 0 0 3023.dat
1 191 110 -176 -20 0 0 -1 0 1 0 1 0 0 3710.dat
1 191 210 -176 -0 0 0 -1 0 1 0 1 0 0 3023.dat
1 191 -70 -176 -40 1 0 0 0 1 0 0 0 1 3021.dat
1 191 70 -176 -40 1 0 0 0 1 0 0 0 1 3021.dat
1 191 -30 -176 -60 0 0 -1 0 1 0 1 0 0 3023.dat
1 191 30 -176 -60 0 0 -1 0 1 0 1 0 0 3023.dat
1 191 -70 -176 -70 1 0 0 0 1 0 0 0 1 3623.dat
1 191 80 -176 -70 1 0 0 0 1 0 0 0 1 3710.dat
1 191 -130 -176 70 1 0 0 0 1 0 0 0 1 3070b.dat
1 191 130 -176 70 1 0 0 0 1 0 0 0 1 3070b.dat
1 191 -130 -176 -70 1 0 0 0 1 0 0 0 1 3070b.dat
1 191 130 -176 -70 1 0 0 0 1 0 0 0 1 3070b.dat
0 STEP
1 0 70 -184 -170 0 0 -1 0 1 0 1 0 0 3623.dat
1 15 0 -184 -60 1 0 0 0 1 0 0 0 1 3020.dat
1 15 -50 -184 -120 0 0 -1 0 1 0 1 0 0 3666.dat
1 15 50 -184 -120 0 0 -1 0 1 0 1 0 0 3666.dat
1 15 -50 -184 -190 1 0 0 0 1 0 0 0 1 3024.dat
1 15 50 -184 -190 1 0 0 0 1 0 0 0 1 3024.dat
1 70 0 -184 -110 1 0 0 0 1 0 0 0 1 2431.dat
1 70 -80 -184 -130 1 0 0 0 1 0 0 0 1 3069b.dat
1 70 80 -184 -130 1 0 0 0 1 0 0 0 1 3069b.dat
1 70 -110 -184 -150 1 0 0 0 1 0 0 0 1 3070b.dat
1 70 110 -184 -150 1 0 0 0 1 0 0 0 1 3070b.dat
1 191 0 -184 60 1 0 0 0 1 0 0 0 1 3034.dat
1 191 -120 -184 -0 0 0 -1 0 1 0 1 0 0 3795.dat
1 191 -90 -184 -0 0 0 -1 0 1 0 1 0 0 3666.dat
1 191 100 -184 -0 0 0 -1 0 1 0 1 0 0 3795.dat
1 191 130 -184 -0 0 0 -1 0 1 0 1 0 0 3666.dat
1 191 -180 -184 -0 0 0 -1 0 1 0 1 0 0 3020.dat
1 191 0 -184 30 1 0 0 0 1 0 0 0 1 3460.dat
1 191 180 -184 -0 0 0 -1 0 1 0 1 0 0 3020.dat
1 191 -210 -184 -0 0 0 -1 0 1 0 1 0 0 3023.dat
1 191 -150 -184 -0 0 0 -1 0 1 0 1 0 0 3023.dat
1 191 -70 -184 -20 0 0 -1 0 1 0 1 0 0 3710.dat
1 191 70 -184 -20 0 0 -1 0 1 0 1 0 0 3710.dat
1 191 150 -184 -0 0 0 -1 0 1 0 1 0 0 3023.dat
1 191 210 -184 -0 0 0 -1 0 1 0 1 0 0 3023.dat
1 191 0 -184 -30 1 0 0 0 1 0 0 0 1 3666.dat
1 191 -50 -184 -50 1 0 0 0 1 0 0 0 1 3024.dat
1 191 50 -184 -50 1 0 0 0 1 0 0 0 1 3024.dat
1 191 -70 -184 -70 1 0 0 0 1 0 0 0 1 3024.dat
1 191 70 -184 -70 1 0 0 0 1 0 0 0 1 3024.dat
1 191 -100 -184 70 1 0 0 0 1 0 0 0 1 3069b.dat
1 191 100 -184 70 1 0 0 0 1 0 0 0 1 3069b.dat
1 191 -150 -184 40 0 0 -1 0 1 0 1 0 0 3069b.dat
1 191 150 -184 40 0 0 -1 0 1 0 1 0 0 3069b.dat
1 191 -150 -184 -40 0 0 -1 0 1 0 1 0 0 3069b.dat
1 191 150 -184 -40 0 0 -1 0 1 0 1 0 0 3069b.dat
1 191 -100 -184 -70 1 0 0 0 1 0 0 0 1 3069b.dat
1 191 100 -184 -70 1 0 0 0 1 0 0 0 1 3069b.dat
0 STEP
1 0 90 -192 -170 0 0 -1 0 1 0 1 0 0 3623.dat
1 15 -30 -192 -50 1 0 0 0 1 0 0 0 1 3024.dat
1 15 30 -192 -50 1 0 0 0 1 0 0 0 1 3024.dat
1 15 -50 -192 -120 0 0 -1 0 1 0 1 0 0 3666.dat
1 15 50 -192 -120 0 0 -1 0 1 0 1 0 0 3666.dat
1 15 -50 -192 -190 1 0 0 0 1 0 0 0 1 3024.dat
1 15 50 -192 -190 1 0 0 0 1 0 0 0 1 3024.dat
1 15 0 -192 -70 1 0 0 0 1 0 0 0 1 2431.dat
1 78 0 -192 -0 1 0 0 0 1 0 0 0 1 3031.dat
1 78 -50 -192 -0 0 0 -1 0 1 0 1 0 0 3023.dat
1 78 50 -192 -0 0 0 -1 0 1 0 1 0 0 3023.dat
1 78 0 -192 -50 1 0 0 0 1 0 0 0 1 3023.dat
1 191 -80 -192 -0 0 0 -1 0 1 0 1 0 0 3795.dat
1 191 20 -192 50 1 0 0 0 1 0 0 0 1 3460.dat
1 191 -110 -192 -0 0 0 -1 0 1 0 1 0 0 3710.dat
1 191 -50 -192 30 1 0 0 0 1 0 0 0 1 3024.dat
1 191 80 -192 30 1 0 0 0 1 0 0 0 1 3710.dat
1 191 -180 -192 -0 1 0 0 0 1 0 0 0 1 3022.dat
1 191 80 -192 -20 0 0 -1 0 1 0 1 0 0 3020.dat
1 191 110 -192 -10 0 0 -1 0 1 0 1 0 0 3623.dat
1 191 180 -192 -0 1 0 0 0 1 0 0 0 1 3022.dat
1 191 -50 -192 -40 0 0 -1 0 1 0 1 0 0 3023.dat
1 191 50 -192 -40 0 0 -1 0 1 0 1 0 0 3023.dat
1 191 0 -192 70 1 0 0 0 1 0 0 0 1 4162.dat
1 191 -130 -192 -0 0 0 -1 0 1 0 1 0 0 6636.dat
1 191 -110 -192 50 1 0 0 0 1 0 0 0 1 3070b.dat
1 191 120 -192 50 1 0 0 0 1 0 0 0 1 3069b.dat
1 191 -180 -192 30 1 0 0 0 1 0 0 0 1 3069b.dat
1 191 130 -192 -0 0 0 -1 0 1 0 1 0 0 2431.dat
1 191 180 -192 30 1 0 0 0 1 0 0 0 1 3069b.dat
1 191 -210 -192 -0 0 0 -1 0 1 0 1 0 0 3069b.dat
1 191 -150 -192 -0 0 0 -1 0 1 0 1 0 0 3069b.dat
1 191 150 -192 -0 0 0 -1 0 1 0 1 0 0 3069b.dat
1 191 210 -192 -0 0 0 -1 0 1 0 1 0 0 3069b.dat
1 191 -180 -192 -30 1 0 0 0 1 0 0 0 1 3069b.dat
1 191 180 -192 -30 1 0 0 0 1 0 0 0 1 3069b.dat
1 191 -110 -192 -50 1 0 0 0 1 0 0 0 1 3070b.dat
1 191 120 -192 -50 1 0 0 0 1 0 0 0 1 3069b.dat
1 191 -70 -192 -70 1 0 0 0 1 0 0 0 1 3070b.dat
1 191 70 -192 -70 1 0 0 0 1 0 0 0 1 3070b.dat
0 STEP
1 0 90 -200 -170 0 0 -1 0 1 0 1 0 0 3623.dat
1 15 -30 -200 -50 1 0 0 0 1 0 0 0 1 3070b.dat
1 15 30 -200 -50 1 0 0 0 1 0 0 0 1 3070b.dat
1 15 -50 -200 -120 0 0 -1 0 1 0 1 0 0 6636.dat
1 15 50 -200 -120 0 0 -1 0 1 0 1 0 0 6636.dat
1 15 -50 -200 -190 1 0 0 0 1 0 0 0 1 3070b.dat
1 15 50 -200 -190 1 0 0 0 1 0 0 0 1 3070b.dat
1 78 0 -200 -0 1 0 0 0 1 0 0 0 1 3031.dat
1 78 -50 -200 -0 0 0 -1 0 1 0 1 0 0 3023.dat
1 78 50 -200 -0 0 0 -1 0 1 0 1 0 0 3023.dat
1 78 0 -200 -50 1 0 0 0 1 0 0 0 1 3023.dat
1 191 -170 -200 -0 0 0 -1 0 1 0 1 0 0 3023.dat
1 191 170 -200 -0 0 0 -1 0 1 0 1 0 0 3023.dat
1 191 -20 -200 50 1 0 0 0 1 0 0 0 1 4162.dat
1 191 70 -200 -0 0 0 -1 0 1 0 1 0 0 6636.dat
1 191 90 -200 -0 0 0 -1 0 1 0 1 0 0 6636.dat
1 191 -80 -200 30 1 0 0 0 1 0 0 0 1 2431.dat
1 191 50 -200 30 1 0 0 0 1 0 0 0 1 3070b.dat
1 191 110 -200 -0 0 0 -1 0 1 0 1 0 0 2431.dat
1 191 -190 -200 -0 0 0 -1 0 1 0 1 0 0 3069b.dat
1 191 -100 -200 -0 1 0 0 0 1 0 0 0 1 3068b.dat
1 191 -70 -200 -20 0 0 -1 0 1 0 1 0 0 2431.dat
1 191 190 -200 -0 0 0 -1 0 1 0 1 0 0 3069b.dat
1 191 -100 -200 -30 1 0 0 0 1 0 0 0 1 3069b.dat
1 191 -50 -200 -40 0 0 -1 0 1 0 1 0 0 3069b.dat
1 191 50 -200 -40 0 0 -1 0 1 0 1 0 0 3069b.dat
1 191 -90 -200 -50 1 0 0 0 1 0 0 0 1 3070b.dat
0 STEP
1 14 90 -208 -170 0 0 -1 0 1 0 1 0 0 63864.dat
1 78 0 -208 -0 1 0 0 0 1 0 0 0 1 3031.dat
1 78 -50 -208 -0 0 0 -1 0 1 0 1 0 0 3023.dat
1 78 50 -208 -0 0 0 -1 0 1 0 1 0 0 3023.dat
1 78 0 -208 -50 1 0 0 0 1 0 0 0 1 3023.dat
1 191 -170 -208 -0 0 0 -1 0 1 0 1 0 0 3069b.dat
1 191 170 -208 -0 0 0 -1 0 1 0 1 0 0 3069b.dat
0 STEP
1 0 0 -216 80 1 0 0 0 1 0 0 0 1 3031.dat
1 0 -60 -216 70 0 0 -1 0 1 0 1 0 0 3021.dat
1 0 60 -216 70 0 0 -1 0 1 0 1 0 0 3021.dat
1 0 -90 -216 60 0 0 -1 0 1 0 1 0 0 3023.dat
1 0 90 -216 60 0 0 -1 0 1 0 1 0 0 3023.dat
1 0 -110 -216 -0 0 0 -1 0 1 0 1 0 0 3666.dat
1 0 110 -216 -0 0 0 -1 0 1 0 1 0 0 3666.dat
1 0 110 -216 -170 0 0 -1 0 1 0 1 0 0 3623.dat
1 78 0 -216 -0 1 0 0 0 1 0 0 0 1 3031.dat
1 78 -50 -216 -10 0 0 -1 0 1 0 1 0 0 3623.dat
1 78 50 -216 -10 0 0 -1 0 1 0 1 0 0 3623.dat
1 78 0 -216 -50 1 0 0 0 1 0 0 0 1 3710.dat
0 STEP
1 0 0 -224 80 1 0 0 0 1 0 0 0 1 3032.dat
1 0 -70 -224 70 0 0 -1 0 1 0 1 0 0 3623.dat
1 0 70 -224 70 0 0 -1 0 1 0 1 0 0 3623.dat
1 0 -90 -224 60 0 0 -1 0 1 0 1 0 0 3023.dat
1 0 90 -224 60 0 0 -1 0 1 0 1 0 0 3023.dat
1 0 -110 -224 -0 0 0 -1 0 1 0 1 0 0 3666.dat
1 0 110 -224 -0 0 0 -1 0 1 0 1 0 0 3666.dat
1 0 -130 -224 -0 0 0 -1 0 1 0 1 0 0 3023.dat
1 0 130 -224 -0 0 0 -1 0 1 0 1 0 0 3023.dat
1 0 110 -224 -170 0 0 -1 0 1 0 1 0 0 3623.dat
1 78 0 -224 -0 1 0 0 0 1 0 0 0 1 3032.dat
1 78 -70 -224 -10 1 0 0 0 1 0 0 0 1 3024.dat
1 78 70 -224 -10 1 0 0 0 1 0 0 0 1 3024.dat
1 78 0 -224 -50 1 0 0 0 1 0 0 0 1 3666.dat
1 78 0 -224 -70 1 0 0 0 1 0 0 0 1 3023.dat
0 STEP
1 0 0 -232 80 1 0 0 0 1 0 0 0 1 3032.dat
1 0 -80 -232 70 0 0 -1 0 1 0 1 0 0 3021.dat
1 0 80 -232 70 0 0 -1 0 1 0 1 0 0 3021.dat
1 0 -110 -232 20 0 0 -1 0 1 0 1 0 0 3666.dat
1 0 110 -232 20 0 0 -1 0 1 0 1 0 0 3666.dat
1 0 -130 -232 -0 0 0 -1 0 1 0 1 0 0 3710.dat
1 0 130 -232 -0 0 0 -1 0 1 0 1 0 0 3710.dat
1 0 -110 -232 -50 1 0 0 0 1 0 0 0 1 3024.dat
1 0 110 -232 -50 1 0 0 0 1 0 0 0 1 3024.dat
1 0 110 -232 -170 0 0 -1 0 1 0 1 0 0 3623.dat
1 78 0 -232 -0 1 0 0 0 1 0 0 0 1 3032.dat
1 78 -70 -232 -10 0 0 -1 0 1 0 1 0 0 3623.dat
1 78 70 -232 -10 0 0 -1 0 1 0 1 0 0 3623.dat
1 78 0 -232 -50 1 0 0 0 1 0 0 0 1 3666.dat
1 78 0 -232 -70 1 0 0 0 1 0 0 0 1 3710.dat
0 STEP
1 0 0 -240 100 1 0 0 0 1 0 0 0 1 3795.dat
1 0 -80 -240 70 0 0 -1 0 1 0 1 0 0 3021.dat
1 0 80 -240 70 0 0 -1 0 1 0 1 0 0 3021.dat
1 0 -110 -240 -0 0 0 -1 0 1 0 1 0 0 3460.dat
1 0 -40 -240 60 1 0 0 0 1 0 0 0 1 3022.dat
1 0 40 -240 60 1 0 0 0 1 0 0 0 1 3022.dat
1 0 110 -240 -0 0 0 -1 0 1 0 1 0 0 3460.dat
1 0 -130 -240 -0 0 0 -1 0 1 0 1 0 0 3710.dat
1 0 130 -240 -0 0 0 -1 0 1 0 1 0 0 3710.dat
1 78 -60 -240 -0 0 0 -1 0 1 0 1 0 0 3020.dat
1 78 -30 -240 -20 0 0 -1 0 1 0 1 0 0 3666.dat
1 78 40 -240 -20 0 0 -1 0 1 0 1 0 0 3795.dat
1 78 70 -240 -0 0 0 -1 0 1 0 1 0 0 3710.dat
1 78 0 -240 -50 0 0 -1 0 1 0 1 0 0 3021.dat
1 78 -60 -240 -50 1 0 0 0 1 0 0 0 1 3023.dat
1 78 70 -240 -50 1 0 0 0 1 0 0 0 1 3024.dat
1 78 -50 -240 -70 1 0 0 0 1 0 0 0 1 3024.dat
0 STEP
1 0 0 -248 100 1 0 0 0 1 0 0 0 1 3795.dat
1 0 -80 -248 70 0 0 -1 0 1 0 1 0 0 3021.dat
1 0 80 -248 70 0 0 -1 0 1 0 1 0 0 3021.dat
1 0 -110 -248 -0 0 0 -1 0 1 0 1 0 0 3460.dat
1 0 -40 -248 60 1 0 0 0 1 0 0 0 1 3022.dat
1 0 40 -248 60 1 0 0 0 1 0 0 0 1 3022.dat
1 0 110 -248 -0 0 0 -1 0 1 0 1 0 0 3460.dat
1 0 -130 -248 20 0 0 -1 0 1 0 1 0 0 3710.dat
1 0 130 -248 20 0 0 -1 0 1 0 1 0 0 3710.dat
1 0 -130 -248 -30 1 0 0 0 1 0 0 0 1 3024.dat
1 0 130 -248 -30 1 0 0 0 1 0 0 0 1 3024.dat
1 78 -60 -248 -0 0 0 -1 0 1 0 1 0 0 3020.dat
1 78 -30 -248 -20 0 0 -1 0 1 0 1 0 0 3666.dat
1 78 40 -248 -20 0 0 -1 0 1 0 1 0 0 3795.dat
1 78 70 -248 -0 0 0 -1 0 1 0 1 0 0 3710.dat
1 78 -90 -248 -10 0 0 -1 0 1 0 1 0 0 3623.dat
1 78 90 -248 -10 0 0 -1 0 1 0 1 0 0 3623.dat
1 78 0 -248 -60 0 0 -1 0 1 0 1 0 0 3020.dat
1 78 -60 -248 -50 1 0 0 0 1 0 0 0 1 3023.dat
1 78 70 -248 -50 1 0 0 0 1 0 0 0 1 3024.dat
1 78 -50 -248 -70 1 0 0 0 1 0 0 0 1 3024.dat
0 STEP
1 0 0 -256 100 1 0 0 0 1 0 0 0 1 3034.dat
1 0 -90 -256 70 0 0 -1 0 1 0 1 0 0 3623.dat
1 0 90 -256 70 0 0 -1 0 1 0 1 0 0 3623.dat
1 0 -110 -256 -0 0 0 -1 0 1 0 1 0 0 3460.dat
1 0 -60 -256 60 1 0 0 0 1 0 0 0 1 3022.dat
1 0 -30 -256 70 1 0 0 0 1 0 0 0 1 3024.dat
1 0 50 -256 70 1 0 0 0 1 0 0 0 1 3623.dat
1 0 110 -256 -0 0 0 -1 0 1 0 1 0 0 3460.dat
1 0 -130 -256 -0 0 0 -1 0 1 0 1 0 0 3666.dat
1 0 60 -256 50 1 0 0 0 1 0 0 0 1 3023.dat
1 0 130 -256 -0 0 0 -1 0 1 0 1 0 0 3666.dat
1 78 -80 -256 -0 0 0 -1 0 1 0 1 0 0 3020.dat
1 78 -50 -256 -20 0 0 -1 0 1 0 1 0 0 3666.dat
1 78 60 -256 -20 0 0 -1 0 1 0 1 0 0 3795.dat
1 78 90 -256 -0 0 0 -1 0 1 0 1 0 0 3710.dat
1 78 -30 -256 -60 0 0 -1 0 1 0 1 0 0 3710.dat
1 78 30 -256 -60 0 0 -1 0 1 0 1 0 0 3710.dat
1 78 -70 -256 -60 0 0 -1 0 1 0 1 0 0 3023.dat
1 78 0 -256 -70 0 0 -1 0 1 0 1 0 0 3021.dat
0 STEP
1 0 0 -264 100 1 0 0 0 1 0 0 0 1 3034.dat
1 0 -90 -264 70 0 0 -1 0 1 0 1 0 0 3623.dat
1 0 90 -264 70 0 0 -1 0 1 0 1 0 0 3623.dat
1 0 -110 -264 -0 0 0 -1 0 1 0 1 0 0 3460.dat
1 0 -60 -264 60 1 0 0 0 1 0 0 0 1 3022.dat
1 0 -30 -264 70 1 0 0 0 1 0 0 0 1 3024.dat
1 0 50 -264 70 1 0 0 0 1 0 0 0 1 3623.dat
1 0 110 -264 -0 0 0 -1 0 1 0 1 0 0 3460.dat
1 0 -130 -264 -0 0 0 -1 0 1 0 1 0 0 3666.dat
1 0 60 -264 50 1 0 0 0 1 0 0 0 1 3023.dat
1 0 130 -264 -0 0 0 -1 0 1 0 1 0 0 3666.dat
1 78 -80 -264 -0 0 0 -1 0 1 0 1 0 0 3020.dat
1 78 -50 -264 -20 0 0 -1 0 1 0 1 0 0 3666.dat
1 78 60 -264 -20 0 0 -1 0 1 0 1 0 0 3795.dat
1 78 90 -264 -0 0 0 -1 0 1 0 1 0 0 3710.dat
1 78 -30 -264 -60 0 0 -1 0 1 0 1 0 0 3710.dat
1 78 30 -264 -60 0 0 -1 0 1 0 1 0 0 3710.dat
1 78 -80 -264 -50 1 0 0 0 1 0 0 0 1 3023.dat
1 78 0 -264 -70 0 0 -1 0 1 0 1 0 0 3021.dat
1 78 90 -264 -50 1 0 0 0 1 0 0 0 1 3024.dat
1 78 -70 -264 -70 1 0 0 0 1 0 0 0 1 3024.dat
1 78 -50 -264 -90 1 0 0 0 1 0 0 0 1 3024.dat
1 78 50 -264 -90 1 0 0 0 1 0 0 0 1 3024.dat
0 STEP
1 0 0 -272 110 0 0 -1 0 1 0 1 0 0 3021.dat
1 0 -50 -272 100 1 0 0 0 1 0 0 0 1 3021.dat
1 0 50 -272 100 1 0 0 0 1 0 0 0 1 3021.dat
1 0 -90 -272 70 0 0 -1 0 1 0 1 0 0 3623.dat
1 0 90 -272 70 0 0 -1 0 1 0 1 0 0 3623.dat
1 0 -110 -272 -0 0 0 -1 0 1 0 1 0 0 3460.dat
1 0 -60 -272 70 1 0 0 0 1 0 0 0 1 3023.dat
1 0 60 -272 70 1 0 0 0 1 0 0 0 1 3023.dat
1 0 110 -272 -0 0 0 -1 0 1 0 1 0 0 3460.dat
1 0 -130 -272 -0 0 0 -1 0 1 0 1 0 0 3666.dat
1 0 -70 -272 50 1 0 0 0 1 0 0 0 1 3024.dat
1 0 70 -272 50 1 0 0 0 1 0 0 0 1 3024.dat
1 0 130 -272 -0 0 0 -1 0 1 0 1 0 0 3666.dat
1 78 -90 -272 30 1 0 0 0 1 0 0 0 1 3024.dat
1 78 90 -272 30 1 0 0 0 1 0 0 0 1 3024.dat
1 78 -70 -272 -20 1 0 0 0 1 0 0 0 1 3021.dat
1 78 60 -272 -40 0 0 -1 0 1 0 1 0 0 3020.dat
1 78 90 -272 -30 0 0 -1 0 1 0 1 0 0 3623.dat
1 78 -40 -272 -50 1 0 0 0 1 0 0 0 1 3666.dat
1 78 30 -272 -70 0 0 -1 0 1 0 1 0 0 3623.dat
1 78 -40 -272 -70 1 0 0 0 1 0 0 0 1 3710.dat
1 78 10 -272 -80 0 0 -1 0 1 0 1 0 0 3023.dat
1 78 -30 -272 -90 1 0 0 0 1 0 0 0 1 3623.dat
1 78 50 -272 -90 1 0 0 0 1 0 0 0 1 3024.dat
0 STEP
1 0 0 -280 110 0 0 -1 0 1 0 1 0 0 3021.dat
1 0 -50 -280 100 1 0 0 0 1 0 0 0 1 3021.dat
1 0 50 -280 100 1 0 0 0 1 0 0 0 1 3021.dat
1 0 -90 -280 70 0 0 -1 0 1 0 1 0 0 3623.dat
1 0 90 -280 70 0 0 -1 0 1 0 1 0 0 3623.dat
1 0 -110 -280 -0 0 0 -1 0 1 0 1 0 0 3460.dat
1 0 -60 -280 70 1 0 0 0 1 0 0 0 1 3023.dat
1 0 60 -280 70 1 0 0 0 1 0 0 0 1 3023.dat
1 0 110 -280 -0 0 0 -1 0 1 0 1 0 0 3460.dat
1 0 -130 -280 -0 0 0 -1 0 1 0 1 0 0 3666.dat
1 0 -70 -280 50 1 0 0 0 1 0 0 0 1 3024.dat
1 0 70 -280 50 1 0 0 0 1 0 0 0 1 3024.dat
1 0 130 -280 -0 0 0 -1 0 1 0 1 0 0 3666.dat
1 78 -90 -280 30 1 0 0 0 1 0 0 0 1 3024.dat
1 78 90 -280 30 1 0 0 0 1 0 0 0 1 3024.dat
1 78 -70 -280 -40 1 0 0 0 1 0 0 0 1 3021.dat
1 78 70 -280 -40 1 0 0 0 1 0 0 0 1 3021.dat
1 78 -30 -280 -70 0 0 -1 0 1 0 1 0 0 3623.dat
1 78 30 -280 -70 0 0 -1 0 1 0 1 0 0 3623.dat
1 78 -70 -280 -70 1 0 0 0 1 0 0 0 1 3623.dat
1 78 0 -280 -90 0 0 -1 0 1 0 1 0 0 3021.dat
1 78 70 -280 -70 1 0 0 0 1 0 0 0 1 3623.dat
1 78 -50 -280 -90 1 0 0 0 1 0 0 0 1 3024.dat
1 78 50 -280 -90 1 0 0 0 1 0 0 0 1 3024.dat
0 STEP
1 0 0 -288 120 1 0 0 0 1 0 0 0 1 3020.dat
1 0 -60 -288 90 0 0 -1 0 1 0 1 0 0 3021.dat
1 0 60 -288 90 0 0 -1 0 1 0 1 0 0 3021.dat
1 0 -110 -288 20 0 0 -1 0 1 0 1 0 0 3460.dat
1 0 -90 -288 70 0 0 -1 0 1 0 1 0 0 3623.dat
1 0 0 -288 90 1 0 0 0 1 0 0 0 1 3710.dat
1 0 100 -288 70 0 0 -1 0 1 0 1 0 0 3021.dat
1 0 -130 -288 -0 0 0 -1 0 1 0 1 0 0 3666.dat
1 0 -70 -288 50 1 0 0 0 1 0 0 0 1 3024.dat
1 0 70 -288 50 1 0 0 0 1 0 0 0 1 3024.dat
1 0 130 -288 -0 0 0 -1 0 1 0 1 0 0 3666.dat
1 0 110 -288 -20 0 0 -1 0 1 0 1 0 0 3666.dat
1 0 -110 -288 -70 1 0 0 0 1 0 0 0 1 3024.dat
1 78 -90 -288 30 1 0 0 0 1 0 0 0 1 3024.dat
1 78 90 -288 30 1 0 0 0 1 0 0 0 1 3024.dat
1 78 -70 -288 -40 1 0 0 0 1 0 0 0 1 3021.dat
1 78 60 -288 -60 0 0 -1 0 1 0 1 0 0 3020.dat
1 78 90 -288 -50 0 0 -1 0 1 0 1 0 0 3623.dat
1 78 -30 -288 -80 0 0 -1 0 1 0 1 0 0 3710.dat
1 78 30 -288 -80 0 0 -1 0 1 0 1 0 0 3710.dat
1 78 -70 -288 -70 1 0 0 0 1 0 0 0 1 3623.dat
1 78 0 -288 -90 0 0 -1 0 1 0 1 0 0 3021.dat
1 78 -60 -288 -90 1 0 0 0 1 0 0 0 1 3023.dat
0 STEP
1 0 0 -296 120 1 0 0 0 1 0 0 0 1 3020.dat
1 0 -60 -296 90 0 0 -1 0 1 0 1 0 0 3021.dat
1 0 60 -296 90 0 0 -1 0 1 0 1 0 0 3021.dat
1 0 -110 -296 20 0 0 -1 0 1 0 1 0 0 3460.dat
1 0 -90 -296 70 0 0 -1 0 1 0 1 0 0 3623.dat
1 0 0 -296 90 1 0 0 0 1 0 0 0 1 3710.dat
1 0 100 -296 70 0 0 -1 0 1 0 1 0 0 3021.dat
1 0 -130 -296 -0 0 0 -1 0 1 0 1 0 0 3666.dat
1 0 -70 -296 50 1 0 0 0 1 0 0 0 1 3024.dat
1 0 70 -296 50 1 0 0 0 1 0 0 0 1 3024.dat
1 0 130 -296 -0 0 0 -1 0 1 0 1 0 0 3666.dat
1 0 110 -296 -20 0 0 -1 0 1 0 1 0 0 3666.dat
1 0 -150 -296 10 1 0 0 0 1 0 0 0 1 3024.dat
1 0 150 -296 10 1 0 0 0 1 0 0 0 1 3024.dat
1 0 -110 -296 -70 1 0 0 0 1 0 0 0 1 3024.dat
1 78 -90 -296 30 1 0 0 0 1 0 0 0 1 3024.dat
1 78 90 -296 30 1 0 0 0 1 0 0 0 1 3024.dat
1 78 -90 -296 -50 0 0 -1 0 1 0 1 0 0 3623.dat
1 78 90 -296 -50 0 0 -1 0 1 0 1 0 0 3623.dat
1 78 -50 -296 -60 1 0 0 0 1 0 0 0 1 3021.dat
1 78 50 -296 -60 1 0 0 0 1 0 0 0 1 3021.dat
1 78 0 -296 -80 1 0 0 0 1 0 0 0 1 3022.dat
1 78 -50 -296 -90 1 0 0 0 1 0 0 0 1 3623.dat
1 78 50 -296 -90 1 0 0 0 1 0 0 0 1 3623.dat
1 320 0 -296 -110 1 0 0 0 1 0 0 0 1 3710.dat
0 STEP
1 0 0 -304 120 1 0 0 0 1 0 0 0 1 3020.dat
1 0 -60 -304 90 0 0 -1 0 1 0 1 0 0 3021.dat
1 0 60 -304 90 0 0 -1 0 1 0 1 0 0 3021.dat
1 0 -110 -304 20 0 0 -1 0 1 0 1 0 0 3460.dat
1 0 -90 -304 70 0 0 -1 0 1 0 1 0 0 3623.dat
1 0 0 -304 90 1 0 0 0 1 0 0 0 1 3710.dat
1 0 100 -304 70 0 0 -1 0 1 0 1 0 0 3021.dat
1 0 -130 -304 -0 0 0 -1 0 1 0 1 0 0 3666.dat
1 0 130 -304 -0 0 0 -1 0 1 0 1 0 0 3666.dat
1 0 110 -304 -20 0 0 -1 0 1 0 1 0 0 3666.dat
1 0 -150 -304 -0 0 0 -1 0 1 0 1 0 0 3023.dat
1 0 150 -304 -0 0 0 -1 0 1 0 1 0 0 3023.dat
1 0 -110 -304 -70 1 0 0 0 1 0 0 0 1 3024.dat
1 78 -90 -304 30 1 0 0 0 1 0 0 0 1 3024.dat
1 78 90 -304 30 1 0 0 0 1 0 0 0 1 3024.dat
1 78 -90 -304 -50 0 0 -1 0 1 0 1 0 0 3623.dat
1 78 90 -304 -50 0 0 -1 0 1 0 1 0 0 3623.dat
1 78 -60 -304 -60 1 0 0 0 1 0 0 0 1 3022.dat
1 78 60 -304 -60 1 0 0 0 1 0 0 0 1 3022.dat
1 78 0 -304 -80 1 0 0 0 1 0 0 0 1 3020.dat
1 78 -70 -304 -90 1 0 0 0 1 0 0 0 1 3024.dat
1 78 70 -304 -90 1 0 0 0 1 0 0 0 1 3024.dat
1 78 0 -304 -110 1 0 0 0 1 0 0 0 1 3710.dat
1 320 -50 -304 -90 1 0 0 0 1 0 0 0 1 3024.dat
1 320 50 -304 -90 1 0 0 0 1 0 0 0 1 3024.dat
0 STEP
1 0 0 -312 120 1 0 0 0 1 0 0 0 1 3020.dat
1 0 -60 -312 90 0 0 -1 0 1 0 1 0 0 3021.dat
1 0 60 -312 90 0 0 -1 0 1 0 1 0 0 3021.dat
1 0 -110 -312 20 0 0 -1 0 1 0 1 0 0 3460.dat
1 0 -90 -312 70 0 0 -1 0 1 0 1 0 0 3623.dat
1 0 0 -312 90 1 0 0 0 1 0 0 0 1 3710.dat
1 0 100 -312 70 0 0 -1 0 1 0 1 0 0 3021.dat
1 0 -130 -312 20 0 0 -1 0 1 0 1 0 0 3666.dat
1 0 130 -312 20 0 0 -1 0 1 0 1 0 0 3666.dat
1 0 110 -312 -20 0 0 -1 0 1 0 1 0 0 3666.dat
1 0 -150 -312 -0 0 0 -1 0 1 0 1 0 0 3023.dat
1 0 150 -312 -0 0 0 -1 0 1 0 1 0 0 3023.dat
1 0 -130 -312 -50 1 0 0 0 1 0 0 0 1 3024.dat
1 0 130 -312 -50 1 0 0 0 1 0 0 0 1 3024.dat
1 0 -110 -312 -70 1 0 0 0 1 0 0 0 1 3024.dat
1 78 -90 -312 30 1 0 0 0 1 0 0 0 1 3024.dat
1 78 90 -312 30 1 0 0 0 1 0 0 0 1 3024.dat
1 78 -90 -312 -50 0 0 -1 0 1 0 1 0 0 3623.dat
1 78 90 -312 -50 0 0 -1 0 1 0 1 0 0 3623.dat
1 78 -60 -312 -70 0 0 -1 0 1 0 1 0 0 3021.dat
1 78 60 -312 -70 0 0 -1 0 1 0 1 0 0 3021.dat
1 78 0 -312 -80 1 0 0 0 1 0 0 0 1 3020.dat
1 78 0 -312 -110 1 0 0 0 1 0 0 0 1 3666.dat
0 STEP
1 0 0 -320 120 1 0 0 0 1 0 0 0 1 3020.dat
1 0 -60 -320 90 0 0 -1 0 1 0 1 0 0 3021.dat
1 0 60 -320 90 0 0 -1 0 1 0 1 0 0 3021.dat
1 0 -110 -320 -0 0 0 -1 0 1 0 1 0 0 4477.dat
1 0 -90 -320 70 0 0 -1 0 1 0 1 0 0 3623.dat
1 0 0 -320 90 1 0 0 0 1 0 0 0 1 3710.dat
1 0 100 -320 70 0 0 -1 0 1 0 1 0 0 3021.dat
1 0 -130 -320 20 0 0 -1 0 1 0 1 0 0 3666.dat
1 0 130 -320 20 0 0 -1 0 1 0 1 0 0 3666.dat
1 0 110 -320 -20 0 0 -1 0 1 0 1 0 0 3666.dat
1 0 -150 -320 -0 0 0 -1 0 1 0 1 0 0 3023.dat
1 0 150 -320 -0 0 0 -1 0 1 0 1 0 0 3023.dat
1 0 -130 -320 -50 1 0 0 0 1 0 0 0 1 3024.dat
1 0 130 -320 -50 1 0 0 0 1 0 0 0 1 3024.dat
1 0 110 -320 -90 1 0 0 0 1 0 0 0 1 3024.dat
1 78 -90 -320 30 1 0 0 0 1 0 0 0 1 3024.dat
1 78 90 -320 30 1 0 0 0 1 0 0 0 1 3024.dat
1 78 -90 -320 -50 0 0 -1 0 1 0 1 0 0 3623.dat
1 78 90 -320 -50 0 0 -1 0 1 0 1 0 0 3623.dat
1 78 -60 -320 -70 0 0 -1 0 1 0 1 0 0 3021.dat
1 78 60 -320 -70 0 0 -1 0 1 0 1 0 0 3021.dat
1 78 0 -320 -80 1 0 0 0 1 0 0 0 1 3020.dat
1 78 0 -320 -110 1 0 0 0 1 0 0 0 1 3666.dat
0 STEP
1 0 0 -328 120 1 0 0 0 1 0 0 0 1 3020.dat
1 0 -60 -328 90 0 0 -1 0 1 0 1 0 0 3021.dat
1 0 60 -328 90 0 0 -1 0 1 0 1 0 0 3021.dat
1 0 -110 -328 -0 0 0 -1 0 1 0 1 0 0 4477.dat
1 0 -90 -328 70 0 0 -1 0 1 0 1 0 0 3623.dat
1 0 0 -328 90 1 0 0 0 1 0 0 0 1 3710.dat
1 0 100 -328 70 0 0 -1 0 1 0 1 0 0 3021.dat
1 0 -130 -328 20 0 0 -1 0 1 0 1 0 0 3666.dat
1 0 130 -328 20 0 0 -1 0 1 0 1 0 0 3666.dat
1 0 110 -328 -20 0 0 -1 0 1 0 1 0 0 3666.dat
1 0 -150 -328 -0 0 0 -1 0 1 0 1 0 0 3023.dat
1 0 150 -328 -0 0 0 -1 0 1 0 1 0 0 3023.dat
1 0 -130 -328 -50 1 0 0 0 1 0 0 0 1 3024.dat
1 0 130 -328 -50 1 0 0 0 1 0 0 0 1 3024.dat
1 0 110 -328 -90 1 0 0 0 1 0 0 0 1 3024.dat
1 78 -90 -328 -50 0 0 -1 0 1 0 1 0 0 3623.dat
1 78 90 -328 -50 0 0 -1 0 1 0 1 0 0 3623.dat
1 78 -60 -328 -70 0 0 -1 0 1 0 1 0 0 3021.dat
1 78 60 -328 -70 0 0 -1 0 1 0 1 0 0 3021.dat
1 78 -30 -328 -90 0 0 -1 0 1 0 1 0 0 3623.dat
1 78 30 -328 -90 0 0 -1 0 1 0 1 0 0 3623.dat
1 78 0 -328 -110 0 0 -1 0 1 0 1 0 0 3021.dat
1 78 -50 -328 -110 1 0 0 0 1 0 0 0 1 3024.dat
1 78 50 -328 -110 1 0 0 0 1 0 0 0 1 3024.dat
0 STEP
1 0 0 -336 120 1 0 0 0 1 0 0 0 1 3020.dat
1 0 -60 -336 90 0 0 -1 0 1 0 1 0 0 3021.dat
1 0 60 -336 90 0 0 -1 0 1 0 1 0 0 3021.dat
1 0 -110 -336 -0 0 0 -1 0 1 0 1 0 0 4477.dat
1 0 -90 -336 70 0 0 -1 0 1 0 1 0 0 3623.dat
1 0 0 -336 90 1 0 0 0 1 0 0 0 1 3710.dat
1 0 100 -336 70 0 0 -1 0 1 0 1 0 0 3021.dat
1 0 -130 -336 20 0 0 -1 0 1 0 1 0 0 3666.dat
1 0 130 -336 20 0 0 -1 0 1 0 1 0 0 3666.dat
1 0 110 -336 -20 0 0 -1 0 1 0 1 0 0 3666.dat
1 0 -150 -336 -0 0 0 -1 0 1 0 1 0 0 3023.dat
1 0 150 -336 -0 0 0 -1 0 1 0 1 0 0 3023.dat
1 0 -130 -336 -50 1 0 0 0 1 0 0 0 1 3024.dat
1 0 130 -336 -50 1 0 0 0 1 0 0 0 1 3024.dat
1 0 110 -336 -90 1 0 0 0 1 0 0 0 1 3024.dat
1 78 -90 -336 30 1 0 0 0 1 0 0 0 1 3024.dat
1 78 90 -336 30 1 0 0 0 1 0 0 0 1 3024.dat
1 78 -90 -336 -60 0 0 -1 0 1 0 1 0 0 3710.dat
1 78 90 -336 -60 0 0 -1 0 1 0 1 0 0 3710.dat
1 78 -60 -336 -70 0 0 -1 0 1 0 1 0 0 3021.dat
1 78 60 -336 -70 0 0 -1 0 1 0 1 0 0 3021.dat
1 78 -30 -336 -90 0 0 -1 0 1 0 1 0 0 3623.dat
1 78 30 -336 -90 0 0 -1 0 1 0 1 0 0 3623.dat
1 78 0 -336 -110 0 0 -1 0 1 0 1 0 0 3021.dat
1 78 -50 -336 -110 1 0 0 0 1 0 0 0 1 3024.dat
1 78 50 -336 -110 1 0 0 0 1 0 0 0 1 3024.dat
0 STEP
1 0 0 -344 120 1 0 0 0 1 0 0 0 1 3020.dat
1 0 -60 -344 90 0 0 -1 0 1 0 1 0 0 3021.dat
1 0 60 -344 90 0 0 -1 0 1 0 1 0 0 3021.dat
1 0 -110 -344 20 0 0 -1 0 1 0 1 0 0 3460.dat
1 0 -90 -344 70 0 0 -1 0 1 0 1 0 0 3623.dat
1 0 0 -344 90 1 0 0 0 1 0 0 0 1 3710.dat
1 0 100 -344 70 0 0 -1 0 1 0 1 0 0 3021.dat
1 0 -130 -344 20 0 0 -1 0 1 0 1 0 0 3666.dat
1 0 130 -344 20 0 0 -1 0 1 0 1 0 0 3666.dat
1 0 110 -344 -20 0 0 -1 0 1 0 1 0 0 3666.dat
1 0 -150 -344 -0 0 0 -1 0 1 0 1 0 0 3023.dat
1 0 150 -344 -0 0 0 -1 0 1 0 1 0 0 3023.dat
1 0 -130 -344 -50 1 0 0 0 1 0 0 0 1 3024.dat
1 0 130 -344 -50 1 0 0 0 1 0 0 0 1 3024.dat
1 0 -110 -344 -70 1 0 0 0 1 0 0 0 1 3024.dat
1 78 -90 -344 30 1 0 0 0 1 0 0 0 1 3024.dat
1 78 90 -344 30 1 0 0 0 1 0 0 0 1 3024.dat
1 78 -90 -344 -60 0 0 -1 0 1 0 1 0 0 3710.dat
1 78 90 -344 -60 0 0 -1 0 1 0 1 0 0 3710.dat
1 78 -60 -344 -70 0 0 -1 0 1 0 1 0 0 3021.dat
1 78 60 -344 -70 0 0 -1 0 1 0 1 0 0 3021.dat
1 78 -30 -344 -90 0 0 -1 0 1 0 1 0 0 3623.dat
1 78 30 -344 -90 0 0 -1 0 1 0 1 0 0 3623.dat
1 78 0 -344 -110 0 0 -1 0 1 0 1 0 0 3021.dat
1 78 -50 -344 -110 1 0 0 0 1 0 0 0 1 3024.dat
1 78 50 -344 -110 1 0 0 0 1 0 0 0 1 3024.dat
0 STEP
1 0 0 -352 120 1 0 0 0 1 0 0 0 1 3020.dat
1 0 -60 -352 90 0 0 -1 0 1 0 1 0 0 3021.dat
1 0 60 -352 90 0 0 -1 0 1 0 1 0 0 3021.dat
1 0 -110 -352 20 0 0 -1 0 1 0 1 0 0 3460.dat
1 0 -90 -352 70 0 0 -1 0 1 0 1 0 0 3623.dat
1 0 0 -352 90 1 0 0 0 1 0 0 0 1 3710.dat
1 0 100 -352 70 0 0 -1 0 1 0 1 0 0 3021.dat
1 0 -130 -352 -0 0 0 -1 0 1 0 1 0 0 3666.dat
1 0 130 -352 -0 0 0 -1 0 1 0 1 0 0 3666.dat
1 0 110 -352 -20 0 0 -1 0 1 0 1 0 0 3666.dat
1 0 -150 -352 -0 0 0 -1 0 1 0 1 0 0 3023.dat
1 0 150 -352 -0 0 0 -1 0 1 0 1 0 0 3023.dat
1 0 -110 -352 -70 1 0 0 0 1 0 0 0 1 3024.dat
1 78 -90 -352 30 1 0 0 0 1 0 0 0 1 3024.dat
1 78 90 -352 30 1 0 0 0 1 0 0 0 1 3024.dat
1 78 -90 -352 -60 0 0 -1 0 1 0 1 0 0 3710.dat
1 78 90 -352 -60 0 0 -1 0 1 0 1 0 0 3710.dat
1 78 -70 -352 -70 0 0 -1 0 1 0 1 0 0 3623.dat
1 78 70 -352 -70 0 0 -1 0 1 0 1 0 0 3623.dat
1 78 -40 -352 -90 0 0 -1 0 1 0 1 0 0 3021.dat
1 78 40 -352 -90 0 0 -1 0 1 0 1 0 0 3021.dat
1 78 0 -352 -110 0 0 -1 0 1 0 1 0 0 3021.dat
0 STEP
1 0 0 -360 120 1 0 0 0 1 0 0 0 1 3020.dat
1 0 -60 -360 90 0 0 -1 0 1 0 1 0 0 3021.dat
1 0 60 -360 90 0 0 -1 0 1 0 1 0 0 3021.dat
1 0 -110 -360 20 0 0 -1 0 1 0 1 0 0 3460.dat
1 0 -90 -360 70 0 0 -1 0 1 0 1 0 0 3623.dat
1 0 0 -360 90 1 0 0 0 1 0 0 0 1 3710.dat
1 0 100 -360 70 0 0 -1 0 1 0 1 0 0 3021.dat
1 0 -130 -360 -0 0 0 -1 0 1 0 1 0 0 3666.dat
1 0 -70 -360 50 1 0 0 0 1 0 0 0 1 3024.dat
1 0 70 -360 50 1 0 0 0 1 0 0 0 1 3024.dat
1 0 130 -360 -0 0 0 -1 0 1 0 1 0 0 3666.dat
1 0 110 -360 -20 0 0 -1 0 1 0 1 0 0 3666.dat
1 0 -150 -360 10 1 0 0 0 1 0 0 0 1 3024.dat
1 0 150 -360 10 1 0 0 0 1 0 0 0 1 3024.dat
1 0 -110 -360 -70 1 0 0 0 1 0 0 0 1 3024.dat
1 78 -90 -360 30 1 0 0 0 1 0 0 0 1 3024.dat
1 78 90 -360 30 1 0 0 0 1 0 0 0 1 3024.dat
1 78 -90 -360 -60 0 0 -1 0 1 0 1 0 0 3710.dat
1 78 90 -360 -60 0 0 -1 0 1 0 1 0 0 3710.dat
1 78 -70 -360 -70 0 0 -1 0 1 0 1 0 0 3623.dat
1 78 70 -360 -70 0 0 -1 0 1 0 1 0 0 3623.dat
1 78 -40 -360 -90 0 0 -1 0 1 0 1 0 0 3021.dat
1 78 40 -360 -90 0 0 -1 0 1 0 1 0 0 3021.dat
1 78 0 -360 -100 1 0 0 0 1 0 0 0 1 3022.dat
1 78 0 -360 -130 1 0 0 0 1 0 0 0 1 3069b.dat
0 STEP
1 0 0 -368 120 1 0 0 0 1 0 0 0 1 3020.dat
1 0 -60 -368 90 0 0 -1 0 1 0 1 0 0 3021.dat
1 0 60 -368 90 0 0 -1 0 1 0 1 0 0 3021.dat
1 0 -110 -368 20 0 0 -1 0 1 0 1 0 0 3460.dat
1 0 -90 -368 70 0 0 -1 0 1 0 1 0 0 3623.dat
1 0 0 -368 90 1 0 0 0 1 0 0 0 1 3710.dat
1 0 100 -368 70 0 0 -1 0 1 0 1 0 0 3021.dat
1 0 -130 -368 -0 0 0 -1 0 1 0 1 0 0 3666.dat
1 0 -70 -368 50 1 0 0 0 1 0 0 0 1 3024.dat
1 0 70 -368 50 1 0 0 0 1 0 0 0 1 3024.dat
1 0 130 -368 -0 0 0 -1 0 1 0 1 0 0 3666.dat
1 0 110 -368 -20 0 0 -1 0 1 0 1 0 0 3666.dat
1 0 -110 -368 -70 1 0 0 0 1 0 0 0 1 3024.dat
1 15 -70 -368 -90 1 0 0 0 1 0 0 0 1 3024.dat
1 15 70 -368 -90 1 0 0 0 1 0 0 0 1 3024.dat
1 15 -40 -368 -110 1 0 0 0 1 0 0 0 1 3023.dat
1 15 40 -368 -110 1 0 0 0 1 0 0 0 1 3023.dat
1 78 -90 -368 30 1 0 0 0 1 0 0 0 1 3024.dat
1 78 90 -368 30 1 0 0 0 1 0 0 0 1 3024.dat
1 78 -90 -368 -60 0 0 -1 0 1 0 1 0 0 3710.dat
1 78 90 -368 -60 0 0 -1 0 1 0 1 0 0 3710.dat
1 78 -70 -368 -60 0 0 -1 0 1 0 1 0 0 3023.dat
1 78 70 -368 -60 0 0 -1 0 1 0 1 0 0 3023.dat
1 78 -40 -368 -80 1 0 0 0 1 0 0 0 1 3022.dat
1 78 40 -368 -80 1 0 0 0 1 0 0 0 1 3022.dat
1 78 0 -368 -100 1 0 0 0 1 0 0 0 1 3022.dat
0 STEP
1 0 0 -376 110 0 0 -1 0 1 0 1 0 0 3021.dat
1 0 -50 -376 100 1 0 0 0 1 0 0 0 1 3021.dat
1 0 50 -376 100 1 0 0 0 1 0 0 0 1 3021.dat
1 0 -90 -376 70 0 0 -1 0 1 0 1 0 0 3623.dat
1 0 90 -376 70 0 0 -1 0 1 0 1 0 0 3623.dat
1 0 -110 -376 -0 0 0 -1 0 1 0 1 0 0 3460.dat
1 0 -60 -376 70 1 0 0 0 1 0 0 0 1 3023.dat
1 0 60 -376 70 1 0 0 0 1 0 0 0 1 3023.dat
1 0 110 -376 -0 0 0 -1 0 1 0 1 0 0 3460.dat
1 0 -130 -376 -0 0 0 -1 0 1 0 1 0 0 3666.dat
1 0 -70 -376 50 1 0 0 0 1 0 0 0 1 3024.dat
1 0 70 -376 50 1 0 0 0 1 0 0 0 1 3024.dat
1 0 130 -376 -0 0 0 -1 0 1 0 1 0 0 3666.dat
1 15 -70 -376 -90 1 0 0 0 1 0 0 0 1 3024.dat
1 15 70 -376 -90 1 0 0 0 1 0 0 0 1 3024.dat
1 15 -40 -376 -110 1 0 0 0 1 0 0 0 1 3023.dat
1 15 40 -376 -110 1 0 0 0 1 0 0 0 1 3023.dat
1 78 -90 -376 30 1 0 0 0 1 0 0 0 1 3024.dat
1 78 90 -376 30 1 0 0 0 1 0 0 0 1 3024.dat
1 78 -90 -376 -60 0 0 -1 0 1 0 1 0 0 3710.dat
1 78 90 -376 -60 0 0 -1 0 1 0 1 0 0 3710.dat
1 78 -70 -376 -60 0 0 -1 0 1 0 1 0 0 3023.dat
1 78 70 -376 -60 0 0 -1 0 1 0 1 0 0 3023.dat
1 78 -40 -376 -80 1 0 0 0 1 0 0 0 1 3022.dat
1 78 40 -376 -80 1 0 0 0 1 0 0 0 1 3022.dat
1 78 0 -376 -100 1 0 0 0 1 0 0 0 1 3022.dat
0 STEP
1 0 0 -384 110 0 0 -1 0 1 0 1 0 0 3021.dat
1 0 -50 -384 100 1 0 0 0 1 0 0 0 1 3021.dat
1 0 50 -384 100 1 0 0 0 1 0 0 0 1 3021.dat
1 0 -90 -384 70 0 0 -1 0 1 0 1 0 0 3623.dat
1 0 90 -384 70 0 0 -1 0 1 0 1 0 0 3623.dat
1 0 -110 -384 -0 0 0 -1 0 1 0 1 0 0 3460.dat
1 0 -60 -384 70 1 0 0 0 1 0 0 0 1 3023.dat
1 0 60 -384 70 1 0 0 0 1 0 0 0 1 3023.dat
1 0 110 -384 -0 0 0 -1 0 1 0 1 0 0 3460.dat
1 0 -130 -384 -0 0 0 -1 0 1 0 1 0 0 3666.dat
1 0 -70 -384 50 1 0 0 0 1 0 0 0 1 3024.dat
1 0 70 -384 50 1 0 0 0 1 0 0 0 1 3024.dat
1 0 130 -384 -0 0 0 -1 0 1 0 1 0 0 3666.dat
1 0 -50 -384 -110 1 0 0 0 1 0 0 0 1 3024.dat
1 0 50 -384 -110 1 0 0 0 1 0 0 0 1 3024.dat
1 15 -70 -384 -90 1 0 0 0 1 0 0 0 1 3024.dat
1 15 70 -384 -90 1 0 0 0 1 0 0 0 1 3024.dat
1 15 -30 -384 -110 1 0 0 0 1 0 0 0 1 3024.dat
1 15 30 -384 -110 1 0 0 0 1 0 0 0 1 3024.dat
1 78 -90 -384 30 1 0 0 0 1 0 0 0 1 3024.dat
1 78 90 -384 30 1 0 0 0 1 0 0 0 1 3024.dat
1 78 -90 -384 -60 0 0 -1 0 1 0 1 0 0 3710.dat
1 78 90 -384 -60 0 0 -1 0 1 0 1 0 0 3710.dat
1 78 -60 -384 -60 1 0 0 0 1 0 0 0 1 3022.dat
1 78 60 -384 -60 1 0 0 0 1 0 0 0 1 3022.dat
1 78 -30 -384 -80 0 0 -1 0 1 0 1 0 0 3023.dat
1 78 30 -384 -80 0 0 -1 0 1 0 1 0 0 3023.dat
1 78 -50 -384 -90 1 0 0 0 1 0 0 0 1 3024.dat
1 78 0 -384 -100 1 0 0 0 1 0 0 0 1 3022.dat
1 78 50 -384 -90 1 0 0 0 1 0 0 0 1 3024.dat
0 STEP
1 0 0 -392 100 1 0 0 0 1 0 0 0 1 3034.dat
1 0 -90 -392 70 0 0 -1 0 1 0 1 0 0 3623.dat
1 0 90 -392 70 0 0 -1 0 1 0 1 0 0 3623.dat
1 0 -110 -392 -0 0 0 -1 0 1 0 1 0 0 3460.dat
1 0 -50 -392 70 1 0 0 0 1 0 0 0 1 3623.dat
1 0 50 -392 70 1 0 0 0 1 0 0 0 1 3623.dat
1 0 110 -392 -0 0 0 -1 0 1 0 1 0 0 3460.dat
1 0 -130 -392 -0 0 0 -1 0 1 0 1 0 0 3666.dat
1 0 -70 -392 50 1 0 0 0 1 0 0 0 1 3024.dat
1 0 70 -392 50 1 0 0 0 1 0 0 0 1 3024.dat
1 0 130 -392 -0 0 0 -1 0 1 0 1 0 0 3666.dat
1 0 -50 -392 -110 1 0 0 0 1 0 0 0 1 3024.dat
1 0 50 -392 -110 1 0 0 0 1 0 0 0 1 3024.dat
1 15 -70 -392 -90 1 0 0 0 1 0 0 0 1 3024.dat
1 15 70 -392 -90 1 0 0 0 1 0 0 0 1 3024.dat
1 15 -30 -392 -110 1 0 0 0 1 0 0 0 1 3024.dat
1 15 30 -392 -110 1 0 0 0 1 0 0 0 1 3024.dat
1 78 -90 -392 30 1 0 0 0 1 0 0 0 1 3024.dat
1 78 90 -392 30 1 0 0 0 1 0 0 0 1 3024.dat
1 78 -90 -392 -40 0 0 -1 0 1 0 1 0 0 3710.dat
1 78 90 -392 -40 0 0 -1 0 1 0 1 0 0 3710.dat
1 78 -60 -392 -60 1 0 0 0 1 0 0 0 1 3022.dat
1 78 60 -392 -60 1 0 0 0 1 0 0 0 1 3022.dat
1 78 -30 -392 -80 0 0 -1 0 1 0 1 0 0 3023.dat
1 78 30 -392 -80 0 0 -1 0 1 0 1 0 0 3023.dat
1 78 -50 -392 -90 1 0 0 0 1 0 0 0 1 3024.dat
1 78 0 -392 -100 1 0 0 0 1 0 0 0 1 3022.dat
1 78 50 -392 -90 1 0 0 0 1 0 0 0 1 3024.dat
1 78 -90 -392 -90 1 0 0 0 1 0 0 0 1 3070b.dat
1 78 90 -392 -90 1 0 0 0 1 0 0 0 1 3070b.dat
0 STEP
1 0 0 -400 100 1 0 0 0 1 0 0 0 1 3034.dat
1 0 -90 -400 70 0 0 -1 0 1 0 1 0 0 3623.dat
1 0 90 -400 70 0 0 -1 0 1 0 1 0 0 3623.dat
1 0 -110 -400 -0 0 0 -1 0 1 0 1 0 0 3460.dat
1 0 -50 -400 70 1 0 0 0 1 0 0 0 1 3623.dat
1 0 50 -400 70 1 0 0 0 1 0 0 0 1 3623.dat
1 0 110 -400 -0 0 0 -1 0 1 0 1 0 0 3460.dat
1 0 -130 -400 -0 0 0 -1 0 1 0 1 0 0 3666.dat
1 0 -70 -400 50 1 0 0 0 1 0 0 0 1 3024.dat
1 0 70 -400 50 1 0 0 0 1 0 0 0 1 3024.dat
1 0 130 -400 -0 0 0 -1 0 1 0 1 0 0 3666.dat
1 15 -70 -400 -90 1 0 0 0 1 0 0 0 1 3024.dat
1 15 70 -400 -90 1 0 0 0 1 0 0 0 1 3024.dat
1 15 -40 -400 -110 1 0 0 0 1 0 0 0 1 3023.dat
1 15 40 -400 -110 1 0 0 0 1 0 0 0 1 3023.dat
1 78 -90 -400 -20 0 0 -1 0 1 0 1 0 0 3666.dat
1 78 90 -400 -20 0 0 -1 0 1 0 1 0 0 3666.dat
1 78 -60 -400 -60 1 0 0 0 1 0 0 0 1 3022.dat
1 78 60 -400 -60 1 0 0 0 1 0 0 0 1 3022.dat
1 78 0 -400 -80 1 0 0 0 1 0 0 0 1 3020.dat
1 78 -50 -400 -90 1 0 0 0 1 0 0 0 1 3024.dat
1 78 50 -400 -90 1 0 0 0 1 0 0 0 1 3024.dat
1 78 0 -400 -110 1 0 0 0 1 0 0 0 1 3023.dat
0 STEP
1 0 0 -408 100 1 0 0 0 1 0 0 0 1 3795.dat
1 0 -80 -408 70 0 0 -1 0 1 0 1 0 0 3021.dat
1 0 80 -408 70 0 0 -1 0 1 0 1 0 0 3021.dat
1 0 -110 -408 -0 0 0 -1 0 1 0 1 0 0 3460.dat
1 0 -40 -408 70 1 0 0 0 1 0 0 0 1 3023.dat
1 0 40 -408 70 1 0 0 0 1 0 0 0 1 3023.dat
1 0 110 -408 -0 0 0 -1 0 1 0 1 0 0 3460.dat
1 0 -130 -408 20 0 0 -1 0 1 0 1 0 0 3710.dat
1 0 130 -408 20 0 0 -1 0 1 0 1 0 0 3710.dat
1 0 -130 -408 -30 1 0 0 0 1 0 0 0 1 3024.dat
1 0 130 -408 -30 1 0 0 0 1 0 0 0 1 3024.dat
1 78 -90 -408 -20 0 0 -1 0 1 0 1 0 0 3666.dat
1 78 90 -408 -20 0 0 -1 0 1 0 1 0 0 3666.dat
1 78 -70 -408 -60 0 0 -1 0 1 0 1 0 0 3710.dat
1 78 70 -408 -60 0 0 -1 0 1 0 1 0 0 3710.dat
1 78 -50 -408 -70 0 0 -1 0 1 0 1 0 0 3623.dat
1 78 50 -408 -70 0 0 -1 0 1 0 1 0 0 3623.dat
1 78 -30 -408 -90 0 0 -1 0 1 0 1 0 0 3623.dat
1 78 30 -408 -90 0 0 -1 0 1 0 1 0 0 3623.dat
1 78 0 -408 -100 1 0 0 0 1 0 0 0 1 3022.dat
1 78 -50 -408 -110 1 0 0 0 1 0 0 0 1 3070b.dat
1 78 50 -408 -110 1 0 0 0 1 0 0 0 1 3070b.dat
0 STEP
1 0 0 -416 100 1 0 0 0 1 0 0 0 1 3795.dat
1 0 -80 -416 70 0 0 -1 0 1 0 1 0 0 3021.dat
1 0 80 -416 70 0 0 -1 0 1 0 1 0 0 3021.dat
1 0 -110 -416 -0 0 0 -1 0 1 0 1 0 0 3460.dat
1 0 -40 -416 70 1 0 0 0 1 0 0 0 1 3023.dat
1 0 40 -416 70 1 0 0 0 1 0 0 0 1 3023.dat
1 0 110 -416 -0 0 0 -1 0 1 0 1 0 0 3460.dat
1 0 -50 -416 50 1 0 0 0 1 0 0 0 1 3024.dat
1 0 50 -416 50 1 0 0 0 1 0 0 0 1 3024.dat
1 0 -130 -416 -0 0 0 -1 0 1 0 1 0 0 3710.dat
1 0 130 -416 -0 0 0 -1 0 1 0 1 0 0 3710.dat
1 78 -90 -416 -20 0 0 -1 0 1 0 1 0 0 3666.dat
1 78 -70 -416 30 1 0 0 0 1 0 0 0 1 3024.dat
1 78 80 -416 30 1 0 0 0 1 0 0 0 1 3023.dat
1 78 90 -416 -20 0 0 -1 0 1 0 1 0 0 3710.dat
1 78 -70 -416 -60 0 0 -1 0 1 0 1 0 0 3710.dat
1 78 70 -416 -60 0 0 -1 0 1 0 1 0 0 3710.dat
1 78 -50 -416 -70 0 0 -1 0 1 0 1 0 0 3623.dat
1 78 50 -416 -70 0 0 -1 0 1 0 1 0 0 3623.dat
1 78 0 -416 -80 1 0 0 0 1 0 0 0 1 3020.dat
1 78 90 -416 -70 1 0 0 0 1 0 0 0 1 3024.dat
1 78 0 -416 -110 1 0 0 0 1 0 0 0 1 3710.dat
0 STEP
1 0 0 -424 100 1 0 0 0 1 0 0 0 1 3795.dat
1 0 -80 -424 70 0 0 -1 0 1 0 1 0 0 3021.dat
1 0 80 -424 70 0 0 -1 0 1 0 1 0 0 3021.dat
1 0 -110 -424 20 0 0 -1 0 1 0 1 0 0 3666.dat
1 0 0 -424 70 1 0 0 0 1 0 0 0 1 3666.dat
1 0 110 -424 20 0 0 -1 0 1 0 1 0 0 3666.dat
1 0 -50 -424 50 1 0 0 0 1 0 0 0 1 3024.dat
1 0 50 -424 50 1 0 0 0 1 0 0 0 1 3024.dat
1 0 -130 -424 -0 0 0 -1 0 1 0 1 0 0 3710.dat
1 0 130 -424 -0 0 0 -1 0 1 0 1 0 0 3710.dat
1 0 -110 -424 -50 1 0 0 0 1 0 0 0 1 3024.dat
1 0 110 -424 -50 1 0 0 0 1 0 0 0 1 3024.dat
1 0 -60 -424 -110 1 0 0 0 1 0 0 0 1 3023.dat
1 0 60 -424 -110 1 0 0 0 1 0 0 0 1 3023.dat
1 0 -30 -424 -130 1 0 0 0 1 0 0 0 1 3024.dat
1 0 30 -424 -130 1 0 0 0 1 0 0 0 1 3024.dat
1 78 -90 -424 -20 0 0 -1 0 1 0 1 0 0 3666.dat
1 78 -70 -424 30 1 0 0 0 1 0 0 0 1 3024.dat
1 78 80 -424 30 1 0 0 0 1 0 0 0 1 3023.dat
1 78 90 -424 -20 0 0 -1 0 1 0 1 0 0 3710.dat
1 78 -70 -424 -60 0 0 -1 0 1 0 1 0 0 3710.dat
1 78 70 -424 -60 0 0 -1 0 1 0 1 0 0 3710.dat
1 78 -50 -424 -70 0 0 -1 0 1 0 1 0 0 3623.dat
1 78 50 -424 -70 0 0 -1 0 1 0 1 0 0 3623.dat
1 78 0 -424 -80 1 0 0 0 1 0 0 0 1 3020.dat
1 78 90 -424 -70 1 0 0 0 1 0 0 0 1 3024.dat
1 78 0 -424 -110 1 0 0 0 1 0 0 0 1 3710.dat
0 STEP
1 0 0 -432 100 1 0 0 0 1 0 0 0 1 3795.dat
1 0 -70 -432 70 0 0 -1 0 1 0 1 0 0 3623.dat
1 0 70 -432 70 0 0 -1 0 1 0 1 0 0 3623.dat
1 0 -90 -432 60 0 0 -1 0 1 0 1 0 0 3023.dat
1 0 0 -432 70 1 0 0 0 1 0 0 0 1 3666.dat
1 0 90 -432 60 0 0 -1 0 1 0 1 0 0 3023.dat
1 0 -110 -432 -0 0 0 -1 0 1 0 1 0 0 3666.dat
1 0 -50 -432 50 1 0 0 0 1 0 0 0 1 3024.dat
1 0 50 -432 50 1 0 0 0 1 0 0 0 1 3024.dat
1 0 110 -432 -0 0 0 -1 0 1 0 1 0 0 3666.dat
1 0 -130 -432 -0 0 0 -1 0 1 0 1 0 0 3023.dat
1 0 130 -432 -0 0 0 -1 0 1 0 1 0 0 3023.dat
1 78 -90 -432 -20 0 0 -1 0 1 0 1 0 0 3666.dat
1 78 -70 -432 30 1 0 0 0 1 0 0 0 1 3024.dat
1 78 80 -432 30 1 0 0 0 1 0 0 0 1 3023.dat
1 78 90 -432 -20 0 0 -1 0 1 0 1 0 0 3710.dat
1 78 -60 -432 -60 0 0 -1 0 1 0 1 0 0 3020.dat
1 78 60 -432 -60 0 0 -1 0 1 0 1 0 0 3020.dat
1 78 -30 -432 -70 0 0 -1 0 1 0 1 0 0 3623.dat
1 78 30 -432 -70 0 0 -1 0 1 0 1 0 0 3623.dat
1 78 0 -432 -90 0 0 -1 0 1 0 1 0 0 3021.dat
1 78 90 -432 -70 1 0 0 0 1 0 0 0 1 3024.dat
1 78 -30 -432 -110 1 0 0 0 1 0 0 0 1 3070b.dat
1 78 30 -432 -110 1 0 0 0 1 0 0 0 1 3070b.dat
0 STEP
1 0 0 -440 100 1 0 0 0 1 0 0 0 1 3020.dat
1 0 -60 -440 70 0 0 -1 0 1 0 1 0 0 3021.dat
1 0 60 -440 70 0 0 -1 0 1 0 1 0 0 3021.dat
1 0 -90 -440 60 0 0 -1 0 1 0 1 0 0 3023.dat
1 0 0 -440 70 1 0 0 0 1 0 0 0 1 3710.dat
1 0 90 -440 60 0 0 -1 0 1 0 1 0 0 3023.dat
1 0 -110 -440 -0 0 0 -1 0 1 0 1 0 0 3666.dat
1 0 -30 -440 50 1 0 0 0 1 0 0 0 1 3024.dat
1 0 30 -440 50 1 0 0 0 1 0 0 0 1 3024.dat
1 0 110 -440 -0 0 0 -1 0 1 0 1 0 0 3666.dat
1 0 -50 -440 -80 0 0 -1 0 1 0 1 0 0 3666.dat
1 78 -90 -440 -0 0 0 -1 0 1 0 1 0 0 3710.dat
1 78 -70 -440 20 0 0 -1 0 1 0 1 0 0 3023.dat
1 78 80 -440 20 1 0 0 0 1 0 0 0 1 3022.dat
1 78 90 -440 -30 0 0 -1 0 1 0 1 0 0 3623.dat
1 78 -70 -440 -50 0 0 -1 0 1 0 1 0 0 3623.dat
1 78 60 -440 -50 0 0 -1 0 1 0 1 0 0 3021.dat
1 78 -90 -440 -50 1 0 0 0 1 0 0 0 1 3024.dat
1 78 -30 -440 -70 0 0 -1 0 1 0 1 0 0 3623.dat
1 78 30 -440 -70 0 0 -1 0 1 0 1 0 0 3623.dat
1 78 0 -440 -80 1 0 0 0 1 0 0 0 1 3022.dat
1 78 50 -440 -90 1 0 0 0 1 0 0 0 1 3024.dat
1 78 -10 -440 -110 1 0 0 0 1 0 0 0 1 3024.dat
1 78 -90 -440 -70 1 0 0 0 1 0 0 0 1 3070b.dat
1 78 90 -440 -70 1 0 0 0 1 0 0 0 1 3070b.dat
1 78 -70 -440 -90 1 0 0 0 1 0 0 0 1 3070b.dat
1 78 70 -440 -90 1 0 0 0 1 0 0 0 1 3070b.dat
1 78 10 -440 -110 1 0 0 0 1 0 0 0 1 3070b.dat
0 STEP
1 0 0 -448 90 0 0 -1 0 1 0 1 0 0 3021.dat
1 0 -50 -448 80 1 0 0 0 1 0 0 0 1 3021.dat
1 0 50 -448 80 1 0 0 0 1 0 0 0 1 3021.dat
1 0 -90 -448 60 0 0 -1 0 1 0 1 0 0 3023.dat
1 0 90 -448 60 0 0 -1 0 1 0 1 0 0 3023.dat
1 0 -110 -448 -0 0 0 -1 0 1 0 1 0 0 3666.dat
1 0 -50 -448 50 1 0 0 0 1 0 0 0 1 3623.dat
1 0 50 -448 50 1 0 0 0 1 0 0 0 1 3623.dat
1 0 110 -448 -0 0 0 -1 0 1 0 1 0 0 3666.dat
1 0 -50 -448 -60 0 0 -1 0 1 0 1 0 0 3710.dat
1 0 -30 -448 -80 0 0 -1 0 1 0 1 0 0 3710.dat
1 0 -10 -448 -100 0 0 -1 0 1 0 1 0 0 3710.dat
1 0 -50 -448 -110 1 0 0 0 1 0 0 0 1 3024.dat
1 0 -30 -448 -130 1 0 0 0 1 0 0 0 1 3024.dat
1 78 -80 -448 -0 0 0 -1 0 1 0 1 0 0 3020.dat
1 78 -50 -448 30 1 0 0 0 1 0 0 0 1 3024.dat
1 78 70 -448 30 1 0 0 0 1 0 0 0 1 3623.dat
1 78 80 -448 -20 0 0 -1 0 1 0 1 0 0 3020.dat
1 78 50 -448 -60 0 0 -1 0 1 0 1 0 0 3710.dat
1 78 -80 -448 -50 1 0 0 0 1 0 0 0 1 3023.dat
1 78 30 -448 -70 0 0 -1 0 1 0 1 0 0 3623.dat
1 78 -70 -448 -70 1 0 0 0 1 0 0 0 1 3024.dat
1 78 10 -448 -80 0 0 -1 0 1 0 1 0 0 3023.dat
1 78 70 -448 -70 1 0 0 0 1 0 0 0 1 3024.dat
0 STEP
1 0 0 -456 80 1 0 0 0 1 0 0 0 1 3795.dat
1 0 -80 -456 60 1 0 0 0 1 0 0 0 1 3022.dat
1 0 80 -456 60 1 0 0 0 1 0 0 0 1 3022.dat
1 0 -40 -456 50 1 0 0 0 1 0 0 0 1 3023.dat
1 0 40 -456 50 1 0 0 0 1 0 0 0 1 3023.dat
1 0 -110 -456 -0 0 0 -1 0 1 0 1 0 0 3710.dat
1 0 110 -456 -0 0 0 -1 0 1 0 1 0 0 3710.dat
1 0 -50 -456 -60 0 0 -1 0 1 0 1 0 0 3666.dat
1 0 -110 -456 -50 1 0 0 0 1 0 0 0 1 3024.dat
1 0 -30 -456 -80 0 0 -1 0 1 0 1 0 0 3710.dat
1 0 30 -456 -80 0 0 -1 0 1 0 1 0 0 3710.dat
1 0 110 -456 -50 1 0 0 0 1 0 0 0 1 3024.dat
1 0 0 -456 -100 0 0 -1 0 1 0 1 0 0 3020.dat
1 0 -30 -456 -130 1 0 0 0 1 0 0 0 1 3024.dat
1 0 30 -456 -130 1 0 0 0 1 0 0 0 1 3024.dat
1 78 -80 -456 -0 0 0 -1 0 1 0 1 0 0 3020.dat
1 78 -50 -456 20 0 0 -1 0 1 0 1 0 0 3023.dat
1 78 60 -456 -20 0 0 -1 0 1 0 1 0 0 3795.dat
1 78 90 -456 -0 0 0 -1 0 1 0 1 0 0 3710.dat
1 78 -80 -456 -50 1 0 0 0 1 0 0 0 1 3023.dat
1 78 90 -456 -50 1 0 0 0 1 0 0 0 1 3024.dat
1 78 -70 -456 -70 1 0 0 0 1 0 0 0 1 3024.dat
1 78 50 -456 -90 1 0 0 0 1 0 0 0 1 3024.dat
0 STEP
1 0 0 -464 80 1 0 0 0 1 0 0 0 1 3795.dat
1 0 -70 -464 60 0 0 -1 0 1 0 1 0 0 3023.dat
1 0 70 -464 60 0 0 -1 0 1 0 1 0 0 3023.dat
1 0 -90 -464 50 1 0 0 0 1 0 0 0 1 3024.dat
1 0 0 -464 50 1 0 0 0 1 0 0 0 1 3666.dat
1 0 90 -464 50 1 0 0 0 1 0 0 0 1 3024.dat
1 0 -110 -464 -0 0 0 -1 0 1 0 1 0 0 3710.dat
1 0 110 -464 -0 0 0 -1 0 1 0 1 0 0 3710.dat
1 0 -50 -464 -60 0 0 -1 0 1 0 1 0 0 3666.dat
1 0 60 -464 -60 0 0 -1 0 1 0 1 0 0 3795.dat
1 0 -30 -464 -80 0 0 -1 0 1 0 1 0 0 3710.dat
1 0 30 -464 -80 0 0 -1 0 1 0 1 0 0 3710.dat
1 0 0 -464 -100 0 0 -1 0 1 0 1 0 0 3020.dat
1 78 -70 -464 -20 0 0 -1 0 1 0 1 0 0 3666.dat
1 78 -50 -464 20 0 0 -1 0 1 0 1 0 0 3023.dat
1 78 60 -464 20 1 0 0 0 1 0 0 0 1 3022.dat
1 78 -90 -464 -20 0 0 -1 0 1 0 1 0 0 3710.dat
1 78 90 -464 -20 0 0 -1 0 1 0 1 0 0 3710.dat
1 78 -90 -464 30 1 0 0 0 1 0 0 0 1 3070b.dat
1 78 90 -464 30 1 0 0 0 1 0 0 0 1 3070b.dat
0 STEP
1 0 0 -472 80 1 0 0 0 1 0 0 0 1 3795.dat
1 0 -70 -472 60 0 0 -1 0 1 0 1 0 0 3023.dat
1 0 70 -472 60 0 0 -1 0 1 0 1 0 0 3023.dat
1 0 -90 -472 50 1 0 0 0 1 0 0 0 1 3024.dat
1 0 0 -472 50 1 0 0 0 1 0 0 0 1 3666.dat
1 0 90 -472 50 1 0 0 0 1 0 0 0 1 3024.dat
1 0 -110 -472 -10 0 0 -1 0 1 0 1 0 0 3623.dat
1 0 110 -472 -10 0 0 -1 0 1 0 1 0 0 3623.dat
1 0 -80 -472 -40 0 0 -1 0 1 0 1 0 0 3020.dat
1 0 -50 -472 -60 0 0 -1 0 1 0 1 0 0 3666.dat
1 0 60 -472 -40 0 0 -1 0 1 0 1 0 0 3020.dat
1 0 90 -472 -40 0 0 -1 0 1 0 1 0 0 3710.dat
1 0 0 -472 -80 1 0 0 0 1 0 0 0 1 3031.dat
1 0 -70 -472 -90 1 0 0 0 1 0 0 0 1 3024.dat
1 0 60 -472 -90 1 0 0 0 1 0 0 0 1 3023.dat
1 0 50 -472 -110 1 0 0 0 1 0 0 0 1 3024.dat
1 78 -60 -472 20 1 0 0 0 1 0 0 0 1 3022.dat
1 78 -30 -472 30 1 0 0 0 1 0 0 0 1 3024.dat
1 78 50 -472 30 1 0 0 0 1 0 0 0 1 3623.dat
1 78 60 -472 10 1 0 0 0 1 0 0 0 1 3023.dat
1 78 -90 -472 10 1 0 0 0 1 0 0 0 1 3070b.dat
1 78 90 -472 10 1 0 0 0 1 0 0 0 1 3070b.dat
0 STEP
1 0 0 -480 80 1 0 0 0 1 0 0 0 1 3020.dat
1 0 -60 -480 60 1 0 0 0 1 0 0 0 1 3022.dat
1 0 60 -480 60 1 0 0 0 1 0 0 0 1 3022.dat
1 0 -90 -480 50 1 0 0 0 1 0 0 0 1 3024.dat
1 0 0 -480 50 1 0 0 0 1 0 0 0 1 3710.dat
1 0 90 -480 50 1 0 0 0 1 0 0 0 1 3024.dat
1 0 -80 -480 -10 1 0 0 0 1 0 0 0 1 3710.dat
1 0 60 -480 -40 0 0 -1 0 1 0 1 0 0 3020.dat
1 0 90 -480 -40 0 0 -1 0 1 0 1 0 0 3710.dat
1 0 110 -480 -10 1 0 0 0 1 0 0 0 1 3024.dat
1 0 -60 -480 -40 1 0 0 0 1 0 0 0 1 3020.dat
1 0 30 -480 -60 0 0 -1 0 1 0 1 0 0 3710.dat
1 0 0 -480 -80 0 0 -1 0 1 0 1 0 0 3020.dat
1 0 -60 -480 -70 1 0 0 0 1 0 0 0 1 3710.dat
1 0 -50 -480 -90 1 0 0 0 1 0 0 0 1 3623.dat
1 0 60 -480 -90 1 0 0 0 1 0 0 0 1 3023.dat
1 0 -40 -480 -110 1 0 0 0 1 0 0 0 1 3023.dat
1 0 40 -480 -110 1 0 0 0 1 0 0 0 1 3023.dat
1 78 -60 -480 20 1 0 0 0 1 0 0 0 1 3022.dat
1 78 -30 -480 30 1 0 0 0 1 0 0 0 1 3024.dat
1 78 50 -480 30 1 0 0 0 1 0 0 0 1 3623.dat
1 78 60 -480 10 1 0 0 0 1 0 0 0 1 3023.dat
0 STEP
1 0 0 -488 60 0 0 -1 0 1 0 1 0 0 3020.dat
1 0 -50 -488 -0 0 0 -1 0 1 0 1 0 0 3460.dat
1 0 -30 -488 50 0 0 -1 0 1 0 1 0 0 3623.dat
1 0 40 -488 50 0 0 -1 0 1 0 1 0 0 3021.dat
1 0 -70 -488 -0 0 0 -1 0 1 0 1 0 0 3666.dat
1 0 70 -488 -0 0 0 -1 0 1 0 1 0 0 3666.dat
1 0 -90 -488 -0 0 0 -1 0 1 0 1 0 0 3710.dat
1 0 90 -488 -0 0 0 -1 0 1 0 1 0 0 3710.dat
1 0 50 -488 -20 0 0 -1 0 1 0 1 0 0 3710.dat
1 0 -30 -488 -60 0 0 -1 0 1 0 1 0 0 3710.dat
1 0 30 -488 -60 0 0 -1 0 1 0 1 0 0 3710.dat
1 0 -90 -488 -50 1 0 0 0 1 0 0 0 1 3024.dat
1 0 0 -488 -70 0 0 -1 0 1 0 1 0 0 3021.dat
1 0 90 -488 -50 1 0 0 0 1 0 0 0 1 3024.dat
1 0 -70 -488 -70 1 0 0 0 1 0 0 0 1 3024.dat
1 0 60 -488 -70 1 0 0 0 1 0 0 0 1 3023.dat
0 STEP
1 0 -40 -496 -0 0 0 -1 0 1 0 1 0 0 3034.dat
1 0 20 -496 60 1 0 0 0 1 0 0 0 1 3020.dat
1 0 -70 -496 -0 0 0 -1 0 1 0 1 0 0 3666.dat
1 0 70 -496 -0 0 0 -1 0 1 0 1 0 0 3666.dat
1 0 -90 -496 -0 0 0 -1 0 1 0 1 0 0 3710.dat
1 0 20 -496 30 1 0 0 0 1 0 0 0 1 3710.dat
1 0 90 -496 -0 0 0 -1 0 1 0 1 0 0 3710.dat
1 0 40 -496 -20 0 0 -1 0 1 0 1 0 0 3020.dat
1 0 0 -496 -60 0 0 -1 0 1 0 1 0 0 3020.dat
1 0 40 -496 -70 1 0 0 0 1 0 0 0 1 3023.dat
1 0 -30 -496 -90 1 0 0 0 1 0 0 0 1 3024.dat
1 0 30 -496 -90 1 0 0 0 1 0 0 0 1 3024.dat
0 STEP
1 0 0 -504 40 1 0 0 0 1 0 0 0 1 3031.dat
1 0 -60 -504 -0 0 0 -1 0 1 0 1 0 0 3795.dat
1 0 60 -504 -0 0 0 -1 0 1 0 1 0 0 3795.dat
1 0 -90 -504 -0 0 0 -1 0 1 0 1 0 0 3023.dat
1 0 90 -504 -0 0 0 -1 0 1 0 1 0 0 3023.dat
1 0 -30 -504 -40 0 0 -1 0 1 0 1 0 0 3710.dat
1 0 30 -504 -40 0 0 -1 0 1 0 1 0 0 3710.dat
1 0 0 -504 -50 0 0 -1 0 1 0 1 0 0 3021.dat
1 0 -50 -504 -70 1 0 0 0 1 0 0 0 1 3024.dat
1 0 50 -504 -70 1 0 0 0 1 0 0 0 1 3024.dat
0 STEP
1 0 0 -512 -0 0 0 -1 0 1 0 1 0 0 3034.dat
1 0 -40 -512 -0 0 0 -1 0 1 0 1 0 0 3795.dat
1 0 40 -512 -0 0 0 -1 0 1 0 1 0 0 3795.dat
1 0 -70 -512 -0 0 0 -1 0 1 0 1 0 0 3710.dat
1 0 70 -512 -0 0 0 -1 0 1 0 1 0 0 3710.dat
1 0 -30 -512 -70 1 0 0 0 1 0 0 0 1 3024.dat
1 0 30 -512 -70 1 0 0 0 1 0 0 0 1 3024.dat
0 STEP
1 0 0 -520 -0 0 0 -1 0 1 0 1 0 0 3032.dat
1 0 -50 -520 -0 0 0 -1 0 1 0 1 0 0 3710.dat
1 0 50 -520 -0 0 0 -1 0 1 0 1 0 0 3710.dat
1 0 -70 -520 -10 0 0 -1 0 1 0 1 0 0 3623.dat
1 0 70 -520 -10 0 0 -1 0 1 0 1 0 0 3623.dat
1 0 -50 -520 -50 1 0 0 0 1 0 0 0 1 3024.dat
1 0 50 -520 -50 1 0 0 0 1 0 0 0 1 3024.dat
1 0 0 -520 -70 1 0 0 0 1 0 0 0 1 3023.dat
0 STEP
1 0 0 -528 -0 0 0 -1 0 1 0 1 0 0 3795.dat
1 0 -40 -528 -0 0 0 -1 0 1 0 1 0 0 3020.dat
1 0 40 -528 -0 0 0 -1 0 1 0 1 0 0 3020.dat
1 0 -30 -528 -50 1 0 0 0 1 0 0 0 1 3024.dat
1 0 30 -528 -50 1 0 0 0 1 0 0 0 1 3024.dat
0 STEP
1 0 0 -536 -0 1 0 0 0 1 0 0 0 1 3031.dat
1 0 -50 -536 -10 1 0 0 0 1 0 0 0 1 3024.dat
1 0 50 -536 -10 1 0 0 0 1 0 0 0 1 3024.dat
0 STEP
