<svg xmlns="http://www.w3.org/2000/svg" viewBox="0 0 120 120" fill="none" aria-hidden="true"><g class="heddy-body"><g class="heddy-wing heddy-wing--l"><path d="M33 54 C21 64 21 88 33 99 C42 90 42 70 42 60 Z" fill="#ecebe5"/></g><g class="heddy-wing heddy-wing--r"><path d="M87 54 C99 64 99 88 87 99 C78 90 78 70 78 60 Z" fill="#ecebe5"/></g><ellipse cx="50" cy="106" rx="6.5" ry="4" fill="#DC9400"/><ellipse cx="70" cy="106" rx="6.5" ry="4" fill="#DC9400"/><path d="M60 18 C82 18 96 36 96 62 C96 90 80 107 60 107 C40 107 24 90 24 62 C24 36 38 18 60 18 Z" fill="#fff" stroke="#00173B" stroke-opacity="0.10" stroke-width="2"/><path d="M55.5 18 Q60 8.5 64.5 18" fill="#fff" stroke="#00173B" stroke-opacity="0.10" stroke-width="2"/><path d="M60 38 Q39 41 37 62 Q39 79 60 82 Q81 79 83 62 Q81 41 60 38 Z" stroke="#00173B" stroke-opacity="0.13" stroke-width="2" fill="none"/><circle cx="60" cy="27" r="1.5" fill="#00173B" opacity="0.30"/><circle cx="48" cy="31" r="1.2" fill="#00173B" opacity="0.22"/><circle cx="72" cy="31" r="1.2" fill="#00173B" opacity="0.22"/><circle cx="31" cy="74" r="1.3" fill="#00173B" opacity="0.20"/><circle cx="89" cy="74" r="1.3" fill="#00173B" opacity="0.20"/><circle cx="35" cy="86" r="1.1" fill="#00173B" opacity="0.18"/><circle cx="85" cy="86" r="1.1" fill="#00173B" opacity="0.18"/><path d="M38 60 Q47 66 56 60" stroke="#00173B" stroke-width="4" fill="none" stroke-linecap="round"/><path d="M64 60 Q73 66 82 60" stroke="#00173B" stroke-width="4" fill="none" stroke-linecap="round"/><text x="93" y="38" font-family="Source Serif 4, serif" font-style="italic" font-size="15" fill="#00173B" opacity="0.5">z</text><text x="101" y="30" font-family="Source Serif 4, serif" font-style="italic" font-size="10" fill="#00173B" opacity="0.35">z</text><path d="M60 67 L54.5 72 L60 78.5 L65.5 72 Z" fill="#DC9400"/><g transform="translate(60 94)"><path d="M0 -7 L1.6 -1.7 L7 0 L1.6 1.7 L0 7 L-1.6 1.7 L-7 0 L-1.6 -1.7 Z" fill="#238744"/></g></g></svg>